<svg id="logo" xmlns="http://www.w3.org/2000/svg" width="246.098" height="74.552" viewBox="0 0 246.098 74.552">
  <g id="Group_7543" data-name="Group 7543" transform="translate(172.586 59.932)">
    <path id="Path_48932" data-name="Path 48932" d="M207.608,41.419c.368.015.979.015,1.81,0a4.727,4.727,0,0,0,.854-.088.241.241,0,0,0,.2-.235c0-.147-.177-.243-.515-.28-.118-.007-.36-.015-.736-.015l-.228.007-.221.007a4.255,4.255,0,0,1-.743-.066c-.14-.022-.2-.044-.177-.044a2.035,2.035,0,0,0-.6.118c-.228.074-.331.162-.331.25C206.916,41.323,207.137,41.441,207.608,41.419Z" transform="translate(-200.2 -38.608)" fill="#d50012"/>
    <path id="Path_48933" data-name="Path 48933" d="M211.433,41.395a2.9,2.9,0,0,0-.993-.125l-1.2-.037a.212.212,0,0,1-.147-.052l-.11-.044a.429.429,0,0,0-.184.074,1.59,1.59,0,0,1-.677.088,6.072,6.072,0,0,0-.765.022,4.856,4.856,0,0,1-.478.235.129.129,0,0,0-.074.1l.132.125a.343.343,0,0,1,.1.294c-.022.169.059.272.265.309a1.7,1.7,0,0,0,.368.044,1.569,1.569,0,0,1,.331.022c.118.044.258.1.434.147a1.261,1.261,0,0,0,.236-.052,1.109,1.109,0,0,1,.3-.044c.368-.015.765-.022,1.185-.022.795,0,1.251-.125,1.376-.383l.066-.081c.052-.051.081-.088.081-.11a.821.821,0,0,0-.066-.206A.975.975,0,0,0,211.433,41.395Z" transform="translate(-200.906 -35.861)" fill="#d50012"/>
    <path id="Path_48934" data-name="Path 48934" d="M211.48,41.578a6.022,6.022,0,0,0-.773-.037h-.765l-1.214.044a2.343,2.343,0,0,1-.442-.029l-.243-.044a1.324,1.324,0,0,0-.221.037l-.162.029a2.77,2.77,0,0,0-.692.155c-.258.1-.383.2-.383.294s.1.177.324.243a2.084,2.084,0,0,0,.611.1c.257.015.839.015,1.744.007.184,0,.4.015.625.037s.339.029.339.029a.992.992,0,0,0,.2-.044,1.992,1.992,0,0,1,.3-.051h.419a1.865,1.865,0,0,0,.677-.118c.162-.059.258-.155.258-.272C212.083,41.777,211.87,41.644,211.48,41.578Z" transform="translate(-202.292 -33.477)" fill="#d50012"/>
    <path id="Path_48935" data-name="Path 48935" d="M207.69,42.778h.942a2.447,2.447,0,0,0,1.177-.213c.066-.044.1-.155.1-.338a.358.358,0,0,0-.257-.361,1.609,1.609,0,0,0-.449-.044c-.339.015-.552.015-.618.015a1.529,1.529,0,0,1-.221-.029l-.177-.037-.28.066a1.729,1.729,0,0,1-.353.052l-.1-.007h-.184a1.114,1.114,0,0,0-.537.147c-.184.11-.28.221-.28.338s.162.243.464.309A3.339,3.339,0,0,0,207.69,42.778Z" transform="translate(-203.138 -31.837)" fill="#d50012"/>
    <path id="Path_48936" data-name="Path 48936" d="M207.12,41.471a1.3,1.3,0,0,0,.486.074c.39.007.92.007,1.6.007a4.676,4.676,0,0,0,.824-.066c.375-.059.574-.155.574-.3s-.1-.235-.257-.272c-.162-.015-.316-.029-.464-.052l-2.016-.015a2.451,2.451,0,0,0-.736.074.312.312,0,0,0-.25.294C206.877,41.332,206.958,41.405,207.12,41.471Z" transform="translate(-200.448 -37.711)" fill="#d50012"/>
    <path id="Path_48937" data-name="Path 48937" d="M219.661,51.751a13.458,13.458,0,0,0-.11-3.444c0-.147-.221-.258-.184-.441.184-.3.11-.67.184-1a10.005,10.005,0,0,0,.073-1.479c-.11-.449.037-1-.368-1.339-.11-.147.074-.258.147-.4,0-.258.221-.486.037-.743-.11-.037-.221-.147-.368-.074-.147.184.11.368.184.522-.441.147-.073.625-.221.927.11,1.626.074,3.326.037,5l-.339.6a7.4,7.4,0,0,1,.3,1.369,11.3,11.3,0,0,1-.073,1.928c-.074.11-.147.294-.339.258-.037-.037-.037-.074-.074-.147.074-1.744-.037-3.444.037-5.224.081-.147.228-.294.184-.486-.515-.883-.066-2.068-.331-3.068l.074-1.3a.965.965,0,0,1-.11-.846c.037-.147-.11-.3-.037-.449a.286.286,0,0,0-.11-.368c-.331-.221-.854.147-1-.294a.854.854,0,0,1,.6-.3c.184-.074.368.155.515-.029,0-.044,0-.044-.037-.081-.294,0-.442-.441-.817-.221a6.151,6.151,0,0,0-1.442-.147,10.425,10.425,0,0,1-1.516-.037,3.769,3.769,0,0,0-.927.184c.258.11.442.331.706.331.4.3.773-.184,1.185,0,.4-.184.773.081,1.185.081.11.074.331.184.294.368-.074.147-.221.147-.368.147-.486-.258-.927.11-1.45-.037a.943.943,0,0,0-.442-.184c-.294.294-.743.147-1.037.4-.368.074-.633-.294-1-.147-.368.221-.515-.258-.89-.11a3.17,3.17,0,0,0-1.442.11c-.559.037-.964-.147-1.479-.11a3.908,3.908,0,0,0-1.3.331c-.155-.037-.155-.221-.3-.221a2.607,2.607,0,0,0-.927.147,3.472,3.472,0,0,0,.037,1.074.883.883,0,0,0-.11.743c-.037.331-.147.817.11,1.111.191.368-.294.7-.037,1.111.118.331-.257.478-.221.736.037,1.781.074,3.561.074,5.335.184.6-.147,1.148-.037,1.744.147.478.633.11.964.258.486.184.927-.11,1.332.147a1.405,1.405,0,0,1,.78,0,3.833,3.833,0,0,1,1.295.074,4.786,4.786,0,0,1,1.45,0c1.81-.037,3.591.037,5.4-.074l.147.11c.044.074-.037.147-.073.221a7.136,7.136,0,0,1-1.847.228c-.3.037-.67-.11-.964.037-.449.11-.854-.11-1.258,0a6.034,6.034,0,0,0-1.817.074,20.167,20.167,0,0,0-3.333.037,3.279,3.279,0,0,0-1.221-.221c-.074.037-.147.074-.147.147a.5.5,0,0,0,.442.184c.486.478,1.258.11,1.891.184.258-.368.625.074.964-.11a10.127,10.127,0,0,0,2.112,0c.258-.258.662-.037,1-.147.552.368,1.258,0,1.92.11.89.11,1.744-.037,2.634,0a2.26,2.26,0,0,1,.854-.258c.4-.147.552-.6.809-.89a1.311,1.311,0,0,0-.073-.67C219.183,52.495,219.771,52.237,219.661,51.751Zm-12.339-5.04a.194.194,0,0,1,.1-.162,2.14,2.14,0,0,1,.486-.206c.169-.066.353-.125.537-.191a7.426,7.426,0,0,0,1.273-.648q.839-.519.839-.773c0-.125-.235-.2-.677-.2l-.4.059a5.754,5.754,0,0,1-.7.051c-.559,0-.824-.051-.824-.162l.022-.066c.059-.1.3-.155.721-.177a4.308,4.308,0,0,1,.736.059c.243.052.36.066.36.066a1.127,1.127,0,0,0,.258-.059,3.478,3.478,0,0,1,.486-.1.667.667,0,0,0,.235-.1c.088-.059.147-.118.147-.162a.255.255,0,0,0-.14-.258,1.246,1.246,0,0,0-.464-.074,1.617,1.617,0,0,1-.383-.052,1.456,1.456,0,0,0-.258-.059l-.132.029a1.425,1.425,0,0,1-.4.074c-.265.029-.618.052-1.06.059-.522.007-.78-.037-.78-.147,0-.044.059-.1.2-.155a1.159,1.159,0,0,1,.4-.1l.979-.029a2.151,2.151,0,0,1,.515.066,1.315,1.315,0,0,0,.28.066c-.037,0,.066-.029.324-.1.162-.007.412-.037.758-.081.155-.037.235-.118.235-.228,0-.221-.294-.316-.875-.3l-.979.022q-.64-.011-.64-.177c0-.066.074-.118.235-.155a4.216,4.216,0,0,1,.787-.1H211.2c.316,0,.721.007,1.214.037l.14.044a.508.508,0,0,0,.184.029l.213-.044a6.222,6.222,0,0,1,.751-.066c.191,0,.471,0,.817.015.412.015.677.022.817.022a1.622,1.622,0,0,1,.486.088c.221.066.353.14.375.228l-.037.11a.43.43,0,0,0-.03.147.153.153,0,0,0,.03.11c.059.074.221.118.493.14l.6.074c.125.029.2.081.2.155s-.059.118-.155.155a.947.947,0,0,1-.331.059h-.449c-.324,0-.478.132-.478.4-.088.361-.486.559-1.17.618-.177.015-.662.015-1.479,0a7.914,7.914,0,0,0-1.633.081,1.923,1.923,0,0,0-.537.265c-.11.081-.324.265-.611.53a6.149,6.149,0,0,1-1.067.736,9.531,9.531,0,0,1-.846.449,2.967,2.967,0,0,1-1.059.272C207.432,46.917,207.322,46.851,207.322,46.711Zm8.947-.066a.649.649,0,0,1,.081.184c0,.375-.5.567-1.508.567-.14,0-.383-.007-.743-.007s-.6-.007-.743-.007a2.656,2.656,0,0,1-.353-.052,1.924,1.924,0,0,0-.28-.052l-.184.059a1.812,1.812,0,0,1-.522.059c-.258,0-.456-.015-.618-.029l-.258-.022c-.39,0-.589-.3-.589-.905a.306.306,0,0,1,.1-.221l.1-.11a.932.932,0,0,1-.081-.221c0-.155.162-.265.486-.338a3.394,3.394,0,0,1,.758-.074h.294l.287.007a2.774,2.774,0,0,1,.375.044,1.762,1.762,0,0,0,.316.044.28.28,0,0,0,.14-.029.435.435,0,0,1,.14-.037c.78-.022,1.369-.037,1.781-.037a2.867,2.867,0,0,1,.706.118c.309.088.471.184.471.28V46.1c0,.044-.052.1-.132.206a.723.723,0,0,0-.118.169A.4.4,0,0,0,216.269,46.645Zm-.574,2.141a1.076,1.076,0,0,1-.1.383.864.864,0,0,1-.721.427,9.279,9.279,0,0,1-1.207.037c-.037,0-.221-.029-.574-.1a1.052,1.052,0,0,0-.28.059,1.112,1.112,0,0,1-.265.052c-.258.007-.434.007-.5.007-1.141.007-1.994.007-2.539-.015a.937.937,0,0,1-.655-.243.481.481,0,0,1-.177-.375.714.714,0,0,1,.132-.449.745.745,0,0,1,.522-.316c.037-.007.383-.037,1.037-.059a1.128,1.128,0,0,1,.324.052l.2.059a1.431,1.431,0,0,0,.346-.074,2.012,2.012,0,0,1,.368-.081l.751-.029q1.258-.011,1.611,0a3.722,3.722,0,0,1,1.427.228A.479.479,0,0,1,215.7,48.786Zm1.538,4.481a2.573,2.573,0,0,1-.773.1l-3.186.029c-.434,0-1.082.007-1.943.007h-.015l.022-.007h-.1a13.418,13.418,0,0,1-1.5-.088,3.453,3.453,0,0,1-1.354-.338.83.83,0,0,1-.383-.478v-.419l-.037-.552a.742.742,0,0,1,.081-.412l.1-.081c.059-.044.081-.081.059-.1-.14-.081-.213-.147-.213-.213,0-.287.052-.456.14-.515a2.623,2.623,0,0,1,.993-.118,3.974,3.974,0,0,1,.736.059l.3.074.147-.066a1.431,1.431,0,0,1,.39-.066,2.418,2.418,0,0,0,.331-.022h.493c.007,0,.118,0,.3-.015l.3-.015h.353l2.038-.022.89.007a1.405,1.405,0,0,1,.868.235.864.864,0,0,1,.243.7c0,.478-.478.706-1.435.706h-1.656c-.052,0-.309.007-.765.007s-.839.007-1.155.007c-.228,0-.522,0-.861.015s-.618.022-.846.022a2.751,2.751,0,0,0-.839.088q-.243.088-.243.552c0,.361.567.567,1.707.611.964.037,2.075.051,3.311.051.2,0,1.045-.037,2.546-.1l.795-.037c.25,0,.39.066.39.191C217.461,53.142,217.38,53.216,217.233,53.267Z" transform="translate(-205.124 -40.42)" fill="#d50012"/>
    <path id="Path_48938" data-name="Path 48938" d="M207.821,42.747c.92,0,1.479-.007,1.678-.029.5-.051.758-.206.758-.464,0-.316-.375-.486-1.118-.486-.059,0-.221.007-.5.015s-.441.015-.5.015a2.8,2.8,0,0,0-.655.081c-.316.074-.464.184-.464.324-.015.213.022.338.118.39A1.165,1.165,0,0,0,207.821,42.747Z" transform="translate(-199.567 -31.849)" fill="#d50012"/>
    <path id="Path_48939" data-name="Path 48939" d="M208.224,40.89c.265-.037.486-.11.706.081.4-.3.78.147,1.148-.118.368-.184.78.081,1.111.081.11-.081.221-.11.184-.265-.257-.368-.743-.11-1.111-.221a18.839,18.839,0,0,1-2.038,0,13.708,13.708,0,0,0-1.773.258c-.11.037-.3,0-.265.184a.663.663,0,0,0,.486.118A5.18,5.18,0,0,1,208.224,40.89Z" transform="translate(-204.871 -40.338)" fill="#d50012"/>
    <path id="Path_48940" data-name="Path 48940" d="M207.378,40.515c-.11-.147-.294,0-.4.037.037.11.184.11.331.11C207.341,40.626,207.414,40.589,207.378,40.515Z" transform="translate(-199.838 -40.221)" fill="#d50012"/>
    <path id="Path_48941" data-name="Path 48941" d="M208.137,40.75c-.037-.074-.073-.221-.184-.184,0,.037-.074.074-.074.147a.439.439,0,0,0,.184.331C208.173,41.007,208.137,40.86,208.137,40.75Z" transform="translate(-194.077 -39.528)" fill="#d50012"/>
    <path id="Path_48942" data-name="Path 48942" d="M206.326,41.016c-.037-.074-.074-.184-.184-.147a.311.311,0,0,0-.11.258.663.663,0,0,0,.184.265A1.536,1.536,0,0,0,206.326,41.016Z" transform="translate(-205.821 -37.61)" fill="#d50012"/>
    <path id="Path_48943" data-name="Path 48943" d="M206.509,43.853c.294-.625-.339-1.037-.221-1.663.073-.258.4-.559.11-.854-.074-.11.074-.368-.11-.368-.339.037-.118.331-.191.515-.294.331.228.706-.074,1.037.147.78-.073,1.589.037,2.369a6.018,6.018,0,0,1-.037,1.67,2.076,2.076,0,0,1,.11.854c.265.368-.037.883.265,1.258.147-.155.037-.449.037-.67.11-.743-.074-1.442.037-2.185.037-.184.184-.331.147-.552C206.288,44.854,206.656,44.339,206.509,43.853Z" transform="translate(-206.003 -36.929)" fill="#d50012"/>
  </g>
  <g id="Group_7554" data-name="Group 7554">
    <g id="Group_7545" data-name="Group 7545" transform="translate(101.372 63.736)">
      <g id="Group_7544" data-name="Group 7544">
        <path id="Path_48944" data-name="Path 48944" d="M201,45.133V46a4.536,4.536,0,0,1-.927.375,3.44,3.44,0,0,1-.935.125,2.855,2.855,0,0,1-.839-.118,2.919,2.919,0,0,1-.765-.361,2.7,2.7,0,0,1-.89-1,2.82,2.82,0,0,1-.324-1.324,2.921,2.921,0,0,1,.206-1.06,2.845,2.845,0,0,1,.6-.89,2.772,2.772,0,0,1,.92-.6,3.036,3.036,0,0,1,1.148-.206,3.822,3.822,0,0,1,.861.1,4.586,4.586,0,0,1,.89.331V42.2a4.237,4.237,0,0,0-.92-.4,2.611,2.611,0,0,0-.831-.132,2.042,2.042,0,0,0-1.5.581,2,2,0,0,0-.589,1.472,2.032,2.032,0,0,0,.581,1.464,1.963,1.963,0,0,0,1.457.581,2.861,2.861,0,0,0,.912-.155A4.059,4.059,0,0,0,201,45.133Z" transform="translate(-196.325 -40.924)" fill="#5895af"/>
        <path id="Path_48945" data-name="Path 48945" d="M197.276,40.951h.736v3.09a3.3,3.3,0,0,0,.059.728.9.9,0,0,0,.177.368,1.485,1.485,0,0,0,.537.427,1.841,1.841,0,0,0,.714.132,1.563,1.563,0,0,0,1.082-.361,1.2,1.2,0,0,0,.412-.949V40.951h.736v3.458a1.9,1.9,0,0,1-.618,1.457,2.3,2.3,0,0,1-1.611.559,2.479,2.479,0,0,1-1.06-.213,2.1,2.1,0,0,1-.795-.64,1.339,1.339,0,0,1-.28-.559,3.662,3.662,0,0,1-.088-.949Z" transform="translate(-190.278 -40.848)" fill="#5895af"/>
        <path id="Path_48946" data-name="Path 48946" d="M198.233,46.33V40.951h1.611a1.822,1.822,0,0,1,1.258.4,1.645,1.645,0,0,1,0,2.259,1.856,1.856,0,0,1-1.258.4h-.883V46.33Zm.729-3h.8a1.225,1.225,0,0,0,.78-.2.781.781,0,0,0,.243-.64.8.8,0,0,0-.243-.648,1.225,1.225,0,0,0-.78-.2h-.8Z" transform="translate(-184.194 -40.848)" fill="#5895af"/>
        <path id="Path_48947" data-name="Path 48947" d="M199,46.33V40.951h.729V46.33Z" transform="translate(-179.33 -40.848)" fill="#5895af"/>
        <path id="Path_48948" data-name="Path 48948" d="M201.355,40.951a3.917,3.917,0,0,1,.986.11,2.343,2.343,0,0,1,.751.353,2.475,2.475,0,0,1,.809.949,2.81,2.81,0,0,1,.28,1.273,2.771,2.771,0,0,1-.287,1.28,2.4,2.4,0,0,1-.8.949,2.27,2.27,0,0,1-.751.353,3.956,3.956,0,0,1-.986.11h-1.9V40.951Zm0,.736h-1.17V45.6h1.17a2.093,2.093,0,0,0,1.5-.522,1.892,1.892,0,0,0,.544-1.435,1.87,1.87,0,0,0-.544-1.435A2.062,2.062,0,0,0,201.355,41.687Z" transform="translate(-176.411 -40.848)" fill="#5895af"/>
        <path id="Path_48949" data-name="Path 48949" d="M205.521,45.133V46a4.654,4.654,0,0,1-.92.375,3.439,3.439,0,0,1-.934.125,2.939,2.939,0,0,1-.846-.118,3.105,3.105,0,0,1-.758-.361,2.857,2.857,0,0,1-.9-1,2.9,2.9,0,0,1-.316-1.324,2.649,2.649,0,0,1,.213-1.06,2.6,2.6,0,0,1,.6-.89,2.728,2.728,0,0,1,.927-.6,2.96,2.96,0,0,1,1.133-.206,3.774,3.774,0,0,1,.861.1,4.644,4.644,0,0,1,.9.331V42.2a4.4,4.4,0,0,0-.92-.4,2.624,2.624,0,0,0-.839-.132,2.035,2.035,0,0,0-1.494.581,1.974,1.974,0,0,0-.589,1.472,2,2,0,0,0,.581,1.464,1.963,1.963,0,0,0,1.457.581,2.862,2.862,0,0,0,.912-.155A4.022,4.022,0,0,0,205.521,45.133Z" transform="translate(-167.561 -40.924)" fill="#5895af"/>
        <path id="Path_48950" data-name="Path 48950" d="M201.707,46.33l2.237-5.379h.537l2.259,5.379h-.758l-.662-1.582h-2.2l-.662,1.582Zm1.7-2.274h1.611l-.817-1.943Z" transform="translate(-162.106 -40.848)" fill="#5895af"/>
        <path id="Path_48951" data-name="Path 48951" d="M202.639,46V44.984a2.7,2.7,0,0,0,.67.6,1.321,1.321,0,0,0,.677.184.884.884,0,0,0,.6-.184.616.616,0,0,0,.228-.508.728.728,0,0,0-.155-.456,3.369,3.369,0,0,0-.714-.574,4.377,4.377,0,0,1-1.1-.912,1.319,1.319,0,0,1-.221-.765,1.338,1.338,0,0,1,.427-1.03,1.506,1.506,0,0,1,1.1-.4,2.041,2.041,0,0,1,.589.088,2.788,2.788,0,0,1,.581.28v.876a2.458,2.458,0,0,0-.625-.412,1.359,1.359,0,0,0-.574-.132.887.887,0,0,0-.567.184.561.561,0,0,0-.221.456c0,.265.3.6.912.993l.11.066a3.35,3.35,0,0,1,.971.846,1.765,1.765,0,0,1,.228.912,1.325,1.325,0,0,1-.434,1.023,1.514,1.514,0,0,1-1.089.4,2.245,2.245,0,0,1-.758-.118A2.139,2.139,0,0,1,202.639,46Z" transform="translate(-156.224 -40.937)" fill="#5895af"/>
        <path id="Path_48952" data-name="Path 48952" d="M205.177,46.33V41.65h-1.9v-.7H207.8v.7h-1.9v4.68Z" transform="translate(-152.111 -40.848)" fill="#5895af"/>
        <path id="Path_48953" data-name="Path 48953" d="M204.184,46.33V40.951h.736v4.687h2.458v.692Z" transform="translate(-146.357 -40.848)" fill="#5895af"/>
        <path id="Path_48954" data-name="Path 48954" d="M204.905,46.33V40.951h3.105v.684h-2.369v1.633h2.3v.692h-2.3v1.678h2.45v.692Z" transform="translate(-141.773 -40.848)" fill="#5895af"/>
      </g>
    </g>
    <g id="Group_7547" data-name="Group 7547" transform="translate(35.319 5.215)">
      <g id="Group_7546" data-name="Group 7546">
        <path id="Path_48955" data-name="Path 48955" d="M202.108,44.227a1.482,1.482,0,0,0-.6-1.479c-1.015-.854-1.965-1.781-3.127-2.848a3.536,3.536,0,0,1,3.951.846,25.416,25.416,0,0,1,4.658,5.232c.846,1.486,1.736,3,1.435,4.856a8.41,8.41,0,0,0-.007,1.14,10.859,10.859,0,0,0,.773,5.327c1.31.64,1.81-.662,2.6-1.185l.957.655,1.413-1.074.574-.567.574-.574c.765-.007.456-.611.589-1a2.545,2.545,0,0,1,.559-.721l.184.471.383-.471.574-.574.574-.574a1.414,1.414,0,0,0,1.148-1.722l.574-.574c.861-.051.486-.714.574-1.148.861-.052.493-.714.574-1.148.861-.052.486-.714.574-1.148.861-.051.486-.714.574-1.148,1.207-.206.118-1.089,1.06-1.678a15.181,15.181,0,0,0-8.786,2.45c-.979-.574-1.906-1.111-3.392-1.987h-2.487c.905-1.376,1.582-2.421,2.252-3.451,3.12.567,5.622-1.06,8.271-1.817,3.024-.861,5.894-2.171,9.139-2.171,1.185,0,2.156-.655,3.591-.088,1.626.64,2.693,1.832,4.025,2.715.773.515,1.155,1.6,1.766,2.5l.412,1.663-.64,1.3c-4.224-1.317-9.124-2.421-11.236-1.479a16.172,16.172,0,0,1,.169,7.468,20.122,20.122,0,0,1-2.45,7.27c.544,1.413,2.126,1.339,3.318,1.582a35.268,35.268,0,0,0,5.379.4c.272.007.537-.235.817-.331,5.084-1.8,4.746-1.244,8.072-4.054A4.534,4.534,0,0,1,243.3,54.02a3.308,3.308,0,0,0,2.715-2.921c.088-.441.228-.868.361-1.346l-1.244-.625,1.273-.662a8.907,8.907,0,0,0,1.81.331,4.087,4.087,0,0,1,3.164,1.383c.53.552,1.089,1.074,1.619,1.626a6.435,6.435,0,0,0,3.046,1.656,7.86,7.86,0,0,1,5.739,6.549c-.67.625-1.361,1.28-2.163,2.031-1.626-.67-2.826.6-4.106,1.4-2.443,1.53-4.613,3.613-7.218,4.731-3.149,1.361-6.262,3.2-9.919,3.024A4.7,4.7,0,0,1,236,70.672c-1.045-.6-2.391-.684-3.48-1.243-1.023-.522-2.428-.353-3.068-1.589-2.539-.552-4.827-1.979-7.564-1.854a31.557,31.557,0,0,1-4.349-.522,11.011,11.011,0,0,0-4.356.53c-1.295.39-2.818-.464-4.054.6-.052.044-.184.015-.28.007-3.745-.324-7.042,1.391-10.515,2.3a2.432,2.432,0,0,0-.751.243,7.072,7.072,0,0,0-.824.8l-1.214-.611c-.6,2.811-2.6,3.767-4.945,4.26a5.009,5.009,0,0,1-2.31-4.29,8.238,8.238,0,0,0-.942-2.553l.434-.449a5,5,0,0,0,4.518-1.1,23.284,23.284,0,0,1,6.4-3.23,25.319,25.319,0,0,0,3.679-1.876l-1.494-.78a7.087,7.087,0,0,0-1.935-6.343c.316-.464.272-1.589,1.435-1.862l.191.471.383-.471a7.406,7.406,0,0,0,1.42-6.88Z" transform="translate(-187.348 -14.896)" fill="#5895af"/>
        <path id="Path_48956" data-name="Path 48956" d="M192.745,46.826a1.414,1.414,0,0,0,1.722-1.148l.574-.574a4.083,4.083,0,0,0,3.444-2.3l.574-.574.574-.574.471-.184-.471-.39a19.426,19.426,0,0,1,2.34-2.266,7.077,7.077,0,0,0,2.928-3.9l-1.972-.294.677-1.3c1.825-1.258,5.386,1.038,7.5,4.628,0,1.361-.044,2.789.015,4.216a5.037,5.037,0,0,1-1.155,3.26c-2.62,3.664-6.188,6-10.176,7.866a21.886,21.886,0,0,0-4.327,2.656,3.858,3.858,0,0,1-2.627.633c-.3-.353-.956-.8-1.111-1.376a20.341,20.341,0,0,0-1.192-3.532c-.36-.78-.066-1.876-.066-2.862l-1.192-.559a4.476,4.476,0,0,1,2.9-1.435,4.368,4.368,0,0,0,.029.6l-.081-.088-.471.4.184.184a3.419,3.419,0,0,0,.368-.493A5.316,5.316,0,0,1,192.745,46.826Z" transform="translate(-175.115 -32.984)" fill="#5895af"/>
        <path id="Path_48957" data-name="Path 48957" d="M191.971,39.533h-1.133c.368-.934.905-1.251,1.707-1.141v.574Z" transform="translate(-165.158 1.27)" fill="#5895af"/>
        <path id="Path_48958" data-name="Path 48958" d="M189.289,38.767v-1.53l.3-.022.213,1.523Z" transform="translate(-175.007 -6.087)" fill="#5895af"/>
        <path id="Path_48959" data-name="Path 48959" d="M192.005,37.989V36.944l.383-.044.191,1.089Z" transform="translate(-157.738 -8.084)" fill="#5895af"/>
        <path id="Path_48960" data-name="Path 48960" d="M192.5,38.2l-.574-.714.574-.434Z" transform="translate(-158.234 -7.143)" fill="#5895af"/>
        <path id="Path_48961" data-name="Path 48961" d="M191.776,38.508c.088-.434-.28-1.1.574-1.148v1.148Z" transform="translate(-159.231 -5.159)" fill="#5895af"/>
        <path id="Path_48962" data-name="Path 48962" d="M189.212,38.517v-.949l.272-.044.221.942Z" transform="translate(-175.497 -4.116)" fill="#5895af"/>
        <path id="Path_48963" data-name="Path 48963" d="M191.7,38.664c.088-.434-.28-1.1.574-1.148v1.148Z" transform="translate(-159.727 -4.167)" fill="#5895af"/>
        <path id="Path_48964" data-name="Path 48964" d="M189.12,38.847V37.795l.383-.037.191,1.089Z" transform="translate(-176.082 -2.629)" fill="#5895af"/>
        <path id="Path_48965" data-name="Path 48965" d="M191.464,38.976c.088-.434-.28-1.1.574-1.148v1.148Z" transform="translate(-161.215 -2.183)" fill="#5895af"/>
        <path id="Path_48966" data-name="Path 48966" d="M189.864,37.072l-.4.471-.184-.184.471-.4Z" transform="translate(-175.045 -7.69)" fill="#5895af"/>
        <path id="Path_48967" data-name="Path 48967" d="M191.615,38.246l.574-.574v.574Z" transform="translate(-160.218 -3.175)" fill="#5895af"/>
        <path id="Path_48968" data-name="Path 48968" d="M191.849,37.773l.383-.478.191.478Z" transform="translate(-158.73 -5.572)" fill="#5895af"/>
        <path id="Path_48969" data-name="Path 48969" d="M191.537,38.324l.574-.574Z" transform="translate(-160.714 -2.679)" fill="#5895af"/>
        <path id="Path_48970" data-name="Path 48970" d="M191.381,38.558l.574-.574v.574Z" transform="translate(-161.706 -1.192)" fill="#5895af"/>
        <path id="Path_48971" data-name="Path 48971" d="M191.3,38.636l.567-.574v.574Z" transform="translate(-162.195 -0.696)" fill="#5895af"/>
        <path id="Path_48972" data-name="Path 48972" d="M191.07,38.787l.383-.478.191.478Z" transform="translate(-163.683 0.875)" fill="#5895af"/>
      </g>
    </g>
    <g id="Group_7549" data-name="Group 7549" transform="translate(175.483)">
      <g id="Group_7548" data-name="Group 7548">
        <path id="Path_48973" data-name="Path 48973" d="M265.159,58.536c-.3.029-.633.029-1.2.029.346-.4.456-.64.648-.751.942-.508,1.906-.986,2.818-1.457l2.546.809a25.858,25.858,0,0,0,5.71,4.694,2.875,2.875,0,0,1,1.31,2.377c.044.706.007,1.42.007,2.333l-3.444,1.6L271.2,70.53a25.678,25.678,0,0,0-3.635,1.538,10,10,0,0,1-6.6,1.5,16.738,16.738,0,0,1-2.436-.581c-.927,1.538-.051,2.929.412,4.179.456,1.214.361,2.472.765,3.686.28.831-.427,2.06-.824,3.054a24.637,24.637,0,0,1-3.532,5.783,67.167,67.167,0,0,1-5.71,6.718c-1.133,1.126-2.612,1.847-3.436,3.341-.324.581-1.207.846-1.884,1.288-1.847-.728-2.494-2.229-2.759-4.025-.118-.831-.361-1.634-.522-2.458a8.042,8.042,0,0,0-.434-2.509c-.464-.92-.1-2.266-.1-3.429a5.263,5.263,0,0,0,.508-.559l.073.081.442-.375-.169-.169a3.039,3.039,0,0,0-.346.464,5.263,5.263,0,0,1-.508.559c-.817-.169-.714-.692-.258-1.045a7.2,7.2,0,0,1,3.473-1.634v.537a5.282,5.282,0,0,0-.508.559l-.074-.081-.441.375.169.169a3.045,3.045,0,0,0,.346-.464,5.282,5.282,0,0,1,.508-.559l.537-.537c1.185.081,1.678-.751,2.148-1.611l1.611-1.611,1.074-1.074.537-.537a1.324,1.324,0,0,0,1.074-1.611l.537-.537a3.518,3.518,0,0,0,.964-.736c.235-.368.228-.839-.427-.868.2-.53-.5-1.361.53-1.611l.184,1.015.353-.037v-.979c.184-.14.508-.28.515-.427.051-.876.022-1.759.022-2.9l-.765.559c-.633-.684-.353-1.258.177-1.781l-2-1.354h-5.982c-2.391,1.141-4.562,2.178-6.725,3.215-1.862-.272-3.466.7-5.07,1.221l-2.141-2.634c-1.163,1.494-2,2.759-1.494,4.51a10.317,10.317,0,0,1,.029,5.592,4.905,4.905,0,0,0-.169,1.273c-.022,1.692.39,3.525-.11,5.062-.552,1.678-.324,3.274-.412,4.908-.1,1.685-.022,3.385-.022,5.224a2.558,2.558,0,0,1-2.826-1.361c-1.1-1.626-2.428-3.09-3.664-4.636.456-2.671-1.1-5.173-.228-8.241.154.662.221.92.272,1.185.052.243.088.486.155.831,1.133-1.361-.339-2.436-.184-3.664a37.332,37.332,0,0,0,.037-4.3,21.436,21.436,0,0,1-6.953-8.315c.125-.905.971-1.008,1.678-.993,1.229-.957,2.3-1.825,3.414-2.649,1.082-.809,2.193-1.575,3.341-2.4V59.11l-.25-.022-.316,1.633-.25-.029V59.08l-1.567-1.707a3.013,3.013,0,0,0-.729.427,4.539,4.539,0,0,0-.515.854c-1.656,3.12-3.547,6.041-6.666,7.932a3.6,3.6,0,0,0-.655.633,5.362,5.362,0,0,1-3.466-3.87c-.508-1.56-1.626-2.9-1.744-4.65-.03-.4-.677-.743-1.177-1.251.736-.6,1.317-1.089,1.9-1.567l.177.441.361-.441.537-.537c.8-.044.456-.67.537-1.074l.537-.537a5.216,5.216,0,0,0,.508-.559l.074.081.441-.375-.169-.169a3.039,3.039,0,0,0-.346.464,3.69,3.69,0,0,1-.508.022,7.957,7.957,0,0,1,2.149-3.215l.177.441a3.162,3.162,0,0,0,.331-.471l.073.081.442-.375-.169-.169a3.031,3.031,0,0,0-.346.464,2.814,2.814,0,0,1-.508.029,6.878,6.878,0,0,1,.383-1.177c.64-1.192.905-2.568,1.972-3.664.051,0-.1.007-.258.015L214.9,46.2l.346-.044a1.924,1.924,0,0,0-.294-1.023c.169-1.163-1.472-1.405-1.317-2.649h-2.752c1.2-1.935,2.877-.6,4.1-1.258l5.386,4.26c.751,2.222,1.405,4.172,2.082,6.166l.927-.92V45.895c.8,1.354.265,2.48.706,3.863.706-2.215-.375-4.459,1.479-5.982L224.395,43V41.774l.78.64c.1-.1.28-.2.28-.309.029-.9.015-1.788.015-2.686,0-3.157,0-3.157-1.236-6.041l-.809.537a3.123,3.123,0,0,1-.625-.316,4.647,4.647,0,0,1-.53-.545l.78-.78h2.833c1.155,1.376,2.443,2.8,3.605,4.319a3.934,3.934,0,0,1,.773,2.06c.073,1.56.8,2.987.618,4.606a44.2,44.2,0,0,0-.037,4.842l1.825,1.788c2.539.228,2.745,2.627,4.15,4.194-.537.265-1.015.706-1.472.684a4.661,4.661,0,0,0-3.841,1.781c-.545.589-1.133,1.141-1.7,1.707a16.2,16.2,0,0,1-.493,3.547c-.64,1.8.353,3.532,1.457,4.952s1.589,2.774.177,4.937l1.273-.7.4.346c2.627-1.479,5.224-2.973,7.844-4.407a10.949,10.949,0,0,1,4.518-1.442c.986-.074,1.943-.5,2.995-.522a20.263,20.263,0,0,0,3.127-.544V59.176H245.9l-4.209,2.958-1.6-.92-.36-4.15h1.854l4.282-3.87v1.074a6.1,6.1,0,0,0-.508.559l-.073-.081-.442.375.169.169a2.714,2.714,0,0,0,.346-.464,6.1,6.1,0,0,1,.508-.559c.8-.044.456-.67.537-1.074l.537-.537c.8-.044.456-.662.508-1.1l.081.081.434-.375-.169-.169a3.029,3.029,0,0,0-.346.464,3.691,3.691,0,0,1-.508.022c-.441-.53-.78-1.258-1.346-1.56a15.113,15.113,0,0,1-5.254-5.261c-.309-.441-.956-.655-1.449-.979V42.65c.228-.059.493-.228.7-.177,4.253,1.155,4.459.316,8.447-.6.53-.118.912-.854,1.427-1.369l.625.3V37.889l-1.236-1.472c.4-.2.6-.375.809-.383,1.6-.1,2.3,1.221,3.149,2.178.7.795,1.148,1.6,2.436,1.641.633.015,1.324.728,1.854,1.258,1.472,1.494,2.877,3.054,4.224,4.5-.419,2.274-2.207,2.745-3.8,3.252-2.288.721-4.172,1.825-5.195,4.2h5.011c.441.537.846,1.008,1.347,1.611V57l-4.062,1.869c.905,1.825.832,4.187,2.237,6.026,2.561-.78,5.688-3.135,8.292-6.357l.081.081.434-.375-.169-.169A3.047,3.047,0,0,0,265.159,58.536Zm-42.1,19.352a17.711,17.711,0,0,0,0,5.364A17.719,17.719,0,0,0,223.056,77.888Zm29.116-17.718h-.265v2.686h.265Zm-37.7-12.877c-.059.059-.177.132-.169.177a1.776,1.776,0,0,0,.169.361c.059-.059.177-.132.169-.177A1.781,1.781,0,0,0,214.469,47.293Zm-.537,1.074c-.059.059-.177.132-.169.177a1.783,1.783,0,0,0,.169.361c.059-.059.177-.132.169-.177A1.782,1.782,0,0,0,213.932,48.367Zm10.2,1.611c-.059.059-.177.132-.169.169a1.609,1.609,0,0,0,.169.361c.059-.059.177-.132.169-.169A1.614,1.614,0,0,0,224.13,49.979Zm-11.619,1.258-.191-.191a1.989,1.989,0,0,0-.169.361c-.007.044.11.118.169.177Z" transform="translate(-206.397 -32.275)" fill="#5895af"/>
        <path id="Path_48974" data-name="Path 48974" d="M219.419,45.492a4.755,4.755,0,0,1-3.171-.721,7.476,7.476,0,0,0-1.6-.567c-.581-.581-1.685-1.214-2-2.119-.353-1.052-1.707-.817-1.832-2.119l.957-1.074c.4.258.743.478,1.089.7,2.23-.692,4.312-2,6.88-1.53,1.383,1.2,2.708,2.553,2.369,4.746l-.449.184.449.353-.537,1.611-.537.537h-1.074l-.177-.441Zm1.42-1.148.191-.191a1.784,1.784,0,0,0-.361-.169c-.044-.007-.118.11-.177.169Z" transform="translate(-178.339 3.873)" fill="#5895af"/>
        <path id="Path_48975" data-name="Path 48975" d="M206.667,36.875a1.326,1.326,0,0,1,1.074-1.611v1.074l-.537.537Z" transform="translate(-204.769 -13.271)" fill="#5895af"/>
        <path id="Path_48976" data-name="Path 48976" d="M211.773,36.51a1.326,1.326,0,0,1,1.074-1.611v1.074l-.537.537Z" transform="translate(-172.305 -15.591)" fill="#5895af"/>
        <path id="Path_48977" data-name="Path 48977" d="M209.153,33.743v1.516C208.66,34.368,208.66,34.368,209.153,33.743Z" transform="translate(-191.222 -22.941)" fill="#5895af"/>
        <path id="Path_48978" data-name="Path 48978" d="M213.106,40.277h-1.472l1.472-1.074Z" transform="translate(-173.1 11.774)" fill="#5895af"/>
        <path id="Path_48979" data-name="Path 48979" d="M212.636,39.53V38.014l.383-.044.154,1.56Z" transform="translate(-166.729 3.934)" fill="#5895af"/>
        <path id="Path_48980" data-name="Path 48980" d="M211.907,40.058l.537-1.074h.537v1.074Z" transform="translate(-171.364 10.381)" fill="#5895af"/>
        <path id="Path_48981" data-name="Path 48981" d="M212.211,34.017v-.89l.258-.044.206.883Z" transform="translate(-169.431 -27.138)" fill="#5895af"/>
        <path id="Path_48982" data-name="Path 48982" d="M208.637,37.292V36.4l.265-.037.2.9Z" transform="translate(-192.155 -6.27)" fill="#5895af"/>
        <path id="Path_48983" data-name="Path 48983" d="M212.426,39.541c.081-.4-.272-1.023.537-1.067v1.067Z" transform="translate(-168.123 7.139)" fill="#5895af"/>
        <path id="Path_48984" data-name="Path 48984" d="M212.491,38.938l.537-.537Z" transform="translate(-167.651 6.675)" fill="#5895af"/>
        <circle id="Ellipse_348" data-name="Ellipse 348" cx="0.379" cy="0.379" r="0.379" transform="translate(43.653 46.572)" fill="#5895af"/>
        <path id="Path_48985" data-name="Path 48985" d="M211.834,39.667l.537-.537Z" transform="translate(-171.828 11.31)" fill="#5895af"/>
        <path id="Path_48986" data-name="Path 48986" d="M206.8,35.728l.537-.537v.537Z" transform="translate(-203.828 -13.735)" fill="#5895af"/>
        <path id="Path_48987" data-name="Path 48987" d="M206.874,35.655l.537-.537v.537Z" transform="translate(-203.364 -14.199)" fill="#5895af"/>
        <path id="Path_48988" data-name="Path 48988" d="M211.535,39.863l.375-.434.169.169-.442.375Z" transform="translate(-173.729 13.211)" fill="#5895af"/>
        <path id="Path_48989" data-name="Path 48989" d="M211.469,40.032l.537-.537v.537Z" transform="translate(-174.149 13.63)" fill="#5895af"/>
        <path id="Path_48990" data-name="Path 48990" d="M211.4,40.178l.537-.537Z" transform="translate(-174.613 14.559)" fill="#5895af"/>
      </g>
    </g>
    <g id="Group_7552" data-name="Group 7552" transform="translate(111.121 9.953)">
      <g id="Group_7550" data-name="Group 7550" transform="translate(0 6.044)">
        <path id="Path_48991" data-name="Path 48991" d="M200.321,54.933c1.038-.258.324-1.082.677-1.862.052-.162-.051-.081-.154.007l.243.235a2.019,2.019,0,0,0,.235-.324c.015-.022-.1-.11-.324.081-.331.015-.714-.331-.662-.427a1.884,1.884,0,0,1,.846-.831c.184-.066.662.831.677-.147.007-.206-.581-.419-1.185-.824l1.229-.5c-.088-.081.1.088.287.258.927-1.273-.692-2.421-.221-3.8l.677.53c.088-.088.287-.191.287-.294,0-2.06-.037-4.121-.037-6.181a5.278,5.278,0,0,0-1.244-3.517,3.658,3.658,0,0,0-3.26-1.221c-.118.007-.258-.191-.508-.383a2.166,2.166,0,0,1,2.487-1.185,12.293,12.293,0,0,1,6.262,4.7,27.8,27.8,0,0,0,1.479,2.355,3.8,3.8,0,0,1,.648,3.326l1.619,1.082c-.059.052.088-.162.287-.228,1.508-.508,2.928-1.405,4.621-1.192a2.261,2.261,0,0,0,1.413-.508,1.229,1.229,0,0,1,1.611.537,1.255,1.255,0,0,1-.118,1.663,11.252,11.252,0,0,0-1.244,1.9c-1.118,2.023-1.545,2.171-3.635,1.273-.758-.331-1.575-.53-2.333-.868-.3-.132-.508-.486-.809-.8-1.508,3.245-1.067,6.858-2.546,10.169,1.148.118,2.149-.059,2.811.346a33.021,33.021,0,0,1,4.54,3.355c.986.854.647,1.95-.706,2.266a5.2,5.2,0,0,0-2.45,1.273,3.034,3.034,0,0,1-1.479.912,7.647,7.647,0,0,0-2.958,1.354,11.812,11.812,0,0,0-2.583,1.567c-.449.4-1.273.375-1.876.53a2.941,2.941,0,0,0-.331-.567c-1.744-1.678-2.06-3.988-2.7-6.137a1.432,1.432,0,0,0-.846-1c-1.611-.979-1.744-1.876-.839-3.723a3.414,3.414,0,0,1,1.3-1.413c.162.052.073-.052-.007-.155l-.243.243a3.4,3.4,0,0,0,.331.235c.015.007.1-.1-.081-.324-.118-.331.022-.67.154-.67C200.572,56.052,200.285,55.4,200.321,54.933Z" transform="translate(-197.65 -34.449)" fill="#5895af"/>
        <path id="Path_48992" data-name="Path 48992" d="M198.279,37.061l.191,1.266a3.86,3.86,0,0,1-.522-.625C197.9,37.635,198.073,37.436,198.279,37.061Z" transform="translate(-195.799 -17.842)" fill="#5895af"/>
      </g>
      <g id="Group_7551" data-name="Group 7551" transform="translate(22.269)">
        <path id="Path_48993" data-name="Path 48993" d="M202.373,48.781a5.915,5.915,0,0,0,1.1-1.663c.177-.7.309-1.737-1.906-.971a17.208,17.208,0,0,0,2.082-1.339c.235-.221.478-.854.4-.927-1.376-1.192-.066-2.149.235-3.318l.692,1.405a22.757,22.757,0,0,0,.765-2.355c.044-.191-.353-.478-.552-.721.221-.574-.545-1.464.839-1.582.169.059.081-.051-.015-.169l-.25.265a3.008,3.008,0,0,0,.346.258c.022.007.118-.118-.081-.353-.729-2.112.294-3.105,2.06-3.664.029,0,.169-.044.214.007.471.478.927.979,1.486,1.582.316,4.768-.912,9.558-1.589,14.473,2.4.677,4.687-.132,6.821-.787,1.288-.39,2.046,1.067,3.12.3.552.6,1.119,1.185,1.656,1.8a6.063,6.063,0,0,1,.493.8,8.156,8.156,0,0,1-7.071,3.238c-1.155,0-2.318.059-3.473.007a4.668,4.668,0,0,1-1.288-.434,5.5,5.5,0,0,0-.795,3.289c.088,2.509.133,5.026.059,7.535a5.121,5.121,0,0,0,1.619,4.275c.177.155.184.493.287.817,1.744.272,3.48.927,5.394.773s3.856-.066,5.953-.088a22.816,22.816,0,0,0,4.775-9.536c.427-2.193,1.229-4.319,1.707-6.519.228-1.038.772-2,1.037-3.032.361-1.4-.809-1.678-1.81-2.156.486-1.817,2.4-1.714,3.524-2.62,3.046-.169,5.967.059,8.329,2.767a38.865,38.865,0,0,1-.765,4.224c-.243.868-1.06,1.626.007,2.458-.221,1.045-.434,2.1-.677,3.142a7.138,7.138,0,0,0-.368,1.28c-.029,1.641.051,3.289.015,4.93-.037,1.479-.64,2.855-.6,4.4a8.8,8.8,0,0,1-1.825,4.981,10.043,10.043,0,0,1-3.959,3.569,6.689,6.689,0,0,1-3.171.795,36.075,36.075,0,0,0-5.5.052c-3.23.324-6.232-.53-9.242-1.457-.169-.052-.324-.228-.486-.221-3.782.088-5.445-2.561-6.953-5.386a5.982,5.982,0,0,1-.235-1.347,4.234,4.234,0,0,0-.508-1.523c-.3-.39-.905-.53-1.31-.861a5.689,5.689,0,0,1-2.185-4.591c-.015-1.737-.051-3.48-.029-5.217.007-.721-.331-1.56.486-2.1C201.475,54.417,202.447,51.665,202.373,48.781Zm2.06-6.321-.375.213c.066.059.147.191.191.177a1.572,1.572,0,0,0,.39-.184Z" transform="translate(-200.676 -33.628)" fill="#5895af"/>
        <path id="Path_48994" data-name="Path 48994" d="M201.2,35.785l.4-1.442a5.719,5.719,0,0,1,.257.809C201.861,35.241,201.648,35.358,201.2,35.785Z" transform="translate(-197.354 -29.079)" fill="#5895af"/>
        <path id="Path_48995" data-name="Path 48995" d="M201.189,35.5l.213,1.376a4.069,4.069,0,0,1-.567-.677C200.792,36.118,200.975,35.912,201.189,35.5Z" transform="translate(-199.705 -21.723)" fill="#5895af"/>
      </g>
    </g>
    <g id="Group_7553" data-name="Group 7553" transform="translate(0 3.966)">
      <path id="Path_48996" data-name="Path 48996" d="M206.44,32.814v5.335h3.171v3.466H206.44v5.592H192.5a17.078,17.078,0,0,1-1.531,2.222H207.4V60.613h-3.547V59.6H191.451v.89h-3.51V52.541a23.259,23.259,0,0,1-3.745,2.48l-1.648-3.238a17.651,17.651,0,0,0,5.629-4.577h-3.62v-3.37h5.813a22.91,22.91,0,0,0,.9-2.222H182.9V38.149h9.2a20.119,20.119,0,0,0,.28-2h-7.594V32.814Zm-2.583,20.205H191.451v3.112h12.406Zm-9.771-9.183h8.844V41.614h-8.123C194.564,42.372,194.328,43.137,194.085,43.836Zm1.442-5.688h7.4v-2H195.8A20.2,20.2,0,0,1,195.528,38.149Z" transform="translate(-182.548 -32.814)" fill="#5895af"/>
      <path id="Path_48997" data-name="Path 48997" d="M186.282,59.469c0,.728.442,1.148,1.405,1.207.6.132,3.208.162,7.858.162,2.575,0,4.312-.029,5.188-.1a19.5,19.5,0,0,0,2.789-.316c.677-.316,1.1-1.243,1.251-2.826l3.539,1.869c-.537,2.163-1.324,3.561-2.31,4.231a9.056,9.056,0,0,1-2.4.537c-2.4.125-5.092.191-8.057.191-4.709,0-7.674-.1-8.933-.221-2.583-.132-3.841-1.464-3.841-4.01V46.791h24.252V57.342h-3.753v-.854h-16.99Zm18.4-22.332V45.68H184.42V37.137Zm-18.4,13.149v2.737h6.556V50.286Zm14.863-7.939V40.47H187.923v1.876Zm-4.672,7.939v2.737h6.8V50.286Z" transform="translate(-181.124 -5.328)" fill="#5895af"/>
    </g>
  </g>
</svg>
