<svg id="logo_white" xmlns="http://www.w3.org/2000/svg" width="235.684" height="102.038" viewBox="0 0 235.684 102.038">
  <g id="Group_7521" data-name="Group 7521" transform="translate(0 18.669)">
    <path id="Path_45570" data-name="Path 45570" d="M125.87,2032.617c.418.023,1.094.023,2.031,0a4.809,4.809,0,0,0,.951-.1.266.266,0,0,0,.221-.258c0-.165-.193-.271-.574-.312-.129-.013-.4-.023-.818-.023-.051,0-.129.009-.262.014s-.221.009-.248.009a4.874,4.874,0,0,1-.832-.078c-.156-.027-.221-.051-.193-.051a2.382,2.382,0,0,0-.68.133c-.244.083-.363.184-.363.28C125.1,2032.512,125.35,2032.644,125.87,2032.617Z" transform="translate(35.895 -1962.46)" fill="#d40012"/>
    <path id="Path_45571" data-name="Path 45571" d="M130.07,2032.882a2.9,2.9,0,0,0-1.1-.143l-1.342-.042a.27.27,0,0,1-.17-.055.322.322,0,0,0-.12-.046.47.47,0,0,0-.207.073,1.729,1.729,0,0,1-.754.1,7.239,7.239,0,0,0-.859.027,4.046,4.046,0,0,1-.533.267.125.125,0,0,0-.078.11l.142.137a.412.412,0,0,1,.115.336c-.023.189.064.308.3.35a1.913,1.913,0,0,0,.4.042,3.377,3.377,0,0,1,.381.027c.129.051.285.106.478.161a1.508,1.508,0,0,0,.262-.051,1.328,1.328,0,0,1,.336-.055c.418-.013.864-.018,1.333-.018.882,0,1.393-.143,1.535-.432l.078-.092c.051-.056.092-.1.092-.125a1.043,1.043,0,0,0-.078-.229A.974.974,0,0,0,130.07,2032.882Z" transform="translate(35.183 -1959.672)" fill="#d40012"/>
    <path id="Path_45572" data-name="Path 45572" d="M129.982,2033.341a6.6,6.6,0,0,0-.859-.046c-.34,0-.625,0-.859,0l-1.356.051a2.735,2.735,0,0,1-.5-.037c-.179-.027-.271-.046-.271-.046a1.184,1.184,0,0,0-.248.042.894.894,0,0,1-.184.032,2.96,2.96,0,0,0-.768.17q-.427.165-.427.33c0,.106.115.2.363.272a2.324,2.324,0,0,0,.676.11c.29.018.938.018,1.953.01a6.521,6.521,0,0,1,.7.042c.262.027.377.037.377.037a.96.96,0,0,0,.221-.051,1.629,1.629,0,0,1,.34-.055h.469a2.372,2.372,0,0,0,.758-.134c.179-.069.285-.175.285-.3C130.658,2033.557,130.423,2033.41,129.982,2033.341Z" transform="translate(33.777 -1957.259)" fill="#d40012"/>
    <path id="Path_45573" data-name="Path 45573" d="M125.654,2034.856l1.052-.009a2.723,2.723,0,0,0,1.319-.234c.078-.051.115-.175.115-.377a.4.4,0,0,0-.285-.4,1.969,1.969,0,0,0-.51-.046c-.377.014-.611.018-.689.014a1.267,1.267,0,0,1-.248-.037c-.1-.018-.165-.032-.193-.032a2.65,2.65,0,0,0-.313.069,1.994,1.994,0,0,1-.391.06l-.12,0h-.207a1.229,1.229,0,0,0-.6.161c-.211.124-.313.248-.313.377,0,.151.179.266.519.344A3.686,3.686,0,0,0,125.654,2034.856Z" transform="translate(32.921 -1955.598)" fill="#d40012"/>
    <path id="Path_45574" data-name="Path 45574" d="M125.307,2032.77a1.545,1.545,0,0,0,.547.082c.427.009,1.025.009,1.783.009a5.181,5.181,0,0,0,.924-.074c.418-.069.639-.179.639-.34s-.106-.262-.29-.3c-.179-.013-.349-.037-.519-.055l-2.252-.013a2.837,2.837,0,0,0-.818.073c-.2.069-.29.184-.29.336C125.031,2032.609,125.123,2032.7,125.307,2032.77Z" transform="translate(35.64 -1961.546)" fill="#d40012"/>
    <g id="Group_7520" data-name="Group 7520">
      <g id="Group_7512" data-name="Group 7512" transform="translate(73.844 71.275)">
        <g id="Group_7511" data-name="Group 7511">
          <path id="Path_45575" data-name="Path 45575" d="M111.365,2036.925v.97a4.883,4.883,0,0,1-1.034.422,3.9,3.9,0,0,1-1.039.142,3.241,3.241,0,0,1-.947-.132,3.11,3.11,0,0,1-1.848-1.526,3.129,3.129,0,0,1-.359-1.48,3.07,3.07,0,0,1,.234-1.176,3.056,3.056,0,0,1,1.705-1.677,3.4,3.4,0,0,1,1.269-.226,4.28,4.28,0,0,1,.965.115,5.453,5.453,0,0,1,1.007.363v.938a5.192,5.192,0,0,0-1.034-.46,3.123,3.123,0,0,0-.938-.147,2.291,2.291,0,0,0-1.668.653,2.377,2.377,0,0,0-.009,3.282,2.2,2.2,0,0,0,1.632.657,3.177,3.177,0,0,0,1.016-.175A4.738,4.738,0,0,0,111.365,2036.925Z" transform="translate(-106.139 -2032.224)" fill="#fff"/>
          <path id="Path_45576" data-name="Path 45576" d="M107.842,2032.262h.823v3.456a3.77,3.77,0,0,0,.06.818.985.985,0,0,0,.2.418,1.62,1.62,0,0,0,.6.464,1.928,1.928,0,0,0,.8.161,1.756,1.756,0,0,0,1.2-.4,1.359,1.359,0,0,0,.46-1.071v-3.842h.823v3.87a2.126,2.126,0,0,1-.689,1.636,2.588,2.588,0,0,1-1.8.62,2.828,2.828,0,0,1-1.186-.239,2.316,2.316,0,0,1-.892-.717,1.726,1.726,0,0,1-.317-.621,4.525,4.525,0,0,1-.092-1.061Z" transform="translate(-100.015 -2032.152)" fill="#fff"/>
          <path id="Path_45577" data-name="Path 45577" d="M109.555,2038.283v-6.021h1.8a2.044,2.044,0,0,1,1.411.46,1.822,1.822,0,0,1,0,2.519,2.065,2.065,0,0,1-1.411.45h-.984v2.592Zm.813-3.361h.9a1.386,1.386,0,0,0,.873-.215,1.11,1.11,0,0,0,0-1.443,1.355,1.355,0,0,0-.873-.225h-.9Z" transform="translate(-93.855 -2032.152)" fill="#fff"/>
          <path id="Path_45578" data-name="Path 45578" d="M110.923,2038.283v-6.021h.823v6.021Z" transform="translate(-88.936 -2032.152)" fill="#fff"/>
          <path id="Path_45579" data-name="Path 45579" d="M113.864,2032.262a4.027,4.027,0,0,1,1.1.129,2.6,2.6,0,0,1,.846.395,2.768,2.768,0,0,1,.905,1.057,3.214,3.214,0,0,1,.317,1.429,3.167,3.167,0,0,1-.322,1.429,2.765,2.765,0,0,1-.9,1.061,2.563,2.563,0,0,1-.841.4,4.328,4.328,0,0,1-1.1.125h-2.119v-6.021Zm0,.823h-1.3v4.38h1.3a2.334,2.334,0,0,0,1.678-.584,2.409,2.409,0,0,0,0-3.207A2.317,2.317,0,0,0,113.864,2033.084Z" transform="translate(-85.98 -2032.152)" fill="#fff"/>
          <path id="Path_45580" data-name="Path 45580" d="M119.463,2036.925v.97a4.787,4.787,0,0,1-1.034.422,3.877,3.877,0,0,1-1.039.142,3.241,3.241,0,0,1-.947-.132,3.11,3.11,0,0,1-1.848-1.526,3.129,3.129,0,0,1-.359-1.48,2.992,2.992,0,0,1,.239-1.176,3.034,3.034,0,0,1,.666-1,3.157,3.157,0,0,1,1.034-.68,3.4,3.4,0,0,1,1.269-.226,4.28,4.28,0,0,1,.965.115,5.336,5.336,0,0,1,1.007.363v.938a5.192,5.192,0,0,0-1.034-.46,3.123,3.123,0,0,0-.938-.147,2.291,2.291,0,0,0-1.668.653,2.377,2.377,0,0,0-.009,3.282,2.2,2.2,0,0,0,1.632.657,3.156,3.156,0,0,0,1.016-.175A4.738,4.738,0,0,0,119.463,2036.925Z" transform="translate(-77.019 -2032.224)" fill="#fff"/>
          <path id="Path_45581" data-name="Path 45581" d="M115.773,2038.283l2.5-6.021h.6l2.532,6.021h-.855l-.74-1.774h-2.459l-.735,1.774Zm1.9-2.547h1.8l-.915-2.164Z" transform="translate(-71.495 -2032.152)" fill="#fff"/>
          <path id="Path_45582" data-name="Path 45582" d="M117.434,2037.9v-1.135a2.959,2.959,0,0,0,.749.675,1.5,1.5,0,0,0,.763.207,1.024,1.024,0,0,0,.676-.211.692.692,0,0,0,.248-.566.826.826,0,0,0-.17-.515,3.6,3.6,0,0,0-.8-.634,5.033,5.033,0,0,1-1.227-1.025,1.46,1.46,0,0,1-.248-.854,1.513,1.513,0,0,1,.473-1.154,1.717,1.717,0,0,1,1.227-.45,2.268,2.268,0,0,1,.657.1,2.651,2.651,0,0,1,.653.313v.979a3.22,3.22,0,0,0-.7-.464,1.554,1.554,0,0,0-.643-.142.976.976,0,0,0-.634.2.637.637,0,0,0-.244.515c0,.3.34.671,1.02,1.108l.124.078a3.552,3.552,0,0,1,1.08.952,1.851,1.851,0,0,1,.257,1.016,1.511,1.511,0,0,1-.478,1.14,1.717,1.717,0,0,1-1.227.445,2.33,2.33,0,0,1-.841-.138A2.283,2.283,0,0,1,117.434,2037.9Z" transform="translate(-65.54 -2032.238)" fill="#fff"/>
          <path id="Path_45583" data-name="Path 45583" d="M120.707,2038.283v-5.235h-2.119v-.786h5.06v.786h-2.123v5.235Z" transform="translate(-61.373 -2032.152)" fill="#fff"/>
          <path id="Path_45584" data-name="Path 45584" d="M120.209,2038.283v-6.021h.818v5.244h2.748v.778Z" transform="translate(-55.544 -2032.152)" fill="#fff"/>
          <path id="Path_45585" data-name="Path 45585" d="M121.5,2038.283v-6.021h3.47v.767h-2.652v1.825H124.9v.781h-2.578v1.87h2.739v.778Z" transform="translate(-50.905 -2032.152)" fill="#fff"/>
        </g>
      </g>
      <g id="Group_7514" data-name="Group 7514" transform="translate(0 5.836)">
        <g id="Group_7513" data-name="Group 7513">
          <path id="Path_45586" data-name="Path 45586" d="M106.572,2032.483a1.665,1.665,0,0,0-.666-1.655c-1.131-.956-2.2-1.995-3.5-3.185a3.943,3.943,0,0,1,4.421.946c1.857,1.839,3.893,3.544,5.2,5.851.947,1.668,1.944,3.355,1.609,5.428a9.844,9.844,0,0,0-.014,1.277,12.206,12.206,0,0,0,.869,5.961c1.462.713,2.018-.744,2.9-1.327l1.066.73c.46-.344,1.016-.771,1.576-1.195l.643-.644.643-.638c.855,0,.515-.681.662-1.113a3.012,3.012,0,0,1,.62-.813l.211.533.427-.533.643-.644.643-.638a1.584,1.584,0,0,0,1.282-1.926l.639-.639c.961-.055.547-.8.643-1.287.961-.056.547-.8.643-1.282.956-.055.542-.8.639-1.282.961-.056.547-.8.643-1.282,1.347-.234.129-1.218,1.181-1.875-4.008-.211-6.917,1.08-9.822,2.734-1.1-.639-2.128-1.241-3.792-2.216H113.81c1.011-1.543,1.774-2.711,2.523-3.855,3.484.625,6.278-1.19,9.247-2.036,3.378-.965,6.581-2.431,10.217-2.431,1.319,0,2.413-.731,4.017-.1,1.811.717,3.006,2.045,4.495,3.033.864.574,1.3,1.788,1.981,2.8.106.441.248,1.016.46,1.862l-.722,1.453c-4.72-1.471-10.194-2.707-12.565-1.655a18.091,18.091,0,0,1,.2,8.356c-.579,2.8-1.066,5.5-2.744,8.13.607,1.577,2.381,1.494,3.709,1.765a38.947,38.947,0,0,0,6.021.441c.3.014.6-.257.91-.367,5.681-2.009,5.308-1.384,9.026-4.531a5.112,5.112,0,0,1,2.05-1.2,3.708,3.708,0,0,0,3.038-3.263c.1-.491.253-.969.4-1.508l-1.383-.694,1.425-.745a10.228,10.228,0,0,0,2.022.373,4.572,4.572,0,0,1,3.534,1.544c.593.616,1.213,1.2,1.811,1.816a7.15,7.15,0,0,0,3.406,1.852,8.806,8.806,0,0,1,6.421,7.326l-2.422,2.271c-1.815-.749-3.162.671-4.587,1.563-2.73,1.71-5.161,4.039-8.071,5.294-3.525,1.517-7,3.571-11.095,3.378a5.331,5.331,0,0,1-2.656-.584c-1.172-.68-2.675-.762-3.893-1.388-1.144-.583-2.712-.4-3.433-1.779-2.831-.616-5.4-2.211-8.457-2.078a34.6,34.6,0,0,1-4.863-.579,12.509,12.509,0,0,0-4.872.589c-1.448.437-3.153-.515-4.532.675-.064.056-.211.019-.317.009-4.182-.367-7.868,1.553-11.752,2.57a2.535,2.535,0,0,0-.841.271,8.069,8.069,0,0,0-.919.9c-.414-.206-.827-.418-1.356-.684-.671,3.143-2.909,4.219-5.538,4.761a5.6,5.6,0,0,1-2.578-4.794,9.343,9.343,0,0,0-1.048-2.859l.478-.5c1.714.432,3.144.147,5.051-1.218a25.616,25.616,0,0,1,7.165-3.613,29.9,29.9,0,0,0,4.109-2.1c-.786-.409-1.305-.685-1.668-.874a7.95,7.95,0,0,0-2.16-7.1c.354-.519.3-1.774,1.6-2.082l.211.533.427-.533a8.289,8.289,0,0,0,1.586-7.694C106.866,2032.46,106.677,2032.483,106.572,2032.483Z" transform="translate(-90.072 -1999.685)" fill="#fff"/>
          <path id="Path_45587" data-name="Path 45587" d="M97.4,2033.48a1.585,1.585,0,0,0,1.926-1.282l.643-.644a4.571,4.571,0,0,0,3.847-2.564l.643-.644.639-.643.533-.211-.533-.427a22.256,22.256,0,0,1,2.615-2.537,7.917,7.917,0,0,0,3.277-4.362l-2.206-.326c.336-.644.6-1.14.763-1.453,2.041-1.4,6.021,1.158,8.383,5.18,0,1.521-.046,3.12.014,4.716a5.621,5.621,0,0,1-1.291,3.644c-2.923,4.091-6.917,6.7-11.375,8.8a23.731,23.731,0,0,0-4.84,2.969c-.878.7-1.7.657-2.937.7-.336-.4-1.066-.9-1.241-1.54a23.21,23.21,0,0,0-1.333-3.948c-.409-.873-.078-2.091-.078-3.2l-1.333-.625a5,5,0,0,1,3.245-1.6,4.916,4.916,0,0,0,.032.671l-.092-.1-.524.446.2.2a3.487,3.487,0,0,0,.414-.552A6,6,0,0,1,97.4,2033.48Z" transform="translate(-77.691 -2018)" fill="#fff"/>
          <path id="Path_45588" data-name="Path 45588" d="M97.578,2028.95H96.319c.409-1.048,1.011-1.407,1.9-1.282v.638Z" transform="translate(-67.608 -1983.319)" fill="#fff"/>
          <path id="Path_45589" data-name="Path 45589" d="M93.546,2027.308v-1.7l.336-.032.239,1.705Z" transform="translate(-77.58 -1990.769)" fill="#fff"/>
          <path id="Path_45590" data-name="Path 45590" d="M98.408,2026.229v-1.172l.423-.046.221,1.218Z" transform="translate(-60.096 -1992.787)" fill="#fff"/>
          <path id="Path_45591" data-name="Path 45591" d="M98.908,2026.558l-.639-.8.639-.483Z" transform="translate(-60.596 -1991.834)" fill="#fff"/>
          <path id="Path_45592" data-name="Path 45592" d="M98,2027.116c.1-.483-.317-1.227.643-1.282v1.282Z" transform="translate(-61.609 -1989.828)" fill="#fff"/>
          <path id="Path_45593" data-name="Path 45593" d="M93.407,2027.24v-1.061l.3-.051.253,1.047Z" transform="translate(-78.079 -1988.771)" fill="#fff"/>
          <path id="Path_45594" data-name="Path 45594" d="M97.858,2027.4c.1-.487-.322-1.232.639-1.287v1.287Z" transform="translate(-62.111 -1988.825)" fill="#fff"/>
          <path id="Path_45595" data-name="Path 45595" d="M93.244,2027.764v-1.172l.423-.046.216,1.218Z" transform="translate(-78.666 -1987.267)" fill="#fff"/>
          <path id="Path_45596" data-name="Path 45596" d="M97.438,2027.954c.1-.488-.317-1.227.643-1.282v1.282Z" transform="translate(-63.616 -1986.814)" fill="#fff"/>
          <path id="Path_45597" data-name="Path 45597" d="M94.184,2025.247l-.446.524-.2-.2.524-.446Z" transform="translate(-77.616 -1992.389)" fill="#fff"/>
          <path id="Path_45598" data-name="Path 45598" d="M97.71,2027.032l.643-.639v.639Z" transform="translate(-62.606 -1987.818)" fill="#fff"/>
          <path id="Path_45599" data-name="Path 45599" d="M98.129,2026.251l.427-.533.216.533Z" transform="translate(-61.099 -1990.245)" fill="#fff"/>
          <path id="Path_45600" data-name="Path 45600" d="M97.571,2027.176l.639-.643Z" transform="translate(-63.106 -1987.318)" fill="#fff"/>
          <path id="Path_45601" data-name="Path 45601" d="M97.291,2027.589l.643-.638v.638Z" transform="translate(-64.113 -1985.81)" fill="#fff"/>
          <path id="Path_45602" data-name="Path 45602" d="M97.152,2027.734l.639-.644v.644Z" transform="translate(-64.612 -1985.311)" fill="#fff"/>
          <path id="Path_45603" data-name="Path 45603" d="M96.733,2028.067l.432-.533.211.533Z" transform="translate(-66.119 -1983.719)" fill="#fff"/>
        </g>
      </g>
      <g id="Group_7516" data-name="Group 7516" transform="translate(156.728)">
        <g id="Group_7515" data-name="Group 7515">
          <path id="Path_45604" data-name="Path 45604" d="M189.882,2046.1c-.34.027-.712.027-1.347.027.386-.45.515-.717.726-.832,1.052-.574,2.128-1.112,3.153-1.636.892.285,1.687.538,2.845.91a28.986,28.986,0,0,0,6.388,5.249,3.2,3.2,0,0,1,1.457,2.656c.051.791.009,1.586.009,2.611-1.02.473-2.11.979-3.847,1.788l-2.634,2.634a27.521,27.521,0,0,0-4.067,1.723,11.194,11.194,0,0,1-7.381,1.678,18.358,18.358,0,0,1-2.721-.653c-1.039,1.719-.06,3.277.464,4.674.51,1.355.4,2.767.855,4.123.313.933-.478,2.3-.928,3.41a27.375,27.375,0,0,1-3.939,6.471,76.659,76.659,0,0,1-6.393,7.514c-1.264,1.251-2.918,2.064-3.842,3.728-.358.653-1.351.951-2.1,1.448-2.064-.819-2.79-2.5-3.084-4.5-.133-.928-.4-1.829-.584-2.748a8.834,8.834,0,0,0-.487-2.8c-.524-1.034-.115-2.532-.115-3.833a5.471,5.471,0,0,0,.565-.625l.087.092.492-.418-.188-.194a3.339,3.339,0,0,0-.391.519,5.471,5.471,0,0,1-.565.625c-.91-.193-.8-.776-.29-1.172a8.108,8.108,0,0,1,3.888-1.824v.6a6.251,6.251,0,0,0-.57.629l-.083-.092-.492.418.188.189a3.013,3.013,0,0,0,.386-.515,6.251,6.251,0,0,1,.57-.629l.6-.6c1.314.087,1.871-.836,2.4-1.8l1.8-1.8,1.2-1.2.6-.6a1.477,1.477,0,0,0,1.2-1.8l.6-.6a3.925,3.925,0,0,0,1.085-.832c.257-.4.253-.933-.483-.97.23-.588-.556-1.517.6-1.8l.207,1.144.4-.046v-1.1c.2-.157.565-.3.574-.474.055-.983.028-1.967.028-3.245l-.864.63c-.7-.773-.391-1.411.2-1.991l-2.243-1.52h-6.683l-7.524,3.6c-2.082-.3-3.874.782-5.671,1.365-.818-1.007-1.507-1.857-2.39-2.942-1.3,1.664-2.243,3.084-1.673,5.046a11.553,11.553,0,0,1,.032,6.251,5.644,5.644,0,0,0-.188,1.415c-.018,1.9.432,3.944-.124,5.663-.616,1.884-.359,3.667-.46,5.492-.106,1.884-.023,3.782-.023,5.846a2.892,2.892,0,0,1-3.167-1.526c-1.227-1.816-2.712-3.461-4.09-5.185.51-2.982-1.223-5.781-.253-9.21.17.735.244,1.029.3,1.323.06.267.1.542.17.928,1.268-1.526-.381-2.725-.207-4.1a41.174,41.174,0,0,0,.041-4.807,24.033,24.033,0,0,1-7.776-9.293c.142-1.011,1.085-1.13,1.875-1.116,1.374-1.067,2.578-2.036,3.819-2.96,1.209-.906,2.45-1.761,3.741-2.679v-5.1l-.28-.023-.359,1.82-.28-.027V2046.7c-.676-.735-1.2-1.3-1.751-1.907a3.212,3.212,0,0,0-.813.482,4.709,4.709,0,0,0-.574.952c-1.852,3.493-3.966,6.752-7.455,8.865a4.185,4.185,0,0,0-.735.708,5.976,5.976,0,0,1-3.874-4.325c-.565-1.746-1.815-3.24-1.953-5.2-.028-.437-.754-.827-1.31-1.4.823-.676,1.471-1.214,2.123-1.751l.2.5.4-.5.6-.6c.9-.051.51-.745.6-1.2l.6-.6a6.609,6.609,0,0,0,.57-.63l.083.092.492-.422-.188-.189a3.254,3.254,0,0,0-.386.519,3.692,3.692,0,0,1-.57.028,9.066,9.066,0,0,1,2.4-3.6l.2.5a3.485,3.485,0,0,0,.372-.524l.087.088.487-.419-.188-.189a3.128,3.128,0,0,0-.386.519,4.427,4.427,0,0,1-.57.023,7.814,7.814,0,0,1,.432-1.31c.717-1.337,1.007-2.877,2.2-4.1a1.1,1.1,0,0,1-.285.019l.23,1.176.386-.055a2.115,2.115,0,0,0-.331-1.14c.188-1.3-1.641-1.577-1.471-2.964h-3.079c1.342-2.155,3.222-.667,4.591-1.4,2.165,1.714,4.2,3.323,6.016,4.766l2.33,6.894,1.034-1.03v-5.419c.9,1.513.3,2.776.8,4.325.79-2.477-.423-4.991,1.65-6.691-.51-.341-.9-.607-1.3-.869v-1.369l.873.712c.1-.106.308-.22.313-.345.028-1,.014-2,.014-3,0-3.534,0-3.534-1.383-6.756l-.91.6a4.527,4.527,0,0,1-.694-.354,5.028,5.028,0,0,1-.593-.616l.869-.873h3.167c1.3,1.539,2.739,3.13,4.031,4.83a4.4,4.4,0,0,1,.873,2.312c.078,1.737.892,3.341.689,5.148a48.28,48.28,0,0,0-.046,5.414l2.045,1.995c2.836.258,3.066,2.946,4.637,4.7-.6.29-1.135.791-1.641.759a5.214,5.214,0,0,0-4.3,1.99c-.611.662-1.269,1.277-1.9,1.912a18.464,18.464,0,0,1-.547,3.967c-.717,2.013.391,3.948,1.622,5.538s1.783,3.1.2,5.52l1.425-.781.45.391c2.937-1.655,5.837-3.323,8.769-4.936a12.306,12.306,0,0,1,5.046-1.613c1.108-.083,2.178-.557,3.355-.579a22.827,22.827,0,0,0,3.493-.612v-5.864h-5.823c-1.374.961-2.928,2.054-4.706,3.3l-1.783-1.025c-.133-1.558-.267-3.052-.4-4.642h2.068l4.794-4.324v1.2a5.608,5.608,0,0,0-.565.63l-.087-.092-.492.419.193.188a3.577,3.577,0,0,0,.386-.515,5.608,5.608,0,0,1,.565-.63c.9-.05.51-.744.6-1.2l.6-.6c.9-.051.51-.745.565-1.227l.087.092.492-.417-.188-.189a3.276,3.276,0,0,0-.391.515,3.683,3.683,0,0,1-.565.027c-.5-.593-.873-1.411-1.507-1.747-2.592-1.36-4.27-3.552-5.874-5.883-.345-.5-1.066-.735-1.618-1.094v-1.268c.248-.069.547-.258.777-.193,4.761,1.287,4.982.354,9.445-.667.588-.138,1.025-.96,1.6-1.534l.694.34v-3.268c-.423-.505-.85-1.016-1.379-1.65.441-.216.666-.414.9-.428,1.788-.106,2.583,1.37,3.521,2.437.786.891,1.287,1.8,2.73,1.833.708.019,1.484.818,2.073,1.416,1.645,1.664,3.213,3.41,4.725,5.033-.473,2.537-2.468,3.07-4.251,3.635-2.555.809-4.66,2.037-5.8,4.7h5.6l1.5,1.8v2.587q-2.22,1.028-4.536,2.1c1.007,2.041.928,4.678,2.5,6.737,2.868-.868,6.361-3.511,9.279-7.105l.083.087.492-.419-.188-.188A3.286,3.286,0,0,0,189.882,2046.1ZM142.8,2067.736a19.617,19.617,0,0,0,0,6A19.614,19.614,0,0,0,142.8,2067.736Zm32.558-19.8h-.3v3h.3Zm-42.164-14.409c-.064.069-.2.151-.188.2a2.032,2.032,0,0,0,.188.4c.069-.065.2-.147.188-.2A1.794,1.794,0,0,0,133.195,2033.523Zm-.6,1.2c-.069.065-.2.147-.188.2a1.855,1.855,0,0,0,.188.4c.064-.065.2-.147.188-.2A2.111,2.111,0,0,0,132.6,2034.728Zm11.4,1.8c-.069.069-.2.151-.188.2a1.777,1.777,0,0,0,.188.4c.064-.069.2-.146.188-.2A2.016,2.016,0,0,0,144,2036.524Zm-12.993,1.415-.211-.216a2,2,0,0,0-.188.4c-.009.051.119.134.188.2Z" transform="translate(-124.173 -2016.729)" fill="#fff"/>
          <path id="Path_45605" data-name="Path 45605" d="M141.7,2035.333a5.323,5.323,0,0,1-3.544-.814,8.684,8.684,0,0,0-1.8-.629c-.648-.648-1.884-1.356-2.234-2.372-.4-1.172-1.912-.905-2.054-2.363l1.071-1.2c.45.289.837.533,1.218.781,2.5-.772,4.826-2.234,7.694-1.714,1.549,1.342,3.029,2.854,2.647,5.313l-.5.2.5.4-.6,1.8-.6.6h-1.2l-.2-.5Zm1.586-1.287.216-.216a1.758,1.758,0,0,0-.4-.184c-.046-.014-.129.119-.2.184Z" transform="translate(-95.768 -1980.126)" fill="#fff"/>
          <path id="Path_45606" data-name="Path 45606" d="M124.647,2023.884a1.479,1.479,0,0,1,1.2-1.8v1.2l-.6.6Z" transform="translate(-122.524 -1997.484)" fill="#fff"/>
          <path id="Path_45607" data-name="Path 45607" d="M133.787,2023.23a1.479,1.479,0,0,1,1.2-1.8v1.2l-.6.6Z" transform="translate(-89.657 -1999.832)" fill="#fff"/>
          <path id="Path_45608" data-name="Path 45608" d="M128.862,2019.359v1.687C128.306,2020.049,128.306,2020.049,128.862,2019.359Z" transform="translate(-108.81 -2007.272)" fill="#fff"/>
          <path id="Path_45609" data-name="Path 45609" d="M135.193,2030.333h-1.645l1.645-1.2Z" transform="translate(-90.461 -1972.125)" fill="#fff"/>
          <path id="Path_45610" data-name="Path 45610" d="M135.342,2028.664v-1.7l.427-.042.175,1.738Z" transform="translate(-84.009 -1980.061)" fill="#fff"/>
          <path id="Path_45611" data-name="Path 45611" d="M134.037,2029.942l.6-1.2h.6v1.2Z" transform="translate(-88.702 -1973.535)" fill="#fff"/>
          <path id="Path_45612" data-name="Path 45612" d="M134.581,2019.222v-1l.285-.046.234.983Z" transform="translate(-86.746 -2011.524)" fill="#fff"/>
          <path id="Path_45613" data-name="Path 45613" d="M128.183,2025.087v-.992l.294-.042.216,1Z" transform="translate(-109.753 -1990.396)" fill="#fff"/>
          <path id="Path_45614" data-name="Path 45614" d="M134.959,2029.027c.087-.455-.3-1.149.6-1.2v1.2Z" transform="translate(-85.424 -1976.822)" fill="#fff"/>
          <path id="Path_45615" data-name="Path 45615" d="M135.081,2028.3l.6-.6Z" transform="translate(-84.948 -1977.292)" fill="#fff"/>
          <path id="Path_45616" data-name="Path 45616" d="M134.82,2028.089h.6v.6h-.6Z" transform="translate(-85.886 -1975.883)" fill="#fff"/>
          <path id="Path_45617" data-name="Path 45617" d="M133.906,2029.6l.6-.6Z" transform="translate(-89.173 -1972.596)" fill="#fff"/>
          <path id="Path_45618" data-name="Path 45618" d="M124.9,2022.549l.6-.6v.6Z" transform="translate(-121.573 -1997.951)" fill="#fff"/>
          <path id="Path_45619" data-name="Path 45619" d="M125.026,2022.423l.6-.6v.6Z" transform="translate(-121.106 -1998.423)" fill="#fff"/>
          <path id="Path_45620" data-name="Path 45620" d="M133.37,2030.029l.418-.492.188.193-.487.418Z" transform="translate(-91.101 -1970.676)" fill="#fff"/>
          <path id="Path_45621" data-name="Path 45621" d="M133.253,2030.258l.6-.6v.6Z" transform="translate(-91.521 -1970.249)" fill="#fff"/>
          <path id="Path_45622" data-name="Path 45622" d="M133.123,2030.519l.6-.6Z" transform="translate(-91.989 -1969.31)" fill="#fff"/>
        </g>
      </g>
      <g id="Group_7519" data-name="Group 7519" transform="translate(84.757 11.132)">
        <g id="Group_7517" data-name="Group 7517" transform="translate(0 6.761)">
          <path id="Path_45623" data-name="Path 45623" d="M111.5,2043.533c1.158-.294.363-1.218.758-2.091.055-.179-.06-.087-.175.009l.271.267a2.788,2.788,0,0,0,.262-.363c.014-.023-.115-.12-.358.087-.377.023-.8-.368-.74-.469a2.078,2.078,0,0,1,.942-.933c.207-.073.74.923.758-.165,0-.23-.648-.469-1.328-.924l1.374-.556c-.1-.092.11.1.326.285,1.034-1.425-.781-2.707-.248-4.256l.749.6c.106-.1.322-.211.322-.326,0-2.307-.037-4.61-.041-6.917a5.883,5.883,0,0,0-1.388-3.934,4.125,4.125,0,0,0-3.645-1.365c-.133.009-.29-.212-.565-.422a2.422,2.422,0,0,1,2.776-1.329,13.664,13.664,0,0,1,7,5.262,30.975,30.975,0,0,0,1.659,2.629,4.22,4.22,0,0,1,.722,3.723l1.811,1.209c-.064.055.1-.184.326-.258,1.687-.57,3.272-1.572,5.166-1.333.639.079,1.057-.294,1.576-.565a1.38,1.38,0,0,1,1.806.6,1.4,1.4,0,0,1-.133,1.857,12.826,12.826,0,0,0-1.393,2.128c-1.245,2.261-1.724,2.426-4.063,1.42-.85-.367-1.765-.588-2.606-.965-.34-.156-.57-.552-.91-.9-1.687,3.622-1.195,7.662-2.84,11.366,1.278.134,2.4-.06,3.139.386a37.172,37.172,0,0,1,5.074,3.755c1.1.957.726,2.179-.79,2.537a5.842,5.842,0,0,0-2.735,1.416,3.336,3.336,0,0,1-1.655,1.025c-1.337.115-2.224.938-3.3,1.512a13.384,13.384,0,0,0-2.9,1.756c-.5.446-1.42.418-2.1.588a3.269,3.269,0,0,0-.372-.629c-1.944-1.871-2.307-4.463-3.02-6.866a1.589,1.589,0,0,0-.942-1.108c-1.806-1.1-1.949-2.1-.938-4.173a3.745,3.745,0,0,1,1.452-1.577c.184.055.087-.06-.009-.175l-.267.271a2.771,2.771,0,0,0,.363.262c.023.013.119-.115-.087-.359-.124-.377.028-.75.175-.75C111.779,2044.775,111.457,2044.053,111.5,2043.533Z" transform="translate(-108.514 -2020.623)" fill="#fff"/>
          <path id="Path_45624" data-name="Path 45624" d="M109.414,2025.3l.216,1.425a4.749,4.749,0,0,1-.588-.7C109,2025.941,109.184,2025.725,109.414,2025.3Z" transform="translate(-106.64 -2003.813)" fill="#fff"/>
        </g>
        <g id="Group_7518" data-name="Group 7518" transform="translate(24.898)">
          <path id="Path_45625" data-name="Path 45625" d="M115.829,2036.1a6.654,6.654,0,0,0,1.227-1.862c.193-.781.345-1.939-2.133-1.084a18.938,18.938,0,0,0,2.335-1.5c.257-.248.533-.951.437-1.034-1.531-1.332-.069-2.4.271-3.709l.763,1.568a25.539,25.539,0,0,0,.864-2.629c.046-.216-.4-.538-.616-.809.239-.639-.616-1.636.928-1.765.2.06.1-.064-.009-.188l-.285.289a2.82,2.82,0,0,0,.391.285c.028.013.129-.125-.1-.386-.809-2.366.331-3.479,2.307-4.1.032,0,.188-.051.244,0,.524.538,1.03,1.1,1.659,1.774.358,5.327-1.025,10.691-1.779,16.183,2.684.754,5.239-.152,7.629-.878,1.443-.436,2.284,1.2,3.488.331.62.671,1.25,1.328,1.852,2.013a6.851,6.851,0,0,1,.547.9c-1.926,2.615-4.66,3.64-7.9,3.626-1.3-.009-2.592.065-3.888,0a5.43,5.43,0,0,1-1.439-.483,6.138,6.138,0,0,0-.892,3.677c.1,2.8.152,5.616.069,8.42a5.739,5.739,0,0,0,1.811,4.78c.193.179.2.56.322.914,1.949.308,3.893,1.039,6.03.864s4.316-.073,6.65-.092c2.427-3.158,4.527-6.531,5.341-10.667.483-2.45,1.379-4.826,1.912-7.29.253-1.163.869-2.238,1.163-3.4.4-1.558-.91-1.875-2.031-2.4.547-2.036,2.689-1.921,3.953-2.932,3.406-.184,6.669.069,9.307,3.093a43.122,43.122,0,0,1-.85,4.725c-.276.974-1.19,1.815,0,2.744-.248,1.172-.483,2.349-.749,3.516a7.782,7.782,0,0,0-.414,1.439c-.037,1.833.055,3.667.014,5.506-.037,1.65-.712,3.194-.671,4.918a9.847,9.847,0,0,1-2.045,5.575,11.241,11.241,0,0,1-4.426,3.989,7.38,7.38,0,0,1-3.544.882,41.621,41.621,0,0,0-6.149.06c-3.612.367-6.968-.593-10.332-1.626-.188-.06-.363-.253-.542-.249-4.228.106-6.09-2.859-7.772-6.016a6.581,6.581,0,0,1-.271-1.512,4.7,4.7,0,0,0-.561-1.7c-.336-.436-1.011-.593-1.471-.965a6.36,6.36,0,0,1-2.44-5.134c-.018-1.944-.06-3.888-.037-5.828.009-.809-.368-1.746.547-2.358C114.823,2042.4,115.917,2039.328,115.829,2036.1Zm2.3-7.063-.414.234c.069.069.161.211.211.2a2.223,2.223,0,0,0,.437-.206Z" transform="translate(-113.931 -2019.152)" fill="#fff"/>
          <path id="Path_45626" data-name="Path 45626" d="M114.867,2022.042l.441-1.609a4.953,4.953,0,0,1,.29.906C115.612,2021.436,115.373,2021.565,114.867,2022.042Z" transform="translate(-110.565 -2014.542)" fill="#fff"/>
          <path id="Path_45627" data-name="Path 45627" d="M114.612,2022.5l.234,1.535a5.146,5.146,0,0,1-.634-.759C114.161,2023.195,114.368,2022.964,114.612,2022.5Z" transform="translate(-112.948 -2007.095)" fill="#fff"/>
        </g>
      </g>
      <path id="Path_45628" data-name="Path 45628" d="M138.834,2043.988a14.952,14.952,0,0,0-.124-3.851c0-.166-.248-.295-.207-.5.207-.331.124-.745.207-1.117a11.092,11.092,0,0,0,.083-1.655c-.124-.5.041-1.122-.414-1.494-.124-.165.083-.289.165-.455,0-.29.248-.538.041-.827-.124-.042-.248-.165-.414-.083-.165.207.124.414.207.579-.5.165-.083.7-.248,1.034.124,1.825.083,3.727.041,5.593l-.372.662a9.108,9.108,0,0,1,.331,1.535,12.482,12.482,0,0,1-.083,2.151c-.083.124-.165.331-.372.289-.041-.042-.041-.082-.083-.165.083-1.944-.041-3.852.041-5.842.083-.161.248-.331.207-.538-.579-.993-.083-2.316-.372-3.437l.083-1.448a1.086,1.086,0,0,1-.124-.952c.041-.165-.124-.331-.041-.5a.321.321,0,0,0-.124-.414c-.372-.253-.951.165-1.121-.336a.953.953,0,0,1,.666-.331c.207-.082.414.165.579-.037,0-.046,0-.046-.041-.083-.331,0-.5-.5-.91-.252a6.932,6.932,0,0,0-1.618-.165,11.661,11.661,0,0,1-1.7-.042,4.193,4.193,0,0,0-1.039.207c.29.124.5.372.79.372.455.331.869-.207,1.324,0,.455-.207.869.083,1.324.083.124.082.377.211.331.418-.083.165-.248.165-.414.165-.538-.294-1.034.124-1.613-.046-.165-.078-.29-.207-.5-.207-.331.335-.827.17-1.158.46-.418.082-.708-.331-1.121-.17-.414.253-.579-.289-.993-.12a3.475,3.475,0,0,0-1.613.12c-.625.046-1.08-.161-1.659-.12a4.3,4.3,0,0,0-1.448.372c-.165-.042-.165-.253-.331-.253a2.874,2.874,0,0,0-1.039.17,3.853,3.853,0,0,0,.041,1.2.973.973,0,0,0-.124.826c-.041.373-.165.91.124,1.246.207.414-.331.786-.041,1.241.124.373-.29.538-.248.828.041,1.99.083,3.976.083,5.966.207.662-.165,1.282-.041,1.944.165.538.7.124,1.08.289.538.207,1.034-.124,1.489.165a1.557,1.557,0,0,1,.869,0,4.294,4.294,0,0,1,1.452.084,5.218,5.218,0,0,1,1.613,0c2.027-.042,4.017.041,6.048-.084l.165.125c.041.083-.041.165-.087.248a8.337,8.337,0,0,1-2.068.248c-.331.042-.745-.124-1.075.042-.5.124-.956-.124-1.411,0a6.673,6.673,0,0,0-2.027.082,23.034,23.034,0,0,0-3.727.042,3.633,3.633,0,0,0-1.365-.248c-.083.041-.165.082-.165.165a.557.557,0,0,0,.5.207c.538.543,1.406.125,2.11.212.29-.419.7.082,1.075-.129a10.954,10.954,0,0,0,2.362,0c.29-.29.745-.042,1.117-.161.625.413,1.411,0,2.156.119.993.125,1.944-.042,2.941,0a2.537,2.537,0,0,1,.951-.289c.455-.165.62-.662.91-.993a1.432,1.432,0,0,0-.083-.745C138.3,2044.815,138.958,2044.525,138.834,2043.988Zm-13.8-5.635a.219.219,0,0,1,.106-.184,2.225,2.225,0,0,1,.547-.239c.179-.068.386-.137.6-.206a8.9,8.9,0,0,0,1.42-.721c.625-.391.938-.676.938-.864,0-.147-.262-.225-.758-.225.028,0-.129.023-.441.065a6.277,6.277,0,0,1-.781.055c-.625,0-.924-.055-.924-.175a.115.115,0,0,1,.023-.078c.069-.1.34-.17.809-.2a4.721,4.721,0,0,1,.823.069c.271.055.4.078.4.078a1.287,1.287,0,0,0,.29-.073,3.588,3.588,0,0,1,.547-.11.694.694,0,0,0,.257-.12c.106-.069.17-.134.17-.179a.278.278,0,0,0-.156-.285,1.318,1.318,0,0,0-.519-.082,1.884,1.884,0,0,1-.432-.065,2.4,2.4,0,0,0-.285-.064.675.675,0,0,0-.142.037,1.882,1.882,0,0,1-.455.083c-.3.037-.689.055-1.186.064-.584.014-.873-.042-.873-.161,0-.055.064-.12.221-.179a1.269,1.269,0,0,1,.46-.106l1.089-.028a2.277,2.277,0,0,1,.574.069,1.62,1.62,0,0,0,.313.074c-.037,0,.078-.032.363-.11a7.1,7.1,0,0,0,.846-.092c.17-.042.262-.124.262-.248,0-.244-.326-.354-.974-.341l-1.094.028c-.483-.009-.717-.078-.717-.2,0-.069.078-.125.262-.166a4.43,4.43,0,0,1,.882-.1l1.875-.01c.354,0,.809.014,1.356.046a.794.794,0,0,0,.156.046.5.5,0,0,0,.207.037s.078-.014.234-.05a6.111,6.111,0,0,1,.846-.069c.211,0,.524,0,.915.013.455.014.754.023.91.023a1.937,1.937,0,0,1,.547.1c.248.074.391.157.414.258a.463.463,0,0,1-.037.125.476.476,0,0,0-.041.165.159.159,0,0,0,.041.12c.064.083.248.133.547.161.441.051.662.074.676.074.142.036.221.092.221.179,0,.065-.064.129-.165.17a1.243,1.243,0,0,1-.377.069c.046,0,.051,0-.014,0l.014,0c-.064,0-.221,0-.5,0-.368,0-.533.152-.533.46-.106.4-.547.626-1.314.69-.2.014-.745.014-1.655,0a8.488,8.488,0,0,0-1.825.092,1.914,1.914,0,0,0-.6.29c-.133.1-.368.3-.689.593a6.673,6.673,0,0,1-1.186.827c-.418.239-.731.4-.951.5a3.24,3.24,0,0,1-1.186.3C125.152,2038.578,125.037,2038.5,125.037,2038.353Zm10-.078a.582.582,0,0,1,.092.206c0,.419-.561.626-1.678.626-.156,0-.432,0-.832,0s-.68,0-.836,0a2.447,2.447,0,0,1-.391-.059,2.027,2.027,0,0,0-.313-.056c-.009,0-.078.023-.207.065a2.068,2.068,0,0,1-.584.06c-.29,0-.51-.01-.694-.028s-.271-.027-.285-.027c-.441,0-.662-.331-.662-1.006a.363.363,0,0,1,.115-.253l.115-.12a1.22,1.22,0,0,1-.087-.248c0-.165.179-.294.547-.377a3.881,3.881,0,0,1,.846-.083h.326c.129,0,.248,0,.326,0a2.984,2.984,0,0,1,.414.06,3.444,3.444,0,0,0,.349.046.379.379,0,0,0,.156-.032.457.457,0,0,1,.161-.041c.869-.032,1.535-.042,1.99-.042a3.2,3.2,0,0,1,.8.129c.335.1.519.2.519.313v.266c0,.042-.051.11-.142.221a.693.693,0,0,0-.129.2A.406.406,0,0,0,135.034,2038.275Zm-.634,2.394a1.181,1.181,0,0,1-.106.422.974.974,0,0,1-.809.483,11.159,11.159,0,0,1-1.351.042c-.041,0-.248-.037-.639-.106a1.1,1.1,0,0,0-.313.064,1.2,1.2,0,0,1-.3.055c-.285,0-.483,0-.561,0-1.278.014-2.224.014-2.84-.013a1.013,1.013,0,0,1-.726-.272.536.536,0,0,1-.2-.418.8.8,0,0,1,.142-.5.837.837,0,0,1,.588-.354c.037-.014.427-.042,1.158-.069a1.29,1.29,0,0,1,.363.06,1.481,1.481,0,0,0,.221.063,1.777,1.777,0,0,0,.391-.082,2.6,2.6,0,0,1,.4-.092l.85-.027c.933-.014,1.535-.014,1.792,0a4.3,4.3,0,0,1,1.6.257A.545.545,0,0,1,134.4,2040.67Zm1.719,5.009a2.945,2.945,0,0,1-.859.115l-3.571.032c-.478,0-1.209.01-2.174.01H129.5l.028-.01h-.115a15.341,15.341,0,0,1-1.682-.1,3.66,3.66,0,0,1-1.507-.381.933.933,0,0,1-.432-.529v-.474l-.037-.615a.751.751,0,0,1,.087-.46c0-.013.041-.041.106-.1s.092-.082.064-.106q-.234-.131-.234-.234c0-.322.055-.51.156-.579a2.914,2.914,0,0,1,1.108-.133,4.29,4.29,0,0,1,.823.074c.1.027.221.045.336.073l.17-.069a1.571,1.571,0,0,1,.427-.078,3.455,3.455,0,0,0,.381-.018c.078-.009.257-.009.547-.009.009,0,.129,0,.335-.013s.326-.014.34-.014h.391l2.28-.027,1,.014a1.59,1.59,0,0,1,.961.257.963.963,0,0,1,.276.786c0,.533-.533.786-1.6.786h-1.852c-.064,0-.349.009-.859.009s-.938.009-1.287.009c-.262,0-.588,0-.965.019s-.689.023-.951.023a3.15,3.15,0,0,0-.938.1c-.179.068-.271.271-.271.62,0,.4.639.635,1.912.681,1.08.042,2.321.065,3.7.065q.331,0,2.85-.12l.887-.042c.285,0,.441.074.441.216C136.376,2045.541,136.284,2045.62,136.118,2045.679Z" transform="translate(30.909 -1964.294)" fill="#d40012"/>
    </g>
    <path id="Path_45629" data-name="Path 45629" d="M126.179,2034.823c1.03,0,1.655,0,1.875-.032.561-.056.846-.23.846-.515,0-.363-.418-.552-1.25-.552-.064,0-.248,0-.561.023s-.492.014-.561.014a3.215,3.215,0,0,0-.726.087c-.354.083-.519.212-.519.364-.014.239.023.381.129.441A1.388,1.388,0,0,0,126.179,2034.823Z" transform="translate(36.537 -1955.616)" fill="#d40012"/>
    <path id="Path_45630" data-name="Path 45630" d="M126.072,2031.849c.29-.042.538-.124.786.087.455-.336.873.165,1.282-.129.418-.207.873.083,1.245.083.124-.083.248-.12.207-.29-.29-.413-.827-.124-1.241-.248a20.878,20.878,0,0,1-2.28,0,15.352,15.352,0,0,0-1.985.289c-.129.046-.335,0-.294.207a.758.758,0,0,0,.542.124A6.052,6.052,0,0,1,126.072,2031.849Z" transform="translate(31.166 -1964.21)" fill="#d40012"/>
    <path id="Path_45631" data-name="Path 45631" d="M125.658,2031.441c-.124-.166-.331,0-.455.041.041.125.207.125.372.125C125.617,2031.569,125.7,2031.523,125.658,2031.441Z" transform="translate(36.258 -1964.092)" fill="#d40012"/>
    <path id="Path_45632" data-name="Path 45632" d="M127.115,2031.777c-.041-.087-.083-.248-.207-.207,0,.037-.083.083-.083.165a.5.5,0,0,0,.207.373C127.156,2032.067,127.115,2031.9,127.115,2031.777Z" transform="translate(42.091 -1963.389)" fill="#d40012"/>
    <path id="Path_45633" data-name="Path 45633" d="M123.849,2032.278c-.041-.082-.083-.207-.207-.165a.375.375,0,0,0-.124.289c.041.083.124.253.207.295A1.673,1.673,0,0,0,123.849,2032.278Z" transform="translate(30.199 -1961.449)" fill="#d40012"/>
    <path id="Path_45634" data-name="Path 45634" d="M124.029,2035.521c.331-.7-.372-1.158-.248-1.861.083-.289.455-.62.124-.956-.083-.12.083-.409-.124-.409-.372.037-.124.372-.207.579-.331.372.248.786-.083,1.158.165.869-.083,1.779.041,2.652a6.978,6.978,0,0,1-.041,1.862,2.312,2.312,0,0,1,.124.952c.29.417-.041,1,.29,1.41.165-.165.041-.5.041-.744.124-.832-.083-1.617.041-2.445.041-.206.207-.372.165-.621C123.781,2036.638,124.195,2036.059,124.029,2035.521Z" transform="translate(30.019 -1960.758)" fill="#d40012"/>
  </g>
  <g id="Group_7522" data-name="Group 7522" transform="translate(86.823)">
    <path id="Path_45635" data-name="Path 45635" d="M128.579,2012.668v4.394h2.611v2.85h-2.611v4.6H117.135a14.47,14.47,0,0,1-1.255,1.83h13.489v9.21H126.46v-.84H116.271v.735h-2.877v-6.54a18.684,18.684,0,0,1-3.079,2.04l-1.351-2.671a14.351,14.351,0,0,0,4.628-3.764h-2.983v-2.776h4.775a19.248,19.248,0,0,0,.74-1.829h-6.866v-2.85h7.556c.1-.524.17-1.075.221-1.65h-6.228v-2.744Zm-2.119,16.638H116.271v2.56H126.46Zm-8.02-7.565H125.7v-1.829h-6.669C118.831,2020.541,118.633,2021.166,118.44,2021.74Zm1.181-4.678H125.7v-1.65h-5.855C119.791,2015.986,119.718,2016.538,119.621,2017.062Z" transform="translate(-108.963 -2012.668)" fill="#fff"/>
    <path id="Path_45636" data-name="Path 45636" d="M118.669,2031.056c0,.6.372.943,1.158.993.492.106,2.633.133,6.453.133,2.114,0,3.544-.027,4.256-.082a14.914,14.914,0,0,0,2.289-.258c.565-.262.91-1.02,1.034-2.33l2.9,1.544a5.738,5.738,0,0,1-1.894,3.48,7.394,7.394,0,0,1-1.972.441c-1.967.11-4.187.156-6.618.156-3.87,0-6.3-.073-7.34-.179a2.929,2.929,0,0,1-3.148-3.295v-11.04h19.914v8.687h-3.079v-.707H118.669Zm15.116-18.388v7.036H117.143v-7.036ZM118.669,2023.5v2.247h5.391V2023.5Zm12.211-6.541v-1.544H120.025v1.544Zm-3.838,6.541v2.247h5.584V2023.5Z" transform="translate(-84.406 -2012.668)" fill="#fff"/>
  </g>
</svg>
