<svg id="menuIcon_01" xmlns="http://www.w3.org/2000/svg" width="81.553" height="81.553" viewBox="0 0 81.553 81.553">
  <g id="Group_7569" data-name="Group 7569">
    <circle id="Ellipse_357" data-name="Ellipse 357" cx="40.776" cy="40.776" r="40.776" fill="#fff"/>
    <circle id="Ellipse_358" data-name="Ellipse 358" cx="38.896" cy="38.896" r="38.896" transform="translate(1.881 1.881)" fill="#5895af"/>
  </g>
  <g id="Group_7590" data-name="Group 7590" transform="translate(14.417 11.916)">
    <path id="Path_49055" data-name="Path 49055" d="M195.814,68.581l.015-.28h.015v-.132c.066-.228.037-.522.1-.751v-.147h.015V67.1h.015v-.147H196v-.162h.015v-.169h.015v-.169h.015v-.162h.015l.037-.53h.015v-.184h.022v-.184h.015v-.2h.015V65h.015v-.2h.022v-.2h.015l.015-.434h.015v-.213h.022v-.235h.015v-.228h.015v-.25h.015v-.25h.022v-.28h.015v-.265c.022-.088-.007-.228.015-.316s-.007-.228.022-.316-.015-.265.015-.368h.015v-.25H194.7v1.229a2.717,2.717,0,0,1-.015.6v.53h-.015v.412h-.015v.316l-.015.015v.316h-.022v.265H194.6v.265h-.015v.235h-.015v.213h-.022v.213h-.015v.2h-.015v.184H194.5v.184h-.015l-.03.515h-.022v.147h-.015v.147H194.4v.155h-.015v.147h-.022v.132h-.015v.132h-.015v.132c-.066.228-.052.508-.118.736l-.1.758c-.051.177-.066.4-.118.567v.1c-.029.11-.052.25-.088.353v.081c-.029.1-.052.235-.081.338v.081c-.066.206-.1.456-.162.662l-.015.147c-.088.243-.133.545-.221.78l-.029.2h-.022l-.044.235h-.015l-.022.118h-.015l-.037.162h-.015l-.029.169h-.022v.051h-.015v.044h-.015v.052h-.015v.066c-.177.478-.339.979-.537,1.427v.052h-.015v.029h-.015v.051h-.015l-.022.088h-.015l-.015.066H192.5v.044h-.022l-.015.066h-.015v.052h-.015l-.022.066h-.015v.051h-.015l-.037.1h-.015V75.7h-.015v.051H192.3l-.037.1h-.015v.037h-.022v.029h-.015v.051h-.015V76h-.015l-.022.066h-.015V76.1h-.015v.029h-.015v.037h-.022V76.2h-.015l-.015.066h-.015V76.3h-.022v.037h-.015v.029H192V76.4l-.037.029v.037l-.029.015-.015.066h-.022v.037h-.015v.029l-.029.029v.037l-.037.015v.037l-.029.029V76.8h-.022v.029l-.029.022-.037.1-.029.015-.037.1-.03.015-.022.066-.029.015-.015.066-.037.022-.015.066-.037.015-.015.066-.029.015-.022.051h-.015l-.015.066-.037.015v.037l-.03.015v.037l-.037.015v.037l-.029.015-.015.066-.037.015v.029l-.029.022v.029l-.037.015v.037h-.015l-.015.052-.037.015v.029l-.052.037v.037l-.029.015-.022.044h-.015v.037l-.03.015v.037l-.051.029v.037l-.037.015v.029l-.044.037-.022.052-.029.015v.037l-.037.015v.029l-.044.037v.029l-.052.037v.029l-.066.052v.037l-.052.029v.037l-.066.044-.015.052-.037.015v.037l-.066.051v.029l-.081.066v.037l-.081.066v.029l-.088.066v.037l-.11.1v.037l-.132.118v.029l-.184.169a4.529,4.529,0,0,1-.368.383,3.868,3.868,0,0,1-.478.441l-.118.14H188.6l-.088.1h-.029l-.088.1h-.029l-.015.029h-.022l-.015.037h-.029l-.066.081h-.037l-.029.051h-.037l-.052.066h-.029l-.052.066h-.029l-.037.051h-.029l-.037.044h-.029l-.037.052h-.037l-.015.037h-.03l-.037.044-.052.022-.015.029h-.029l-.022.037-.044.015v.015h-.037l-.029.052H187.4l-.015.029-.051.022v.015h-.037l-.015.029h-.029l-.015.037-.052.015v.015h-.037l-.015.037-.066.015-.015.037h-.037l-.015.029h-.037l-.015.037-.066.015-.015.037-.052.015v.015l-.066.015-.015.037-.066.015-.015.037-.1.029-.015.037-.1.029-.015.037-.1.029-.015.037-.066.022v.015H186.2v.007h-.029v.022h-.029l-.037.029h-.037l-.015.037h-.029l-.037.029h-.029v.022h-.037v.015l-.029.007v.007h-.037v.015h-.029v.022h-.037v.015h-.029v.015h-.037v.015h-.029v.015l-.066.022v.015h-.037v.015h-.044v.015l-.1.037V82.8H185.4v.015h-.029v.022l-.037.007v.007h-.044v.015l-.074.015v.022h-.029v.015h-.052v.022l-.066.015v.015h-.044v.015l-.074.015v.022h-.044v.015l-.037.007v.007h-.052v.015l-.066.022v.015h-.044v.015h-.037v.022l-.1.015v.015l-.088.015v.022h-.029v.015l-.1.015v.015h-.029v.022l-.147.029v.015h-.037v.015l-.1.022v.015H184v.015h-.052v.022h-.052v.015h-.029v.015l-.1.022v.007h-.052v.022h-.052V83.5h-.044v.015l-.052.007v.015H183.5c-.567.2-1.177.361-1.744.559l-.132.022v.015h-.066v.015l-.066.007v.007h-.081v.022h-.088V84.2h-.081v.015l-.081.007v.007h-.1c-.147.044-.346.044-.493.088h-.169v.015h-.2v.015l-.434.015h-.316a1.564,1.564,0,0,1-.493.015v-.015h-.515l-.581-.044v.029l.052.015.029.051h.037l.052.066h.029l.037.051.044.015.022.037h.029l.037.044h.029l.037.052h.029l.037.051h.029l.015.029h.037l.029.051h.037l.015.037h.037l.029.052h.037l.015.029h.029l.037.052h.037l.015.029.051.029v.007h.029l.015.037h.037l.029.044h.037l.015.037.052.015V85.2h.029l.022.037h.029l.015.029.052.022V85.3h.037l.015.029h.037l.015.037.066.015.015.037h.037l.015.029h.029l.015.037h.037l.015.029.066.015.022.037.044.015v.015l.066.022.022.029h.029l.015.037h.037V85.7h.029l.022.029.066.015.015.037.066.015.015.037.066.015.022.037.059.015.022.029.1.037.022.029h.029l.037.037h.029l.015.037h.037l.029.029.037.007v.007h.029v.015h.037l.015.037h.037l.029.037h.037v.015l.066.015.015.037.066.015v.015h.037v.015h.029v.022h.037v.015l.029.007v.007h.037v.015l.066.022v.015l.066.015v.015h.029v.022h.037v.015l.029.007v.007h.037V86.5l.066.022v.015l.066.015v.015h.029v.022h.052v.015l.1.029v.022h.03v.015h.029v.015h.052V86.7l.066.022v.015h.037v.015h.052v.015l.066.022v.015h.044v.015H182v.022h.051v.015h.029v.015h.052v.015l.081.022v.015h.037v.015h.052v.015h.03v.022l.147.029v.022h.037v.015h.052v.015h.044v.015h.052v.015h.052c.206.088.456.147.677.221h.088v.015h.066v.015l.081.007v.007h.081v.022h.088v.015h.081V87.4l.118.007v.007h.11v.022h.155v.015h.2v.015h.265a2.27,2.27,0,0,0,.647-.051h.118V87.4h.081v-.015l.1-.007v-.007h.066v-.022h.088v-.015h.066v-.015h.066v-.015h.066v-.022h.066V87.27l.052-.007v-.007l.059-.007v-.007h.052v-.022h.052V87.2l.051-.007v-.007h.052v-.015h.044v-.022h.052v-.015l.1-.015v-.015h.029v-.022h.051v-.015l.037-.007v-.007h.044v-.015h.037v-.015h.052v-.022h.029V86.99h.052v-.015l.066-.022v-.015h.052v-.015l.1-.037v-.015h.037v-.015h.029v-.015h.037v-.022h.044v-.015l.1-.037v-.015l.066-.015.015-.037.066-.015v-.015h.037v-.015h.029v-.022h.037l.029-.029h.037l.015-.037.1-.029.015-.037.066-.015.015-.029.1-.037v-.015l.044-.015.022-.037.066-.015.015-.037h.037l.015-.029h.029l.022-.037.066-.015.015-.029h.029l.037-.052h.029l.022-.037h.029l.022-.029.044-.015v-.022h.037l.015-.029h.029l.037-.052h.037l.03-.051h.037l.015-.029h.029l.037-.051h.029l.037-.052h.029l.052-.066h.037l.029-.044h.037l.044-.074h.037l.066-.081h.029l.066-.081h.037l.066-.081h.037l.1-.118h.037l.11-.132h.037l.029-.052.1-.081.118-.132h.029l.147-.169.154-.132V84.5l.265-.243v-.037l.147-.132v-.037l.118-.1v-.037l.1-.081V83.8l.081-.066V83.7l.029-.015v-.015l.037-.022V83.62l.066-.051V83.54l.029-.022V83.5l.037-.015v-.037l.066-.044V83.37l.029-.015.022-.052.066-.051v-.029l.044-.037v-.029l.052-.037.015-.051.037-.015v-.029l.029-.022v-.029l.051-.029v-.037l.037-.022v-.029l.052-.037v-.029l.029-.015.015-.051h.022v-.037l.029-.015v-.029l.052-.037v-.029l.029-.015.022-.052H192v-.037l.03-.015.022-.044h.015l.015-.074.037-.015v-.037l.029-.015v-.029l.037-.022.015-.066.029-.015.022-.052h.015l.015-.066.037-.015.015-.052h.015l.022-.066.029-.015.037-.1.029-.015v-.029h.015v-.037l.037-.015v-.037l.029-.029v-.037h.022v-.029l.029-.015v-.037l.037-.029v-.037h.015v-.037l.029-.015v-.029l.037-.037v-.029h.015l.037-.1.029-.015v-.037l.037-.029v-.029h.015V81.03h.015v-.037h.015v-.029h.022v-.037h.015V80.9h.015v-.029h.022v-.037h.015l.015-.066h.015L193,80.7h.022v-.037h.015v-.052h.015l.037-.1h.015v-.029h.015v-.037h.022V80.42h.015v-.052h.015l.015-.066h.022v-.037h.015v-.044h.015l.015-.066h.022V80.1h.015l.015-.066h.022v-.051h.015l.015-.066h.015v-.052h.015v-.029h.022l.015-.088h.015v-.044h.022v-.037h.015v-.052h.015v-.044h.015v-.037h.022l.015-.1h.015V79.4h.015v-.051l.1-.228.015-.1c.169-.427.272-.92.434-1.361l.015-.132h.015l.037-.184h.015l.015-.118h.015V77.16h.022v-.066h.015v-.052h.015v-.059c.037-.1.066-.235.1-.339l.015-.132c.14-.4.184-.868.316-1.273v-.088h.015v-.066h.015V75h.022v-.081h.015v-.066h.015v-.088h.022l.015-.162c.052-.169.074-.39.133-.567l.015-.184c.074-.243.088-.544.169-.795.14-.9.28-1.8.427-2.708v-.11c.066-.221.052-.515.118-.728l.015-.272C195.77,69.044,195.755,68.787,195.814,68.581Z" transform="translate(-172.658 -37.375)" fill="#fff"/>
    <path id="Path_49056" data-name="Path 49056" d="M182.342,80.332v.007h.037v.015l.059.022v.015l.074.015v.015h.029v.022h.051v.015l.066.015v.015h.052V80.5l.066.022v.015l.1.015v.022h.037v.015l.662.2h.081V80.8l.066.007v.007l.1.007v.015h.1v.015h.118v.015l.147.007v.007l.552.022h.214v-.022l.383-.015v-.015h.118v-.015h.118v-.022h.081V80.8h.1v-.015l.154-.015v-.022h.066v-.015l.066-.007v-.007h.066v-.015h.066v-.022h.052V80.67h.066a7.212,7.212,0,0,0,1.427-.647l.1-.029.015-.037h.037v-.015h.029l.022-.037.044-.015v-.015l.066-.015.022-.037h.029l.015-.029h.037l.015-.037h.037l.015-.037h.037l.015-.029h.029l.022-.037h.029V79.64l.052-.015.015-.029h.037l.029-.051h.037l.015-.037h.029l.037-.044h.029l.037-.052h.037l.029-.052h.029l.052-.066h.037l.029-.052h.037l.051-.066h.03l.052-.066h.03l.066-.081h.037l.081-.1h.037l.1-.11h.037l.132-.155h.029l.037-.052.1-.081.118-.132h.037l.265-.28.1-.088V78l.28-.265V77.7l.169-.147v-.029h.015l.052-.074.066-.044v-.037l.118-.1v-.037h.015l.037-.044.052-.037v-.037l.1-.081v-.029l.081-.066V76.9l.088-.066v-.029l.066-.051v-.037l.066-.044v-.037l.066-.052v-.029l.066-.052v-.029l.066-.052v-.037l.066-.051v-.029l.052-.037V76.24l.044-.037v-.029l.066-.051v-.029l.051-.037V76.02l.052-.029v-.029l.052-.037v-.037l.044-.029v-.037l.052-.029.015-.052.037-.015V75.7l.029-.022v-.037l.052-.029.015-.052.037-.015v-.029l.037-.022v-.029l.044-.037v-.029l.037-.015v-.037l.052-.029v-.037l.029-.015v-.037l.052-.029v-.037l.029-.015.015-.052h.022v-.029l.052-.037V75l.029-.015.015-.052h.022v-.037l.029-.015v-.037l.052-.029v-.037l.029-.015.022-.052h.015v-.029l.029-.015v-.037l.037-.015v-.037l.029-.015v-.029l.037-.022v-.029l.037-.015.015-.051h.015v-.037l.037-.015v-.029l.029-.022v-.029l.029-.022v-.029l.037-.015V74.18l.037-.015v-.037l.03-.015v-.037l.037-.015L193.3,74h.015l.015-.051.037-.015V73.9l.029-.022.022-.044h.015l.015-.066.037-.022v-.029l.029-.015v-.037l.037-.015.015-.066h.015l.015-.051.037-.015v-.037l.03-.015.022-.066.029-.015.015-.051h.022l.015-.066.029-.015v-.037h.022v-.029l.029-.022.015-.044h.022l.015-.066.029-.022.022-.066.03-.015.037-.1.029-.022V72.8h.022v-.037l.029-.015v-.029l.037-.037v-.029h.015V72.62l.029-.015v-.037l.037-.029V72.5h.015v-.029l.037-.015.015-.066h.015v-.037h.015v-.029l.037-.037v-.037l.03-.015v-.029l.037-.037v-.029h.015v-.037h.015v-.029h.022v-.037h.015V72.01h.015v-.037h.015l.022-.066h.015l.015-.066h.022l.029-.1h.015l.015-.059h.022v-.051h.015V71.59h.022l.029-.1h.015l.015-.066h.022v-.051h.015l.029-.1h.022v-.029h.015v-.051h.015l.015-.066h.022v-.052h.015v-.029h.015l.015-.066h.022v-.052h.015V70.9h.015v-.052h.015l.022-.066h.015v-.051h.015v-.037h.015v-.044h.022v-.037h.015V70.56h.015v-.029h.015v-.052h.022l.015-.081h.015v-.037h.015v-.044h.022V70.28h.015v-.052h.015v-.044h.015v-.037h.022l.015-.1h.015v-.029h.015l.037-.147h.015v-.037h.015V69.78h.022v-.044h.015v-.051h.015v-.052h.022v-.052c.059-.155.118-.338.177-.493l.022-.1h.015l.066-.28h.015l.037-.169h.015l.015-.11h.015v-.051h.022l.015-.118h.015l.037-.184h.015l.081-.383h.015l.022-.147c.066-.191.1-.434.162-.633v-.081c.074-.228.1-.5.169-.728l.015-.184c.066-.206.073-.471.132-.677L196.58,65c.059-.184.052-.419.1-.6v-.125h.015v-.132h.015l.022-.3h.015v-.155h.015v-.162h.022v-.169h.015v-.2h.015v-.2h.015l.022-.316v-.162a2.342,2.342,0,0,1,.015-.316,2.479,2.479,0,0,0,.015-.412V61.7h.015v-.368h-1.523a1.421,1.421,0,0,1-.051.316v.132h-.015v.132h-.022v.118h-.015v.118h-.015v.132c-.029.1-.037.235-.066.331l-.015.235c-.059.191-.059.449-.118.64l-.037.316c-.088.3-.088.67-.177.964l-.022.2c-.081.265-.1.589-.184.846l-.029.25c-.066.206-.1.464-.169.662l-.015.147h-.015l-.015.14h-.022l-.015.132h-.015v.066h-.015v.066h-.022v.066h-.015v.044h-.015l-.037.206h-.015l-.015.11H194.2l-.022.118h-.015l-.015.118h-.015v.051h-.022v.044h-.015v.052h-.015v.066h-.015v.051h-.022v.052h-.015v.052h-.015v.044H194l-.022.1h-.015v.029h-.015l-.037.155h-.015v.029h-.015v.052h-.022v.037h-.015V68.8h-.015v.037h-.015v.052h-.022l-.015.066h-.015V69h-.015l-.037.1H193.7v.037h-.015v.029h-.022v.037h-.015v.029l-.03.029V69.3l-.037.015-.015.066-.037.022-.029.1-.037.015v.037h-.015v.029l-.029.022-.022.066-.029.015-.015.066-.037.015-.015.066-.037.015-.015.074-.03.015v.029l-.037.015v.037l-.037.015-.015.066h-.015l-.015.051-.037.015V70.2l-.029.015-.015.066-.037.015v.037l-.037.015v.037l-.029.015v.029l-.037.022v.029l-.029.015v.037l-.037.015v.037l-.029.015v.029h-.015l-.022.052-.029.015v.037l-.052.029V70.8l-.029.015-.022.052H192.6V70.9l-.037.015v.029l-.044.037v.029l-.037.022v.029l-.044.037v.029l-.037.015v.037l-.029.015-.022.051-.044.029v.037l-.052.029v.037l-.052.037v.029l-.037.015v.037l-.066.052v.029l-.044.029v.037l-.052.037v.029l-.066.052-.015.052-.037.015v.029l-.066.052v.037l-.066.044v.037l-.081.066v.037l-.066.044v.037l-.088.066V72.3l-.1.088v.029l-.052.037-.029.044h-.022v.037l-.11.1v.037l-.155.132v.029l-.029.022v.015l-.169.147a3.045,3.045,0,0,1-.4.419,5.283,5.283,0,0,1-.515.478l-.132.147h-.029l-.022.037h-.015l-.051.066h-.029l-.066.081-.037.007v.007l-.044.037-.022.037h-.029l-.066.081h-.037l-.052.066h-.029l-.015.029-.052.022-.052.066h-.037l-.029.044h-.029l-.037.052H189l-.037.052-.052.015-.015.037h-.037l-.015.029h-.029l-.037.051h-.029l-.022.029-.044.022v.015h-.037l-.015.037H188.6l-.015.029h-.029v.015l-.052.022-.037.044-.066.022-.015.029h-.029l-.022.037h-.03l-.015.029-.066.015-.022.037-.066.015-.015.037-.066.015-.015.029-.066.022-.022.029-.1.037-.015.029H187.8l-.029.037h-.037v.015h-.029v.015h-.037l-.015.037h-.037l-.03.029h-.037v.015l-.029.007v.007h-.037v.022h-.029v.015l-.037.007V75.7h-.029v.015h-.037v.015l-.1.029v.022h-.051v.015h-.037v.015l-.029.007v.007l-.066.022v.015h-.052v.015l-.066.015v.022l-.3.1v.015h-.029v.022l-.1.022v.007h-.029v.022l-.927.265h-.088c-.1.029-.25.044-.361.081l-.118.007v.007h-.133v.022h-.147v.015c-.243,0-.493.007-.736.015a2.157,2.157,0,0,1-.493-.015h-.25v-.015l-.2-.007v-.015h-.155v-.015h-.132v-.015l-.132-.007V76.4h-.11c-.088-.022-.206-.037-.287-.066l-.162-.015v-.015h-.081v-.015l-.221-.037V76.24l-.066-.007v-.015h-.066V76.2h-.052v-.015l-.132-.015-.7-.235v-.015l-.029-.007v-.007h-.052v-.022l-.081-.015v-.015l-.037-.007v-.007H180.5v-.022l-.074-.015v-.015l-.044-.007v-.007l-.1-.044v-.007h-.029v-.015h-.037V75.7h-.051v-.022l-.1-.037v-.015h-.037v-.015L180,75.6v-.007l-.1-.037-.015-.029h-.029l-.037-.037h-.037v-.015l-.029-.007v-.007h-.03l-.022-.037h-.029v-.015l-.066-.015-.015-.037-.066-.015-.022-.029h-.029v-.022h-.037l-.015-.029-.051-.022v-.015l-.066-.015-.015-.029h-.037l-.015-.037h-.029l-.015-.029h-.037l-.015-.037H179.1l-.029-.051h-.037L179.023,75h-.037l-.029-.052h-.037l-.015-.037h-.037l-.044-.066-.052-.015-.015-.029h-.037l-.051-.066h-.029l-.052-.066h-.029l-.088-.1h-.029l-.118-.132h-.03l-.25-.265-.221-.2V73.93l-.11-.1V73.8l-.1-.081V73.68l-.066-.044-.015-.052-.037-.015v-.037l-.066-.052v-.029l-.029-.015V73.4l-.052-.037v-.029l-.037-.015V73.29l-.03-.022-.015-.052h-.022c-.029-.044-.037-.1-.081-.132v-.029h-.015a1.572,1.572,0,0,0,.081.4l.037.213h.015v.066h.015l.037.184h.015l.015.118h.022v.044h.015v.052h.015v.066h.015l.037.169h.015v.052h.015v.051h.022v.044h.015l.015.1h.015v.029h.022V74.7h.015v.052h.015V74.8h.015v.044h.022l.015.088h.015v.029h.015l.022.1h.015v.029h.015v.052h.015l.022.066h.015v.052h.015l.015.066h.022v.052h.015l.015.066h.022v.029h.015v.051h.015v.029h.015l.015.066h.022v.037h.015V75.7h.015v.029h.022v.029h.015v.037h.015v.029h.015v.037h.015v.029h.022v.037l.029.037v.029l.037.015.029.1.037.015.029.1h.022l.015.052.03.022.022.066.029.015V76.4l.037.022v.029l.029.022v.029l.037.015v.037l.029.015v.037l.037.015v.029l.029.022V76.7l.037.015v.037h.015l.015.051.037.015v.029l.052.037v.029l.029.022.015.044h.022v.037l.044.029v.037l.037.015v.029l.052.037V77.2l.029.015v.029l.037.022.015.044.052.037v.037l.052.029v.029l.044.037v.037l.052.029v.037l.066.044.015.051.037.015v.037l.066.052v.029l.066.051V77.9l.081.066V78l.081.066v.029l.1.088v.029l.118.1v.029l.162.155a3.888,3.888,0,0,0,.383.4l.2.213h.037l.132.155h.029l.081.1h.037l.066.081h.037v.022l.044.029.015.037h.037l.015.029.052.015.051.066h.029l.037.052h.029l.037.052h.029l.022.029h.029l.037.051h.03l.015.037h.037l.015.029.052.015v.022h.037l.015.029h.029l.015.037h.037l.015.029h.037v.015h.029l.022.037.059.015.022.037.066.015.015.037.1.029.015.029.1.037v.015h.037v.022h.037v.015Z" transform="translate(-177.147 -36.485)" fill="#fff"/>
    <path id="Path_49057" data-name="Path 49057" d="M178.342,66.69h.022v.037h.015v.044h.015l.037.1h.015l.015.066.037.015.015.066h.015l.015.052.037.015v.029l.029.022v.029l.037.022.015.044.052.037V67.3l.052.037.015.051.118.1v.037l.162.147.155.169h.029l.015.029h.022l.081.1h.037l.059.081h.037l.052.066h.029l.052.066h.037l.029.051.052.015.015.029h.037l.015.037h.029l.037.052h.029l.022.029h.029l.015.037H180l.015.029h.037l.015.037h.029l.022.029.029.007v.007h.037l.015.037.066.015.015.037h.037v.015h.029l.022.029.1.037a4.865,4.865,0,0,0,.927.434l.316.066v.015l.1.015v.015h.052v.022l.044.007v.007h.052v.015h.052v.022h.066v.015l.051.007v.007h.066v.015h.066V69.4l.11.022v.007l.221.029v.022h.081c.147.044.346.066.5.118l.2.015c.14.044.339.037.478.081h.155v.015h.162v.022h.169v.015h.213v.015l.434.022c.059,0,.162-.015.2.015h.147v.015h.015v.015h.015v.037h.022v.029l.029.015.022.051h.015l.015.066.037.022v.029l.029.015.015.066.037.022.015.066.037.015.015.066.029.015.022.066.03.015.037.1.029.015v.037h.022V70.6l.029.015.037.1.029.015v.037l.029.029v.037l.037.015.037.1.03.015V71l.037.037v.029h.015V71.1l.029.015v.037l.037.029v.037h.015v.029l.037.015V71.3l.029.037v.029h.015V71.4h.022l.015.074.029.015v.029l.037.037v.029h.015v.037h.015v.029h.022v.037h.015v.029h.015v.037l.037.015V71.8l.029.029v.037h.015V71.9h.022v.037h.015v.029h.015V72h.015v.029h.022l.015.066h.015l.015.066h.022l.029.1h.015l.037.1c.36.677.662,1.405.979,2.126l.265.927v.088h.015v.066h.022v.081h.015v.081h.015v.081h.015v.1h.022V76h.015v.1h.015v.118h.015v.1a2.992,2.992,0,0,1,.066.353v.125h.022v.14h.015v.132h.015v.162h.022V77.4c.044.169.029.427.066.611l.029.868h.015v.478a1.577,1.577,0,0,1,.022.383v1.31c0,.066.015.191-.022.235v.28l.2-.088v-.015h.037v-.015h.052v-.015l.1-.029v-.022h.037v-.015l.044-.007v-.007l.066-.022v-.015h.051V81.3l.066-.015v-.022h.052v-.015h.037V81.23h.044v-.015l.066-.022v-.015h.052v-.015h.037v-.022l.081-.015v-.015h.052V81.1h.029v-.015h.052V81.06h.037v-.015l.1-.015v-.015h.037v-.022l.1-.022v-.007h.037V80.95l.1-.022v-.015h.037V80.9l.1-.015v-.022h.037v-.015l.1-.015v-.015h.052V80.8h.051v-.015h.052v-.015h.029v-.022l.147-.029V80.7h.052v-.022h.052v-.015h.051v-.015h.052v-.015h.044v-.022h.052V80.6l.066-.007v-.007l.1-.015v-.022h.044v-.015h.051v-.015h.052V80.5l.162-.037V80.45l.169-.044V80.4h.066v-.015l.184-.037v-.015l.118-.015V80.3l.044-.007V80.28l.206-.029c.294-.1.655-.155.957-.25h.088c.125-.037.287-.059.412-.1h.1c.169-.059.4-.066.574-.125l.235-.015c.154-.044.375-.037.53-.081h.169V79.67l.162-.007v-.007h.206v-.022h.228v-.015h.28V79.6h.537a1.955,1.955,0,0,1,.508,0,2.069,2.069,0,0,1,.434.015c.1,0,.2,0,.3.007v.007h.177l.037.022h.2v.015c.11.007.221.007.331.022V79.7h.147v.022h.14c.177.052.4.044.581.1h.11c.25.074.552.088.8.169l.243.029v.015l.147.022v.015l.074.007v.007h.066V80.1l.213.037c.1.037.228.066.331.1h.066v.015l.25.052v.015l.118.015v.015l.118.022v.015l.11.015v.015l.118.022v.015h.052v.015h.052v.015h.066V80.5h.044v.015h.052v.015h.052v.015l.213.052v.015l.1.022v.015h.052v.015h.044v.015l.052.007V80.7h.052v.015h.051v.015h.044v.015l.155.037V80.8h.029v.022h.052v.015h.052v.015h.051v.015h.044v.022h.037V80.9l.1.015v.015l.037.007v.015l.1.015v.015h.037v.015l.1.022v.015l.081.015v.015l.029.007v.015l.1.015v.015l.029.007v.007l.051.007v.007l.066.022v.015l.081.015v.022h.052v.015h.037v.015l.044.007v.007l.074.022V81.3h.044v.015l.066.015v.022h.052v.015h.029v.015h.037V81.4h.037v.015h.044v.015l.1.029v.022h.029v.015h.052v.015h.037v.015l.066.022v.015h.015c-.007-.441-.015-.883-.015-1.324a2.969,2.969,0,0,1,.015-.633v-.581h.015V78.64h.022l.015-.383v-.184h.015v-.228h.015l.022-.383h.015v-.169h.015v-.162c.059-.2.044-.456.1-.648v-.118c.029-.1.044-.228.066-.316v-.1c.029-.1.059-.228.088-.331v-.081h.015l.037-.213h.015l.029-.2h.022l.015-.132h.015l.037-.169h.015v-.052h.015v-.044h.015v-.052h.022v-.051h.015v-.052h.015v-.044h.015v-.052h.015v-.037h.022l.015-.1h.015l.022-.066h.015v-.051h.015V74.2H206v-.052h.015l.015-.066h.015v-.052h.015l.022-.066h.015v-.052h.015l.022-.066h.015v-.051h.015l.015-.066h.015v-.052h.022l.015-.066h.015v-.044h.022l.015-.066h.015v-.052h.015l.015-.066h.022v-.037h.015V73.3h.022l.015-.066h.015v-.037h.015v-.051h.015l.022-.066h.015v-.029h.015V73h.022v-.029h.015l.052-.155h.015l.029-.1h.015V72.68h.022v-.052h.015l.015-.066h.015l.022-.066h.015l.015-.066h.022v-.044h.015l.029-.1h.015v-.029h.022v-.037h.015v-.029h.015l.022-.074h.015v-.044h.015l.029-.1h.022l.029-.1h.022v-.037h.015V71.8h.015v-.037h.015v-.029h.022V71.7h.015l.015-.066h.015l.022-.066h.015l.029-.1h.022l.11-.272.037-.015.015-.066h.022V71.09h.015v-.037h.015v-.037h.015v-.029h.022v-.029l.029-.037v-.037l.037-.015V70.84l.029-.037v-.029h.015v-.037h.022v-.029l.029-.015v-.037l.037-.037V70.59h.015v-.037l.029-.015v-.029l.037-.037v-.029h.015v-.037l.037-.015v-.037l.029-.029v-.037l.037-.015.029-.1.037-.022.015-.066.037-.015.015-.066.029-.015.015-.066.037-.022v-.029h.015v-.037h.015l.022-.044h.2V69.78h.4v-.022h.265v-.015h.213v-.015h.184v-.022h.154v-.015h.147c.14-.037.339-.044.478-.081l.213-.022v-.015l.184-.015v-.015l.169-.022v-.015h.081v-.015h.081v-.015h.066v-.022h.066v-.015l.155-.015v-.015l.132-.022v-.015l.184-.029v-.015h.044V69.31h.052v-.015l.213-.051v-.015h.037v-.015l.052-.007v-.015h.029v-.015h.052v-.015l.066-.022v-.015h.037v-.015h.044V69.1h.037v-.015l.066-.022v-.015h.029V69.03l.037-.007v-.015h.029v-.015h.037v-.015h.03v-.015l.074-.015v-.022l.265-.118.015-.029h.029l.037-.037h.029v-.015h.037l.015-.029.1-.037.015-.029.066-.022.015-.029.066-.015.015-.037.066-.015.022-.037h.029v-.015h.037l.015-.029h.029l.022-.037h.03l.022-.029h.029l.015-.037h.037l.015-.029h.037l.015-.037h.029l.022-.029h.029v-.022l.052-.015.015-.029h.029l.022-.037.052-.015.029-.052h.037l.029-.052H214l.029-.044h.037l.029-.052h.037l.066-.081h.029l.066-.088h.037l.132-.147h.029l.066-.081.154-.132.015-.051.1-.088V67.22l.066-.052v-.029l.052-.037v-.029l.044-.037v-.029l.037-.022.015-.066.029-.015v-.029l.037-.037v-.029h.015v-.037h.015v-.029h.022V66.7a.877.877,0,0,0,.1-.581v-.1h-.015v-.044h-.015v-.052h-.022v-.052h-.015l-.015-.066h-.015v-.029h-.022v-.037l-.029-.029v-.037l-.037-.015v-.037l-.029-.015v-.029l-.052-.037v-.029l-.1-.088-.118-.132h-.037l-.029-.044h-.037l-.015-.037-.052-.015v-.015l-.066-.022-.015-.029h-.037v-.022h-.029V65.1h-.052v-.022l-.066-.015v-.022h-.052v-.015h-.044v-.015l-.052-.007V65h-.066v-.022h-.066v-.015h-.088v-.015l-.1-.007v-.007h-.132v-.022c-.184,0-.368,0-.552.007v.015h-.162v.015h-.118v.015l-.1.007v.007h-.088V65h-.081v.015h-.066v.015l-.081.007v.007h-.052v.022l-.132.015V65.1l-.169.029v.015l-.044.007v.007l-.052.007v.015l-.1.015v.015h-.029v.015l-.1.022v.015h-.029v.015l-.052.007v.007H211.7v.022h-.044v.015l-.066.022v.007h-.052v.022l-.066.015v.015h-.052v.015h-.029v.022l-.066.015v.015h-.037v.015h-.03v.022h-.037v.015h-.037v.015h-.029v.015l-.265.118-.015.037-.1.029-.015.037-.1.029-.015.037-.066.015-.015.037-.066.015-.022.029-.044.022v.015l-.066.015-.022.029h-.029l-.015.037h-.037l-.015.029h-.037l-.015.037h-.029l-.022.029h-.029l-.015.037h-.037l-.029.052H210l-.015.029h-.037l-.029.051h-.037l-.015.037h-.037l-.015.029-.052.015-.044.074h-.037l-.029.044h-.037l-.029.052h-.037l-.052.066h-.029l-.052.066h-.029l-.074.081h-.029l-.081.1h-.037V66.9l-.044.037-.037.044a5.035,5.035,0,0,0-.647.6,6,6,0,0,0-.633.662l-.147.132v.037l-.052.029-.044.066h-.022v.029h-.015c-.029.044-.066.066-.081.118l-.53-.015a2.072,2.072,0,0,1-.434-.015H206.3l-.419-.022V68.6h-.213v-.015h-.184v-.015H205.3v-.022h-.154V68.53l-.28-.022V68.5h-.132v-.022h-.118c-.184-.051-.419-.059-.6-.11h-.1v-.022h-.088v-.015l-.081-.007v-.007h-.066V68.3h-.081v-.022l-.155-.015V68.25h-.066v-.015h-.066v-.022l-.066-.007V68.2l-.132-.015v-.015l-.228-.052V68.1l-.118-.029v-.007h-.051v-.015h-.052v-.022h-.044v-.015h-.052V68h-.052v-.015h-.052V67.97l-.1-.022v-.015l-.155-.037v-.015H202.2v-.015h-.052v-.015h-.051v-.015l-.03-.007v-.015h-.051V67.8l-.081-.015v-.015l-.037-.007V67.75h-.044v-.015l-.066-.022V67.7h-.052v-.015l-.066-.015v-.015h-.051v-.022l-.1-.029v-.015h-.037v-.022h-.037v-.015h-.029v-.015h-.052v-.015l-.1-.037V67.47h-.029v-.015l-.066-.022-.015-.029-.066-.022v-.015h-.037v-.015h-.029l-.037-.037h-.03l-.022-.029H200.9l-.037-.037h-.029v-.015H200.8l-.015-.029-.066-.015-.015-.037-.066-.015-.015-.037-.074-.015-.015-.029H200.5l-.022-.037-.059-.015-.022-.037h-.029l-.015-.029h-.037l-.015-.037h-.037l-.015-.029h-.037l-.015-.037h-.029l-.022-.029h-.029l-.015-.037h-.037l-.015-.029h-.037l-.029-.051h-.037l-.015-.037h-.03l-.022-.029-.044-.015-.037-.052h-.037l-.029-.051H199.7l-.029-.052h-.029l-.037-.052h-.037l-.029-.044H199.5l-.044-.066h-.037l-.052-.074h-.029l-.015-.029H199.3l-.015-.037h-.029l-.022-.029h-.015l-.015-.037h-.037l-.066-.081h-.029l-.066-.081h-.037l-.066-.081h-.029l-.066-.088h-.037l-.1-.11h-.037l-.081-.1h-.029l-.088-.1h-.029l-.088-.1H198.3l-.1-.118h-.029l-.184-.2a2.284,2.284,0,0,1-.346-.361h-.022l-.044-.066h-.022l.037-.066.029-.022v-.029l.052-.037.015-.044.037-.022V64.35l.029-.015.015-.059h.022v-.029l.03-.015V64.2l.037-.022v-.029l.029-.022V64.1l.037-.015v-.037l.029-.015V64h.022v-.029l.029-.022.037-.1.029-.015.037-.1.029-.015v-.029l.037-.037v-.029h.015v-.037h.015v-.029h.015v-.037h.022v-.037h.015v-.029h.015l.037-.1h.015v-.052h.015l.022-.066h.015v-.052h.015l.022-.066h.015V63.07h.015V63.04h.015l.015-.1h.015V62.9h.022l.162-.559V62.26h.022v-.066h.015v-.1h.015V62h.015l.037-.3v-.155a1.862,1.862,0,0,0,.015-.412v-.169h-.015l-.015-.427h-.022V60.4h-.015v-.118h-.015l-.015-.2h-.022V60h-.015v-.066h-.015v-.066h-.015V59.8h-.022l-.015-.132a2.7,2.7,0,0,0-.846-1.361l-.052-.066h-.029l-.015-.037H197.6l-.015-.029-.066-.015-.015-.037-.073-.015v-.022l-.059-.015v-.015l-.353-.1c-.155,0-.309,0-.464.007v.007h-.081v.022h-.088l-.316.132-.015.037h-.03l-.015.029h-.037l-.265.25v.029l-.051.037v.029l-.052.037V58.6l-.029.022-.022.066-.029.015v.029l-.029.037V58.8h-.015v.037h-.022l-.029.1h-.022v.044h-.015v.037h-.015v.052h-.015V59.1h-.022v.052h-.015v.052h-.015v.044h-.022V59.3h-.015l-.015.118h-.015l-.037.2h-.015l-.1.611-.029.486v.213a2.413,2.413,0,0,0,0,.728l.015.4.132.743.272.795h.015l.015.066h.015V63.7h.022v.051h.007l.037.1h.015v.029h.022v.037h.015v.029h.015v.037h.015v.029l.037.037v.037l.029.015.037.1.029.015v.029h.022v.029h.015l.015.059.037.015v.029l.029.022a.72.72,0,0,0,.132.2v.029l-.317.3-.11.132h-.037l-.015.037h-.022l-.059.081h-.037l-.081.1h-.037l-.081.1h-.037l-.081.1h-.029l-.081.1h-.037l-.081.1h-.037l-.081.1h-.037l-.066.081h-.029l-.066.081h-.037l-.066.081h-.029l-.052.066h-.037l-.059.088h-.037l-.052.066h-.03l-.051.066h-.037l-.015.029-.052.022-.044.066h-.037l-.029.052H193.9l-.029.044h-.037l-.029.052h-.037l-.037.052H193.7l-.015.029h-.037l-.029.052h-.037l-.015.037h-.037l-.029.044h-.037l-.015.037-.052.022v.007h-.029l-.022.037h-.029l-.015.029h-.037l-.015.037h-.029l-.022.029-.044.022v.015l-.073.015-.015.037-.052.022V67.1l-.066.015-.015.037-.066.015-.015.037-.066.015-.022.029h-.029l-.029.037-.037.007V67.3h-.037l-.015.037-.066.022v.007h-.029v.022h-.037l-.03.029h-.037l-.015.037-.066.022v.007H192.3V67.5l-.1.037v.015h-.052v.015l-.1.044v.007h-.037v.015h-.037v.022h-.044v.015H191.9v.015h-.029V67.7h-.037v.022h-.051v.015l-.066.015v.022h-.044v.015l-.037.007V67.8l-.081.015v.022l-.1.015v.015h-.03v.015l-.147.037v.015h-.037v.015l-.147.037V68h-.052v.015h-.052v.015l-.044.007v.015l-.169.029V68.1l-.118.015v.015l-.118.015v.022l-.2.029c-.2.074-.449.1-.662.169l-1.229.177h-.162v.022h-.169v.015h-.2V68.6h-.169l-.044.007v.007h-.272v.022l-.64.015c-.074,0-.228-.022-.272.015h-.375l-.066-.081h-.022v-.037l-.118-.1v-.029l-.125-.118a3.489,3.489,0,0,0-.419-.449l-.1-.118-.044-.037v-.029l-.052-.037-.015-.029a2.148,2.148,0,0,1-.331-.3l-.088-.1h-.029l-.155-.169h-.029l-.1-.118h-.037l-.081-.1H184.3l-.081-.1h-.037l-.044-.074H184.1l-.052-.066h-.029l-.052-.066h-.029l-.022-.029H183.9l-.015-.037h-.037l-.029-.052h-.037l-.029-.044h-.037l-.029-.052h-.037l-.029-.051h-.037l-.015-.037h-.037l-.029-.044h-.037l-.015-.037-.052-.015v-.015h-.029l-.022-.029h-.029l-.015-.037h-.037l-.015-.037-.051-.015v-.015h-.029l-.022-.037h-.029l-.015-.029-.066-.015-.022-.037-.066-.015-.015-.037-.1-.029-.015-.037-.1-.029-.015-.037h-.037l-.029-.029-.037-.007v-.015h-.029v-.015h-.037v-.015h-.037v-.015l-.029-.007v-.015h-.03v-.015h-.037v-.015l-.037-.007v-.007l-.059-.022v-.015h-.037v-.015l-.052-.007v-.007l-.066-.022V65.41h-.052V65.4l-.066-.015v-.022l-.625-.213h-.066c-.088-.029-.2-.059-.287-.081h-.1v-.022h-.1v-.015h-.118v-.015l-.162-.007V65h-.567v.015h-.147v.015l-.118.007v.007h-.081v.022h-.066v.015h-.066V65.1h-.066v.007l-.155.044v.007l-.029.007v.015h-.052V65.2l-.1.029v.022h-.037v.015h-.029v.015l-.1.037-.015.029-.066.015-.037.052h-.029l-.037.051h-.029l-.066.081h-.037l-.015.037-.1.081v.029l-.081.066v.037l-.029.015-.022.052h-.015V65.9l-.029.015a.86.86,0,0,0-.052.611ZM209,68.53h.015l.015-.052.037-.015v-.029l.051-.037v-.029l.066-.052v-.037l.044-.029v-.037l.074-.044v-.037l.081-.066v-.037l.081-.059v-.037l.1-.081v-.037l.133-.118a3.155,3.155,0,0,1,.375-.4l.2-.213h.037l.1-.118h.037l.066-.081h.029l.052-.066h.037l.052-.066h.029l.037-.051h.029l.037-.052h.029l.015-.029h.037l.015-.037h.037l.015-.029h.03l.022-.037.029-.007v-.007h.037l.015-.029.066-.022.015-.029h.037l.029-.037.037-.007v-.007h.029l.022-.037.066-.022v-.007l.066-.015v-.022h.052v-.015l.1-.037V66.2h.029V66.19l.088-.015v-.022h.029v-.015h.052v-.015h.029v-.015l.154-.029v-.022h.03v-.015l.169-.037v-.015h.052v-.015h.044v-.015h.066V65.94h.066v-.015h.074V65.91h.066V65.9h.081a2.49,2.49,0,0,1,1.3-.037H214v.015h.029V65.9h.052v.015h.037v.015h.03v.015h.037l.015.037.029.007v.007l.066.052v.037h.015l.037.074a.429.429,0,0,1,0,.272h-.015v.029h-.022l-.015.081-.029.022-.015.066-.052.029v.037l-.052.037v.029l-.235.213-.081.1h-.037l-.059.081H213.7l-.052.066-.044.015-.022.037h-.029l-.015.029H213.5l-.029.052h-.037l-.015.037-.051.022v.007l-.066.015-.015.037-.066.015-.022.037-.066.015-.015.029h-.03l-.037.037-.029.007v.007h-.037v.015h-.029v.022h-.037v.015h-.029v.015h-.037V67.7h-.029v.022h-.037v.015h-.029v.015l-.066.022v.015l-.037.007V67.8H212.6v.015l-.066.022v.015h-.044v.015h-.037v.015H212.4V67.9h-.03v.022h-.052v.015h-.037v.015l-.1.022v.015h-.037V68l-.147.037v.015h-.052v.015h-.044v.015h-.052V68.1l-.169.029v.015l-.118.022v.015l-.177.029v.022l-.132.015c-.191.066-.427.088-.618.147l-.2.022c-.154.044-.368.051-.53.1h-.132v.015l-.133.007v.007H209.5v.022h-.162a1.167,1.167,0,0,1-.368.029Zm-5.842,9.345-.022.184h-.015c-.066.434-.133.861-.2,1.3a.909.909,0,0,1-.25-.081l-.147-.037v-.015l-.1-.015v-.022h-.044v-.015l-.051-.007v-.007h-.052V79.14l-.162-.044v-.007l-.169-.029v-.022l-.066-.007v-.007h-.052v-.015h-.066v-.022H201.7c-.243-.081-.53-.132-.78-.213h-.081v-.015h-.066v-.022h-.088v-.015H200.6v-.015h-.081v-.015l-1.192-.184h-.132v-.015h-.169V78.47h-.147v-.015l-.581-.029V78.4l-.331-.015H197.8c-.088-.022-.236.015-.331-.015V78.36h-.3l-.427-.022v.022h-.552v.015h-.346v.015h-.287V78.4h-.228v.022h-.213v.015h-.184v.015h-.184v.015h-.169v.022h-.147v.015h-.147c-.191.051-.434.044-.611.1l-.221.022c-.081.022-.2.037-.28.066h-.088v.015l-.243.029c-.221.074-.486.11-.7.184l-.316.066v.022c-.074.015-.155.029-.235.052v.015l-.162.029v.022h-.051v.015h-.052v.015h-.044v.015l-.169.037v.015h-.051v.015l-.044.007v.007h-.051v.022h-.052v.015h-.052V79.3h-.044a.478.478,0,0,1-.154.052l-.066-.53h-.015v-.118h-.015v-.1h-.022v-.1h-.015v-.1l-.162-.861.383-.184h.044v-.015l.066-.015v-.015h.052v-.022l.037-.007v-.007h.044v-.015h.052v-.022h.029v-.015l.1-.015V77.2h.029v-.022l.155-.029v-.015h.029v-.015l.155-.037v-.015h.044V77.05h.052v-.022h.052v-.015h.051V77h.044v-.022l.221-.044v-.015l.066-.015V76.9h.051v-.015h.044v-.015l.118-.022v-.015l.184-.037v-.015l.066-.007v-.007l.2-.029v-.022h.066V76.7h.066v-.015h.066v-.015L193,76.66v-.015c.4-.074.809-.155,1.214-.228l.228-.015c.162-.051.375-.037.537-.088h.162V76.3h.169v-.015l.214-.007v-.015l.567-.015a1.862,1.862,0,0,1,.36-.015h.684a1.565,1.565,0,0,1,.331.015c.1.029.243-.007.331.015h.235v.022h.213V76.3l.169.007v.007h.162v.022h.147v.015h.14v.015H199c.132.037.309.044.449.081h.11c.221.066.486.081.7.147l.169.022v.015l.28.052V76.7h.066v.015h.066v.022h.066v.015h.066c.191.066.412.11.6.184l.287.066v.015h.044v.015h.052v.022H202v.015h.052v.015h.044v.015l.1.022v.015h.029v.015h.052v.015l.052.007v.007l.051.007V77.2h.044v.015h.037v.015l.1.015v.022h.037v.015h.052v.015h.029v.022l.1.015v.015l.066.022v.015h.052V77.4h.029v.015h.052v.015l.066.022v.015h.037v.015h.044v.015l.1.037A1.6,1.6,0,0,1,203.161,77.874Zm-7.292-16.1-.029-.213a2.531,2.531,0,0,1-.066-.979V60.3h.015v-.169h.015V60h.022l.015-.213h.015V59.7h.015v-.066h.022v-.066h.015V59.5h.015V59.45h.022v-.066h.015v-.029h.015l.015-.1h.022l.015-.066h.015v-.052l.03-.015.037-.1.037-.022v-.029l.162-.2h.037l.03-.052h.037l.015-.029.029-.007V58.67l.066-.015V58.64l.1-.015V58.6h.1v-.015a1.224,1.224,0,0,1,.434.066l.081.015.022.037h.029l.015.029h.037l.037.052.081.066v.037l.052.029v.037l.029.015.037.1h.015V59.1h.015v.052h.015v.029h.022v.051h.015v.037h.015v.059h.015v.052h.022v.066h.015v.066h.015V59.6h.015v.081h.015v.1h.022v.11h.015v.147h.015v.221c.029.1-.007.265.022.361a1.207,1.207,0,0,1,.015.368h-.015v.25h-.022v.132H197.8v.1h-.015v.1h-.022v.081l-.162.581h-.015v.037h-.015l-.022.1h-.015v.037h-.015v.051H197.5l-.022.066h-.015v.044h-.015v.037h-.022l-.015.066H197.4v.052h-.015l-.037.1h-.015v.037h-.015l-.037.1-.029.022V63l-.037.037v.029H197.2v.037l-.037.015-.029.1-.037.022-.015.066-.03.015v.037l-.037.015-.015.066-.037.015c-.044.066-.066.155-.132.206v.007h-.015l-.037-.044h-.015v-.037l-.03-.015v-.037l-.037-.015v-.037l-.029-.015v-.029l-.037-.015v-.037l-.029-.015-.015-.066-.037-.022-.015-.044h-.022l-.029-.1-.037-.015v-.037h-.015v-.029l-.029-.015V63l-.037-.029v-.037h-.015V62.9l-.037-.015v-.029l-.029-.037V62.79h-.015v-.037h-.022v-.029h-.015v-.037h-.015l-.037-.1h-.015V62.54h-.015V62.5h-.015l-.022-.066H196.1v-.044h-.015v-.037h-.022Zm-8.844,7.969.316-.015v-.022h.184v-.015h.147v-.015h.147v-.015h.132v-.022h.132c.1-.029.25-.037.353-.066l.213-.015v-.015l.2-.015c.191-.059.419-.081.6-.132l.088-.007v-.015h.081v-.015h.066v-.015h.066v-.015h.081V69.31h.066v-.015h.066V69.28h.066v-.022h.066v-.015h.066v-.015h.052v-.015l.132-.022v-.015l.235-.052v-.015l.169-.037v-.015h.044v-.015h.052V69.03l.052-.007v-.015h.052v-.015h.066v-.015h.044v-.015l.051-.007v-.007h.052v-.022h.044v-.015h.037V68.9l.052-.007v-.007h.051v-.022h.044v-.015h.051v-.015l.037-.007v-.015l.1-.015V68.78l.037-.007v-.007l.1-.022v-.015h.037v-.015l.044-.007V68.7h.037v-.022h.052v-.015l.081-.022v-.007h.029v-.022h.052V68.6h.037v-.015h.051v-.015l.066-.022V68.53h.044v-.015l.066-.015v-.022h.037v-.015h.052v-.015l.1-.029V68.4l.037-.007v-.007l.052-.007v-.007h.029v-.022l.066-.022v-.007h.037V68.3h.029v-.022h.029v-.015h.037V68.25l.066-.015v-.022l.066-.015v-.015l.066-.015v-.022l.066-.022v-.007h.037V68.1h.029v-.022l.037-.007v-.007h.03l.037-.037.066-.015.015-.029h.029l.037-.037h.037v-.015h.029v-.015h.037l.015-.037h.029v-.015l.066-.015.022-.037.1-.029.015-.037.074-.015.015-.037h.029v-.015h.037l.015-.029.066-.022.015-.029.052-.015v-.022l.066-.015.015-.029.052-.022v-.015l.066-.015v-.015l.052-.022.015-.029h.037l.015-.037.052-.015v-.015h.029l.015-.037h.037l.015-.029.052-.022v-.015h.029l.022-.029h.03l.037-.052h.029l.022-.037.044-.015v-.015h.037l.029-.052h.037l.029-.052h.037l.015-.029h.037l.015-.037.052-.015.029-.052h.037l.015-.029.052-.015.029-.052h.037l.044-.066.052-.015.022-.037h.029l.052-.066h.037l.044-.066h.029l.052-.066h.037l.066-.081h.029l.066-.088h.037l.081-.1h.037l.081-.1h.03l.1-.118h.037l.11-.14h.037l.015-.029h.015l.132-.147h.037l.015-.037.147-.132.037-.051h.03c.051-.029.073.037.1.066l.066.052v.015h.037l.132.155.044.029v.015h.037l.132.155h.037l.1.11h.037l.1.118h.037l.081.1h.029l.066.081h.037l.066.081h.029l.066.088h.037l.052.066h.029l.037.052h.029l.052.066h.037l.015.029h.015l.015.037h.037l.037.044h.029l.029.052h.037l.037.052h.029l.029.052.052.015.015.029h.037l.015.037h.037l.029.052h.037l.015.029h.037l.029.051h.03l.022.037.052.015v.015h.029l.015.029h.037l.015.037.052.015v.015h.029l.022.037h.03l.015.037h.037l.015.029h.037l.015.037h.029l.022.029h.029l.022.037.059.015.022.029h.029l.015.037.073.015.015.037.066.015.015.029.066.022.015.029.066.022.022.029.1.037.015.029h.037l.029.029h.037v.022h.029l.022.029h.029l.037.037.1.029.022.037h.029l.037.029h.029V68.1h.029v.015h.037v.015h.029v.015h.037v.022h.037v.015h.03V68.2h.029v.015h.037v.022h.029v.015l.074.015v.015l.066.022v.015l.066.015v.015l.03.007v.015h.051v.015l.1.037v.015h.029v.015h.052v.015l.029.007v.007h.037V68.5h.029v.015h.052v.015l.066.015v.022h.052v.015l.066.022v.007h.052v.022h.029v.015h.052v.015l.081.015V68.7h.037v.015h.052v.015h.029v.015l.1.022v.015h.029v.015l.1.015v.022h.029v.015l.052.007v.007h.052v.022h.044V68.9h.052v.015h.052c.265.11.567.184.846.28h.066v.022h.066v.015l.066.007v.007h.066v.015h.052v.022l.147.015v.015h.066v.022h.066v.015l.066.007v.007l.147.015V69.4l.25.029v.015l.25.044v.007h.1v.015h.081v.022h.1v.015l.1.007v.007h.118c.132.044.324.044.464.081h.132c.184.052.434.029.618.088.066.015.169-.022.214.015h.081l-.029.052h-.015v.029l-.037.015v.037l-.052.029v.037l-.044.037v.029l-.037.015v.037l-.052.029v.037l-.03.015v.037l-.051.029v.037l-.037.015-.015.052h-.015v.029l-.052.037v.029l-.037.015-.015.052h-.015v.037l-.029.015v.029l-.037.022V70.6l-.037.015v.037l-.029.015-.022.052h-.015v.029l-.029.022V70.8l-.037.015v.037l-.029.015v.037l-.037.015-.015.066-.029.015v.037l-.037.015v.037l-.029.015-.022.066-.029.015-.022.051h-.015l-.015.066-.037.015-.015.066-.029.015-.022.074-.029.015-.015.066-.037.015-.015.066-.029.015-.037.1-.03.015-.037.1a14.618,14.618,0,0,0-.949,1.891v.051h-.015v.044h-.015v.037h-.015v.052h-.022l-.015.1c-.147.339-.235.728-.368,1.082v.066h-.015l-.029.184h-.022l-.029.177h-.015V75.6h-.022l-.015.132c-.037.125-.074.28-.118.4v.088h-.015v.066h-.015c-.022.052,0,.088-.037.132v.015l-.147-.052v-.015l-.081-.022v-.007h-.037v-.022h-.051V76.3l-.059-.022v-.015h-.051v-.015h-.037v-.015h-.052v-.015l-.029-.007V76.2h-.052v-.015h-.029v-.015l-.052-.007v-.007h-.037V76.13l-.1-.015V76.1l-.037-.007v-.015h-.052v-.015h-.029V76.05h-.052c-.316-.132-.677-.243-1.008-.368H201.4v-.015l-.221-.052V75.6h-.044v-.015h-.052v-.015l-.235-.051v-.015l-.133-.022c-.177-.059-.4-.1-.581-.162l-.147-.015c-.191-.066-.419-.1-.618-.155l-.177-.015v-.015l-.2-.015c-.169-.051-.383-.051-.552-.1h-.132V74.99h-.147v-.022H198v-.015h-.162v-.015l-.515-.015a1.478,1.478,0,0,0-.368-.022,3.235,3.235,0,0,0-.714.022c-.1,0-.2,0-.294.007v.007h-.221c-.184.052-.434.029-.611.081l-.25.022-1.03.177v.022l-.147.015v.015H193.6v.015h-.066v.022h-.066v.015h-.081v.015l-.331.066v.015h-.066v.022h-.066v.015h-.066v.015h-.066v.015l-.184.037v.015l-.118.015v.022l-.118.015V75.6l-.11.015v.022H192.2v.015h-.052v.015h-.066v.015h-.052V75.7h-.052v.015h-.044v.015l-.052.007v.015h-.066v.015l-.1.015V75.8l-.044.007v.007h-.052v.022h-.052v.015h-.052v.015l-.044.007v.007h-.052V75.9l-.147.037v.007h-.037v.022h-.052v.015l-.044.007V76h-.052v.015h-.052v.022h-.03v.015l-.1.015v.015h-.052V76.1h-.029v.015l-.052.007v.007h-.052v.022H190.7v.015h-.051v.015h-.03V76.2l-.1.022v.015l-.081.015v.015h-.037v.022h-.051V76.3l-.03.007v.007l-.2.066a1.569,1.569,0,0,0-.088-.331v-.081h-.015V75.9H190v-.066h-.015V75.77h-.022V75.7h-.015v-.052h-.015l-.037-.2c-.044-.147-.1-.324-.147-.464v-.066h-.015v-.052h-.015v-.051H189.7v-.066h-.015V74.7h-.015v-.044h-.015v-.051h-.022v-.052h-.015V74.5H189.6v-.066h-.015l-.022-.1h-.015v-.037h-.015l-.022-.1H189.5v-.052h-.015v-.052h-.015v-.044h-.022v-.051h-.015v-.037h-.015l-.015-.1h-.022v-.029h-.015v-.051h-.015v-.029h-.015l-.022-.1H189.3v-.029h-.015v-.051h-.015l-.022-.066h-.015v-.052h-.015l-.015-.066h-.022v-.051h-.015l-.015-.066h-.015v-.029h-.022v-.052H189.1l-.029-.1h-.022v-.037h-.015v-.029h-.015V73H189v-.044h-.022v-.037h-.015l-.015-.066h-.022v-.037h-.015v-.029H188.9v-.037h-.015v-.029h-.022V72.68h-.015V72.65h-.015v-.037h-.015v-.029l-.037-.037v-.029l-.029-.022v-.029l-.037-.037V72.4H188.7v-.037h-.015v-.029h-.022l-.029-.1-.037-.015v-.029l-.03-.037-.015-.066-.037-.015v-.037L188.489,72v-.037h-.022v-.029l-.029-.022-.037-.1-.029-.015-.015-.066-.037-.022-.015-.066-.037-.015-.029-.1-.037-.022v-.029h-.015v-.037l-.037-.015-.015-.052h-.015l-.015-.066-.037-.015v-.037h-.015v-.029l-.037-.015L188,71.171h-.015l-.015-.066-.037-.015v-.037l-.029-.015V71l-.037-.015v-.029l-.029-.022-.022-.066-.029-.015v-.037l-.037-.015v-.029l-.029-.022v-.029l-.037-.015v-.037h-.015l-.015-.052-.037-.015v-.029l-.044-.037v-.029l-.037-.022v-.029l-.037-.015v-.037H187.5l-.022-.051-.037-.015V70.31l-.044-.037v-.029l-.037-.022v-.029l-.052-.037v-.029l-.029-.015v-.037l-.052-.029v-.037l-.029-.015v-.037l-.052-.029v-.037l-.051-.029c-.029-.044-.029-.074-.066-.1Zm-7.586-3.422h.015v-.029l.037-.022a.974.974,0,0,1,.581-.346l.2-.015V65.9c.066-.022.14.015.184-.022a3.666,3.666,0,0,1,2.208.684l.052.066h.029l.066.081a4.8,4.8,0,0,1,.449.412,5.249,5.249,0,0,1,.581.633l.1.088v.029l.081.066v.037l.066.044v.037l.066.052v.029l.066.052v.029l.066.051V68.3l.03.015.022.052.066.052v.029l.052.029a.249.249,0,0,0,.066.1V68.6a1.27,1.27,0,0,1-.3-.029h-.169v-.022h-.132V68.53h-.147v-.015l-.118-.007V68.5h-.132c-.147-.044-.346-.059-.5-.1l-.177-.022v-.007l-.169-.022v-.015l-.147-.015V68.3h-.066v-.022H182.4v-.015l-.221-.029-.927-.3v-.015h-.029V67.9h-.052v-.015h-.037v-.015h-.044v-.015l-.066-.022v-.015h-.052V67.8h-.037v-.015l-.066-.022V67.75h-.029v-.015H180.8V67.72l-.029-.007V67.7h-.037v-.015h-.03v-.015h-.037v-.015h-.029v-.022H180.6v-.015h-.029l-.037-.029h-.029l-.022-.037-.1-.029-.015-.037h-.037V67.47h-.03v-.015l-.052-.022-.022-.029H180.2v-.015l-.052-.022-.015-.029H180.1l-.029-.052h-.037l-.015-.037h-.03l-.052-.059H179.9l-.044-.074h-.037l-.133-.147-.118-.1v-.037l-.052-.029-.015-.066-.029-.015v-.052h-.022v-.037h-.015A.578.578,0,0,1,179.438,66.322Z" transform="translate(-169.946 -57.956)" fill="#fff"/>
    <path id="Path_49058" data-name="Path 49058" d="M187.792,84.325h-.022v-.25h-.015v-.2h-.015v-.2h-.015v-.162h-.015v-.191h-.022v-.147h-.015l-.015-.316h-.015v-.132h-.022v-.147c-.051-.2-.044-.449-.1-.648l-.022-.25c-.044-.169-.044-.39-.1-.567v-.11c-.044-.162-.052-.375-.1-.53v-.118h-.015l-.029-.3c-.081-.272-.088-.611-.169-.876v-.1h-.015v-.1h-.022v-.1h-.015V78.8h-.015v-.1h-.015v-.081h-.022v-.1h-.015v-.1h-.015v-.081h-.015v-.1c-.052-.162-.066-.368-.118-.53v-.1c-.03-.1-.052-.243-.081-.346v-.1c-.11-.353-.125-.765-.235-1.118v-.1c-.03-.1-.052-.235-.081-.331l-.1-.6c-.1-.316-.118-.706-.213-1.023v-.1c-.022-.081-.044-.2-.066-.28v-.1c-.037-.118-.052-.28-.081-.4v-.1c-.052-.162-.052-.375-.1-.537l-.015-.228c-.073-.258-.059-.581-.132-.831v-.132c-.074-.243-.052-.559-.118-.795l-.015-.3c-.066-.221-.037-.522-.1-.751V69.27h-.015V69.1h-.015v-.162h-.022V68.77h-.015v-.184H185.4V68.41h-.015v-.184h-.022v-.184h-.015l-.029-.6H185.3v-.2h-.015v-.221h-.015V66.8h-.015v-.221h-.022v-.243h-.015v-.169l-.015-.331h-.015l-.022-.53h-.015v-.184l-.015-.412h-.015c-.029-.1.007-.235-.022-.316v-.353h-.015l-.015-.544v-.235a2.029,2.029,0,0,1-.022-.375V62.81h-.015v-.478c-.007-.132-.015-.324-.015-.478v-.235A2.359,2.359,0,0,1,185,61.1h-1.876c0,.412-.015.824-.037,1.214v.464h-.015v.051a2.3,2.3,0,0,1-.015.4v.4h-.015v.383h-.022c-.022.1.007.243-.015.331v.331h-.015v.3h-.015v.28h-.022v.184l-.015.368h-.015l-.015.493h-.022v.235h-.015v.228h-.015v.213h-.022V67.2h-.007v.213h-.022v.2H182.8v.206h-.015v.177h-.015l-.037.567h-.015v.162h-.022V68.9h-.015v.169h-.015v.162h-.015v.155h-.022v.162h-.015V69.7H182.6v.155h-.022v.169h-.015v.132c-.059.206-.037.486-.1.692l-.022.265c-.059.228-.044.522-.11.75v.118c-.074.235-.066.537-.133.78v.118c-.037.118-.051.287-.088.412v.1H182.1v.088h-.015v.1h-.015v.1h-.022v.1h-.015v.088h-.015v.1H182v.1h-.022l-.029.265c-.088.287-.11.64-.2.927l-.088.515c-.029.1-.051.235-.081.331v.1h-.015l-.037.25c-.088.294-.1.655-.2.957v.1c-.029.1-.052.243-.081.346-.029.221-.066.434-.1.647-.073.228-.081.522-.155.751v.1h-.015v.1h-.015v.1h-.015v.1c-.029.088-.044.213-.074.294v.1c-.022.088-.037.213-.066.3v.11c-.029.125-.044.294-.081.419l-.015.228c-.059.206-.059.478-.118.684l-.015.25c-.059.2-.044.464-.1.662v.147h-.015v.14h-.015v.162h-.015V83.3h-.022v.184H180.4v.162h-.015v.184h-.022v.213h-.015v.221h-.015v.265h-.015l-.022.581v.228a3.374,3.374,0,0,0,0,.721l.022.611h.015v.2h.015v.147h.015v.132h.022v.118h.015v.118c.022.081.044.191.066.265v.081h.015v.066h.022v.066h.015v.066h.015v.066h.015v.066h.022v.052h.015v.066h.015v.052h.015v.051h.015v.052h.022l.015.1h.015v.029h.022l.029.155h.015v.029h.022v.051h.015v.037h.015v.044h.015v.037h.022v.052h.015l.015.066h.015v.051h.022l.015.066h.015v.051h.022l.029.1H181v.037h.015v.029h.022v.051h.015l.037.1h.015v.037h.015v.029h.015v.037h.022v.029h.015v.037h.015V89.6h.015v.037h.022v.029h.015V89.7l.029.029v.037l.037.015.015.066h.015v.037h.022v.029l.029.037v.029l.029.015v.037l.037.029.015.066.037.022.029.1.037.015.037.1.029.015.015.066.037.015.015.074.029.015.022.066.029.015.015.066.037.015.015.066.037.022.015.044h.015l.022.074.029.015v.029l.037.015v.037l.029.015.015.066.037.022v.029l.029.015V91.2l.037.015v.029l.029.022v.029l.037.022v.029l.029.015V91.4l.037.015v.029l.037.022v.029l.029.022v.029l.029.015v.037l.037.015v.037h.015l.015.044.037.022v.029l.052.037v.029l.029.015.015.052h.022v.037l.052.029v.037l.029.015.015.051h.022v.029l.052.037v.037l.029.015v.029l.044.037.022.044.029.022v.029l.037.022v.029l.051.037v.029l.044.029v.037l.052.037v.029l.052.037v.029l.052.037v.029l.051.037v.029l.044.037v.029l.066.051v.029l.051.037v.029l.052.037v.029l.029.022v.015l.037.015v.037l.066.044v.037l.066.051V93.3l.066.052v.037l.066.044v.037l.066.044v.037l.081.066v.037l.037.015.081.118h.052l.015-.051.081-.066v-.037l.088-.066v-.029l.066-.052v-.029l.066-.052v-.037l.066-.051v-.029l.066-.051v-.029l.066-.052v-.037l.066-.044v-.037l.044-.029v-.037l.073-.051V92.89l.044-.037.022-.044.029-.022v-.029l.052-.037v-.029l.052-.037v-.029l.044-.037v-.029l.052-.037v-.029l.051-.037v-.029l.052-.037.015-.044.029-.022v-.029l.037-.022v-.029l.052-.037v-.029l.029-.015v-.037l.052-.029v-.037l.029-.015v-.037l.051-.029v-.037l.037-.015V91.9l.052-.037v-.037l.029-.015v-.029l.037-.015v-.037h.015l.015-.051.037-.015v-.037l.044-.029v-.037l.037-.015.015-.051h.022v-.029l.029-.022v-.029l.029-.015.022-.052h.015v-.029l.029-.022v-.029l.037-.022.015-.066.037-.015v-.029l.029-.015V91.08l.037-.015v-.037l.029-.015.022-.066h.015l.015-.051.03-.015v-.037l.037-.015V90.8h.015v-.037l.037-.015.015-.066.029-.015.022-.066.029-.022.022-.066.029-.015.015-.066.037-.015.015-.066.037-.022.029-.1.037-.015v-.037l.029-.029v-.037l.037-.015v-.037l.029-.029V90h.022v-.029l.029-.015.118-.265.029-.022.037-.1h.015v-.037h.015v-.029h.015l.037-.1h.015v-.051h.015l.037-.1h.015v-.029h.022v-.037h.015v-.037h.015v-.044h.015v-.037h.022v-.029h.015V89h.015v-.051h.015l.022-.066h.015v-.051h.015v-.029h.015v-.051h.022v-.029h.015v-.052h.015v-.037h.015v-.044h.022v-.037h.015l.029-.147h.022v-.052h.015v-.051h.015v-.044h.015V88.21h.022v-.052h.015v-.051h.015v-.066h.015v-.051h.022v-.066h.015v-.066h.015v-.066h.022l.015-.162h.015l.015-.169h.022v-.1h.015v-.118h.015v-.118h.015l.037-.493h.015v-.272h.015v-.89a2.265,2.265,0,0,0-.015-.552Z" transform="translate(-157.234 -37.947)" fill="#fff"/>
    <path id="Path_49059" data-name="Path 49059" d="M199.24,84.356v.007h-.486a1.914,1.914,0,0,1-.648,0h-.427v-.015h-.272v-.015l-.2-.007v-.007l-.162-.007V84.3h-.132v-.015h-.132v-.015h-.118c-.11-.037-.272-.052-.383-.081H196.2v-.022h-.066V84.15h-.066v-.015L196,84.128v-.007h-.073V84.1h-.059v-.015h-.052v-.015l-.066-.007v-.015l-.147-.037V84h-.051v-.015H195.5v-.022h-.052v-.015H195.4v-.015l-.044-.007v-.015H195.3V83.9l-.213-.044v-.022h-.066v-.015l-.052-.007V83.8h-.052V83.79h-.066c-.339-.125-.721-.221-1.045-.353l-.3-.081v-.022h-.03v-.015h-.051V83.3l-.1-.015v-.015H193.3v-.022h-.052v-.015l-.1-.015v-.015h-.037v-.022h-.052v-.015h-.029v-.015h-.052v-.015l-.029-.007V83.12l-.052-.007v-.007l-.081-.015v-.022h-.037v-.015h-.052v-.015H192.7v-.015h-.052V83l-.066-.015v-.015h-.052v-.015l-.066-.022v-.015h-.052v-.015l-.1-.037v-.015h-.037V82.84h-.044v-.022l-.1-.029v-.015H192.1v-.022h-.029v-.015h-.052v-.015h-.029v-.015l-.066-.022v-.015h-.037v-.015h-.029v-.015h-.037v-.015h-.029v-.022h-.037V82.59h-.03v-.015h-.037v-.015h-.029v-.022h-.037l-.029-.029h-.037l-.015-.037H191.5l-.029-.029-.037-.007v-.015H191.4v-.007h-.037l-.029-.037H191.3l-.015-.037-.1-.029-.022-.037-.1-.029-.015-.037-.1-.029-.015-.037-.066-.015-.022-.037h-.029v-.015h-.029l-.022-.029-.052-.022v-.015l-.066-.015-.015-.037h-.03l-.022-.029-.066-.022-.015-.029h-.029l-.022-.037h-.029l-.022-.029h-.029l-.015-.037h-.037l-.015-.029h-.037l-.015-.037h-.029v-.015l-.052-.015-.015-.037h-.037l-.029-.044h-.037l-.015-.037h-.037l-.03-.051h-.037l-.015-.029h-.03l-.022-.037-.052-.015-.029-.052h-.037l-.029-.044H189.7l-.037-.051h-.037l-.044-.066-.051-.015-.015-.037h-.037l-.015-.037h-.015l-.022-.029H189.4l-.052-.066h-.029l-.037-.052h-.015l-.015-.029h-.037l-.081-.1h-.037l-.081-.1a5.3,5.3,0,0,1-.6-.552,3.206,3.206,0,0,1-.412-.427l-.191-.169v-.029l-.132-.118v-.037l-.1-.081V79.3l-.1-.081v-.029l-.074-.051V79.1l-.081-.066v-.029l-.066-.051v-.037l-.066-.044v-.037l-.029-.015-.022-.052-.066-.051v-.029l-.052-.037v-.029l-.044-.037v-.029l-.052-.037v-.029l-.052-.037v-.029l-.029-.015v-.037l-.052-.037v-.029l-.029-.015v-.037l-.052-.029V78.19l-.037-.015-.015-.052h-.015v-.029l-.052-.037v-.037l-.037-.015-.015-.044h-.015v-.037l-.037-.015v-.037l-.029-.015-.015-.052h-.022v-.029l-.03-.015v-.037l-.037-.015-.015-.066-.029-.015v-.037l-.037-.015v-.037l-.037-.015-.015-.066-.029-.015-.022-.052h-.015v-.029h-.015v-.037l-.037-.015-.015-.066-.029-.022-.015-.066-.037-.015-.015-.066-.037-.015-.029-.1-.037-.015-.029-.1-.037-.022-.029-.1-.037-.022-.015-.066h-.022v-.029h-.015v-.029l-.03-.037v-.037l-.037-.015v-.029l-.029-.037V76.4h-.015v-.037h-.022v-.029h-.015V76.3h-.015V76.27h-.022v-.037h-.015V76.2h-.015v-.037H185.5V76.13h-.022l-.015-.059h-.015L185.429,76h-.015v-.037h-.022v-.051h-.015l-.037-.1h-.015v-.037h-.015v-.029H185.3v-.037h-.022v-.052h-.015l-.015-.066h-.015v-.029h-.022v-.051h-.015l-.015-.066h-.015V75.4h-.022l-.015-.066h-.015v-.044H185.1l-.022-.066h-.015v-.052h-.015v-.037h-.015v-.051h-.022v-.029h-.015V75h-.015l-.015-.081h-.022v-.037h-.015v-.051h-.015v-.029H184.9l-.022-.1h-.015v-.029h-.015v-.051h-.015v-.029h-.022v-.052H184.8l-.015-.1h-.022v-.029h-.015v-.052h-.015l-.015-.1h-.022v-.029h-.015V74.18h-.015v-.059h-.015v-.044h-.022v-.052h-.015v-.051H184.6v-.052h-.015v-.044h-.015l-.022-.1c-.118-.3-.2-.662-.316-.979V72.73h-.015l-.015-.118h-.015v-.066h-.022V72.48h-.015v-.044h-.015l-.037-.206c-.059-.184-.1-.412-.162-.6v-.081h-.022v-.066H183.9v-.066h-.015V71.34h-.015v-.066h-.015l-.022-.155h-.015l-.015-.162c-.1-.28-.11-.633-.2-.92v-.1c-.037-.118-.052-.265-.088-.383v-.1c-.029-.118-.044-.28-.081-.4v-.11c-.052-.169-.052-.39-.1-.567v-.132c-.059-.191-.052-.449-.1-.648v-.132h-.015v-.147h-.015v-.155h-.022v-.147h-.015v-.169h-.015v-.162h-.015l-.037-.515h-.015v-.2h-.015v-.2h-.022v-.213h-.015v-.221h-.015v-.25h-.015v-.265h-.022v-.28h-.015v-.316l-.015-.029v-.316h-.022v-.449h-.015v-.567a2.332,2.332,0,0,1-.015-.559V61.193h-1.714v.3h.022c.029.1-.007.258.015.346s-.007.25.015.331v.184l.015.383h.022V63h.015v.169l.015.331h.022v.25h.015v.213h.015V64.2h.015v.177l.022.037v.2h.015l.015.419h.015v.177h.022v.2h.015v.184h.015v.184h.015v.184h.022v.169h.015l.029.508h.022v.169h.015v.162h.015v.155h.015v.162h.022v.147h.015v.155h.015v.147c.059.213.037.5.1.714l.015.28c.066.235.052.552.118.787v.132c.052.177.044.412.1.6v.132c.052.169.052.39.1.559v.118c.03.088.037.228.066.316v.118c.022.088.037.213.066.3v.11h.015l.015.2c.081.272.088.6.169.868v.1c.022.074.044.191.066.265v.1c.088.287.11.64.2.927l.029.25c.052.147.074.324.118.464l.022.169h.015l.015.147h.015l.022.147h.015V75.6h.015v.066h.022v.088h.015l.052.28c.118.353.169.765.294,1.111l.015.132h.022v.066h.015l.029.184h.022v.052h.015l.015.132h.015l.066.28h.022l.015.118h.015l.037.169h.015l.015.11h.015v.052h.022v.052h.015v.051h.015v.044h.015v.066h.022l.015.1h.015l.022.1h.015V78.9h.015v.052h.015v.051h.015v.052h.022V79.1h.015v.052h.015v.051h.015v.052H184V79.3h.015v.037h.015l.015.1h.022v.037h.015l.015.1h.022V79.6h.015v.052h.015v.052h.015l.022.066h.015v.044h.015v.037h.015V79.9h.022v.029h.015v.052h.015l.015.066h.022V80.1h.015v.029h.015v.052h.015l.022.066h.015v.037h.015v.044h.015l.037.1h.015l.015.081h.022v.029h.015l.015.066h.022v.037h.015v.037h.015v.029h.015v.037h.015l.022.066h.015l.03.1h.022v.037h.015v.029h.015v.037h.015v.029h.022v.037h.015l.015.066h.022l.015.066h.015l.037.1.029.022v.029l.037.029v.037h.015v.037h.015v.029l.037.015.029.1.037.015v.037l.029.029v.037l.037.015.015.066.029.015.022.066.029.015.015.074.037.015.015.066.037.015V82.1h.015v.037l.037.015v.037l.029.015v.037l.029.015.022.066.029.015v.037l.037.015v.029l.029.022v.029l.037.015v.037l.029.015v.037l.037.015v.037h.015l.015.044.037.015v.037l.052.029v.037l.029.015.015.052h.022v.029l.044.037.022.051.029.015v.037l.037.015v.029l.03.022.022.052.044.029v.037l.052.029v.037l.066.044.015.052.037.015v.037l.066.044V83.5l.066.052v.029l.03.022v.015l.037.015v.037l.081.066v.029l.081.066v.037l.1.081a6.139,6.139,0,0,0,.765.809,3.439,3.439,0,0,0,.478.449l.1.118h.029l.066.088h.037l.066.081h.029l.066.081h.037l.044.066h.037l.015.037.051.015.052.066h.029l.037.044h.029l.037.051h.029l.037.052h.029l.022.029h.03l.037.052h.029l.022.037h.029l.037.051h.029l.015.029.052.015v.022h.037l.015.029h.029l.022.037h.029l.015.029h.037l.015.037.052.015v.015l.066.022.015.029.052.015v.022l.066.015.015.029.066.022.022.029.1.037a8.184,8.184,0,0,0,1.56.714h.066v.015l.118.015v.015l.052.007v.015l.132.015c.118.037.28.059.412.1h.118v.022h.133v.015h.2v.015h.545v-.015h.221v-.015h.132v-.022h.133c.081-.022.206-.037.28-.066h.088v-.015l.213-.029v-.022h.066V87.27l.066-.007v-.007l.066-.007v-.007h.066v-.022l.118-.022v-.007l.11-.015v-.022h.052v-.015l.052-.007v-.007h.052v-.015h.044v-.022h.052v-.015l.051-.007v-.007h.052v-.015h.052v-.015h.029v-.022l.147-.029v-.022h.037v-.015h.052v-.015h.029V86.91h.052v-.022l.081-.015v-.015h.037v-.015h.051v-.022h.03v-.015h.052v-.015l.066-.022v-.015h.044V86.74l.074-.015V86.7h.029v-.015h.052v-.015l.1-.037v-.015h.037v-.015h.052v-.015l.029-.007v-.015l.066-.015v-.015h.037v-.015h.029V86.5h.037V86.49h.03v-.015h.037v-.015l.066-.022v-.015l.066-.015v-.015l.066-.022v-.015l.066-.015v-.015l.029-.007v-.015h.037v-.015h.03l.037-.029.066-.022.015-.029h.037l.029-.037h.037v-.015h.029v-.015h.037l.015-.037h.037l.029-.029.029-.007v-.007h.037l.015-.037.1-.037.015-.029.1-.037.015-.029.037-.007v-.007h.029l.015-.037.1-.037.015-.029h.037v-.015h.029l.015-.037.052-.015V85.7l.066-.015.015-.037h.037v-.015h.029l.022-.037.044-.022v-.007l.066-.015.022-.037h.029l.015-.029h.037l.015-.037.066-.015.015-.037h.037l.015-.029h.037l.015-.037h.029l.022-.029h.029l.022-.037h.03l.015-.029h.037l.015-.037h.037l.015-.029h.029l.022-.037h.029v-.015l.052-.015.015-.037h.029l.037-.051h.037l.015-.029.052-.015v-.022h.029l.037-.044h.029l.022-.037h.029l.037-.052h.029l.015-.029h.037l.015-.037.051-.015.029-.051h.037l.029-.052h.037l.029-.044h.037l.029-.052h.037l.029-.051h.037l.029-.052h.037l.052-.066.052-.015v-.029l-.25.029Z" transform="translate(-151.435 -37.375)" fill="#fff"/>
    <path id="Path_49060" data-name="Path 49060" d="M201.153,73.547l-.066.051v.037l-.066.044v.037l-.081.066v.029l-.132.118v.037l-.25.228-.228.25h-.037l-.118.132h-.029l-.066.088h-.037l-.044.066h-.037l-.052.066h-.029l-.052.066H199.8l-.037.044h-.037l-.029.052h-.037l-.015.037h-.03l-.037.052h-.029l-.022.029H199.5l-.015.037-.052.015v.015h-.037l-.015.037h-.037l-.015.029h-.03v.015h-.037l-.015.037h-.03l-.022.029-.066.022-.015.029-.066.015-.015.037-.1.029-.015.037h-.037l-.029.029-.037.007v.015l-.066.015a7.257,7.257,0,0,1-1.442.611h-.066v.015h-.052v.022h-.066l-.316.1h-.081v.022h-.066v.015l-.081.007v.007l-.25.037v.015l-.1.007v.007h-.1V76.4h-.118v.022h-.133v.015l-.132.007v.007H195.6v.022h-.2v.015h-.25a1.929,1.929,0,0,1-.419.015,3.606,3.606,0,0,1-.809-.029l-.4-.037c-.11-.029-.258-.052-.368-.081h-.081v-.022l-.132-.015v-.015h-.066v-.015l-.066-.007V76.27h-.066v-.015h-.066V76.24l-.052-.007v-.015h-.066V76.2l-.169-.037v-.015h-.052v-.015h-.044v-.015l-.1-.022v-.007h-.03v-.022l-.155-.037V76.02h-.029v-.015h-.052V75.99l-.029-.007v-.007l-.052-.007v-.007h-.037v-.022h-.044v-.015l-.037-.007v-.007h-.052v-.022h-.029v-.015l-.081-.022v-.007l-.1-.037v-.015l-.037-.007v-.007H191.4v-.022h-.052V75.74l-.1-.029V75.7h-.037v-.022h-.029v-.015h-.037v-.022h-.03v-.015h-.037l-.029-.029h-.037L191,75.556h-.037l-.029-.029H190.9v-.015h-.029V75.49h-.037l-.015-.029h-.029l-.037-.037-.066-.015-.015-.029-.066-.022-.015-.029-.066-.015-.022-.037-.066-.015-.015-.037h-.037l-.015-.029-.066-.015-.015-.037h-.037l-.015-.029H190.2l-.022-.037h-.029l-.015-.029H190.1l-.015-.037h-.037l-.015-.029-.03-.007V74.96l-.052-.015-.015-.037H189.9l-.037-.044h-.029l-.015-.037h-.037l-.029-.052h-.037l-.015-.029h-.037l-.029-.052H189.6l-.029-.052h-.029l-.052-.066h-.037l-.029-.044h-.037l-.051-.066h-.029l-.052-.066h-.037l-.044-.066h-.037l-.066-.088h-.029l-.088-.1h-.029v-.022l-.052-.029-.029-.052h-.037l-.066-.081-.132-.1-.147-.162a3.633,3.633,0,0,1-.419-.4l-.213-.191v-.037l-.147-.132-.052-.066-.029-.015v-.037l-.154-.132v-.029l-.11-.1v-.029l-.1-.088v-.029l-.1-.081v-.037l-.081-.066v-.037l-.081-.059V72.09l-.066-.051V72.01l-.066-.052v-.037l-.066-.044V71.84l-.066-.051v-.029l-.037-.022-.015-.044-.066-.052V71.6l-.052-.029v-.029l-.052-.037V71.48l-.044-.037v-.029l-.051-.037-.022-.052-.029-.015v-.037l-.037-.015V71.23l-.044-.037-.015-.052-.037-.015V71.1l-.037-.022v-.029l-.044-.037v-.029l-.037-.022-.015-.044h-.015v-.037L186,70.847V70.81l-.037-.015v-.037l-.029-.015v-.029l-.037-.022v-.029h-.015l-.015-.052-.037-.015V70.56l-.044-.029v-.037l-.037-.015V70.45l-.03-.022-.022-.044h-.015l-.015-.066-.037-.022v-.029l-.029-.015v-.037l-.037-.015v-.037l-.029-.015-.015-.066-.037-.015V70.03l-.029-.015v-.037h-.022v-.029l-.03-.015-.022-.051h-.015l-.015-.066-.037-.015v-.037H185.3v-.029l-.029-.022-.022-.044h-.015l-.029-.1-.037-.015-.015-.066-.037-.022v-.029H185.1V69.4l-.029-.022v-.029l-.037-.037v-.029h-.015V69.25l-.037-.015-.015-.066h-.015V69.14h-.015l-.037-.1h-.015v-.052h-.022v-.029h-.015l-.015-.066h-.015v-.052h-.015V68.8h-.022l-.015-.081h-.015l-.022-.1h-.015v-.037h-.015l-.037-.147h-.015V68.4h-.015v-.052h-.015v-.044h-.015v-.052h-.022v-.052h-.015v-.066h-.015l-.052-.213h-.015v-.052h-.022v-.052h-.015v-.066h-.015l-.015-.118h-.015l-.022-.11h-.015v-.066h-.022v-.074h-.015v-.044h-.015l-.015-.132H184.3v-.066h-.022V67.08h-.015v-.066h-.015v-.066h-.022v-.088c-.081-.272-.125-.6-.213-.876V65.9h-.015v-.088h-.015v-.081h-.022v-.081h-.015v-.088h-.015v-.081h-.022V65.4h-.015v-.1c-.088-.3-.1-.684-.2-.993l-.015-.2c-.066-.221-.066-.508-.132-.736l-.015-.213c-.037-.125-.044-.3-.088-.427v-.118c-.022-.1-.037-.25-.066-.346v-.132h-.015l-.015-.235-.081-.567h-1.531l.015.184a2.848,2.848,0,0,0,.022.567v.184l.015.412h.015v.228h.015v.221h.022v.184h.015v.177h.015v.169c.051.177.037.419.088.6l.015.265h.015v.118H182v.118h.015v.132c.059.191.066.441.118.625v.1c.044.14.059.324.1.464v.1c.03.1.052.235.081.331v.081c.11.346.155.751.265,1.082l.066.331h.015l.088.368c.1.28.177.589.28.861l.015.118h.022l.029.147h.015v.037h.022l.015.1h.015v.052h.015v.051h.022v.044h.015v.052h.015v.037h.022l.03.147h.015v.029h.022l.015.1h.015v.037h.015l.015.1h.022v.037h.015v.044h.015V70.4h.015l.022.1h.015v.037h.015v.051h.015l.022.081h.015v.029h.015v.052h.015l.022.066h.015v.052h.015l.022.066h.015v.052h.015l.015.066h.022V71.1h.015l.015.059h.015v.051h.022l.029.1h.015v.029h.022v.052h.015l.029.1h.015v.029h.022v.029h.015V71.6h.015l.022.074h.015l.037.1h.015v.037h.015v.029h.015v.037h.015v.029h.022l.015.066h.015l.022.066h.015l.118.265.03.022.015.066h.015v.029h.022v.037l.037.029v.037l.029.015v.029l.029.037v.029h.022v.037l.029.015.037.1.029.015v.029h.022v.037l.029.015.029.1.037.015.015.066.037.015.015.066.037.015.015.052h.015l.015.074.037.007v.037l.029.015.022.066.029.022v.029l.029.015.022.066.029.022V73.6l.037.015.015.052h.015l.022.066.029.015v.037l.037.015v.037l.029.015.015.066.037.015v.037l.029.015v.037l.037.015.015.044h.015v.037l.037.015v.037l.037.015v.037l.029.015v.029l.037.022.015.066.029.015V74.4h.022l.015.044.029.022V74.5l.052.037v.029l.037.015.015.052h.015v.037l.037.015v.029l.029.022v.029l.037.015v.037h.015l.015.051.037.015v.029l.044.037v.037L186,75l.015.052h.022v.029l.044.037v.029l.037.015.015.052h.015v.029l.051.037v.037l.037.015v.029l.044.037v.029l.037.022v.029l.044.037.022.044.029.022v.029l.037.015v.037l.044.037v.029l.052.029v.037l.051.029v.037l.052.029v.037l.052.037v.029l.044.029v.037l.052.037v.029l.052.029v.037l.066.052.015.052.037.015v.029l.066.051v.037l.044.029v.037l.073.052v.029l.03.015v.022l.037.015v.029l.081.066v.037l.066.051v.029l.081.066v.037l.081.066v.029l.1.081v.037l.1.081v.037l.1.081v.037l.132.11v.037l.169.147v.037h.015l.052.066.213.2v.029l.28.265.118.132h.037l.228.25h.037l.133.155h.029l.1.11h.029l.088.1h.029l.066.081h.037l.044.066h.037l.052.066h.029l.015.037.052.015.052.066h.037l.029.052h.037l.03.052.051.015.015.029h.037l.015.037h.029l.037.051h.029l.022.029.044.022v.007h.037l.015.037.051.015v.015h.03l.022.037h.029l.022.037h.029l.015.029h.037l.015.037.066.015.015.029h.037v.022h.03l.022.029.044.022v.015h.037l.029.029h.037l.015.037h.037l.029.029h.037V80.1h.029l.015.037h.037l.03.037h.037v.015h.029v.015h.037v.015h.029v.015h.037v.022h.029v.015h.037v.015h.029v.022l.073.022v.007h.029v.015h.052v.022h.029v.015l.066.015v.015h.052v.022h.037v.015h.044v.015h.037v.015h.052V80.5h.029v.022l.1.015v.015h.029v.022l.1.015V80.6h.052v.015l.044.007v.015h.052v.015l.118.015v.015l.066.007v.015h.051v.015h.066v.015h.066c.154.052.353.074.515.118h.132v.015l.412.015a1.5,1.5,0,0,0,.449.022v-.022h.162l.353-.029c.081-.022.2-.044.28-.066h.088v-.015l.191-.044v-.007l.118-.015v-.022h.051V80.67h.052v-.015h.052v-.015h.052v-.022l.147-.029v-.015h.029v-.022h.052v-.015l.081-.015V80.5h.037v-.015h.052v-.015l.066-.015v-.015h.044V80.42l.1-.029v-.015h.029v-.022h.037v-.015h.037v-.015h.029v-.015l.029-.007v-.015h.037v-.015h.029l.037-.037h.037l.015-.029.1-.029.022-.037.066-.015.015-.037.066-.015.015-.037h.037v-.015h.029l.015-.029h.037l.015-.037h.037l.015-.029H197l.022-.037h.029v-.015l.052-.015.015-.037h.037l.03-.051h.037l.015-.029h.037l.015-.037.052-.015.029-.052h.037l.015-.029.051-.015.044-.066h.037l.015-.037h.015l.015-.029h.037l.066-.088a5.639,5.639,0,0,0,.618-.559l.346-.338v-.029l.147-.132v-.037l.118-.1v-.037l.081-.066v-.029l.088-.066v-.037l.081-.066v-.029l.066-.051v-.037l.066-.044v-.037l.029-.022v-.007l.037-.022V77.6l.052-.037v-.029l.052-.037v-.029l.044-.037V77.4l.052-.037v-.029l.052-.037v-.029l.052-.037V77.2l.029-.015v-.037l.052-.037v-.029l.037-.015v-.037l.044-.029v-.037l.037-.015v-.037l.044-.029v-.037l.037-.015.015-.044H200v-.037l.029-.015V76.7l.037-.015.015-.052h.015v-.029l.037-.022v-.029l.029-.015v-.037l.037-.015v-.037l.029-.015V76.4l.037-.015v-.029l.029-.022v-.029h.015V76.27l.037-.015.015-.066.037-.015.029-.1.037-.015V76.02l.029-.029v-.029h.015v-.037h.022v-.037l.029-.015.022-.066h.015l.029-.1h.015v-.051h.022l.029-.1h.015v-.029h.022V75.49h.015v-.029h.015v-.052h.022l.015-.066h.015v-.052h.015l.022-.066h.015v-.044h.015v-.037h.015l.015-.081h.022v-.051h.015v-.029h.015l.022-.1h.015v-.037h.015l.25-.765v-.662C201.2,73.452,201.19,73.5,201.153,73.547Z" transform="translate(-147.976 -36.485)" fill="#fff"/>
  </g>
</svg>
