<svg xmlns="http://www.w3.org/2000/svg" width="81.553" height="81.553" viewBox="0 0 81.553 81.553">
  <g id="menuIcon_05" transform="translate(0 -566.538)">
    <g id="Group_7565" data-name="Group 7565" transform="translate(0 566.538)">
      <circle id="Ellipse_351" data-name="Ellipse 351" cx="40.776" cy="40.776" r="40.776" fill="#fff"/>
      <circle id="Ellipse_352" data-name="Ellipse 352" cx="38.896" cy="38.896" r="38.896" transform="translate(1.881 1.881)" fill="#5895af"/>
    </g>
    <g id="Group_7574" data-name="Group 7574" transform="translate(15.191 581.946)">
      <g id="Group_7571" data-name="Group 7571" transform="translate(0.227)">
        <path id="Path_49032" data-name="Path 49032" d="M222.123,180.266h-44.84l44.84-44.84Zm-39.484-2.222H219.9V140.775Zm31.8-5.408H195.384l19.057-19.065Zm-13.7-2.222h11.486V158.935Z" transform="translate(-177.283 -135.426)" fill="#fff"/>
        <g id="Group_7570" data-name="Group 7570" transform="translate(7.074 40.999)">
          <rect id="Rectangle_99" data-name="Rectangle 99" width="1.265" height="2.731" fill="#fff"/>
          <rect id="Rectangle_100" data-name="Rectangle 100" width="1.265" height="2.731" transform="translate(2.587)" fill="#fff"/>
          <rect id="Rectangle_101" data-name="Rectangle 101" width="1.264" height="2.731" transform="translate(5.174)" fill="#fff"/>
          <rect id="Rectangle_102" data-name="Rectangle 102" width="1.265" height="2.731" transform="translate(7.757)" fill="#fff"/>
          <rect id="Rectangle_103" data-name="Rectangle 103" width="1.265" height="2.731" transform="translate(10.348)" fill="#fff"/>
          <rect id="Rectangle_104" data-name="Rectangle 104" width="1.264" height="2.731" transform="translate(12.931)" fill="#fff"/>
          <rect id="Rectangle_105" data-name="Rectangle 105" width="1.265" height="2.731" transform="translate(15.517)" fill="#fff"/>
          <rect id="Rectangle_106" data-name="Rectangle 106" width="1.265" height="2.731" transform="translate(18.105)" fill="#fff"/>
          <rect id="Rectangle_107" data-name="Rectangle 107" width="1.264" height="2.731" transform="translate(20.692)" fill="#fff"/>
          <rect id="Rectangle_108" data-name="Rectangle 108" width="1.265" height="2.731" transform="translate(23.278)" fill="#fff"/>
          <rect id="Rectangle_109" data-name="Rectangle 109" width="1.265" height="2.731" transform="translate(25.861)" fill="#fff"/>
          <rect id="Rectangle_110" data-name="Rectangle 110" width="1.264" height="2.731" transform="translate(28.449)" fill="#fff"/>
          <rect id="Rectangle_111" data-name="Rectangle 111" width="1.265" height="2.731" transform="translate(31.035)" fill="#fff"/>
          <rect id="Rectangle_112" data-name="Rectangle 112" width="1.265" height="2.731" transform="translate(33.622)" fill="#fff"/>
        </g>
      </g>
      <g id="Group_7573" data-name="Group 7573" transform="translate(0 4.071)">
        <path id="Path_49033" data-name="Path 49033" d="M180.895,160.982a.684.684,0,0,1-.464-.191l-2.73-2.722a.662.662,0,0,1-.191-.471.632.632,0,0,1,.191-.463l20.581-20.588a.676.676,0,0,1,.935,0l2.722,2.73a.662.662,0,0,1,0,.935l-20.573,20.581A.687.687,0,0,1,180.895,160.982Zm-1.788-3.385,1.788,1.788,19.646-19.646-1.788-1.788Z" transform="translate(-175.613 -133.568)" fill="#fff"/>
        <path id="Path_49034" data-name="Path 49034" d="M183.693,141.653a.688.688,0,0,1-.471-.191l-2.723-2.73a.662.662,0,0,1,0-.934l1.45-1.442a.662.662,0,0,1,.934,0l2.722,2.73a.639.639,0,0,1,.2.463.669.669,0,0,1-.2.471l-1.449,1.442A.657.657,0,0,1,183.693,141.653Zm-1.788-3.385,1.788,1.788.508-.508-1.788-1.8Z" transform="translate(-157.831 -134.819)" fill="#fff"/>
        <path id="Path_49035" data-name="Path 49035" d="M183.9,141.371a.688.688,0,0,1-.471-.191l-2.722-2.73a.635.635,0,0,1-.2-.464.628.628,0,0,1,.2-.471l.78-.78a2.588,2.588,0,0,1,3.664,3.657l-.787.787A.657.657,0,0,1,183.9,141.371Zm-1.8-3.385,1.8,1.788.316-.316a1.267,1.267,0,1,0-1.788-1.8Z" transform="translate(-156.583 -135.979)" fill="#fff"/>
        <path id="Path_49036" data-name="Path 49036" d="M177.913,145.1a.636.636,0,0,1-.464-.2.643.643,0,0,1-.147-.714l1.9-4.621a.655.655,0,0,1,.478-.4.622.622,0,0,1,.6.184l2.73,2.722a.654.654,0,0,1-.213,1.074l-4.628,1.9A.586.586,0,0,1,177.913,145.1Zm2.134-4.113-.92,2.237,2.237-.92Z" transform="translate(-177.252 -115.789)" fill="#fff"/>
        <path id="Path_49037" data-name="Path 49037" d="M177.913,143.075a.636.636,0,0,1-.464-.2.643.643,0,0,1-.147-.714l.934-2.281a.666.666,0,0,1,.486-.4.694.694,0,0,1,.6.177l1.347,1.347a.667.667,0,0,1-.221,1.082l-2.281.934A.586.586,0,0,1,177.913,143.075Z" transform="translate(-177.252 -113.762)" fill="#fff"/>
        <g id="Group_7572" data-name="Group 7572" transform="translate(3.599 4.483)">
          <path id="Path_49038" data-name="Path 49038" d="M178.063,157.828a.314.314,0,0,1-.228-.1.324.324,0,0,1,0-.456l20.58-20.581a.312.312,0,0,1,.456,0,.32.32,0,0,1,0,.464L178.3,157.724A.329.329,0,0,1,178.063,157.828Z" transform="translate(-177.741 -136.588)" fill="#fff"/>
        </g>
      </g>
    </g>
  </g>
</svg>
