<svg xmlns="http://www.w3.org/2000/svg" width="81.55" height="81.55" viewBox="0 0 81.55 81.55">
  <g id="menuIcon_03" transform="translate(-4.388 -281.435)">
    <g id="Group_7567" data-name="Group 7567" transform="translate(4.388 281.435)">
      <path id="Path_49030" data-name="Path 49030" d="M257.334,135.364a40.775,40.775,0,1,1-40.779-40.779A40.775,40.775,0,0,1,257.334,135.364Z" transform="translate(-175.784 -94.585)" fill="#fff"/>
      <path id="Path_49031" data-name="Path 49031" d="M253.829,133.742a38.895,38.895,0,1,1-38.895-38.9A38.894,38.894,0,0,1,253.829,133.742Z" transform="translate(-174.163 -92.964)" fill="#5895af"/>
    </g>
    <g id="Group_7604" data-name="Group 7604" transform="translate(19.362 299.358)">
      <path id="Path_49073" data-name="Path 49073" d="M184.146,102.066a4.29,4.29,0,1,1-4.29,4.29A4.29,4.29,0,0,1,184.146,102.066Z" transform="translate(-164.868 -64.943)" fill="#fff"/>
      <circle id="Ellipse_361" data-name="Ellipse 361" cx="4.289" cy="4.289" r="4.289" transform="translate(33.708 37.124)" fill="#fff"/>
      <path id="Path_49074" data-name="Path 49074" d="M226.743,110.635H200.268a2.09,2.09,0,0,0-1.567,2.075,2.356,2.356,0,0,0,1.567,2.222h23.737l-1.339,4.51H199.341a1.946,1.946,0,0,0-1.457,1.928,2.192,2.192,0,0,0,1.457,2.075h22.148l-1.251,4.224h-24.09l-1.6-12.737-.522-4.3s-.464-3.966-.728-5.607-4.378-3.708-13.223-7.88c-2.082-.868-3.819,2.936,0,4.93l6.975,3.26s1.626.942,1.766,2.2,2.965,22.258,2.965,22.258.118,2.921,2.767,2.921h26.621a2.827,2.827,0,0,0,2.664-2.325l5.276-15.665S230.679,110.635,226.743,110.635Z" transform="translate(-177.819 -97.021)" fill="#fff"/>
    </g>
  </g>
</svg>
