<svg xmlns="http://www.w3.org/2000/svg" width="81.553" height="81.553" viewBox="0 0 81.553 81.553">
  <g id="menuIcon_02" transform="translate(0 -140.08)">
    <g id="Group_7568" data-name="Group 7568" transform="translate(0 140.08)">
      <circle id="Ellipse_355" data-name="Ellipse 355" cx="40.776" cy="40.776" r="40.776" fill="#fff"/>
      <circle id="Ellipse_356" data-name="Ellipse 356" cx="38.896" cy="38.896" r="38.896" transform="translate(1.881 1.881)" fill="#5895af"/>
    </g>
    <g id="Group_7585" data-name="Group 7585" transform="translate(19.517 154.832)">
      <g id="Group_7584" data-name="Group 7584">
        <g id="Group_7577" data-name="Group 7577">
          <g id="Group_7576" data-name="Group 7576">
            <g id="Group_7575" data-name="Group 7575">
              <path id="Path_49039" data-name="Path 49039" d="M204.291,124.255h-11.3a.853.853,0,0,1-.854-.846.8.8,0,0,1,.132-.449,21.985,21.985,0,0,0,1.9-5.011,10.819,10.819,0,0,0,.14-4.407A14.942,14.942,0,0,1,183.887,101a9.02,9.02,0,0,1-4.157-3,8.766,8.766,0,0,1-1.817-5.371V82.858a.851.851,0,0,1,.846-.846h5.04V78.3a.848.848,0,0,1,.846-.854h28a.854.854,0,0,1,.854.854v3.708h5.033a.851.851,0,0,1,.846.846v9.764a8.773,8.773,0,0,1-1.825,5.371,9.037,9.037,0,0,1-4.15,3,14.943,14.943,0,0,1-10.419,12.546,11.132,11.132,0,0,0,.132,4.5,20.334,20.334,0,0,0,1.928,4.974.854.854,0,0,1-.36,1.14A.869.869,0,0,1,204.291,124.255ZM178.78,82.9l.022,9.72a7.859,7.859,0,0,0,1.641,4.827,8.081,8.081,0,0,0,3.988,2.789.443.443,0,0,1,.309.383,14.02,14.02,0,0,0,10.073,12.133.46.46,0,0,1,.316.338,11.761,11.761,0,0,1-.088,5.055,22.98,22.98,0,0,1-2,5.254l11.17-.037a21.66,21.66,0,0,1-1.972-5.121,11.955,11.955,0,0,1-.074-5.151.451.451,0,0,1,.309-.338,14,14,0,0,0,10.066-12.133.44.44,0,0,1,.316-.383,8.061,8.061,0,0,0,3.981-2.789,7.858,7.858,0,0,0,1.641-4.827V82.88l-5.43.022a.444.444,0,0,1-.449-.442V78.318l-27.939.029.029,4.113a.443.443,0,0,1-.442.442Zm34.267,14.8a.413.413,0,0,1-.228-.066.441.441,0,0,1-.221-.383V85.625a.446.446,0,0,1,.449-.449h2.943a.446.446,0,0,1,.449.449v6.762a5.838,5.838,0,0,1-1.03,3.341,6.008,6.008,0,0,1-2.156,1.92A.5.5,0,0,1,213.047,97.7Zm.449-11.626V96.449a5.192,5.192,0,0,0,1.177-1.229,4.959,4.959,0,0,0,.875-2.833V86.074ZM184.247,97.7a.535.535,0,0,1-.213-.052,5.949,5.949,0,0,1-2.156-1.92,5.862,5.862,0,0,1-1.037-3.341V85.625a.451.451,0,0,1,.449-.449h2.958a.444.444,0,0,1,.442.449V97.251a.448.448,0,0,1-.442.449Zm-2.509-11.626v6.313a5.055,5.055,0,0,0,2.06,4.062V86.074Z" transform="translate(-177.382 -76.928)" fill="#fff"/>
              <path id="Path_49040" data-name="Path 49040" d="M204.749,125.236h-11.3a1.38,1.38,0,0,1-1.383-1.376,1.31,1.31,0,0,1,.221-.736,21.442,21.442,0,0,0,1.832-4.834,10.833,10.833,0,0,0,.184-3.892,15.47,15.47,0,0,1-10.448-12.568,9.641,9.641,0,0,1-4.084-3.061,9.288,9.288,0,0,1-1.928-5.7V83.31a1.379,1.379,0,0,1,1.376-1.376h4.511V78.755a1.379,1.379,0,0,1,1.376-1.376h28a1.385,1.385,0,0,1,1.383,1.376v3.179h4.5a1.379,1.379,0,0,1,1.376,1.376v9.764a9.252,9.252,0,0,1-1.928,5.688,9.511,9.511,0,0,1-4.084,3.068A15.484,15.484,0,0,1,203.91,114.4a10.684,10.684,0,0,0,.177,3.988,19.875,19.875,0,0,0,1.876,4.842,1.35,1.35,0,0,1,.1,1.052,1.382,1.382,0,0,1-.677.8A1.455,1.455,0,0,1,204.749,125.236ZM179.768,83.884l.022,9.19a7.335,7.335,0,0,0,1.531,4.5,7.568,7.568,0,0,0,3.723,2.612.963.963,0,0,1,.684.831,13.524,13.524,0,0,0,9.691,11.685.968.968,0,0,1,.684.736,12.094,12.094,0,0,1-.1,5.276,21.554,21.554,0,0,1-1.656,4.606l9.463-.037a20.211,20.211,0,0,1-1.626-4.474,12.438,12.438,0,0,1-.088-5.379.97.97,0,0,1,.684-.728,13.533,13.533,0,0,0,6.667-4.378,13.394,13.394,0,0,0,3.024-7.3.956.956,0,0,1,.677-.839,7.537,7.537,0,0,0,3.723-2.612,7.306,7.306,0,0,0,1.53-4.5V83.861l-4.9.022a.977.977,0,0,1-.979-.971V79.3l-26.879.029.029,3.576a.978.978,0,0,1-.979.979Zm33.818-1.037v.066h.088Zm-28.947-.015h.059V82.75ZM213.5,98.673a.961.961,0,0,1-.508-.14.978.978,0,0,1-.471-.831V86.076a.983.983,0,0,1,.979-.979h2.951a.981.981,0,0,1,.971.979v6.762a6.454,6.454,0,0,1-3.473,5.725A.92.92,0,0,1,213.5,98.673Zm.081-1.4v.294c.088-.052.169-.1.258-.155l-.125-.044A.613.613,0,0,1,213.586,97.275Zm.9-10.228v8.616c.066-.1.14-.191.206-.287a4.429,4.429,0,0,0,.787-2.539V87.048Zm-.905-.9-.074.007v.081Zm2.715-.074.074.066v-.066Zm-31.6,12.6a.949.949,0,0,1-.441-.1,6.455,6.455,0,0,1-3.48-5.732V86.076a.977.977,0,0,1,.971-.979H184.7a.983.983,0,0,1,.979.979V97.7a.971.971,0,0,1-.464.831A.986.986,0,0,1,184.7,98.673Zm-.339-1.258c.1.059.2.118.3.177v-.353a.617.617,0,0,1-.169.132Zm-1.633-10.368v5.791a4.381,4.381,0,0,0,.78,2.531,3.082,3.082,0,0,0,.221.294V87.048Zm-.905-.9-.074.007v.081Zm2.723-.074.073.066v-.066Z" transform="translate(-177.84 -77.379)" fill="#fff"/>
            </g>
          </g>
        </g>
        <g id="Group_7579" data-name="Group 7579" transform="translate(9.043 45.907)">
          <g id="Group_7578" data-name="Group 7578">
            <path id="Path_49041" data-name="Path 49041" d="M202.075,89.981H179.589a.446.446,0,0,1-.449-.449v-5.4a.444.444,0,0,1,.449-.441h22.486a.444.444,0,0,1,.449.441v5.4A.446.446,0,0,1,202.075,89.981Zm-22.037-.89h21.6V84.58h-21.6Z" transform="translate(-178.617 -83.16)" fill="#fff"/>
            <path id="Path_49042" data-name="Path 49042" d="M202.534,90.969H180.04a.977.977,0,0,1-.971-.979V84.6a.972.972,0,0,1,.971-.979h22.494a.977.977,0,0,1,.971.979V89.99A.981.981,0,0,1,202.534,90.969Zm-22.413-1.037v.059h.088Zm.9-.912h20.536V85.568H181.019Zm-.912-4.349h-.066v.088Zm22.258-.074.081.059V84.6Z" transform="translate(-179.069 -83.618)" fill="#fff"/>
          </g>
        </g>
        <g id="Group_7581" data-name="Group 7581" transform="translate(11.913 51.661)">
          <g id="Group_7580" data-name="Group 7580">
            <path id="Path_49043" data-name="Path 49043" d="M197.378,87.456H179.932a.446.446,0,0,1-.449-.449V84.865a.444.444,0,0,1,.449-.441h17.446a.449.449,0,0,1,.449.441v2.141A.451.451,0,0,1,197.378,87.456Zm-17-.89h16.556V85.314H180.373Z" transform="translate(-179.306 -84.247)" fill="#fff"/>
            <path id="Path_49044" data-name="Path 49044" d="M197.53,87.785H180.084a.625.625,0,0,1-.625-.625V85.018a.623.623,0,0,1,.625-.618H197.53a.623.623,0,0,1,.625.618v2.141A.625.625,0,0,1,197.53,87.785Zm-17.446-3.032a.266.266,0,0,0-.272.265v2.141a.273.273,0,0,0,.272.28H197.53a.278.278,0,0,0,.272-.28V85.018a.27.27,0,0,0-.272-.265Zm17,2.141H180.526a.179.179,0,0,1-.177-.177V85.467a.179.179,0,0,1,.177-.177h16.556a.179.179,0,0,1,.177.177v1.251A.179.179,0,0,1,197.082,86.894ZM180.7,86.541h16.2v-.9H180.7Z" transform="translate(-179.459 -84.4)" fill="#fff"/>
          </g>
        </g>
        <g id="Group_7583" data-name="Group 7583" transform="translate(13.443 11.56)">
          <g id="Group_7582" data-name="Group 7582">
            <path id="Path_49045" data-name="Path 49045" d="M191.008,92.973a.849.849,0,0,1-.537-.2l-3.436-2.509L183.539,92.8a.862.862,0,0,1-1.185-.191.842.842,0,0,1-.11-.758l1.339-4.1-3.5-2.524a.85.85,0,0,1,.493-1.538l4.312.015,1.332-4.106a.844.844,0,0,1,1.6,0l1.332,4.106,4.312-.015a.846.846,0,0,1,.8.589.82.82,0,0,1-.309.942l-3.5,2.531,1.347,4.106a.827.827,0,0,1-.11.751A.882.882,0,0,1,191.008,92.973Zm-3.974-3.708a.419.419,0,0,1,.258.088l3.664,2.671-1.435-4.3a.451.451,0,0,1,.162-.5l3.642-2.634-4.488.007h0a.444.444,0,0,1-.427-.3l-1.383-4.282L185.644,84.3a.41.41,0,0,1-.427.3l-4.5-.007,3.642,2.634a.443.443,0,0,1,.169.5l-1.4,4.29,3.635-2.664A.441.441,0,0,1,187.034,89.264Z" transform="translate(-179.212 -78.492)" fill="#fff"/>
            <path id="Path_49046" data-name="Path 49046" d="M191.463,93.953a1.362,1.362,0,0,1-.876-.316l-3.1-2.259-3.186,2.31a1.4,1.4,0,0,1-1.015.243,1.383,1.383,0,0,1-.905-.552,1.357,1.357,0,0,1-.184-1.229l1.214-3.738-3.179-2.3a1.376,1.376,0,0,1-.5-1.538,1.355,1.355,0,0,1,1.3-.949l3.929.007,1.214-3.738a1.354,1.354,0,0,1,1.3-.949,1.383,1.383,0,0,1,1.31.942L190,83.637l3.929-.007a1.375,1.375,0,0,1,.8,2.487l-3.179,2.3,1.222,3.745a1.345,1.345,0,0,1-.184,1.221A1.4,1.4,0,0,1,191.463,93.953Zm-8.653-8.373,2.318,1.678a.953.953,0,0,1,.353,1.089l-.883,2.73,2.318-1.692a.961.961,0,0,1,1.141,0l2.332,1.692-.912-2.73a.978.978,0,0,1,.346-1.089l2.325-1.678-2.855.007a.95.95,0,0,1-.927-.684l-.883-2.715-.876,2.723a.959.959,0,0,1-1,.677Z" transform="translate(-179.667 -78.95)" fill="#fff"/>
          </g>
        </g>
      </g>
    </g>
  </g>
</svg>
