<svg xmlns="http://www.w3.org/2000/svg" width="81.55" height="81.55" viewBox="0 0 81.55 81.55">
  <g id="menuIcon_07" transform="translate(-0.003 -850.914)">
    <g id="Group_7563" data-name="Group 7563" transform="translate(0.003 850.914)">
      <path id="Path_49028" data-name="Path 49028" d="M256.738,212.751a40.775,40.775,0,1,1-40.778-40.771A40.776,40.776,0,0,1,256.738,212.751Z" transform="translate(-175.188 -171.98)" fill="#fff"/>
      <circle id="Ellipse_349" data-name="Ellipse 349" cx="38.896" cy="38.896" r="38.896" transform="translate(1.878 1.877)" fill="#5895af"/>
    </g>
    <g id="Group_7603" data-name="Group 7603" transform="translate(14.653 872.444)">
      <g id="Group_7592" data-name="Group 7592" transform="translate(0 8.484)">
        <g id="Group_7591" data-name="Group 7591">
          <path id="Path_49061" data-name="Path 49061" d="M183.355,206.406a.392.392,0,0,1-.177-.044.387.387,0,0,1-.221-.331l-.368-5.1h-2.811a2.5,2.5,0,0,1-2.494-2.494V178.658a2.5,2.5,0,0,1,2.494-2.494h30.455a2.5,2.5,0,0,1,2.494,2.494v19.778a2.5,2.5,0,0,1-2.494,2.494H191.56l-3.856,2.612-4.12,2.8A.432.432,0,0,1,183.355,206.406Zm-3.576-29.432a1.691,1.691,0,0,0-1.692,1.685v19.778a1.693,1.693,0,0,0,1.692,1.693h3.186a.4.4,0,0,1,.4.375l.346,4.776,3.547-2.4,3.951-2.678a.421.421,0,0,1,.228-.073h18.8a1.7,1.7,0,0,0,1.692-1.693V178.658a1.7,1.7,0,0,0-1.692-1.685Z" transform="translate(-176.505 -175.391)" fill="#fff"/>
          <path id="Path_49062" data-name="Path 49062" d="M184.029,207.853a1.611,1.611,0,0,1-.545-.14,1.161,1.161,0,0,1-.633-.957l-.309-4.378h-2.09a3.277,3.277,0,0,1-3.274-3.274V179.333a3.277,3.277,0,0,1,3.274-3.274H210.9a3.272,3.272,0,0,1,3.274,3.274V199.1a3.272,3.272,0,0,1-3.274,3.274H192.469l-7.785,5.268A1.189,1.189,0,0,1,184.029,207.853Zm-3.576-29.44a.914.914,0,0,0-.912.92V199.1a.909.909,0,0,0,.912.92h3.186a1.186,1.186,0,0,1,1.177,1.1l.243,3.436,6.387-4.327a1.187,1.187,0,0,1,.662-.206H210.9a.915.915,0,0,0,.92-.92V179.333a.92.92,0,0,0-.92-.92Z" transform="translate(-177.179 -176.059)" fill="#fff"/>
        </g>
      </g>
      <g id="Group_7594" data-name="Group 7594" transform="translate(8.513 14.061)">
        <g id="Group_7593" data-name="Group 7593">
          <path id="Path_49063" data-name="Path 49063" d="M196.69,177.725H178.839a.4.4,0,0,1-.4-.4.4.4,0,0,1,.4-.4H196.69a.4.4,0,0,1,.4.4A.4.4,0,0,1,196.69,177.725Z" transform="translate(-177.662 -176.143)" fill="#fff"/>
          <path id="Path_49064" data-name="Path 49064" d="M197.364,179.179H179.513a1.181,1.181,0,0,1,0-2.362h17.851a1.181,1.181,0,0,1,0,2.362Z" transform="translate(-178.336 -176.817)" fill="#fff"/>
        </g>
      </g>
      <g id="Group_7596" data-name="Group 7596" transform="translate(8.513 18.491)">
        <g id="Group_7595" data-name="Group 7595">
          <path id="Path_49065" data-name="Path 49065" d="M187.765,178.326h-8.925a.4.4,0,0,1-.4-.4.4.4,0,0,1,.4-.4h8.925a.4.4,0,0,1,.4.4A.4.4,0,0,1,187.765,178.326Z" transform="translate(-177.662 -176.751)" fill="#fff"/>
          <path id="Path_49066" data-name="Path 49066" d="M188.439,179.774h-8.925a1.177,1.177,0,1,1,0-2.355h8.925a1.177,1.177,0,1,1,0,2.355Z" transform="translate(-178.336 -177.419)" fill="#fff"/>
        </g>
      </g>
      <g id="Group_7598" data-name="Group 7598" transform="translate(8.513 22.906)">
        <g id="Group_7597" data-name="Group 7597">
          <path id="Path_49067" data-name="Path 49067" d="M191.6,178.927H178.839a.4.4,0,0,1,0-.8H191.6a.4.4,0,0,1,0,.8Z" transform="translate(-177.662 -177.345)" fill="#fff"/>
          <path id="Path_49068" data-name="Path 49068" d="M192.272,180.381H179.513a1.181,1.181,0,0,1,0-2.362h12.759a1.181,1.181,0,0,1,0,2.362Z" transform="translate(-178.336 -178.019)" fill="#fff"/>
        </g>
      </g>
      <g id="Group_7600" data-name="Group 7600" transform="translate(8.513 27.328)">
        <g id="Group_7599" data-name="Group 7599">
          <path id="Path_49069" data-name="Path 49069" d="M196.69,179.528H178.839a.4.4,0,0,1,0-.8H196.69a.4.4,0,0,1,0,.8Z" transform="translate(-177.662 -177.946)" fill="#fff"/>
          <path id="Path_49070" data-name="Path 49070" d="M197.364,180.975H179.513a1.177,1.177,0,1,1,0-2.355h17.851a1.177,1.177,0,0,1,0,2.355Z" transform="translate(-178.336 -178.62)" fill="#fff"/>
        </g>
      </g>
      <g id="Group_7602" data-name="Group 7602" transform="translate(13.502)">
        <g id="Group_7601" data-name="Group 7601">
          <path id="Path_49071" data-name="Path 49071" d="M208.486,205.246a.408.408,0,0,1-.221-.066l-4.128-2.789-3.708-2.516a.411.411,0,0,1-.169-.331V185.983a1.7,1.7,0,0,0-1.692-1.685h-19.05a.4.4,0,0,1-.4-.4v-6.387a2.5,2.5,0,0,1,2.494-2.494h30.448a2.5,2.5,0,0,1,2.494,2.494v19.779a2.5,2.5,0,0,1-2.494,2.494h-2.811l-.361,5.1a.414.414,0,0,1-.228.331A.444.444,0,0,1,208.486,205.246Zm-7.424-5.916,3.525,2.391,3.554,2.4.339-4.775a.4.4,0,0,1,.4-.368h3.186a1.693,1.693,0,0,0,1.692-1.692V177.506a1.692,1.692,0,0,0-1.692-1.692H181.614a1.693,1.693,0,0,0-1.692,1.692v5.982h18.645a2.5,2.5,0,0,1,2.494,2.494Z" transform="translate(-178.34 -174.232)" fill="#fff"/>
          <path id="Path_49072" data-name="Path 49072" d="M209.167,206.7a1.149,1.149,0,0,1-.64-.191l-7.858-5.305a1.25,1.25,0,0,1-.515-.986V186.664a.919.919,0,0,0-.912-.92h-19.05a1.181,1.181,0,0,1-1.177-1.177V178.18a3.281,3.281,0,0,1,3.274-3.274h30.448a3.277,3.277,0,0,1,3.274,3.274v19.779a3.271,3.271,0,0,1-3.274,3.267h-2.09l-.309,4.378a1.182,1.182,0,0,1-.64.971A1.687,1.687,0,0,1,209.167,206.7Zm-6.659-7.1,5.622,3.8.243-3.436a1.187,1.187,0,0,1,1.177-1.1h3.186a.919.919,0,0,0,.92-.912V178.18a.914.914,0,0,0-.92-.912H182.288a.914.914,0,0,0-.92.912v5.21h17.873a3.271,3.271,0,0,1,3.267,3.274Z" transform="translate(-179.014 -174.906)" fill="#fff"/>
        </g>
      </g>
    </g>
  </g>
</svg>
