<svg xmlns="http://www.w3.org/2000/svg" width="81.55" height="81.55" viewBox="0 0 81.55 81.55">
  <g id="menuIcon_06" transform="translate(-0.003 -710.831)">
    <g id="Group_7564" data-name="Group 7564" transform="translate(0.003 710.831)">
      <path id="Path_49029" data-name="Path 49029" d="M256.738,193.72a40.775,40.775,0,1,1-40.778-40.778A40.775,40.775,0,0,1,256.738,193.72Z" transform="translate(-175.188 -152.942)" fill="#fff"/>
      <circle id="Ellipse_350" data-name="Ellipse 350" cx="38.896" cy="38.896" r="38.896" transform="translate(1.878 1.88)" fill="#5895af"/>
    </g>
    <g id="Group_7587" data-name="Group 7587" transform="translate(11.989 722.699)">
      <path id="Path_49047" data-name="Path 49047" d="M194.021,174.293a.717.717,0,0,0-.662-.294h-2.87V156.928a.835.835,0,0,0-.221-.589.9.9,0,0,0-.662-.294h-3.753a1.046,1.046,0,0,0-.441.147l-5.151,3.532a.958.958,0,0,0-.368.957l.736,3.385a.8.8,0,0,0,.589.589.672.672,0,0,0,.809-.147l2.354-1.766V174h-2.87a.717.717,0,0,0-.662.294.835.835,0,0,0-.221.589v2.87a.835.835,0,0,0,.221.589.932.932,0,0,0,.662.294h11.847a.933.933,0,0,0,.662-.294.836.836,0,0,0,.221-.589v-2.87A.835.835,0,0,0,194.021,174.293Zm-.736,3.311h-11.7v-2.649h3.753V160.681l-3.753,3.017-.736-3.164L185.927,157h3.605v17.954h3.753Z" transform="translate(-157.377 -145.081)" fill="#fff"/>
      <path id="Path_49048" data-name="Path 49048" d="M234.21,199.734l-12.362-13.686a.072.072,0,0,1,.074-.074,1.174,1.174,0,0,1,.662-.515l3.753-.883a2.09,2.09,0,0,0,1.619-1.251,2.156,2.156,0,0,0-.662-1.987l-2.649-2.8a1.107,1.107,0,0,1-.294-.809,1.021,1.021,0,0,1,.368-.736l2.943-2.5a2.089,2.089,0,0,0,.736-1.913,1.881,1.881,0,0,0-1.4-1.472l-3.679-1.251a.937.937,0,0,1-.662-.515,1.027,1.027,0,0,1,0-.809l1.4-3.679a1.952,1.952,0,0,0-.074-1.913,1.994,1.994,0,0,0-2.06-.736l-3.826.662a.99.99,0,0,1-1.177-.957l-.442-3.826a1.836,1.836,0,0,0-1.766-1.839,2.6,2.6,0,0,0-1.4.441l-3.09,2.355a1.052,1.052,0,0,1-1.472-.221l-2.208-3.238a2.03,2.03,0,0,0-1.619-1.03,1.947,1.947,0,0,0-1.766,1.251l-1.692,3.532a.994.994,0,0,1-1.4.442l-3.458-1.839a1.962,1.962,0,0,0-2.355.221,2.1,2.1,0,0,0-.515,1.619l.147,3.9a1.006,1.006,0,0,1-1.03,1.03h-3.973a1.851,1.851,0,0,0-1.766.883,2.071,2.071,0,0,0,.074,2.06l1.987,3.311a1.231,1.231,0,0,1,.074.883,1.021,1.021,0,0,1-.515.589l-3.458,1.766a2.337,2.337,0,0,0-1.251,1.692,2.081,2.081,0,0,0,1.1,1.766l3.237,2.06a.936.936,0,0,1,.515.662,1.053,1.053,0,0,1-.221.809l-2.208,3.164a1.982,1.982,0,0,0-.294,2.06,1.882,1.882,0,0,0,1.692,1.03l1.619.147L177.111,198.7a.7.7,0,0,0-.221.883.717.717,0,0,0,.736.589l7.432.589.221,6.917a.731.731,0,0,0,.515.736.442.442,0,0,0,.294.073.836.836,0,0,0,.589-.221l13.907-12.435.662,1.766a1.932,1.932,0,0,0,1.766,1.472,2.015,2.015,0,0,0,1.545-.883l2.5-3.017a.95.95,0,0,1,.809-.368.753.753,0,0,1,.662.294l2.87,2.575a2.217,2.217,0,0,0,1.472.662,1.758,1.758,0,0,0,1.03-.368l10.081,11.111a.908.908,0,0,0,.589.294c.073,0,.147-.074.294-.074a.731.731,0,0,0,.515-.736l.809-6.769,7.432-.662a.886.886,0,0,0,.736-.515A1.2,1.2,0,0,0,234.21,199.734ZM186.9,205.841l-.221-5.886a.857.857,0,0,0-.736-.809l-6.254-.515,11.7-10.522.883-.147.221.221a1.053,1.053,0,0,1,.221.809l-.515,3.826a2.117,2.117,0,0,0,.441,1.692,1.611,1.611,0,0,0,1.03.589,2.134,2.134,0,0,0,1.766-.074l3.605-1.472a.513.513,0,0,1,.809.442l.073.074Zm26.489-13.024-.662,3.311a1.251,1.251,0,0,0,.074.515l-.074-.073h-.074a.257.257,0,0,1-.074-.147l-2.943-2.575a1.323,1.323,0,0,0-.662-.442,3.082,3.082,0,0,0-1.1-.294,2.541,2.541,0,0,0-1.325.368.734.734,0,0,0-.368.294,1.957,1.957,0,0,0-.442.368l-2.428,3.017c-.074,0-.074.074-.147.074a.072.072,0,0,1-.074.074v.074h-.147c0-.074-.074-.147-.147-.294l-.957-2.5a.7.7,0,0,0,.221-.883l-.073-.147a2.367,2.367,0,0,0-1.472-1.545,1.242,1.242,0,0,0-.736-.221c-.073-.074-.221-.074-.368-.147h-1.03v.074a1.065,1.065,0,0,0-.515.147l-3.458,1.472v-.147l.515-3.826v-.368a2.387,2.387,0,0,0-.589-1.692,2.729,2.729,0,0,0-1.766-1.03c-.074,0-.147-.074-.294-.074a3.19,3.19,0,0,0-.368-.074l-1.325-.073L188,185.827c-.221,0-.368-.074-.368-.147s0-.147.147-.368l2.281-3.164.221-.442a3.106,3.106,0,0,0,.221-1.619,2.585,2.585,0,0,0-1.251-1.766l-3.238-2.06q-.221-.111-.221-.221l-.074-.074a.884.884,0,0,1,.294-.294l1.766-.883,1.692-.883a2.565,2.565,0,0,0,1.4-1.619,3.342,3.342,0,0,0-.221-2.06.072.072,0,0,1-.074-.074l-1.913-3.385c-.147-.147-.147-.221-.147-.294V166.4h.074a.761.761,0,0,1,.294-.073h1.03l2.943.073a2.672,2.672,0,0,0,1.913-.809,2.6,2.6,0,0,0,.589-.957.072.072,0,0,1,.074-.074,2.117,2.117,0,0,0,.073-.957l-.147-3.9c0-.294.074-.368.147-.368a.734.734,0,0,1,.294.074l2.87,1.545.589.294c.074.074.074.074.147.074a3.089,3.089,0,0,0,1.177.294,2.9,2.9,0,0,0,1.839-.736,3.265,3.265,0,0,0,.589-.809l1.619-3.532c.073-.074.073-.147.147-.147a.256.256,0,0,1,.074-.147h.073c.074,0,.074,0,.074.073.073,0,.147.074.221.147l1.472,2.208.662,1.03a1.738,1.738,0,0,0,.589.662,2.735,2.735,0,0,0,1.619.589c.221,0,.368-.074.589-.074a2.5,2.5,0,0,0,1.1-.515l1.251-.957,1.839-1.4.294-.147h.073a3.064,3.064,0,0,1,.147.368l.368,3.9a2.483,2.483,0,0,0,.662,1.472,1.958,1.958,0,0,0,.441.368,2.522,2.522,0,0,0,2.06.515l3.826-.589a.51.51,0,0,1,.368,0,.8.8,0,0,1-.074.368l-1.4,3.605c0,.147-.074.221-.074.294v.074a2.506,2.506,0,0,0,0,1.472c.074.147.074.221.147.294a1.609,1.609,0,0,0,.221.368,2.636,2.636,0,0,0,1.4,1.1l2.722.883.957.368a.382.382,0,0,1,.294.147.228.228,0,0,1-.073.147c0,.074-.074.147-.147.221l-1.839,1.545-1.1.957a2.6,2.6,0,0,0-.147,3.9l2.649,2.87c.221.147.221.294.221.294v.074a1.5,1.5,0,0,1-.368.073l-3.753.957a2.585,2.585,0,0,0-1.766,1.251l-.221.441c0,.147-.073.294-.073.442a2.135,2.135,0,0,0-.442,1.177.933.933,0,0,0,.074.442l1.1,3.679-3.753-.957c-.147,0-.294-.074-.441-.074h-.662a.072.072,0,0,1-.074.074.663.663,0,0,0-.368.074.228.228,0,0,0-.147.074c-.073,0-.147.073-.221.073-.074.074-.147.074-.221.147a.072.072,0,0,0-.074.074,1.607,1.607,0,0,0-.368.294A2.991,2.991,0,0,0,213.387,192.817Zm11.994,7.432a.7.7,0,0,0-.736.736l-.662,5.592-9.271-10.228.736-3.532c0-.147.074-.221.147-.368a1.271,1.271,0,0,1,.736-.074l3.753.957a2.5,2.5,0,0,0,.736.074,1.773,1.773,0,0,0,1.324-.515l.147-.147.368-.368a1.95,1.95,0,0,0,.221-1.839l-.368-1.177,9.271,10.228Z" transform="translate(-176.817 -154.555)" fill="#fff" stroke="#fff" stroke-miterlimit="10" stroke-width="0.15"/>
      <g id="Group_7586" data-name="Group 7586" transform="translate(22.854 11.368)">
        <path id="Path_49049" data-name="Path 49049" d="M192.442,174.129v2.65h-11.7v-2.65H184.5V159.854l-3.753,3.018-.735-3.164,5.076-3.533h3.606v17.954Z" transform="translate(-179.386 -155.622)" fill="#fff"/>
        <path id="Path_49050" data-name="Path 49050" d="M193.528,177.814h-12.8v-3.76h3.753V161.479l-3.539,2.848-1.015-4.378,5.526-3.848h4.327v17.954h3.753Zm-11.7-1.111h10.6v-1.545h-3.753V157.2h-2.884l-4.621,3.223.449,1.943,3.973-3.186v15.974h-3.76Z" transform="translate(-179.923 -156.1)" fill="#fff"/>
      </g>
    </g>
  </g>
</svg>
