<svg id="title" xmlns="http://www.w3.org/2000/svg" width="217.724" height="41.867" viewBox="0 0 217.724 41.867">
  <g id="Group_4239" data-name="Group 4239">
    <path id="Path_21390" data-name="Path 21390" d="M105.578,250.793l.009-.212h.014v-.1c.051-.166.028-.391.074-.556v-.115h.014v-.124h.014v-.11h.014v-.124h.009v-.124h.014V249.2h.014v-.12h.009l.028-.4h.014v-.138h.009V248.4h.014v-.147h.014V248.1h.009v-.147h.014V247.8h.014l.014-.322h.009v-.161h.014v-.175h.014v-.175h.009v-.184h.014V246.6h.009v-.212h.014v-.2c.018-.064,0-.17.014-.239s0-.166.014-.235-.009-.2.009-.276h.014v-.184h-1.283v.92a2.086,2.086,0,0,1-.009.451v.4h-.014v.313H104.7v.235l-.009.014v.235h-.014v.2h-.014v.2h-.009v.17h-.014v.166h-.014v.161h-.014v.152h-.009V249h-.014v.138h-.014c0,.129-.014.258-.023.386h-.014v.11h-.009v.115h-.014v.11h-.014v.11h-.014v.1h-.014v.1h-.009v.1c-.051.17-.037.382-.087.547-.028.193-.051.382-.074.575-.041.129-.051.294-.087.423v.074c-.023.078-.037.184-.064.262v.06c-.023.078-.037.175-.06.253v.06c-.051.156-.074.345-.124.5l-.014.11c-.064.184-.1.4-.161.584l-.028.147h-.009l-.041.179h-.009l-.014.083h-.009l-.028.124h-.014l-.023.124h-.014v.037H103.6v.041h-.009v.037h-.014v.046c-.129.359-.248.736-.4,1.072v.041h-.009v.023h-.014v.037h-.014l-.014.064h-.009l-.014.046h-.014v.037h-.009l-.014.051h-.014v.037h-.009l-.014.051h-.014v.037H103l-.028.078h-.014v.023h-.009v.037h-.014l-.023.074H102.9v.028h-.014v.023h-.009v.037h-.014v.028h-.014l-.014.051h-.009v.023h-.014v.023H102.8v.028h-.009v.023h-.014l-.014.051h-.014v.023h-.009v.028h-.014v.023h-.014v.028l-.023.023v.028l-.023.009-.014.051h-.014v.028h-.014v.023l-.023.023v.028l-.028.009v.028l-.023.023v.028h-.014v.023l-.023.014-.028.074-.023.014-.023.074-.023.014-.014.046-.028.014-.014.051-.023.014-.014.051-.023.009-.014.051-.023.014-.014.037h-.014l-.009.051-.028.009v.028l-.023.014v.023l-.023.014v.023l-.028.014-.014.051-.023.009v.023l-.023.014v.028l-.028.014v.023h-.014l-.009.037-.028.014v.023l-.037.023v.028l-.023.014-.014.037H101.9v.023l-.023.014v.023l-.037.028v.023l-.028.014v.023l-.037.028-.009.037-.028.014v.023l-.023.014v.023l-.037.023v.028l-.041.023v.028l-.046.037v.023l-.037.028v.023l-.051.037-.014.037-.023.014v.023l-.051.041v.023l-.064.051v.023l-.06.051v.028l-.064.046v.028l-.087.074v.023l-.1.087v.028l-.138.124a2.312,2.312,0,0,1-.276.285,3.092,3.092,0,0,1-.359.336l-.087.1h-.023l-.064.074h-.023l-.064.073h-.023l-.014.028h-.014l-.014.023h-.023l-.051.064h-.023l-.028.037H99.8l-.037.046h-.028l-.037.051h-.023l-.028.037h-.023l-.023.041h-.028l-.023.037h-.028l-.009.023h-.028l-.023.037-.037.014-.014.023h-.023l-.014.028-.037.009v.014h-.028l-.023.037h-.023l-.014.028-.037.009v.014h-.028l-.009.023h-.028l-.009.028-.041.014v.009H99.08l-.014.028-.051.009-.009.028h-.028l-.009.023h-.028l-.009.028-.051.014-.014.023-.037.014v.009l-.051.014-.014.023-.046.014-.014.023-.074.028-.014.023-.074.028-.014.023-.074.023-.014.028-.051.018v.009h-.023v.009h-.028v.014h-.023l-.028.023h-.023l-.014.028h-.023l-.023.023h-.028v.014H98.16v.014h-.028v.009H98.11v.014h-.023v.014h-.028v.009l-.023,0v.009h-.028v.014h-.023v.009l-.051.014v.014h-.023v.009h-.041v.014l-.074.028v.009h-.023v.014h-.023v.014h-.028v.014h-.037v.009l-.051.014v.014h-.023v.009h-.037v.014l-.055.018v0h-.032v.014l-.051.014v.014H97.4v.009l-.028,0v.009h-.037v.014l-.051.009v.014H97.25v.014h-.023v.009l-.074.018v.009l-.064.014v.009l-.023,0v.009l-.078.014v.014h-.023v.009l-.11.023v.014h-.028v.014l-.074.014v.009h-.037v.014H96.68v.014l-.041,0v0h-.023v.014l-.074.018v0H96.5v.014h-.037v.014h-.037V262H96.39V262h-.046c-.423.152-.888.271-1.311.423l-.1.014v.014h-.051v.014h-.051v.009h-.06v.014h-.064v.014h-.064v.009l-.06,0v.009h-.074c-.11.032-.262.032-.373.06h-.124v.014h-.152v.014l-.322.014H93.3a1.254,1.254,0,0,1-.373,0v0h-.386l-.432-.041v.028l.037.014.023.037H92.2l.041.051h.023l.023.037.041.009.009.028h.028l.023.037h.023l.028.037h.023l.028.037h.023l.014.028h.023l.023.037H92.6l.014.023h.023l.028.037h.023l.009.028h.028l.028.037h.023l.009.023.041.018v.009h.023l.014.023h.023l.028.037h.023l.014.023.037.014v.014h.023l.014.023h.023l.014.028.037.018v0h.028l.009.028h.028l.009.023.051.014.014.023h.028l.009.028h.028l.009.023h.028l.009.023.051.014.014.023.037.014v.014l.051.014.014.023h.023l.014.028h.023v.009h.028l.009.028.051.009.014.028.051.009.009.028.051.014.014.023.051.014.009.023.078.028.009.023h.028l.023.023h.028l.009.028h.028l.023.023.023,0v.009h.028v.009h.023l.014.028h.023l.028.023h.023v.014l.051.014.014.023.051.018v.009h.023v.009H94.4v.014h.028v.014l.023,0v0h.028v.014l.046.014v.014l.055.009v.014H94.6v.014l.023,0v.009h.023v.009h.028v.014l.051.014v.009l.051.014v.014H94.8v.009h.037v.014l.074.023v.014l.028,0v.009h.023v.014H95v.009l.051.018v.009h.028v.014h.037v.009l.051.014v.014H95.2v.009h.023v.014l.037,0v.009h.028v.014h.037v.009l.06.018v0h.023v.014h.041v.014h.023v.014l.115.023v.014l.023,0v0l.037,0v.009h.037v.014h.037v.009h.037c.161.064.345.11.51.165h.064v.009h.051v.014l.06,0v.009H96.5v.009h.06v.014h.064v.014l.087,0v.009H96.8v.009h.11v.014h.152v.014h.2a2.039,2.039,0,0,0,.487-.037h.087v-.014h.06v-.014l.074,0v-.009h.051v-.009h.064v-.014h.046v-.014h.051v-.009h.051v-.014h.051v-.014l.037,0v0l.051,0v-.009h.037v-.014h.037v-.014h.037v-.009h.037v-.014h.037v-.014H98.6v-.009l.074-.014v-.014h.023v-.014h.037v-.009l.028,0v-.009H98.8v-.014h.023v-.009h.037v-.014h.028v-.014h.037v-.009l.051-.018v-.009h.037v-.014l.074-.028v0H99.1V264.5h.028v-.014h.023v-.014l.037,0v0l.078-.032v0l.046-.014.014-.028.051-.009v-.014H99.4v-.014h.028v-.014h.023l.028-.023H99.5l.014-.023.074-.028.014-.023.046-.014.014-.023.074-.028v-.009l.037-.014.014-.028.051-.009.014-.028h.023l.014-.023h.023l.014-.023.051-.014.014-.028h.023l.023-.037h.028l.014-.023h.023l.014-.028.037-.009v-.014h.023l.014-.023h.023l.028-.037h.023l.023-.041h.028l.014-.023h.023l.028-.037h.023l.023-.037h.028l.037-.051h.023l.028-.037h.023l.037-.051h.028l.046-.064h.028l.046-.06h.028l.051-.064h.023l.078-.087h.023l.087-.1h.028l.023-.037.074-.064.087-.1h.023l.115-.124.11-.1v-.028l.2-.184v-.028l.115-.1v-.028l.083-.074v-.023l.078-.064v-.023l.06-.051v-.023l.028-.014v-.014l.023-.014v-.023l.051-.037V262l.028-.009v-.014l.023-.014v-.023l.051-.037v-.028l.023-.009.014-.041.051-.032v-.028l.037-.023v-.028l.037-.023.014-.037.023-.014v-.023l.023-.014v-.028l.037-.023v-.023l.028-.014V261.5l.037-.028v-.023l.023-.014.014-.037h.014v-.028l.023-.009v-.028l.041-.023v-.023l.023-.014.009-.037h.014v-.028l.028-.009.009-.037h.014l.014-.055.023-.009v-.028l.028-.009v-.028l.023-.009.014-.051.023-.014.014-.037h.014l.009-.051.028-.009.009-.041h.014l.014-.051.023-.009.028-.078.023-.009v-.028h.014v-.023l.023-.014v-.023l.023-.028v-.023h.014v-.023l.028-.014v-.028l.023-.023v-.023h.014V260.4l.023-.009v-.028l.028-.023v-.028h.009l.028-.074.023-.014V260.2l.028-.023v-.028h.009v-.023h.014V260.1h.014v-.023h.009v-.028h.014v-.023h.014V260h.014v-.028h.009l.014-.051h.014l.009-.046h.014v-.028h.014v-.037h.009l.028-.074h.014v-.028h.009v-.023h.014v-.023h.014v-.037h.009l.014-.051h.014v-.028h.014v-.037h.009l.014-.051h.014v-.037h.014l.009-.051h.014v-.037h.009l.014-.051h.014v-.037h.014v-.023h.009l.014-.064h.014v-.037h.014v-.023h.009v-.037h.014v-.037h.009v-.028h.014l.014-.074h.014v-.023h.009v-.041c.023-.055.055-.12.078-.17l.009-.078c.129-.322.207-.69.326-1.021l.009-.1h.014l.023-.138h.014l.014-.087h.009v-.051h.014v-.051h.014v-.037h.014v-.051c.023-.074.046-.175.074-.248l.014-.1c.1-.3.138-.653.235-.961v-.06h.014v-.051h.014v-.064h.009v-.06h.014V255.5h.014v-.064h.009l.014-.124c.041-.129.06-.29.1-.423l.014-.133c.055-.189.064-.414.124-.6.106-.676.212-1.357.322-2.033v-.087c.046-.161.037-.382.087-.543l.014-.2C105.546,251.142,105.532,250.945,105.578,250.793Z" transform="translate(-88.218 -227.394)" fill="#c9dcb7"/>
    <path id="Path_21391" data-name="Path 21391" d="M95.161,259.665v.009h.023v.014l.051.018v0l.051.014v.014h.023v.009l.037,0v.009l.051.014v.014h.037v.009l.051.014v.014l.074.009v.014l.028,0v.009l.5.147h.06v.014l.051,0v.009l.074,0v0h.078v.014h.083v.014l.115,0v0l.409.014h.161v-.014l.29-.009v-.014h.087v-.014h.083v-.009h.064v-.014h.074v-.014l.115-.014v-.009h.046v-.014l.051,0v-.009h.051v-.009h.051v-.014h.037v-.014h.051a5.654,5.654,0,0,0,1.067-.483l.078-.028.014-.023h.023v-.014h.023l.014-.023.037-.014v-.014l.051-.009.014-.028h.023l.014-.023h.023l.014-.023h.023l.014-.028h.028l.009-.023H99.6l.009-.028h.028v-.009l.037-.014.009-.028h.028l.023-.037h.028l.014-.023H99.8l.023-.037h.028l.023-.037H99.9l.023-.037h.023l.041-.051h.023l.023-.041h.028l.037-.046h.023l.037-.051h.028l.051-.064h.023l.06-.074h.028l.074-.087h.028l.1-.11h.023l.028-.037.074-.064.087-.1h.028l.2-.212.074-.064v-.023l.212-.2V257.7l.124-.11v-.028h.014l.037-.051.051-.037v-.023l.087-.078v-.023h.014l.023-.037.037-.028v-.023l.078-.064v-.023l.06-.051V257.1l.064-.051v-.023l.046-.037v-.028l.051-.037V256.9l.051-.041v-.023l.051-.037v-.023l.046-.037v-.028l.051-.037v-.023l.041-.028V256.6l.037-.028v-.023l.046-.037v-.028l.041-.023v-.023l.037-.028v-.023l.037-.028v-.023l.037-.028v-.023l.037-.023.014-.037.023-.014v-.023l.028-.014v-.028l.037-.023.009-.037.028-.014v-.023l.023-.014v-.028l.037-.023v-.023l.028-.014v-.023l.037-.028v-.023l.023-.014v-.023l.037-.028v-.023l.028-.014.009-.037h.014v-.023l.037-.028v-.023l.028-.014.009-.037h.014V255.6l.023-.014v-.028l.041-.023v-.023l.023-.014.014-.037h.014v-.028l.023-.009v-.028l.023-.009v-.028l.028-.014v-.023l.023-.014v-.023l.028-.014.009-.037h.014v-.023l.028-.014v-.023l.023-.014v-.028l.023-.009v-.028l.028-.009v-.028l.023-.009v-.028l.023-.014v-.023l.028-.014.014-.051h.009l.014-.037.028-.014v-.023l.023-.014.009-.037h.014l.014-.051.023-.009v-.028l.028-.009v-.028l.023-.014.014-.046h.014l.009-.037.028-.014v-.028l.023-.009.014-.05.023-.014.014-.037h.014l.009-.051.028-.009v-.028h.009v-.023l.028-.014.009-.037h.018l.009-.051.023-.014.014-.046.028-.014.023-.074.028-.014v-.023h.009V254l.028-.014v-.023l.023-.028v-.023h.014v-.023l.023-.014v-.023l.023-.028V253.8h.014v-.028l.028-.009.014-.051h.009v-.028h.014v-.023l.023-.023v-.028l.023-.009v-.028l.028-.023v-.028h.014V253.5h.014v-.028h.009v-.023h.014v-.023h.009V253.4h.014l.014-.046h.014l.009-.051h.014l.023-.078h.014l.014-.046h.014v-.042h.009v-.023h.014l.023-.074h.014l.014-.051h.014v-.037h.009l.028-.078h.009v-.023h.014v-.037h.014l.009-.051h.014v-.037h.014v-.023h.014l.009-.051h.014v-.037h.014v-.028h.009v-.037h.014l.014-.051h.009v-.037h.014v-.023h.014v-.037h.014v-.028h.009v-.037h.014v-.023h.014v-.041h.009l.014-.06h.014V252.2h.014v-.037h.009v-.028h.014V252.1h.014v-.037h.009v-.028h.014l.014-.074h.009v-.023h.014l.023-.115h.014V251.8h.014v-.037h.014v-.037h.009v-.037H105v-.037h.014v-.041c.046-.115.087-.253.138-.373l.009-.074h.014l.051-.212h.014l.023-.124h.014l.009-.087h.014V250.7h.014l.014-.087h.009l.028-.138h.009l.064-.285h.014l.014-.11c.046-.147.074-.327.12-.474v-.064c.055-.166.074-.372.129-.547l.009-.138c.051-.152.055-.349.1-.506l.014-.179c.037-.133.032-.308.074-.446v-.1h.014v-.1h.009l.014-.225h.014v-.11h.009v-.124h.014v-.129H106v-.147h.009v-.147h.014l.014-.239v-.124a2.126,2.126,0,0,1,.014-.235,1.731,1.731,0,0,0,.009-.313V245.7h.014v-.276h-1.145a1.241,1.241,0,0,1-.037.239v.1h-.014v.1h-.014v.087h-.009v.087h-.014v.1c-.023.069-.028.175-.051.248l-.014.175c-.041.147-.041.34-.087.483l-.023.239c-.064.221-.069.5-.138.722l-.009.147c-.06.2-.078.437-.138.635l-.028.189c-.046.156-.069.345-.12.5l-.014.11h-.014l-.014.1h-.014l-.009.1h-.014v.046h-.014v.051h-.009v.051h-.014v.037h-.009l-.028.152h-.014l-.014.087h-.009l-.014.083h-.014l-.009.087H104v.041h-.014v.037h-.009v.037h-.014v.051h-.014v.037h-.009v.037h-.014v.037h-.014v.037h-.014l-.009.078h-.014v.023h-.014l-.023.11h-.014v.028h-.009v.037h-.018v.023h-.009v.037h-.014v.028h-.014v.037h-.009l-.014.051h-.014v.037h-.009l-.028.074h-.009v.023h-.014v.028h-.014v.023h-.014v.028l-.023.023v.023l-.023.014-.014.051-.023.014-.028.074-.023.009v.028h-.014v.023l-.028.014-.009.051-.023.014-.014.046-.028.014-.009.051-.028.014-.014.051-.023.009v.028l-.023.009v.028l-.028.014-.014.046h-.009l-.014.037-.023.014v.028l-.028.009-.009.051-.028.014v.023l-.023.014v.023l-.028.014v.028l-.023.009v.023l-.023.014v.028l-.028.014v.023l-.023.014v.023h-.014l-.014.037-.023.014v.023l-.037.028v.023l-.028.014-.009.037h-.014v.023l-.028.014v.028l-.037.023v.023l-.023.014v.023l-.037.028v.023l-.028.014v.023l-.023.014-.014.037-.037.023v.028l-.037.023v.028l-.037.023V253l-.023.014v.028l-.051.037v.023l-.037.023v.028l-.037.028v.023l-.051.037-.014.037-.023.014v.023l-.051.041v.023l-.051.037v.028l-.064.046v.028l-.051.037v.023l-.06.051v.023l-.074.064v.023l-.037.028-.028.037h-.009v.023l-.087.074v.028l-.115.1v.023l-.023.014v.009l-.124.115a3.152,3.152,0,0,1-.3.308,3.22,3.22,0,0,1-.386.363l-.1.11h-.023l-.014.028h-.014l-.037.051h-.023l-.051.06-.028,0v.009l-.032.023-.014.028H100.5l-.046.06h-.028l-.037.051h-.023l-.014.023-.037.014-.037.051h-.028l-.023.037H100.2l-.028.037h-.023l-.028.037-.037.014-.014.023h-.023l-.014.023h-.023l-.023.041h-.028l-.014.023-.037.018v.009h-.023l-.014.023h-.023l-.014.023h-.023v.014l-.037.014-.028.037-.051.014-.014.023h-.023l-.014.028h-.023l-.014.023-.046.014-.014.023-.051.014-.014.023-.051.014-.009.023-.051.014-.014.023-.074.028-.014.023h-.023l-.028.028H99.2v.009h-.028v.014h-.023l-.009.028h-.028l-.023.023h-.028v.014l-.023,0v0H99.02v.014h-.028v.014l-.023,0v.009h-.028v.009h-.023v.014l-.078.023v.014H98.8v.014H98.78v.009l-.023,0v.009l-.051.014v.009H98.67v.014l-.051.014v.014l-.225.074v.014h-.023v.009l-.078.018v.009H98.27v.009c-.235.069-.464.133-.7.2h-.06c-.083.023-.193.037-.276.06l-.087,0v.009h-.1v.014h-.115v.009l-.547.014a1.643,1.643,0,0,1-.372-.014h-.189v-.009l-.147,0v-.009h-.11v-.014h-.1v-.009l-.1-.009v0h-.087c-.064-.018-.156-.032-.216-.051l-.124-.014v-.009h-.06v-.014l-.161-.028V256.6l-.051,0v-.009l-.051,0v-.009h-.037v-.009l-.1-.014c-.175-.06-.345-.115-.52-.175v-.014l-.028,0v0H93.9v-.014l-.06-.014v-.014h-.028V256.3h-.037v-.014l-.051-.014v-.009l-.037,0v-.009l-.074-.028v-.009h-.028V256.2h-.023v-.009h-.037v-.014l-.074-.028v-.009h-.028v-.014l-.023,0v-.009l-.074-.023-.014-.028h-.023l-.028-.023h-.028v-.014l-.023,0v-.009h-.023l-.014-.023h-.023v-.014l-.051-.009-.014-.028-.051-.009-.009-.028H93v-.014h-.023l-.014-.023-.037-.014v-.009l-.051-.014-.014-.023h-.023l-.014-.028h-.023l-.014-.023H92.77l-.014-.028h-.023l-.028-.037h-.023l-.014-.023h-.023l-.028-.037H92.6l-.014-.028h-.023l-.037-.051-.037-.014-.014-.023h-.028l-.037-.046h-.023l-.037-.051h-.028l-.06-.078h-.028l-.083-.1h-.028l-.184-.2-.166-.152v-.028l-.087-.074v-.023l-.074-.064v-.023l-.051-.037-.009-.037-.028-.014v-.023l-.051-.041v-.023l-.023-.014v-.023l-.037-.028v-.023l-.028-.014v-.023l-.023-.014-.014-.037H91.34c-.028-.037-.032-.074-.064-.1v-.028h-.009a.957.957,0,0,0,.06.3l.023.161h.014v.051h.014l.023.138h.014l.014.087h.009v.037h.014v.037h.014v.051h.009l.028.124h.009v.037h.014v.037h.014v.037h.014l.009.078h.014v.023h.014v.037H91.6v.037h.014v.037h.014v.037h.014l.009.064h.014v.023h.014l.009.078H91.7v.023h.014v.037h.009l.014.051h.014v.037h.014l.009.051h.014v.037H91.8l.014.051h.009v.023h.014v.037h.014v.028h.009l.014.051h.014v.023H91.9v.028h.014v.023h.014v.023h.014v.028h.009v.023h.014v.023h.014v.028h.009v.023l.028.028v.023l.023.014.028.074.023.014.023.074h.014l.014.037.023.014.014.051.023.014v.023l.028.014v.023l.023.014v.023l.023.014v.023l.028.014v.023l.023.014v.023l.028.014v.028l.023.009v.028h.014l.014.037.023.014v.023l.037.023v.023l.028.014.009.041h.014v.023l.037.023v.028l.028.009v.028l.037.023v.028l.023.009v.028l.028.009.009.037.037.028v.023l.041.028v.023l.037.028v.023l.037.028v.023l.046.037.014.037.028.014v.023l.046.037v.028l.051.037v.023l.064.051v.028l.06.046V258l.078.064v.023l.087.074v.028l.124.11a2.5,2.5,0,0,0,.285.3l.147.161h.028l.1.11H94l.06.078h.028l.051.06h.023v.014l.037.023.014.028h.023l.014.023.037.014.037.051h.023l.028.037H94.4l.023.037h.023l.014.023h.023l.028.037h.023l.014.028h.023l.014.023.037.014v.014h.028l.009.023h.028l.009.023h.028l.009.028h.028v.009h.023l.014.028.051.014.009.023.051.014.014.023.074.028.014.023.074.023v.014h.028v.014h.023v.009Z" transform="translate(-91.266 -226.793)" fill="#c9dcb7"/>
    <path id="Path_21392" data-name="Path 21392" d="M92.677,247.916h.009v.028H92.7v.037h.014l.028.074h.009l.014.051.023.014.014.051h.009l.014.037.023.014v.023l.028.014v.023l.028.014.009.037.037.023v.028l.037.023.014.037.087.078v.023l.124.11.115.124h.023l.014.028h.009l.064.074h.023l.051.064h.028l.032.046H93.6l.037.051h.028l.023.037.037.014.014.023h.023l.014.028h.023l.028.037h.023l.014.023h.023l.014.028h.023l.014.023h.023l.014.028H94l.009.023.028,0v.009h.023l.014.023.051.014.014.023h.023v.014h.023l.014.023.074.028a3.6,3.6,0,0,0,.7.322l.235.051v.014l.074.009v.014h.041v.014l.037,0v.009h.037v.009h.037v.014h.051v.014l.037,0v0h.051v.014h.046v.014l.087.014v.009l.166.023v.014h.06c.11.037.262.055.372.087l.152.014c.106.032.253.032.359.06h.115v.014h.124v.014l.124,0v.009h.161v.009l.322.014c.051,0,.124-.009.152.014h.11v.009h.014v.014h.009v.028h.014v.023l.028.009.009.041H98l.014.051.023.009v.028l.023.014.014.046.028.014.009.051.028.014.014.046.023.014.014.051.023.009.028.078.023.009v.028h.014v.023l.023.014.028.074.023.014v.023l.023.028v.023l.028.014.023.074.023.014v.023l.028.028v.023h.014v.023l.023.014v.028l.028.023v.023h.009v.028l.023.009v.028l.028.023v.028h.014v.023h.009l.014.051.028.014v.023l.023.023v.028H98.7v.023h.009v.028h.014v.023h.014v.028h.009v.023l.028.014v.023l.023.028v.023h.014v.023h.014v.028h.009v.023h.014v.028h.014v.023h.009l.014.051H98.9l.009.051h.018l.023.074h.009l.028.074c.271.506.5,1.053.736,1.6l.2.694v.064h.014v.051h.009v.06h.014v.064h.014v.06h.009v.074h.014v.064h.014v.074h.009v.087h.014v.074c.023.074.028.184.051.262v.1h.014v.1h.009v.1h.014v.124h.014v.124c.037.133.028.322.051.46,0,.216.014.432.023.648h.014v.359a1.458,1.458,0,0,1,.014.29v.984c0,.051.009.143-.014.17v.212a.834.834,0,0,0,.147-.064v-.009h.028v-.009h.037v-.014l.074-.023v-.014h.023v-.014l.041,0v-.009l.046-.014v-.009h.037v-.014l.051-.014v-.009h.037v-.014h.028v-.009h.037v-.014l.051-.014v-.014h.037v-.014h.023v-.009l.064-.014v-.014h.037v-.009h.028v-.014h.037V258.7h.023v-.009l.074-.014v-.014h.028v-.009l.074-.018v-.009h.023v-.014l.074-.009v-.014h.028v-.014l.074-.009v-.014l.028,0v-.009l.074-.014v-.009h.037V258.5l.037,0v-.009h.037v-.009h.028v-.014l.11-.023v-.014h.037v-.014h.037V258.4h.037v-.009h.041v-.014h.032v-.014l.041,0v-.009h.051v-.009l.074-.014v-.014l.037,0v0h.037v-.014h.037v-.014l.124-.023v-.014l.124-.028V258.2h.051v-.014l.138-.028v-.009l.087-.014v-.009l.037,0v-.009l.147-.023c.221-.083.492-.115.722-.189h.064c.092-.028.216-.046.313-.074h.074c.129-.041.3-.051.437-.087l.17-.014c.12-.032.281-.028.4-.064h.124v-.009l.124,0v-.009h.152v-.009h.17v-.014h.216V257.6h.4a1.551,1.551,0,0,1,.386,0,1.444,1.444,0,0,1,.322.014c.078,0,.152,0,.225,0v.009h.138l.023.009h.152v.014c.083,0,.166.009.248.018v0h.11v.014h.1c.133.041.3.037.437.074h.083c.189.055.414.069.6.124l.184.028v.009l.11.014v.014l.051,0v.009h.051v.009l.161.028c.074.023.175.046.248.074h.051v.014l.188.037v.009l.087.014v.014l.087.014v.009l.083.014v.014l.087.014v.009h.041v.014h.037v.014h.051v.009l.037,0v.009h.037v.014h.037v.009l.161.037v.014l.074.018v.009h.037v.009h.037v.014l.041,0v.009h.037v.014h.037v.009h.037v.014l.11.023v.014h.028v.014h.037v.009h.037v.014h.037v.014h.037v.014h.028v.009l.074.014v.014l.023,0v0l.078.014v.014h.023v.014l.074.009v.014l.064.014v.009l.023,0v.009l.074.014v.009l.028,0v.009l.037,0v.009l.051.009v.014l.06.014v.014h.037v.014h.028v.009l.037,0v.009l.051.009v.014h.037v.014l.051.009v.014h.037v.014h.023v.014h.028v.014h.023v.009h.037v.014l.074.023v.014h.028v.009h.037v.014h.028v.014l.046.014v.009h.014q-.007-.5-.014-.993a2,2,0,0,1,.014-.474v-.437h.014v-.285h.009l.014-.285v-.138h.014v-.175h.009l.014-.285h.014v-.124h.014v-.124c.041-.147.032-.34.074-.487v-.087c.018-.069.028-.166.051-.234v-.074c.018-.074.037-.175.06-.248v-.064h.014l.023-.161h.014l.028-.152h.009l.014-.1h.009l.028-.124h.009v-.037h.014v-.041h.014V253.9h.014v-.037h.014v-.037h.009v-.037h.014v-.037h.009v-.023h.014l.014-.078h.009l.014-.051h.014v-.037h.014v-.023h.014v-.037h.009l.014-.051h.014v-.037h.009l.014-.051h.014v-.037h.014l.009-.051h.014v-.037h.014l.009-.051h.014v-.037h.014l.009-.051h.014v-.037h.014l.014-.051h.009v-.037h.014l.014-.051h.014v-.023h.009v-.037h.014l.009-.051h.014V252.8h.014v-.037h.014l.009-.051h.014v-.028h.014v-.037h.014v-.023h.009l.037-.115h.014l.023-.074h.014v-.023h.014v-.037h.014l.009-.055h.014l.009-.046h.014l.014-.051H114v-.037h.014l.023-.074h.014v-.028h.009v-.023h.014v-.028h.014l.009-.046h.014v-.041h.014l.023-.074h.014l.023-.074h.014v-.023h.014v-.028h.009v-.023h.014V251.7h.014v-.023h.009l.014-.051h.014l.014-.051h.009l.028-.074h.009l.087-.2.028-.009.014-.051h.009v-.023h.014v-.028h.014v-.023h.009v-.023h.014v-.028l.028-.023v-.028l.023-.009v-.028l.023-.023v-.028h.014v-.023h.014v-.028l.023-.009v-.028l.028-.023v-.028h.009v-.023l.028-.014v-.023l.023-.023v-.028h.014v-.023l.023-.014v-.023l.028-.028v-.023l.023-.014.023-.074.028-.014.014-.046.023-.014.009-.051.028-.014.014-.051.023-.014v-.023H115v-.023h.014l.009-.037h.152v-.014h.3v-.014h.2v-.009h.161V250.2h.138v-.014l.11,0v-.009h.115c.106-.028.253-.028.359-.06l.161-.018v-.009l.138-.009v-.014l.124-.018v0h.064v-.014h.06v-.014h.051v-.014h.051v-.009l.11-.014v-.014l.1-.014v-.009l.138-.023V249.9h.037v-.014h.037v-.009l.161-.041v-.009h.028v-.014l.037,0V249.8h.023v-.014h.037v-.009l.051-.018v-.009h.028v-.009h.037v-.014h.023v-.014l.051-.009v-.014h.023v-.014l.023,0v-.009h.028v-.009h.028v-.014h.023v-.014l.051-.009V249.6l.2-.087.014-.028h.023l.023-.023h.028v-.014h.023l.014-.023.074-.023.014-.028.051-.014.014-.023.046-.014.014-.023.051-.014.014-.023h.023v-.014h.023l.014-.023h.028l.009-.028H119l.009-.023h.028l.014-.023h.023l.014-.028h.023l.014-.023h.023l.014-.028h.023v-.014l.037-.009.014-.028h.023l.014-.023.037-.014.028-.037h.023l.028-.037h.023l.023-.037h.028l.023-.037h.028l.051-.064h.023l.051-.06h.023l.1-.11h.023l.051-.064.11-.1.014-.037.074-.064v-.023l.051-.037v-.023l.037-.028v-.023l.037-.028v-.023l.028-.014.009-.051.028-.009v-.028l.023-.023V248h.014v-.023h.014v-.023h.009v-.028a.636.636,0,0,0,.078-.432v-.078h-.014v-.037h-.014v-.037h-.009v-.037h-.014l-.014-.051h-.014v-.023h-.009v-.028l-.028-.023v-.023l-.023-.014v-.028l-.028-.009v-.028l-.037-.023v-.028l-.074-.06-.087-.1h-.023l-.028-.037h-.023l-.014-.023-.037-.014v-.014l-.051-.009-.009-.028h-.028v-.014h-.023v-.009h-.037v-.014l-.051-.014v-.009h-.037v-.014H119.6v-.014l-.037,0v0h-.051v-.014h-.051v-.014H119.4v-.014h-.074V246.6h-.1v-.014c-.133,0-.271,0-.409,0v.009h-.124v.009H118.6v.014l-.074,0v.009h-.064v.014h-.06v.009h-.051v.014l-.064,0v.009h-.037v.009l-.1.014v.014l-.12.023v.014l-.037,0v.009h-.041v.009l-.074.014v.014h-.023v.009l-.078.014v.014h-.023v.014h-.037v.009h-.028v.014h-.037v.014l-.046.014v.009h-.041v.014l-.046.009v.014h-.037v.014h-.028v.014L117.4,247v.014h-.023v.014h-.023v.009h-.028v.014H117.3v.014h-.023v.014l-.2.087-.014.023-.074.023-.014.028-.074.023-.014.028-.046.009-.014.028-.051.009-.014.028-.037.014v.009l-.051.014-.009.023h-.028l-.009.028h-.028l-.014.023h-.023l-.014.028h-.023l-.014.023H116.5l-.014.023h-.023l-.028.041h-.023l-.014.023h-.023l-.028.037h-.023l-.014.028h-.023l-.014.023-.037.009-.037.055h-.028l-.023.032h-.028l-.023.041h-.023l-.037.046h-.028l-.037.051h-.023l-.051.064h-.023l-.064.074h-.028v.014l-.032.023-.028.037a4.534,4.534,0,0,0-.487.451,3.988,3.988,0,0,0-.469.5l-.115.1v.023l-.037.023-.037.051h-.014v.028h-.009a.207.207,0,0,0-.064.087l-.4-.014a1.46,1.46,0,0,1-.322-.014h-.138l-.313-.014v-.009h-.156v-.014h-.138v-.014h-.138v-.009h-.115V249.3c-.069,0-.138-.009-.212-.018v0h-.1v-.014h-.087c-.138-.041-.313-.046-.451-.087h-.074v-.014h-.06v-.009l-.064,0v-.009h-.051v-.014h-.06v-.014l-.11-.014v-.009h-.051v-.014h-.051v-.014l-.051,0v0l-.1-.014v-.014l-.179-.037v-.009L111,248.96v-.009h-.037v-.009h-.041v-.014h-.037v-.014l-.037,0v0h-.037v-.014h-.037v-.014l-.074-.014v-.014l-.115-.028v0h-.023V248.8h-.037v-.014h-.041v-.014l-.023,0v0h-.037v-.014l-.064-.014v-.009l-.023,0v-.009H110.3V248.7l-.051-.018v0h-.037v-.014l-.051-.014v-.009h-.037v-.014l-.074-.023v-.014h-.028v-.014H110v-.014h-.028v-.009h-.032v-.014l-.078-.023V248.5h-.023v-.014l-.051-.014-.014-.023-.051-.018v-.009H109.7v-.009h-.023l-.028-.028h-.023l-.014-.023h-.023l-.028-.028h-.023v-.009h-.023l-.014-.028-.051-.009-.014-.028-.051-.009-.009-.028-.051-.009-.014-.028h-.023l-.014-.023-.051-.014-.009-.028h-.028l-.009-.023h-.028l-.014-.023h-.023l-.014-.028h-.023l-.014-.023h-.023L109.03,248h-.023l-.014-.023h-.028l-.009-.023h-.028l-.023-.041h-.028l-.009-.023h-.028l-.009-.023-.037-.014-.028-.037h-.023l-.028-.037h-.023l-.023-.037h-.028l-.028-.041h-.023l-.023-.032h-.028l-.037-.051h-.023l-.037-.051h-.028l-.009-.028H108.4l-.014-.023h-.023l-.014-.023h-.014l-.009-.028h-.028l-.051-.06h-.023l-.051-.064h-.023l-.051-.06h-.023l-.051-.064H108l-.074-.087h-.028l-.06-.074h-.023l-.064-.074h-.023l-.064-.074h-.023l-.074-.092h-.028l-.138-.147a1.83,1.83,0,0,1-.258-.276h-.014l-.037-.051h-.014l.023-.046.028-.014v-.023l.037-.028.014-.037.023-.009v-.028l.028-.014.009-.037h.014v-.023l.023-.014v-.023l.028-.014v-.023l.023-.014v-.028l.028-.009v-.028l.023-.009V245.9h.014v-.023l.023-.014.028-.074.023-.014.023-.074.028-.014v-.023l.023-.028v-.023h.014v-.028h.014v-.023h.009v-.023h.014v-.028h.014v-.023h.009l.028-.074h.014v-.037h.009l.014-.051h.014v-.037h.009l.014-.051h.014v-.037h.009v-.028h.014l.014-.074h.009v-.028h.014l.124-.418V244.6h.014v-.051h.014v-.074h.009V244.4h.014l.028-.225v-.11a1.388,1.388,0,0,0,.009-.313v-.124h-.009l-.014-.322h-.014v-.1h-.014v-.087h-.009l-.014-.152h-.014v-.06h-.014v-.051h-.009V242.8h-.014v-.051h-.014l-.009-.1a2.024,2.024,0,0,0-.635-1.021l-.037-.051h-.028l-.009-.023h-.028l-.014-.028-.046-.009-.014-.028-.051-.009v-.014l-.051-.014v-.014l-.262-.074c-.115,0-.23,0-.345,0v.009h-.064v.014h-.06l-.239.1-.009.028h-.028l-.014.023h-.023l-.2.189v.023l-.037.023v.028l-.041.023v.028l-.023.009-.014.051-.023.014v.023l-.028.028v.023h-.009v.023h-.014l-.023.078h-.014v.037h-.014v.023h-.014v.037h-.009v.028h-.014v.037h-.014v.037H105.4v.037h-.014v.037h-.014l-.014.087h-.009l-.023.147h-.014c-.028.156-.051.308-.078.464l-.023.359v.161a2.018,2.018,0,0,0,0,.552l.014.3c.032.184.064.372.1.556l.2.6h.009l.014.051h.014v.028h.014v.032h.009l.028.078h.009v.023h.014v.028h.014v.023h.014v.028h.009v.023l.028.023v.028l.023.009.023.078.028.009v.028h.014v.023h.009l.014.037.028.014v.028l.023.009c.032.051.046.115.1.147v.028l-.239.225-.087.1h-.023l-.014.028h-.014l-.051.06h-.023l-.064.078h-.023l-.064.074h-.023l-.06.074h-.028l-.06.074h-.028l-.06.078h-.028l-.06.074h-.028l-.046.06h-.028l-.051.064h-.023l-.051.06h-.023l-.037.051H104.7l-.046.064h-.028l-.037.051h-.028l-.037.046H104.5l-.014.028-.037.014-.037.046h-.028l-.023.041h-.023l-.028.032h-.023l-.028.041h-.023l-.023.037h-.028l-.014.023h-.023l-.028.037H104.1l-.009.028h-.028l-.023.037h-.028l-.009.023-.037.018v.009h-.028l-.014.023H103.9l-.014.023h-.023l-.014.028h-.023l-.014.023-.037.014v.014l-.051.009-.014.028-.037.014v.009l-.051.014-.009.023-.051.014-.014.023-.051.014-.014.023h-.023l-.023.028-.028,0v.009h-.023l-.014.023-.051.018v0H103.3v.014h-.023l-.028.023h-.023l-.014.028-.051.018v.009h-.023v.009l-.074.028v.009h-.041v.014l-.074.028v.009h-.023v.014H102.9v.014h-.037v.009h-.023v.014h-.023v.014h-.028v.009h-.037v.014l-.051.014v.014h-.037v.009l-.028,0v.009l-.06.014v.009l-.074.018v.009h-.028v.014l-.11.023v.009h-.023v.014l-.115.028v.014H102.2v.009h-.037v.014l-.037,0v.009l-.124.023v.014l-.087.009V249l-.087.014v.009l-.152.028c-.152.051-.34.074-.5.124l-.92.138h-.124v.009h-.124v.014h-.152v.014h-.124l-.037,0v0h-.2v.014l-.487.014c-.055,0-.166-.014-.2.014h-.285l-.051-.064h-.014v-.023l-.087-.078v-.023l-.1-.087a2.409,2.409,0,0,0-.313-.336l-.074-.087-.037-.023v-.028l-.041-.023-.009-.023a2.337,2.337,0,0,1-.248-.225l-.064-.078h-.023l-.115-.124h-.023l-.074-.087h-.028l-.06-.074h-.028l-.06-.074h-.028l-.037-.051h-.023l-.037-.05H96.93l-.037-.051h-.023l-.014-.023h-.009l-.014-.023h-.028l-.023-.041H96.76l-.028-.032H96.71l-.028-.041h-.023l-.028-.037h-.023l-.014-.023h-.023l-.028-.037h-.023l-.014-.028-.037-.009v-.014h-.023l-.014-.023h-.023l-.014-.028h-.023l-.014-.023-.037-.014v-.014H96.3l-.014-.023h-.023l-.009-.028-.051-.009-.014-.028-.051-.009-.009-.028-.078-.023-.014-.028-.074-.023-.009-.023h-.028l-.023-.028-.028,0v-.009H95.85v-.009h-.028V247.1H95.8v-.014l-.023,0v0h-.028v-.014h-.023v-.014l-.028,0v-.009l-.046-.009v-.014h-.028V247l-.037,0v0l-.051-.014v-.014H95.5v-.014l-.051-.009v-.014c-.156-.055-.313-.106-.469-.161H94.93c-.064-.023-.147-.041-.212-.064H94.64v-.009h-.074v-.014h-.087v-.014l-.124,0v0h-.423v.009h-.11v.014l-.087,0v.009H93.67v.009h-.046v.014h-.055v.014l-.046,0v0l-.115.032v.009h-.023v.009h-.037v.014l-.074.023v.014h-.028v.014h-.023v.014l-.074.023-.014.028-.051.009-.023.037h-.028l-.023.037h-.028l-.046.064h-.028l-.009.023-.078.064v.023l-.06.051v.028l-.023.009-.018.037h-.009v.028l-.028.009a.651.651,0,0,0-.037.46Zm22.985,1.384h.014l.014-.037.023-.014v-.023l.041-.028v-.023l.046-.037v-.028l.037-.023v-.028l.051-.037V249l.064-.051v-.023l.06-.051v-.028l.074-.06v-.023l.1-.087a2.514,2.514,0,0,1,.285-.3l.152-.161h.023l.074-.092h.028l.051-.06h.023l.037-.051h.028l.037-.051h.023l.028-.037H117l.028-.037h.023l.014-.023h.023l.014-.028h.023l.014-.023h.023l.014-.028.023,0v0h.028l.009-.023.051-.014.014-.028h.023l.028-.023.023,0v-.009h.028l.009-.023.051-.018v-.009l.051-.009v-.014l.037,0v-.009l.074-.023v-.014l.028,0v-.009l.06-.009v-.014h.028v-.014l.037,0v0h.023v-.014l.115-.023v-.014h.023v-.014l.124-.023V247.4h.037v-.014h.037v-.009h.051v-.014l.051,0v-.009h.051v-.014h.051v-.009h.06a1.873,1.873,0,0,1,.97-.028h.051v.014h.023v.014h.041v.009l.023,0v.009h.023v.014h.028l.014.023.023,0v.009l.051.037v.028h.009l.028.06a.361.361,0,0,1,0,.2h-.014v.028h-.014l-.009.06-.028.014-.009.051-.037.023v.023l-.041.028v.023l-.175.161-.06.078h-.028l-.046.06h-.028l-.037.051-.037.014-.014.023h-.023l-.014.028h-.023l-.028.037h-.023l-.014.023-.037.018v0l-.051.014-.009.028-.051.014-.014.023-.051.014-.009.023h-.028l-.023.028h-.028v.009h-.023v.014h-.028v.014H118.6v.009h-.023v.014h-.028v.014h-.023v.009H118.5v.014h-.028v.014l-.051.014v.009l-.023,0v.009h-.037v.014l-.051.009v.014l-.037,0v.009h-.028v.014h-.037v.009h-.023v.014h-.041v.009h-.023v.014l-.074.018v.009h-.023v.014l-.115.028v.009h-.037v.009h-.037v.014H117.8v.014l-.124.023v.014l-.087.014v.009l-.138.023v.014l-.1.014c-.143.046-.317.069-.464.11l-.147.014c-.12.037-.276.042-.4.074h-.1v.014l-.1,0v.009h-.11v.009h-.124a1.04,1.04,0,0,1-.276.028Zm-4.378,7.009-.014.133h-.009c-.055.327-.1.648-.152.97a.606.606,0,0,1-.189-.06l-.11-.023v-.014l-.074-.014v-.014H110.7v-.009l-.041,0v-.009h-.037v-.014l-.124-.028v-.009l-.124-.023v-.014l-.051,0v-.009h-.037v-.009h-.051v-.014h-.046c-.184-.064-.4-.1-.589-.161h-.06v-.014h-.051v-.014h-.064v-.009h-.06v-.014h-.06v-.014l-.9-.138h-.1v-.009h-.124v-.014l-.11,0v-.009l-.437-.023V256.7l-.248-.009h-.124c-.064-.023-.179,0-.253-.014v-.014h-.221l-.326-.014v.014h-.409v.014h-.262v.014h-.212v.009h-.175v.014l-.161,0v.009h-.138v.009h-.133v.014h-.124v.014l-.115,0v0h-.11c-.143.041-.322.037-.46.078l-.161.009c-.064.023-.152.032-.212.051h-.064v.014l-.189.023c-.166.055-.359.083-.52.138l-.239.051v.014a1.369,1.369,0,0,0-.175.041v.009l-.124.023v.014l-.037,0v0h-.037v.014h-.037v.014l-.124.023v.014h-.037v.014h-.037v.009h-.037v.014H102.1v.014h-.041v.009h-.037a.261.261,0,0,1-.11.037l-.051-.4h-.009v-.087h-.014v-.074h-.014v-.078h-.014V256.7l-.124-.648.29-.133h.032v-.014l.051-.014v-.009h.041v-.014l.023,0v-.009h.037v-.009h.037v-.014h.023v-.014l.078-.014V255.8h.023v-.014l.11-.023v-.014h.028v-.014l.11-.023V255.7h.037v-.014h.037v-.009h.041v-.014h.037v-.014h.037v-.014l.161-.037v-.009l.051,0v-.009h.037v-.014h.037v-.009l.087-.018v-.009l.138-.023v-.014l.051,0v-.009l.147-.023v-.014h.051v-.014h.051v-.009h.051V255.4l.051,0v-.009c.3-.055.6-.115.906-.175l.175-.009c.115-.037.276-.028.4-.064h.124v-.009h.124v-.014c.051,0,.106,0,.161,0V255.1l.423-.014a1.288,1.288,0,0,1,.271-.009h.51a1.394,1.394,0,0,1,.248.009c.074.023.189,0,.253.014h.175v.014h.161v.014l.124,0v0h.124v.014h.11v.014h.1v.009h.1c.1.032.235.037.336.064h.083c.166.051.363.06.524.11l.124.018v.009l.212.037v.009h.051v.014h.051v.014l.051,0v.009h.051c.143.046.308.083.446.133l.212.055v.009h.037v.014h.037v.009l.037,0v.009h.037v.014h.037v.014l.078.014v.009h.023v.014h.037v.009l.037,0v.009l.041,0v.009h.037v.009h.023v.014l.074.014v.014h.028v.009h.037v.014h.023v.014l.078.009v.014l.046.018v0l.037,0v.009h.028v.014h.037v.014l.051.014V256h.023v.009h.041v.014l.074.028A1.468,1.468,0,0,1,111.283,256.309Zm-5.463-12.072-.028-.166a2.011,2.011,0,0,1-.051-.731v-.212h.014V243h.014v-.1h.014l.009-.161h.014v-.064h.014v-.051h.014v-.051h.009v-.046h.014v-.037h.014v-.051h.009v-.028h.014l.009-.074h.014l.014-.051h.014v-.037l.023-.014.023-.074.028-.009v-.028l.124-.147h.023l.028-.037h.023l.014-.028.023,0v-.009l.051-.009v-.014l.074-.014v-.009h.078v-.014a.831.831,0,0,1,.322.051l.064.009.009.028h.028l.014.023h.023l.023.037.064.051v.028l.037.023v.023l.023.014.028.074h.009v.028h.014v.037h.014v.023h.014v.037h.009v.028h.014v.046h.014v.041h.009v.051h.014v.046h.014v.064h.014v.06h.009v.078h.014v.087h.014v.11h.009v.161c.023.074-.009.2.014.276a.867.867,0,0,1,.014.271h-.014v.188h-.014v.1h-.009v.078h-.014v.074h-.014v.064c-.041.143-.083.29-.124.432H107.1v.028h-.009l-.014.074h-.014v.023h-.009v.037h-.014l-.014.051h-.014v.037H107v.028h-.014l-.014.051h-.009v.037h-.014l-.023.074h-.014v.028H106.9l-.023.069-.028.018v.023l-.023.023v.028h-.014v.023l-.023.014-.028.074-.023.014-.014.051-.023.009v.028l-.028.009-.009.051-.028.014a.567.567,0,0,1-.1.152v.009h-.014l-.028-.037h-.009v-.028l-.028-.009v-.028l-.023-.009v-.028l-.028-.014v-.023l-.023-.009v-.028l-.023-.014-.014-.046-.023-.014-.014-.037H106.3l-.023-.078-.028-.009v-.028h-.009v-.023l-.028-.014v-.023l-.023-.023v-.028h-.014v-.028l-.023-.009v-.023l-.028-.028v-.028h-.009v-.023h-.014v-.023h-.014v-.023h-.009l-.028-.078h-.014v-.037h-.009v-.023h-.014l-.014-.051h-.014V244.7h-.009v-.028h-.014C105.917,244.522,105.871,244.38,105.82,244.237Zm-6.636,5.974.239-.014v-.014l.133,0v-.009h.115v-.009h.11v-.014h.1v-.014h.1c.078-.023.189-.028.262-.051l.161-.009v-.014l.152-.014c.138-.041.313-.055.446-.1l.064,0v-.009h.06v-.014h.051v-.009h.051V249.9h.06v-.014h.051v-.009h.051v-.014h.051v-.014h.051v-.014h.051v-.009h.037v-.014l.1-.014v-.014l.179-.037v-.009l.124-.032v0h.032v-.014h.041v-.014l.037,0v-.009h.037v-.009h.051v-.014h.037v-.014h.037v-.009h.037V249.6h.037v-.014h.028v-.014l.037,0v0h.037v-.014h.037v-.009h.037v-.014l.023,0v-.009l.078-.014v-.014h.023v-.009l.078-.014v-.014h.023v-.009l.037,0v-.009h.023v-.014h.041V249.4l.06-.018v-.009h.023v-.014h.041v-.009h.023v-.014h.037v-.014l.051-.009V249.3h.037v-.014l.051-.009v-.014h.023v-.014h.037v-.014l.078-.023V249.2l.023,0v0l.037,0v-.009h.023v-.014l.051-.014v-.009h.028v-.014h.023v-.014h.023V249.1l.028,0v-.009l.051-.014v-.014l.051-.009v-.014l.051-.014v-.009l.046-.018v-.009h.028v-.009h.023v-.014l.028,0v-.009h.023l.023-.023.051-.014.014-.023h.023l.028-.028h.023v-.014H104v-.009h.023l.014-.023h.023V248.8l.051-.014.009-.023.078-.028.014-.023.046-.014.014-.023h.028v-.014h.023l.014-.023.046-.014.014-.023.037-.014v-.014l.051-.014.014-.023.037-.014v-.009l.051-.014v-.014l.037-.014.009-.023h.028l.014-.028.037-.009V248.4h.023l.014-.023h.023l.014-.028.037-.014v-.009h.028l.009-.028h.028l.023-.037h.028l.009-.023.037-.014v-.009h.028l.023-.041h.023l.028-.037h.023l.014-.023h.028l.009-.028.037-.009.028-.037h.023l.014-.028L105.3,248l.028-.037h.023l.037-.051.037-.009.014-.028h.023l.037-.046h.028l.037-.051h.023l.037-.051h.028l.051-.06h.023l.051-.064h.023l.064-.074h.023l.064-.074h.023l.074-.087h.028l.087-.1h.023l.014-.023h.014l.1-.115h.028l.009-.023.115-.1.023-.037h.023c.037-.023.051.023.078.051l.051.037v.014h.023l.1.11.037.023v.014h.023l.1.11h.023l.074.087h.028l.074.087h.028l.06.078h.028l.046.06h.028l.051.06h.023l.051.064h.023l.037.051h.028l.023.037h.028l.037.051h.023l.014.023h.014l.009.028h.028l.023.037h.023l.028.037h.023l.028.037h.023l.023.037.037.014.014.023h.028l.009.028h.028l.023.037h.028l.009.023h.028l.023.037h.028l.009.028.041.009v.014h.023l.014.023h.023l.014.028.037.014v.009h.023l.014.028h.023l.014.023h.023l.014.023h.028l.009.028h.028l.009.028h.028l.014.023.046.014.014.023h.023l.014.028.051.009.014.028.051.009.009.028.051.009.014.028.051.014.009.023.078.023.009.028h.028l.023.023h.028v.014h.023l.014.023h.023l.023.028.078.023.014.028h.023l.023.023h.028v.014h.023v.009h.028V249h.023v.014h.023v.009l.028,0v.009h.023v.014h.023v.009h.028v.014h.023v.014l.051.014v.009l.051.014v.014l.051.014v.009l.023,0v.009h.037v.014l.078.028v.009h.023v.009h.037v.014l.028,0v.009h.023v.014h.023v.009h.041v.014l.046.014v.009h.037v.014l.051.018v0h.041v.014h.023v.014h.037v.014l.06.009v.014h.028v.014h.037v.009h.023v.014l.078.014v.009h.023v.014l.074.014v.014h.028v.014h.037v.009h.037v.014h.037v.009h.037v.014h.037c.2.083.428.138.635.211h.051v.014h.051v.014h.051v.009h.051v.014h.037v.014l.11.014v.009h.051v.014h.051v.014l.051,0v0l.11.014v.014l.184.023v.014c.064.009.129.014.189.028v.009h.074v.014h.064v.009h.074v.014l.074,0v.009h.087c.1.028.244.032.35.06h.1c.133.041.322.023.46.064.051.014.124-.018.161.014h.064l-.028.037H113.8v.023l-.028.014v.023l-.037.023v.028l-.037.028v.023l-.023.014v.023l-.041.028v.023l-.023.014v.023l-.037.023v.028l-.028.014-.009.037h-.014v.023l-.037.023v.028l-.028.009-.009.041h-.014v.023l-.023.014v.023l-.028.014v.023l-.028.014v.023l-.023.014-.014.037h-.009v.023l-.023.014v.028l-.028.009v.028l-.028.014v.023l-.023.014-.014.051-.023.009v.028l-.023.009v.028l-.028.009-.009.051-.028.014-.014.037h-.009l-.014.051-.023.014-.014.051-.023.009-.014.051-.023.014-.014.046-.028.014-.009.051-.028.014-.023.074-.028.014-.023.074a11.064,11.064,0,0,0-.713,1.421v.037h-.009v.037h-.014v.023h-.009v.037h-.014l-.014.074c-.11.253-.175.547-.271.809v.051h-.014l-.028.138h-.009l-.028.138h-.009v.037h-.014l-.014.1c-.028.087-.055.2-.087.294v.064h-.009v.051h-.014c-.014.041,0,.069-.023.1v.014l-.115-.037v-.014l-.06-.014v-.009h-.028v-.014h-.037v-.009l-.051-.018V255.1h-.037v-.014h-.023v-.009h-.041v-.014l-.023,0v-.009h-.037v-.009h-.023v-.014l-.037,0v-.009h-.028V255l-.074-.009v-.014l-.028,0v-.009h-.037v-.014h-.023v-.009h-.037c-.244-.1-.51-.184-.759-.276h-.051v-.009l-.161-.037V254.6l-.037,0v-.009h-.041v-.009l-.17-.041v-.009l-.1-.014c-.133-.046-.3-.078-.437-.124l-.11-.014c-.143-.046-.317-.069-.46-.11l-.138-.014v-.014l-.147-.009c-.124-.037-.29-.041-.414-.078h-.1v-.009h-.115v-.014l-.124,0v-.009h-.124v-.009l-.386-.014a1.27,1.27,0,0,0-.271-.014,2.577,2.577,0,0,0-.538.014c-.074,0-.147,0-.221,0v.009h-.166c-.138.037-.322.023-.46.06l-.189.014-.768.138v.014l-.115.009v.014h-.06v.009h-.051v.014l-.051,0v.009h-.06v.014l-.248.046v.014h-.051v.014H103.6v.014h-.051v.009H103.5v.014l-.138.023v.014l-.083.014v.014l-.087.009v.014l-.087.014v.009h-.037v.014h-.041v.014h-.046v.009h-.037v.014H102.9v.014h-.037v.014h-.037v.009h-.051v.014l-.074.014v.009l-.037,0v.009h-.037v.014H102.6v.009h-.041v.014l-.037,0v.009h-.037v.009l-.11.032v.009h-.023v.009h-.037v.014l-.041,0v.009h-.037v.009H102.2v.014h-.023v.014l-.074.009v.014h-.041v.014h-.023v.014l-.037,0v0h-.037v.014h-.028v.014H101.9v.014h-.023v.009l-.074.014v.014l-.064.009v.014h-.023v.014h-.041v.014l-.023,0v0l-.147.051a1.767,1.767,0,0,0-.064-.248v-.064h-.014v-.051h-.009v-.046H101.4v-.051h-.014v-.051h-.014v-.037h-.009l-.028-.147c-.037-.11-.074-.244-.11-.349v-.051h-.014v-.037H101.2v-.037h-.014v-.051h-.014v-.037h-.009v-.037h-.014v-.042h-.014v-.032h-.014v-.041h-.009v-.046H101.1l-.014-.078h-.009v-.023h-.014l-.014-.074h-.009v-.037h-.014v-.041h-.014v-.037H101v-.037h-.009v-.023h-.014l-.014-.078h-.009v-.023h-.014v-.037h-.014v-.023h-.014l-.009-.078h-.014v-.023h-.014v-.037h-.014l-.009-.051h-.014V253h-.009l-.014-.051H100.8v-.037h-.014l-.009-.051h-.014v-.023h-.014V252.8h-.014l-.023-.078H100.7V252.7h-.009v-.028h-.014v-.023h-.014v-.037h-.014v-.028h-.009l-.014-.046h-.014v-.028H100.6v-.023h-.014v-.028h-.009v-.023h-.014v-.023h-.014v-.028h-.014v-.023h-.014v-.023l-.023-.028v-.028l-.023-.009v-.028l-.028-.023V252.2h-.009v-.023h-.014v-.023h-.014l-.023-.078-.028-.009v-.028l-.023-.023-.014-.051-.023-.014v-.023l-.028-.023v-.028h-.009v-.023l-.028-.014-.023-.073-.028-.014-.009-.051-.028-.009-.009-.051-.028-.014-.023-.074-.028-.014v-.023h-.014v-.028l-.023-.009-.014-.037h-.009l-.014-.051-.023-.014v-.028h-.014v-.023l-.023-.014-.014-.037h-.014l-.014-.051-.023-.009v-.028l-.023-.009v-.028l-.028-.009v-.028L99.8,251.1l-.014-.046-.023-.014v-.028l-.028-.009v-.028l-.023-.014v-.023l-.028-.014v-.023h-.009l-.014-.037-.023-.014v-.023L99.6,250.8v-.023l-.028-.014v-.023l-.023-.014v-.023h-.014l-.014-.037-.023-.014v-.023l-.037-.028v-.023l-.028-.014v-.028l-.037-.023V250.5l-.023-.014v-.023l-.037-.028v-.023l-.028-.014v-.023l-.037-.028v-.023l-.037-.023c-.023-.032-.023-.055-.051-.078ZM93.5,247.645h.009v-.023l.028-.014a.689.689,0,0,1,.432-.262l.152-.014v-.009c.046-.014.106.009.138-.014a2.749,2.749,0,0,1,1.656.51l.037.051h.023l.051.06a2.7,2.7,0,0,1,.336.313,3.9,3.9,0,0,1,.437.474l.074.06v.028l.06.046v.028l.051.037v.028l.051.037V249l.051.037v.023l.051.041v.023l.023.014.014.037.046.037v.023l.041.028a.266.266,0,0,0,.051.074v.014a.868.868,0,0,1-.225-.028h-.124v-.009h-.1V249.3h-.11v-.014l-.087,0v0h-.1c-.11-.037-.262-.041-.372-.078l-.138-.014v-.009l-.124-.014v-.009l-.11-.014v-.014h-.051v-.014h-.051V249.1l-.161-.028-.7-.225v-.009h-.023v-.014l-.037,0v0h-.028V248.8h-.037v-.014l-.046-.018v0H94.64v-.014h-.023v-.014l-.051-.014v-.009h-.023V248.7h-.028v-.014l-.023,0v0H94.47v-.014h-.028v-.014H94.42v-.009h-.028v-.014l-.023,0v-.009h-.028l-.023-.023h-.028l-.009-.028-.074-.023-.014-.023h-.023V248.5h-.028v-.014l-.037-.014-.014-.023H94.07v-.014l-.037-.014-.014-.023H94l-.028-.037h-.023l-.014-.028h-.023l-.037-.046h-.028l-.037-.051h-.023l-.1-.115-.087-.074v-.023L93.56,248l-.014-.046-.023-.014v-.037h-.014v-.028H93.5A.343.343,0,0,1,93.5,247.645Z" transform="translate(-86.381 -241.372)" fill="#c9dcb7"/>
    <path id="Path_21393" data-name="Path 21393" d="M100.657,262.563h-.014v-.188h-.014v-.152h-.009v-.147h-.014v-.124h-.014v-.138h-.009v-.11h-.014l-.014-.239h-.009v-.1h-.014v-.11c-.041-.152-.032-.34-.078-.487l-.009-.189c-.037-.129-.037-.294-.074-.423v-.087c-.037-.12-.041-.276-.078-.4v-.087h-.009l-.028-.225c-.06-.2-.06-.455-.124-.658v-.078h-.014v-.074h-.009v-.074H100.1v-.064h-.014v-.074h-.009v-.064h-.014V258.2h-.014v-.074h-.009v-.06h-.014v-.078c-.037-.12-.051-.276-.087-.4v-.074c-.023-.078-.041-.189-.064-.262v-.074c-.078-.262-.092-.575-.175-.837v-.074c-.023-.074-.037-.175-.06-.248l-.074-.451c-.078-.239-.092-.529-.166-.773v-.074c-.014-.06-.028-.147-.046-.212v-.074c-.028-.087-.037-.212-.064-.3v-.074c-.037-.12-.041-.281-.074-.4L99.2,253.5c-.055-.189-.046-.432-.1-.621v-.1c-.051-.179-.032-.414-.083-.593L99,251.958c-.051-.166-.028-.391-.074-.561v-.124h-.014v-.124H98.9v-.124h-.014V250.9h-.009v-.138h-.014v-.138H98.85v-.138h-.014v-.133h-.009L98.8,249.9H98.79v-.147h-.014v-.166h-.014v-.175h-.009v-.156H98.74v-.189h-.014v-.124l-.009-.248H98.7l-.014-.4H98.68v-.138l-.014-.308h-.014c-.018-.069,0-.179-.014-.239v-.262h-.009l-.014-.409v-.175a1.412,1.412,0,0,1-.014-.285v-.051h-.009v-.359c-.009-.106-.014-.244-.014-.363v-.175a1.758,1.758,0,0,1-.014-.386H97.158c0,.313-.009.616-.023.911v.35h-.014v.037a1.549,1.549,0,0,1-.014.3v.3H97.1v.285h-.014c-.018.074,0,.184-.014.248v.248h-.009v.225h-.014v.211h-.014v.138l-.009.271h-.014l-.014.373h-.014v.179h-.009v.17H96.96v.161h-.014v.166h-.009v.161h-.014v.147h-.014v.152H96.9v.138h-.009l-.028.423H96.85v.12h-.014V251h-.014v.124h-.014v.129H96.8v.11h-.014v.124h-.014v.11h-.009v.115h-.014v.124h-.014v.1c-.046.161-.028.368-.074.524l-.014.2c-.046.17-.037.391-.087.561v.087c-.051.179-.046.4-.1.584v.087c-.028.092-.037.221-.064.313v.074h-.014v.064h-.009v.074h-.014v.074h-.014v.074h-.009v.064h-.014v.074h-.014v.074H96.3l-.028.2c-.064.216-.078.478-.147.694l-.064.386c-.023.074-.041.175-.064.248v.078H95.99l-.023.184c-.074.225-.083.5-.152.722v.074c-.023.078-.037.184-.064.262-.023.161-.046.327-.074.483-.051.175-.06.391-.11.561v.078h-.014v.074h-.014v.074H95.53v.078c-.018.064-.032.156-.051.221v.074c-.018.064-.032.161-.051.225v.087c-.028.092-.032.221-.06.313l-.014.175c-.046.152-.041.354-.087.506l-.014.189c-.041.152-.032.35-.074.5v.115h-.014v.1h-.009v.124h-.014v.11H95.13v.138h-.014v.124h-.009v.138h-.014v.156h-.014v.166H95.07v.2h-.014l-.014.437v.175a2.069,2.069,0,0,0,0,.533l.014.46h.014v.152h.009v.11h.014v.1h.014v.087h.009v.087c.018.055.032.138.051.2v.06h.014v.051h.014v.051H95.2v.051h.014v.051h.014v.046h.014v.041h.009v.046h.014v.041h.014v.037h.009v.037H95.3l.014.074h.014v.023h.009l.028.115h.009v.023h.014v.037h.014v.028h.014v.037h.009v.023h.014v.037h.014l.009.051h.014v.037h.009l.014.051h.014v.041h.014l.023.069h.014v.028h.014v.023h.009v.037H95.6l.023.078h.014v.023h.014v.023h.014v.028h.009v.023h.014v.028H95.7v.023h.009v.023h.014v.028h.014v.023l.023.028v.023l.023.014.014.051h.014v.023h.014v.028l.023.023v.023l.023.014v.028l.028.023.014.051.023.009.028.078.023.009.028.078.023.009.014.051.023.014.014.051.023.009.014.051.023.014.014.051.023.014.014.046.023.014.014.037h.014l.009.051.028.014v.023l.023.014v.023l.028.014.009.051.028.014v.023l.023.009v.028l.023.014v.023l.028.014v.023l.023.014v.023l.028.014v.028l.023.009v.023l.028.014v.028l.023.009v.028l.023.014v.023l.028.009v.028h.014l.009.037.028.014v.023l.037.028v.023l.023.014.014.037h.014v.023l.037.028v.023l.023.014.014.037h.014v.023l.037.028v.023l.023.014v.023l.037.028.014.037.023.014v.023l.028.014v.023l.037.028v.023l.037.023v.028l.037.023v.028l.037.023v.028l.041.023v.023l.037.028v.023l.032.028v.023l.055.037v.028l.032.023v.023l.041.028v.023l.023.014v.014l.028.009v.028l.046.037v.023l.051.037v.028l.051.037v.023l.051.037v.028l.051.037v.023l.06.051v.023l.023.014.064.087h.037l.014-.037.06-.051v-.023l.064-.051v-.023l.051-.037v-.028l.051-.037v-.023l.051-.041v-.023l.046-.037v-.023l.051-.041v-.023l.051-.037v-.028l.037-.023v-.028l.051-.032v-.028l.037-.028.014-.032.023-.014v-.028l.037-.023v-.028l.037-.023v-.023l.041-.028v-.023l.037-.028v-.023l.037-.023v-.028l.037-.023.014-.037.023-.014v-.023l.023-.014V268.5l.041-.028v-.023l.023-.014v-.023l.037-.028v-.023l.023-.014v-.023l.041-.028v-.023l.023-.014v-.023l.037-.028v-.023l.028-.014v-.023l.023-.014v-.028h.014l.009-.037.028-.009v-.028l.037-.023v-.023l.023-.014.014-.037h.014v-.028l.023-.014v-.023l.023-.009.014-.041h.014V267.8l.023-.014v-.023l.028-.014.009-.051.028-.014v-.023l.023-.009v-.028l.028-.014v-.023l.023-.014.014-.046h.014l.009-.041.028-.009v-.028l.023-.014v-.023h.014v-.023l.023-.014.014-.051.023-.014.014-.046.023-.014.014-.051.023-.014.014-.046.028-.014.009-.051.028-.014.023-.074.028-.009v-.028l.023-.028V266.9l.023-.009v-.028l.028-.023v-.028h.014v-.023l.023-.014.087-.2.023-.014.028-.074h.014v-.028h.009v-.023h.014l.023-.074h.014v-.041h.014l.023-.074h.014v-.023h.014V266.2h.009v-.023h.014v-.037h.014v-.023h.009v-.028h.014v-.023h.014v-.037h.009l.014-.051h.014v-.037h.014v-.028h.009v-.037h.014v-.023h.014v-.037h.009V265.8h.014v-.037h.014v-.023h.014l.023-.115h.014v-.037h.009v-.037h.014v-.037h.014v-.037h.009v-.037h.014V265.4h.014v-.051h.009v-.037h.014v-.051h.014v-.051h.014v-.051h.014l.009-.124h.014l.014-.124h.009v-.074h.014v-.087h.014v-.087h.009l.028-.372h.014v-.2h.009v-.671a2,2,0,0,0-.009-.409Z" transform="translate(-77.746 -227.786)" fill="#c9dcb7"/>
    <path id="Path_21394" data-name="Path 21394" d="M109.648,262.621v.009h-.363a1.446,1.446,0,0,1-.487,0h-.322v-.014h-.2V262.6h-.147v-.014h-.124v-.009h-.1v-.014h-.1v-.014h-.087c-.083-.023-.2-.032-.285-.06h-.064v-.014h-.051v-.009h-.046v-.014l-.051,0v-.009h-.051v-.014h-.051v-.009h-.037V262.4l-.051,0v-.009l-.11-.028v-.009h-.037v-.009h-.037v-.014h-.037v-.014h-.041V262.3h-.037v-.009H106.7v-.014l-.161-.037v-.014h-.051v-.014h-.037v-.009h-.037v-.014h-.051c-.253-.092-.538-.166-.786-.262l-.221-.06v-.014h-.023v-.014l-.041,0v-.009l-.074-.009v-.014h-.023V261.8h-.037v-.014l-.078-.014v-.014h-.023v-.009h-.037v-.014h-.028v-.014h-.037v-.014l-.023,0v0l-.037,0v-.009l-.064-.014v-.009h-.023v-.014h-.037v-.014h-.028v-.009H104.7v-.014l-.051-.014v-.014h-.037v-.009l-.051-.018v-.009h-.037v-.009l-.074-.028V261.5h-.023v-.014H104.4v-.014l-.078-.023v-.014h-.023v-.014l-.023,0v-.009h-.041V261.4h-.023v-.014l-.051-.014v-.009h-.023v-.014h-.028v-.014h-.023v-.009h-.023v-.014h-.028V261.3h-.023v-.009h-.028v-.014h-.023v-.014h-.028l-.023-.023h-.023l-.014-.028h-.023l-.028-.023-.023,0v-.009h-.028v-.009h-.023l-.028-.028H103.7l-.014-.028-.074-.023-.014-.023-.074-.028-.014-.023-.074-.028-.014-.023-.046-.014-.014-.023h-.023v-.014h-.028l-.009-.023-.041-.014v-.009l-.051-.014-.009-.028h-.023l-.014-.023-.051-.014-.014-.023h-.023l-.014-.028h-.023l-.014-.023H103l-.009-.028h-.028l-.009-.023h-.028l-.009-.023h-.028v-.014l-.037-.014-.014-.023h-.023l-.023-.037h-.028l-.014-.028h-.023l-.023-.037h-.028l-.014-.023h-.023l-.014-.028-.037-.009-.023-.037h-.028l-.023-.041h-.023l-.028-.037h-.023l-.041-.051-.037-.009-.014-.028h-.023l-.009-.023H102.3l-.014-.023h-.023l-.037-.051H102.2l-.023-.037h-.014l-.014-.028h-.023l-.064-.073h-.023l-.06-.074a3.2,3.2,0,0,1-.451-.414,2.556,2.556,0,0,1-.308-.322l-.138-.124v-.023l-.1-.092v-.023l-.074-.06v-.028l-.074-.06v-.023l-.055-.041v-.023l-.06-.051v-.023l-.051-.041v-.023l-.051-.037v-.028l-.023-.009-.009-.037-.051-.037v-.028l-.041-.023v-.028l-.037-.023v-.028l-.037-.023v-.023l-.037-.028v-.023l-.023-.014v-.023l-.037-.028v-.023l-.028-.014v-.023l-.037-.028V258l-.023-.014-.014-.037h-.014v-.023l-.037-.028v-.023l-.023-.014-.014-.037h-.014V257.8l-.023-.009v-.023l-.028-.014-.009-.041h-.014v-.023l-.023-.009v-.028l-.028-.009-.014-.051-.023-.014v-.023l-.023-.014v-.028l-.028-.009-.014-.051-.023-.014-.014-.037h-.009v-.023h-.014v-.028l-.023-.009-.014-.051-.023-.014-.014-.051-.028-.014-.009-.046-.028-.014-.023-.074-.028-.014-.023-.074-.023-.014-.028-.073-.023-.014-.014-.051h-.014v-.023h-.014v-.023l-.023-.028v-.023l-.023-.014v-.023l-.028-.028v-.023h-.009v-.028h-.014v-.023H99.4v-.028h-.009v-.023h-.014v-.023h-.014V256.5h-.014v-.023h-.009v-.028h-.014l-.014-.046H99.3l-.014-.051h-.014v-.028h-.009v-.037h-.014l-.028-.074h-.009V256.2H99.2v-.028H99.19v-.028h-.009v-.032h-.014l-.014-.051h-.014v-.028H99.13v-.037h-.014l-.014-.051h-.009v-.037H99.08l-.014-.051h-.009v-.037h-.014l-.014-.046h-.014v-.041h-.009v-.023h-.014v-.037h-.014v-.023h-.009v-.041h-.014l-.014-.06h-.009v-.028h-.014v-.037H98.9v-.023h-.014l-.009-.074h-.014v-.028h-.014v-.037h-.009V255.3h-.014v-.041h-.014l-.014-.074h-.009v-.023h-.014v-.037h-.014l-.009-.078h-.014v-.023H98.73v-.037h-.014v-.037h-.009v-.037h-.014v-.041h-.009v-.032H98.67V254.8h-.014v-.037h-.014l-.014-.074c-.087-.23-.147-.5-.235-.731v-.051h-.009l-.014-.087h-.014v-.051h-.014v-.051h-.009v-.037h-.014l-.028-.152c-.046-.138-.078-.308-.124-.446v-.06H98.16v-.051h-.014v-.051h-.014v-.064h-.009v-.051h-.014l-.014-.11h-.014l-.009-.124c-.069-.212-.083-.469-.152-.685v-.074c-.023-.087-.037-.2-.06-.285v-.073c-.028-.092-.037-.212-.064-.3v-.087c-.037-.124-.037-.29-.074-.423v-.1c-.041-.147-.032-.34-.074-.488v-.1h-.014v-.115h-.014v-.11h-.009v-.11H97.6V249.5h-.014v-.124h-.009l-.028-.382h-.009v-.152h-.014v-.147h-.014v-.166H97.5v-.161h-.009v-.184h-.014v-.2h-.014v-.212h-.014v-.235l-.009-.023v-.239h-.014v-.336H97.41v-.423a1.818,1.818,0,0,1-.014-.423v-.832H96.118v.225h.014c.018.074-.009.189.009.258s0,.184.014.248v.138l.014.285h.009v.2h.014v.124l.014.248h.014v.184h.009v.165h.014v.175h.014v.133l.009.028v.147h.014l.014.313H96.3v.138h.014v.147h.014v.138h.014v.138h.009v.138h.014v.124h.014c0,.124.014.253.023.382h.014v.124h.014v.124h.009v.115h.014v.124h.014v.11h.009v.11h.014v.115c.046.161.028.372.074.533l.014.211c.051.179.037.409.087.589v.1c.041.138.037.313.074.446v.1c.037.129.037.294.074.423v.087c.023.069.032.17.051.235v.092c.018.064.032.156.051.221v.087h.014l.014.152c.06.2.06.446.124.644v.078c.014.055.032.143.046.2v.074c.069.221.083.478.152.7l.023.184c.037.11.055.244.087.35l.014.124H97.4l.014.115h.014l.014.11h.009v.051h.014v.051h.014v.06h.014l.037.212c.087.267.129.575.221.832l.014.1h.014v.051h.009l.028.138h.014v.037h.009l.014.1h.014l.046.207h.014l.014.087h.014l.023.124h.014l.009.087h.014v.041h.014v.037h.014v.037h.009v.037h.014v.051h.014l.009.074H98.1l.014.073h.014v.037h.009v.037h.014v.041h.014v.037h.009v.037h.014v.037H98.2v.037h.014v.037h.009v.037h.014v.028h.014l.009.074h.014v.023h.014l.009.078h.014v.023h.014v.037h.014v.037h.009l.014.051h.014v.037h.014v.023h.009v.041h.014v.023h.014v.037h.009l.014.051h.014v.037h.009v.023h.014v.041H98.5l.009.051h.014v.023h.014v.037h.009l.028.074h.014l.009.064h.014v.023h.014l.009.051h.014v.028h.014v.023h.014v.023h.014v.028h.009l.014.051h.009l.028.074h.014v.023h.009v.028h.014v.023h.014v.028H98.8v.023h.014l.014.051h.014l.009.046h.014l.023.078.028.009v.028l.023.023v.028h.014v.023h.014v.023l.023.014.023.074.028.014v.023l.023.028v.023l.028.014.009.051.028.014.009.046.028.014.014.051.023.014.014.051.023.009v.028h.014v.023l.023.014V261l.028.014v.023l.023.014.014.051.023.009v.028l.028.014v.023l.023.014v.023l.023.014v.023l.028.014v.028l.023.009v.028H99.5l.009.037.028.009v.028l.037.023v.028l.028.009.009.041h.014v.023l.037.023.014.037.023.014v.028l.028.009v.028l.023.009.014.037.037.028v.023l.037.028v.023l.051.037.009.037.028.014v.023l.051.037v.028l.051.037v.023l.023.014v.014l.023.009v.028l.064.051v.023l.06.051v.028l.078.06a5.136,5.136,0,0,0,.57.612,3.632,3.632,0,0,0,.363.336l.074.087h.023l.051.06h.023l.055.064h.023l.051.06h.023l.037.051h.028l.009.028.037.009.037.051h.028l.023.037h.028l.023.037h.028l.023.037h.023l.014.028h.028l.023.037h.023l.014.023h.028l.023.037h.023l.014.028.037.009v.014h.028l.009.028h.028l.009.023h.028l.014.028h.023l.014.023.037.014v.009l.051.014.009.023.037.014v.014l.051.014.014.023.051.014.014.023.074.028a6.03,6.03,0,0,0,1.168.533h.051v.014l.087.009v.014l.037,0v.009l.1.009c.092.032.212.046.308.078h.087v.009h.1v.014h.147v.014h.414v-.014h.161v-.014h.1v-.009h.1c.064-.018.152-.032.212-.051h.064v-.014l.161-.023v-.014h.051v-.014l.046,0v0l.051,0v-.009h.051v-.014l.087-.014v-.009l.087-.014v-.014h.037v-.009l.037,0V264.7h.037v-.014h.041v-.014h.037v-.009l.037,0v-.009h.037v-.014h.037v-.009h.023v-.014l.115-.023v-.014l.023,0v-.009h.037v-.014h.028v-.009h.037v-.014l.06-.009V264.5h.028v-.014h.037v-.014l.023,0v0h.041v-.014l.046-.018v0l.037,0v-.009l.051-.014v-.014l.028,0v0h.037v-.014l.074-.032v0h.028v-.014h.032V264.3l.028,0v0l.051-.014v-.014h.023v-.009h.028v-.014l.023,0v-.009h.028v-.009h.023V264.2l.051-.014v-.014l.046-.009v-.014l.051-.014v-.014l.051-.009V264.1l.028,0v-.009h.023v-.009h.023l.028-.028.051-.009.009-.028h.028l.023-.023h.028v-.014h.023v-.014h.028l.009-.023h.028l.023-.028.023,0v0h.028l.014-.028.074-.023.009-.023.078-.028.009-.023.028,0v-.009h.023l.014-.023.074-.028.014-.023h.023v-.014h.028l.009-.023.041-.014v-.014l.046-.009.014-.028h.028v-.014h.023l.014-.023.037-.018v-.009l.051-.009.009-.028h.023l.014-.023h.028l.014-.023.046-.014.014-.028h.023l.014-.023h.023l.014-.023h.028l.009-.028h.028l.009-.023h.028l.009-.028h.028l.014-.023h.023l.014-.028h.023l.014-.023h.023v-.014l.041-.009.009-.028h.023l.028-.037h.023l.014-.023.037-.014v-.014h.028l.023-.037h.028L109.5,263h.028l.023-.037h.023l.014-.028h.023l.014-.023.041-.014.023-.037h.023l.023-.037h.028l.023-.037h.028l.023-.037h.028l.023-.037h.023l.028-.037h.023l.037-.051.041-.014v-.028c-.051.014-.143.018-.189.028C109.781,262.617,109.712,262.617,109.648,262.621Z" transform="translate(-73.805 -227.394)" fill="#c9dcb7"/>
    <path id="Path_21395" data-name="Path 21395" d="M111.33,254.584l-.046.037v.028l-.051.037v.023l-.064.051v.028l-.1.083v.028l-.189.175-.175.184h-.023l-.087.1h-.028l-.046.064H110.5l-.037.051h-.023l-.037.046h-.028l-.037.051h-.023l-.028.037h-.023l-.028.037h-.023l-.014.028h-.023l-.028.037h-.023l-.014.023h-.023l-.014.028-.037.014v.009h-.023l-.014.028h-.028l-.009.023h-.028v.014h-.023l-.014.023h-.023l-.014.023-.051.014-.009.028-.051.009-.014.028-.074.023-.014.023h-.023l-.028.028-.023,0v.009l-.051.009a5.884,5.884,0,0,1-1.081.465H108.4v.009h-.037v.014h-.051l-.239.074h-.06v.014h-.051v.014h-.06v.009l-.189.028v.014h-.074v.009h-.078v.014h-.083v.014h-.1v.009l-.1,0v.009h-.11v.014h-.152v.009h-.184a1.361,1.361,0,0,1-.313.014,2.88,2.88,0,0,1-.607-.023l-.3-.028c-.087-.023-.193-.037-.276-.06h-.064v-.014l-.1-.014v-.009h-.051v-.014l-.051,0v-.009h-.051v-.014h-.051V256.6l-.032,0v-.009l-.051,0v-.009l-.129-.028v-.009h-.037v-.009h-.037v-.014l-.074-.018v-.009h-.023v-.009l-.115-.032v0h-.023v-.014h-.037v-.014l-.028,0V256.4h-.037v-.009h-.023v-.014h-.037v-.014l-.028,0v0h-.037v-.014H104.2v-.014l-.064-.014V256.3l-.074-.028v-.009l-.023,0v-.009h-.028v-.014h-.037v-.009l-.074-.028v-.009h-.028v-.014h-.023v-.014h-.023v-.014H103.8v-.009h-.023l-.028-.028h-.023l-.014-.023h-.023l-.028-.028h-.023v-.009h-.028v-.014h-.023l-.009-.028h-.028l-.028-.023-.046-.014-.014-.023-.051-.014-.009-.023-.051-.014-.014-.023-.051-.014-.009-.023h-.028l-.014-.028-.046-.009-.014-.028h-.028l-.009-.023h-.028l-.009-.028h-.028l-.009-.023h-.028l-.014-.028h-.023l-.014-.023-.023,0v-.009l-.037-.009-.014-.028H102.9l-.028-.037h-.023l-.014-.028h-.023l-.028-.032h-.023l-.014-.028h-.023l-.028-.037h-.023l-.028-.037h-.023l-.037-.051h-.023l-.028-.037h-.023l-.037-.051h-.028l-.037-.051h-.028l-.032-.046h-.028l-.051-.064h-.023l-.064-.074h-.023v-.014l-.037-.023-.023-.041h-.028l-.051-.06-.1-.074-.115-.124a2.4,2.4,0,0,1-.308-.3l-.166-.147v-.023l-.11-.1-.037-.051-.028-.009v-.028l-.11-.1v-.023l-.087-.074v-.028l-.074-.06v-.023l-.074-.064v-.023l-.064-.051v-.028l-.06-.046v-.028l-.051-.037v-.023l-.051-.042v-.023l-.051-.037v-.023l-.051-.041v-.023l-.023-.014-.014-.037-.051-.037v-.028l-.037-.023v-.023l-.037-.028v-.023l-.037-.028v-.023l-.037-.023-.014-.041-.023-.009v-.028l-.028-.009v-.023l-.037-.028-.009-.037-.028-.014v-.023l-.023-.014v-.023l-.041-.028v-.023l-.023-.014-.014-.037H100v-.023l-.032-.028v-.023l-.028-.014V252.5l-.023-.014v-.023l-.028-.014v-.023h-.009l-.014-.041-.023-.009v-.028l-.041-.023v-.028l-.023-.014v-.023l-.023-.009-.014-.041h-.014l-.014-.046-.023-.014v-.028l-.023-.009v-.028l-.028-.009v-.028l-.023-.014-.014-.046-.023-.014v-.023l-.028-.014v-.028h-.009v-.023l-.028-.014-.014-.037H99.5l-.014-.051-.023-.009v-.028h-.014v-.023l-.028-.014-.009-.037H99.4l-.023-.074-.028-.014-.014-.051-.023-.014V251.5h-.014v-.023l-.023-.014v-.028l-.023-.023v-.023h-.014v-.028l-.028-.009L99.2,251.3h-.014v-.028h-.014l-.023-.074h-.014v-.037h-.009v-.023h-.014l-.014-.051h-.009v-.037h-.014v-.028H99.06l-.014-.06h-.014l-.009-.074H99.01v-.028H99l-.028-.11h-.014v-.023H98.95v-.041h-.014v-.037h-.014v-.037h-.009v-.037H98.9v-.051h-.014l-.037-.161h-.014v-.041h-.009v-.037h-.014v-.046H98.8l-.014-.087h-.009l-.014-.087h-.009v-.051h-.014v-.051h-.014v-.037h-.014l-.009-.1h-.014v-.046h-.014v-.051H98.66v-.051h-.009v-.051h-.014v-.06c-.064-.207-.1-.455-.161-.662v-.06h-.014v-.064h-.014v-.06h-.014v-.064h-.009V248.6h-.014v-.06H98.4v-.06h-.009V248.4c-.069-.23-.078-.515-.147-.745l-.014-.152c-.051-.166-.051-.377-.1-.547l-.014-.161c-.028-.1-.032-.23-.06-.322v-.087c-.023-.078-.028-.184-.051-.262v-.1h-.014l-.009-.179c-.023-.138-.041-.281-.064-.423H96.77l.014.138a2.541,2.541,0,0,0,.009.423v.138l.014.313h.014v.17h.014v.166h.009v.138h.014v.133h.014v.124c.037.138.023.317.06.451l.014.2h.014v.087h.009v.087h.014v.1c.041.143.046.327.087.469v.078c.032.106.041.244.074.345v.074c.023.078.041.179.064.253v.06c.083.258.11.561.2.809l.051.248h.014l.06.276c.078.207.133.446.212.648l.014.083h.014l.023.115H97.8v.023h.014l.009.078h.014v.037h.009v.037h.014v.037h.014v.037h.014v.023H97.9l.028.115h.009v.023h.014l.014.074h.014v.028h.009l.014.074h.014v.028h.014v.037h.009v.023h.014l.014.074h.009v.028h.014v.037H98.1l.009.064h.014v.023h.014v.037h.009l.014.051h.014v.037h.014l.009.051h.014v.037h.014l.014.051h.009v.037h.014l.009.046h.014v.041H98.3l.023.074h.014v.023h.014v.041h.014l.023.074H98.4v.023h.014v.023h.014v.037h.009l.014.055h.014l.028.074H98.5v.023h.014v.028h.014v.023h.009v.028h.014l.014.046h.014l.009.051H98.6l.087.2.023.014.014.051h.014v.023h.014v.028l.023.023v.023l.023.014v.028l.028.023v.023h.009v.028l.028.009.023.078.028.014v.023h.009v.023l.028.014.023.074.028.014.009.051.023.014.014.046.028.014.014.037H99.1l.014.051.023.009v.028l.028.014.009.051.028.009v.028l.023.009.014.051.023.014v.023l.028.014.009.037h.014l.014.051.023.014v.023l.028.014v.023l.023.014.014.051.023.009v.028l.028.014v.023l.023.014.014.037h.009v.023l.028.014v.028l.023.009v.028l.028.009v.028l.023.009.014.051.023.014v.023h.014l.014.037.023.014v.028l.037.023v.023l.028.014.009.037h.014v.028l.023.009v.028l.028.014v.023l.023.014v.023h.014l.014.037.023.014v.023l.037.028v.023l.028.014.009.037h.014v.023l.037.028v.023l.023.014.014.037h.014v.023l.037.028v.023l.028.014v.023l.037.028v.023l.023.014v.023l.037.028.014.037.023.014v.023l.023.014v.023l.041.028v.023l.037.023v.028l.037.023v.023l.037.028v.023l.037.028v.023l.037.028v.023l.041.023v.028l.037.023v.028l.046.037.014.037.028.014v.023l.046.037v.028l.037.023v.023l.055.041v.023l.023.009v.014l.023.014v.023l.064.051v.028l.051.037v.023l.06.051v.023l.064.051v.023l.074.064v.023l.074.064v.023l.074.064v.023l.1.087v.028l.124.11v.028h.014l.037.046.161.152v.023l.212.2.087.1h.028l.17.189h.028l.1.11h.028l.074.087h.023l.064.074h.023l.051.064h.028l.037.051h.023l.037.046h.028l.009.028.037.014.041.051h.023l.023.037h.028l.023.037.037.014.014.023h.028l.009.023h.028l.023.037h.023l.014.028.037.014v.009h.023l.014.028.041.009v.014h.023l.014.028h.023l.014.023h.023l.014.023h.023l.014.028.051.009.009.028h.028v.014h.023l.014.023.037.014v.009h.023l.028.028h.023l.014.023h.023l.028.028h.023v.009h.028l.009.028h.028l.023.023h.028v.014l.023,0v.009h.028v.009h.023v.014h.023v.014l.028,0v0h.023v.014h.028v.014l.046.014v.009h.028v.014h.037v.014l.023,0v0l.051.014v.014h.037v.009l.028,0v.009l.037,0v.009h.023v.014h.037v.009h.028v.014l.074.014v.009h.023v.014l.078.014v.009h.037v.014l.037,0v.009l.037,0v.009l.087.009v.014l.051,0v.009h.037v.009h.051v.014h.046c.12.041.267.051.386.087h.1v.014l.313.009a1.149,1.149,0,0,0,.336.014v-.014h.124l.262-.023c.06-.018.152-.032.212-.051h.06V260a.868.868,0,0,0,.152-.028v-.009l.087-.009v-.014h.037v-.014h.037v-.009h.037V259.9h.037v-.014l.11-.023v-.014h.028v-.014l.037,0v0l.06-.014V259.8l.028,0v0l.037,0v-.009l.051-.014v-.014h.037v-.009l.074-.028V259.7h.028v-.014l.023,0v-.009h.028v-.014h.023v-.009l.023,0v-.009h.028v-.014h.023l.028-.023h.023l.014-.023.074-.028.014-.023.051-.014.009-.023.051-.014.014-.028h.023v-.009h.023l.014-.028h.028l.009-.023h.028l.014-.023h.023l.009-.028h.028v-.014l.037-.009.014-.028h.023l.028-.037h.023l.014-.023h.023l.014-.028.037-.009.023-.037h.028l.014-.028.037-.014.037-.046h.023l.014-.028h.014l.009-.023h.028l.051-.064a3.979,3.979,0,0,0,.46-.423l.258-.248v-.023l.115-.1v-.023l.087-.074v-.028l.06-.051v-.023l.064-.051v-.028l.06-.046v-.028l.051-.037v-.023l.051-.037v-.028l.023-.014v-.009l.028-.014v-.023l.037-.028v-.023l.037-.028v-.023l.037-.028v-.023l.037-.023v-.028l.041-.023v-.028l.037-.023v-.023l.023-.014v-.028l.037-.023v-.023l.028-.014V257.2l.037-.023v-.023l.023-.014v-.028l.037-.023v-.023l.028-.014.009-.037h.014v-.023l.023-.014v-.023l.028-.014.014-.037h.009v-.028l.028-.014v-.023l.023-.009V256.8l.023-.014v-.023l.028-.014v-.023l.028-.014v-.023l.023-.014v-.023h.009v-.028l.028-.014.009-.046.028-.014.023-.074.028-.014v-.023l.023-.028v-.023h.014v-.028h.014v-.023l.023-.014.014-.051h.009l.028-.074h.009v-.037h.014l.028-.074h.009v-.028h.014v-.023h.014v-.028h.014v-.037h.009l.014-.046h.014v-.041h.009l.014-.046h.014v-.037h.014v-.028h.009l.014-.06h.014v-.041h.009v-.023h.014l.014-.074h.014v-.028h.009l.189-.57v-.5C111.367,254.51,111.357,254.547,111.33,254.584Z" transform="translate(-71.458 -226.793)" fill="#c9dcb7"/>
  </g>
  <g id="Group_4241" data-name="Group 4241" transform="translate(44.063 1.982)">
    <path id="Path_21396" data-name="Path 21396" d="M127.32,257.255h-3.638c-1.209,0-1.968-.3-2.272-.906a2.9,2.9,0,0,1,.759-2.424l6.208-6.972c.607-.708.809-1.214.607-1.513-.1-.3-.658-.455-1.665-.455h-6.365v-.911h7.423c1.72,0,2.778.354,3.187,1.062s.147,1.614-.759,2.723l-5.909,6.668q-.766.91-.455,1.366c.1.3.607.455,1.513.455h2.575q4.242-.3,2.575,4.392c-.3.708-.708,1.771-1.209,3.182q-.759,2.428-2.575,7.271,3.78,5,11.971,4.852h17.728v1.062H139.746q-8.8,0-12.881-4.7a.887.887,0,0,0-.152.607,9.827,9.827,0,0,1-.607,1.058q-1.214,4.1-5.3,3.789c-.3,0-.455-.051-.455-.147l.455-.308q1.062-.448,2.727-3.936l.911-2.276a8.29,8.29,0,0,0,.607-1.513,36.294,36.294,0,0,1-3.182-9.244c-.3-1.108-.354-1.715-.152-1.816q.3,0,.759,1.518a53.494,53.494,0,0,0,3.026,8.181q.759-1.821,2.125-6.061c.3-.809.552-1.467.754-1.968C128.985,258.166,128.63,257.158,127.32,257.255Zm16.514,17.728h-2.879v-5.606H131.1V268.32h9.851v-4.7H132.47v-1.062h8.485v-4.24h-8.03v-1.062h8.03v-4.544h-9.7v-1.058h9.7v-4.548h-8.03v-1.062h8.03V241.8h2.879v4.24h5.758q4.394,0,4.392,3.334v2.276h3.035v1.058h-3.035v1.817q.3,3.946-4.544,3.789h-5.606v4.24h11.212v1.062H143.834v4.7H155.8v1.058H143.834Zm4.847-27.878h-4.847v4.548h7.275v-2.276C151.206,247.763,150.4,247,148.681,247.105Zm.3,10.15c1.518.106,2.221-.754,2.125-2.571v-1.973h-7.275v4.544Z" transform="translate(-30.668 -241.803)" fill="#c9dcb7"/>
    <path id="Path_21397" data-name="Path 21397" d="M139.177,275.826h-20q-6.967.448-6.517-5.762v-15.6h2.879v2.272q.455-1.973,3.486-1.817h19.545q4.394,0,4.548,3.334v4.392c.1,2.424-1.513,3.583-4.847,3.486H119.025c-2.023.1-3.182-.556-3.486-1.973v5.606q-.3,4.85,3.941,4.548h18.791q5.9.6,6.967-8.034c0-.3.051-.451.152-.451a.612.612,0,0,1,.3.607Q145.845,276.578,139.177,275.826Zm-22.272-24.1h-3.031v-9.391H116.9v2.12q.455-2.27,3.182-2.12H136.6q4.394,0,4.392,3.334v2.272q.3,3.787-4.7,3.633H120.39q-3.035.159-3.486-2.267Zm1.821,4.4c-1.619-.1-2.681.354-3.187,1.361v6.066c.506,1.113,1.568,1.614,3.187,1.513h7.721v-8.94Zm1.209-12.573a2.768,2.768,0,0,0-3.031,1.513v3.941c.4,1.007,1.513,1.462,3.334,1.361h15.608c1.61.1,2.368-.653,2.272-2.272v-2.424c.1-1.518-.809-2.221-2.727-2.12Zm17.577,12.573h-8.333v8.94h8.788c1.513.1,2.221-.7,2.12-2.424v-4.392C140.188,256.732,139.328,256.028,137.512,256.125Z" transform="translate(-58.437 -239.914)" fill="#c9dcb7"/>
    <path id="Path_21398" data-name="Path 21398" d="M149.768,250.511V249.3H146.13v-3.035q0-3.932-6.36-3.937H117.043v1.214h19.779q-.9.483-2.023,1.2l-.386.239a26.1,26.1,0,0,0-5.072,4.314H114.164v1.21h14.1a48.869,48.869,0,0,0-4.157,5.758h-6.917v1.062h6.268q-.621,1.042-1.237,2.148l-.152.29-.3.529q-2.083,3.67-4.148,7.326a22.858,22.858,0,0,1-2.654,3.734,10.845,10.845,0,0,1-8.37,3.96,6.673,6.673,0,0,1-3.78-1.012,3.6,3.6,0,0,1-1.3-1.375,4.3,4.3,0,0,1-.437-1.426,4.644,4.644,0,0,1,.046-1.242q.614-4.153,5.091-7.758a14.206,14.206,0,0,1,4.208-2.313,8.573,8.573,0,0,1,4.033-.589,3.611,3.611,0,0,1,2.442,1.3,3.29,3.29,0,0,1,.6,2.6,7.308,7.308,0,0,1-3.412,4.847q-3.621,2.546-6.319,2.152a2.249,2.249,0,0,1-1.472-.754,1.818,1.818,0,0,1-.382-1.485q.283-1.925,3.026-3.7a7.329,7.329,0,0,1,4.944-1.453c.943.138,1.352.653,1.219,1.541l0,.055c-.014.087,0,.133.06.143.074.009.124-.1.156-.317a1.429,1.429,0,0,0-.446-1.279,2.7,2.7,0,0,0-1.55-.7,7.707,7.707,0,0,0-7.629,5.652,2.08,2.08,0,0,0,.409,1.688,2.453,2.453,0,0,0,1.633.846c1.61.239,3.514-.313,5.712-1.642q3.835-2.338,4.309-5.532a3.662,3.662,0,0,0-.809-3.035,4.79,4.79,0,0,0-3.095-1.564q-4.015-.586-8.007,3.049a17.827,17.827,0,0,0-3.307,4.038,11.526,11.526,0,0,0-1.619,4.19,4.478,4.478,0,0,0,.713,3.458,2.379,2.379,0,0,0,.285.322,6.738,6.738,0,0,0,.648.561,6.917,6.917,0,0,0,4.07,1.118,15.58,15.58,0,0,0,8.411-2.594,16.238,16.238,0,0,0,4.194-3.711q.531-.683,1.136-1.646v7.767H123.4v-2.272q.455,2.428,3.486,2.272h13.787q6.671.152,6.365-3.633v-5q0-3.787-6.365-3.794H126.737q-2.725-.145-3.334,2.125v-2.125h-.478l.3-.612c.681-1.389,1.058-2.161,1.136-2.327l.152-.267c.418-.9.828-1.743,1.228-2.548H139.77q6.816.3,6.36-3.789v-3.031ZM123.4,265.664a3.259,3.259,0,0,1,3.031-1.518h14.091c2.428,0,3.587.814,3.486,2.428v5.6c.2,1.518-.961,2.221-3.486,2.125H126.737c-1.72.1-2.828-.4-3.334-1.513Zm11.63-20.658a22.328,22.328,0,0,1,3.307-1.462h1.278q3.332,0,3.334,2.419V249.3h-12.38A16.032,16.032,0,0,1,135.033,245.007Zm4.585,11.262H126.277a47.843,47.843,0,0,1,3.21-5.463c.069-.092.138-.2.212-.294h13.254v3.334Q143.249,256.425,139.618,256.269Z" transform="translate(-100.847 -239.906)" fill="#c9dcb7"/>
    <g id="Group_4240" data-name="Group 4240" transform="translate(131.074 0.593)">
      <path id="Path_21399" data-name="Path 21399" d="M151.292,256.676a4.021,4.021,0,0,0,3.789-1.817,17.016,17.016,0,0,0,.906-5.155c0-.8-.1-.8-.3,0q-1.069,5.457-4.4,5.3c-1.113.207-1.619-.607-1.518-2.424v-5.3q.3-3.484-4.24-3.334h-3.486a2.474,2.474,0,0,0-1.817.607v-.607h-2.727v3.334a12.442,12.442,0,0,1-.91,4.4,8.573,8.573,0,0,1-2.727,3.785,6.994,6.994,0,0,1-1.817,1.214,6.68,6.68,0,0,0,2.424.147,3.824,3.824,0,0,0,2.727-1.209,13.946,13.946,0,0,0,2.12-3.638,13.4,13.4,0,0,0,.911-4.7v-1.817a3.744,3.744,0,0,1,1.665-.455h3.486q1.662,0,1.665,2.272v5.151Q146.744,257.288,151.292,256.676Z" transform="translate(-119.625 -234.703)" fill="#c9dcb7"/>
      <path id="Path_21400" data-name="Path 21400" d="M136.5,244.7h-2.575a17.827,17.827,0,0,1,.754,1.968c.2.612.354,1.062.455,1.366q.911,3.332,4.852,3.031c.3,0,.349-.1.147-.3Q138.171,249.25,136.5,244.7Z" transform="translate(-112.866 -231.971)" fill="#c9dcb7"/>
      <path id="Path_21401" data-name="Path 21401" d="M132.291,254.024a25.024,25.024,0,0,0-2.58.3v1.214a60.139,60.139,0,0,0,6.82-.911q4.843-1.055,6.668-3.633a1.254,1.254,0,0,0,.451-.759c-.506.4-1.058.809-1.665,1.209a18.715,18.715,0,0,1-4.392,1.665v-7.873h4.7v-1.062H130.318v1.062h4.4v8.485A15.168,15.168,0,0,0,132.291,254.024Z" transform="translate(-128.046 -233.867)" fill="#c9dcb7"/>
      <path id="Path_21402" data-name="Path 21402" d="M133.4,249.663c-.3.2-.455.354-.455.451h.455q3.787.159,5.151-2.272a12.536,12.536,0,0,0,.759-1.366,4.427,4.427,0,0,0,.759-1.2h12.725v-1.062H140.671a7.028,7.028,0,0,0,1.21-2.276H139Q135.366,249.058,133.4,249.663Z" transform="translate(-116.426 -241.932)" fill="#c9dcb7"/>
      <path id="Path_21403" data-name="Path 21403" d="M138.141,246.91c.506,0,.557-.1.152-.3a9.238,9.238,0,0,1-3.937-3.785h-3.031a21.466,21.466,0,0,0,1.665,2.575l.152.152Q134.053,247.219,138.141,246.91Z" transform="translate(-122.234 -238.729)" fill="#c9dcb7"/>
      <path id="Path_21404" data-name="Path 21404" d="M134.955,248.9a3.952,3.952,0,0,0,.455-.759,29.084,29.084,0,0,0,1.513-2.874h12.122v-1.062H137.53a7.063,7.063,0,0,0,.607-1.214c.3-.506.5-.855.607-1.062h-3.031q-3.794,7.733-5.909,8.788c-.3.1-.455.2-.455.308,0,.2.152.248.455.147Q133.895,251.176,134.955,248.9Z" transform="translate(-129.349 -241.932)" fill="#c9dcb7"/>
      <path id="Path_21405" data-name="Path 21405" d="M136.7,245.549q.759,1.67,5.155,1.361c.4,0,.455-.1.152-.3a8.8,8.8,0,0,1-4.093-3.785h-3.031l.911,1.366A7.267,7.267,0,0,0,136.7,245.549Z" transform="translate(-109.43 -238.729)" fill="#c9dcb7"/>
      <path id="Path_21406" data-name="Path 21406" d="M171.416,256.311a6.551,6.551,0,0,0-1.978-2.745,10.022,10.022,0,0,0-7.606-2.1,11.187,11.187,0,0,0-4.084,1.03,4.082,4.082,0,0,0-2.171,2.051q-.821,2.159,2.46,3.757a10.8,10.8,0,0,0,5.647,1.14,5.85,5.85,0,0,0,2.166-.556,2.234,2.234,0,0,0,1.159-1.141c.391-1.03-.078-1.964-1.407-2.81a7.415,7.415,0,0,0-4.686-1.049,6.153,6.153,0,0,0-2.014.464,1.772,1.772,0,0,0-1.03.86l-.018.055c-.253.7.4,1.4,1.775,2.1a8.813,8.813,0,0,0,3.564,1,3.734,3.734,0,0,0,1.306-.138.952.952,0,0,0,.644-.524q.269-.786-1.039-1.591a6.072,6.072,0,0,0-2.962-.883,3.917,3.917,0,0,0-1.219.106c-.331.087-.529.216-.584.382-.028.074-.014.11.041.115a.064.064,0,0,0,.069-.041l.009-.018c.1-.3.492-.437,1.173-.409a7.121,7.121,0,0,1,3.072.878c1,.538,1.426,1.026,1.274,1.462a.829.829,0,0,1-.584.455,3.384,3.384,0,0,1-1.173.129,8.389,8.389,0,0,1-3.872-1.219c-1.058-.616-1.508-1.228-1.255-1.853q.379-.828,1.964-.957a8.725,8.725,0,0,1,4.87,1.007q2.3,1.214,1.812,2.516a1.975,1.975,0,0,1-1.049,1,5.044,5.044,0,0,1-1.945.5,10.266,10.266,0,0,1-6.112-1.481q-2.456-1.442-1.752-3.293a3.445,3.445,0,0,1,1.752-1.757,8.425,8.425,0,0,1,3.251-.86,13.14,13.14,0,0,1,4.231.418,11.125,11.125,0,0,1,3.693,1.591q3.463,2.456,2.4,5.266a2.7,2.7,0,0,1-.464.837,5.411,5.411,0,0,1-1.081.957c-.06.046-.124.083-.189.124l-.078.037a10.469,10.469,0,0,1-4.3,1.26,14.632,14.632,0,0,1-4.75-.248,20.183,20.183,0,0,1-2.773-.947q-1.407-.607-8.466-3.863l-.29-.143v-7.354h16.97v-1.209h-16.97v-1.973h-2.879v1.973H129.415v1.209H133.8c1.085.184,2.7.524,3.086,1.044a2.088,2.088,0,0,1-.018,1.982,10.286,10.286,0,0,0-1.536-.189c-.58-.018-1.085-.023-1.444-.014a6.459,6.459,0,0,0-2.207.46c-1.384.57-1.527,1.458-1.209,2.161.349.773,1.656,1.794,3.923.644a5.9,5.9,0,0,0,2.893-2.562l.773.262a72.793,72.793,0,0,1,7.257,3.3l.584.285.032.014v3.822h2.879v-2.387q2.442,1.186,3.927,1.8c.957.391,1.954.75,2.989,1.067a18.849,18.849,0,0,0,7.1,1.278,15.288,15.288,0,0,0,4.985-.727s.57-.2.961-.377a4.833,4.833,0,0,0,.446-.212,4.582,4.582,0,0,0,2.244-2.332A3.977,3.977,0,0,0,171.416,256.311Zm-35.563-1.821a6.684,6.684,0,0,1-2.663,1.688c-1.366.175-2.456-.276-2.607-1.5-.106-.865,1.541-1.564,3.123-1.7a10.86,10.86,0,0,1,3.008.216A6.105,6.105,0,0,1,135.853,254.49Zm2.814-1.237-.041-.009-1-.239-.17-.032c.092-.244.161-.474.221-.681a2.131,2.131,0,0,0-.648-2.318,1.691,1.691,0,0,0-.207-.147h9.11V255.9A53.258,53.258,0,0,0,138.668,253.252Z" transform="translate(-129.112 -224.975)" fill="#c9dcb7"/>
    </g>
  </g>
</svg>
