<?xml version="1.0" encoding="utf-8"?>
<!-- Generator: Adobe Illustrator 22.1.0, SVG Export Plug-In . SVG Version: 6.00 Build 0)  -->
<svg version="1.1" id="圖層_1" xmlns="http://www.w3.org/2000/svg" xmlns:xlink="http://www.w3.org/1999/xlink" x="0px" y="0px"
	 viewBox="0 0 240 240" style="enable-background:new 0 0 240 240;" xml:space="preserve">
<style type="text/css">
	.st0{fill:#FFFFFF;}
	.st1{fill:#72ADB6;}
</style>
<g id="section7_imgicon3" transform="translate(-4084 -13179)">
	<g id="字" transform="translate(4084.34 13021.427)">
		<circle id="Ellipse_344" class="st0" cx="119.7" cy="277.6" r="119"/>
		<g id="Group_6279" transform="translate(452.188 361.326)">
			<g id="Group_6278">
				<path id="Path_41566" class="st1" d="M-385.2-141.8h-13.5v1.2h12.8v2.9h-12.8v1.2h12.8v2.9h-12.8v1.1h16v3.1h-3.2l1.4,2.2
					c-1.2,0.9-2.5,1.8-3.8,2.4c0.1,0.1,0.3,0.2,0.4,0.2c1.7,0.9,3.5,1.5,5.3,2l-1.5,3.2c-2.2-0.7-4.3-1.7-6.3-3
					c-1.5-1-2.8-2.2-3.8-3.7c-0.8-1.1-1.4-2.2-1.8-3.5h-2.6v5.6c1.6-0.3,3.1-0.7,4.5-1.1l0.4,2.8c-3.1,1-6.2,1.9-9.3,2.6l-0.9-3.3
					c0.9-0.1,1.7-0.3,2.6-0.5v-6.2h-2.9v-3.1h2.9v-12.5h16.3L-385.2-141.8z M-386.8-129.2h-6.2c0.4,0.9,1,1.7,1.7,2.4
					c0.1,0.1,0.2,0.2,0.3,0.3C-389.5-127.2-388.1-128.1-386.8-129.2L-386.8-129.2z"/>
				<path id="Path_41567" class="st1" d="M-366.8-145.3v1.8h8.7v3.2h-17.5v6.1h6.7v-1.2h-5.2v-3h5.2v-1.4h2.7v1.4h6.2v4.3h2v3h-2
					v4.4h-4.2c0.5,0.8,1.2,1.5,1.9,2.1c1.2,1,2.7,1.7,4.2,2l-1.1,3.3c-1.9-0.6-3.6-1.6-4.9-3c-1.2-1.3-2.2-2.8-2.9-4.4h-0.4
					c-0.3,0.7-0.7,1.4-1.1,2c-1.5,2.2-3.4,4-5.6,5.4l-1.6-3c1.9-1.1,3.6-2.6,5-4.4h-3.2v-3.1h4.7c0.1-0.4,0.2-0.9,0.3-1.3h-6.5
					c0,2.1-0.2,4.2-0.5,6.3c-0.3,1.9-0.7,3.7-1.3,5.5l-2.7-1.9c0.6-2,1-4,1.3-6c0.2-2.1,0.4-4.2,0.4-6.3v-10h8.8v-1.8L-366.8-145.3z
					 M-366.6-129.8h3.6v-1.3h-3.4C-366.4-130.7-366.5-130.2-366.6-129.8L-366.6-129.8z M-366.3-134.2h3.3v-1.2h-3.3L-366.3-134.2z"
					/>
				<path id="Path_41568" class="st1" d="M-350.6-135.9l-1.9,2.8c-1-1.2-2.1-2.2-3.2-3.1l2-2.5
					C-352.6-137.8-351.5-136.9-350.6-135.9z M-349.6-130.2c-0.7,3.7-1.7,7.3-3,10.9l-2.7-1.7c1.2-3.3,2.2-6.7,3-10.2L-349.6-130.2z
					 M-348.6-142.7l-1.9,2.8c-0.9-1.1-1.9-2.1-2.9-3l1.9-2.4C-350.4-144.5-349.4-143.7-348.6-142.7L-348.6-142.7z M-334.6-142.4
					c-1.7,0.3-3.4,0.6-5.2,0.8v3.8h6.3v3.1h-6.3v3.4h5.3v11.7h-2.8v-0.9h-7.9v1h-2.8v-11.8h5.1v-3.4h-6.4v-3.1h6.4v-3.4
					c-1.5,0.2-2.9,0.3-4.5,0.5l-0.9-3.2c4.5-0.3,8.6-0.8,12.4-1.4L-334.6-142.4z M-337.3-123.6v-4.5h-7.9v4.5H-337.3z"/>
				<path id="Path_41569" class="st1" d="M-322.7-139.5v2.5c-0.5,3.4-1.4,6.7-2.7,9.9c-1,2.3-2.5,4.3-4.5,5.8l-1.4-3.1
					c1.7-1.2,3-2.9,3.8-4.9c0.9-2.2,1.6-4.6,1.9-6.9h-4.9v-3.3L-322.7-139.5z M-318.8-145.3v5.5c0.4,1.1,0.8,2.2,1.3,3.3
					c0.6-0.5,1.3-1.1,1.9-1.7c1.1-1.1,2-2.2,2.8-3.5l2.3,2.2c-0.9,1.4-2,2.7-3.1,3.9c-0.8,0.7-1.6,1.4-2.4,2.1
					c0.3,0.6,0.6,1.2,0.9,1.8c1.5,2.7,3.5,5.1,5.9,7l-1.6,3.6c-1.9-1.6-3.6-3.6-4.9-5.7c-1.2-1.9-2.3-3.9-3.1-6v9
					c0.1,1.2-0.1,2.3-0.6,3.4c-0.6,0.7-1.6,1.1-2.6,1c-1.2,0-2.4-0.2-3.5-0.5l-0.5-3.4c1.2,0.4,2.4,0.5,3.6,0.5
					c0.2,0,0.5-0.1,0.5-0.4c0.1-0.5,0.2-1,0.1-1.5v-20.7H-318.8z"/>
				<path id="Path_41570" class="st1" d="M-299.1-124.5c-1.8,1.7-3.9,3-6.2,4.1l-1.3-3c2.1-0.9,4.1-2.2,5.8-3.7L-299.1-124.5z
					 M-287.4-142.2c-3,0.5-6,0.9-9.1,1.1c-1,1.7-1.9,3.2-2.7,4.5c0.7,0.5,1.3,0.9,1.9,1.3c1.5-1.8,2.9-3.6,4.1-5.6l2.9,1.6
					c-2,2.8-4,5.2-5.8,7.3c2.1-0.1,4-0.2,5.9-0.3c-0.4-0.7-0.8-1.4-1.3-2l2.5-1.8c1.5,2.1,2.7,4.3,3.6,6.6l-2.6,1.8
					c-0.2-0.6-0.5-1.3-0.8-1.9c-1.9,0.2-3.8,0.4-5.8,0.5v9.7h-2.8v-9.4c-2.6,0.2-5.4,0.4-8.2,0.6l-0.5-3.3c2-0.1,3.9-0.1,5.7-0.3
					c0.3-0.3,0.6-0.6,0.9-0.9c-1.7-1.2-3.5-2.5-5.3-3.7l1.7-2.5c0.5,0.3,0.9,0.6,1.4,0.8c0.6-0.9,1.1-1.8,1.6-2.7
					c-1.5,0.1-3,0.1-4.6,0.2l-0.9-3.1c5.6,0,11.3-0.4,16.8-1.3L-287.4-142.2z M-288.4-125.1c0.9,0.6,1.9,1.1,3,1.5l-1.6,3.3
					c-1-0.5-2-1.1-3-1.8c-1.2-0.8-2.2-1.8-3.2-2.9l1.8-2.4C-290.5-126.6-289.5-125.8-288.4-125.1L-288.4-125.1z"/>
				<path id="Path_41571" class="st1" d="M-279.4-128.3c-0.3,2.7-0.7,5-1.1,6.8l-2.5-0.9c0.4-2.2,0.7-4.5,0.9-6.7L-279.4-128.3z
					 M-276-144.2c-0.9,2-1.8,3.8-2.5,5.3c0.2,0.2,0.5,0.3,0.7,0.5c0.6-1.2,1.1-2.4,1.5-3.5l2.6,1.4c-1.2,2.6-2.4,4.9-3.5,6.9
					c0.4-0.1,0.9-0.1,1.3-0.1c-0.1-0.5-0.2-1-0.3-1.4l2.3-0.7c0.5,1.7,0.9,3.5,1.1,5.3l-2.5,0.8c-0.1-0.4-0.1-0.8-0.1-1.2
					c-0.3,0.1-0.6,0.1-0.9,0.1v11.5h-2.7v-11.1c-1,0.1-2,0.2-3,0.3l-0.5-3c0.7,0,1.4-0.1,2-0.1c0.4-0.7,0.9-1.5,1.2-2.2
					c-1.1-0.9-2.3-1.9-3.4-2.9l1.5-2.2c0.1,0.1,0.2,0.2,0.3,0.3c0.9-1.6,1.6-3.3,2.2-5L-276-144.2z M-272.8-124l-2.6,0.8
					c-0.1-1.9-0.4-3.8-0.8-5.7l2.4-0.7C-273.3-127.7-273-125.8-272.8-124L-272.8-124z M-265.6-145.3v2.8h4.8v3h-6.2
					c-0.2,0.7-0.4,1.5-0.7,2.3c-0.3,0.8-0.5,1.4-0.8,2c1.4-0.1,2.8-0.3,4-0.5c-0.3-0.8-0.5-1.4-0.8-2.1l2.6-0.9
					c1,2.2,1.8,4.5,2.3,6.8l-2.8,1c-0.1-0.7-0.3-1.4-0.4-2.1c-0.2,0.1-0.3,0.1-0.5,0.1v8.9c0,0.6,0.1,0.9,0.1,1
					c0,0.1,0.2,0.1,0.4,0.1c0.4,0,0.7-0.1,0.8-0.3c0.1-0.4,0.2-0.8,0.2-1.3c0.1-0.4,0.1-1.1,0.2-2l2.3,1.6c-0.2,2.5-0.6,3.9-1,4.4
					c-0.2,0.3-0.5,0.5-0.9,0.5c-0.5,0.1-1,0.2-1.5,0.1c-0.6,0-1.2-0.1-1.7-0.3c-1-0.2-1.5-1.3-1.5-3.3v-9.1
					c-0.5,0.1-0.9,0.1-1.4,0.2c-0.1,4.4-0.4,7.3-1.1,8.7c-0.7,1.6-1.7,3-3,4.1l-1.5-2.8c1-0.9,1.7-2,2.2-3.3
					c0.6-2.1,0.8-4.2,0.8-6.3c-0.6,0.1-1.1,0.1-1.7,0.2l-0.5-3.2c0.5,0,1.1-0.1,1.6-0.1c0.3-0.7,0.7-1.5,1-2.5
					c0.3-0.7,0.5-1.4,0.7-2.1h-3.4v-3h4.8v-2.8H-265.6z"/>
			</g>
		</g>
		<rect id="Rectangle_78" x="33.4" y="257.8" class="st1" width="172.5" height="1.8"/>
		<g id="Group_6280" transform="translate(437.678 421.125)">
			<path id="Path_41572" class="st1" d="M-401.3-141.3v-2.4c0-0.3,0-0.5-0.1-0.8c0-0.1-0.1-0.2-0.1-0.4c0-0.1,0.1-0.2,0.4-0.2
				l1.4,0.2c0.1,0.1,0.2,0.1,0.2,0.2c0,0.1-0.1,0.2-0.2,0.2c-0.3,0.1-0.4,0.4-0.4,0.8v2.4h1.7c0.1,0,0.1,0.1,0.1,0.2v0.6
				c0,0.2-0.1,0.3-0.1,0.3h-1.7v3.8c0.6-0.3,1.1-0.6,1.6-0.9c0,0,0-0.1,0.1-0.1c0.1,0,0.1,0.1,0.1,0.1c0,0,0,0,0,0
				c0,0.3,0,0.7-0.1,1c-0.6,0.4-1.2,0.7-1.8,1v5.6c0,0.9-0.6,1.3-1.9,1.3l-1-0.1c-0.1,0-0.2-0.1-0.2-0.3c-0.1-0.3-0.2-0.6-0.3-0.8
				c0-0.1,0-0.2,0.1-0.2c0.4,0.1,0.8,0.2,1.2,0.2c0.5,0,0.8-0.2,0.8-0.6v-4.4c-0.6,0.3-1.2,0.6-1.8,0.9c-0.2,0.3-0.3,0.5-0.4,0.5
				c-0.1,0-0.4-0.5-0.7-1.5c1-0.3,1.9-0.7,2.8-1.1c0,0,0.1,0,0.1-0.1v-4.4h-2.2c-0.1,0-0.1-0.1-0.1-0.3v-0.6c0-0.1,0-0.2,0.1-0.2
				L-401.3-141.3z M-393.4-136.7v-1.4c0-0.2,0.1-0.2,0.3-0.2c0.9,0,1.4,0.1,1.4,0.2s-0.1,0.2-0.2,0.3c-0.1,0-0.2,0.1-0.2,0.4v0.8
				h4.5c0.1,0,0.2,0.1,0.2,0.3v0.6c0,0.2-0.1,0.3-0.2,0.3h-4.3c0.4,0.7,0.9,1.4,1.4,2c0.5,0.7,1.1,1.2,1.8,1.7
				c0.5,0.4,1.1,0.7,1.7,1c0,0.1-0.1,0.1-0.2,0.2c-0.2,0.2-0.4,0.4-0.6,0.7c-0.1,0.1-0.1,0.1-0.2,0.1c-1.5-0.8-2.9-2-3.8-3.5
				c-0.1-0.2-0.2-0.3-0.3-0.5v5.1c0,0.1-0.1,0.2-0.3,0.2h-0.7c-0.2,0-0.3-0.1-0.3-0.2v-5.1c-0.2,0.3-0.4,0.5-0.5,0.7
				c-0.5,0.6-1,1.2-1.6,1.7c-0.6,0.5-1.3,1-1.9,1.4c-0.1,0-0.2,0-0.3-0.1c-0.2-0.2-0.5-0.4-0.7-0.6c0-0.1-0.1-0.1-0.1-0.2
				c0.5-0.3,1-0.6,1.5-0.9c0.7-0.5,1.3-1,1.8-1.7c0.5-0.7,1.1-1.4,1.5-2.1h-3.7c-0.1,0-0.2-0.1-0.2-0.3v-0.6c0-0.2,0.1-0.3,0.2-0.3
				L-393.4-136.7z M-388.8-144c-0.7,0.2-1.5,0.4-2.3,0.6c-1.9,0.4-3.8,0.6-5.7,0.6c-0.2,0-0.3-0.1-0.4-0.2c-0.2-0.2-0.4-0.5-0.6-0.8
				c0-0.1,0.1-0.2,0.2-0.2c0,0,0,0,0,0h1.1c1,0,1.9,0,2.9-0.1c0.7,0,1.5-0.1,2.2-0.3c0.7-0.1,1.4-0.4,2.1-0.7c0.1,0,0.1,0,0.2,0
				c0.1,0,0.2,0,0.3,0.1c0.7,0.6,1.1,1,1.1,1.1c0,0.1-0.1,0.2-0.2,0.2c0,0,0,0,0,0l-0.5-0.2C-388.6-144.1-388.7-144.1-388.8-144
				L-388.8-144z M-395.4-140.5c0.2,0.5,0.3,1,0.4,1.5c-0.4,0.2-0.8,0.3-1.2,0.4c-0.1-0.4-0.2-0.8-0.3-1.2c-0.2-0.6-0.4-1.1-0.6-1.7
				c0-0.1,0.3-0.3,1-0.6C-395.8-141.6-395.6-141.1-395.4-140.5L-395.4-140.5z M-392.3-140.8c0.1,0.5,0.3,0.9,0.4,1.4
				c-0.4,0.2-0.8,0.3-1.2,0.4c-0.1-0.4-0.1-0.8-0.3-1.2c-0.2-0.6-0.4-1.1-0.6-1.6c0-0.1,0.3-0.3,1-0.6
				C-392.7-141.8-392.4-141.3-392.3-140.8L-392.3-140.8z M-387.8-141.8c0.1,0.1,0.1,0.1,0.1,0.2c0,0.1-0.1,0.2-0.2,0.2
				c-0.2,0-0.4,0.1-0.4,0.2c-0.5,0.9-1,1.8-1.6,2.6c-0.2,0-0.3,0-0.3-0.1l-0.9-0.5c0.4-0.4,0.8-1,1.1-1.5c0.3-0.5,0.5-1.1,0.7-1.6
				c0.1-0.1,0.1-0.1,0.2-0.1L-387.8-141.8z"/>
			<path id="Path_41573" class="st1" d="M-368.3-138.3c0.1,0,0.1,0.1,0.1,0.2v0.6c0,0.2-0.1,0.3-0.1,0.3h-8.5v8.3
				c0,0.2-0.1,0.2-0.3,0.2h-0.7c-0.2,0-0.3-0.1-0.3-0.2v-1.4c-1.8,0.2-3.5,0.4-5.3,0.6c-0.2,0.3-0.3,0.5-0.4,0.5
				c-0.1,0-0.3-0.5-0.6-1.4c0.4,0,0.9-0.1,1.4-0.1v-6.5h-1.4c-0.1,0-0.1-0.1-0.1-0.3v-0.6c0-0.1,0-0.2,0.1-0.2L-368.3-138.3z
				 M-370.8-144.9c0.2,0,0.3,0.1,0.3,0.2v5.2c0,0.1-0.1,0.2-0.3,0.2h-10.8c-0.2,0-0.3-0.1-0.3-0.2v-5.2c0-0.1,0.1-0.2,0.3-0.2
				L-370.8-144.9z M-378-135.9v-1.3h-3.7v1.3H-378z M-378-133.4v-1.4h-3.7v1.4H-378z M-381.2-130.9c1.1-0.1,2.2-0.3,3.2-0.4v-1h-3.7
				v1.5C-381.5-130.9-381.4-130.9-381.2-130.9L-381.2-130.9z M-371.8-142.6v-1.2h-8.8v1.2H-371.8z M-371.8-141.6h-8.8v1.2h8.8
				V-141.6z M-369.5-136c0.1,0,0.2,0,0.2,0.1l0.3,0.4c0.1,0.1,0.1,0.2,0.1,0.4c-0.5,1.3-1.2,2.4-2,3.5c-0.1,0.1-0.2,0.3-0.3,0.3
				c0.4,0.3,0.7,0.5,1.2,0.7c0.6,0.3,1.3,0.5,2,0.7c0.1,0,0.1,0.1,0.1,0.1c0,0.1,0,0.1-0.1,0.2c-0.2,0.2-0.5,0.4-0.7,0.6
				c-0.1,0.1-0.1,0.2-0.2,0.2c-0.1,0-0.2-0.1-0.3-0.1c-0.4-0.1-0.8-0.3-1.3-0.5c-0.5-0.3-1.1-0.6-1.6-0.9c0,0-0.1-0.1-0.1-0.1
				c-0.2,0.2-0.5,0.4-0.7,0.5c-0.7,0.4-1.5,0.8-2.2,1.1c-0.1,0-0.3-0.1-0.3-0.2c-0.1-0.2-0.2-0.4-0.4-0.6c-0.1-0.1-0.1-0.2-0.1-0.2
				c0-0.1,0.1-0.2,0.1-0.2c1-0.2,1.9-0.6,2.7-1.1l0.1-0.1c-0.1-0.1-0.1-0.2-0.2-0.2c-0.4-0.4-0.7-0.9-0.9-1.5
				c-0.3-0.6-0.5-1.2-0.7-1.9h-0.8c-0.1,0-0.2-0.1-0.2-0.3v-0.6c0-0.2,0.1-0.3,0.2-0.3L-369.5-136z M-373.2-133.9
				c0.2,0.5,0.5,1,0.8,1.5c0.1,0.1,0.2,0.3,0.3,0.4c0.3-0.3,0.6-0.7,0.8-1c0.3-0.4,0.6-1,1-1.7h-3.2
				C-373.4-134.5-373.3-134.2-373.2-133.9L-373.2-133.9z"/>
			<path id="Path_41574" class="st1" d="M-359.8-144.1c0.2,0.1,0.3,0.2,0.3,0.3c0,0.2-0.1,0.3-0.3,0.4c-0.3,0-0.5,0.1-0.5,0.4
				c-0.1,0.3-0.2,0.5-0.3,0.8h3.6v-2.6c0-0.1,0.1-0.2,0.3-0.2c1,0,1.5,0.1,1.5,0.2c0,0.1-0.1,0.2-0.2,0.3c-0.1,0-0.2,0.1-0.2,0.4
				v1.9h5.3c0.1,0,0.2,0.1,0.2,0.3v0.6c0,0.2-0.1,0.3-0.2,0.3h-5.3v3.7h6.6c0.1,0,0.2,0.1,0.2,0.3v0.6c0,0.2-0.1,0.3-0.2,0.3h-5v5.3
				c0,0.6,0.3,0.9,1.1,0.9h2.1c0.4,0,0.8-0.3,0.9-0.7c0.2-0.5,0.3-1.1,0.3-1.7c0.3,0.3,0.6,0.4,1,0.6c0.1,0,0.2,0.2,0.2,0.3
				c-0.1,0.7-0.3,1.3-0.6,1.9c-0.2,0.5-0.7,0.8-1.4,0.8h-3.2c-1.1,0-1.6-0.4-1.6-1.2v-6.2h-2.9c0,0.9-0.1,1.6-0.1,2.1
				c-0.1,0.7-0.3,1.3-0.5,1.9c-0.3,0.6-0.6,1.2-1.1,1.6c-0.6,0.5-1.2,0.9-1.9,1.3c-0.6,0.3-1.3,0.5-2.1,0.7c-0.1,0-0.2-0.1-0.2-0.2
				c-0.2-0.2-0.4-0.5-0.5-0.8c0-0.1-0.1-0.1-0.1-0.2c0.9-0.1,1.8-0.4,2.6-0.7c0.5-0.2,0.9-0.5,1.3-0.9c0.3-0.3,0.6-0.7,0.7-1.1
				c0.2-0.5,0.4-1,0.5-1.6c0.1-0.7,0.1-1.4,0.1-2.2h-5c-0.1,0-0.2-0.1-0.2-0.3v-0.6c0-0.2,0.1-0.3,0.2-0.3h7.5v-3.7h-4.2
				c-0.4,0.9-0.9,1.7-1.5,2.5c-0.2,0.2-0.3,0.3-0.4,0.3c-0.1,0-0.2,0-0.3-0.1c-0.3-0.1-0.5-0.2-0.7-0.4c-0.1,0-0.2-0.1-0.2-0.1
				s0-0.1,0.1-0.2c0.6-0.7,1.2-1.5,1.7-2.3c0.5-0.8,1-1.7,1.3-2.6c0.1-0.3,0.2-0.4,0.3-0.4L-359.8-144.1z"/>
			<path id="Path_41575" class="st1" d="M-342.1-136.7c0.2,0,0.3,0.1,0.3,0.2v4.8c0,0.3,0.1,0.6,0.2,0.8c0.1,0.2,0.3,0.4,0.5,0.4
				c0.3,0.2,0.6,0.3,1,0.3c0.5,0.1,1.1,0.1,1.6,0.1h3.8c1.8,0,3.6-0.2,5.3-0.5c0.1,0,0.2-0.1,0.3-0.1c0.1,0,0.1,0,0.1,0.1
				c-0.2,0.5-0.3,1-0.4,1.5c0,0.2-0.1,0.3-0.3,0.3h-8.9c-0.4,0-0.9,0-1.3-0.1c-0.4-0.1-0.8-0.1-1.2-0.2c-0.3-0.1-0.7-0.3-1-0.5
				c-0.3-0.2-0.5-0.5-0.6-0.8l-0.1-0.1c-0.1,0-0.1,0-0.1,0.1c-0.8,0.5-1.5,1.1-2,1.8c0,0.1-0.1,0.1-0.2,0.1c-0.1,0-0.3-0.3-0.7-0.9
				c-0.1-0.1-0.1-0.2-0.1-0.4c0.9-0.4,1.8-1,2.6-1.6c0.1,0,0.1-0.2,0.1-0.4v-3.8h-2.3c-0.1,0-0.2-0.1-0.2-0.3v-0.6
				c0-0.2,0.1-0.3,0.2-0.3L-342.1-136.7z M-343.1-140.2c0.5,0.4,0.9,0.7,1.3,1c0,0.1-0.1,0.1-0.1,0.1l-0.6,0.8
				c-0.6-0.5-1.1-0.9-1.8-1.3c-0.4-0.3-0.8-0.5-1.3-0.7c0.2-0.3,0.3-0.6,0.6-0.8c0.1-0.1,0.1-0.1,0.1-0.1
				C-344-140.8-343.5-140.5-343.1-140.2L-343.1-140.2z M-342.7-144.4c0.5,0.3,0.9,0.6,1.3,0.9c0,0.1-0.1,0.1-0.1,0.2
				c-0.4,0.5-0.6,0.8-0.6,0.8c-0.6-0.4-1.1-0.8-1.7-1.1c-0.4-0.2-0.8-0.4-1.2-0.6c0.2-0.3,0.3-0.6,0.6-0.8c0.1-0.1,0.1-0.1,0.1-0.1
				C-343.7-145-343.2-144.7-342.7-144.4L-342.7-144.4z M-336.8-144.6c0,0.1-0.1,0.2-0.1,0.2c-0.2,0-0.3,0.1-0.4,0.2
				c-0.2,0.5-0.5,1.1-0.7,1.6h2.7c0.2-0.2,0.3-0.4,0.5-0.7c0.3-0.5,0.6-1.1,0.8-1.7c0-0.1,0.1-0.2,0.1-0.2c0.5,0.2,1,0.4,1.5,0.7
				c0,0.1-0.1,0.1-0.2,0.1c-0.2,0-0.4,0.2-0.5,0.4c-0.2,0.5-0.5,0.9-0.8,1.4h4c0.1,0,0.2,0.1,0.2,0.3v0.6c0,0.2-0.1,0.3-0.2,0.3
				h-3.9v2.1h3.4c0.1,0,0.2,0.1,0.2,0.3v0.6c0,0.2-0.1,0.3-0.2,0.3h-3.4v2.1h3.4c0.1,0,0.2,0.1,0.2,0.3v0.6c0,0.2-0.1,0.3-0.2,0.3
				h-3.4v2h4.2c0.1,0,0.2,0.1,0.2,0.3v0.6c0,0.2-0.1,0.3-0.2,0.3h-8.8v0.6c0,0.1-0.1,0.2-0.3,0.2h-0.7c-0.2,0-0.3-0.1-0.3-0.2v-9.2
				c-0.3,0.4-0.7,0.8-1.2,1.3c-0.1,0-0.3-0.1-0.3-0.2c-0.2-0.1-0.4-0.3-0.5-0.4c-0.1,0-0.1-0.1-0.1-0.2c0.4-0.4,0.8-0.9,1.3-1.4
				c0.5-0.6,1-1.3,1.4-2.1c0.3-0.6,0.6-1.3,0.8-2c0-0.1,0-0.1,0.1-0.1C-337.3-145-336.8-144.7-336.8-144.6L-336.8-144.6z
				 M-335-141.6h-3.2v2.1h3.2V-141.6z M-335-136.2v-2.1h-3.2v2.1H-335z M-335-133.1v-2h-3.2v2H-335z"/>
			<path id="Path_41576" class="st1" d="M-323.6-141.6v-2.4c0-0.3,0-0.5-0.1-0.8c0-0.1-0.1-0.2-0.1-0.3c0-0.1,0.1-0.1,0.4-0.1
				l1.4,0.2c0.1,0.1,0.2,0.1,0.2,0.2c0,0.1-0.1,0.2-0.2,0.2c-0.3,0.1-0.4,0.4-0.4,0.8v2.4h2.3c0.1,0,0.2,0.1,0.2,0.3v0.6
				c0,0.2-0.1,0.3-0.2,0.3h-2.3v4.1c0.8-0.4,1.5-0.8,2.3-1.2c0,0,0.1-0.1,0.1-0.1c0.1,0,0.1,0,0.1,0.1c0,0,0,0,0,0
				c0,0.3,0,0.7-0.1,1c-0.8,0.5-1.6,0.9-2.4,1.3v5.1c0,0.8-0.6,1.3-1.9,1.3h-1.1c-0.1,0-0.1-0.1-0.1-0.3c-0.1-0.3-0.2-0.6-0.3-0.8
				c0-0.1,0-0.1,0.1-0.1c0.4,0.1,0.9,0.1,1.3,0.1c0.5,0,0.8-0.2,0.8-0.7v-3.9c-0.6,0.3-1.3,0.6-1.9,0.9c-0.2,0.4-0.3,0.5-0.4,0.5
				c-0.1,0-0.4-0.5-0.7-1.5c1-0.3,2-0.7,3-1.2v-4.7h-2.4c-0.1,0-0.2-0.1-0.2-0.3v-0.6c0-0.2,0.1-0.3,0.2-0.3L-323.6-141.6z
				 M-315.1-142.4v-2.6c0-0.1,0.1-0.2,0.3-0.2c0.9,0,1.4,0.1,1.4,0.2c0,0.2-0.1,0.3-0.2,0.3c-0.1,0-0.2,0.2-0.2,0.4v1.9h3.8
				c0.1,0,0.2,0.1,0.2,0.3v0.6c0,0.2-0.1,0.3-0.2,0.3h-3.8v3h2.9c0.1,0,0.3,0,0.4,0.1c0.2,0.2,0.3,0.3,0.3,0.4
				c-0.2,0.8-0.4,1.6-0.6,2.3c-0.3,0.7-0.6,1.3-1.1,2c-0.3,0.5-0.7,1-1.1,1.4c-0.1,0.1-0.1,0.1-0.2,0.2c0.6,0.6,1.4,1,2.1,1.4
				c0.5,0.2,0.9,0.4,1.4,0.5c0.1,0.1,0.2,0.1,0.2,0.1c0,0.1,0,0.2-0.1,0.3c-0.2,0.2-0.4,0.4-0.5,0.7c0,0.1-0.1,0.1-0.2,0.2
				c-0.3-0.1-0.7-0.2-1-0.4c-1-0.5-2-1.1-2.9-1.9c-0.2,0.1-0.3,0.2-0.5,0.3c-0.6,0.4-1.2,0.7-1.8,1c-0.8,0.4-1.6,0.7-2.5,1
				c-0.1,0-0.3-0.1-0.3-0.2c-0.3-0.2-0.5-0.4-0.8-0.6c-0.1-0.1-0.1-0.1-0.1-0.2c0-0.1,0-0.1,0.1-0.1c1-0.2,1.9-0.6,2.8-1
				c0.7-0.3,1.4-0.7,2.1-1.2l0.1-0.1c-0.6-0.7-1.1-1.4-1.5-2.2c-0.5-1-0.9-2-1.2-3.1h-0.9c-0.2,0-0.2-0.1-0.2-0.3v-0.6
				c0-0.2,0.1-0.3,0.2-0.3h3.6v-3h-3.7c-0.1,0-0.2-0.1-0.2-0.3v-0.6c0-0.2,0.1-0.3,0.2-0.3L-315.1-142.4z M-315.6-134.8
				c0.4,0.8,0.9,1.5,1.5,2.1c0.2-0.2,0.4-0.4,0.5-0.6c0.4-0.6,0.8-1.1,1.2-1.8c0.3-0.7,0.5-1.4,0.7-2.1h-4.8
				C-316.3-136.3-316-135.5-315.6-134.8L-315.6-134.8z"/>
			<path id="Path_41577" class="st1" d="M-302.2-139.8c0,0.2-0.1,0.3-0.3,0.4c-0.1,0-0.2,0.1-0.3,0.2c-0.3,0.6-0.7,1.2-1,1.7v8.8
				c0,0.2-0.1,0.2-0.3,0.2h-0.7c-0.2,0-0.3-0.1-0.3-0.2v-7.1c-0.3,0.4-0.7,0.8-1.2,1.2c-0.3-0.3-0.5-0.6-0.8-0.8
				c-0.1-0.1-0.1-0.2-0.1-0.2l0.1-0.1c0.9-0.7,1.6-1.5,2.2-2.4c0.6-0.8,1-1.6,1.4-2.5c0-0.1,0.1-0.1,0.1-0.1
				C-303-140.6-302.6-140.2-302.2-139.8z M-302.4-144.2c0.1,0.1,0.2,0.2,0.3,0.4c0,0.2-0.1,0.2-0.2,0.2c-0.2,0-0.4,0.1-0.5,0.2
				c-0.9,1.3-2.1,2.5-3.3,3.4c-0.1,0-0.2-0.1-0.3-0.2c-0.2-0.2-0.4-0.4-0.6-0.6c-0.1-0.1-0.1-0.2-0.1-0.2c0-0.1,0-0.1,0.1-0.1
				c0.4-0.2,0.7-0.5,1-0.8c0.5-0.4,0.9-0.9,1.3-1.4c0.4-0.5,0.7-1,1-1.6c0.1-0.1,0.1-0.2,0.2-0.2L-302.4-144.2z M-300.1-138.4
				c0.1,0,0.2,0.1,0.2,0.2c0,0.1-0.1,0.2-0.1,0.3c-0.1,0.1-0.2,0.3-0.3,0.6c0.1,1.5,0,3-0.3,4.5c-0.2,0.7-0.4,1.4-0.7,2.1
				c0,0.1-0.1,0.2-0.4,0.2c-0.7-0.2-1-0.3-1-0.4c0.4-0.7,0.7-1.5,0.8-2.4c0.2-1.7,0.4-3.4,0.4-5.2c0-0.1,0.1-0.2,0.2-0.2
				L-300.1-138.4z M-299.3-141.5v-3.6c0-0.1,0.1-0.2,0.3-0.2c0.9,0,1.4,0.1,1.4,0.2c0,0.2-0.1,0.3-0.2,0.3c-0.1,0-0.2,0.1-0.2,0.4v3
				h2.4c0.1,0,0.2,0.1,0.2,0.3v0.6c0,0.2-0.1,0.3-0.2,0.3h-2.5v11.5c0,0.2-0.1,0.2-0.3,0.2h-0.7c-0.2,0-0.3-0.1-0.3-0.2v-11.5h-2.2
				c-0.1,0-0.2-0.1-0.2-0.3v-0.6c0-0.2,0.1-0.3,0.2-0.3H-299.3z M-296.4-144.4c0.4,0.6,0.8,1.1,1.1,1.7c0,0.2,0,0.3-0.1,0.3
				c-0.3,0.2-0.6,0.4-1,0.4c-0.3-0.7-0.6-1.3-1-1.9c0-0.1,0.3-0.3,0.8-0.6C-296.4-144.4-296.4-144.4-296.4-144.4L-296.4-144.4z
				 M-295.6-138.3c0,0.1-0.1,0.2-0.2,0.3v5.6c0,0.1,0,0.2,0.1,0.2h0.4c0.2,0,0.3-0.6,0.5-1.7l1.1,0.6c-0.3,1.5-0.8,2.2-1.3,2.2h-1.1
				c-0.6,0-0.9-0.3-0.9-0.8v-6.6c0-0.1,0.1-0.2,0.2-0.2C-296-138.5-295.6-138.4-295.6-138.3L-295.6-138.3z M-290.2-140
				c0.1,0,0.2,0.1,0.2,0.3v0.6c0,0.2-0.1,0.3-0.2,0.3h-1.2v9c0,0.9-0.8,1.4-2.2,1.4h-0.8c-0.1,0-0.1-0.1-0.1-0.4
				c0-0.3-0.1-0.6-0.3-0.9v-0.1c0.4,0.1,0.8,0.1,1.1,0.1c0.7,0,1-0.2,1-0.6v-8.5h-2c-0.1,0-0.2-0.1-0.2-0.3v-0.6
				c0-0.2,0.1-0.3,0.2-0.3L-290.2-140z M-290.5-143.9c0.1,0,0.2,0.1,0.2,0.3v0.6c0,0.2-0.1,0.3-0.2,0.3h-3.9c-0.1,0-0.2-0.1-0.2-0.3
				v-0.6c0-0.2,0.1-0.3,0.2-0.3H-290.5z"/>
			<path id="Path_41578" class="st1" d="M-285.8-139.7c0.4,0.3,0.8,0.7,1.1,0.9c0,0,0,0.1-0.1,0.2c-0.4,0.6-0.6,0.8-0.6,0.8
				c-0.5-0.4-1-0.9-1.5-1.2c-0.3-0.2-0.7-0.5-1.1-0.6c0.2-0.3,0.3-0.6,0.6-0.8c0.1-0.1,0.1-0.1,0.1-0.1
				C-286.6-140.3-286.1-140-285.8-139.7z M-284.1-136.6c0.3,0.7,0.5,1,0.5,1.1c0,0.1,0,0.2-0.1,0.2c-0.5,1.3-1,2.5-1.5,3.4
				c-0.3,0.5-0.6,1.1-0.9,1.7c-0.1,0.2-0.1,0.4-0.1,0.6c0,0.1-0.1,0.2-0.1,0.2c-0.4-0.3-0.8-0.7-1.2-1.2c-0.1,0-0.1-0.1-0.1-0.2
				c0-0.1,0-0.2,0.1-0.3c0.4-0.4,0.7-0.8,1-1.3c0.4-0.7,0.9-1.4,1.3-2.3c0.4-0.8,0.7-1.5,1-2.1c0-0.1,0.1-0.2,0.1-0.2
				C-284.1-136.7-284.1-136.7-284.1-136.6L-284.1-136.6z M-284-144.1c0.4,0.3,0.8,0.6,1.2,0.9l-0.1,0.2c-0.4,0.6-0.6,0.8-0.6,0.8
				c-0.5-0.4-1-0.9-1.6-1.2c-0.3-0.2-0.7-0.5-1.1-0.6c0.1-0.3,0.3-0.6,0.5-0.8c0.1-0.1,0.1-0.1,0.2-0.1
				C-284.9-144.6-284.4-144.3-284-144.1L-284-144.1z M-276.6-145.1c0,0.2-0.1,0.3-0.2,0.3c-0.1,0-0.2,0.1-0.2,0.4v0.4h4.8
				c0.1,0,0.1,0.1,0.1,0.2v0.4c0,0.2-0.1,0.3-0.1,0.3h-4.8v0.9h5.6c0.2,0,0.3,0.1,0.3,0.2v1.8c0,0.1-0.1,0.2-0.3,0.2h-0.7
				c-0.1,0-0.2-0.1-0.2-0.2v-1h-5.5v1l4.3-0.5c0.1,0,0.2,0.1,0.2,0.2v0.4c0,0.2-0.1,0.3-0.2,0.3l-4.3,0.5c0,0.4,0.3,0.5,0.8,0.5h3.2
				c0.2,0,0.4,0,0.6-0.1c0.1-0.1,0.2-0.3,0.3-0.6c0,0,0-0.1,0.1-0.1c0.3,0.2,0.6,0.3,0.9,0.3c0.1,0,0.2,0.1,0.2,0.2
				c-0.1,0.4-0.3,0.8-0.6,1.1c-0.3,0.2-0.6,0.2-0.9,0.2h-4.3c-0.9,0-1.3-0.3-1.3-0.9v-0.4l-1.8,0.2c-0.1,0-0.1-0.1-0.1-0.3v-0.4
				c0-0.1,0-0.2,0.1-0.2l1.8-0.2v-1.1h-2.6v4c0,1.4-0.1,2.9-0.4,4.3c-0.2,0.9-0.5,1.8-0.9,2.6c-0.3,0.5-0.6,1.1-1.1,1.5
				c-0.1,0-0.1,0-0.2,0c-0.2-0.2-0.4-0.3-0.7-0.5c0-0.1-0.1-0.1-0.1-0.2c0.5-0.5,0.8-1.1,1.1-1.8c0.3-0.8,0.6-1.7,0.7-2.5
				c0.2-1.1,0.2-2.2,0.2-3.4v-4.8c0-0.1,0.1-0.2,0.2-0.2h4.2v-2.8c0-0.1,0.1-0.2,0.3-0.2C-277.1-145.3-276.6-145.2-276.6-145.1
				L-276.6-145.1z M-279.9-131.6c0.1,0.1,0.2,0.1,0.2,0.2c0,0.1,0,0.1-0.1,0.2c-0.1,0-0.2,0.1-0.2,0.2c-0.2,0.7-0.5,1.5-0.8,2.1
				c-0.1,0.1-0.1,0.2-0.1,0.2c-0.1,0-0.2,0-0.3-0.1c-0.2-0.1-0.4-0.2-0.6-0.3l-0.1-0.1c0,0,0-0.1,0-0.1c0.2-0.4,0.4-0.8,0.6-1.2
				c0.2-0.4,0.3-0.9,0.4-1.3c0-0.1,0.1-0.2,0.1-0.2L-279.9-131.6z M-272.3-137.2c0.2,0,0.3,0.1,0.3,0.2v4c0,0.1-0.1,0.2-0.3,0.2
				h-7.8c-0.2,0-0.3-0.1-0.3-0.2v-4c0-0.2,0.1-0.2,0.3-0.2H-272.3z M-276.8-135.4v-0.8h-2.3v0.8H-276.8z M-276.8-134.5h-2.3v0.8h2.3
				V-134.5z M-277.6-132.1c0,0.1-0.1,0.2-0.2,0.3v1.8c0,0.1,0,0.2,0.1,0.2h3.3c0.2,0,0.5-0.4,0.7-1.1l1.1,0.6
				c-0.4,1.1-0.9,1.6-1.5,1.6h-4c-0.6,0-0.9-0.3-0.9-0.8v-2.7c0-0.1,0.1-0.2,0.2-0.2C-278.1-132.3-277.6-132.2-277.6-132.1
				L-277.6-132.1z M-276.1-132.5c0.5,0.3,0.9,0.6,1.3,1c0,0,0.1,0.1,0.1,0.1c0,0.1,0,0.1-0.1,0.1l-0.3,0.4c-0.1,0.1-0.2,0.1-0.3,0.1
				c-0.1,0-0.1,0-0.1-0.1c-0.4-0.3-0.8-0.6-1.2-0.8c-0.1,0-0.1-0.1-0.1-0.1c0-0.1,0-0.1,0.1-0.2l0.3-0.6
				C-276.3-132.5-276.3-132.5-276.1-132.5L-276.1-132.5z M-275.6-135.4h2.4v-0.8h-2.4V-135.4z M-273.3-134.5h-2.4v0.8h2.4V-134.5z
				 M-271.6-131.4c0.3,0.3,0.6,0.6,0.9,0.9l-0.1,0.1l-0.5,0.7c-0.4-0.4-0.8-0.8-1.2-1.1c-0.3-0.2-0.5-0.4-0.8-0.6
				c0.1-0.2,0.3-0.5,0.5-0.7c0,0,0.1-0.1,0.1-0.1C-272.3-131.9-271.9-131.7-271.6-131.4L-271.6-131.4z"/>
			<path id="Path_41579" class="st1" d="M-266.2-128.7c0,0.1-0.1,0.2-0.3,0.2h-0.7c-0.2,0-0.3-0.1-0.3-0.2v-15.7
				c0-0.1,0.1-0.3,0.2-0.3c0,0,0,0,0.1,0h4.2c0.2,0,0.4,0,0.6,0.1c0.2,0.2,0.4,0.4,0.4,0.7l-1.9,4.3c0,0.1,0,0.1,0,0.2
				c0,0.1,0,0.1,0.1,0.2c0.6,0.8,1,1.6,1.4,2.5c0.3,0.7,0.4,1.5,0.4,2.2c0.1,0.8-0.1,1.7-0.6,2.4c-0.5,0.7-1.3,1-2.2,0.9
				c-0.6,0-0.8-0.1-0.9-0.4c-0.1-0.3-0.1-0.6-0.2-0.9c0-0.2,0-0.3,0.1-0.3l1,0.1c0.6,0,0.9-0.2,1.1-0.5c0.1-0.5,0.2-1,0.2-1.5
				c0-0.7-0.2-1.4-0.4-2.1c-0.3-0.9-0.8-1.7-1.5-2.4c-0.1-0.1-0.1-0.1-0.1-0.2c0-0.1,0-0.2,0.1-0.3l1.9-4.1h-2.7L-266.2-128.7z
				 M-259.1-132.9c0.1,0.1,0.1,0.2,0.1,0.2s0,0.1-0.1,0.1c-0.1,0-0.2,0.1-0.3,0.2c-0.3,0.5-0.6,1-1,1.5c-0.5,0.6-1,1.1-1.6,1.6
				c-0.1,0-0.2,0-0.3-0.2c-0.2-0.2-0.4-0.4-0.6-0.5c-0.1,0-0.1-0.1-0.1-0.1c0,0,0-0.1,0.1-0.1c0.3-0.1,0.6-0.3,0.8-0.5
				c0.4-0.4,0.8-0.8,1.2-1.3c0.3-0.4,0.6-0.9,0.9-1.4c0-0.1,0.1-0.1,0.1-0.1L-259.1-132.9z M-255.9-144.6c0.1,0.1,0.2,0.2,0.2,0.2
				c0,0.1-0.1,0.2-0.4,0.2c-0.1,0-0.1,0-0.2,0c0.3,0.4,0.6,0.9,1,1.3c0.4,0.5,0.9,0.9,1.4,1.2c0.7,0.5,1.5,0.9,2.4,1.2
				c0.1,0,0.2,0.1,0.2,0.1c0,0.1,0,0.2-0.1,0.2c-0.3,0.2-0.5,0.4-0.7,0.6c-0.1,0.1-0.1,0.1-0.2,0.1c-0.6-0.2-1.2-0.5-1.7-0.9
				c-0.7-0.4-1.3-0.9-1.8-1.5c-0.4-0.5-0.8-1-1.2-1.5c-0.3,0.4-0.6,0.8-0.8,1.1c-0.3,0.5-0.7,0.9-1.1,1.3c-0.5,0.5-0.9,0.9-1.3,1.2
				c-0.3,0.3-0.7,0.5-1.1,0.8c-0.1,0-0.2-0.1-0.3-0.2c-0.2-0.2-0.3-0.5-0.6-0.6c-0.1-0.1-0.2-0.1-0.2-0.2c0,0,0-0.1,0.1-0.1
				c0.6-0.2,1.1-0.6,1.6-0.9c0.6-0.5,1.2-1,1.7-1.6c0.4-0.4,0.7-0.8,0.9-1.2c0.3-0.5,0.5-0.9,0.7-1.4c0.1-0.1,0.1-0.2,0.2-0.2
				L-255.9-144.6z M-253.7-139.7c0.1,0,0.2,0.1,0.2,0.3v0.6c0,0.2-0.1,0.3-0.2,0.3h-2.5v2.6h4.1c0.1,0,0.2,0.1,0.2,0.3v0.6
				c0,0.2-0.1,0.3-0.2,0.3h-4.1v4.9c0,0.9-0.8,1.4-2.2,1.4h-0.9c-0.1,0-0.1-0.1-0.1-0.3c0-0.3-0.2-0.7-0.3-1v-0.1
				c0.4,0.1,0.8,0.1,1.2,0.1c0.7,0,1-0.2,1-0.6v-4.4h-3.9c-0.1,0-0.2-0.1-0.2-0.3v-0.6c0-0.2,0.1-0.3,0.2-0.3h3.9v-2.6h-2.4
				c-0.2,0-0.2-0.1-0.2-0.3v-0.6c0-0.2,0.1-0.3,0.2-0.3H-253.7z M-252.7-132c0.4,0.6,0.8,1.2,1.1,1.7c0,0.1-0.1,0.1-0.1,0.2
				c-0.4,0.6-0.6,0.8-0.6,0.8c-0.5-0.8-1-1.5-1.5-2.2c-0.3-0.4-0.7-0.8-1.1-1.2c0.2-0.3,0.3-0.6,0.6-0.8c0.1-0.1,0.1-0.1,0.1-0.1
				C-253.7-133.1-253.2-132.6-252.7-132L-252.7-132z"/>
			<path id="Path_41580" class="st1" d="M-245.2-141.4c0.2,0.1,0.3,0.1,0.3,0.2c0,0.2-0.1,0.2-0.3,0.3c-0.2,0-0.4,0.1-0.4,0.3
				c-0.1,0.4-0.3,0.7-0.4,1c0.4,0.4,0.9,0.7,1.4,1.1c0,0.1,0,0.1-0.1,0.2c-0.1,0.3-0.3,0.5-0.5,0.7c-0.5-0.3-0.9-0.6-1.3-1
				c-0.3,0.5-0.6,1.1-1,1.5c-0.1,0.2-0.3,0.3-0.3,0.3c-0.1,0-0.2,0-0.3-0.1c-0.2-0.1-0.5-0.2-0.7-0.3c-0.1,0-0.1-0.1-0.1-0.1
				c0-0.1,0.1-0.1,0.1-0.2c0.5-0.6,1-1.2,1.4-1.9c0.4-0.7,0.8-1.4,1-2.2c0.1-0.2,0.1-0.3,0.2-0.3L-245.2-141.4z M-244.9-135.4v-1.1
				c0-0.1,0.1-0.1,0.2-0.1c0.9,0,1.3,0.1,1.3,0.2c0,0.2-0.1,0.2-0.2,0.2s-0.1,0.1-0.1,0.3v0.4h3.1c0.1,0,0.1,0.1,0.1,0.2v0.6
				c0,0.2-0.1,0.3-0.1,0.3h-3c0.3,0.5,0.7,1,1.1,1.5c0.4,0.5,0.9,1,1.4,1.4c0.4,0.3,0.9,0.6,1.4,0.8c0,0.1-0.1,0.1-0.2,0.2
				c-0.2,0.2-0.4,0.4-0.6,0.6c-0.1,0.1-0.1,0.1-0.1,0.1c-0.6-0.3-1.2-0.8-1.7-1.3c-0.5-0.5-0.9-1-1.3-1.5c0,0-0.1-0.1-0.1-0.1v4
				c0,0.2-0.1,0.2-0.3,0.2h-0.7c-0.1,0-0.2-0.1-0.2-0.2v-4c-0.1,0.2-0.3,0.4-0.4,0.5c-0.4,0.5-0.8,1-1.2,1.5c-0.5,0.5-1,0.9-1.5,1.3
				c-0.1,0-0.2,0-0.3-0.1c-0.2-0.2-0.4-0.4-0.6-0.6c0-0.1-0.1-0.1-0.1-0.2c1-0.6,1.8-1.3,2.5-2.2c0.3-0.3,0.6-0.9,1.1-1.7h-2.9
				c-0.1,0-0.1-0.1-0.1-0.3v-0.6c0-0.1,0-0.2,0.1-0.2L-244.9-135.4z M-243.3-145c0,0.2-0.1,0.3-0.2,0.3c-0.1,0-0.2,0.2-0.2,0.4v1.3
				h2.9c0.1,0,0.1,0.1,0.1,0.2v0.6c0,0.2-0.1,0.3-0.1,0.3h-7.5c-0.1,0-0.1-0.1-0.1-0.3v-0.6c0-0.1,0-0.2,0.1-0.2h3.4v-1.9
				c0-0.1,0.1-0.2,0.3-0.2C-243.7-145.2-243.3-145.2-243.3-145L-243.3-145z M-241.6-141.2c0.1,0.1,0.2,0.1,0.2,0.2
				c0,0.1-0.1,0.2-0.2,0.3c-0.2,0-0.3,0.1-0.3,0.3c0,0,0,0,0,0c-0.1,0.3-0.2,0.7-0.3,1c0.1,0.3,0.3,0.6,0.6,0.8
				c0.3,0.4,0.7,0.7,1.1,1c0.1,0,0.1,0.1,0.1,0.1s-0.1,0.1-0.1,0.1c-0.1,0.2-0.3,0.4-0.5,0.5c-0.1,0.1-0.1,0.1-0.2,0.1
				c-0.1,0-0.1,0-0.2-0.1c-0.4-0.3-0.7-0.6-1-1c-0.1-0.1-0.2-0.3-0.3-0.5c-0.2,0.4-0.4,0.8-0.6,1.2c-0.1,0.2-0.2,0.3-0.2,0.3
				c-0.1,0-0.2,0-0.3-0.1c-0.2-0.1-0.4-0.2-0.6-0.3c-0.1,0-0.1-0.1-0.1-0.1c0-0.1,0-0.1,0.1-0.2c0.4-0.6,0.7-1.2,1-1.8
				c0.3-0.6,0.6-1.3,0.7-2c0-0.2,0.1-0.3,0.2-0.3L-241.6-141.2z M-237.1-144.8c0.1,0.1,0.2,0.2,0.2,0.3c0,0.1-0.1,0.2-0.1,0.2
				c-0.1,0-0.2,0.1-0.3,0.2c-0.3,0.9-0.5,1.6-0.7,2h1.9c0.1-0.3,0.3-0.5,0.4-0.8c0.3-0.7,0.5-1.4,0.7-2.1c0-0.2,0.1-0.2,0.1-0.2
				c0.5,0.2,1,0.4,1.5,0.7c0,0.1-0.1,0.1-0.2,0.2c-0.2,0.1-0.3,0.2-0.4,0.4c-0.2,0.6-0.4,1.2-0.7,1.8h2.4c0.1,0,0.2,0.1,0.2,0.3v0.6
				c0,0.2-0.1,0.3-0.2,0.3h-2.5v2.6h2.2c0.1,0,0.2,0.1,0.2,0.3v0.6c0,0.2-0.1,0.3-0.2,0.3h-2.2v2.9h2.3c0.1,0,0.2,0.1,0.2,0.3v0.6
				c0,0.2-0.1,0.3-0.2,0.3h-2.3v2.7h2.5c0.1,0,0.2,0.1,0.2,0.3v0.6c0,0.2-0.1,0.3-0.2,0.3h-5.7v0.6c0,0.2-0.1,0.2-0.3,0.2h-0.7
				c-0.2,0-0.3-0.1-0.3-0.2v-11c-0.2,0.3-0.4,0.5-0.6,0.7c-0.1,0-0.3,0-0.4-0.1c-0.2-0.1-0.5-0.2-0.7-0.3c-0.1,0-0.1-0.1-0.1-0.1
				c0,0,0-0.1,0.1-0.1c0.6-0.6,1.1-1.3,1.4-2c0.3-0.5,0.5-0.9,0.7-1.4c0.2-0.7,0.4-1.4,0.6-2.1c0-0.1,0.1-0.1,0.1-0.1L-237.1-144.8z
				 M-236.1-140.9h-1.9v2.6h1.9V-140.9z M-236.1-137.2h-1.9v2.9h1.9V-137.2z M-236.1-130.5v-2.7h-1.9v2.7H-236.1z"/>
			<path id="Path_41581" class="st1" d="M-396.9-118.4c-0.6,0.2-1.3,0.4-1.9,0.5c-0.8,0.1-1.6,0.2-2.4,0.2v1.1h5.2
				c0.1,0,0.1,0.1,0.1,0.2v0.6c0,0.2-0.1,0.3-0.1,0.3h-1.7v1.9c0,0.1-0.1,0.2-0.3,0.2h-0.7c-0.2,0-0.3-0.1-0.3-0.2v-1.9h-2.2
				c0,0.3-0.1,0.6-0.2,0.8c-0.2,0.4-0.4,0.8-0.8,1.1c-0.3,0.3-0.5,0.5-0.9,0.6c-0.1,0-0.1,0-0.2,0c-0.2-0.2-0.4-0.3-0.7-0.5
				c-0.1-0.1-0.1-0.1-0.1-0.2c0.3-0.2,0.6-0.4,0.9-0.7c0.3-0.3,0.4-0.6,0.6-0.9c0.1-0.4,0.2-0.8,0.2-1.3v-1.9c0-0.2,0.1-0.3,0.2-0.3
				h0.3c0.9,0,1.7,0,2.6-0.1c0.7-0.1,1.4-0.2,2-0.5c0.1,0,0.1,0,0.2-0.1c0.1,0,0.1,0,0.2,0.1c0.5,0.4,0.8,0.7,0.8,0.8
				c0,0.2-0.1,0.3-0.1,0.3l-0.4-0.2C-396.7-118.4-396.8-118.4-396.9-118.4z M-390.2-113c0.2,0,0.3,0.1,0.3,0.2v7.5
				c0,0.2-0.1,0.2-0.3,0.2h-2.2c0.5,0.3,1,0.5,1.6,0.7c0.8,0.3,1.7,0.5,2.5,0.7c0.1,0.1,0.2,0.1,0.2,0.2c-0.2,0.3-0.5,0.7-0.8,0.9
				c-0.1,0-0.2,0-0.3,0c-1.6-0.4-3.1-1-4.6-1.8c-0.1-0.1-0.1-0.1-0.1-0.1c0-0.1,0.1-0.2,0.4-0.5h-4c0.4,0.4,0.7,0.6,0.7,0.7
				s-0.1,0.1-0.2,0.1c-0.2,0-0.4,0-0.4,0.1c-1.7,0.6-3.4,1.1-5.1,1.5c-0.1,0-0.2-0.1-0.3-0.2c-0.1-0.2-0.2-0.3-0.4-0.5
				c-0.1-0.1-0.1-0.1-0.1-0.2c0-0.1,0.1-0.1,0.2-0.1c0.9-0.2,1.7-0.4,2.4-0.6c0.7-0.2,1.4-0.5,2.1-0.8h-2.6c-0.2,0-0.3-0.1-0.3-0.2
				v-7.5c0-0.2,0.1-0.2,0.3-0.2L-390.2-113z M-391.2-110.7v-1.2h-9.1v1.2H-391.2z M-391.2-108.4v-1.2h-9.1v1.2H-391.2z
				 M-391.2-107.3h-9.1v1.2h9.1V-107.3z M-389.3-118.4c-0.6,0.2-1.3,0.4-2,0.5c-0.8,0.1-1.7,0.2-2.5,0.2v1.1h6.1
				c0.1,0,0.1,0.1,0.1,0.2v0.6c0,0.2-0.1,0.3-0.1,0.3h-2.5v1.9c0,0.1-0.1,0.2-0.3,0.2h-0.7c-0.2,0-0.3-0.1-0.3-0.2v-1.9h-2.4
				c0,0.2-0.1,0.4-0.1,0.7c-0.1,0.4-0.3,0.7-0.6,1c-0.2,0.2-0.4,0.4-0.6,0.6c-0.1,0-0.2,0-0.2,0c-0.2-0.2-0.4-0.3-0.7-0.5
				c-0.1,0-0.1-0.1-0.1-0.2c0.2-0.2,0.4-0.4,0.6-0.6c0.2-0.3,0.3-0.6,0.4-0.9c0.1-0.4,0.1-0.7,0.1-1.1v-1.9c0-0.2,0.1-0.3,0.2-0.3
				h0.3c0.9,0,1.8,0,2.7-0.1c0.7-0.1,1.5-0.3,2.1-0.5c0.1,0,0.1-0.1,0.2-0.1c0.1,0,0.1,0,0.2,0.1c0.5,0.4,0.8,0.7,0.8,0.8
				c0,0.2-0.1,0.3-0.1,0.3l-0.4-0.2C-389.1-118.4-389.2-118.4-389.3-118.4L-389.3-118.4z"/>
			<path id="Path_41582" class="st1" d="M-378.9-108.8c-0.4-0.5-0.9-1.2-1.6-2c-0.6-0.7-1.2-1.3-1.9-1.9l0.9-1
				c1.4,1.2,2.6,2.5,3.8,3.8L-378.9-108.8z"/>
			<path id="Path_41583" class="st1" d="M-366.6-118c0.2,0,0.3,0.1,0.3,0.2v6c0,0.1-0.1,0.3-0.2,0.3c0,0,0,0-0.1,0h-4.7v5
				c0,0.6,0.4,0.8,1.1,0.8h2.3c0.6,0.1,1.1-0.3,1.3-0.9c0.2-0.7,0.4-1.4,0.5-2.1c0.3,0.3,0.6,0.5,1,0.6c0.1,0,0.2,0.2,0.2,0.3
				c-0.1,0.8-0.3,1.6-0.7,2.4c-0.2,0.6-0.8,1-1.8,1h-3.4c-1.1,0-1.7-0.4-1.7-1.2v-6.8c0-0.2,0.1-0.3,0.3-0.3h4.7v-4.2h-4.9
				c-0.1,0-0.2-0.1-0.2-0.3v-0.6c0-0.2,0.1-0.3,0.2-0.3L-366.6-118z M-361.9-119.1c0.1,0.1,0.2,0.2,0.2,0.3c0,0.1-0.1,0.3-0.2,0.3
				c-0.1,0-0.2,0.1-0.2,0.3c-0.1,0.7-0.3,1.3-0.4,1.7h6c0.1,0,0.2,0.1,0.2,0.3v0.6c0,0.2-0.1,0.3-0.2,0.3h-1.2
				c0,1.7-0.2,3.4-0.5,5.1c-0.3,1.3-0.7,2.6-1.4,3.8c0,0-0.1,0.1-0.1,0.1c0.3,0.4,0.7,0.8,1.2,1.1c0.7,0.5,1.5,0.9,2.3,1.2
				c0,0.1-0.1,0.2-0.2,0.3c-0.2,0.2-0.5,0.5-0.7,0.7c-0.1,0.1-0.1,0.1-0.2,0.2c-0.8-0.4-1.6-0.9-2.3-1.4c-0.4-0.3-0.7-0.6-1-0.9
				c-0.3,0.3-0.7,0.6-1,0.9c-0.8,0.6-1.7,1.2-2.7,1.6c-0.3-0.4-0.7-0.7-0.9-1c0.7-0.3,1.4-0.7,2-1.1c0.6-0.4,1.2-0.9,1.7-1.5
				c-0.3-0.4-0.6-0.9-0.8-1.4c-0.4-0.8-0.7-1.7-0.9-2.6c-0.2-0.9-0.3-1.8-0.3-2.7c-0.1,0.2-0.2,0.5-0.2,0.7
				c-0.3,0.6-0.6,1.2-0.9,1.8c-0.1,0-0.3,0-0.4-0.1c-0.3-0.1-0.5-0.2-0.8-0.3c-0.1,0-0.1-0.1-0.1-0.1c0-0.1,0-0.1,0.1-0.2
				c0.6-0.9,1-1.8,1.4-2.8c0.2-0.7,0.5-1.3,0.6-2c0.2-0.8,0.4-1.8,0.6-2.9c0-0.1,0.1-0.2,0.1-0.2L-361.9-119.1z M-362.2-113.6
				c0,0.9,0.1,1.9,0.3,2.8c0.2,0.8,0.4,1.5,0.7,2.2c0.1,0.3,0.3,0.6,0.5,0.9c0.5-0.9,0.9-1.9,1.1-2.9c0.3-1.6,0.5-3.2,0.5-4.8h-3.7
				c-0.1,0.2-0.1,0.3-0.1,0.4c-0.2,0.5-0.3,1-0.5,1.4L-362.2-113.6z"/>
			<path id="Path_41584" class="st1" d="M-352.6-112.3c0,0.1-0.1,0.2-0.1,0.2c-0.1,0.1-0.2,0.1-0.2,0.2c-0.1,0.5-0.2,1-0.3,1.5
				c-0.1,0.2-0.2,0.4-0.3,0.7c0,0.1-0.1,0.1-0.1,0.1c-0.3-0.1-0.6-0.2-0.9-0.2c-0.1,0-0.1-0.1-0.1-0.1c0.2-0.3,0.3-0.6,0.5-1
				c0.2-0.5,0.3-1,0.3-1.6c0-0.1,0-0.1,0.1-0.1C-353-112.5-352.6-112.3-352.6-112.3z M-350.4-118.8l0.1,0.1c0,0.1-0.1,0.1-0.2,0.1
				c-0.2,0-0.4,0.1-0.4,0.2c-0.5,0.5-1,1-1.4,1.4c0.3,0.3,0.5,0.6,0.8,0.8c0.5-0.5,0.9-1,1.3-1.6c0.4,0.3,0.7,0.6,1.1,1
				c0,0-0.1,0.1-0.1,0.1c-0.2,0-0.4,0-0.4,0.1c-0.8,0.8-1.5,1.6-2.3,2.3c0.5,0,1.1-0.1,1.7-0.1c-0.2-0.3-0.3-0.5-0.5-0.8
				c0-0.1,0.3-0.2,0.8-0.5c0.3,0.4,0.6,0.9,0.9,1.4c0.2,0.4,0.4,0.8,0.6,1.2c-0.3,0.1-0.6,0.2-0.9,0.3c-0.1-0.3-0.2-0.7-0.4-1
				l-1,0.2v3.7c0,0.2-0.1,0.2-0.3,0.2h-0.6c-0.2,0-0.3-0.1-0.3-0.2v-3.5l-1.7,0.3c-0.1,0.2-0.3,0.3-0.5,0.4c-0.2-0.5-0.3-1-0.3-1.4
				c0.4-0.1,0.8-0.1,1.2-0.1c0.5-0.5,1-1,1.3-1.4c-0.5-0.4-0.8-0.8-1.1-1c-0.4-0.3-0.8-0.5-1.2-0.7c0-0.1,0.2-0.3,0.6-0.8
				c0-0.1,0.1-0.1,0.1-0.1c0.2,0.2,0.4,0.3,0.6,0.5c0.2-0.2,0.5-0.5,0.7-0.8c0.3-0.3,0.6-0.7,0.8-1.1L-350.4-118.8z M-349.4-109.5
				c0.1,0.1,0.1,0.1,0.1,0.2c0,0.1-0.1,0.2-0.3,0.2c-0.1,0-0.2,0-0.3,0.1c-0.1,0.2-0.2,0.3-0.2,0.4h11.3c0.1,0,0.1,0.1,0.1,0.2v0.6
				c0,0.2-0.1,0.3-0.1,0.3h-2.4c-0.2,0.4-0.5,0.7-0.8,1c-0.4,0.5-1,0.9-1.5,1.3c-0.4,0.2-0.8,0.4-1.2,0.6c1.2,0.3,2.3,0.4,3.5,0.6
				c0.9,0.1,1.9,0.2,2.8,0.2c0,0.1-0.1,0.2-0.1,0.3c-0.1,0.2-0.2,0.5-0.3,0.8c0,0.1-0.1,0.2-0.1,0.2c-1.3-0.1-2.3-0.2-3.2-0.3
				c-1-0.2-2-0.3-2.9-0.6c-0.5-0.1-1-0.3-1.4-0.4c-0.6,0.2-1.3,0.4-2,0.6c-1.3,0.3-2.9,0.6-4.8,0.8c-0.1,0-0.2-0.1-0.2-0.1
				c-0.2-0.3-0.4-0.6-0.6-0.9c-0.1-0.1-0.1-0.2-0.2-0.3c0.5,0,1-0.1,1.5-0.1c0.8-0.1,1.7-0.2,2.6-0.3c0.7-0.1,1.4-0.2,2-0.4
				c-0.5-0.3-1-0.6-1.4-0.9c-0.6-0.4-1.1-1-1.5-1.6c-0.1,0.1-0.2,0.2-0.3,0.3c-0.3,0.3-0.5,0.5-0.8,0.8c-0.2,0.2-0.4,0.4-0.7,0.5
				c-0.1,0-0.2-0.1-0.3-0.2c-0.1-0.2-0.3-0.4-0.5-0.6c-0.1-0.1-0.2-0.1-0.2-0.2l0.1-0.1c0.3-0.2,0.7-0.4,0.9-0.6
				c0.4-0.3,0.7-0.7,1-1.1c0.2-0.3,0.4-0.6,0.6-0.8c0.2-0.3,0.3-0.6,0.4-0.9c0-0.1,0.1-0.1,0.1-0.1L-349.4-109.5z M-349.1-111.5
				c0.1,0.3,0.2,0.6,0.3,1c-0.3,0.1-0.6,0.2-0.9,0.3c-0.1-0.3-0.1-0.6-0.2-0.8c-0.1-0.4-0.3-0.7-0.5-1.1c0-0.1,0.3-0.2,0.8-0.5
				C-349.4-112.2-349.2-111.8-349.1-111.5L-349.1-111.5z M-349.1-106.6c0.5,0.4,1.2,0.8,1.8,1.1c0.3,0.1,0.6,0.3,0.9,0.4
				c0.5-0.1,1-0.3,1.4-0.5c0.6-0.3,1.1-0.6,1.6-1c0.3-0.2,0.6-0.5,0.8-0.8h-7.4C-349.7-107.1-349.5-106.8-349.1-106.6L-349.1-106.6z
				 M-343.7-117.4c0.1,0,0.2,0.1,0.2,0.2v0.6c0,0.2-0.1,0.2-0.2,0.2h-4.8c-0.1,0-0.1-0.1-0.1-0.2v-0.6c0-0.1,0-0.2,0.1-0.2H-343.7z
				 M-344.4-119.2c0.1,0,0.1,0.1,0.1,0.2v0.6c0,0.2-0.1,0.2-0.1,0.2h-3.6c-0.1,0-0.1-0.1-0.1-0.2v-0.6c0-0.1,0-0.2,0.1-0.2H-344.4z
				 M-344.4-115.7c0.1,0,0.1,0.1,0.1,0.2v0.4c0,0.2-0.1,0.3-0.1,0.3h-3.6c-0.1,0-0.1-0.1-0.1-0.3v-0.4c0-0.1,0-0.2,0.1-0.2H-344.4z
				 M-344.4-114.2c0.1,0,0.1,0.1,0.1,0.2v0.4c0,0.2-0.1,0.3-0.1,0.3h-3.6c-0.1,0-0.1-0.1-0.1-0.3v-0.4c0-0.1,0-0.2,0.1-0.2H-344.4z
				 M-344.5-112.6c0.2,0,0.3,0.1,0.3,0.2v2.7c0,0.1-0.1,0.2-0.3,0.2h-3.4c-0.2,0-0.3-0.1-0.3-0.2v-2.7c0-0.2,0.1-0.2,0.3-0.2H-344.5
				z M-345.3-111.6h-1.7v1.3h1.7L-345.3-111.6z M-339.1-118.8l0.1,0.1c0,0.1-0.1,0.1-0.2,0.1c-0.2,0-0.4,0.1-0.4,0.2
				c-0.6,0.5-1.1,0.9-1.6,1.3c0.2,0.3,0.5,0.6,0.7,0.9l0,0c0.6-0.6,1.1-1.2,1.5-1.7c0.4,0.3,0.8,0.6,1.1,1c0,0.1-0.1,0.1-0.2,0.1
				c-0.2,0-0.3,0-0.4,0.1c-0.8,0.8-1.6,1.6-2.4,2.3c0.5,0,1-0.1,1.6-0.1c-0.2-0.3-0.4-0.5-0.6-0.8c0-0.1,0.3-0.2,0.8-0.5
				c0.3,0.4,0.6,0.8,0.8,1.3c0.2,0.4,0.4,0.7,0.5,1.1c-0.3,0.1-0.6,0.2-0.9,0.3c-0.1-0.3-0.2-0.5-0.3-0.8l-1.1,0.2v3.9
				c0,0.1-0.1,0.2-0.3,0.2h-0.6c-0.2,0-0.3-0.1-0.3-0.2v-3.6l-1.4,0.3c-0.1,0.2-0.3,0.3-0.5,0.4c-0.2-0.5-0.3-0.9-0.3-1.4
				c0.4-0.1,0.7-0.1,1.1-0.2c0.6-0.5,1-0.9,1.4-1.3c-0.4-0.4-0.7-0.7-1-0.9c-0.4-0.3-0.7-0.5-1.1-0.8c0-0.1,0.2-0.4,0.6-0.8
				c0,0,0.1-0.1,0.1-0.1c0.2,0.2,0.4,0.3,0.5,0.5c0.3-0.2,0.5-0.5,0.7-0.7c0.4-0.4,0.7-0.8,0.9-1L-339.1-118.8z M-341.7-112.2
				c0,0.1-0.1,0.2-0.1,0.2c-0.1,0.1-0.1,0.1-0.1,0.2c-0.1,0.5-0.1,1-0.2,1.5c-0.1,0.2-0.1,0.4-0.2,0.6c0,0.1-0.1,0.1-0.1,0.1
				c-0.3-0.1-0.6-0.2-0.9-0.2c-0.1,0-0.1-0.1-0.1-0.1c0.1-0.3,0.2-0.6,0.3-1c0.1-0.5,0.2-1,0.2-1.5c0-0.1,0-0.1,0.1-0.1c0,0,0,0,0,0
				C-342.1-112.4-341.7-112.3-341.7-112.2L-341.7-112.2z M-338.2-111c0.1,0.4,0.2,0.8,0.3,1.3c-0.3,0.1-0.6,0.2-0.9,0.3
				c0-0.3-0.1-0.6-0.2-1.1c-0.1-0.5-0.2-1-0.4-1.4c0-0.1,0.3-0.2,0.8-0.5C-338.5-112-338.3-111.5-338.2-111L-338.2-111z"/>
			<path id="Path_41585" class="st1" d="M-330.6-115.2c0.1,0,0.3,0,0.4,0.1c0.2,0.2,0.3,0.3,0.3,0.4c-0.1,1-0.3,1.9-0.4,2.5
				c-0.2,0.7-0.4,1.4-0.7,2.1c-0.2,0.5-0.4,1-0.7,1.5c-0.3,0.5-0.6,1.1-1,1.5c-0.3,0.4-0.7,0.8-1.1,1.1c-0.5,0.4-1,0.7-1.6,1
				c-0.1,0-0.3-0.1-0.3-0.2c-0.3-0.2-0.5-0.4-0.8-0.6c-0.1-0.1-0.1-0.1-0.1-0.2c0-0.1,0-0.1,0.1-0.1c0.6-0.3,1.2-0.6,1.8-1
				c0.5-0.4,0.9-0.8,1.3-1.3c0.4-0.5,0.7-1,1-1.5c0.3-0.6,0.5-1.2,0.7-1.9c0.1-0.6,0.3-1.4,0.5-2.3h-4.5c-0.1,0-0.2-0.1-0.2-0.3
				v-0.7c0-0.1,0.1-0.2,0.2-0.2L-330.6-115.2z M-326.5-119.1c0.1,0.1,0.2,0.2,0.2,0.2c0,0.1-0.1,0.2-0.2,0.2c-0.3,0.1-0.4,0.4-0.4,1
				v1.9c0.2,0.9,0.5,1.7,0.8,2.6c1.2-0.9,2.4-1.9,3.5-3c0.2-0.1,0.4-0.2,0.6-0.3c0.1,0,0.2,0.1,0.3,0.1c0.8,0.6,1.2,0.9,1.2,1
				c0,0.3-0.1,0.4-0.2,0.4l-0.4-0.1c-0.3,0-0.5,0.1-0.8,0.3c-1,0.7-2.2,1.7-3.6,2.8c0.2,0.4,0.4,0.8,0.6,1.2c0.7,1.1,1.5,2,2.4,2.8
				c0.9,0.7,1.8,1.3,2.9,1.7c0.1,0.1,0.1,0.1,0.1,0.2c0,0.1-0.1,0.2-0.2,0.3c-0.2,0.2-0.4,0.5-0.6,0.7c0,0.1-0.2,0.2-0.3,0.2
				c-0.3-0.1-0.5-0.3-0.8-0.5c-1.3-0.8-2.5-1.9-3.6-3.1c-0.7-0.9-1.3-1.9-1.7-2.9c-0.2-0.3-0.3-0.6-0.4-0.9v8.1c0,1-0.7,1.4-2,1.4
				h-1.9c-0.1,0-0.1-0.1-0.1-0.4c-0.1-0.3-0.2-0.6-0.3-0.9c0-0.1,0-0.2,0.1-0.2c0.7,0.1,1.4,0.2,2.1,0.2c0.5,0,0.8-0.2,0.8-0.6
				v-13.2c0-0.4,0-0.7,0-0.9c0-0.1,0-0.3,0-0.4c0-0.1,0.1-0.1,0.3-0.1L-326.5-119.1z"/>
			<path id="Path_41586" class="st1" d="M-311.6-117.9c0,0.1-0.1,0.3-0.2,0.3c-0.2,0-0.3,0.1-0.4,0.2c-0.3,0.9-0.7,1.8-1.1,2.7
				c-0.4,0.7-0.9,1.4-1.4,2c-0.7,0.8-1.5,1.5-2.4,2c-0.1,0-0.2,0.1-0.3,0.1c-0.1,0-0.3-0.1-0.3-0.2c-0.1-0.2-0.3-0.3-0.4-0.5
				c-0.1,0-0.2-0.1-0.1-0.2c0,0,0-0.1,0.1-0.1c0.4-0.1,0.8-0.3,1.1-0.6c0.6-0.4,1.1-0.9,1.6-1.4c0.7-0.8,1.2-1.6,1.5-2.6
				c0.3-0.7,0.5-1.4,0.7-2.1c0-0.1,0.1-0.2,0.2-0.2C-312.1-118.2-311.6-118-311.6-117.9z M-306.4-118.8c0.1,0,0.2,0.1,0.3,0.2
				c0.3,1.5,0.8,2.9,1.6,4.2c0.6,1.3,1.8,2.2,3.1,2.7c0.1,0,0.2,0.2,0.2,0.3c0,0.1-0.1,0.1-0.1,0.2c-0.2,0.2-0.4,0.4-0.6,0.6
				c-0.1,0.1-0.2,0.2-0.3,0.2c-0.9-0.5-1.7-1.1-2.4-1.9v0.1c0,2.5-0.1,4.3-0.2,5.4c-0.1,1-0.3,2-0.6,2.9c-0.3,0.7-0.9,1-1.9,1
				c-1,0-1.6-0.2-1.6-0.4c-0.1-0.4-0.4-0.7-0.6-1v-0.1c0.7,0.1,1.5,0.1,2.3,0.1c0.5,0,0.9-0.3,1-0.7c0.2-0.7,0.4-1.5,0.4-2.2
				c0.1-0.8,0.2-2.2,0.2-4.1h-5c0,1.1-0.2,2.3-0.4,3.4c-0.3,0.9-0.7,1.8-1.3,2.6c-0.5,0.6-1.1,1-1.7,1.4c-0.7,0.5-1.5,0.8-2.4,1.1
				c-0.3-0.4-0.6-0.7-0.8-0.9c0.6-0.2,1.2-0.4,1.8-0.7c0.7-0.4,1.3-0.8,1.9-1.4c0.6-0.7,1-1.5,1.3-2.4c0.3-1,0.4-2.1,0.5-3.1h-2.4
				c-0.1,0-0.2-0.1-0.2-0.3v-0.6c0-0.2,0.1-0.3,0.2-0.3h9.6c-0.3-0.3-0.5-0.6-0.7-0.9c-0.7-1.3-1.2-2.8-1.6-4.2h-2.6
				c-0.1,0-0.2-0.1-0.2-0.3v-0.6c0-0.2,0.1-0.3,0.2-0.3L-306.4-118.8z"/>
			<path id="Path_41587" class="st1" d="M-285.8-118.6c0.2,0,0.3,0,0.3,0.1c0.3,0.2,0.4,0.4,0.4,0.5l-5.3,4.6
				c-0.1,0.1-0.1,0.1-0.2,0.1v1.3h7c0.1,0,0.2,0.1,0.2,0.3v0.7c0,0.2-0.1,0.3-0.2,0.3h-7v6.5c0,1-1,1.4-3.1,1.4h-0.8
				c-0.1,0-0.1-0.1-0.1-0.4c0-0.3-0.2-0.7-0.4-0.9c0-0.1,0-0.1,0.2-0.1c0.4,0.1,0.8,0.2,1.1,0.2c1.1,0,1.7-0.2,1.7-0.6v-6h-7.6
				c-0.1,0-0.2-0.1-0.2-0.3v-0.7c0-0.2,0.1-0.3,0.2-0.3h7.6v-2.7c0-0.2,0.1-0.3,0.3-0.3l0.8,0.4l3.3-2.7h-10.1
				c-0.1,0-0.2-0.1-0.2-0.3v-0.7c0-0.1,0.1-0.2,0.2-0.2L-285.8-118.6z"/>
			<path id="Path_41588" class="st1" d="M-276.1-118.8l0.1,0.2c0,0.1-0.1,0.2-0.3,0.2c-0.3,0-0.5,0.1-0.6,0.2
				c-0.9,1-1.7,1.8-2.4,2.6c0.4,0.4,0.9,0.8,1.3,1.2c0.7-0.8,1.3-1.6,1.8-2.2c0.5,0.4,0.9,0.8,1.3,1.2c0,0.1-0.1,0.1-0.2,0.1
				c-0.2,0-0.4,0-0.6,0.1c-1.1,1.3-2.2,2.5-3.3,3.5c0.9-0.1,2-0.2,3.4-0.3c-0.2-0.5-0.5-1-0.8-1.5c0-0.1,0.3-0.3,0.9-0.6
				c0.4,0.7,0.7,1.4,1,2.2c0.3,0.6,0.5,1.3,0.6,1.9c-0.3,0.2-0.7,0.3-1.1,0.3c-0.1-0.5-0.2-1-0.4-1.5l-2.1,0.4v7.6
				c0,0.2-0.1,0.2-0.3,0.2h-0.7c-0.2,0-0.3-0.1-0.3-0.2v-7.4l-2.4,0.5c-0.2,0.2-0.4,0.4-0.6,0.6c-0.2-0.6-0.3-1.2-0.4-1.8
				c0.4-0.2,0.9-0.2,1.3-0.3c0.9-0.9,1.6-1.6,2.2-2.3c-0.7-0.5-1.2-0.9-1.5-1.1c-0.5-0.3-1.1-0.6-1.7-0.8c0-0.1,0.3-0.4,0.8-1
				c0-0.1,0.1-0.1,0.2-0.1c0.2,0.1,0.4,0.3,0.7,0.4c0.5-0.5,0.9-1,1.3-1.4c0.7-0.8,1.1-1.4,1.4-1.8L-276.1-118.8z M-279.6-108.6
				c0,0.1-0.1,0.3-0.2,0.3c-0.1,0.1-0.2,0.2-0.2,0.3c-0.1,1.1-0.2,2-0.3,2.7c-0.1,0.4-0.2,0.8-0.3,1.2c0,0.1-0.1,0.1-0.1,0.1
				c-0.3-0.1-0.7-0.2-1.1-0.3c-0.1,0-0.1-0.1-0.1-0.2c0.2-0.5,0.3-1.1,0.5-1.7c0.2-0.9,0.3-1.8,0.3-2.7c0-0.1,0-0.2,0.1-0.2
				C-280.1-108.9-279.6-108.7-279.6-108.6L-279.6-108.6z M-275.5-109c0.5,1.4,0.9,2.8,1.2,4.2c0,0.1-0.4,0.3-1.1,0.4
				c-0.2,0-0.2-0.1-0.2-0.2c-0.2-1.4-0.5-2.8-0.9-4.2c0-0.1,0.3-0.3,0.9-0.4C-275.5-109.1-275.5-109.1-275.5-109L-275.5-109z
				 M-270.2-116.8v-2.3c0-0.1,0.1-0.2,0.3-0.2c0.9,0,1.4,0.1,1.4,0.2c0,0.2-0.1,0.3-0.2,0.3c-0.1,0-0.2,0.1-0.2,0.4v1.7h3.9
				c0.1,0,0.2,0.1,0.2,0.3v0.6c0,0.2-0.1,0.3-0.2,0.3h-3.9v3.2h3.3c0.1,0,0.2,0.1,0.2,0.3v0.6c0,0.2-0.1,0.3-0.2,0.3h-7.5
				c-0.1,0-0.2-0.1-0.2-0.3v-0.6c0-0.2,0.1-0.3,0.2-0.3h2.9v-3.2h-3.6c-0.1,0-0.2-0.1-0.2-0.3v-0.6c0-0.2,0.1-0.3,0.2-0.3
				L-270.2-116.8z M-265.8-109.5c0.2,0,0.3,0.1,0.3,0.2v6.3c0,0.2-0.1,0.2-0.3,0.2h-0.7c-0.2,0-0.3-0.1-0.3-0.2v-0.7h-5.1v0.7
				c0,0.2-0.1,0.2-0.3,0.2h-0.7c-0.2,0-0.3-0.1-0.3-0.2v-6.3c0-0.2,0.1-0.3,0.3-0.3L-265.8-109.5z M-266.8-104.9v-3.5h-5.1v3.5
				H-266.8z"/>
			<path id="Path_41589" class="st1" d="M-261.4-115.9v-3.3c0-0.2,0.1-0.2,0.3-0.2c0.9,0,1.4,0.1,1.4,0.2s-0.1,0.3-0.2,0.3
				c-0.1,0-0.2,0.1-0.2,0.4v2.7h1.9c0.1,0,0.1,0.1,0.1,0.2v0.6c0,0.2-0.1,0.3-0.1,0.3h-1.7c0.2,0.6,0.4,1.2,0.6,1.7
				c0.3,0.7,0.8,1.4,1.3,2.1c0.1,0,0.1,0.1,0.1,0.2c0,0-0.1,0.1-0.1,0.2c-0.2,0.2-0.3,0.4-0.5,0.6c-0.1,0.1-0.2,0.1-0.2,0.1
				c-0.1,0-0.2,0-0.2-0.1c-0.4-0.6-0.8-1.3-1.1-2c0,0-0.1-0.1-0.1-0.1v9.3c0,0.1-0.1,0.2-0.3,0.2h-0.7c-0.2,0-0.3-0.1-0.3-0.2v-7.5
				c-0.1,0.3-0.2,0.5-0.2,0.7c-0.2,0.7-0.5,1.4-0.8,2c-0.1,0-0.2,0-0.3-0.1l-0.8-0.4c-0.1,0-0.1,0-0.1-0.1c0.4-0.8,0.7-1.5,1-2.3
				c0.3-0.7,0.5-1.4,0.6-2.1c0.2-0.7,0.3-1.4,0.4-2.1h-1.5c-0.1,0-0.1-0.1-0.1-0.3v-0.6c0-0.1,0-0.2,0.1-0.2L-261.4-115.9z
				 M-255.3-117.9v-1.1c0-0.1,0.1-0.1,0.2-0.1c0.9,0,1.3,0.1,1.3,0.2s-0.1,0.2-0.1,0.2c-0.1,0-0.1,0.1-0.1,0.3v0.4h3v-1.1
				c0-0.1,0.1-0.1,0.2-0.1c0.8,0,1.3,0.1,1.3,0.2s-0.1,0.2-0.1,0.2c-0.1,0-0.1,0.1-0.1,0.3v0.4h2.3c0.1,0,0.1,0.1,0.1,0.2v0.6
				c0,0.2-0.1,0.3-0.1,0.3h-2.3v1.3h1.6c0.1,0,0.1,0.1,0.1,0.2v0.6c0,0.1-0.1,0.2-0.1,0.2h-1.6v1.2h2.8c0.1,0,0.1,0.1,0.1,0.2v0.6
				c0,0.2-0.1,0.3-0.1,0.3h-5v1h3.3c0.2,0,0.4,0.1,0.4,0.2v4.4h1.4c0.1,0,0.1,0.1,0.1,0.2v0.6c0,0.2-0.1,0.3-0.1,0.3h-1.4v2.1
				c0,0.3-0.2,0.6-0.7,0.7c-0.5,0.1-1.1,0.2-1.6,0.3c-0.1,0-0.2-0.1-0.2-0.2c0,0,0,0,0,0c-0.1-0.4-0.2-0.8-0.4-1.2
				c0,0,0-0.1,0.1-0.1c0.4,0,0.9,0,1.3-0.1c0.1-0.1,0.2-0.2,0.2-0.3v-1.3h-6v2.7c0,0.1-0.1,0.2-0.3,0.2h-0.7c-0.2,0-0.3-0.1-0.3-0.2
				v-2.7h-1.4c-0.1,0-0.1-0.1-0.1-0.3v-0.6c0-0.2,0-0.2,0.1-0.2h1.4v-4.4c0-0.1,0.1-0.2,0.3-0.2h3.4v-1h-4.6c-0.1,0-0.1-0.1-0.1-0.3
				v-0.6c0-0.1,0-0.2,0.1-0.2h2.7v-1.2h-1.6c-0.1,0-0.1-0.1-0.1-0.2v-0.6c0-0.1,0-0.2,0.1-0.2h1.6v-1.3h-2.2c-0.1,0-0.1-0.1-0.1-0.3
				v-0.6c0-0.1,0-0.2,0.1-0.2L-255.3-117.9z M-253.4-109v-1.3h-2.4v1.3H-253.4z M-253.4-106.7v-1.2h-2.4v1.2H-253.4z M-251.2-116.9
				h-3v1.3h3V-116.9z M-251.2-113.4v-1.2h-3v1.2H-251.2z M-252.2-109h2.4v-1.3h-2.4V-109z M-249.8-106.7v-1.2h-2.4v1.2H-249.8z"/>
			<path id="Path_41590" class="st1" d="M-239.8-109.9c-0.3,0.5-0.7,1-1.2,1.3l-0.5-0.5c0.7-0.5,1.2-1.3,1.2-2.1h-1.4v-2.2h2.2v2
				C-239.4-110.9-239.5-110.4-239.8-109.9z"/>
			<path id="Path_41591" class="st1" d="M-401.8-88c0.5,0.3,0.9,0.6,1.3,0.8c0,0.1-0.1,0.1-0.1,0.2c-0.4,0.5-0.6,0.8-0.6,0.8
				c-0.6-0.4-1.1-0.7-1.7-1c-0.4-0.2-0.8-0.4-1.2-0.5c0.1-0.3,0.3-0.6,0.6-0.8c0.1-0.1,0.1-0.1,0.2-0.1
				C-402.8-88.4-402.2-88.2-401.8-88z M-400-84.5c0.2,0.3,0.3,0.7,0.4,1.1c0,0.1,0,0.2-0.1,0.3c-0.5,1.1-1.1,2.3-1.7,3.3
				c-0.3,0.5-0.7,1.1-1.1,1.7c-0.1,0.2-0.1,0.4-0.1,0.6c0,0.1-0.1,0.2-0.1,0.2c-0.1,0-0.5-0.4-1.2-1.2c-0.1,0-0.1-0.1-0.1-0.2
				c0-0.1,0-0.2,0.1-0.2c0.4-0.4,0.8-0.8,1.1-1.2c0.6-0.7,1.1-1.5,1.5-2.3c0.4-0.7,0.8-1.4,1.1-2c0-0.1,0.1-0.1,0.1-0.1
				C-400.1-84.7-400-84.6-400-84.5L-400-84.5z M-401-92.4c0.5,0.3,1,0.7,1.4,0.9c0,0.1,0,0.1-0.1,0.2c-0.4,0.5-0.6,0.8-0.6,0.8
				c-0.6-0.4-1.2-0.9-1.9-1.2c-0.4-0.2-0.9-0.4-1.3-0.6c0.1-0.3,0.3-0.6,0.6-0.8c0.1-0.1,0.1-0.1,0.2-0.1
				C-402.2-93.1-401.6-92.8-401-92.4L-401-92.4z M-389.4-92.3c-1,0.4-2.1,0.6-3.2,0.8v2.9h5c0.1,0,0.2,0.1,0.2,0.3v0.6
				c0,0.2-0.1,0.3-0.2,0.3h-5v3.2h3.9c0.2,0,0.3,0.1,0.3,0.2v6.8c0,0.2-0.1,0.2-0.3,0.2h-0.7c-0.2,0-0.3-0.1-0.3-0.2v-0.9h-7.2v0.9
				c0,0.2-0.1,0.2-0.3,0.2h-0.7c-0.2,0-0.3-0.1-0.3-0.2V-84c0-0.1,0.1-0.3,0.2-0.3c0,0,0,0,0.1,0h4v-3.2h-5c-0.1,0-0.2-0.1-0.2-0.3
				v-0.6c0-0.2,0.1-0.3,0.2-0.3h5v-2.8c-1.2,0.1-2.5,0.2-3.7,0.2c-0.2,0-0.3-0.1-0.4-0.2c0-0.2-0.1-0.4-0.2-0.6
				c0-0.1-0.1-0.2-0.1-0.2c1.6,0,3.2-0.1,4.8-0.3c1.3-0.1,2.5-0.4,3.7-0.8c0.1-0.1,0.2-0.1,0.3-0.1c0.1,0,0.2,0,0.2,0.1
				c0.6,0.5,0.9,0.8,0.9,1c0,0.2-0.1,0.3-0.2,0.3l-0.4-0.2C-389.2-92.4-389.3-92.3-389.4-92.3L-389.4-92.3z M-389.8-79.4v-3.7h-7.2
				v3.7H-389.8z"/>
			<path id="Path_41592" class="st1" d="M-379.2-93c0,0.1-0.1,0.2-0.1,0.2c-0.2,0-0.3,0.1-0.4,0.2c-0.4,0.9-0.8,1.9-1.3,2.8v12.7
				c0,0.1-0.1,0.2-0.4,0.2h-0.7c-0.2,0-0.3-0.1-0.3-0.2v-10.6c-0.7,0.9-1.5,1.8-2.3,2.6c-0.1,0-0.3-0.1-0.4-0.2
				c-0.2-0.1-0.4-0.3-0.6-0.5c-0.1-0.1-0.1-0.1-0.1-0.2c0.6-0.6,1.2-1.2,1.8-1.9c0.8-0.9,1.5-1.9,2-3c0.5-0.9,0.9-1.9,1.2-2.8
				c0-0.1,0.1-0.1,0.2-0.1C-380.2-93.7-379.7-93.4-379.2-93z M-369.8-88.5c-0.6,0.5-1.3,0.9-2,1.3c-1.1,0.7-2.3,1.2-3.6,1.6
				c0,0-0.1,0-0.2,0.1v6c0,0.6,0.3,0.9,1,0.9h1.8c1,0,1.6-0.1,1.9-0.4c0.5-0.7,0.8-1.5,0.9-2.3c0.2,0.3,0.5,0.6,0.8,0.7
				c0.2,0.1,0.3,0.2,0.3,0.3c-0.2,0.9-0.6,1.7-1.2,2.4c-0.5,0.4-1.1,0.6-1.7,0.5h-3c-1.5,0-2.2-0.5-2.2-1.4v-14.8
				c0-0.1,0-0.2,0.1-0.2l1.3,0.2c0.1,0,0.2,0.1,0.2,0.1c0,0.1,0,0.2-0.1,0.2c-0.1,0-0.2,0.1-0.2,0.2v6.1c1-0.2,1.9-0.6,2.7-1.1
				c0.9-0.5,1.7-1.1,2.4-1.8c0,0,0.1,0,0.1,0c0.4,0.4,0.8,0.8,1.1,1.2c0,0.1-0.1,0.1-0.3,0.1h-0.1
				C-369.7-88.5-369.7-88.5-369.8-88.5L-369.8-88.5z"/>
			<path id="Path_41593" class="st1" d="M-363.8-92.1c0,0.2-0.1,0.3-0.2,0.3s-0.2,0.1-0.2,0.4v4.2h4.8v-6.3c0-0.1,0.1-0.2,0.3-0.2
				c0.9,0,1.4,0.1,1.4,0.2c0,0.2-0.1,0.3-0.2,0.3c-0.1,0-0.2,0.2-0.2,0.4v5.6h4.5V-92c0-0.1,0.1-0.2,0.3-0.2c0.9,0,1.4,0.1,1.4,0.2
				c0,0.2-0.1,0.3-0.2,0.3s-0.2,0.2-0.2,0.4v6.1c0,0.2-0.1,0.2-0.3,0.2h-0.7c-0.2,0-0.3-0.1-0.3-0.2v-0.8h-4.5v6.7h5v-4.4
				c0-0.1,0.1-0.2,0.3-0.2c0.9,0,1.4,0.1,1.4,0.2c0,0.2-0.1,0.3-0.2,0.3c-0.1,0-0.2,0.2-0.2,0.4v5.8c0,0.2-0.1,0.2-0.3,0.2h-0.7
				c-0.2,0-0.3-0.1-0.3-0.2v-0.9h-11.7v0.9c0,0.2-0.1,0.2-0.3,0.2h-0.7c-0.2,0-0.3-0.1-0.3-0.2v-6.5c0-0.1,0.1-0.2,0.3-0.2
				c0.9,0,1.4,0.1,1.4,0.2c0,0.2-0.1,0.3-0.2,0.3c-0.1,0-0.2,0.2-0.2,0.4v3.7h5.3v-6.7h-4.8v0.8c0,0.2-0.1,0.2-0.3,0.2h-0.7
				c-0.2,0-0.3-0.1-0.3-0.2v-6.8c0-0.1,0.1-0.2,0.3-0.2C-364.3-92.3-363.8-92.2-363.8-92.1z"/>
			<path id="Path_41594" class="st1" d="M-339.4-93.5c0,0.2-0.1,0.3-0.2,0.3c-0.1,0-0.2,0.2-0.2,0.4v1h7.2c0.1,0,0.2,0.1,0.2,0.3
				v0.6c0,0.2-0.1,0.3-0.2,0.3h-16c-0.1,0-0.2-0.1-0.2-0.3v-0.6c0-0.2,0.1-0.3,0.2-0.3h7.5v-1.7c0-0.1,0.1-0.2,0.3-0.2
				C-339.9-93.7-339.4-93.7-339.4-93.5z M-333.6-84.8c0.2,0,0.4,0.1,0.4,0.3v6.7c0,0.3-0.2,0.5-0.6,0.6c-0.5,0.1-1,0.2-1.6,0.3
				c-0.1,0-0.2-0.1-0.2-0.2c0,0,0,0,0,0c-0.1-0.4-0.2-0.8-0.4-1.2c0,0,0,0,0.1,0c0.4,0,0.8,0,1.3-0.1c0.1,0,0.2-0.1,0.2-0.3v-5h-12
				v6.4c0,0.2-0.1,0.2-0.3,0.2h-0.7c-0.2,0-0.3-0.1-0.3-0.2v-7.3c0-0.2,0.1-0.3,0.3-0.3L-333.6-84.8z M-335.9-89.6
				c0.2,0,0.3,0.1,0.3,0.2v3.4c0,0.1-0.1,0.2-0.3,0.2h-9.4c-0.2,0-0.3-0.1-0.3-0.2v-3.4c0-0.1,0.1-0.2,0.3-0.2H-335.9z M-336.7-82.4
				c0.2,0,0.3,0.1,0.3,0.2v3.2c0,0.1-0.1,0.2-0.3,0.2h-7.4c-0.2,0-0.3-0.1-0.3-0.2v-3.2c0-0.1,0.1-0.2,0.3-0.2H-336.7z M-336.9-88.5
				h-7.4v1.5h7.4L-336.9-88.5z M-337.7-81.4h-5.3v1.5h5.3V-81.4z"/>
			<path id="Path_41595" class="st1" d="M-323-84.8c0.2,0,0.3,0.1,0.3,0.2v7.3c0,0.2-0.1,0.2-0.3,0.2h-0.7c-0.2,0-0.3-0.1-0.3-0.2
				v-0.9h-4.5v0.9c0,0.2-0.1,0.2-0.3,0.2h-0.7c-0.2,0-0.3-0.1-0.3-0.2v-7.2c0-0.1,0.1-0.3,0.2-0.3c0,0,0,0,0.1,0L-323-84.8z
				 M-324-79.3v-4.3h-4.5v4.3H-324z M-317.5-93.1c0.2,0,0.3,0.1,0.3,0.2v6.7c0,0.1-0.1,0.2-0.3,0.2h-0.7c-0.2,0-0.3-0.1-0.3-0.2
				v-0.6h-7v0.7c0,0.2-0.1,0.2-0.3,0.2h-0.7c-0.2,0-0.3,0-0.3-0.2v-6.7c0-0.1,0.1-0.3,0.2-0.3c0,0,0,0,0.1,0L-317.5-93.1z
				 M-318.6-88v-4h-7v4H-318.6z M-314.6-84.9c0.2,0,0.3,0.1,0.3,0.2v7.3c0,0.1-0.1,0.2-0.3,0.2h-0.7c-0.2,0-0.3-0.1-0.3-0.2v-0.8
				h-4.5v0.9c0,0.2-0.1,0.2-0.3,0.2h-0.7c-0.2,0-0.3-0.1-0.3-0.2v-7.3c0-0.1,0.1-0.3,0.2-0.3c0,0,0,0,0,0H-314.6z M-315.6-79.3v-4.4
				h-4.5v4.4H-315.6z"/>
			<path id="Path_41596" class="st1" d="M-304.9-92.6c-0.6,0.2-1.3,0.4-1.9,0.5c-0.8,0.1-1.6,0.2-2.4,0.2v1.1h5.2
				c0.1,0,0.1,0.1,0.1,0.2v0.6c0,0.2-0.1,0.3-0.1,0.3h-1.7v1.9c0,0.1-0.1,0.2-0.3,0.2h-0.7c-0.2,0-0.3-0.1-0.3-0.2v-1.9h-2.2
				c0,0.3-0.1,0.6-0.2,0.8c-0.2,0.4-0.4,0.8-0.8,1.1c-0.3,0.3-0.5,0.5-0.9,0.6c-0.1,0-0.1,0-0.2,0c-0.2-0.2-0.4-0.3-0.7-0.5
				c-0.1-0.1-0.1-0.1-0.1-0.2c0.3-0.2,0.6-0.4,0.9-0.7c0.3-0.3,0.4-0.6,0.6-0.9c0.1-0.4,0.2-0.8,0.2-1.3v-1.9c0-0.2,0.1-0.3,0.2-0.3
				h0.3c0.9,0,1.7,0,2.6-0.1c0.7-0.1,1.4-0.2,2-0.5c0.1,0,0.1,0,0.2-0.1c0.1,0,0.1,0,0.2,0.1c0.5,0.4,0.8,0.7,0.8,0.8
				c0,0.2-0.1,0.3-0.1,0.3l-0.4-0.2C-304.8-92.6-304.8-92.6-304.9-92.6z M-298.2-87.2c0.2,0,0.3,0.1,0.3,0.2v7.5
				c0,0.2-0.1,0.2-0.3,0.2h-2.2c0.5,0.3,1,0.5,1.6,0.7c0.8,0.3,1.7,0.5,2.5,0.7c0.1,0.1,0.2,0.1,0.2,0.2c-0.2,0.3-0.5,0.7-0.8,0.9
				c-0.1,0-0.2,0-0.3,0c-1.6-0.4-3.1-1-4.6-1.8c-0.1-0.1-0.1-0.1-0.1-0.1c0-0.1,0.1-0.2,0.4-0.5h-4c0.4,0.4,0.7,0.6,0.7,0.7
				s-0.1,0.1-0.2,0.1c-0.2,0-0.4,0-0.4,0.1c-1.7,0.6-3.4,1.1-5.1,1.5c-0.1,0-0.2-0.1-0.3-0.2c-0.1-0.2-0.2-0.3-0.4-0.5
				c-0.1-0.1-0.1-0.1-0.1-0.2c0-0.1,0.1-0.1,0.2-0.1c0.9-0.2,1.7-0.4,2.4-0.6c0.7-0.2,1.4-0.5,2.1-0.8h-2.6c-0.2,0-0.3-0.1-0.3-0.2
				V-87c0-0.2,0.1-0.2,0.3-0.2L-298.2-87.2z M-299.2-84.9v-1.2h-9.1v1.2H-299.2z M-299.2-82.6v-1.2h-9.1v1.2H-299.2z M-299.2-81.6
				h-9.1v1.2h9.1L-299.2-81.6z M-297.3-92.6c-0.6,0.2-1.3,0.4-2,0.5c-0.8,0.1-1.7,0.2-2.5,0.2v1.1h6.1c0.1,0,0.1,0.1,0.1,0.2v0.6
				c0,0.2-0.1,0.3-0.1,0.3h-2.5v1.9c0,0.1-0.1,0.2-0.3,0.2h-0.7c-0.2,0-0.3-0.1-0.3-0.2v-1.9h-2.4c0,0.2-0.1,0.4-0.1,0.7
				c-0.1,0.4-0.3,0.7-0.6,1c-0.2,0.2-0.4,0.4-0.6,0.6c-0.1,0-0.2,0-0.2,0c-0.2-0.2-0.4-0.3-0.7-0.5c-0.1,0-0.1-0.1-0.1-0.2
				c0.2-0.2,0.4-0.4,0.6-0.6c0.2-0.3,0.3-0.6,0.4-0.9c0.1-0.4,0.1-0.7,0.1-1.1v-1.9c0-0.2,0.1-0.3,0.2-0.3h0.3c0.9,0,1.8,0,2.7-0.1
				c0.7-0.1,1.5-0.3,2.1-0.5c0.1,0,0.1,0,0.2-0.1c0.1,0,0.1,0,0.2,0.1c0.5,0.4,0.8,0.7,0.8,0.8c0,0.2-0.1,0.3-0.1,0.3l-0.4-0.2
				C-297.1-92.6-297.2-92.6-297.3-92.6L-297.3-92.6z"/>
			<path id="Path_41597" class="st1" d="M-289.1-93c0,0.1-0.1,0.2-0.2,0.3c-0.1,0.1-0.2,0.2-0.3,0.4c-0.1,0.8-0.2,1.8-0.4,2.9h2.7
				c0.1,0,0.2,0,0.3,0.1c0.2,0.2,0.3,0.3,0.3,0.4c-0.1,1.3-0.3,2.3-0.4,3.1c-0.2,0.9-0.4,1.7-0.6,2.6c-0.2,0.6-0.4,1.2-0.7,1.8
				l0,0.1c0.3,0.3,0.5,0.5,0.8,0.8c0.5,0.5,0.9,1,1.3,1.5c0,0,0,0.1,0.1,0.1c0,0.1-0.3,0.3-0.9,0.6c-0.1,0-0.1,0-0.2-0.1
				c-0.5-0.7-1.1-1.3-1.7-1.9c-0.1,0.2-0.3,0.5-0.4,0.7c-0.3,0.5-0.7,0.9-1.1,1.4c-0.5,0.5-1,0.9-1.5,1.3c-0.1,0-0.2-0.1-0.3-0.2
				c-0.3-0.2-0.5-0.4-0.8-0.5c0,0-0.1-0.1-0.1-0.1c0-0.1,0-0.1,0.1-0.2c0.6-0.3,1.2-0.8,1.7-1.3c0.5-0.5,0.9-1,1.3-1.6
				c0.1-0.1,0.1-0.2,0.1-0.3c-0.2-0.2-0.4-0.3-0.6-0.5c-0.5-0.3-0.9-0.6-1.4-0.9c-0.1,0.4-0.3,0.8-0.5,1.2c-0.1,0-0.2,0-0.3-0.1
				c-0.2-0.1-0.5-0.1-0.8-0.2c-0.1,0-0.1-0.1-0.1-0.3c0.4-0.9,0.8-1.8,1.2-2.7c0.4-1.3,0.8-2.5,1.1-3.8h-1.9c-0.1,0-0.2-0.1-0.2-0.3
				v-0.6c0-0.2,0.1-0.3,0.2-0.3h2.1c0.2-1.3,0.3-2.6,0.4-3.9c0-0.1,0-0.1,0.1-0.1C-289.6-93.3-289.1-93.1-289.1-93z M-289.2-82.7
				c0.3-0.8,0.5-1.6,0.7-2.4c0.1-0.8,0.3-1.9,0.5-3.2h-2.3c-0.1,0.6-0.3,1.2-0.4,1.9c-0.2,0.9-0.5,1.9-0.8,2.8
				c0.5,0.3,1.1,0.6,1.6,1c0.2,0.2,0.4,0.3,0.6,0.4C-289.3-82.4-289.2-82.6-289.2-82.7z M-277.8-92.6c0.1,0,0.2,0,0.3,0.1
				c0.3,0.2,0.4,0.4,0.4,0.5l-3.7,4.3l-0.1,0.1v2.4h3.7c0.1,0,0.2,0.1,0.2,0.2v0.7c0,0.2-0.1,0.3-0.2,0.3h-3.7v5.5
				c0,1-0.7,1.4-2,1.4h-1.6c-0.1,0-0.1-0.1-0.1-0.4c0-0.3-0.2-0.7-0.4-0.9c0-0.1,0-0.1,0.1-0.1c0.6,0.1,1.3,0.2,1.9,0.2
				c0.3,0,0.6-0.2,0.6-0.5c0,0,0-0.1,0-0.1v-5.1h-3.9c-0.1,0-0.2-0.1-0.2-0.3v-0.7c0-0.1,0.1-0.2,0.1-0.2c0,0,0,0,0.1,0h3.9v-3.5
				c0-0.1,0.1-0.3,0.2-0.3c0,0,0,0,0.1,0l0.4,0.2l2.3-2.6h-6.9c-0.1,0-0.2-0.1-0.2-0.3v-0.6c0-0.2,0.1-0.3,0.2-0.3L-277.8-92.6z"/>
			<path id="Path_41598" class="st1" d="M-269.5-89.5c0.1,0,0.3,0,0.4,0.1c0.2,0.2,0.4,0.3,0.4,0.4c-0.1,1-0.3,1.9-0.4,2.5
				c-0.2,0.7-0.4,1.4-0.7,2.1c-0.2,0.5-0.4,1-0.7,1.5c-0.3,0.5-0.6,1.1-1,1.5c-0.3,0.4-0.7,0.8-1.1,1.1c-0.5,0.4-1,0.7-1.6,1
				c-0.1,0-0.3-0.1-0.3-0.2c-0.3-0.2-0.5-0.4-0.8-0.6c-0.1-0.1-0.1-0.1-0.1-0.2c0-0.1,0-0.1,0.1-0.1c0.6-0.3,1.3-0.6,1.8-1
				c0.5-0.4,0.9-0.8,1.3-1.3c0.4-0.5,0.7-1,1-1.5c0.3-0.6,0.5-1.2,0.7-1.9c0.1-0.6,0.3-1.4,0.5-2.3h-4.5c-0.1,0-0.2-0.1-0.2-0.3
				v-0.7c0-0.1,0.1-0.2,0.2-0.2L-269.5-89.5z M-265.4-93.3c0.1,0.1,0.2,0.2,0.2,0.2c0,0.1-0.1,0.2-0.2,0.2c-0.3,0.1-0.4,0.4-0.4,1
				v1.9c0.2,0.9,0.5,1.7,0.8,2.6c1.2-0.9,2.4-1.9,3.5-3c0.2-0.1,0.4-0.2,0.6-0.3c0.1,0,0.2,0.1,0.3,0.1c0.8,0.6,1.2,0.9,1.2,1
				c0,0.3-0.1,0.4-0.2,0.4l-0.4-0.1c-0.3,0-0.5,0.1-0.8,0.3c-1,0.7-2.2,1.7-3.6,2.8c0.2,0.4,0.4,0.8,0.6,1.2c0.7,1.1,1.5,2,2.4,2.8
				c0.9,0.7,1.8,1.3,2.9,1.7c0.1,0.1,0.1,0.1,0.1,0.2c0,0.1-0.1,0.2-0.2,0.3c-0.2,0.2-0.4,0.5-0.6,0.7c0,0.1-0.2,0.2-0.3,0.2
				c-0.3-0.1-0.6-0.3-0.8-0.5c-1.3-0.8-2.5-1.9-3.6-3.1c-0.7-0.9-1.3-1.9-1.7-2.9c-0.2-0.3-0.3-0.6-0.4-0.9v8.1c0,1-0.7,1.4-2,1.4
				h-1.9c-0.1,0-0.1-0.1-0.1-0.4c-0.1-0.3-0.2-0.6-0.4-0.9c0-0.1,0-0.2,0.2-0.2c0.7,0.1,1.4,0.2,2.1,0.2c0.5,0,0.8-0.2,0.8-0.6
				v-13.2c0-0.4,0-0.7,0-0.9c0-0.1,0-0.3,0-0.4c0-0.1,0.1-0.1,0.3-0.1L-265.4-93.3z"/>
		</g>
	</g>
</g>
</svg>
