<svg xmlns="http://www.w3.org/2000/svg" xmlns:xlink="http://www.w3.org/1999/xlink" width="359.895" height="144.71" viewBox="0 0 359.895 144.71">
  <defs>
    <filter id="Path_37684" x="63.848" y="0" width="296.047" height="144.71" filterUnits="userSpaceOnUse">
      <feOffset input="SourceAlpha"/>
      <feGaussianBlur stdDeviation="0.511" result="blur"/>
      <feFlood flood-opacity="0.4"/>
      <feComposite operator="in" in2="blur"/>
      <feComposite in="SourceGraphic"/>
    </filter>
    <linearGradient id="linear-gradient" x1="104.17" y1="-271.546" x2="103.465" y2="-271.086" gradientUnits="objectBoundingBox">
      <stop offset="0" stop-color="#c9cdcd"/>
      <stop offset="1" stop-color="#9fa0a0"/>
    </linearGradient>
  </defs>
  <g id="section6_imgicon1" transform="translate(-53.147 -7319.652)">
    <rect id="Rectangle_122" data-name="Rectangle 122" width="309" height="50" transform="translate(78.147 7320.019)" fill="#72adb6"/>
    <g id="Group_6118" data-name="Group 6118" transform="translate(53.147 7321.019)">
      <g id="Group_6112" data-name="Group 6112" transform="translate(65.383 0.168)">
        <g transform="matrix(1, 0, 0, 1, -65.38, -1.54)" filter="url(#Path_37684)">
          <path id="Path_37684-2" data-name="Path 37684" d="M376.05,1699.343l-38.322-47.06c-3.923-4.819-9.184-7.04-14.357-6.714a15.206,15.206,0,0,0-3.339-.391H106.321c-9.754,0-17.733,9.8-17.733,21.78v98.083c0,11.981,7.979,21.78,17.733,21.78H320.032a15.4,15.4,0,0,0,4.9-.828,17.307,17.307,0,0,0,12.8-6.742L376.05,1732.2C383.408,1723.16,383.408,1708.379,376.05,1699.343Z" transform="translate(-23.21 -1643.64)" fill="#fff"/>
        </g>
      </g>
      <g id="Group_6117" data-name="Group 6117">
        <g id="Group_6114" data-name="Group 6114">
          <g id="Group_6113" data-name="Group 6113" opacity="0.6" style="mix-blend-mode: multiply;isolation: isolate">
            <circle id="Ellipse_8" data-name="Ellipse 8" cx="49.469" cy="49.469" r="49.469" transform="translate(9.001 56.616) rotate(-34.898)" fill="#fff"/>
            <circle id="Ellipse_9" data-name="Ellipse 9" cx="49.469" cy="49.469" r="49.469" transform="translate(8.955 56.414) rotate(-34.692)" fill="#fefefe"/>
            <circle id="Ellipse_10" data-name="Ellipse 10" cx="49.469" cy="49.469" r="49.469" transform="translate(8.912 56.2) rotate(-34.51)" fill="#fdfdfd"/>
            <circle id="Ellipse_11" data-name="Ellipse 11" cx="49.469" cy="49.469" r="49.469" transform="translate(8.873 55.973) rotate(-34.296)" fill="#fcfcfc"/>
            <circle id="Ellipse_12" data-name="Ellipse 12" cx="49.469" cy="49.469" r="49.469" transform="translate(8.837 55.731) rotate(-34.071)" fill="#fbfbfb"/>
            <circle id="Ellipse_13" data-name="Ellipse 13" cx="49.469" cy="49.469" r="49.469" transform="matrix(0.831, -0.557, 0.557, 0.831, 8.805, 55.475)" fill="#fafafa"/>
            <circle id="Ellipse_14" data-name="Ellipse 14" cx="49.469" cy="49.469" r="49.469" transform="translate(8.777 55.202) rotate(-33.579)" fill="#f9f9f9"/>
            <circle id="Ellipse_15" data-name="Ellipse 15" cx="49.469" cy="49.469" r="49.469" transform="matrix(0.836, -0.549, 0.549, 0.836, 8.755, 54.912)" fill="#f8f8f8"/>
            <circle id="Ellipse_16" data-name="Ellipse 16" cx="49.469" cy="49.469" r="49.469" transform="matrix(0.838, -0.545, 0.545, 0.838, 8.739, 54.601)" fill="#f7f7f7"/>
            <circle id="Ellipse_17" data-name="Ellipse 17" cx="49.469" cy="49.469" r="49.469" transform="matrix(0.841, -0.541, 0.541, 0.841, 8.728, 54.27)" fill="#f6f6f6"/>
            <circle id="Ellipse_18" data-name="Ellipse 18" cx="49.469" cy="49.469" r="49.469" transform="translate(8.725 53.916) rotate(-32.404)" fill="#f5f5f5"/>
            <circle id="Ellipse_19" data-name="Ellipse 19" cx="49.469" cy="49.469" r="49.469" transform="matrix(0.847, -0.531, 0.531, 0.847, 8.73, 53.537)" fill="#f4f4f4"/>
            <circle id="Ellipse_20" data-name="Ellipse 20" cx="49.469" cy="49.469" r="49.469" transform="matrix(0.851, -0.525, 0.525, 0.851, 8.744, 53.131)" fill="#f3f3f3"/>
            <circle id="Ellipse_21" data-name="Ellipse 21" cx="49.469" cy="49.469" r="49.469" transform="translate(8.768 52.694) rotate(-31.337)" fill="#f2f2f2"/>
            <circle id="Ellipse_22" data-name="Ellipse 22" cx="49.469" cy="49.469" r="49.469" transform="matrix(0.858, -0.513, 0.513, 0.858, 8.804, 52.224)" fill="#f1f1f1"/>
            <circle id="Ellipse_23" data-name="Ellipse 23" cx="49.469" cy="49.469" r="49.469" transform="translate(8.854 51.717) rotate(-30.413)" fill="#f0f0f0"/>
            <circle id="Ellipse_24" data-name="Ellipse 24" cx="49.469" cy="49.469" r="49.469" transform="translate(8.919 51.17) rotate(-29.938)" fill="#efefef"/>
            <circle id="Ellipse_25" data-name="Ellipse 25" cx="49.469" cy="49.469" r="49.469" transform="translate(9.001 50.578) rotate(-29.41)" fill="#eee"/>
            <circle id="Ellipse_26" data-name="Ellipse 26" cx="49.469" cy="49.469" r="49.469" transform="translate(9.104 49.936) rotate(-28.839)" fill="#ededed"/>
            <circle id="Ellipse_27" data-name="Ellipse 27" cx="49.469" cy="49.469" r="49.469" transform="translate(9.232 49.239) rotate(-28.231)" fill="#ececec"/>
            <circle id="Ellipse_28" data-name="Ellipse 28" cx="49.469" cy="49.469" r="49.469" transform="matrix(0.887, -0.462, 0.462, 0.887, 9.387, 48.48)" fill="#ebebeb"/>
            <circle id="Ellipse_29" data-name="Ellipse 29" cx="49.469" cy="49.469" r="49.469" transform="translate(9.575 47.653) rotate(-26.805)" fill="#eaeaea"/>
            <circle id="Ellipse_30" data-name="Ellipse 30" cx="49.469" cy="49.469" r="49.469" transform="translate(9.801 46.749) rotate(-25.976)" fill="#e9e9e9"/>
            <circle id="Ellipse_31" data-name="Ellipse 31" cx="49.469" cy="49.469" r="49.469" transform="translate(10.073 45.76) rotate(-25.115)" fill="#e8e8e8"/>
            <circle id="Ellipse_32" data-name="Ellipse 32" cx="49.469" cy="49.469" r="49.469" transform="translate(10.398 44.676) rotate(-24.142)" fill="#e7e7e7"/>
            <circle id="Ellipse_33" data-name="Ellipse 33" cx="49.469" cy="49.469" r="49.469" transform="translate(10.788 43.487) rotate(-23.078)" fill="#e6e6e6"/>
            <circle id="Ellipse_34" data-name="Ellipse 34" cx="49.469" cy="49.469" r="49.469" transform="translate(11.254 42.182) rotate(-21.886)" fill="#e5e5e5"/>
            <circle id="Ellipse_35" data-name="Ellipse 35" cx="49.469" cy="49.469" r="49.469" transform="translate(11.81 40.748) rotate(-20.556)" fill="#e4e4e4"/>
            <circle id="Ellipse_36" data-name="Ellipse 36" cx="49.469" cy="49.469" r="49.469" transform="translate(12.475 39.176) rotate(-19.128)" fill="#e3e3e3"/>
            <circle id="Ellipse_37" data-name="Ellipse 37" cx="49.469" cy="49.469" r="49.469" transform="translate(13.267 37.454) rotate(-17.511)" fill="#e2e2e2"/>
            <circle id="Ellipse_38" data-name="Ellipse 38" cx="49.469" cy="49.469" r="49.469" transform="translate(14.208 35.578) rotate(-15.749)" fill="#e1e1e1"/>
            <circle id="Ellipse_39" data-name="Ellipse 39" cx="49.469" cy="49.469" r="49.469" transform="translate(15.323 33.543) rotate(-13.792)" fill="#e0e0e0"/>
            <circle id="Ellipse_40" data-name="Ellipse 40" cx="49.469" cy="49.469" r="49.469" transform="matrix(0.979, -0.202, 0.202, 0.979, 16.636, 31.356)" fill="#dfdfdf"/>
            <circle id="Ellipse_41" data-name="Ellipse 41" cx="49.469" cy="49.469" r="49.469" transform="translate(18.167 29.031) rotate(-9.321)" fill="#dedede"/>
            <circle id="Ellipse_42" data-name="Ellipse 42" cx="49.469" cy="49.469" r="49.469" transform="translate(19.932 26.598) rotate(-6.781)" fill="#ddd"/>
            <circle id="Ellipse_43" data-name="Ellipse 43" cx="49.469" cy="49.469" r="49.469" transform="translate(21.934 24.099) rotate(-4.094)" fill="#dcdcdc"/>
            <circle id="Ellipse_44" data-name="Ellipse 44" cx="49.469" cy="49.469" r="49.469" transform="matrix(1, -0.022, 0.022, 1, 24.16, 21.588)" fill="#dbdbdb"/>
            <circle id="Ellipse_45" data-name="Ellipse 45" cx="49.469" cy="49.469" r="49.469" transform="translate(23.789 118.024) rotate(-88.396)" fill="#dadada"/>
            <circle id="Ellipse_46" data-name="Ellipse 46" cx="49.469" cy="49.469" r="49.469" transform="translate(21.321 115.403) rotate(-85.466)" fill="#d9d9d9"/>
            <circle id="Ellipse_47" data-name="Ellipse 47" cx="49.469" cy="49.469" r="49.469" transform="translate(19.018 112.7) rotate(-82.585)" fill="#d8d8d8"/>
            <circle id="Ellipse_48" data-name="Ellipse 48" cx="49.469" cy="49.469" r="49.469" transform="matrix(0.177, -0.984, 0.984, 0.177, 16.919, 109.98)" fill="#d7d7d7"/>
            <circle id="Ellipse_49" data-name="Ellipse 49" cx="49.469" cy="49.469" r="49.469" transform="translate(15.045 107.309) rotate(-77.143)" fill="#d6d6d6"/>
            <circle id="Ellipse_50" data-name="Ellipse 50" cx="49.469" cy="49.469" r="49.469" transform="translate(13.401 104.737) rotate(-74.66)" fill="#d5d5d5"/>
            <circle id="Ellipse_51" data-name="Ellipse 51" cx="49.469" cy="49.469" r="49.469" transform="translate(11.974 102.302) rotate(-72.362)" fill="#d4d4d4"/>
            <circle id="Ellipse_52" data-name="Ellipse 52" cx="49.469" cy="49.469" r="49.469" transform="matrix(0.338, -0.941, 0.941, 0.338, 10.748, 100.029)" fill="#d3d3d3"/>
            <circle id="Ellipse_53" data-name="Ellipse 53" cx="49.469" cy="49.469" r="49.469" transform="translate(9.699 97.928) rotate(-68.345)" fill="#d2d2d2"/>
            <circle id="Ellipse_54" data-name="Ellipse 54" cx="49.469" cy="49.469" r="49.469" transform="translate(8.801 96) rotate(-66.61)" fill="#d1d1d1"/>
            <circle id="Ellipse_55" data-name="Ellipse 55" cx="49.469" cy="49.469" r="49.469" transform="matrix(0.422, -0.907, 0.907, 0.422, 8.033, 94.24)" fill="#d0d0d0"/>
            <circle id="Ellipse_56" data-name="Ellipse 56" cx="49.469" cy="49.469" r="49.469" transform="translate(7.372 92.638) rotate(-63.64)" fill="#cfcfcf"/>
            <circle id="Ellipse_57" data-name="Ellipse 57" cx="49.469" cy="49.469" r="49.469" transform="translate(6.802 91.182) rotate(-62.346)" fill="#cecece"/>
            <circle id="Ellipse_58" data-name="Ellipse 58" cx="49.469" cy="49.469" r="49.469" transform="translate(6.307 89.858) rotate(-61.189)" fill="#cdcdcd"/>
            <circle id="Ellipse_59" data-name="Ellipse 59" cx="49.469" cy="49.469" r="49.469" transform="translate(5.874 88.655) rotate(-60.141)" fill="#ccc"/>
            <circle id="Ellipse_60" data-name="Ellipse 60" cx="49.469" cy="49.469" r="49.469" transform="matrix(0.512, -0.859, 0.859, 0.512, 5.492, 87.561)" fill="#cbcbcb"/>
            <circle id="Ellipse_61" data-name="Ellipse 61" cx="49.469" cy="49.469" r="49.469" transform="translate(5.153 86.563) rotate(-58.329)" fill="#cacaca"/>
            <circle id="Ellipse_62" data-name="Ellipse 62" cx="49.469" cy="49.469" r="49.469" transform="translate(4.849 85.653) rotate(-57.533)" fill="#c9c9c9"/>
            <circle id="Ellipse_63" data-name="Ellipse 63" cx="49.469" cy="49.469" r="49.469" transform="matrix(0.547, -0.837, 0.837, 0.547, 4.575, 84.819)" fill="#c8c8c8"/>
            <circle id="Ellipse_64" data-name="Ellipse 64" cx="49.469" cy="49.469" r="49.469" transform="translate(4.327 84.057) rotate(-56.148)" fill="#c7c7c7"/>
            <circle id="Ellipse_65" data-name="Ellipse 65" cx="49.469" cy="49.469" r="49.469" transform="translate(4.099 83.356) rotate(-55.539)" fill="#c6c6c6"/>
            <circle id="Ellipse_66" data-name="Ellipse 66" cx="49.469" cy="49.469" r="49.469" transform="translate(3.889 82.711) rotate(-54.975)" fill="#c5c5c5"/>
            <circle id="Ellipse_67" data-name="Ellipse 67" cx="49.469" cy="49.469" r="49.469" transform="translate(3.695 82.116) rotate(-54.459)" fill="#c4c4c4"/>
            <circle id="Ellipse_68" data-name="Ellipse 68" cx="49.469" cy="49.469" r="49.469" transform="translate(3.513 81.567) rotate(-53.989)" fill="#c3c3c3"/>
            <circle id="Ellipse_69" data-name="Ellipse 69" cx="49.469" cy="49.469" r="49.469" transform="matrix(0.594, -0.804, 0.804, 0.594, 3.343, 81.058)" fill="#c2c2c2"/>
            <circle id="Ellipse_70" data-name="Ellipse 70" cx="49.469" cy="49.469" r="49.469" transform="matrix(0.6, -0.8, 0.8, 0.6, 3.181, 80.587)" fill="#c1c1c1"/>
            <circle id="Ellipse_71" data-name="Ellipse 71" cx="49.469" cy="49.469" r="49.469" transform="translate(3.029 80.149) rotate(-52.718)" fill="silver"/>
            <circle id="Ellipse_72" data-name="Ellipse 72" cx="49.469" cy="49.469" r="49.469" transform="matrix(0.611, -0.792, 0.792, 0.611, 2.883, 79.741)" fill="silver"/>
            <circle id="Ellipse_73" data-name="Ellipse 73" cx="49.469" cy="49.469" r="49.469" transform="matrix(0.615, -0.788, 0.788, 0.615, 2.743, 79.361)" fill="#bfbfbf"/>
            <circle id="Ellipse_74" data-name="Ellipse 74" cx="49.469" cy="49.469" r="49.469" transform="matrix(0.62, -0.785, 0.785, 0.62, 2.61, 79.006)" fill="#bebebe"/>
            <circle id="Ellipse_75" data-name="Ellipse 75" cx="49.469" cy="49.469" r="49.469" transform="translate(2.48 78.675) rotate(-51.412)" fill="#bdbdbd"/>
            <circle id="Ellipse_76" data-name="Ellipse 76" cx="49.469" cy="49.469" r="49.469" transform="translate(2.355 78.364) rotate(-51.17)" fill="#bcbcbc"/>
            <circle id="Ellipse_77" data-name="Ellipse 77" cx="49.469" cy="49.469" r="49.469" transform="translate(2.233 78.073) rotate(-50.873)" fill="#bbb"/>
            <circle id="Ellipse_78" data-name="Ellipse 78" cx="49.469" cy="49.469" r="49.469" transform="translate(2.115 77.799) rotate(-50.624)" fill="#bababa"/>
            <circle id="Ellipse_79" data-name="Ellipse 79" cx="49.469" cy="49.469" r="49.469" transform="translate(2 77.543) rotate(-50.356)" fill="#b9b9b9"/>
            <circle id="Ellipse_80" data-name="Ellipse 80" cx="49.469" cy="49.469" r="49.469" transform="translate(1.887 77.301) rotate(-50.15)" fill="#b8b8b8"/>
            <circle id="Ellipse_81" data-name="Ellipse 81" cx="49.469" cy="49.469" r="49.469" transform="matrix(0.643, -0.766, 0.766, 0.643, 1.777, 77.074)" fill="#b7b7b7"/>
            <circle id="Ellipse_82" data-name="Ellipse 82" cx="49.469" cy="49.469" r="49.469" transform="translate(1.668 76.859) rotate(-49.753)" fill="#b6b6b6"/>
            <circle id="Ellipse_83" data-name="Ellipse 83" cx="49.469" cy="49.469" r="49.469" transform="translate(1.562 76.656) rotate(-49.563)" fill="#b5b5b5"/>
            <circle id="Ellipse_84" data-name="Ellipse 84" cx="49.469" cy="49.469" r="49.469" transform="translate(1.457 76.464) rotate(-49.38)" fill="#b4b4b4"/>
            <circle id="Ellipse_85" data-name="Ellipse 85" cx="49.469" cy="49.469" r="49.469" transform="translate(1.353 76.284) rotate(-49.208)" fill="#b3b3b3"/>
            <circle id="Ellipse_86" data-name="Ellipse 86" cx="49.469" cy="49.469" r="49.469" transform="matrix(0.655, -0.755, 0.755, 0.655, 1.251, 76.113)" fill="#b2b2b2"/>
            <circle id="Ellipse_87" data-name="Ellipse 87" cx="49.469" cy="49.469" r="49.469" transform="matrix(0.658, -0.753, 0.753, 0.658, 1.15, 75.951)" fill="#b1b1b1"/>
            <circle id="Ellipse_88" data-name="Ellipse 88" cx="49.469" cy="49.469" r="49.469" transform="translate(1.05 75.797) rotate(-48.728)" fill="#b0b0b0"/>
            <circle id="Ellipse_89" data-name="Ellipse 89" cx="49.469" cy="49.469" r="49.469" transform="translate(0.951 75.651) rotate(-48.609)" fill="#afafaf"/>
            <circle id="Ellipse_90" data-name="Ellipse 90" cx="49.469" cy="49.469" r="49.469" transform="matrix(0.663, -0.748, 0.748, 0.663, 0.853, 75.514)" fill="#aeaeae"/>
            <circle id="Ellipse_91" data-name="Ellipse 91" cx="49.469" cy="49.469" r="49.469" transform="translate(0.756 75.382) rotate(-48.324)" fill="#adadad"/>
            <circle id="Ellipse_92" data-name="Ellipse 92" cx="49.469" cy="49.469" r="49.469" transform="translate(0.659 75.258) rotate(-48.196)" fill="#acacac"/>
            <circle id="Ellipse_93" data-name="Ellipse 93" cx="49.469" cy="49.469" r="49.469" transform="matrix(0.668, -0.744, 0.744, 0.668, 0.564, 75.139)" fill="#ababab"/>
            <circle id="Ellipse_94" data-name="Ellipse 94" cx="49.469" cy="49.469" r="49.469" transform="translate(0.468 75.026) rotate(-47.959)" fill="#aaa"/>
            <circle id="Ellipse_95" data-name="Ellipse 95" cx="49.469" cy="49.469" r="49.469" transform="translate(0.374 74.92) rotate(-47.838)" fill="#a9a9a9"/>
            <circle id="Ellipse_96" data-name="Ellipse 96" cx="49.469" cy="49.469" r="49.469" transform="translate(0.28 74.817) rotate(-47.739)" fill="#a8a8a8"/>
            <circle id="Ellipse_97" data-name="Ellipse 97" cx="49.469" cy="49.469" r="49.469" transform="translate(0.186 74.72) rotate(-47.635)" fill="#a7a7a7"/>
            <circle id="Ellipse_98" data-name="Ellipse 98" cx="49.469" cy="49.469" r="49.469" transform="matrix(0.675, -0.738, 0.738, 0.675, 0.093, 74.628)" fill="#a6a6a6"/>
            <circle id="Ellipse_99" data-name="Ellipse 99" cx="49.469" cy="49.469" r="49.469" transform="translate(0 74.54) rotate(-47.439)" fill="#a5a5a5"/>
            <path id="Path_37685" data-name="Path 37685" d="M175.426,1714.388a49.469,49.469,0,1,1-32.2-62.112,49.469,49.469,0,0,1,32.2,62.112Z" transform="translate(-58.464 -1627.84)" fill="#a4a4a4"/>
            <path id="Path_37686" data-name="Path 37686" d="M175.407,1714.39a49.468,49.468,0,1,1-32.2-62.106,49.468,49.468,0,0,1,32.2,62.106Z" transform="translate(-58.532 -1627.815)" fill="#a3a3a3"/>
            <path id="Path_37687" data-name="Path 37687" d="M175.388,1714.4a49.468,49.468,0,1,1-32.2-62.106,49.468,49.468,0,0,1,32.2,62.106Z" transform="translate(-58.6 -1627.793)" fill="#a2a2a2"/>
            <path id="Path_37688" data-name="Path 37688" d="M175.371,1714.4a49.47,49.47,0,1,1-32.2-62.107,49.47,49.47,0,0,1,32.2,62.107Z" transform="translate(-58.671 -1627.769)" fill="#a1a1a1"/>
            <path id="Path_37689" data-name="Path 37689" d="M175.352,1714.409a49.47,49.47,0,1,1-32.2-62.107,49.47,49.47,0,0,1,32.2,62.107Z" transform="translate(-58.739 -1627.746)" fill="#a0a0a0"/>
            <path id="Path_37690" data-name="Path 37690" d="M175.333,1714.418a49.47,49.47,0,1,1-32.2-62.111,49.47,49.47,0,0,1,32.2,62.111Z" transform="translate(-58.807 -1627.723)" fill="#9f9f9f"/>
            <path id="Path_37691" data-name="Path 37691" d="M175.315,1714.422a49.47,49.47,0,1,1-32.2-62.106A49.47,49.47,0,0,1,175.315,1714.422Z" transform="translate(-58.876 -1627.7)" fill="#9e9e9e"/>
            <path id="Path_37692" data-name="Path 37692" d="M175.3,1714.433a49.471,49.471,0,1,1-32.2-62.111,49.471,49.471,0,0,1,32.2,62.111Z" transform="translate(-58.946 -1627.679)" fill="#9d9d9d"/>
            <path id="Path_37693" data-name="Path 37693" d="M175.278,1714.435a49.47,49.47,0,1,1-32.205-62.107,49.47,49.47,0,0,1,32.205,62.107Z" transform="translate(-59.014 -1627.653)" fill="#9c9c9c"/>
            <path id="Path_37694" data-name="Path 37694" d="M175.259,1714.441a49.47,49.47,0,1,1-32.205-62.107,49.47,49.47,0,0,1,32.205,62.107Z" transform="translate(-59.083 -1627.631)" fill="#9b9b9b"/>
            <path id="Path_37695" data-name="Path 37695" d="M175.235,1714.45a49.468,49.468,0,1,1-32.2-62.111,49.468,49.468,0,0,1,32.2,62.111Z" transform="translate(-59.151 -1627.608)" fill="#9a9a9a"/>
            <path id="Path_37696" data-name="Path 37696" d="M175.216,1714.455a49.468,49.468,0,1,1-32.2-62.106A49.468,49.468,0,0,1,175.216,1714.455Z" transform="translate(-59.219 -1627.585)" fill="#999"/>
            <path id="Path_37697" data-name="Path 37697" d="M175.2,1714.465a49.469,49.469,0,1,1-32.2-62.111,49.469,49.469,0,0,1,32.2,62.111Z" transform="translate(-59.288 -1627.564)" fill="#989898"/>
            <path id="Path_37698" data-name="Path 37698" d="M175.178,1714.467a49.468,49.468,0,1,1-32.2-62.107A49.468,49.468,0,0,1,175.178,1714.467Z" transform="translate(-59.356 -1627.538)" fill="#979797"/>
            <path id="Path_37699" data-name="Path 37699" d="M175.159,1714.478a49.469,49.469,0,1,1-32.2-62.111,49.469,49.469,0,0,1,32.2,62.111Z" transform="translate(-59.424 -1627.517)" fill="#969696"/>
            <path id="Path_37700" data-name="Path 37700" d="M175.14,1714.481a49.468,49.468,0,1,1-32.2-62.107,49.468,49.468,0,0,1,32.2,62.107Z" transform="translate(-59.493 -1627.492)" fill="#959595"/>
            <path id="Path_37701" data-name="Path 37701" d="M175.123,1714.487a49.47,49.47,0,1,1-32.2-62.107A49.47,49.47,0,0,1,175.123,1714.487Z" transform="translate(-59.563 -1627.47)" fill="#949494"/>
            <path id="Path_37702" data-name="Path 37702" d="M175.1,1714.5a49.47,49.47,0,1,1-32.2-62.111,49.47,49.47,0,0,1,32.2,62.111Z" transform="translate(-59.631 -1627.447)" fill="#939393"/>
            <path id="Path_37703" data-name="Path 37703" d="M175.085,1714.5a49.47,49.47,0,1,1-32.2-62.107,49.47,49.47,0,0,1,32.2,62.107Z" transform="translate(-59.7 -1627.423)" fill="#929292"/>
            <path id="Path_37704" data-name="Path 37704" d="M175.067,1714.51a49.471,49.471,0,1,1-32.2-62.111,49.471,49.471,0,0,1,32.2,62.111Z" transform="translate(-59.769 -1627.402)" fill="#919191"/>
            <path id="Path_37705" data-name="Path 37705" d="M175.049,1714.512a49.47,49.47,0,1,1-32.2-62.107,49.47,49.47,0,0,1,32.2,62.107Z" transform="translate(-59.838 -1627.376)" fill="#909090"/>
            <path id="Path_37706" data-name="Path 37706" d="M175.03,1714.518a49.47,49.47,0,1,1-32.205-62.107,49.47,49.47,0,0,1,32.205,62.107Z" transform="translate(-59.907 -1627.354)" fill="#8f8f8f"/>
            <path id="Path_37707" data-name="Path 37707" d="M175.011,1714.528a49.47,49.47,0,1,1-32.205-62.112,49.47,49.47,0,0,1,32.205,62.112Z" transform="translate(-59.975 -1627.332)" fill="#8e8e8e"/>
            <path id="Path_37708" data-name="Path 37708" d="M174.987,1714.531a49.468,49.468,0,1,1-32.2-62.107,49.468,49.468,0,0,1,32.2,62.107Z" transform="translate(-60.043 -1627.307)" fill="#8d8d8d"/>
            <path id="Path_37709" data-name="Path 37709" d="M174.968,1714.542a49.469,49.469,0,1,1-32.2-62.111,49.469,49.469,0,0,1,32.2,62.111Z" transform="translate(-60.112 -1627.286)" fill="#8c8c8c"/>
            <path id="Path_37710" data-name="Path 37710" d="M174.949,1714.544a49.468,49.468,0,1,1-32.2-62.107,49.468,49.468,0,0,1,32.2,62.107Z" transform="translate(-60.18 -1627.261)" fill="#8b8b8b"/>
            <path id="Path_37711" data-name="Path 37711" d="M174.93,1714.555a49.469,49.469,0,1,1-32.2-62.112,49.469,49.469,0,0,1,32.2,62.112Z" transform="translate(-60.249 -1627.238)" fill="#8a8a8a"/>
            <path id="Path_37712" data-name="Path 37712" d="M174.911,1714.558a49.468,49.468,0,1,1-32.2-62.107A49.468,49.468,0,0,1,174.911,1714.558Z" transform="translate(-60.317 -1627.214)" fill="#898989"/>
            <path id="Path_37713" data-name="Path 37713" d="M174.892,1714.564a49.468,49.468,0,1,1-32.2-62.107A49.468,49.468,0,0,1,174.892,1714.564Z" transform="translate(-60.385 -1627.193)" fill="#888"/>
            <path id="Path_37714" data-name="Path 37714" d="M174.873,1714.572a49.469,49.469,0,1,1-32.2-62.111,49.469,49.469,0,0,1,32.2,62.111Z" transform="translate(-60.454 -1627.169)" fill="#878787"/>
            <path id="Path_37715" data-name="Path 37715" d="M174.856,1714.576a49.47,49.47,0,1,1-32.2-62.107,49.47,49.47,0,0,1,32.2,62.107Z" transform="translate(-60.524 -1627.145)" fill="#868686"/>
            <path id="Path_37716" data-name="Path 37716" d="M174.837,1714.587a49.471,49.471,0,1,1-32.2-62.112,49.471,49.471,0,0,1,32.2,62.112Z" transform="translate(-60.592 -1627.124)" fill="#858585"/>
            <path id="Path_37717" data-name="Path 37717" d="M174.819,1714.59a49.47,49.47,0,1,1-32.2-62.107,49.47,49.47,0,0,1,32.2,62.107Z" transform="translate(-60.661 -1627.099)" fill="#848484"/>
            <path id="Path_37718" data-name="Path 37718" d="M174.8,1714.6a49.47,49.47,0,1,1-32.2-62.107,49.47,49.47,0,0,1,32.2,62.107Z" transform="translate(-60.729 -1627.078)" fill="#838383"/>
            <path id="Path_37719" data-name="Path 37719" d="M174.782,1714.6a49.47,49.47,0,1,1-32.2-62.111,49.47,49.47,0,0,1,32.2,62.111Z" transform="translate(-60.799 -1627.055)" fill="#828282"/>
            <path id="Path_37720" data-name="Path 37720" d="M174.763,1714.609a49.47,49.47,0,1,1-32.2-62.107,49.47,49.47,0,0,1,32.2,62.107Z" transform="translate(-60.868 -1627.031)" fill="#818181"/>
            <path id="Path_37721" data-name="Path 37721" d="M174.744,1714.618a49.471,49.471,0,1,1-32.205-62.112,49.471,49.471,0,0,1,32.205,62.112Z" transform="translate(-60.936 -1627.007)" fill="gray"/>
          </g>
          <path id="Path_37722" data-name="Path 37722" d="M174.734,1714.712a49.47,49.47,0,1,1-32.205-62.106,49.47,49.47,0,0,1,32.205,62.106Z" transform="translate(-60.972 -1626.657)" fill="#c3dec0"/>
        </g>
        <g id="Group_6116" data-name="Group 6116" transform="translate(21.449 28.106)">
          <g id="Group_6115" data-name="Group 6115" style="mix-blend-mode: multiply;isolation: isolate">
            <path id="Path_37723" data-name="Path 37723" d="M155.97,1728.2a45.083,45.083,0,1,1,.014-63.763,45.083,45.083,0,0,1-.014,63.763Zm-59.03-59.058a38.416,38.416,0,1,0,54.33.013,38.416,38.416,0,0,0-54.33-.013Z" transform="translate(-79.035 -1651.253)" fill="url(#linear-gradient)"/>
          </g>
        </g>
      </g>
    </g>
    <g id="Group_6140" data-name="Group 6140" transform="translate(188.744 7381.326)">
      <path id="Path_37877" data-name="Path 37877" d="M106.362,1661.6v-2.065a3.5,3.5,0,0,0-.064-.69.872.872,0,0,1-.064-.3c0-.078.1-.124.317-.124l1.219.17c.11.06.175.106.175.143,0,.092-.064.143-.175.143-.216.073-.313.308-.313.717v2.006h1.407c.078,0,.129.063.129.189v.487c0,.17-.051.248-.129.248h-1.407v3.22c.487-.244.957-.515,1.393-.782.014-.027.046-.065.078-.065a.119.119,0,0,1,.124.125,3.367,3.367,0,0,1-.06.865c-.533.313-1.035.607-1.536.887v4.732c0,.731-.547,1.108-1.642,1.108l-.86-.065c-.1,0-.129-.092-.129-.262a2.324,2.324,0,0,0-.294-.718c0-.1.032-.124.106-.124a3.4,3.4,0,0,0,1.049.179c.442,0,.676-.179.676-.538v-3.711c-.515.281-1.035.529-1.536.764-.156.294-.262.441-.359.441s-.313-.423-.612-1.288a17.7,17.7,0,0,0,2.378-.952l.129-.06v-3.757h-1.895c-.092,0-.124-.078-.124-.248v-.487c0-.125.032-.189.124-.189Zm6.728,3.968v-1.218c0-.129.078-.189.235-.189.763,0,1.159.06,1.159.189s-.046.225-.143.244-.156.115-.156.3v.671h3.789c.124,0,.184.1.184.253v.487c0,.17-.06.249-.184.249h-3.647a10.966,10.966,0,0,0,1.191,1.724,7.2,7.2,0,0,0,1.518,1.467,5.66,5.66,0,0,0,1.485.85c0,.056-.046.115-.143.152a6.134,6.134,0,0,0-.515.575c-.064.065-.11.12-.143.12a8.559,8.559,0,0,1-1.863-1.347,8.2,8.2,0,0,1-1.389-1.647,4.37,4.37,0,0,1-.285-.4v4.313c0,.125-.1.189-.248.189h-.612c-.156,0-.235-.064-.235-.189v-4.286c-.156.234-.313.442-.437.593a13.436,13.436,0,0,1-1.347,1.439,12.161,12.161,0,0,1-1.642,1.219.374.374,0,0,1-.281-.106c-.207-.188-.409-.358-.6-.529a.423.423,0,0,1-.046-.151,13.864,13.864,0,0,0,1.283-.8,9.225,9.225,0,0,0,1.536-1.412,18.527,18.527,0,0,0,1.3-1.771h-3.132c-.124,0-.184-.079-.184-.249v-.487c0-.151.06-.253.184-.253Zm3.914-6.24a17.769,17.769,0,0,1-1.927.5c-.892.17-1.706.3-2.424.363-.892.087-1.706.124-2.442.124-.189,0-.3-.065-.331-.207l-.469-.639a.168.168,0,0,1,.189-.189h.911a19.87,19.87,0,0,0,2.437-.124,10.11,10.11,0,0,0,1.849-.281,6.7,6.7,0,0,0,1.8-.6c.064,0,.11-.023.156-.023a.5.5,0,0,1,.267.06c.593.533.892.847.892.97a.166.166,0,0,1-.189.189l-.423-.189a1.444,1.444,0,0,0-.3.049Zm-5.574,2.971a9.325,9.325,0,0,1,.359,1.26,3.179,3.179,0,0,1-1.03.3,8.316,8.316,0,0,0-.248-1.03,10.75,10.75,0,0,0-.547-1.4c0-.083.281-.272.86-.547a14.2,14.2,0,0,1,.606,1.418Zm2.644-.212a12.1,12.1,0,0,1,.345,1.227,3.858,3.858,0,0,1-1.03.3,5.714,5.714,0,0,0-.239-1,9.54,9.54,0,0,0-.5-1.375c0-.065.281-.253.86-.547.22.5.408.975.565,1.4Zm3.835-.911a.277.277,0,0,1,.124.189c0,.074-.06.129-.189.129-.189.023-.294.069-.326.17a14.453,14.453,0,0,1-1.38,2.2c-.152,0-.23-.009-.248-.059l-.736-.424a6.192,6.192,0,0,0,.952-1.269,11.048,11.048,0,0,0,.63-1.371.224.224,0,0,1,.2-.11Z" transform="translate(-103.856 -1658.255)" fill="#3d93ab"/>
      <path id="Path_37878" data-name="Path 37878" d="M121.327,1659.622c.124,0,.184.106.184.294v.63c0,.208-.06.294-.184.294h-13.7c-.124,0-.189-.087-.189-.294v-.63c0-.189.064-.294.189-.294Z" transform="translate(-90.947 -1653.336)" fill="#3d93ab"/>
      <path id="Path_37879" data-name="Path 37879" d="M116.2,1658.64c.161,0,.239.065.239.189v3.477h.607c.156,0,.253.065.253.189v2.075c0,.129-.1.193-.253.193h-.483c-.175,0-.253-.064-.253-.193v-1.347h-4.4v1.347c0,.129-.092.193-.248.193h-.487q-.234,0-.234-.193v-2.075c0-.124.078-.189.234-.189h.547v-3.477c0-.124.078-.189.253-.189Zm-.248,5.616c.156,0,.248.064.248.189v6.36a1.486,1.486,0,0,1-.184.906c-.032.2-.5.4-1.412.621-.184,0-.28-.064-.28-.189-.032-.179-.11-.45-.2-.791.722-.055,1.081-.244,1.1-.547v-1.582h-2.2v2.92c0,.125-.083.189-.239.189H112.3c-.175,0-.248-.064-.248-.189v-7.7c0-.125.074-.189.248-.189Zm-2.267-1.951v-1.7a.166.166,0,0,1,.189-.189h1.6v-.846h-2.755v2.74Zm1.531,3.91v-1.035h-2.2v1.035Zm0,2.083v-1.159h-2.2v1.159Zm.253-5.993v-1.03H114.6v1.03Zm4.585,8.2c.138.193.262.4.391.6h1.89a4.143,4.143,0,0,0,.552-.6,3.234,3.234,0,0,0,.515-.865c.032-.083.078-.124.124-.124l.8.313c.124.064.189.106.189.17s-.051.092-.143.106a.227.227,0,0,0-.239.129,4.372,4.372,0,0,1-.561.869h1.49c.074,0,.124.065.124.189v.488c0,.161-.051.244-.124.244H117.6c-.078,0-.11-.082-.11-.244v-.488c0-.124.032-.189.11-.189h1.89a.968.968,0,0,1-.124-.2,6.1,6.1,0,0,0-.846-1.012c0-.064.221-.206.671-.441a10.62,10.62,0,0,1,.861,1.06Zm-.129-11.13v-.988c0-.082.064-.129.189-.129.593,0,.911.046.911.129,0,.124-.032.207-.1.207s-.092.106-.092.294v.487h1.049v-.988c0-.082.06-.129.189-.129.593,0,.906.046.906.129,0,.124-.032.207-.092.207s-.1.106-.1.294v.487h1.725c.152,0,.23.06.23.184v4.079c0,.129-.078.189-.23.189H118.2c-.156,0-.235-.059-.235-.189v-4.079c0-.124.078-.184.235-.184Zm4.709,5.253c.064,0,.11.064.11.17v.506c0,.161-.046.229-.11.229h-6.475c-.092,0-.124-.068-.124-.229v-.506c0-.106.032-.17.124-.17Zm-.184,1.582c.156,0,.235.063.235.189v2.566q0,.193-.235.193h-6.057q-.235,0-.235-.193V1666.4c0-.125.078-.189.235-.189Zm-4.525-5v-.989h-.984v.989Zm0,.8h-.984v.971h.984Zm3.725,5.064h-4.461v1.223h4.461Zm-2.814-5.864h1.049v-.989h-1.049Zm1.049.8h-1.049v.971h1.049Zm.906-.8h.984v-.989h-.984Zm.984.8h-.984v.971h.984Z" transform="translate(-78.355 -1658.222)" fill="#3d93ab"/>
      <path id="Path_37880" data-name="Path 37880" d="M117.11,1663.962h4.019c.124,0,.189.078.189.229-.032,1.711-.1,2.929-.189,3.683a7.758,7.758,0,0,1-.469,1.987c-.189.464-.7.708-1.55.708-.625,0-.938-.124-.957-.377a3.145,3.145,0,0,0-.373-.97v-.124a3.462,3.462,0,0,0,1.329.294.706.706,0,0,0,.736-.464,5,5,0,0,0,.294-1.476,22.888,22.888,0,0,0,.175-2.52h-3.2a19.707,19.707,0,0,1-.3,3.789,9.028,9.028,0,0,1-.736,2.336,5.463,5.463,0,0,1-.814,1.339.356.356,0,0,1-.156-.027,2.314,2.314,0,0,0-.561-.423.353.353,0,0,1-.064-.226,6.422,6.422,0,0,0,.828-1.591,12.258,12.258,0,0,0,.515-2.226,22.289,22.289,0,0,0,.175-2.971v-3.72a.223.223,0,0,1,.248-.253h6.245c-.046-.717-.078-1.5-.078-2.377,0-.129.032-.189.124-.189l1.021.1c.17,0,.262.065.262.151,0,.129-.046.208-.124.235s-.11.161-.11.377c0,.63,0,1.187.018,1.706h4.866c.124,0,.184.092.184.253v.483c0,.17-.06.253-.184.253h-4.852c.018.575.046,1.094.078,1.526a16.128,16.128,0,0,0,.547,3.146c.124.538.253.988.391,1.4a10.774,10.774,0,0,0,.97-1.785,11.119,11.119,0,0,0,.846-2.4.23.23,0,0,1,.248-.189c.9.318,1.347.52,1.347.612s-.064.161-.189.189a.453.453,0,0,0-.423.253,16.616,16.616,0,0,1-1.343,3.008,15.268,15.268,0,0,1-.984,1.458,5.558,5.558,0,0,0,.966,1.605,1.245,1.245,0,0,0,.625.289c.129,0,.3-.179.5-.547a8.4,8.4,0,0,0,.722-1.79c.046,0,.11.065.17.153a1.955,1.955,0,0,0,.441.5.384.384,0,0,1,.184.336,15.554,15.554,0,0,1-.86,1.858c-.391.629-.75.952-1.1.952a1.1,1.1,0,0,1-.487-.124,2.893,2.893,0,0,1-.906-.745,7.2,7.2,0,0,1-1.049-1.573,14.468,14.468,0,0,1-2.814,2.189,1.055,1.055,0,0,1-.317.064.323.323,0,0,1-.281-.17,2.5,2.5,0,0,0-.373-.424c-.1-.064-.143-.124-.143-.2,0-.055.046-.1.156-.124a5.033,5.033,0,0,0,1.269-.676,9.154,9.154,0,0,0,1.922-1.614,1.245,1.245,0,0,0,.11-.11,17.154,17.154,0,0,1-.593-1.849,30.7,30.7,0,0,1-.579-3.362c-.064-.529-.11-1.141-.143-1.858h-5.42Zm9.575-4.944c.451.3.846.562,1.173.782,0,.027-.032.064-.078.128l-.469.671a16.67,16.67,0,0,0-1.614-1.021,12,12,0,0,0-1.141-.515,3.335,3.335,0,0,1,.488-.69c.046-.063.092-.11.124-.11.606.291,1.107.537,1.516.754Z" transform="translate(-65.626 -1658.222)" fill="#3d93ab"/>
      <path id="Path_37881" data-name="Path 37881" d="M124.605,1667.945v-1.389c0-.129.078-.193.253-.193.763,0,1.154.065,1.154.193s-.06.211-.152.211c-.11.037-.156.147-.156.336v.842h4.475c.11,0,.17.092.17.253v.487c0,.17-.06.248-.17.248H125.7v2.023h6.116c.124,0,.189.07.189.239v.488c0,.161-.064.244-.189.244H118.255c-.124,0-.189-.082-.189-.244v-.488c0-.17.064-.239.189-.239h6.351v-2.023H119.9c-.124,0-.17-.078-.17-.248v-.487c0-.161.046-.253.17-.253Zm1.1-9.216c.078,0,.124.065.124.175v.5c0,.151-.046.234-.124.234h-1.334v2.631h1.642c.129,0,.189.092.189.244V1663c0,.18-.06.253-.189.253h-1.642v3.178c0,.129-.092.189-.248.189h-.612c-.17,0-.248-.06-.248-.189v-3.178h-2.115a.5.5,0,0,0-.014.115,7.355,7.355,0,0,1-.644,2.175,6.307,6.307,0,0,1-.782,1.186h-.11a7.394,7.394,0,0,1-.97-.317c-.06-.023-.078-.07-.078-.17a4.594,4.594,0,0,0,1.49-2.677,2.615,2.615,0,0,1,.06-.312h-1.78c-.129,0-.189-.073-.189-.253v-.483c0-.151.06-.244.189-.244h1.89c.032-.583.064-1.255.064-2.023,0-.142-.018-.341-.018-.607h-1.518c-.092,0-.124-.082-.124-.234v-.5c0-.11.032-.175.124-.175Zm-2.442.911h-1.941a.35.35,0,0,0-.018.125c0,1.016-.028,1.839-.06,2.506h2.019Zm5.445-.3c0,.138-.064.216-.156.216-.11.037-.156.143-.156.331v4.773c0,.125-.078.17-.235.17h-.612c-.17,0-.248-.046-.248-.17v-5.32c0-.124.078-.189.248-.189.768,0,1.159.066,1.159.19Zm3-.879c.11.06.175.106.175.143,0,.092-.064.143-.189.143-.207.073-.3.308-.3.717v6.415c0,.736-.561,1.095-1.66,1.095h-1.1c-.092,0-.124-.079-.124-.267a2.989,2.989,0,0,0-.3-.722.1.1,0,0,1,.11-.106,7.42,7.42,0,0,0,1.283.106c.437,0,.676-.17.676-.547V1659.4a3.7,3.7,0,0,0-.051-.69.851.851,0,0,1-.06-.3c0-.078.092-.124.3-.124Z" transform="translate(-52.717 -1658.122)" fill="#3d93ab"/>
      <path id="Path_37882" data-name="Path 37882" d="M125.188,1663.424c-.327-.442-.782-1.007-1.375-1.66a18.587,18.587,0,0,0-1.628-1.582l.717-.828a22.713,22.713,0,0,1,3.192,3.269Z" transform="translate(-37.894 -1654.3)" fill="#3d93ab"/>
      <path id="Path_37883" data-name="Path 37883" d="M137.97,1658.387c.129,0,.189.065.189.175v.607c0,.17-.06.253-.189.253h-5.79c.441.313.658.483.658.547,0,.129-.092.189-.248.189-.207,0-.377.153-.533.442-.437.575-1.03,1.339-1.817,2.281a19.374,19.374,0,0,1-2.75,2.658,18.3,18.3,0,0,1-2.41,1.582.348.348,0,0,1-.331-.151c-.189-.189-.345-.377-.488-.547-.124-.037-.17-.083-.17-.147a.162.162,0,0,1,.124-.171,15.011,15.011,0,0,0,2.989-1.784,15.306,15.306,0,0,0,2.382-2.3,18.574,18.574,0,0,0,1.78-2.6H124.4c-.124,0-.189-.083-.189-.253v-.607a.164.164,0,0,1,.189-.175Zm-5.928,4.586c0,.143-.064.22-.156.22-.1.027-.143.139-.143.327v8.305c0,.129-.11.189-.313.189h-.612c-.17,0-.248-.06-.248-.189v-8.853c0-.129.078-.193.248-.193.815,0,1.224.064,1.224.193Zm4.052.565c.828.823,1.536,1.578,2.129,2.236,0,.036-.032.078-.092.142-.349.488-.52.718-.52.718a29.109,29.109,0,0,0-2.847-2.888,14.573,14.573,0,0,0-2.051-1.513,3.182,3.182,0,0,1,.529-.745c.051-.065.1-.106.143-.106a26.759,26.759,0,0,1,2.709,2.155Z" transform="translate(-31.034 -1657.78)" fill="#3d93ab"/>
      <path id="Path_37884" data-name="Path 37884" d="M133.669,1661.1v-2.631c0-.124.078-.189.248-.189.814,0,1.219.065,1.219.189,0,.143-.06.216-.152.234-.11.019-.156.125-.156.313v2.083h5.256c.2,0,.313.065.313.189v7.087c0,.129-.11.189-.313.189h-.612c-.156,0-.235-.06-.235-.189v-1.159h-4.41v5.068c0,.125-.11.189-.3.189h-.612c-.17,0-.248-.064-.248-.189v-5.068H128.96v1.1c0,.125-.11.189-.3.189h-.612c-.17,0-.248-.064-.248-.189v-6.962a.223.223,0,0,1,.248-.253Zm0,5v-3.9H128.96v3.9Zm1.159,0h4.41v-3.9h-4.41Z" transform="translate(-17.683 -1658.172)" fill="#3d93ab"/>
      <path id="Path_37885" data-name="Path 37885" d="M132.166,1671.007h6.774c.078,0,.129.051.129.179v.483c0,.125-.051.189-.129.189h-6.774v.3c0,.124-.092.189-.253.189h-.483c-.175,0-.253-.065-.253-.189v-13.5c0-.082.078-.124.253-.124.644,0,.97.042.97.124,0,.124-.046.207-.11.207-.1.009-.124.106-.124.276v5.321h6.963c.078,0,.124.06.124.189v.358c0,.17-.046.253-.124.253h-6.963Zm2.943-12.242.046.125c0,.078-.064.1-.175.1-.17,0-.281.046-.313.143-.377.571-.736,1.053-1.062,1.486.189.239.359.474.533.708.313-.469.561-.887.782-1.265a4.113,4.113,0,0,1,.782.736c0,.027-.032.046-.092.046-.143,0-.221.023-.253.078-.469.745-.938,1.44-1.407,2.065.281-.013.579-.032.906-.051-.064-.216-.124-.45-.189-.685,0-.05.175-.114.547-.179.032,0,.046.018.064.055a16.048,16.048,0,0,1,.547,1.78c0,.059-.2.124-.612.17-.092,0-.124-.009-.124-.064-.032-.179-.078-.386-.11-.575l-2.019.4a1.278,1.278,0,0,1-.373.294,4.251,4.251,0,0,1-.189-1.03s.189-.027.579-.065c.327-.464.612-.887.86-1.246-.345-.363-.612-.629-.768-.8a6.643,6.643,0,0,0-.846-.64,1.845,1.845,0,0,1,.437-.593c.032-.056.064-.079.11-.079.11.125.221.23.35.359.184-.253.34-.487.5-.718.281-.469.488-.818.625-1.053Zm-.377,7.023a.509.509,0,0,0,.06.142c0,.065-.06.092-.17.092-.17,0-.281.051-.313.143-.281.441-.547.818-.782,1.14.2.189.4.414.612.63.327-.469.607-.893.828-1.27.391.345.644.547.736.639a4.371,4.371,0,0,1,.327-.386c.032-.046.064-.082.11-.082l.189.189a7.115,7.115,0,0,0,.423-.671c.248-.442.418-.755.547-.971l.86.469a.777.777,0,0,0,.06.143c0,.059-.06.087-.184.087a.329.329,0,0,0-.313.147c-.313.5-.612.944-.86,1.348.17.2.34.4.5.625.1-.142.189-.266.271-.4.34-.51.639-.989.888-1.393a4.392,4.392,0,0,1,.8.74c0,.042-.051.06-.11.06-.156,0-.235.028-.267.083-.534.782-1.062,1.517-1.564,2.175.326-.018.69-.037,1.1-.046-.078-.272-.156-.538-.253-.8,0-.064.175-.124.552-.188.028,0,.046.027.06.064a13.791,13.791,0,0,1,.676,1.83c0,.064-.221.129-.625.188-.1,0-.143-.018-.143-.082-.032-.17-.078-.35-.124-.529l-2.175.423a2.061,2.061,0,0,1-.359.3,4.477,4.477,0,0,1-.189-1.035,4.429,4.429,0,0,1,.515-.065c.235-.312.437-.611.625-.86-.281-.28-.5-.505-.644-.63a6.257,6.257,0,0,0-.8-.529l.018-.065a.474.474,0,0,0-.207.065c-.533.754-1.03,1.425-1.531,2.028.281-.01.607-.028.952-.056-.046-.161-.092-.331-.156-.5,0-.046.175-.106.547-.189.032,0,.046.028.064.064a14.666,14.666,0,0,1,.547,1.716c0,.06-.2.125-.612.179-.092,0-.124-.018-.124-.083-.032-.211-.078-.455-.138-.69l-2.115.479a1.636,1.636,0,0,1-.377.294,5.835,5.835,0,0,1-.17-1.035,2.321,2.321,0,0,1,.579-.1c.359-.469.671-.887.924-1.232-.313-.267-.566-.455-.722-.584a7.876,7.876,0,0,0-.846-.464,2.031,2.031,0,0,1,.437-.612.148.148,0,0,1,.11-.064,1.047,1.047,0,0,0,.189.147c.143-.193.267-.4.391-.6.239-.387.409-.685.52-.892Zm3.486-6.963.051.129c0,.078-.064.106-.17.106-.161,0-.271.046-.317.143-.281.529-.547,1-.782,1.421.221.239.455.483.672.736.032-.065.078-.106.11-.17.331-.529.612-1,.865-1.439a5.38,5.38,0,0,1,.8.74c0,.041-.046.059-.11.059-.143,0-.235.027-.262.074-.52.851-1.021,1.6-1.5,2.272.313-.018.653-.046,1.03-.082-.046-.216-.092-.446-.138-.681,0-.055.17-.12.547-.17.032,0,.046.028.064.051.12.4.262,1.026.437,1.9,0,.059-.221.124-.625.17-.064,0-.083-.009-.083-.064-.028-.216-.078-.451-.11-.7l-2.125.464c-.221.208-.331.3-.363.3a4.881,4.881,0,0,1-.184-1.035,2.672,2.672,0,0,1,.579-.068c.281-.414.547-.782.763-1.136-.372-.341-.639-.607-.828-.764a10.392,10.392,0,0,0-.938-.588,1.935,1.935,0,0,1,.437-.612.148.148,0,0,1,.11-.064,2.359,2.359,0,0,0,.331.276c.138-.248.262-.483.391-.736.216-.428.391-.781.5-1.011Zm6.622.34a5.961,5.961,0,0,1-1.536.667,8.086,8.086,0,0,1-1.908.234v2.686H145c.124,0,.189.078.189.239v.488c0,.17-.064.244-.189.244h-.8v8.494c0,.129-.074.189-.235.189h-.607a.164.164,0,0,1-.189-.189v-8.494H141.4q-.021,2.676-.189,4.23a19.8,19.8,0,0,1-.419,2.746,10.771,10.771,0,0,1-.5,1.581.283.283,0,0,1-.143-.027,2.639,2.639,0,0,0-.515-.34.221.221,0,0,1-.078-.179,12.556,12.556,0,0,0,.469-1.941c.124-.846.235-1.752.3-2.7q.09-1.483.092-3.61V1659.4c0-.124.078-.189.248-.189h.129a9,9,0,0,0,2.065-.189,4.318,4.318,0,0,0,1.628-.653.308.308,0,0,1,.156-.083c.046,0,.092.037.156.083.451.377.69.607.69.718,0,.17-.051.252-.11.252l-.377-.193a.569.569,0,0,0-.162.024Z" transform="translate(-5.533 -1658.172)" fill="#3d93ab"/>
      <path id="Path_37886" data-name="Path 37886" d="M147.452,1658.506c.11,0,.17.06.17.184v.612c0,.156-.06.234-.17.234h-5.137V1669.7h6.167c.129,0,.189.056.189.171v.611c0,.152-.06.244-.189.244H134.916c-.124,0-.189-.092-.189-.244v-.611c0-.115.064-.171.189-.171h6.227v-10.159h-5.256c-.124,0-.175-.078-.175-.234v-.612c0-.124.051-.184.175-.184Z" transform="translate(7.243 -1657.347)" fill="#3d93ab"/>
      <path id="Path_37887" data-name="Path 37887" d="M141.7,1665.719c.248.565.391.878.391.906a.326.326,0,0,1-.1.234q-.793,1.9-1.5,3.224c-.248.5-.566,1.049-.938,1.642a1.423,1.423,0,0,0-.1.575c0,.129-.046.189-.124.189a4.412,4.412,0,0,1-1-.98.233.233,0,0,1-.106-.179.311.311,0,0,1,.078-.234,7.179,7.179,0,0,0,.952-1.182,21.791,21.791,0,0,0,1.283-2.23c.359-.718.676-1.371.938-1.964.032-.1.078-.148.11-.148S141.663,1665.618,141.7,1665.719Zm-1.191-2.787c.5.313.924.574,1.269.809,0,.037-.032.065-.078.124-.313.46-.469.676-.469.676a14.846,14.846,0,0,0-1.706-1.044,12.224,12.224,0,0,0-1.237-.547,2.869,2.869,0,0,1,.488-.69c.046-.064.092-.1.124-.1.652.289,1.181.54,1.6.772Zm.736-3.477c.469.317.86.612,1.2.864a.372.372,0,0,1-.078.143c-.313.432-.469.658-.469.658a15.22,15.22,0,0,0-1.642-1.132,10.821,10.821,0,0,0-1.173-.575,2.718,2.718,0,0,1,.483-.694c.046-.064.1-.106.124-.106.63.313,1.14.594,1.55.842Zm5.588,6.479c.814.41,1.237.662,1.237.754s-.064.106-.175.106a.407.407,0,0,0-.359.188c-.566.847-1.343,2.037-2.345,3.56,1.472-.129,3.251-.308,5.321-.552a15.123,15.123,0,0,0-1.393-2.332c0-.065.294-.253.906-.552a23.982,23.982,0,0,1,1.582,2.695,13.969,13.969,0,0,1,.984,2.372,3.474,3.474,0,0,1-1.094.377,8.68,8.68,0,0,0-.58-1.688q-5.7.917-7.418,1.132a.24.24,0,0,0-.248.179c-.046.161-.124.253-.253.253-.156,0-.326-.575-.547-1.716.437,0,.957-.036,1.536-.082.828-1.366,1.357-2.272,1.6-2.7a15.443,15.443,0,0,0,.828-1.913.21.21,0,0,1,.2-.124.686.686,0,0,1,.212.044Zm.138-4.944v-2.566c0-.11.083-.17.253-.17.768,0,1.159.06,1.159.17,0,.142-.064.216-.156.23-.11.018-.156.128-.156.317v2.018h3.8c.11,0,.175.092.175.253v.483c0,.17-.064.253-.175.253h-3.8v2.814H152.3c.124,0,.184.078.184.23v.488c0,.17-.06.248-.184.248h-9.423c-.124,0-.17-.078-.17-.248v-.488c0-.152.046-.23.17-.23h4.1v-2.814h-3.536c-.12,0-.184-.083-.184-.253v-.483c0-.161.064-.253.184-.253Z" transform="translate(19.824 -1658.255)" fill="#3d93ab"/>
      <path id="Path_37888" data-name="Path 37888" d="M144.121,1662.4a3.178,3.178,0,0,1-1,1.095l-.4-.455a2.426,2.426,0,0,0,1.049-1.78H142.6v-1.877h1.881v1.716a2.747,2.747,0,0,1-.36,1.3Z" transform="translate(35.587 -1654.199)" fill="#3d93ab"/>
      <path id="Path_37889" data-name="Path 37889" d="M109.55,1663.585c0,.147-.06.216-.156.234s-.156.129-.156.318v13.327c0,.124-.078.189-.235.189h-.612c-.17,0-.248-.065-.248-.189v-5.8H106.39a.5.5,0,0,0-.014.129,26.012,26.012,0,0,1-.207,2.631,9.3,9.3,0,0,1-.533,1.885,3.624,3.624,0,0,1-.86,1.283c-.124,0-.189-.027-.221-.069a3.012,3.012,0,0,0-.547-.4c-.092-.092-.138-.156-.138-.207,0-.073.014-.124.078-.151a3.771,3.771,0,0,0,.7-1.081,4.948,4.948,0,0,0,.437-1.329,13.791,13.791,0,0,0,.267-2.7h-1.127c-.124,0-.189-.078-.189-.248v-.487c0-.152.064-.253.189-.253h3.914v-1.9H105.7v.8c0,.124-.092.189-.248.189h-.612c-.175,0-.253-.065-.253-.189V1664.2c0-.106.078-.17.253-.17.768,0,1.159.065,1.159.17,0,.143-.046.216-.143.235s-.156.124-.156.313v3.063h2.442v-4.221c0-.125.078-.189.248-.189C109.159,1663.4,109.55,1663.46,109.55,1663.585Zm5.417.17c.092.082.138.147.138.207,0,.129-.106.175-.3.175a.492.492,0,0,0-.373.124c-.11.143-.221.267-.313.377h3.256a.362.362,0,0,1,.262.087,1.878,1.878,0,0,1,.345.524,10.481,10.481,0,0,1-.906,1.715,6.6,6.6,0,0,1-1.062,1.265,7.284,7.284,0,0,1-1.366.97,10.171,10.171,0,0,1-2.019.878,11.024,11.024,0,0,1-1.922.488.322.322,0,0,1-.313-.152c-.143-.179-.267-.358-.391-.547a.254.254,0,0,1-.092-.166c0-.023.028-.06.106-.087a11.554,11.554,0,0,0,1.439-.294,7.124,7.124,0,0,0,.832-.235,3.127,3.127,0,0,1-.189-.308,6.564,6.564,0,0,0-.846-.905c0-.065.267-.235.8-.493a9.97,9.97,0,0,1,.865.934c.106.142.2.285.294.4.156-.073.317-.157.455-.234.221-.111.423-.235.625-.359a5.052,5.052,0,0,0-.313-.4,6.07,6.07,0,0,0-1-.952c0-.064.248-.225.777-.488.409.359.754.685,1.021.971.092.11.17.216.262.317.032-.037.078-.064.129-.12a4.976,4.976,0,0,0,.952-1.2,5.2,5.2,0,0,0,.363-.64H113.13a3.9,3.9,0,0,1-.437.341,10.018,10.018,0,0,1-.97.658,7.83,7.83,0,0,1-.763.414.261.261,0,0,1-.239-.147,2.472,2.472,0,0,0-.469-.547c-.11-.065-.156-.124-.156-.17l.046-.046a7.173,7.173,0,0,0,1.113-.5,6.915,6.915,0,0,0,1.223-.883,3.654,3.654,0,0,0,.671-.653,4.062,4.062,0,0,0,.529-.754.191.191,0,0,1,.143-.092Zm.515,7.422v-.377a3.41,3.41,0,0,0-.064-.685.751.751,0,0,1-.06-.285c0-.082.092-.129.294-.129l1.237.166c.11.059.17.106.17.133,0,.115-.06.161-.17.161-.221.073-.313.313-.313.7v.317h1.472c.124,0,.189.078.189.234v.483c0,.17-.064.253-.189.253h-1.472v4.4c0,.726-.547,1.1-1.642,1.1h-1.113c-.092,0-.124-.092-.124-.262a2.345,2.345,0,0,0-.3-.717c0-.1.032-.124.129-.124a9.045,9.045,0,0,0,1.278.124c.442,0,.676-.189.676-.547v-3.978h-5.321c-.129,0-.189-.083-.189-.253v-.483c0-.156.06-.234.189-.234Zm-3.711,1.849a12.954,12.954,0,0,1,1.849,1.669.349.349,0,0,1,.078.207.246.246,0,0,1-.046.157l-.331.483a.753.753,0,0,1-.281.1c-.06,0-.11-.055-.17-.165a15.614,15.614,0,0,0-1.706-1.481c-.1-.055-.143-.115-.143-.189a.547.547,0,0,1,.046-.206l.377-.593a.382.382,0,0,1,.189-.065.266.266,0,0,1,.138.083Z" transform="translate(-103.806 -1640.361)" fill="#3d93ab"/>
      <path id="Path_37890" data-name="Path 37890" d="M111.01,1663.925c0,.092-.032.125-.1.125-.138.027-.235.073-.267.17-.06.157-.124.281-.17.378h3.96c.078,0,.124.064.124.175v.483c0,.17-.046.253-.124.253H112.29c.281.386.547.8.8,1.219,0,.138-.032.216-.1.216a1.629,1.629,0,0,1-.768.336c-.345-.694-.658-1.288-.952-1.771h-1.283a8.037,8.037,0,0,1-.487.671,13.835,13.835,0,0,1-1.062,1.159.369.369,0,0,1-.285-.142c-.124-.106-.262-.217-.4-.341a.226.226,0,0,1-.11-.189c.253-.253.515-.538.8-.818a6.371,6.371,0,0,0,.892-1.265,6.6,6.6,0,0,0,.515-1.224c0-.063.032-.106.064-.106a4.086,4.086,0,0,1,1.1.671Zm-.547,5.869v-.929a3.349,3.349,0,0,0-.064-.681.765.765,0,0,1-.064-.3c0-.06.1-.115.313-.115l1.223.161c.124.065.189.11.189.143,0,.092-.064.138-.189.138-.221.1-.313.331-.313.717v.865h1.6c.124,0,.189.078.189.23v.487c0,.17-.064.248-.189.248h-1.6v1.711c.4-.156.814-.336,1.2-.506.032-.028.046-.046.078-.046.078,0,.124.064.124.189a2.978,2.978,0,0,1-.06.8c-.455.2-.911.386-1.347.566v3.035c0,.732-.547,1.109-1.642,1.109H109.3c-.1,0-.143-.092-.143-.281a2.13,2.13,0,0,0-.294-.709c0-.092.028-.12.124-.12a3.4,3.4,0,0,0,.8.12c.442,0,.676-.179.676-.538V1673.9c-.455.17-.906.322-1.347.488-.156.275-.267.418-.359.418s-.281-.41-.566-1.219a17.655,17.655,0,0,0,2.194-.676c.032,0,.046-.019.078-.037v-2.111h-1.835c-.124,0-.184-.078-.184-.248v-.487c0-.152.06-.23.184-.23Zm4.268,6.535h3.008v-5.018h-.989v4.1c0,.129-.078.189-.23.189h-.5c-.156,0-.235-.06-.235-.189v-4.843a.206.206,0,0,1,.235-.229h1.72v-.989c0-.074.06-.129.189-.129.717,0,1.1.065,1.1.189s-.046.208-.124.208c-.1.018-.129.11-.129.28v.442h1.66c.156,0,.234.1.234.294v4.383a.416.416,0,0,1-.326.4,2.949,2.949,0,0,1-.828.179.157.157,0,0,1-.175-.179,2.823,2.823,0,0,0-.313-.869.042.042,0,0,1,.046-.037,1.36,1.36,0,0,0,.52-.046.165.165,0,0,0,.106-.151v-3.008h-.924v5.018h2.571c.078,0,.124.055.124.179v.5c0,.152-.046.244-.124.244h-6.609v.418c0,.129-.078.189-.23.189h-.612a.166.166,0,0,1-.189-.189v-9.529a.165.165,0,0,1,.189-.179h6.9c.078,0,.129.065.129.179v.488c0,.179-.051.248-.129.248h-6.057Zm2.883-12.292c0,.087-.032.142-.1.142-.138.027-.235.069-.267.17s-.092.206-.124.294h4.212c.078,0,.124.065.124.189v.487c0,.17-.046.253-.124.253H119.27c.285.437.533.869.786,1.348,0,.133-.032.211-.1.211a1.514,1.514,0,0,1-.75.336c-.345-.754-.658-1.384-.938-1.895H116.64a5.358,5.358,0,0,1-.409.575,13.031,13.031,0,0,1-.938,1.067.354.354,0,0,1-.281-.125c-.143-.128-.285-.234-.423-.363a.236.236,0,0,1-.092-.17c.216-.239.451-.483.7-.772a7.168,7.168,0,0,0,1.251-2.3c0-.079.032-.125.064-.125a4.6,4.6,0,0,1,1.1.677Z" transform="translate(-90.224 -1640.26)" fill="#3d93ab"/>
      <path id="Path_37891" data-name="Path 37891" d="M117.5,1668.02c.2,0,.313.082.313.244v8.416a.947.947,0,0,1-.63.828,6.451,6.451,0,0,1-1.518.294c-.124,0-.184-.065-.2-.189a2.825,2.825,0,0,0-.345-.98c0-.037.032-.055.129-.055a3.334,3.334,0,0,0,1.237-.125.416.416,0,0,0,.216-.386v-1.817H113.74c-.046.216-.1.423-.124.593a6.707,6.707,0,0,1-.7,1.913,4.735,4.735,0,0,1-.8,1.109.352.352,0,0,1-.156-.028,3.028,3.028,0,0,0-.561-.441.3.3,0,0,1-.064-.208,5.368,5.368,0,0,0,.8-1.282,8.75,8.75,0,0,0,.5-1.78,16.346,16.346,0,0,0,.156-2.382v-3.481a.22.22,0,0,1,.253-.244Zm-1.835-4.1c0,.092-.046.148-.11.148a.341.341,0,0,0-.308.151c-.143.267-.281.52-.423.736h3.785c.064,0,.11.064.11.189v.483c0,.175-.046.253-.11.253h-2.2c.34.4.653.847.97,1.288,0,.151-.032.23-.1.239a1.565,1.565,0,0,1-.814.368,20.728,20.728,0,0,0-1.269-1.9H114.18c-.156.17-.294.322-.423.45a15.672,15.672,0,0,1-1.389,1.255.419.419,0,0,1-.3-.142c-.156-.106-.3-.217-.455-.341a.22.22,0,0,1-.106-.189c.34-.29.685-.584,1.03-.9a7.67,7.67,0,0,0,1.173-1.393,6.462,6.462,0,0,0,.676-1.311c0-.082.028-.128.06-.128a4.836,4.836,0,0,1,1.216.741Zm1.035,9.363v-1.664h-2.8v.125c0,.6-.014,1.1-.046,1.54Zm0-2.635v-1.66h-2.8v1.66Zm5.321-6.728c0,.092-.046.148-.11.148a.344.344,0,0,0-.313.151c-.106.248-.216.464-.327.671h4.3c.078,0,.129.065.129.189v.487c0,.17-.051.253-.129.253h-2.534a15.011,15.011,0,0,1,1.062,1.348c0,.151-.028.23-.092.239a1.551,1.551,0,0,1-.828.368,19.425,19.425,0,0,0-1.361-1.954h-1.081a4.932,4.932,0,0,1-.313.4,13.9,13.9,0,0,1-1.1,1.187.423.423,0,0,1-.3-.134c-.138-.1-.28-.234-.437-.358a.21.21,0,0,1-.11-.17c.267-.271.533-.552.8-.864a7.593,7.593,0,0,0,.92-1.32,7.5,7.5,0,0,0,.533-1.246c0-.082.032-.128.064-.128a4.942,4.942,0,0,1,1.219.735Zm.156,3.587c.143.027.221.078.221.143a.239.239,0,0,1-.156.244.356.356,0,0,0-.281.368c0,.423-.018.8-.018,1.15h3.316c.129,0,.189.1.189.248-.028,2.194-.092,3.757-.189,4.7a10.205,10.205,0,0,1-.5,2.534c-.189.594-.717.906-1.577.906-.736,0-1.113-.124-1.127-.359a3.093,3.093,0,0,0-.455-.925v-.128a5.809,5.809,0,0,0,1.582.244.752.752,0,0,0,.768-.63,9.169,9.169,0,0,0,.327-1.936c.078-.741.143-1.959.189-3.666h-2.534a24.413,24.413,0,0,1-.207,2.773,9.8,9.8,0,0,1-.86,2.985,8.767,8.767,0,0,1-1.062,1.642h-.156c-.345-.11-.671-.216-.97-.322a.2.2,0,0,1-.064-.17,7.156,7.156,0,0,0,1.237-1.6,7,7,0,0,0,.768-2.213,18.2,18.2,0,0,0,.3-3.1H119.1c-.124,0-.189-.073-.189-.253v-.488c0-.151.064-.248.189-.248h1.83v-.658c0-.216-.032-.635-.064-1.228,0-.064.064-.12.189-.12Z" transform="translate(-76.959 -1640.51)" fill="#3d93ab"/>
      <path id="Path_37892" data-name="Path 37892" d="M124.743,1669.039a9,9,0,0,1-1.062,3.523,11.287,11.287,0,0,0,1.876,1.158l-.515.86a10.276,10.276,0,0,1-1.973-1.135,4.8,4.8,0,0,1-3.674,1.706,4.041,4.041,0,0,1-2.663-.818,2.893,2.893,0,0,1-1.067-2.41,2.977,2.977,0,0,1,.708-1.876,8.135,8.135,0,0,1,1.706-1.444,5.077,5.077,0,0,1-1.127-2.676,2.2,2.2,0,0,1,.782-1.816,2.923,2.923,0,0,1,1.909-.593,2.262,2.262,0,0,1,1.674.658,2.344,2.344,0,0,1,.671,1.706,2.418,2.418,0,0,1-.685,1.641,9.29,9.29,0,0,1-1.72,1.334,23,23,0,0,0,3.238,3.067,8.466,8.466,0,0,0,.828-2.883h-1.426v-1.049h3.5v1.049Zm-6.038.382a7.714,7.714,0,0,0-1.38,1.122,2.122,2.122,0,0,0-.561,1.379,1.969,1.969,0,0,0,.639,1.582,2.787,2.787,0,0,0,1.991.621,3.761,3.761,0,0,0,2.814-1.329,22.169,22.169,0,0,1-3.508-3.375Zm.846-4.888c-1,0-1.5.473-1.5,1.393a3.965,3.965,0,0,0,.906,2.12,9.332,9.332,0,0,0,1.38-1.025,1.635,1.635,0,0,0,.579-1.14,1.2,1.2,0,0,0-1.365-1.349Z" transform="translate(-61.358 -1639.321)" fill="#3d93ab"/>
      <path id="Path_37893" data-name="Path 37893" d="M122.285,1663.714v-.359c0-.082.06-.128.189-.128.717,0,1.1.064,1.1.17,0,.128-.046.206-.124.225s-.1.046-.1.092h2.911c.078,0,.124.06.124.189v.359c0,.124-.046.189-.124.189h-2.939v.735h2.327c.161,0,.253.065.253.17v2.874c0,.125-.092.189-.253.189h-2.327v.676h3.063c.078,0,.129.06.129.17v.377c0,.125-.051.189-.129.189h-3.063v.906h1.467v-.611c0-.069.078-.125.253-.125.639,0,.97.056.97.125,0,.128-.051.206-.11.206-.092.019-.124.111-.124.281v.671c0,.129-.1.189-.253.189h-.32l.515.281a.613.613,0,0,0,.064.143c0,.082-.078.106-.221.106-.216,0-.345.055-.391.147-.28.248-.533.483-.782.69.4.253.8.483,1.2.736.294-.285.547-.538.763-.754.428-.424.786-.818,1.067-1.159a7.233,7.233,0,0,1,.984.911c0,.032-.046.041-.138.041a.583.583,0,0,0-.317.065,16.919,16.919,0,0,1-1.485,1.265c1.2-.046,2.538-.106,4.006-.17a8.877,8.877,0,0,0-1.095-.828,2.839,2.839,0,0,1,.442-.579.132.132,0,0,1,.106-.092,15.135,15.135,0,0,1,1.485,1.223c.441.465.832.906,1.145,1.284,0,.009-.032.046-.064.106l-.419.566c-.313-.377-.644-.736-.957-1.068l-4.663.424v2.658c0,.124-.1.189-.248.189h-.612c-.175,0-.248-.065-.248-.189V1674.9l-5.307.487a1.738,1.738,0,0,1-.437.369,5.046,5.046,0,0,1-.3-1.339,47.97,47.97,0,0,1,5.68-.414c-.625-.322-1.113-.557-1.426-.717a16.573,16.573,0,0,0-1.688-.594c0-.083.17-.317.547-.7a.154.154,0,0,1,.124-.1c.345.161.69.313,1.049.5a4.75,4.75,0,0,0,.455-.483c.156-.189.281-.331.372-.441h-3.72v.377c0,.129-.078.17-.235.17h-.487c-.17,0-.248-.042-.248-.17v-1.724c0-.069.078-.125.248-.125.644,0,.97.056.97.125,0,.128-.046.206-.124.206-.092.019-.124.111-.124.281v.124h1.6v-.906h-3.3c-.1,0-.129-.064-.129-.189v-.377c0-.11.032-.17.129-.17h3.3v-.676h-2.442c-.17,0-.248-.064-.248-.189v-2.874c0-.106.078-.17.248-.17h2.442v-.735h-3.3c-.1,0-.129-.065-.129-.189v-.359c0-.129.032-.189.129-.189Zm2.079,12.477c0,.051-.06.106-.17.106-.189,0-.3.009-.313.073a25.336,25.336,0,0,1-3.914,1.389.266.266,0,0,1-.248-.115,1.1,1.1,0,0,0-.331-.368.329.329,0,0,1-.092-.179c0-.064.046-.1.156-.1.7-.188,1.315-.377,1.849-.575a10.371,10.371,0,0,0,1.968-.97,1.21,1.21,0,0,1,.235-.06,4.046,4.046,0,0,1,.859.8Zm-2.079-9.722v-.671h-1.642v.671Zm0,.612h-1.642v.727h1.642Zm1.035-.612h1.531v-.671H123.32Zm1.531.612H123.32v.727h1.531Zm6.792.359a.363.363,0,0,1,.216.074c.175.225.267.359.267.423a7.641,7.641,0,0,1-.671,1.177,4.476,4.476,0,0,1-.768.878,1.946,1.946,0,0,1-.423.322,5.657,5.657,0,0,0,.814.331,8.592,8.592,0,0,0,1.66.4c.078.037.124.046.124.065a.164.164,0,0,1-.078.142,5.308,5.308,0,0,0-.5.515c-.06.1-.124.125-.156.125a1.452,1.452,0,0,1-.221-.046c-.327-.078-.685-.189-1.062-.312a7.5,7.5,0,0,1-1.283-.547,1.228,1.228,0,0,1-.235-.142,8.343,8.343,0,0,1-1.108.409,7.028,7.028,0,0,1-1.412.341c-.124,0-.2-.023-.248-.125-.1-.151-.207-.312-.3-.464a.257.257,0,0,1-.06-.147c0-.023.014-.041.078-.041.34-.065.7-.129,1.049-.217a6.243,6.243,0,0,0,1.187-.368,2.711,2.711,0,0,1-.717-.873,3.988,3.988,0,0,1-.533-1.067h-.515c-.1,0-.129-.065-.129-.179v-.488c0-.124.032-.189.129-.189Zm-.989-3.914c.161,0,.253.06.253.189v1.959a.118.118,0,0,0,.092.124.817.817,0,0,0,.391.065h.124a.38.38,0,0,0,.377-.175,2.327,2.327,0,0,0,.221-.754c0-.037.046-.06.143-.06a.555.555,0,0,1,.17.06,2.4,2.4,0,0,0,.483.156.211.211,0,0,1,.189.221,4.976,4.976,0,0,1-.423,1.232.81.81,0,0,1-.736.285h-1.03a2.092,2.092,0,0,1-.814-.115.214.214,0,0,1-.175-.244v-2.083h-1.453v.281a4.191,4.191,0,0,1-.17,1.2,1.918,1.918,0,0,1-.533.842,3.63,3.63,0,0,1-.7.492.33.33,0,0,1-.267-.087c-.124-.152-.253-.312-.377-.451a.254.254,0,0,1-.092-.189,2.151,2.151,0,0,0,1.016-.97,2.869,2.869,0,0,0,.138-.924v-.86c0-.128.083-.189.253-.189Zm0,12.486c.676.35,1.251.671,1.72.966a.96.96,0,0,1-.074.12c-.317.4-.469.621-.487.621a19,19,0,0,0-2.267-1.252,15,15,0,0,0-1.646-.652,2.721,2.721,0,0,1,.441-.63.137.137,0,0,1,.124-.092,21.734,21.734,0,0,1,2.19.918Zm-2.253-7.339a3.339,3.339,0,0,0,.69.86,1.487,1.487,0,0,0,.294.253,4.479,4.479,0,0,0,.63-.441,3.266,3.266,0,0,0,.7-.805,1.313,1.313,0,0,0,.138-.244H128.2a2.683,2.683,0,0,0,.2.376Z" transform="translate(-49.881 -1640.361)" fill="#3d93ab"/>
      <path id="Path_37894" data-name="Path 37894" d="M128.707,1668.02c.2,0,.313.082.313.244v8.416a.949.949,0,0,1-.625.828,6.55,6.55,0,0,1-1.518.294.185.185,0,0,1-.2-.189,2.929,2.929,0,0,0-.345-.98c0-.037.032-.055.124-.055a3.318,3.318,0,0,0,1.237-.125.416.416,0,0,0,.216-.386v-1.817H124.95c-.046.216-.092.423-.124.593a6.574,6.574,0,0,1-.7,1.913,4.6,4.6,0,0,1-.8,1.109.345.345,0,0,1-.152-.028,3.218,3.218,0,0,0-.566-.441.328.328,0,0,1-.064-.208,5.222,5.222,0,0,0,.8-1.282,9.049,9.049,0,0,0,.5-1.78,17.021,17.021,0,0,0,.156-2.382v-3.481a.216.216,0,0,1,.248-.244Zm-1.83-4.1c0,.092-.046.148-.11.148a.344.344,0,0,0-.313.151c-.143.267-.281.52-.423.736h3.789c.06,0,.106.064.106.189v.483c0,.175-.046.253-.106.253h-2.207c.345.4.658.847.97,1.288,0,.151-.032.23-.1.239a1.553,1.553,0,0,1-.809.368,21.707,21.707,0,0,0-1.269-1.9h-1.016c-.156.17-.3.322-.423.45a15.92,15.92,0,0,1-1.393,1.255.428.428,0,0,1-.3-.142c-.156-.106-.294-.217-.451-.341a.226.226,0,0,1-.11-.189c.345-.29.685-.584,1.035-.9a7.666,7.666,0,0,0,1.173-1.393,6.432,6.432,0,0,0,.671-1.311c0-.082.032-.128.064-.128a4.948,4.948,0,0,1,1.222.741Zm1.03,9.363v-1.664h-2.8v.125c0,.6-.018,1.1-.051,1.54Zm0-2.635v-1.66h-2.8v1.66Zm5.325-6.728c0,.092-.051.148-.11.148a.358.358,0,0,0-.317.151c-.106.248-.216.464-.327.671h4.3c.078,0,.124.065.124.189v.487c0,.17-.046.253-.124.253h-2.534a15.911,15.911,0,0,1,1.062,1.348c0,.151-.032.23-.092.239a1.549,1.549,0,0,1-.832.368,18.69,18.69,0,0,0-1.361-1.954H131.94c-.11.151-.216.294-.308.4a13.344,13.344,0,0,1-1.1,1.187.413.413,0,0,1-.294-.134c-.143-.1-.285-.234-.441-.358a.2.2,0,0,1-.106-.17c.262-.271.529-.552.8-.864a7.608,7.608,0,0,0,.924-1.32,7.471,7.471,0,0,0,.529-1.246c0-.082.032-.128.064-.128a4.929,4.929,0,0,1,1.224.735Zm.152,3.587c.143.027.221.078.221.143a.233.233,0,0,1-.156.244.356.356,0,0,0-.281.368c0,.423-.014.8-.014,1.15h3.316c.124,0,.189.1.189.248-.032,2.194-.1,3.757-.189,4.7a10.423,10.423,0,0,1-.5,2.534c-.189.594-.717.906-1.582.906-.736,0-1.113-.124-1.127-.359a2.885,2.885,0,0,0-.455-.925v-.128a5.834,5.834,0,0,0,1.582.244.749.749,0,0,0,.768-.63,8.865,8.865,0,0,0,.327-1.936c.083-.741.143-1.959.189-3.666h-2.534a25.77,25.77,0,0,1-.2,2.773,9.929,9.929,0,0,1-.86,2.985,8.562,8.562,0,0,1-1.067,1.642h-.156c-.345-.11-.671-.216-.97-.322a.211.211,0,0,1-.06-.17,7.3,7.3,0,0,0,1.237-1.6,7,7,0,0,0,.763-2.213,17.734,17.734,0,0,0,.3-3.1H130.3c-.124,0-.189-.073-.189-.253v-.488c0-.151.064-.248.189-.248h1.83v-.658c0-.216-.028-.635-.06-1.228,0-.064.06-.12.184-.12Z" transform="translate(-36.616 -1640.51)" fill="#3d93ab"/>
      <path id="Path_37895" data-name="Path 37895" d="M134.491,1663.829c.11.078.175.143.175.208,0,.17-.11.248-.313.248a1.021,1.021,0,0,0-.377.065,16.79,16.79,0,0,0,1.393,1.6,9.1,9.1,0,0,0,1.908,1.458,11.314,11.314,0,0,0,3.146,1.4c.156.032.234.06.234.124a.215.215,0,0,1-.1.189,5.57,5.57,0,0,0-.607.547c-.064.1-.11.129-.156.129a10.326,10.326,0,0,1-2.345-1.016,11.231,11.231,0,0,1-2.4-1.707,16.634,16.634,0,0,1-1.817-1.977,12.976,12.976,0,0,1-1.269,1.365,13.255,13.255,0,0,1-1.5,1.348,21.417,21.417,0,0,1-1.771,1.246,9.975,9.975,0,0,1-1.439.782.286.286,0,0,1-.267-.152,2.463,2.463,0,0,0-.529-.63c-.124-.06-.175-.125-.175-.189,0-.028.032-.06.1-.087a17.686,17.686,0,0,0,2.079-.952,15.9,15.9,0,0,0,2.286-1.678,9.522,9.522,0,0,0,1.251-1.288,10.406,10.406,0,0,0,.97-1.435.467.467,0,0,1,.285-.17Zm3.477,7.482c.156,0,.234.06.234.184v5.868c0,.124-.078.189-.234.189h-.612c-.17,0-.248-.065-.248-.189v-.736h-7.34v.736c0,.124-.078.189-.235.189h-.612c-.17,0-.248-.065-.248-.189v-5.8a.223.223,0,0,1,.248-.248Zm-.86,4.346V1672.3h-7.34v3.362Zm-.612-7.151c.124,0,.189.083.189.234v.483c0,.18-.064.253-.189.253h-6.181c-.124,0-.175-.073-.175-.253v-.483c0-.151.051-.234.175-.234Z" transform="translate(-23.117 -1640.26)" fill="#3d93ab"/>
      <path id="Path_37896" data-name="Path 37896" d="M143.949,1664.622c.124,0,.184.106.184.3v.63c0,.207-.06.294-.184.294h-13.7c-.124,0-.189-.087-.189-.294v-.63c0-.189.064-.3.189-.3Z" transform="translate(-9.535 -1635.342)" fill="#3d93ab"/>
      <path id="Path_37897" data-name="Path 37897" d="M136.647,1667.4a3.206,3.206,0,0,1-1,1.1l-.409-.455a2.41,2.41,0,0,0,1.049-1.78h-1.159v-1.876h1.881v1.715a2.692,2.692,0,0,1-.362,1.3Z" transform="translate(8.689 -1636.205)" fill="#3d93ab"/>
      <path id="Path_37898" data-name="Path 37898" d="M143.922,1667.514c.032-.179.046-.386.06-.575a22.807,22.807,0,0,0,0-3.647l1.66.189a.234.234,0,0,1-.143.216.408.408,0,0,0-.23.331c-.032,1.472-.11,2.631-.207,3.486h6.2c.124,0,.184.079.184.239v.621c0,.161-.06.234-.184.234h-5.854a12.453,12.453,0,0,0,.658,1.978,10.552,10.552,0,0,0,.938,1.895,8.788,8.788,0,0,0,1.987,2.2,6.63,6.63,0,0,0,2.35,1.32.151.151,0,0,1,.106.137.353.353,0,0,1-.17.267,5.748,5.748,0,0,0-.593.695.314.314,0,0,1-.281.2,2.372,2.372,0,0,1-.625-.386,11.733,11.733,0,0,1-2.865-2.475,9.425,9.425,0,0,1-1.38-2.3,13.891,13.891,0,0,1-.842-2.373c-.078.3-.156.621-.253.906a12.9,12.9,0,0,1-1.094,2.373,8.73,8.73,0,0,1-1.453,1.973,18.855,18.855,0,0,1-3.274,2.286c-.092,0-.156-.065-.216-.189a5.866,5.866,0,0,0-.612-.612c-.11-.092-.156-.17-.156-.244.327-.143.768-.331,1.3-.612a9.2,9.2,0,0,0,1.485-1,5.591,5.591,0,0,0,1.288-1.334,9.6,9.6,0,0,0,1.141-1.858,12.737,12.737,0,0,0,.75-2.083c.064-.253.11-.5.161-.754h-6c-.124,0-.189-.073-.189-.234v-.621c0-.161.064-.239.189-.239Z" transform="translate(17.46 -1640.128)" fill="#3d93ab"/>
      <path id="Path_37899" data-name="Path 37899" d="M143.53,1665.8v-2.336c0-.124.078-.189.248-.189.768,0,1.159.065,1.159.189,0,.143-.064.217-.156.235-.11.018-.156.124-.156.313v1.789h1.955c.207,0,.313.07.313.235v7.491a.847.847,0,0,1-.372.736,2.249,2.249,0,0,1-.911.267.182.182,0,0,1-.2-.189,2.8,2.8,0,0,0-.345-.97c0-.037.018-.06.051-.06a1.029,1.029,0,0,0,.579-.1.512.512,0,0,0,.092-.341v-6.1h-1.159v10.444c0,.129-.078.189-.235.189h-.612c-.17,0-.248-.059-.248-.189V1666.77h-1.159v7.4c0,.129-.092.17-.248.17h-.612c-.175,0-.248-.041-.248-.17v-8.135c0-.165.074-.235.248-.235Zm11.423-2.083c.124,0,.189.078.189.235v.5c0,.151-.064.234-.189.234h-7.514c-.124,0-.184-.083-.184-.234v-.5c0-.157.06-.235.184-.235Zm-.11,6.351c.156,0,.235.06.235.189v6.769c0,.129-.078.189-.235.189h-.612c-.17,0-.248-.059-.248-.189v-.483h-5.509v.483c0,.129-.078.189-.235.189h-.612c-.17,0-.248-.059-.248-.189v-6.71a.223.223,0,0,1,.248-.248Zm-.8-4.456c.161,0,.239.065.239.189v3.169c0,.128-.078.17-.239.17h-5.569c-.156,0-.235-.042-.235-.17v-3.17c0-.124.078-.189.235-.189Zm-3.3,7.211v-1.79h-2.272v1.79Zm0,2.75v-1.78h-2.272v1.78Zm2.437-8.991h-3.849v1.587h3.849Zm-1.347,6.241h2.148v-1.79h-2.148Zm2.148,2.75v-1.78h-2.148v1.78Z" transform="translate(30.764 -1640.178)" fill="#3d93ab"/>
      <path id="Path_37900" data-name="Path 37900" d="M106.147,1671.557v-2.208a3.652,3.652,0,0,0-.06-.694.7.7,0,0,1-.064-.295c0-.064.1-.106.317-.106l1.219.151c.124.065.189.115.189.143,0,.092-.064.142-.189.142-.221.092-.313.327-.313.722v2.144h1.6c.124,0,.184.073.184.234v.488c0,.17-.06.248-.184.248h-1.6v3.146c.5-.253.984-.52,1.453-.782.032-.037.046-.055.078-.055a.123.123,0,0,1,.129.129,2.971,2.971,0,0,1-.064.86c-.533.313-1.067.612-1.6.887v4.557c0,.727-.547,1.094-1.646,1.094h-.547c-.092,0-.138-.092-.138-.262a2.717,2.717,0,0,0-.3-.718c0-.082.032-.115.124-.115a3.592,3.592,0,0,0,.736.115c.442,0,.671-.189.671-.547v-3.559c-.437.225-.874.441-1.278.63-.161.281-.267.424-.363.424s-.313-.424-.625-1.284a17.837,17.837,0,0,0,2.267-.864v-3.657h-1.826c-.129,0-.189-.078-.189-.248v-.488c0-.161.06-.234.189-.234Zm11.865,3.6c.124,0,.189.1.189.248v.488c0,.161-.064.229-.189.229h-3.725v1.854h3.054c.124,0,.184.078.184.234v.5c0,.152-.06.234-.184.234h-3.054v2.175c.4.014.924.023,1.582.023.391,0,1.14-.051,2.267-.179a.344.344,0,0,1-.1.216,4.594,4.594,0,0,0-.262.847c-.018.142-.064.216-.143.216H116.1a13.649,13.649,0,0,1-2.9-.216,7.039,7.039,0,0,1-1.219-.4,3.1,3.1,0,0,1-.7-.524,2.221,2.221,0,0,1-.6-.7l-.032-.046a1.481,1.481,0,0,1-.092.235,5.318,5.318,0,0,1-1.72,1.9.287.287,0,0,1-.235-.1c-.17-.153-.331-.313-.469-.442a.307.307,0,0,1-.1-.189.134.134,0,0,1,.124-.152,4.7,4.7,0,0,0,.957-.781,4.443,4.443,0,0,0,.644-.925,11.087,11.087,0,0,0,.34-1.122,10.766,10.766,0,0,0,.175-1.817.185.185,0,0,1,.2-.206l1,.234c.11.065.17.125.17.189a.216.216,0,0,1-.2.235.463.463,0,0,0-.17.313,9.585,9.585,0,0,1-.207,1.311,3.49,3.49,0,0,0,.423.818,1.611,1.611,0,0,0,.579.575,2.658,2.658,0,0,0,.8.423.8.8,0,0,0,.294.1v-4.824h-3.536c-.124,0-.184-.069-.184-.229v-.488c0-.151.06-.248.184-.248Zm-1.049-6.415c.156,0,.248.065.248.189v5c0,.124-.092.189-.248.189h-6.415c-.156,0-.235-.065-.235-.189v-5c0-.124.078-.189.235-.189Zm-.846,2.194v-1.223h-4.709v1.223Zm0,.989h-4.709v1.209h4.709Z" transform="translate(-103.77 -1622.267)" fill="#3d93ab"/>
      <path id="Path_37901" data-name="Path 37901" d="M112.531,1670.173v2.929c0,.377-.014.718-.032,1.063h4.134v-5.551c0-.129.078-.189.235-.189.814,0,1.237.06,1.237.189a.215.215,0,0,1-.156.234c-.11.013-.161.124-.161.313v5h3.242c.124,0,.184.1.184.248v.612c0,.17-.06.253-.184.253h-3.242v7.022c0,.129-.106.189-.294.189h-.625c-.156,0-.235-.059-.235-.189v-7.022H112.42a17.939,17.939,0,0,1-.327,1.941,6.934,6.934,0,0,1-1.55,2.911,9.339,9.339,0,0,1-1.987,1.687.383.383,0,0,1-.3-.124,4.218,4.218,0,0,0-.455-.561.4.4,0,0,1-.092-.23,7.619,7.619,0,0,0,3.224-3.9,12.347,12.347,0,0,0,.327-1.725h-3.739c-.124,0-.189-.082-.189-.253v-.612c0-.152.064-.248.189-.248h3.822c.014-.281.028-.575.028-.874v-2.828a15.182,15.182,0,0,1-2.989.3.25.25,0,0,1-.281-.208,3.99,3.99,0,0,0-.345-.593c0-.165.064-.253.189-.253a17.138,17.138,0,0,0,3.366-.234,5.805,5.805,0,0,0,2.769-1.141.555.555,0,0,1,.28-.078.433.433,0,0,1,.221.106,6.8,6.8,0,0,1,.639.8c0,.125-.041.189-.124.189l-.419-.064a8.45,8.45,0,0,1-2.146.891Z" transform="translate(-91.339 -1622.267)" fill="#3d93ab"/>
      <path id="Path_37902" data-name="Path 37902" d="M115.747,1668.926l.078.17c0,.092-.1.142-.267.142-.253,0-.409.065-.469.175-.736.805-1.426,1.541-2.083,2.2.377.313.754.667,1.127,1.025q.938-1.041,1.564-1.876a6.659,6.659,0,0,1,1.1,1.03c0,.064-.078.092-.207.092a.816.816,0,0,0-.515.106c-.97,1.095-1.908,2.111-2.847,3.026.782-.06,1.734-.161,2.86-.248a10.874,10.874,0,0,0-.639-1.26c0-.059.267-.234.8-.492.34.662.639,1.274.86,1.84a13.45,13.45,0,0,1,.547,1.642,3.1,3.1,0,0,1-.924.3,9.254,9.254,0,0,0-.359-1.31l-1.771.34v6.475c0,.129-.092.189-.248.189h-.612c-.17,0-.253-.059-.253-.189v-6.249l-2.06.386a2.563,2.563,0,0,1-.5.483,6.869,6.869,0,0,1-.3-1.518,3.659,3.659,0,0,1,1.127-.216c.736-.754,1.361-1.407,1.862-1.973-.579-.441-1.016-.745-1.315-.952a15.187,15.187,0,0,0-1.439-.7c0-.1.216-.368.658-.833a.145.145,0,0,1,.138-.092l.566.377c.4-.423.782-.837,1.113-1.237.561-.676.952-1.177,1.2-1.517Zm-2.975,8.6a.251.251,0,0,1-.189.253.352.352,0,0,0-.138.275c-.078.944-.175,1.711-.285,2.3-.06.354-.138.676-.23,1.025-.032.074-.064.124-.083.124a5.035,5.035,0,0,0-.906-.22.147.147,0,0,1-.124-.147c.138-.428.262-.934.391-1.462a17.029,17.029,0,0,0,.262-2.336c0-.106.032-.17.129-.17.782.156,1.173.284,1.173.362Zm3.477-.294a32.994,32.994,0,0,1,1.049,3.6c0,.125-.317.217-.924.3-.143,0-.207-.046-.207-.151a30.569,30.569,0,0,0-.763-3.564c0-.1.248-.207.782-.317.031.007.044.053.063.136Zm4.456-6.663v-1.959c0-.129.078-.189.253-.189.763,0,1.154.06,1.154.189a.213.213,0,0,1-.152.234c-.092.018-.143.124-.143.313v1.412h3.3c.11,0,.17.087.17.248v.487c0,.171-.06.249-.17.249h-3.3v2.731h2.8c.124,0,.189.1.189.253v.483c0,.17-.064.253-.189.253H118.2c-.129,0-.175-.082-.175-.253v-.483c0-.151.046-.253.175-.253h2.5v-2.731h-3.049c-.129,0-.189-.078-.189-.249v-.487c0-.161.06-.248.189-.248Zm3.8,6.176c.156,0,.234.064.234.17v5.38c0,.129-.078.189-.234.189H123.9c-.175,0-.253-.059-.253-.189v-.607h-4.332v.607c0,.129-.1.189-.253.189h-.607c-.175,0-.253-.059-.253-.189v-5.316c0-.151.078-.234.253-.234Zm-.86,3.964v-2.994h-4.332v2.994Z" transform="translate(-79.481 -1622.267)" fill="#3d93ab"/>
      <path id="Path_37903" data-name="Path 37903" d="M116.025,1671.286v-2.819c0-.124.078-.189.235-.189.768,0,1.159.065,1.159.189,0,.142-.046.216-.143.234s-.156.125-.156.313v2.272h1.58c.078,0,.124.065.124.189v.487c0,.152-.046.235-.124.235h-1.426a10.547,10.547,0,0,0,.533,1.453,7.843,7.843,0,0,0,1.108,1.752.178.178,0,0,1,.1.151c0,.037-.046.083-.11.142a2.874,2.874,0,0,1-.455.469c-.078.1-.138.125-.17.125a.26.26,0,0,1-.17-.088,8.788,8.788,0,0,1-.938-1.688.2.2,0,0,1-.051-.129v7.9c0,.124-.092.189-.248.189h-.612c-.156,0-.235-.065-.235-.189v-6.4c-.064.216-.143.441-.2.629a15.1,15.1,0,0,1-.722,1.735c-.124,0-.2-.019-.248-.084l-.658-.322c-.092,0-.124-.018-.124-.083a18.236,18.236,0,0,0,.892-1.981,14.282,14.282,0,0,0,.529-1.808,14.884,14.884,0,0,0,.359-1.775h-1.232c-.1,0-.124-.083-.124-.235v-.487c0-.124.028-.189.124-.189Zm5.132-1.771v-.925c0-.078.051-.124.17-.124.74,0,1.113.065,1.113.189s-.046.207-.124.207-.124.106-.124.276v.377h2.5v-.925c0-.078.064-.124.189-.124.722,0,1.1.065,1.1.189s-.046.207-.124.207-.11.106-.11.276v.377H127.7c.06,0,.106.065.106.175v.483c0,.171-.046.253-.106.253h-1.959v1.094h1.347c.064,0,.11.064.11.189v.488c0,.124-.046.189-.11.189h-1.347v.98h2.378c.083,0,.124.059.124.17v.5c0,.161-.041.234-.124.234h-4.272v.859h2.805c.2,0,.308.065.308.189v3.73h1.223c.078,0,.124.065.124.189v.483c0,.157-.046.235-.124.235H126.96v1.779c0,.253-.189.474-.561.626a5.732,5.732,0,0,1-1.393.216c-.124,0-.189-.051-.2-.17a2.932,2.932,0,0,0-.345-.98c0-.032.032-.05.1-.05a4.607,4.607,0,0,0,1.108-.074.312.312,0,0,0,.189-.289v-1.058H120.72v2.327c0,.124-.078.189-.235.189h-.612c-.17,0-.248-.065-.248-.189v-2.327h-1.159c-.1,0-.129-.078-.129-.235v-.483c0-.124.032-.189.129-.189h1.159v-3.73c0-.124.078-.189.248-.189H122.8v-.859h-3.91c-.1,0-.129-.074-.129-.234v-.5c0-.11.032-.17.129-.17h2.267v-.98H119.81c-.092,0-.124-.065-.124-.189v-.488c0-.125.032-.189.124-.189h1.347v-1.094h-1.83c-.1,0-.124-.082-.124-.253v-.483c0-.11.028-.175.124-.175Zm1.642,7.639v-1.118H120.72v1.118Zm0,1.9V1678H120.72v1.053Zm1.895-8.622h-2.5v1.094h2.5Zm0,2.939v-.98h-2.5v.98Zm-.846,3.789h2v-1.118h-2Zm2,1.9V1678h-2v1.053Z" transform="translate(-67.098 -1622.185)" fill="#3d93ab"/>
      <path id="Path_37904" data-name="Path 37904" d="M120.119,1671.414v-2.947c0-.124.078-.189.235-.189.782,0,1.173.065,1.173.189,0,.142-.06.216-.156.234s-.156.125-.156.313v2.4h1.895c.124,0,.189.07.189.231v.487c0,.17-.064.253-.189.253h-1.784a12.1,12.1,0,0,0,.8,1.936,8.36,8.36,0,0,0,1.108,1.674.28.28,0,0,1-.11.234c-.156.143-.373.331-.625.547-.032,0-.046-.018-.078-.064a4.584,4.584,0,0,1-.685-1.122c-.156-.35-.331-.773-.52-1.26v7.951c0,.124-.092.189-.248.189h-.612c-.156,0-.235-.065-.235-.189v-6.833c-.221.565-.423,1.094-.644,1.563a12.949,12.949,0,0,1-1.016,1.849.311.311,0,0,1-.248-.082,6.556,6.556,0,0,1-.658-.322c-.1,0-.124-.018-.124-.082a12.7,12.7,0,0,0,1.237-2.13,13.621,13.621,0,0,0,.75-1.922c.124-.41.3-1.067.483-1.936h-1.8c-.124,0-.189-.083-.189-.253v-.487c0-.161.064-.231.189-.231Zm11.423-.189c.124,0,.189.088.189.249v.487c0,.152-.064.235-.189.235h-3.113v3.669h2.879c.11,0,.17.083.17.235v.505c0,.152-.06.23-.17.23h-2.879v3.918h3.55c.11,0,.175.088.175.253v.483c0,.152-.064.244-.175.244h-8.494c-.129,0-.189-.092-.189-.244v-.483c0-.165.06-.253.189-.253h3.845v-3.918H124.2c-.124,0-.17-.078-.17-.23v-.505c0-.152.046-.235.17-.235h3.127V1672.2h-3.238c-.124,0-.189-.083-.189-.235v-.487c0-.161.064-.249.189-.249Zm-3.757-1.618a10.857,10.857,0,0,1,.515,1.2,4.8,4.8,0,0,1-1.03.294,4.828,4.828,0,0,0-.377-.961,8.706,8.706,0,0,0-.782-1.292c0-.078.281-.271.846-.566a12.445,12.445,0,0,1,.828,1.326Z" transform="translate(-55.009 -1622.185)" fill="#3d93ab"/>
      <path id="Path_37905" data-name="Path 37905" d="M125.786,1668.976c.161,0,.253.065.253.17v3.918c0,.17-.092.239-.253.239h-2.971c-.1.676-.189,1.287-.3,1.853-.046.189-.092.378-.124.529h3.582c.129,0,.189.1.189.253a30.8,30.8,0,0,1-.248,3.881,6.375,6.375,0,0,1-.625,2.1c-.253.5-.924.75-2,.75-.736,0-1.113-.129-1.145-.359a2.649,2.649,0,0,0-.451-.929v-.124a6.035,6.035,0,0,0,1.6.244,1.16,1.16,0,0,0,1.127-.506,4.094,4.094,0,0,0,.487-1.559,21.881,21.881,0,0,0,.248-2.759h-3.008c-.041.152-.092.313-.12.46-.032.106-.064.151-.078.151a.938.938,0,0,1-.271-.046c-.23-.037-.469-.083-.7-.143-.1-.018-.129-.065-.129-.129.189-.547.313-.97.377-1.246.143-.488.267-1.035.391-1.647a18.174,18.174,0,0,0,.248-1.982c0-.124.051-.189.143-.189a7.014,7.014,0,0,1,.924.424h2v-2.382H121.39c-.124,0-.189-.083-.189-.253v-.483c0-.152.064-.234.189-.234Zm5.509-.124c0,.106-.078.151-.216.151-.156,0-.221.055-.221.143q-.469.89-1.173,2.023c-.189.294-.363.557-.533.8q2.118-.179,4.258-.46a10.9,10.9,0,0,0-.658-1.081c0-.06.281-.248.86-.547a21.265,21.265,0,0,1,1.062,1.881,12.84,12.84,0,0,1,.658,1.669,4.009,4.009,0,0,1-1.049.294,5.506,5.506,0,0,0-.423-1.228c-.782.106-1.577.2-2.391.294v1.545h2.814c.156,0,.253.065.253.189v4.167c0,.129-.1.175-.253.175h-.612c-.17,0-.248-.046-.248-.175v-.312H131.47v2.423c.593-.06,1.173-.142,1.734-.234-.184-.248-.373-.483-.561-.718,0-.059.281-.248.846-.547a14.845,14.845,0,0,1,1.14,1.646,9.383,9.383,0,0,1,.7,1.462,5.231,5.231,0,0,1-1.049.294,6.709,6.709,0,0,0-.515-1.2l-.032-.046q-3.008.38-6.057.7c-.156.291-.267.442-.359.442s-.3-.442-.612-1.283c.938-.074,2.065-.179,3.38-.345.092,0,.189-.014.285-.023v-2.57h-2.019v.671c0,.128-.083.193-.235.193H127.5c-.175,0-.253-.065-.253-.193v-4.462a.228.228,0,0,1,.253-.253h2.865v-1.416q-1.2.13-2.442.248a.313.313,0,0,0-.253.134c-.046.184-.124.253-.235.253s-.391-.464-.8-1.412a12.711,12.711,0,0,0,1.32-.087,26.432,26.432,0,0,0,1.3-2.451,8.949,8.949,0,0,0,.451-1.3c0-.037.051-.065.11-.065.974.312,1.48.51,1.48.611Zm-.92,8.558v-2.083h-2.019v2.083Zm1.1,0h1.954v-2.083H131.47Z" transform="translate(-42.727 -1622.317)" fill="#3d93ab"/>
      <path id="Path_37906" data-name="Path 37906" d="M133.536,1668.452c0,.147-.06.216-.156.234s-.156.129-.156.318v.671h5.132c.129,0,.189.087.189.253v.483c0,.17-.06.253-.189.253H126.873v3.9a22.612,22.612,0,0,1-.3,4.042,9.8,9.8,0,0,1-.736,2.474,5.784,5.784,0,0,1-.8,1.435.387.387,0,0,1-.17-.027,3.276,3.276,0,0,0-.561-.442.317.317,0,0,1-.064-.206,6.491,6.491,0,0,0,.828-1.716,15.067,15.067,0,0,0,.533-2.377,29.222,29.222,0,0,0,.156-3.182v-4.641a.222.222,0,0,1,.253-.253h6.116v-1.223c0-.125.078-.189.235-.189Q133.536,1668.266,133.536,1668.452Zm2.929,8.434a.553.553,0,0,1,.28.083c.221.216.327.358.327.423a9.372,9.372,0,0,1-1.122,1.642,7.321,7.321,0,0,1-1.3,1.232c-.129.1-.267.189-.409.286a7.649,7.649,0,0,0,1.209.34,24.428,24.428,0,0,0,2.828.524c.129.009.207.027.207.059a.261.261,0,0,1-.078.184,5.844,5.844,0,0,0-.644.626c-.092.11-.156.17-.2.17a1.713,1.713,0,0,1-.359-.087c-.552-.1-1.145-.226-1.8-.377-.782-.216-1.5-.442-2.157-.695-.1-.042-.175-.069-.253-.106l-.028.019a15.942,15.942,0,0,1-2.488.841c-.612.157-1.412.318-2.382.469a.38.38,0,0,1-.327-.151c-.129-.189-.253-.359-.377-.547a.31.31,0,0,1-.092-.161c0-.046.032-.073.124-.073.607-.083,1.2-.17,1.8-.29a13.4,13.4,0,0,0,2.6-.717,1.731,1.731,0,0,1-.345-.216,4,4,0,0,1-1.237-1.132,5,5,0,0,1-.952-1.422h-1c-.124,0-.189-.078-.189-.248v-.488a.168.168,0,0,1,.189-.189Zm-6.6-4.392v-.97c0-.124.078-.189.248-.189.768,0,1.159.065,1.159.189s-.064.216-.156.216c-.11.027-.156.147-.156.322v.432h3.615v-.97c0-.124.078-.189.248-.189.768,0,1.159.065,1.159.189s-.06.216-.156.216c-.11.027-.156.147-.156.322v.432h2.63c.078,0,.124.065.124.18v.487c0,.179-.046.253-.124.253h-2.631v2.065c0,.17-.078.248-.235.248H130.11a.216.216,0,0,1-.248-.248v-2.065h-2.318c-.092,0-.124-.074-.124-.253v-.487c0-.115.032-.18.124-.18Zm1.016,5.928a4.108,4.108,0,0,0,1.154,1.062,4.311,4.311,0,0,0,.957.547,6.308,6.308,0,0,0,.846-.488,5.027,5.027,0,0,0,1.191-1.14,3,3,0,0,0,.437-.594h-4.99a2.319,2.319,0,0,0,.4.613Zm3.693-5.008h-3.615v1.389h3.615Z" transform="translate(-30.491 -1622.234)" fill="#3d93ab"/>
    </g>
    <g id="Group_6141" data-name="Group 6141" transform="translate(190.583 7340.709)">
      <path id="Path_37907" data-name="Path 37907" d="M121.925,1651.512v3.808H104.256v-3.808Z" transform="translate(-104.256 -1641.905)" fill="#3d93ab"/>
      <path id="Path_37908" data-name="Path 37908" d="M114.845,1649.842c-.156.318-.317.64-.455.929h5.344v1.932a10.344,10.344,0,0,0,1.775-3.256l2.681.395c-.138.318-.248.64-.363.929h5.955v2.484h-3.794c.317.639.589,1.191.773,1.665l-2.571.294a8.221,8.221,0,0,0-.589-1.959h-.98a19.25,19.25,0,0,1-1.274,2.065l-.819-.662v.98h7.39v3.1h2.115v2.277H127.92v3.1h-7.39v1.14h8.186v2.272H120.53v1.242h9.253v2.593H120.53v2.46h-2.658v-2.46h-8.71v-2.593h8.71v-1.242H110.32v-2.272h7.551v-1.14h-7.1v-2.171h7.1v-.924H109v-2.277h8.871v-.929h-7.1v-2.166h7.1V1654.5h2.456l-1.3-1.035a1.711,1.711,0,0,0,.207-.212H116.69a17.813,17.813,0,0,1,.75,1.776l-2.594.289a10.109,10.109,0,0,0-.547-2.065h-1.407a17.95,17.95,0,0,1-1.775,2.277l-2.3-1.849a10.3,10.3,0,0,0,3.366-4.235Zm5.684,8.89h4.728v-.929H120.53Zm0,3.2h4.728v-.924H120.53Z" transform="translate(-87.827 -1649.337)" fill="#3d93ab"/>
      <path id="Path_37909" data-name="Path 37909" d="M119.726,1649.823c-.179.424-.363.846-.52,1.246h5.477v1.959a11.336,11.336,0,0,0,1.775-3.6l2.681.4c-.179.451-.34.873-.5,1.246h6.1v2.7h-3.753a14.5,14.5,0,0,1,.635,1.637l-2.658.317a11.965,11.965,0,0,0-.455-1.954H127.39a20.962,20.962,0,0,1-1.269,2.17l-2.318-1.885a3.384,3.384,0,0,0,.271-.286h-2.207a15.09,15.09,0,0,1,.616,1.743l-2.686.318a10.8,10.8,0,0,0-.432-2.061h-1.5a26.824,26.824,0,0,1-1.8,2.773l-2.295-1.849a12.724,12.724,0,0,0,3.274-5.27Zm-2.837,8.89v-2.773h2.658v2.773h1.775v2.8h-1.775V1664a13.891,13.891,0,0,0,1.863-.529v2.994c-.612.212-1.228.4-1.863.557v4.309a1.917,1.917,0,0,1-2.138,2.171h-2.046l-.432-2.911a14.09,14.09,0,0,0,1.412.212c.363,0,.547-.184.547-.608v-2.566c-.8.161-1.6.29-2.414.4l-.428-3.2a25.444,25.444,0,0,0,2.842-.289v-3.022h-2.5v-2.8Zm17.756.211h-10.3V1670.3h10.573v2.672H124.344v.925h-2.658v-17.751h12.959Zm-6.047,1.665v-1.136h2.41v1.136h3.362v5.983c0,1.454-.681,2.171-2.046,2.171h-.8l-.363-2.6a3.3,3.3,0,0,0,.547.11c.271,0,.432-.184.432-.612v-2.593H131v6.719h-2.4v-6.719h-1.159v5.693h-2.3v-8.154H128.6Z" transform="translate(-70.013 -1649.423)" fill="#3d93ab"/>
    </g>
    <g id="Group_6149" data-name="Group 6149" transform="translate(93.824 7370.675)" style="mix-blend-mode: multiply;isolation: isolate">
      <path id="Path_38024" data-name="Path 38024" d="M108.657,1668.562l-1.789,1.242v9.731l-.363-1.076-.52.032v-18.708H119.5v-3.845h-5.013v.916H85.764l-2.548,2.548v.382h7.307v4.511h.331v7.565h-.331v1.113h.331v.621h0v.018a.814.814,0,1,1-.814.814h-.313a1.129,1.129,0,1,0,1.513-1.058v-.4h.331v-1.113H91.24v-7.565h.331v-4.511H103.05v18.9l.225-.014-.225.014h0l-6.121.4-1.789,1.177v23.339h29.92v-35.355l-.363-1.1Zm5.831-11.322v2.161h-2.217l2.161-2.161Zm-.6,0-2.161,2.161H109.42l2.161-2.161Zm-2.851,0-2.161,2.161h-2.309l2.161-2.161Zm-5.054,0h2.2l-2.161,2.161h-.041Zm-22.224,2.16,2.161-2.161h2.309l-2.161,2.161Zm2.851,0,2.161-2.161H91.08l-2.161,2.161Zm2.851,0,2.161-2.161h2.309L91.77,1659.4Zm5.16,0H92.312l2.161-2.161h2.309l-2.161,2.161Zm.543,0,2.161-2.161h2.309l-2.161,2.161Zm2.851,0,2.161-2.161h2.309l-2.161,2.161Zm5.04,0h-2.189l2.161-2.161h.028Zm1.651-.988.892-.893v1.79Zm.441.988h-1.43l.717-.713Zm.189-2.161-.9.9-.906-.9Zm-1.9.45h0l.727.723-.727.726Zm0,2.093h2.092l.069.069v2.308l-2.16-2.159Zm0,.758,2.161,2.162v2.309l-2.161-2.162Zm0,2.852,2.161,2.161v2.308l-2.161-2.161Zm0,2.851,2.161,2.161v2.308l-2.161-2.161Zm0,2.852,2.161,2.161v2.308l-2.161-2.161Zm0,2.851h0l2.161,2.161v2.308l-2.161-2.161Zm0,2.852h0l2.161,2.161v1.555l-.708.046-1.453-1.453Zm0,2.851.943.947-.943.06Zm-1.816,2.9,1.435-.087.363-.023v1.067l-.363.018-1.435.083Zm0,1.78,1.435-.078.363-.023v1.067l-.363.018-1.435.078Zm0,1.784,1.435-.074.363-.018v1.066l-.363.014-1.435.069Zm0,1.78,1.435-.065.363-.013v1.063l-.363.013-1.435.064Zm0,1.784,1.435-.059.363-.014v1.063l-.363.013-1.435.055Zm0,1.78,1.435-.051.363-.013v1.067l-.363.009-1.435.051Zm0,1.784,1.435-.046.363-.009v1.062l-1.154.032-.644.019Zm0,1.785,1.8-.051v1.063l-1.8.046Zm0,1.779,1.8-.042v1.068l-1.8.037Zm0,1.784,1.8-.032v1.062l-1.8.028Zm-3.026-15.861,1.8-.11v1.058l-1.8.1Zm0,1.766,1.8-.1v1.053l-1.8.1Zm0,1.771,1.8-.092v1.058l-1.8.083Zm0,1.766,1.8-.079V1687l-1.8.079Zm0,1.77,1.8-.074v1.058l-1.8.068Zm0,1.766,1.8-.064v1.058l-1.8.06Zm0,1.771,1.8-.055v1.053l-1.8.055Zm0,1.771,1.8-.051v1.058l-1.8.042Zm0,1.766,1.8-.042v1.058l-1.8.037Zm0,1.77,1.8-.032v1.053l-1.8.032Zm-2.373-15.778,1.8-.106v1.048l-1.8.106Zm0,1.757,1.8-.1v1.049l-1.8.1Zm0,1.761,1.8-.092v1.049l-1.8.087Zm0,1.757,1.8-.082v1.048l-1.8.079Zm0,1.757,1.8-.074v1.049l-1.8.074Zm0,1.757,1.8-.065v1.049l-1.8.065Zm0,1.761,1.8-.06v1.049l-1.8.056Zm0,1.757,1.8-.051v1.048l-1.8.046Zm0,1.757,1.8-.042v1.049l-1.8.037Zm0,1.757,1.8-.032v1.049l-1.8.027Zm9.57,4.5-9.57.06v-2.805l9.57-.129Zm0-3.6-1.8.032v-1.067l1.8-.037Zm0-1.8-1.8.032v-1.062l1.8-.042Zm0-1.8-1.8.046v-1.067l1.8-.051Zm0-1.8-1.8.051v-1.063l1.5-.05.294-.009Zm0-1.8-.193.009-.28.01-.524.018-.8.023v-1.062l.29-.013,1.315-.046.193-.009Zm0-1.8H105.6l-1.6.06v-1.063l.786-.032.52-.023.3-.014h.193Zm0-1.8H105.6l-1,.046-.52.023h-.087v-1.068l1.6-.073.193-.009Zm0-1.8-.7.032-1.1.055V1684h.078l.515-.027,1.012-.05.193-.009Zm0-1.8-.193.01-1.6.087v-1.08l1.081-.06.515-.027.009.009v-.009l.193-.014Zm0-1.8-.193.013-.7.037-.515.032-.391.023V1680.4l1.6-.1.193-.014Zm14.026-10.126v-1.108l1.8-.147v1.113l-1.8.143Zm0,.759,1.8-.143v1.118l-1.8.134Zm0,1.867,1.8-.134v1.113l-1.8.129Zm0,2.975v-1.113l1.8-.12v1.113Zm0,.754,1.8-.115h0v1.118l-1.8.106Zm0,2.976v-1.109l1.8-.106v1.113l-1.8.1Zm0,1.867v-1.109l1.8-.1v1.118h0l-1.8.092Zm0,.758,1.8-.092v1.113l-1.8.087Zm0,2.975v-1.108l1.8-.083v1.113Zm0,.754,1.8-.073v1.113l-1.8.073Zm0,1.868,1.8-.065v1.113l-1.8.059Zm0,1.867,1.8-.06v1.118l-1.8.051Zm0,1.867,1.8-.051v1.113l-1.8.046Zm0,1.867,1.8-.042v1.113l-1.8.036Zm0,1.863,1.8-.033v1.118l-1.8.027Zm-2.378-25.928,1.8-.152v1.108l-1.8.147Zm0,2.957v-1.1l1.8-.138v1.1Zm0,.75,1.8-.129v1.109l-1.8.124Zm0,2.961v-1.1l1.8-.124v1.108h0l-1.8.12Zm0,.75,1.8-.115v1.108l-1.8.111Zm0,1.858,1.8-.106v1.108l-1.8.1Zm0,1.854,1.8-.1v1.108l-1.8.092Zm0,2.957v-1.1l1.8-.092v1.108l-1.8.082Zm0,.754,1.8-.083h0v1.108l-1.8.079Zm0,2.957v-1.1l1.8-.07v1.1l-1.8.069Zm0,.754,1.8-.065v1.108l-1.8.06Zm0,1.857,1.8-.059v1.108l-1.8.05Zm0,1.854,1.8-.051v1.108h0l-1.8.046Zm0,1.853,1.8-.037v1.1l-1.8.037Zm0,1.857,1.8-.032v1.1l-1.8.027Zm-2.373-25.781,1.8-.147v1.1l-1.8.143Zm0,1.844,1.8-.138v1.1l-1.8.138Zm-.051,1.854,1.84-.11V1697.5h-1.84Zm-2.322-3.5,1.8-.147v1.094l-1.8.143h0Zm0,1.835,1.8-.143v1.094l-1.8.138h0Zm0,1.83,1.8-.133v1.1l-1.8.124h0Zm0,1.835,1.8-.125v1.095l-1.8.12h0Zm0,1.835,1.8-.115v1.094l-1.8.106h0Zm0,1.83,1.8-.106v1.094l-1.8.1h0Zm0,1.835,1.8-.1v1.095l-1.8.1h0Zm0,1.835h0l1.8-.092v1.095l-1.8.083h0Zm0,1.831,1.8-.084h0v1.095h0l-1.8.078h0Zm0,1.834,1.8-.073v1.094l-1.8.07h0Zm0,1.835,1.8-.069v1.1l-1.8.059h0Zm0,1.83,1.8-.055v1.095l-1.8.051h0Zm0,1.835,1.8-.051v1.094l-1.8.046h0Zm0,1.835,1.8-.042v1.094l-1.8.037h0Zm0,1.83,1.8-.032v1.094l-1.8.028h0Zm-2.378-25.473,1.8-.147v1.09l-1.8.143Zm0,1.826,1.8-.142v1.089l-1.8.134Zm0,1.821h0l1.8-.134v1.09l-1.8.129Zm0,1.821,1.8-.125v1.09l-1.8.12Zm0,1.826,1.8-.115v1.085h0l-1.8.11Zm0,1.821,1.8-.106v1.085l-1.8.106Zm0,1.821h0l1.8-.1v1.085l-1.8.1Zm0,1.821,1.8-.088h0v1.09l-1.8.083Zm0,1.826,1.8-.082v1.089h0l-1.8.073Zm0,1.821,1.8-.074v1.09l-1.8.069Zm0,1.826,1.8-.07v1.09l-1.8.06Zm0,1.821,1.8-.06v1.09l-1.8.051Zm0,1.821,1.8-.051v1.09h0l-1.8.046Zm0,1.826,1.8-.042v1.085l-1.8.037Zm0,1.821h0l1.8-.032v1.085l-1.8.027Zm-2.373-25.321,1.8-.147v1.08l-1.8.143Zm0,1.812,1.8-.143v1.086l-1.8.133Zm0,1.812,1.8-.134v1.086l-1.8.124Zm0,1.812,1.8-.125v1.081l-1.8.12Zm0,1.812,1.8-.115v1.082l-1.8.11Zm0,2.888v-1.076l1.8-.11v1.086h0Zm0,.731,1.8-.1v1.081l-1.8.1Zm0,1.816,1.8-.092v1.082l-1.8.087Zm0,1.812,1.8-.083v1.081l-1.8.078Zm0,1.812h0l1.8-.079v1.086l-1.8.068Zm0,1.807,1.8-.065v1.08l-1.8.065Zm0,1.812,1.8-.056v1.08l-1.8.051Zm0,1.812,1.8-.046v1.081l-1.8.042Zm0,1.812,1.8-.042v1.086l-1.8.032Zm0,1.812,1.8-.033v1.081l-1.8.028Zm16.045,4.6-16.045.1V1698.3l16.045-.216Zm0-3.771-1.8.027v-1.117l1.8-.033Zm0-1.885-1.8.032v-1.113l1.8-.041Zm0-3.008v1.122l-1.8.042v-1.113l1.8-.051Zm0-.764-1.8.051V1690.6l1.8-.06Zm0-1.885-1.8.06v-1.118l1.8-.064Zm0-1.885-1.8.069v-1.118l1.8-.073Zm0-1.885-1.8.078v-1.118l1.8-.083Zm0-1.886-1.8.083v-1.113h0l1.8-.092Zm0-1.885-1.8.092V1681.2l1.8-.1Zm0-1.886h0l-1.8.1v-1.118l1.8-.106Zm0-1.885-1.8.11v-1.118l1.8-.115Zm0-1.886-1.8.12v-1.117l1.8-.124Zm0-3.007v1.122l-1.8.124V1673.7l1.8-.133Zm0-.764h0l-1.8.134v-1.113l1.8-.142Zm0-1.885-1.8.142v-1.112l1.8-.153Z" transform="translate(-83.216 -1655.938)" fill="#717071"/>
      <path id="Path_38025" data-name="Path 38025" d="M96.264,1660.373l-3.918-2,.363,1.1v35.355h5.206v-32.78Zm-1.5,1.536,1.081.515h0v1.072l-1.085-.5Zm0,1.835,1.081.487v1.076l-1.081-.469Zm0,1.84,1.081.455v1.076l-1.081-.442Zm0,1.835,1.081.427v1.072l-1.081-.409Zm0,1.835,1.081.4v1.076l-1.081-.381Zm0,2.93v-1.09l1.081.368h0v1.076l-1.081-.354Zm0,.745,1.081.341v1.076l-1.081-.327Zm0,1.835,1.081.313v1.076l-1.081-.3Zm0,1.954v-.115l1.081.28v1.076l-1.081-.267Zm0,1.72,1.081.253v1.077l-1.081-.239Zm0,1.835,1.081.225v1.076l-1.081-.211Zm0,1.835,1.081.2v1.076l-1.081-.184Zm0,1.839,1.081.17v1.072l-1.081-.152Zm0,1.835,1.081.142V1687l-1.081-.125Zm0,1.835,1.081.114v1.072l-1.081-.1Zm-1.43-25.27v-1.113l1.081.515v1.094l-1.081-.5Zm0,.758,1.081.488v1.094l-1.081-.464Zm0,1.877,1.081.455v1.1l-1.081-.441Zm0,1.871,1.081.428v1.1l-1.081-.409Zm0,1.876,1.081.4v1.094l-1.081-.382Zm0,1.876,1.081.368h0v1.1h0l-1.081-.354Zm0,1.872h0l1.081.341v1.094h0l-1.081-.322Zm0,1.876,1.081.308v1.1l-1.081-.3Zm0,2.364v-.492h0l1.081.285v1.095l-1.081-.267Zm0,1.379,1.081.258v1.095l-1.081-.235Zm0,1.876,1.081.226v1.1l-1.081-.212Zm0,1.872,1.081.2v1.1l-1.081-.179Zm0,1.876,1.081.17v1.095l-1.081-.153Zm0,1.872,1.081.142v1.1l-1.081-.124Zm0,1.876,1.081.11v1.1l-1.081-.1Zm3.941,5-3.918-.138v-2.985l3.918.3Zm0-3.536-1.085-.1v-1.071l1.085.114Zm0-1.77-1.085-.125v-1.071l1.085.142Zm0-1.771-1.085-.153v-1.071l1.085.17Zm0-1.771-1.085-.18v-1.071l1.085.2Zm0-1.771-1.085-.208v-1.071l1.085.225Zm0-1.771-1.085-.239v-1.067l1.085.258Zm0-1.771-1.085-.267v-1.067l1.085.285Zm0-1.766-1.085-.3v-1.067l1.085.313Zm0-1.77-1.085-.327v-1.067h0l1.085.34Zm0-1.771-1.085-.354v-1.067l1.085.367Zm0-1.771h0l-1.085-.381v-1.067l1.085.4Zm0-1.77-1.085-.41v-1.066l1.085.428Zm0-1.771-1.085-.438v-1.066l1.085.455Zm0-1.766-1.085-.469v-1.071l1.085.488Zm0-1.771-1.085-.5v-1.066l1.085.51Z" transform="translate(-50.359 -1647.178)" fill="#717071"/>
    </g>
  </g>
</svg>
