<svg id="section5_title" xmlns="http://www.w3.org/2000/svg" width="244.006" height="83.946" viewBox="0 0 244.006 83.946">
  <path id="Path_33462" data-name="Path 33462" d="M126.542,1478.259v5.908H99.064v-5.908Z" transform="translate(-50.261 -1463.356)" fill="#c9dcb7"/>
  <path id="Path_33463" data-name="Path 33463" d="M134.446,1475.295v23.721h-5.66v5.789c.037.984.46,1.435,1.237,1.435h3.43a.93.93,0,0,0,.851-.533c.211-.327.354-2.051.423-5.256l4.529,1.149c-.248,4.023-.745,6.653-1.522,7.881a3.672,3.672,0,0,1-3.288,1.4h-6.934c-2.3,0-3.43-1.559-3.43-4.639v-7.224h-3.357c-.354,3.325-1.2,5.789-2.616,7.348-1.839,2.133-4.7,3.9-8.663,5.338l-3.324-4.966q5.3-1.359,7.637-3.329a7.068,7.068,0,0,0,2.12-4.391h-4.667v-23.721Zm-4.7,6.732v-2.263H115.916v2.263Zm0,6.239v-2.216H115.916v2.216Zm0,4.019H115.916v2.257h13.826Z" transform="translate(-24.866 -1474.021)" fill="#c9dcb7"/>
  <path id="Path_33464" data-name="Path 33464" d="M146.018,1478.55a42.162,42.162,0,0,1-7.315,1.351v1.522h8.129v3.858H138.7v1.6h7.035v14.244H138.7v1.6h7.458v3.527H138.7v1.765h8.129v4.184H126.393v-2.584c-3.361.9-7.039,1.724-11.035,2.422l-.7-4.639c1.554-.165,3.145-.373,4.7-.658v-10.75H114.94v-4.152h4.414v-2.58h-3.039v-1.931c-.566.657-1.094,1.31-1.66,1.931l-.814-5.421a31.174,31.174,0,0,0,5.09-8.046h4.032a42.776,42.776,0,0,1,4.63,5.627h6.971v-1.191c-2.055.161-4.244.2-6.506.2l-1.1-3.977a87.385,87.385,0,0,0,17.684-1.44Zm-27.087,26.594-3.425.493c-.037-2.465-.179-5.173-.428-8.046l2.9-.286C118.365,1499.484,118.683,1502.11,118.931,1505.144Zm5.66-19.863a59.564,59.564,0,0,0-3.292-5.463,39.262,39.262,0,0,1-3.393,5.463Zm2.23,19.863v2.874h7.743v-1.765h-6.649v-3.527h6.649v-1.6h-6.791v-14.244h6.791v-1.6H127.1v-1.766l-1.2,1.766h.5v3.981h-3.288v2.58h3.568v4.152h-3.568v7.178a28.181,28.181,0,0,0,1.237-6.194l2.759.493a32.781,32.781,0,0,1-1.237,7.017l-2.759-.9v2.46C124.343,1505.8,125.58,1505.471,126.821,1505.144Zm7.881-12.681v-1.89h-2.9v1.89Zm0,2.91h-2.9v2.1h2.9Zm3.853-2.91h3.186v-1.89h-3.186Zm3.186,2.91h-3.186v2.1h3.186Z" transform="translate(2.906 -1475.019)" fill="#c9dcb7"/>
  <path id="Path_33465" data-name="Path 33465" d="M125.729,1483.224c-.143,4.1-.322,7.633-.566,10.594l-3.573-.989a90.035,90.035,0,0,0,.952-9.932Zm4.842-8.17v7.555l1.77-.658a46.562,46.562,0,0,1,1.977,5.582h6.612v-1.76H134v-3.532h6.929V1480.8h-7.886v-3.853h7.886v-1.895h4.529v1.895h8.171v3.853h-8.171v1.439h7.214v3.532h-7.214v1.76H154.3v4.023H132.479v-2.543l-.809.451c-.354-1.563-.708-3.04-1.1-4.35v27.744h-4.313v-37.8Zm22.351,18.1V1509.2c0,2.345-1.31,3.536-3.858,3.536H144.08l-.529-4.354c2.368.124,3.711.165,4,.165.634,0,.952-.367.952-1.113v-.487H138.282v5.908h-4.423v-19.7h19.063Zm-4.423,5.628v-1.766H138.282v1.766Zm0,4.965v-1.765H138.282v1.765Z" transform="translate(30.791 -1474.893)" fill="#c9dcb7"/>
  <path id="Path_33466" data-name="Path 33466" d="M118.433,1488.608q-2.331.5-4.878.864l3.642,1.066a22.641,22.641,0,0,1-1.729,3.2h4.065v7.219h-3.044c1.025,1.232,1.982,2.547,2.9,3.862l-3.324,2.869a36.362,36.362,0,0,0-3.642-5.256c-.317,2.051-.883,3.371-1.7,3.983-.671.575-1.913.823-3.747.823h-4.7c-.317.409-.639.782-.92,1.108h14.038v3.2a20.316,20.316,0,0,1-5.164,4.635,51.445,51.445,0,0,0,10.01.984l-.851,4.8a58.413,58.413,0,0,1-13.651-2.543c-.423-.165-.846-.327-1.2-.493a77.05,77.05,0,0,1-14.286,3.2l-1.8-4.515a67.185,67.185,0,0,0,10.713-1.311,39.317,39.317,0,0,1-3.816-2.548,20.409,20.409,0,0,1-4.281,2.093l-1.908-4.3a19.405,19.405,0,0,0,8.663-4.846c-.814-.574-1.2-1.683-1.2-3.324v-4.516h4.138v3.366c0,.777.386,1.15,1.094,1.15h4.276a4.336,4.336,0,0,0,1.628-.244c.354-.084.6-.824.74-2.18l3.361.823a14.361,14.361,0,0,1-1.025-1.149l3.182-2.382c.423.455.814.9,1.237,1.315V1497.6H105.1a35.742,35.742,0,0,1,3.113,2.1l-2.653,3.2a37.6,37.6,0,0,0-4.134-3.37l1.591-1.927H93.011v1.6l2.9,1.273a28.157,28.157,0,0,1-3.324,7.715l-3.43-2.874a21.752,21.752,0,0,0,2.653-4.349H88.731v-7.219h4.92c-.428-.662-.924-1.356-1.453-2.056l3.43-.859c-1.628.042-3.251.042-4.947.042l-1.131-4.023a173.691,173.691,0,0,0,27.505-1.765Zm-15.523,5.135c-.386-.823-.846-1.687-1.343-2.547l3.219-.782c-2.478.165-5.127.285-7.886.372a16.183,16.183,0,0,1,1.628,2.957Zm1.839,20.925a17.713,17.713,0,0,0,4.63-2.626h-9.9A24.12,24.12,0,0,0,104.75,1514.668Zm5.587-20.925a22.193,22.193,0,0,0,2.267-4.106c-2.019.285-4.138.487-6.368.657a20.077,20.077,0,0,1,1.448,3.448Z" transform="translate(-88.45 -1438.811)" fill="#c9dcb7"/>
  <path id="Path_33467" data-name="Path 33467" d="M112.9,1485.152v9.932h11.6v5.131H112.9v14.612h14.074v5.127h-30.8v-5.127h11.739v-29.675Z" transform="translate(-60.677 -1438.556)" fill="#c9dcb7"/>
  <path id="Path_33468" data-name="Path 33468" d="M133.01,1485.4v7.058h3.467v4.479H133.01v7.219H117.134a17.845,17.845,0,0,1-1.237,2.051,4.512,4.512,0,0,0-.354.5H134.1v14.612h-4.561v-1.766H115.612v1.766h-4.561V1511.5a22.073,22.073,0,0,1-4.842,3.2l-2.621-4.8a16.5,16.5,0,0,0,7.78-5.747h-4.736v-4.349h7.389a27.87,27.87,0,0,0,1.062-2.869H104.544v-4.479h11.67c.143-.86.317-1.766.46-2.745h-9.228V1485.4Zm-3.467,29.8v-4.148H115.612v4.148Zm-10.433-15.394h9.339v-2.869h-8.382C119.75,1497.964,119.433,1498.906,119.111,1499.807Zm2.019-7.348h7.32v-2.745h-6.823C121.483,1490.694,121.3,1491.6,121.129,1492.459Z" transform="translate(-33.984 -1437.656)" fill="#c9dcb7"/>
  <path id="Path_33469" data-name="Path 33469" d="M140.129,1498.557V1511.4H116.367v3.817c0,.906.5,1.315,1.522,1.315h18.387c.566,0,.989-.653,1.2-2.051,0,0,.11-.9.317-2.754l5.237,1.278c-.708,3.817-1.522,6.157-2.373,7.1-.635.7-1.871,1.066-3.711,1.066H117.075c-3.609,0-5.375-1.683-5.375-4.966v-17.651Zm-1.8-13.3v11.2H113.466v-11.2Zm-14.783,17.647h-7.177v4.147h7.177Zm10.116-13.334H118.169v2.584H133.66Zm1.766,13.334h-7.177v4.147h7.177Z" transform="translate(-4.797 -1438.171)" fill="#c9dcb7"/>
  <path id="Path_33470" data-name="Path 33470" d="M147.308,1490.23a144.12,144.12,0,0,1-18.387,2.377v5.5h19.2v4.64h-5.37v13.136h6.9v4.635H119.265v-4.635h4.846v-27.914a115.76,115.76,0,0,0,21.109-2.708Zm-9.265,25.652v-13.136h-9.122v13.136Z" transform="translate(22.422 -1438.171)" fill="#c9dcb7"/>
  <path id="Path_33471" data-name="Path 33471" d="M134.828,1512.255a58.621,58.621,0,0,0,7.32-2.221l.28,5.132a112.56,112.56,0,0,1-15.206,4.515l-.423-5.789c1.2-.161,2.4-.368,3.6-.616v-27.91h4.423v10.594h6.892v4.635h-6.892Zm23.054-18.226a32.4,32.4,0,0,1-10.221,9.357v8.087a5.58,5.58,0,0,0,.46,2.787,3.406,3.406,0,0,0,2.579.74h1.664a1.448,1.448,0,0,0,1.416-.782c.317-.86.529-3.977.671-9.316l4.561,2.423c-.423,5.256-1.025,8.658-1.733,10.263a4.56,4.56,0,0,1-4.35,2.543h-3.674c-2.653,0-4.318-.575-4.952-1.683q-1.062-1.724-1.062-5.665v-27.418h4.419v12.189a26.5,26.5,0,0,0,6.791-7.384Z" transform="translate(49.533 -1437.786)" fill="#c9dcb7"/>
  <path id="Path_33472" data-name="Path 33472" d="M140.487,1487.924c-.074,1.812-.179,3.49-.285,5.136h1.379v-7.555h4.276v7.555h2.478v4.469h-2.478v6.529c.956-.327,1.913-.657,2.9-1.067v1.931H159.4v-2.874H148.621v-4.68h6.644v-3.656h-5.692v-4.51h5.692v-4.147h4.423v4.147h6.184v4.51h-6.184v3.656h7.426v4.68h-3.292v2.874h3.292v4.636h-3.292v8.989c0,2.667-1.168,4.023-3.462,4.023h-4.7l-.814-5.3c2.262.248,3.5.331,3.715.331.566,0,.846-.373.846-1.149v-6.9H148.336v-1.394c-.851.41-1.7.778-2.478,1.108v13.583h-4.276v-11.818c-2.051.819-4.032,1.476-5.941,2.051l-1.237-5.913a70.869,70.869,0,0,0,7.177-1.724v-7.922h-1.8c-.248,2.014-.533,3.9-.814,5.627l-4.317-1.439a84.363,84.363,0,0,0,1.807-14.447Zm15.877,28.2-4.032,2.258a33.789,33.789,0,0,0-3.288-6.727l3.573-1.439A36.635,36.635,0,0,1,156.364,1516.123Z" transform="translate(76.892 -1438.909)" fill="#c9dcb7"/>
</svg>
