<svg id="section4_title2_lg" xmlns="http://www.w3.org/2000/svg" width="349" height="123" viewBox="0 0 349 123">
  <g id="Group_59" data-name="Group 59">
    <path id="Path_110" data-name="Path 110" d="M320.618,1076.449c-.2,3.045-.455,6.1-.761,9.219h9.218q.152,17.442-4.025,27.664c2.012,1.767,3.773,3.466,5.385,5.117l-4.127,7.34a51.344,51.344,0,0,0-4.588-5.76,44.6,44.6,0,0,1-8,9.459l-4.738-6.229a26.986,26.986,0,0,0,7.96-8.041c-2.264-2-4.732-3.94-7.355-5.941,1.414-5.807,2.468-11.453,3.276-16.973h-3.474v-6.637h4.276c.306-3.231.557-6.407.659-9.453Zm2.21,15.856h-3.773q-1.06,7.054-2.569,14.458c1.21.815,2.318,1.639,3.372,2.4A58.884,58.884,0,0,0,322.828,1092.305Zm30.218-13.809v6.235a55.52,55.52,0,0,1-7.451,11.8v2.413h9.062v7.1h-9.062v17.212c-.1,4-3.025,6-8.667,6H332.6l-.958-7.34c3.27.175,5.235.234,5.894.234,1,0,1.557-.823,1.557-2.528v-13.573h-10.02v-7.1H339.1v-6.408a33.988,33.988,0,0,0,5.439-6.871h-14.5V1078.5Z" transform="translate(-308.429 -1075.976)" fill="gold"/>
    <path id="Path_111" data-name="Path 111" d="M328.31,1095.832l-4.331,6.228a61.93,61.93,0,0,0-6.643-7.82l4.331-4.576A58.2,58.2,0,0,1,328.31,1095.832Zm.2,10.344a150.762,150.762,0,0,1-4.732,22.492l-6.295-4.35a100.207,100.207,0,0,0,5.337-20.673Zm0-24.091-4.331,6.168a61.939,61.939,0,0,0-6.5-7.346l4.337-4.576A52.085,52.085,0,0,1,328.514,1082.085Zm16.723-.47h-4.486c-.1,1.819-.251,3.406-.4,4.812h4.684v5.292h-3.127v4.816a34.014,34.014,0,0,0,3.33-2.763v4.528a16.858,16.858,0,0,0,5.738-5.7c.15-.3.3-.589.455-.882h-6l1.964-15.388h14.956v5.284h-4.079c-.1,1.819-.252,3.406-.455,4.812h5.343v5.292H357.42v5.52c0,.942.1,1.356.4,1.356h.407c.9,0,1.407-.653,1.509-2,0,0,.048-1,.251-3.057l3.929,1.411c-.306,4.469-.958,7.171-1.863,8.049a3.794,3.794,0,0,1-2.821.882h-2.57a3.009,3.009,0,0,1-2.72-1.116,6.071,6.071,0,0,1-.809-3.467v-1a37.456,37.456,0,0,1-7.3,6.691l-2.318-4.108a39.236,39.236,0,0,1-5.738,3.7l-1.965-4.818a17.108,17.108,0,0,0,2.169-.877v-3.645a32.027,32.027,0,0,1-8.661,9.748l-2.971-5.225c3.678-2.234,6.139-4.637,7.349-7.165.15-.3.306-.589.455-.882h-6.193l1.959-15.388h15.316Zm15.555,47.7H354.9v-2.295H336.57v2.295h-5.888v-24.09h30.11Zm-24.827-47.7h-2.21l-.857,4.812h2.666C335.767,1084.962,335.869,1083.382,335.965,1081.616Zm18.939,32.134v-3H336.57v3Zm0,8.047v-3H336.57v3Zm-1.462-40.181h-2.216l-.809,4.812h2.522C353.137,1084.962,353.341,1083.382,353.443,1081.616Z" transform="translate(-266.73 -1075.389)" fill="gold"/>
    <path id="Path_112" data-name="Path 112" d="M342.866,1087.928c.048-1.592.1-3.237.1-4.882v-6.871h6.894v6.931c0,1.645-.048,3.291-.1,4.823h18.58c-.1,15.214-.1,22.792-.1,22.792,0,6.693-.551,11.333-1.557,13.857-1.006,2.763-3.073,4.169-6.2,4.169H350.27l-1.21-8.692q8.382.181,10.422.175c1.162,0,1.767-4.462,1.767-13.388v-11.574h-11.89q-1.051,10.83-3.923,17.622c-2.671,6.054-7.355,11.688-14.052,17.038l-5.541-7.345a32.985,32.985,0,0,0,12.644-13.105c1.863-3.465,3.121-8.222,3.821-14.21H329.773v-7.34Z" transform="translate(-224.283 -1076.175)" fill="gold"/>
    <path id="Path_113" data-name="Path 113" d="M315.734,1097.816v-9.869h5.744v9.869h2.971c-.306-.938-.551-1.826-.8-2.763l4.881-1.587a78.739,78.739,0,0,1,3.372,11.286v-17.039h5.487V1115.5c-.144,10.4-3.121,19.033-8.859,25.91l-5.085-4.824A26.62,26.62,0,0,0,331.5,1120.9a59.885,59.885,0,0,1-5.69,6.289l-3.174-7.347a17.254,17.254,0,0,0,1.761-1,38.772,38.772,0,0,0-2.917-4.528v26.438h-5.744v-22.21a69.1,69.1,0,0,1-4.48,10.7l-2.366-9.4a49.237,49.237,0,0,0,6.247-15.567h-5.289v-6.463Zm12.392,14.925-3.072,5.634a33.714,33.714,0,0,0,6.846-6.692v-3.82l-5.133,1.641c-.2-1.7-.455-3.466-.809-5.226h-4.48v2.409A48.609,48.609,0,0,1,328.127,1112.742Zm17.723-7.755A70.174,70.174,0,0,0,349.779,1093l5.139,1.411a79.185,79.185,0,0,1-3.929,15.094l-5.139-2.816v3.638a63.555,63.555,0,0,1,9.62,7.695l-3.726,6.876a60.587,60.587,0,0,0-5.894-6.876v13.987c0,1.405.557,2.055,1.563,2.055h.2a1.51,1.51,0,0,0,1.365-.71c.3-.347.5-2.636.6-6.81l5.744,1.351c-.353,5.519-1.006,9.046-2.012,10.751-.809,1.231-2.217,1.88-4.283,1.88h-4.738c-2.917,0-4.325-2.173-4.325-6.462v-46.35h5.888Z" transform="translate(-308.888 -1018.409)" fill="gold"/>
    <path id="Path_114" data-name="Path 114" d="M361.761,1140.623h-6.3V1138.8H323.786v1.827H317.5v-52.753h44.264Zm-6.3-7.346v-39.887H323.786v30.661a26.648,26.648,0,0,0,9.17-3.586h-6.4v-10.572H352.9v10.572h-4.079l3.121,2.295a19.377,19.377,0,0,1-1.611,2.408q2.192.882,4.534,1.939l-2.366,5.52a78.6,78.6,0,0,0-12.59-5.988l2.563-4.115c.863.235,1.719.529,2.624.762.551-.936,1.054-1.88,1.557-2.822h-6.595a3.545,3.545,0,0,1-.5.528v10.7h-5.738v-5.579a31.9,31.9,0,0,1-7.858,3.994l-2.168-5.057v8.229Zm-18.885-37.359v-2.295h6.3v2.295h9.463v5.051h-9.463v2.055h11.434v5.05H325v-5.05H336.58v-2.055h-9.823v-5.051ZM347,1114H332.453v2.293H347Z" transform="translate(-265.932 -1017.624)" fill="gold"/>
    <path id="Path_115" data-name="Path 115" d="M337.766,1105.976h2.318a43.7,43.7,0,0,0,2.719-6.644l5.289,1.593a42.81,42.81,0,0,1-1.965,5.051h4.331v5.993h-8.865v3.646h7.859v6.223h-6.194a52.191,52.191,0,0,1,5.637,5.231l-3.372,6.223a47.355,47.355,0,0,0-3.929-5.46v13.039H335.9V1128.24a35.161,35.161,0,0,1-7.655,9.64l-2.563-7.345c4.228-2.7,7.3-5.647,9.11-8.7h-6.744v-6.223H335.9v-3.646h-8.859v-5.993h4.834a48.617,48.617,0,0,0-2.066-5.051l5.69-1.352A34.51,34.51,0,0,1,337.766,1105.976Zm4.636-13.1h6.7v5.987h-20.85v-5.987h7.505c-.251-1.237-.557-2.468-.857-3.638l6.5-1.593C341.8,1089.238,342.1,1091,342.4,1092.876Zm29.709,2.523a37.037,37.037,0,0,1-14.2,3.116v8.4h14v6.409h-3.576v28.433h-6.092v-28.433h-4.384c-.305,11.981-2.318,21.441-6.043,28.258l-5.085-5.058c3.372-6.107,5.085-14.277,5.085-24.553V1092.7c7.152,0,13.046-1.3,17.723-3.941Z" transform="translate(-225.077 -1018.755)" fill="gold"/>
    <path id="Path_116" data-name="Path 116" d="M351.508,1099.324V1094.5H340.678v-6.63h17.73v11.453H375.73v33.954c0,4.114-1.965,6.222-5.888,6.222h-7.505l-.958-7.573c3.725.173,5.792.234,6.295.234.9,0,1.36-.589,1.36-1.821v-6.462l-3.929,3.934a42.286,42.286,0,0,1-10.021-16.739c-.9,6.517-4.229,12.391-10.069,17.622l-3.528-4.114v16.043h-6.9v-41.3h16.921Zm-.605,6.927h-9.416v15.633A29.018,29.018,0,0,0,350.9,1106.251Zm18.131,14.984v-14.984h-9.973Q361.325,1114.1,369.033,1121.234Z" transform="translate(-180.658 -1017.624)" fill="gold"/>
    <path id="Path_117" data-name="Path 117" d="M363.93,1093.813a69.729,69.729,0,0,1-6.7,2.176v6.99h6.7v6.229h-6.7v1.646a49.39,49.39,0,0,1,6.9,5.933l-3.372,6.169a42.76,42.76,0,0,0-3.528-4.823v23.623h-5.894v-22.092a40.96,40.96,0,0,1-6.091,10.162l-2.767-7.988a30.555,30.555,0,0,0,8.26-12.631h-7.5v-6.229h8.1V1097.4c-2.012.469-4.073.883-6.289,1.231l-1.815-6.871a76.226,76.226,0,0,0,18.131-3.7Zm25.534,32.133-5.289.89v14.919h-6.493v-13.869l-15.914,2.649-.4-7.346,16.316-2.7v-32.842h6.493v31.784l4.935-.823Zm-12.59-27.549-3.121,7.11a59.233,59.233,0,0,0-10.428-8.69l3.33-5.292A56.373,56.373,0,0,1,376.874,1098.4Zm-.347,14.216-3.175,7.11a61.328,61.328,0,0,0-9.823-8.462l3.324-5.285A55.534,55.534,0,0,1,376.526,1112.613Z" transform="translate(-141.27 -1018.755)" fill="gold"/>
    <path id="Path_118" data-name="Path 118" d="M377.872,1088.852a27.33,27.33,0,0,0,3.169,4.87,44.144,44.144,0,0,0,8.409-6.048l4.738,3.466a47.06,47.06,0,0,1-9.619,6.462,24.071,24.071,0,0,0,2.114,1.82,43.626,43.626,0,0,0,6.9-5.285l4.732,3.406a41.452,41.452,0,0,1-7.1,5.226,51.175,51.175,0,0,0,6.493,3.525l-2.516,7.345a82.782,82.782,0,0,1-10.075-7.051v3.112H364.275v-2.287a47.75,47.75,0,0,1-10.224,5.759l-3.12-7.112a29.655,29.655,0,0,0,6.744-2.588,50.89,50.89,0,0,0-3.827-4.29l4.534-3.464a59.441,59.441,0,0,1,4.432,4.527,47.489,47.489,0,0,0,6.092-5.4h-12.89v-5.989Zm-7.757,45.406h8.308a31.738,31.738,0,0,0,3.977-5.7l6.7,1.826a32.187,32.187,0,0,1-2.827,3.874h9.673v5.987h-43.06v-5.987h10.476a51.454,51.454,0,0,0-3.42-4.348l6.289-1.586A26.256,26.256,0,0,1,370.115,1134.259Zm21.7-21.563v15.394H357.626V1112.7Zm-6.091,5.761H363.718v3.873h22.006Zm-3.522-14.45a37.006,37.006,0,0,1-6.6-8,52.259,52.259,0,0,1-7.152,8Z" transform="translate(-99.112 -1018.605)" fill="gold"/>
    <path id="Path_119" data-name="Path 119" d="M364.774,1100.456v-12.811h6.1v12.811h3.923v7.345h-3.923v12.566c1.258-.524,2.515-1.111,3.725-1.76v2.582a19.162,19.162,0,0,0,4.534-4.4h-5.894v-5.525h32.428v5.525H385.27c-.4.823-.755,1.581-1.108,2.3h20.347v5.633c0,8.283-.659,13.106-1.863,14.57-1.312,1.346-3.63,2.054-7,2.054h-2.57l-.952-6.7c2.06.181,3.222.235,3.522.235a3.082,3.082,0,0,0,2.114-.583c.305-.474.5-3.759.659-9.927H396.3a26.5,26.5,0,0,1-3.318,7.987,34.287,34.287,0,0,1-8.164,9.226l-4.48-5.058a31.337,31.337,0,0,0,7.858-6.931,15.867,15.867,0,0,0,2.869-5.224h-2.671a24.682,24.682,0,0,1-3.923,6.576,34.013,34.013,0,0,1-8.667,7.165l-3.773-5.754a25.65,25.65,0,0,0,7.858-4.815,14.967,14.967,0,0,0,2.617-3.172h-2.012a24.3,24.3,0,0,1-5.7,4.576l-.857-2.168a76.809,76.809,0,0,1-13.291,5.345l-1.21-8.228a41.343,41.343,0,0,0,5.337-1.352V1107.8h-4.936v-7.345Zm37.771-11.218v19.735H377.161v-19.735Zm-6.091,7.345v-2.295h-13.2v2.295Zm0,4.81h-13.2v2.529h13.2Z" transform="translate(-56.665 -1018.755)" fill="gold"/>
  </g>
</svg>
