<svg id="section2_subtitle" xmlns="http://www.w3.org/2000/svg" width="289.039" height="24.576" viewBox="0 0 289.039 24.576">
  <path id="Path_21290" data-name="Path 21290" d="M95.659,354.256H85.882v16.638h8.977v.451a13.552,13.552,0,0,0,1.55-3.251,20.2,20.2,0,0,0,1.021-5.979v-2.382c-.386,1-.819,2.01-1.32,3.017l-1.43-2.672v1.214H87.22v-6.218h7.459v4.263a20.583,20.583,0,0,0,1.228-3.495,36.636,36.636,0,0,0,.819-5.289l2.571.29c-.115,1.269-.253,2.46-.437,3.518h4.8v2.065a50.263,50.263,0,0,1-.888,6.507l-2.318-.819a36.3,36.3,0,0,0,.7-4.948H98.271c-.046.211-.115.423-.161.607-.133.423-.271.846-.409,1.246h2.663v3.095a17.262,17.262,0,0,0,1.067,5.923,10.9,10.9,0,0,0,2.75,4.208l-1.587,2.883a16.66,16.66,0,0,1-2.276-3.362,19.225,19.225,0,0,1-1.458-4.6,18.01,18.01,0,0,1-1.067,4.18,15.51,15.51,0,0,1-2.318,3.785l-.888-1.242H85.882v1.03H83.495V351.373H95.659Zm-5.049,7.859v7.961H86.516v-7.961ZM89,364.387h-.888V367.8H89Zm3.389-7.036H89.542v1.669h2.842Zm2.929,4.764v7.961H91.221v-7.961ZM93.7,364.387h-.888V367.8H93.7Z" transform="translate(-83.495 -350.554)" fill="#fff"/>
  <path id="Path_21291" data-name="Path 21291" d="M99.5,354.853c-.046-1.348-.069-2.778-.069-4.258h2.906c0,1.531.023,2.966.074,4.258h2.75a18.872,18.872,0,0,0-1.913-2.7l1.936-1.453a21.074,21.074,0,0,1,2.41,3.017l-1.251,1.136h2.318v3.2H102.5a58.014,58.014,0,0,0,.455,6.19,18.134,18.134,0,0,0,1.136,4.737c.432.98.8,1.453,1.094,1.453.409,0,.635-.819.727-2.461,0,0,.023-.5.087-1.559l2.575,1.665a12.066,12.066,0,0,1-1.118,5.027,2.613,2.613,0,0,1-2.272,1.269c-.819,0-1.66-.658-2.5-1.955a16.757,16.757,0,0,1-2.207-5.951,58.987,58.987,0,0,1-.865-8.416H88.4v-3.2Zm-.34,5.978v3.2H95.524v4.5c1.407-.235,2.791-.529,4.157-.874v3.311c-3.228.791-6.8,1.476-10.729,2.06l-.547-3.518c1.412-.106,2.8-.29,4.185-.5v-4.976H89.04v-3.2Z" transform="translate(-65.825 -350.41)" fill="#fff"/>
  <path id="Path_21292" data-name="Path 21292" d="M100.464,351.98a48.138,48.138,0,0,1-2.7,7.041h2.888a36.9,36.9,0,0,1-1.978,10.554,1.345,1.345,0,0,0-.092.184c1.159,1.058,4.185,1.564,9.073,1.564.451,0,2.658-.055,6.664-.212l-.708,3.408c-4.18,0-6.277-.051-6.277-.106q-7.5,0-10.159-2.217a18,18,0,0,1-2.3,2.539l-1.591-3.017a7.838,7.838,0,0,0,2.046-2.037,25.035,25.035,0,0,1-1.8-5.61l2.322-.607a22.3,22.3,0,0,0,.865,3.228,31.544,31.544,0,0,0,.888-5.081H93.713c1.09-2.249,2.069-4.415,2.934-6.535H93.713V351.98Zm4.617-.207v-1.219h2.75v1.219h4.981v3.73h1.067V358.2h-1.067V361.9h-4.981v1.03h5.344v2.594h-5.344v1.03h5.684v2.7h-5.684v1.637h-2.75v-1.637h-5.068v-2.7h5.068v-1.03H100.92v-2.594h4.162V361.9h-3.73v-2.566h3.73V358.2h-5.068V355.5h5.068v-1.141h-3.638v-2.589Zm2.75,3.73h2.23v-1.141h-2.23Zm0,3.835h2.23V358.2h-2.23Z" transform="translate(-48.277 -350.554)" fill="#fff"/>
  <path id="Path_21293" data-name="Path 21293" d="M103.984,350.95c-.184.423-.34.8-.5,1.136h5.3v2.01a11.33,11.33,0,0,0,1.867-3.541l2.681.4c-.161.423-.317.8-.455,1.136h6.047v2.7h-3.205a13.7,13.7,0,0,1,.612,1.747l-2.837.317a11.3,11.3,0,0,0-.432-2.065h-1.481a18.194,18.194,0,0,1-1.274,2.065L107.985,355a1.815,1.815,0,0,0,.207-.212h-2.364c.248.74.432,1.4.566,1.959l-2.658.317c-.092-.713-.207-1.481-.363-2.276h-1.251a17.171,17.171,0,0,1-1.6,2.382l-2.295-1.881a11.247,11.247,0,0,0,3.1-4.732Zm3.205,6.4v2.488h-2.842v2.276a25.8,25.8,0,0,0,2.842-.612l.138,1.14a7.358,7.358,0,0,0,.934-.451,7.42,7.42,0,0,1-.708-.29l1.164-1.853c.336.106.7.239,1.113.4.069-.234.133-.474.179-.713H107.8v-2.488h8.462V361.9c0,.368.115.524.34.524.294,0,.455-.313.455-.979v-.791l2.387.635c-.138,1.931-.455,3.017-.957,3.283a2.237,2.237,0,0,1-1.338.34H115.9c-1.435,0-2.138-.74-2.138-2.272v-2.911h-1.343a9.354,9.354,0,0,1-.294,1.692c.432.211.888.451,1.366.69l-1.049,2.483c-.543-.345-1.067-.658-1.568-.975a6.655,6.655,0,0,1-1.476,1.186h.635v1.141h8.8v2.566h-6.2a8.637,8.637,0,0,0,1.752,1.081,18.928,18.928,0,0,0,4.976,1.513l-1.5,2.985a18.671,18.671,0,0,1-5.459-2.672,12.19,12.19,0,0,1-2.364-2.378v5.873h-2.842V369.1a14.12,14.12,0,0,1-2.589,2.46,20.756,20.756,0,0,1-5.141,2.539l-1.228-2.985a17.7,17.7,0,0,0,6.139-2.594H98.484v-2.566h8.706V364.81h.934l-.658-1v.051a34.23,34.23,0,0,1-8.889,1.564l-.345-2.778c1.159,0,2.322-.055,3.458-.161v-2.644h-2.75v-2.488Z" transform="translate(-30.463 -350.554)" fill="#fff"/>
  <path id="Path_21294" data-name="Path 21294" d="M114.291,365.528v2.589h-2.23v2.672c.023.635.23.929.639.929h8.071a1.25,1.25,0,0,0,.75-.189c.092-.051.161-.262.2-.635h-1.748l-.34-2.778c.814.083,1.292.106,1.407.106.34,0,.524-.239.524-.741v-3.2a24.324,24.324,0,0,1-1.412,2.7l-1.246-2.911a11.365,11.365,0,0,0,2.658-3.546V359.6l-1.683.662a48.555,48.555,0,0,0-.8-5.082l1.591-.5c.271.98.57,2.249.888,3.835v-4.576h-2.479v-2.883h4.8v17.567a2.613,2.613,0,0,1-.386,1.536l1,.235a6.789,6.789,0,0,1-.98,3.6,2.82,2.82,0,0,1-2.115.635h-10.14c-1.315,0-1.954-.98-1.954-2.911v-3.6h-1.026a12.925,12.925,0,0,1-.635,3.518,9.232,9.232,0,0,1-2.318,3.283l-2.23-2.46a5.387,5.387,0,0,0,2.046-1.987,6.074,6.074,0,0,0,.639-2.355h-2.253v-2.589Zm-6.756-13.755v-1.219h2.5v1.219h3v2.088h-3v1.32h3.822v2.171h-1.435V358.8h1.251v2.065h-1.251v1.665h1.435v2.175h-4.709v-2.175h1.232v-1.665h-1.159V358.8h1.159v-1.453h-2.847V358.8H108.7v2.065h-1.164v1.352a12.411,12.411,0,0,0,1.435-.212v2.166a37.608,37.608,0,0,1-4.889.74l-.363-2.382c.616,0,1.2-.051,1.775-.106v-1.559h-1.32V358.8h1.32v-1.453h-1.6v-2.171h3.638v-1.32h-2.929v-2.088Zm11.189-.717v17.567c0,1.536-.681,2.272-2.023,2.272h-1.706l-.34-2.778c.727.083,1.136.106,1.228.106.363,0,.543-.239.543-.741v-3.306a27.888,27.888,0,0,1-1.251,2.911l-1.223-2.911a12.1,12.1,0,0,0,2.474-3.886v-.69l-1.679.662c-.23-1.932-.5-3.6-.8-4.976l1.591-.5c.271.952.566,2.221.883,3.785v-4.631h-2.658v-2.883Z" transform="translate(-12.933 -350.554)" fill="#fff"/>
  <path id="Path_21295" data-name="Path 21295" d="M128.69,362.327a48.09,48.09,0,0,1-.7,5.79l-2.046-.423v1.748h-5.592v1.8c.773.055,1.637.083,2.566.083.593,0,2.686-.106,6.3-.322l-.524,3.205h-6.365a18.6,18.6,0,0,1-6.728-.874,7.187,7.187,0,0,1-2.64-1.959,14.46,14.46,0,0,1-2.566,3.256l-2.3-2.382a8.894,8.894,0,0,0,3.822-6.112l2.75.423a17.47,17.47,0,0,1-.612,2.405,5.261,5.261,0,0,0,1.656,1.325,8.456,8.456,0,0,0,1.619.556V365.1h-8.255v-2.773ZM112.8,352.619v-2.065h2.566v2.065h2.842v2.456h-2.842v.478a20.074,20.074,0,0,1,2.934,2.01l-1.343,2.488a12.569,12.569,0,0,0-1.591-1.665v3.224H112.8V358.3a15.56,15.56,0,0,1-3.21,3.2l-1.315-2.7a13.091,13.091,0,0,0,4.226-3.73h-3.794v-2.456Zm9.322,0v-2.065h2.566v2.065H128.6v2.456h-3.661a11.661,11.661,0,0,0,4.456,3.412l-1.232,3.123a13.211,13.211,0,0,1-3.477-3.624v3.624h-2.566v-3.1a14.825,14.825,0,0,1-3.026,3.178l-1.32-2.672a12.58,12.58,0,0,0,4.139-3.946H119v-2.456Zm2.906,14.362c.207-.635.363-1.269.5-1.881h-5.183v1.881Z" transform="translate(5.025 -350.554)" fill="#fff"/>
  <path id="Path_21296" data-name="Path 21296" d="M114.52,356.533V352.8h3.205v3.73Z" transform="translate(28.158 -342.46)" fill="#fff"/>
  <path id="Path_21297" data-name="Path 21297" d="M126.252,367.122a23.793,23.793,0,0,1-7.547,6.4l-1.683-2.989a25.244,25.244,0,0,0,6.912-5.289Zm9.685-16.321v13.41h-16.62V350.8Zm-3.021,3.1H122.343v7.225h10.573Zm4.976,17.356-2.681,2.378a34.9,34.9,0,0,0-6.024-6.613l2.479-1.954A43.524,43.524,0,0,1,137.891,371.252Z" transform="translate(37.162 -349.665)" fill="#fff"/>
  <path id="Path_21298" data-name="Path 21298" d="M141,371.718h1.932v2.589H121.992v-2.589h1.683v-4.948H141ZM126.858,351.98v-1.426h2.773v1.426h2.207v2.488h-2.207v1.141h-2.773v-1.141h-4.8V351.98Zm4.185,4.341v-1.141h2.75v1.141h7.114v2.272h-7.114v1.141h8.618v2.488h-4.093a37.988,37.988,0,0,1,3.569,2.06l-1.522,2.17q-.649-.476-1.228-.952-6.415.593-16.1.635l-.437-2.672c.957.051,1.752.106,2.437.133a10,10,0,0,0,1.5-1.375h-4.116v-2.488h8.618v-1.141h-7.1v-2.272Zm-2.479,15.4v-2.46h-2.138v2.46Zm6.572-8.784.7-.713h-6.231a11.351,11.351,0,0,1-1.343,1.453c2.911,0,5.574-.051,7.938-.133C135.816,363.329,135.453,363.118,135.135,362.934Zm-1.775,8.784v-2.46h-2.23v2.46Zm1.775-19.738v-1.426h2.75v1.426h4.8v2.488h-4.8v1.141h-2.75v-1.141H132.9V351.98Zm3.09,19.738v-2.46h-2.3v2.46Z" transform="translate(55.048 -350.554)" fill="#fff"/>
  <path id="Path_21299" data-name="Path 21299" d="M133.13,351.69c-.294,1.43-.658,2.805-1.067,4.125v18.814H129.4V362.166c-.455.846-.906,1.669-1.407,2.433l-1.072-3.836a30.341,30.341,0,0,0,3.366-9.919Zm5.684,0v-1.136h2.75v1.136h5.96v2.566h-5.96v1.03h5.413v7.859h-.432c.547.768.98,1.453,1.343,2.06l-1.435,1.959c-.225-.423-.455-.846-.681-1.269-.317.055-.612.078-.91.106v1.481h3.095v2.594h-3.095v2.171c0,1.642-.681,2.488-2.046,2.488h-2.842l-.363-3.017c1.09.078,1.729.106,1.862.106.414,0,.639-.188.639-.607v-1.14h-5.164a22.214,22.214,0,0,1,2.322,2.276l-2.134,1.853A17.592,17.592,0,0,0,134.11,371l1.2-.924H132.7v-2.594h9.414v-1.242c-2.681.211-5.753.317-9.165.317l-.336-2.594c2.272.161,3.546.211,3.84.211.819,0,1.591,0,2.364-.027v-1H133.5v-7.859h5.316v-1.03h-5.5V351.69Zm0,6.7v-1.034h-2.75v1.034Zm0,1.559h-2.75v1.136h2.75Zm2.75-1.559h2.847v-1.034h-2.847Zm2.847,1.559h-2.847v1.136h2.847Zm-.391,3.2h-2.456v.925c1.048-.023,2.046-.078,3-.156C144.384,363.647,144.2,363.385,144.02,363.146Z" transform="translate(72.79 -350.554)" fill="#fff"/>
  <path id="Path_21300" data-name="Path 21300" d="M134.352,356.917v-4.87h3.205v4.87h2.934V350.7h3v6.218h3.205v-6.323h3.026v6.323h3.113v3.095h-3.113v7.749h-9.23v-7.749h-2.934v10.026h14.459v3.095H137.557v1.642h-3.205V360.012h-2.479v-3.095Zm9.138,7.749h3.205v-4.654H143.49Z" transform="translate(90.608 -350.41)" fill="#fff"/>
  <path id="Path_21301" data-name="Path 21301" d="M139.03,357.167v-6.429h2.681v6.429h1.683v2.989h-1.683V365.9a17.226,17.226,0,0,0,1.683-.9v2.033a23.215,23.215,0,0,0,.432-4.5v-8.6H150.6c-.023-1.085-.023-2.221-.023-3.385h2.75c0,1.219,0,2.327.023,3.385h1.954a12.846,12.846,0,0,0-1.522-2.166l2.207-1.14a6.612,6.612,0,0,1,1.7,1.987l-1.794,1.32h1.955v2.805H153.4c.046,2.594.156,4.732.294,6.424a46.06,46.06,0,0,0,1.5-4.682l2.138,1.141a44.464,44.464,0,0,1-2.975,8.278c.451,2.01.837,2.989,1.2,2.989q.138,0,.276-1.269s.046-.662.161-2.037l2.226,1.669a13.955,13.955,0,0,1-1.43,4.815,1.482,1.482,0,0,1-1.232.846c-.727,0-1.453-.612-2.18-1.8a10.723,10.723,0,0,1-.98-2.01,21,21,0,0,1-3.592,3.808l-1.862-2.672a16.224,16.224,0,0,0,4.525-4.787V367.4a70.456,70.456,0,0,1-.819-10.66h-4.162v2.488h3.822v2.778c0,4.07-.276,6.48-.777,7.169a3.4,3.4,0,0,1-2.86,1h-.253l-.363-2.433a24.566,24.566,0,0,1-2.318,7.091l-2.479-2.488a14.037,14.037,0,0,0,1.729-3.7,31.284,31.284,0,0,1-5.643,2.672l-.52-3.628a16.811,16.811,0,0,0,2.207-.635v-6.9h-1.959v-2.989Zm7.639,10.1a1.093,1.093,0,0,0,.883-.29,27.331,27.331,0,0,0,.276-4.971h-1.343v.524a30.522,30.522,0,0,1-.34,4.659C146.462,367.248,146.623,367.271,146.669,367.271Z" transform="translate(108.422 -350.554)" fill="#fff"/>
  <path id="Path_21302" data-name="Path 21302" d="M148.437,351.44a29.387,29.387,0,0,1-1.522,4.258v10.715h-2.663V360.33a21.505,21.505,0,0,1-1.412,1.853l-1.067-3.734a19.873,19.873,0,0,0,3.909-7.855Zm2.387,15.9V365.7h2.842v1.637h7.363v2.7h-7.363v1.425H162.8v2.805h-21.03v-2.805h9.05v-1.425H143.64v-2.7ZM161.4,351.123v5.689h-4.8v1.242h5.864v2.566h-3.412a4.507,4.507,0,0,0,.865.819,8.46,8.46,0,0,0,2.819,1.352l-1.522,2.911a9.712,9.712,0,0,1-3.251-2.488A10.627,10.627,0,0,1,156.6,361.1v5.21h-2.847v-5a7.925,7.925,0,0,1-1.136,1.536,13.262,13.262,0,0,1-3.569,2.755L147.278,363a11.523,11.523,0,0,0,3.159-1.669,3.577,3.577,0,0,0,.75-.713H147.8v-2.566h5.956v-1.242h-4.8v-5.689Zm-2.842,2.171H151.8v1.348h6.756Z" transform="translate(126.236 -350.41)" fill="#fff"/>
</svg>
