<svg id="section4_title4_lg" xmlns="http://www.w3.org/2000/svg" width="349.331" height="123" viewBox="0 0 349.331 123">
  <g id="Group_121" data-name="Group 121" transform="translate(0)">
    <path id="Path_506" data-name="Path 506" d="M320.627,1438.168c-.2,3.045-.456,6.1-.761,9.207h9.225c.1,11.6-1.259,20.813-4.028,27.61,2.014,1.762,3.777,3.459,5.389,5.1l-4.13,7.331a51.242,51.242,0,0,0-4.592-5.748,44.535,44.535,0,0,1-8.009,9.435l-4.741-6.21a26.907,26.907,0,0,0,7.966-8.032c-2.266-2-4.735-3.927-7.361-5.923,1.415-5.8,2.47-11.431,3.279-16.94h-3.477v-6.624h4.28c.306-3.231.558-6.4.659-9.441ZM322.839,1454h-3.777q-1.061,7.031-2.571,14.423c1.211.821,2.32,1.642,3.375,2.4A58.645,58.645,0,0,0,322.839,1454Zm30.242-13.782v6.216a55.289,55.289,0,0,1-7.457,11.785v2.4h9.07v7.091h-9.07v17.18c-.1,3.986-3.027,5.977-8.674,5.977h-4.328l-.959-7.319c3.273.174,5.239.234,5.9.234,1,0,1.559-.822,1.559-2.524v-13.547H329.091v-7.091H339.12v-6.39a33.951,33.951,0,0,0,5.443-6.857H330.05v-7.158Z" transform="translate(-308.225 -1437.694)" fill="gold"/>
    <path id="Path_507" data-name="Path 507" d="M332.659,1439.577a99.642,99.642,0,0,1-3.531,12.486v39.461h-6.1V1465.43c-1.109,1.99-2.32,3.932-3.531,5.743l-2.164-8.033c4.28-6.8,7.409-15.244,9.423-25.206Zm30.134,0v6.389h-12.8v3.459h11.437v23.8H349.689a30.618,30.618,0,0,1-1.559,7.678c-.2.468-.354.881-.5,1.229a29.906,29.906,0,0,0,10.634,1.649H363.6l-1.612,6.851c-7.511,0-13.254-1.048-17.288-3.159-.3-.174-.606-.293-.8-.407-.5.348-.959.641-1.415.935a21.4,21.4,0,0,1-11.192,2.866l-1.361-6.678a21.772,21.772,0,0,0,8.171-1.409,33.616,33.616,0,0,1-5.443-6.564l3.273-2.99h-3.273v-23.8h11.036v-3.459h-10.43v-6.389Zm-20.663,39.275a21.948,21.948,0,0,0,1.211-5.622h-5.749A25.824,25.824,0,0,0,342.13,1478.852Zm1.565-20.279v-3.465h-5.143v3.465Zm0,5.035h-5.143v3.873h5.143Zm6.3-5.035h5.491v-3.465h-5.491Zm5.491,5.035h-5.491v3.873h5.491Z" transform="translate(-266.486 -1437.694)" fill="gold"/>
    <path id="Path_508" data-name="Path 508" d="M330.987,1448.684v-10.316h5.893v10.316h4.136v6.624H336.88v7.684c1.115-.467,2.17-.995,3.177-1.522v-3.4h11.186v-2.764H342.58v-5.683h8.662v-2.289H340.614v-5.983h10.628v-3.459h6.1v3.459h13.607v5.983H357.345v2.289h12.043v7.973h2.17v6.45h-2.17v8.032H357.345v2.932h12.043v5.275H357.345v3.285a79.209,79.209,0,0,0,9.07.414c.606,0,2.32-.12,5.143-.467l-1.007,6.851h-5.2c-6.6-.113-11.485-.7-14.608-1.756a15.593,15.593,0,0,1-5.293-3.459,31.956,31.956,0,0,1-3.633,6.151l-4.736-4.8a21.44,21.44,0,0,0,5.5-13.073l5.743.935a45.748,45.748,0,0,1-.959,5.167,9.565,9.565,0,0,0,3.633,2.632c.1.06.15.114.246.114v-10.2h-9.016v-5.748h9.016v-2.758H340.56l.252,4.58c-1.307.7-2.619,1.409-3.932,2.05v14.89c0,3.639-1.613,5.509-4.736,5.509h-4.885l-1.211-7.32c2.266.348,3.525.468,3.729.468.8,0,1.211-.528,1.211-1.649v-9.375c-1.511.588-3.027,1.17-4.538,1.637l-.606-7.793a41.656,41.656,0,0,0,5.143-1.348v-9.915h-4.939v-6.624Zm26.357,9.387h6.1v-2.764h-6.1Zm0,8.261h6.1v-2.758h-6.1Z" transform="translate(-223.999 -1437.894)" fill="gold"/>
    <path id="Path_509" data-name="Path 509" d="M314.753,1459.627v-9.622H319.9v9.622h2.919v2.224a5.32,5.32,0,0,0,1.013-.12,55.919,55.919,0,0,0,2.518-11.725l4.736,1.649a79.884,79.884,0,0,1-2.871,9.142,1.928,1.928,0,0,1-.2.413c.809-.12,1.612-.233,2.422-.413.7-1.87,1.307-3.867,1.864-5.976l3.423,1.636c-.048-2.224-.1-4.628-.1-7.091h5.137c.054,4.1.156,7.8.252,11.138h.51a44.83,44.83,0,0,0,3.171-10.5l4.688,1.649a81.124,81.124,0,0,1-3.177,8.266c.605-.12,1.259-.233,1.864-.413.707-1.643,1.313-3.339,1.918-5.095l4.538,2.043a85.732,85.732,0,0,1-4.088,8.152l2.727-.821a52.187,52.187,0,0,1,2.919,10.263l-4.334,1.4c-.1-.755-.2-1.517-.3-2.224a46.736,46.736,0,0,1-9.675,1.643c.1,1.289.252,2.4.348,3.345h4.238c-.306-1.056-.605-2.056-.911-3l5.749-.467c.2,1.175.4,2.289.606,3.465h3.729v5.5H343.076a34.894,34.894,0,0,0,1.565,5.575,25.453,25.453,0,0,0,3.579-5.162l4.334,2.29a42.332,42.332,0,0,1-5.191,7.972c.8,1.109,1.564,1.643,2.218,1.643.905,0,1.409-1.116,1.612-3.345,0,0,.048-.7.2-2.111l4.49,2.758c-.306,3.813-1.007,6.336-2.068,7.679a5.2,5.2,0,0,1-4.232,1.93c-2.02,0-4.034-1.516-6.048-4.454a2.284,2.284,0,0,0-.2-.294,39.582,39.582,0,0,1-8.116,4.748l-3.729-5.275a32.98,32.98,0,0,0,9.076-4.688,38.305,38.305,0,0,1-2.368-7.852,12.987,12.987,0,0,1-.252-1.415h-6.354c-.048.587-.1,1.181-.1,1.708a43.235,43.235,0,0,1,6.906,3.987l-2.973,5.508a39.739,39.739,0,0,0-4.586-3.812,28.927,28.927,0,0,1-.707,3.051,24.231,24.231,0,0,1-4.933,8.554l-4.136-5.275a14.476,14.476,0,0,0,4.082-6.156,30.53,30.53,0,0,0,1.259-7.565h-3.375v-4.454l-.809,1.469c-.7-1.818-1.463-3.574-2.314-5.336v27.317h-5.143v-23.564a85.284,85.284,0,0,1-3.729,12.073l-2.17-8.441a63.843,63.843,0,0,0,4.736-17.174h-3.375v-5.982Zm8.266,11.024a19.834,19.834,0,0,0,2.62-.12,34.922,34.922,0,0,0,2.674-4.747c-1.918.467-3.885.821-5.9,1.168l-.1-1.342H319.9v2.517c1.259,1.409,2.368,2.637,3.321,3.812Zm13.709,4.046-2.877,1c-.1-.708-.252-1.349-.348-2.051-2.878.822-5.695,1.463-8.518,2.051l-1.361,2.523h2.925v-2.523h5.137v2.523h5.443C336.98,1477.1,336.824,1475.926,336.728,1474.7Zm-4.79-7.1c-.5.875-.959,1.636-1.361,2.343l1.966-.347C332.34,1468.948,332.143,1468.3,331.938,1467.6Zm3.878-8.56c-1.007,2.577-1.966,4.868-2.973,6.864l1.613-.533c.809,2.109,1.463,4.052,1.966,5.862C336.123,1467.6,335.919,1463.493,335.817,1459.04Zm5.6,10.849h.755a44,44,0,0,0,3.477-5.341,28.22,28.22,0,0,1-4.484.7C341.212,1466.951,341.314,1468.474,341.416,1469.889Zm8.266-3.985c-.863,1.343-1.667,2.571-2.422,3.632a31.89,31.89,0,0,0,3.327-.473C350.287,1468.007,349.982,1466.951,349.682,1465.9Z" transform="translate(-308.854 -1380.602)" fill="gold"/>
    <path id="Path_510" data-name="Path 510" d="M322.572,1460.183V1449.86h5.893v10.323H332.6v6.623h-4.136v7.685c1.115-.467,2.17-1,3.177-1.522v-3.4h11.186v-2.764h-8.662v-5.688h8.662v-2.284H332.2v-5.983h10.628v-3.459h6.1v3.459h13.607v5.983H348.93v2.284h12.043v7.973h2.17v6.456h-2.17v8.026H348.93v2.937h12.043v5.275H348.93v3.279a78.856,78.856,0,0,0,9.07.42c.606,0,2.32-.125,5.143-.473l-1.007,6.857h-5.2c-6.6-.113-11.485-.7-14.614-1.756a15.615,15.615,0,0,1-5.287-3.459,32.106,32.106,0,0,1-3.633,6.15l-4.736-4.8a21.443,21.443,0,0,0,5.5-13.074l5.742.936a45.682,45.682,0,0,1-.959,5.161,9.544,9.544,0,0,0,3.627,2.637c.108.06.156.115.252.115v-10.2h-9.016v-5.743h9.016v-2.758H332.145l.252,4.574c-1.313.7-2.619,1.416-3.932,2.056v14.89c0,3.639-1.612,5.509-4.735,5.509h-4.885l-1.211-7.325c2.266.348,3.525.468,3.728.468.8,0,1.211-.527,1.211-1.643v-9.38c-1.51.593-3.027,1.175-4.538,1.643l-.606-7.793a40.664,40.664,0,0,0,5.143-1.355v-9.909h-4.939v-6.623Zm26.358,9.387h6.1v-2.764h-6.1Zm0,8.26h6.1v-2.758h-6.1Z" transform="translate(-266.027 -1380.457)" fill="gold"/>
    <path id="Path_511" data-name="Path 511" d="M368.365,1501.2h-6.1v-2.278H332.176v2.278h-6.1v-51.529h42.285Zm-6.1-8.266v-7.211a12.97,12.97,0,0,1-2.164,4.693,3.115,3.115,0,0,1-2.524,1.409c-1.511,0-3.075-.935-4.688-2.931a5.807,5.807,0,0,1-.7-.942,27.958,27.958,0,0,1-4.082,4.046l-3.225-4.453a73.671,73.671,0,0,1-11.144,2.164l-.8-5.917a55.172,55.172,0,0,0,14.567-2.524v2.583c.605-.587,1.259-1.294,1.864-2a11.031,11.031,0,0,1-.551-2.164,75.654,75.654,0,0,1-1.619-14.016H333.333v-5.461h13.661c-.054-1.522-.054-3.039-.054-4.627H332.176v37.345ZM346.539,1468.2v12.6h-12.4v-12.6Zm-4.736,4.568h-2.925v3.459H341.8Zm10.736-12.553h3.627c-.809-.875-1.564-1.7-2.368-2.511l1.66-2.116h-3.021C352.438,1457.227,352.438,1458.81,352.539,1460.212Zm7.961-1.87-1.463,1.87h2.068v5.461h-8.368a79.075,79.075,0,0,0,.911,9.375,46.289,46.289,0,0,0,2.919-8.207l4.538,2.291a59.609,59.609,0,0,1-5.143,13.481c.558,1.115,1.109,1.643,1.613,1.643.2,0,.408-.588.557-1.876,0,0,.1-.942.4-2.932l3.729,2.4v-26.267h-4.586A36.227,36.227,0,0,1,360.5,1458.342Z" transform="translate(-222.82 -1379.083)" fill="gold"/>
    <path id="Path_512" data-name="Path 512" d="M347.523,1464.4a91.6,91.6,0,0,1-3.429,12.366h5.395a58.2,58.2,0,0,1-3.782,15.424l-.1.234a10.9,10.9,0,0,0,3.177,2.11c2.116.935,6.954,1.468,14.417,1.528,1.96,0,7.757-.3,17.384-.941l-.959,7.091c-5.137.12-8.008.234-8.716.234-12.5,0-20.363-.761-23.642-2.164a15.6,15.6,0,0,1-4.076-2.991,55.2,55.2,0,0,1-4.688,6.51l-4.334-5.928a29.95,29.95,0,0,0,5.641-7.5,29.164,29.164,0,0,0,2.62-7.625h-5.941a98.387,98.387,0,0,0,3.927-12.367h-5.893V1464.4Zm-.2-6.162-5.293,4.814a49.2,49.2,0,0,0-6.7-9.147l4.939-3.933A54.517,54.517,0,0,1,347.319,1458.233Zm14.866-2.985h4.436a21.956,21.956,0,0,0,1.966-5.688l6.906,1.116a34.973,34.973,0,0,1-2.218,4.573h6.954v6.21h-13.4c-.2,1-.354,1.936-.5,2.758h12.1v28.851H350.292v-28.851h9.172c.156-.875.306-1.811.456-2.758H348.733v-6.21h6.648a31.857,31.857,0,0,0-2.314-4.334l6.45-1.589A27.431,27.431,0,0,1,362.185,1455.248Zm9.783,17.408v-3.226H356.8v3.226Zm0,7.564v-2.985H356.8v2.985Zm0,4.58H356.8v2.985h15.172Z" transform="translate(-182.43 -1380.797)" fill="gold"/>
    <path id="Path_513" data-name="Path 513" d="M353.847,1450.719c-.3,1.169-.654,2.277-.959,3.219h3.429c-.4-1.115-.809-2.17-1.259-3.219l5.287-1.355a29.661,29.661,0,0,1,1.517,4.574h3.98v4.574h-5.089v2.518h3.932v4.58h-3.932v2.751h4.334v4.574h-4.334v2.758h5.293v4.8H346.587v-13.656q-.98,1.4-1.966,2.638l-2.014-6.858a35.217,35.217,0,0,0,6.15-13.254Zm29.732,31.6v4.574a34.625,34.625,0,0,1-9.123,7.559,88.99,88.99,0,0,0,14.417,1.181l-2.164,7.319a85.634,85.634,0,0,1-19.86-4.628c-5.647,2.229-12.906,3.812-21.874,4.628l-2.368-7.559a90.164,90.164,0,0,0,16.227-1.175,46.213,46.213,0,0,1-8.212-6.39h-4.64v-5.509Zm-27.97-23.8h-3.531v2.518h3.531Zm0,7.1h-3.531v2.751h3.531Zm-3.531,10.083h3.531v-2.758h-3.531Zm14.369,16.418a31.949,31.949,0,0,0,7.709-4.286h-15.07A38.6,38.6,0,0,0,366.447,1492.11Zm8.866-41.391c-.3,1.169-.551,2.224-.857,3.219h3.225c-.4-.995-.905-1.99-1.409-2.985l5.545-1.415a28.156,28.156,0,0,1,1.612,4.4h4.688v4.574h-5.341v2.518h4.334v4.58h-4.334v2.751h4.334v4.574h-4.334v2.758h5.545v4.8H368.005V1467.6c-.4.587-.8,1.169-1.157,1.636l-1.762-6.384a37.364,37.364,0,0,0,5.491-13.488Zm2.17,7.793H373.55v2.518h3.932Zm0,7.1H373.55v2.751h3.932Zm-3.932,10.083h3.932v-2.758H373.55Z" transform="translate(-140.277 -1380.602)" fill="gold"/>
    <path id="Path_514" data-name="Path 514" d="M356.232,1460.183V1449.86h5.9v10.323h4.13v6.623h-4.13v7.685c1.109-.467,2.164-1,3.171-1.522v-3.4h11.192v-2.764h-8.668v-5.688h8.668v-2.284H365.86v-5.983h10.634v-3.459h6.1v3.459H396.2v5.983H382.59v2.284h12.043v7.973h2.17v6.456h-2.17v8.026H382.59v2.937h12.043v5.275H382.59v3.279a78.852,78.852,0,0,0,9.07.42c.605,0,2.32-.125,5.143-.473l-1.007,6.857H390.6c-6.6-.113-11.491-.7-14.614-1.756a15.7,15.7,0,0,1-5.293-3.459,32.115,32.115,0,0,1-3.633,6.15l-4.736-4.8a21.443,21.443,0,0,0,5.5-13.074l5.743.936a44.346,44.346,0,0,1-.959,5.161,9.565,9.565,0,0,0,3.633,2.637c.1.06.15.115.252.115v-10.2h-9.022v-5.743h9.022v-2.758H365.806l.252,4.574c-1.307.7-2.62,1.416-3.926,2.056v14.89c0,3.639-1.612,5.509-4.741,5.509H352.5l-1.211-7.325c2.266.348,3.525.468,3.729.468.8,0,1.211-.527,1.211-1.643v-9.38c-1.51.593-3.027,1.175-4.538,1.643l-.606-7.793a40.659,40.659,0,0,0,5.143-1.355v-9.909h-4.939v-6.623Zm26.358,9.387h6.1v-2.764h-6.1Zm0,8.26h6.1v-2.758h-6.1Z" transform="translate(-97.914 -1380.457)" fill="gold"/>
    <path id="Path_515" data-name="Path 515" d="M375.557,1467.748a54.36,54.36,0,0,0,4.28-9.615l5.9,1.817a67.955,67.955,0,0,1-4.736,9.621c1.511,2.631,3.177,5.856,4.94,9.609l-5.695,2.523A111.4,111.4,0,0,0,375,1470.446a76.658,76.658,0,0,1-4.028,6.8v25.974h-5.9v-18.182c-1.1,1.29-2.164,2.464-3.171,3.519l-2.524-7.738a51.988,51.988,0,0,0,11.995-16.767Zm-1.061-14.662a51.271,51.271,0,0,1-10.982,16.713l-3.782-6.624a51.624,51.624,0,0,0,10.082-13.782Zm29.738,29.319v6.156H393.049v7.157h12.8v6.151H373.741v-6.151h12.6v-7.157H375.509V1482.4Zm.606-31.129v6.15H374.9v-6.15Zm-9.831,8.908a77.8,77.8,0,0,1-4.334,9.387c1.517,2.571,3.129,5.736,4.892,9.375l-5.695,2.523a102.445,102.445,0,0,0-5.695-11.9,53.946,53.946,0,0,0,4.939-11.2Zm9.831,0a67.325,67.325,0,0,1-4.538,9.387q2.419,3.767,5.143,9.141l-5.749,2.523a94.657,94.657,0,0,0-5.893-11.665,48.89,48.89,0,0,0,5.137-11.2Z" transform="translate(-56.515 -1380.457)" fill="gold"/>
  </g>
</svg>
