<svg id="section5_subtitle" xmlns="http://www.w3.org/2000/svg" width="286.238" height="24.577" viewBox="0 0 286.238 24.577">
  <path id="Path_33449" data-name="Path 33449" d="M100.985,1605.78l-2.253-5.563h-7.89l-2.225,5.563h-4.8L93,1582.542h3.573l9.178,23.238Zm-6.216-15.872-2.189,5.812H96.99Z" transform="translate(-83.821 -1581.659)" fill="#fff"/>
  <path id="Path_33450" data-name="Path 33450" d="M95.786,1605.78H90.824L98.586,1587H88.861v-4.46h15.008v3.113Z" transform="translate(-65.687 -1581.659)" fill="#fff"/>
  <path id="Path_33451" data-name="Path 33451" d="M113.409,1591.6v2.382H103.45v8.855a8.718,8.718,0,0,0,2.819-1.053,17.476,17.476,0,0,1-2.092-3.283l1.844-1.108h-2.115v-2.488h8.957v2.065a17.2,17.2,0,0,1-2.363,4.653,12.933,12.933,0,0,0,3.435,1.241l-1.412,3.1a14.916,14.916,0,0,1-4.138-2.194,19.472,19.472,0,0,1-3.683,2.194l-1.251-2.754v2.754H100.7v-1.908q-3.276.324-7.274.556l-.363-2.7c.455,0,.887,0,1.343-.027v-7.9H93.155V1591.6Zm-2.138-9.095v8.272H95.288v-8.272ZM100.7,1595.12v-1.135H97.063v1.135Zm0,3.306v-1.14H97.063v1.14Zm0,3.122v-.951H97.063v1.19C98.337,1601.732,99.565,1601.654,100.7,1601.548Zm7.637-15.95v-.818H98.222v.818Zm0,2.065H98.222v.846h10.116Zm.023,12.433a9.517,9.517,0,0,0,1.5-2.7h-3.6A11.348,11.348,0,0,0,108.36,1600.1Z" transform="translate(-50.568 -1581.786)" fill="#fff"/>
  <path id="Path_33452" data-name="Path 33452" d="M106.7,1585.257h3.66a14.331,14.331,0,0,0,1.839-2.883l3.025.818a14.07,14.07,0,0,1-1.366,2.064h3.936v2.488h-8.005v1.531h7.118v2.487h-7.118v1.747h8.8v2.589h-8.819c-.023.64-.069,1.246-.133,1.775H118.5v2.561H111.38a9.725,9.725,0,0,0,2.23,1.407,21.829,21.829,0,0,0,5.683,1.691l-1.683,3.2a20.99,20.99,0,0,1-6.138-2.938,15.333,15.333,0,0,1-2.865-2.883,7.1,7.1,0,0,1-1.361,1.8,18.179,18.179,0,0,1-7.66,4.023l-1.687-3.2a16.107,16.107,0,0,0,6.754-2.722,5.107,5.107,0,0,0,.409-.377H98.7v-2.561h7.8a8.87,8.87,0,0,0,.248-1.775H98.607v-2.589h8.161v-1.747h-6.483v-2.487h6.483v-1.531H99.4v-2.488h4.092a19.516,19.516,0,0,0-1.683-2.064l3.025-.74A11.775,11.775,0,0,1,106.7,1585.257Z" transform="translate(-33.169 -1582.263)" fill="#fff"/>
  <path id="Path_33453" data-name="Path 33453" d="M115.914,1582.962a9.31,9.31,0,0,0,.956,1.536,17.82,17.82,0,0,0,2.589-2.148l2.322,1.646a17,17,0,0,1-3.32,2.35,9.005,9.005,0,0,0,.726.662,16.382,16.382,0,0,0,2.593-2.087l2.294,1.664a17.2,17.2,0,0,1-2.842,1.986,20.541,20.541,0,0,0,2.934,1.637l-1.071,3.2c-1.044-.639-1.977-1.273-2.837-1.908v1.586c0,.479.179.712.543.712h2.138v2.7h-3.2c-1.43,0-2.138-.685-2.138-2.064V1593.3h-1.389a5.735,5.735,0,0,1-.634,2.248,4.869,4.869,0,0,1-1.591,1.776h8.069v2.17a12.638,12.638,0,0,1-2.225,3.513,21.127,21.127,0,0,0,4,.929l-1.343,2.988a19.734,19.734,0,0,1-5.044-1.9,20.826,20.826,0,0,1-4,1.9l-1.43-2.988a12.027,12.027,0,0,0,2.865-.718,13.6,13.6,0,0,1-2.069-2.271l1.614-1.03H112.71v-2.593h.593l-1.117-2.594a2.5,2.5,0,0,0,1.186-1.19,7.724,7.724,0,0,0,.317-2.726h5.683a17.764,17.764,0,0,1-4.685-5.261h-.612a13.485,13.485,0,0,1-3.683,4.285,11.532,11.532,0,0,1-1.752,1.085h3.366v6.295h-4.249l-.115,1.77h4.635c-.133,2.171-.179,3.228-.179,3.228-.184,2.064-.524,3.278-1.071,3.651a4.478,4.478,0,0,1-2.658.662c-1.048,0-2.363-.055-3.908-.106l-.363-3.094c2.179.129,3.545.184,4.088.184.731,0,1.117-.4,1.186-1.246a4.887,4.887,0,0,1,.064-.925h-4.612l.432-6.506h4V1593.3h-3.908v-1.053c-.414.129-.8.234-1.163.313l-1.315-2.883a21.079,21.079,0,0,0,3.43-.979c-.34-.446-.726-.924-1.136-1.4l2.133-1.642c.547.58,1.071,1.163,1.573,1.8a9.46,9.46,0,0,0,2.046-1.9h-5.389v-2.593Zm1.412,18.883a6.8,6.8,0,0,0,1.591-1.926h-3.959A10.594,10.594,0,0,0,117.326,1601.845Z" transform="translate(-15.283 -1582.35)" fill="#fff"/>
  <path id="Path_33454" data-name="Path 33454" d="M115.8,1583.158v3.1h-2.386v4.152h2.207v3.094h-2.207v3.812c.841-.317,1.66-.662,2.478-1.03v3.412a43.639,43.639,0,0,1-7.453,2.8l-.547-3.623a27.581,27.581,0,0,0,2.842-.657V1593.5h-2.386v-3.094h2.386v-4.152h-2.57v-3.1Zm11.187-.607v15.077h-2.57v4.235c0,.5.092.74.271.74h.8c.276,0,.414-.451.432-1.379,0,0,.023-.662.092-2.032l2.662.924c-.184,2.7-.547,4.308-1.048,4.842a2.1,2.1,0,0,1-1.614.529h-2.046a2.5,2.5,0,0,1-1.839-.585,3.057,3.057,0,0,1-.547-1.9v-5.37h-1.044a11.514,11.514,0,0,1-1.274,5.031,10,10,0,0,1-4.161,3.54l-1.862-2.782a8.228,8.228,0,0,0,3.614-2.4,6.7,6.7,0,0,0,1.021-3.384h-1.545v-15.077Zm-2.842,4.34v-1.563h-4.98v1.563Zm0,3.914v-1.536h-4.98v1.536Zm0,2.382h-4.98v1.664h4.98Z" transform="translate(2.793 -1581.623)" fill="#fff"/>
  <path id="Path_33455" data-name="Path 33455" d="M114.248,1588.352v-3.729h3.2v3.729Z" transform="translate(25.655 -1574.172)" fill="#fff"/>
  <path id="Path_33456" data-name="Path 33456" d="M125.208,1586.548v-4.157h3.2v4.157h8.433v3.3h-8.433v4.553h6.571v12.272h-3.3v-1.743h-9.66v1.743h-3.3V1594.4h6.479v-4.553h-8.345v-3.3Zm6.479,15.389v-4.442h-9.66v4.442Z" transform="translate(35.064 -1582.202)" fill="#fff"/>
  <path id="Path_33457" data-name="Path 33457" d="M140.791,1597.1h1.936v2.883h-6.842a44.626,44.626,0,0,1,6.681,3.306l-1.522,3.306a41.717,41.717,0,0,0-7.274-4.341l1.476-2.271h-5.977l1.476,1.982a23.03,23.03,0,0,1-7.453,4.552l-1.435-3.311a18.8,18.8,0,0,0,6.571-3.223H121.7V1597.1h2.046V1584.9h4.34v-2.488h2.842v2.488h2.386v-2.488h2.842v2.488h4.635ZM128.45,1590.9v-3.2H126.5v3.2Zm0,6.194v-3.523H126.5v3.523Zm2.662-6.194h2.11v-3.2h-2.11Zm2.11,6.194v-3.523h-2.11v3.523Zm2.685-6.194h2.11v-3.2h-2.11Zm2.11,6.194v-3.523h-2.11v3.523Z" transform="translate(52.467 -1582.12)" fill="#fff"/>
  <path id="Path_33458" data-name="Path 33458" d="M131.7,1584.935v-2.561h3.021v2.561h1.959v3.021h-1.959v2.349h-.635l1.793,1.563a31.04,31.04,0,0,1-2.225,3.123v11.743h-2.934v-8.516c-.933.924-1.908,1.8-2.934,2.644l-1.136-3.412a24.135,24.135,0,0,0,6.911-7.145H131.7v-2.349h-4.616v-3.021Zm15.73,9.1a20.455,20.455,0,0,1-7.113,4.787v3.779c0,.506.248.74.791.74h2.685c.5,0,.772-.58.837-1.766,0,0,.051-.717.138-2.17l2.75.925c-.248,2.855-.658,4.6-1.2,5.264a3.028,3.028,0,0,1-2.359.74h-3.89a2.733,2.733,0,0,1-2.115-.9,3.062,3.062,0,0,1-.657-2.092v-12.3h3.025v4.368a17.349,17.349,0,0,0,5.338-3.967Zm-7.913-9.1v-2.561h3.026v2.561h4.7v3.021h-4.7v2.349h-3.026v-2.349h-1.954v-3.021Z" transform="translate(70.277 -1582.263)" fill="#fff"/>
  <path id="Path_33459" data-name="Path 33459" d="M151.7,1606.257h-2.842v-.818h-14.3v.818h-2.842v-23.749H151.7Zm-2.842-3.306v-17.96h-14.3V1598.8a12.089,12.089,0,0,0,4.138-1.614h-2.887v-4.759h11.886v4.759h-1.839l1.412,1.03a9.1,9.1,0,0,1-.731,1.085c.662.262,1.343.557,2.046.869l-1.067,2.487a35.96,35.96,0,0,0-5.683-2.7l1.159-1.848c.386.106.772.239,1.182.345.248-.423.478-.846.708-1.27H141.9a2.332,2.332,0,0,1-.23.239v4.81H139.08v-2.51a14.167,14.167,0,0,1-3.55,1.8l-.975-2.276v3.706Zm-8.525-16.819V1585.1h2.842v1.035h4.272v2.271h-4.272v.925h5.159v2.276H135.1v-2.276h5.228v-.925h-4.437v-2.271Zm4.7,8.143h-6.57v1.035h6.57Z" transform="translate(88.497 -1581.786)" fill="#fff"/>
  <path id="Path_33460" data-name="Path 33460" d="M138.757,1588.986v-6.428h2.681v6.428h1.683v2.989h-1.683v5.743a16.847,16.847,0,0,0,1.683-.906v2.042a22.9,22.9,0,0,0,.432-4.5v-8.594h6.773c-.023-1.081-.023-2.221-.023-3.384h2.754c0,1.213,0,2.327.018,3.384h1.959a13.373,13.373,0,0,0-1.522-2.171l2.2-1.135a6.688,6.688,0,0,1,1.706,1.987l-1.8,1.32h1.954v2.8h-4.451c.046,2.6.156,4.741.294,6.433q.814-2.145,1.5-4.686l2.138,1.141a44.875,44.875,0,0,1-2.98,8.276c.455,2.014.841,2.989,1.2,2.989.092,0,.184-.418.276-1.269,0,0,.041-.657.156-2.032l2.23,1.665a13.8,13.8,0,0,1-1.435,4.814,1.47,1.47,0,0,1-1.228.846c-.726,0-1.453-.607-2.184-1.8a10.626,10.626,0,0,1-.975-2.014,20.885,20.885,0,0,1-3.591,3.812l-1.867-2.676a16.082,16.082,0,0,0,4.524-4.781v-.056a71.091,71.091,0,0,1-.818-10.663h-4.157v2.488h3.816v2.782c0,4.073-.271,6.479-.772,7.163a3.391,3.391,0,0,1-2.865,1.007h-.248l-.363-2.432a24.617,24.617,0,0,1-2.322,7.09l-2.474-2.488a13.906,13.906,0,0,0,1.724-3.706,30.342,30.342,0,0,1-5.637,2.672l-.524-3.623a17.314,17.314,0,0,0,2.207-.63v-6.906H136.8v-2.989Zm7.637,10.1a1.112,1.112,0,0,0,.887-.289,27.1,27.1,0,0,0,.271-4.971h-1.338v.524a30.453,30.453,0,0,1-.34,4.657A5.231,5.231,0,0,0,146.394,1599.088Z" transform="translate(105.897 -1582.263)" fill="#fff"/>
  <path id="Path_33461" data-name="Path 33461" d="M148.163,1583.261a28.661,28.661,0,0,1-1.522,4.258v10.713h-2.658v-6.083a20.747,20.747,0,0,1-1.412,1.848l-1.071-3.724a19.93,19.93,0,0,0,3.913-7.858Zm2.386,15.9v-1.638h2.841v1.638h7.366v2.7H153.39v1.43h9.141v2.8H141.5v-2.8h9.049v-1.43h-7.182v-2.7Zm10.571-16.213v5.687h-4.8v1.242h5.862v2.565h-3.407a4.144,4.144,0,0,0,.864.818,8.458,8.458,0,0,0,2.819,1.352l-1.527,2.91a9.693,9.693,0,0,1-3.251-2.487,10.61,10.61,0,0,1-1.361-2.115v5.209h-2.841v-5a8.2,8.2,0,0,1-1.136,1.536,13.535,13.535,0,0,1-3.573,2.75L147,1594.82a11.564,11.564,0,0,0,3.159-1.665,3.372,3.372,0,0,0,.749-.717h-3.384v-2.565h5.954v-1.242h-4.8v-5.687Zm-2.842,2.17h-6.75v1.353h6.75Z" transform="translate(123.707 -1582.12)" fill="#fff"/>
</svg>
