<svg id="section4_title5" xmlns="http://www.w3.org/2000/svg" width="343.117" height="37.972" viewBox="0 0 343.117 37.972">
  <path id="Path_31715" data-name="Path 31715" d="M85.1,1267.982c-.129,2.134-.29,4.268-.478,6.448H90.5q.1,12.188-2.571,19.333c1.288,1.228,2.41,2.419,3.44,3.569l-2.635,5.132a35.534,35.534,0,0,0-2.925-4.024,30.923,30.923,0,0,1-5.109,6.613l-3.021-4.355a18.254,18.254,0,0,0,5.077-5.62c-1.444-1.4-3.021-2.755-4.691-4.152.9-4.056,1.573-8,2.088-11.861H77.937v-4.635h2.732c.193-2.263.354-4.475.414-6.613Zm1.416,11.083h-2.41q-.676,4.926-1.642,10.1c.773.574,1.481,1.149,2.157,1.683A45.011,45.011,0,0,0,86.518,1279.065Zm19.283-9.644v4.351a39.789,39.789,0,0,1-4.755,8.25v1.683h5.785v4.967h-5.785V1300.7c-.064,2.791-1.932,4.194-5.528,4.194H92.754l-.612-5.137c2.088.124,3.339.161,3.762.161.639,0,.993-.575.993-1.761v-9.482H90.5v-4.967h6.4v-4.479a23.445,23.445,0,0,0,3.472-4.8H91.112v-5.009Z" transform="translate(-77.679 -1267.366)" fill="gold"/>
  <path id="Path_31716" data-name="Path 31716" d="M91.608,1268.666l-.322.818h9.736v3.531H89.263c-.262.327-.487.653-.74.943h11.635c-.225,2.18-.354,3.61-.418,4.308h1.026v2.916H99.449q-.1.925-.193,1.6h.9v2.874H98.805a7.582,7.582,0,0,1-.29,1.068l2.249.864a31.237,31.237,0,0,1-3.371,2.212c1.412,0,2.985-.042,4.691-.12a35.169,35.169,0,0,0,3.826-2.589l3.789,2.092a56.867,56.867,0,0,1-10.54,5.3c-.225.083-.419.165-.579.207,3.021-.082,5.818-.289,8.388-.575-.451-.538-.865-1.066-1.283-1.559l3.118-1.278a31.587,31.587,0,0,1,4.916,5.629l-3.537,2.212c-.386-.736-.773-1.389-1.159-2.01-2.217.331-4.594.575-7.133.782v3.817c0,2.548-.966,3.863-2.86,3.863H94.754l-.515-4.52c1.61.124,2.543.165,2.768.165.575,0,.865-.285.865-.947v-2.13c-1.412.078-2.791.165-4.208.208l1.352,1.922a25.333,25.333,0,0,1-8.3,5.137l-1.637-4.355a18.769,18.769,0,0,0,5.978-2.626c-1.637.083-3.311.083-4.981.083l-.483-4.024c1.8.125,3.279.207,4.369.207a43.99,43.99,0,0,0,6.268-2.056c-2.957.248-5.978.368-9.129.414l-.386-3.532c2.221.083,4.084.165,5.56.165a6.659,6.659,0,0,0,.9-.41,9.74,9.74,0,0,0,1.03-.574H91.125l-.515-2.387c2.249.129,3.6.165,4.015.165a.879.879,0,0,0,.74-.285,1.73,1.73,0,0,0,.225-.533H85.951c.29-1.559.543-3.035.768-4.474H84.7v-2.916h2.41c.1-1.025.193-2.05.258-3.039a15.743,15.743,0,0,1-1.541,1.439l-1.127-4.474a10.774,10.774,0,0,0,3.891-4.475Zm.193,12.518H89.934c-.092.575-.193,1.108-.285,1.6h2.309C91.9,1282.209,91.861,1281.681,91.8,1281.184Zm.51-2.916c-.064-.491-.161-.979-.225-1.434h-1.6c-.064.492-.1.984-.161,1.434Zm3.923,2.916H94.211c.064.575.161,1.108.225,1.6h1.637C96.138,1282.292,96.17,1281.759,96.234,1281.184Zm-1.481-2.916h1.771c.032-.45.064-.942.129-1.434H94.5C94.6,1277.325,94.694,1277.818,94.754,1278.268Zm12.44-9.109c-.161.658-.322,1.232-.483,1.766h6.88v4.144h-1.03a28.645,28.645,0,0,1-2.732,6.9,13.318,13.318,0,0,0,4.373,2.75l-1.867,4.47a15.619,15.619,0,0,1-5.013-4.185,14.192,14.192,0,0,1-5.785,3.076l-1.127-4.185a7.761,7.761,0,0,0,4.824-1.844,27,27,0,0,1-1.835-3.817,29.107,29.107,0,0,1-1.734,2.46l-1.255-4.967a20.272,20.272,0,0,0,3.376-7.717Zm6.4,31.893-1.771,4.355a50.542,50.542,0,0,0-8.9-4.189l1.863-3.2A60.774,60.774,0,0,1,113.59,1301.051Zm-6.139-22.084a25.972,25.972,0,0,0,1.444-3.9h-3.343A20.709,20.709,0,0,0,107.451,1278.967Z" transform="translate(-52.426 -1267.718)" fill="gold"/>
  <path id="Path_31717" data-name="Path 31717" d="M98.311,1270.463v-2.708h3.923v2.708h3.247v4.31h-3.247v2.1h7.648v-2.1h-3.021v-4.31h3.021v-2.708h3.886v2.708h6.912v4.31h-6.912v2.1h5.017v4.019h-3.021v2.383h3.661v4.189h-3.661v2.874h5.174v4.019H108.245v2.1h11.18v3.978h-11.18v5.132H104.1v-5.132H93.427v-3.978H104.1v-2.1H91.914v-4.019h4.663v-2.874H93.041v-4.189h3.536v-2.383H93.556v-4.019h4.755v-2.1H91.657v-4.31Zm5.785,10.425h-3.891v2.383H104.1Zm0,9.446v-2.874h-3.891v2.874Zm8.034-9.446h-3.886v2.383h3.886Zm-3.886,9.446h3.886v-2.874h-3.886Z" transform="translate(-27.375 -1267.589)" fill="gold"/>
  <path id="Path_31718" data-name="Path 31718" d="M100.506,1278.364v-7.308h5.689v7.308Z" transform="translate(4.471 -1255.706)" fill="gold"/>
  <path id="Path_31719" data-name="Path 31719" d="M116.673,1270.956v-3.2h4.406v3.2h9.9v4.64h-9.9v2.7h12.182v4.848H127.83a24.5,24.5,0,0,1-1.835,3.982h5.753v4.681H121.079v3.035h11.41v4.641h-11.41v6.075h-4.406v-6.075H105.139v-4.641h11.534v-3.035h-10.8v-4.681H111.6c-.579-1.435-1.186-2.75-1.83-3.982h-5.528V1278.3h12.435v-2.7H106.519v-4.64Zm4.824,16.174a24.878,24.878,0,0,0,1.83-3.982h-9c.612,1.315,1.191,2.667,1.738,3.982Z" transform="translate(17.902 -1267.589)" fill="gold"/>
  <path id="Path_31720" data-name="Path 31720" d="M119.9,1274.3h2.249v3.361a32.968,32.968,0,0,1-2.474,6.816,38.9,38.9,0,0,1,2.828,3.531v-1.844h17.968v18.6h-4.019v-1.32h-9.929v1.32H122.5V1290.35l-1.6,3.32c-.515-1.353-1.127-2.668-1.766-3.978v14.9h-3.762v-12.974c-.773,1.108-1.573,2.18-2.41,3.2l-1.867-5.455a24.238,24.238,0,0,0,6.88-10.922h-5.882V1274.3h3.858c-.29-1.725-.644-3.491-1.095-5.3l3.891-1.15C119.192,1269.738,119.579,1271.877,119.9,1274.3Zm20.828-5.463v3.982h-18.45v-3.982Zm-1.127,5.583v9.814H123.4v-9.814Zm-9.929,18.473v-2.75h-3.15v2.75Zm0,6.567v-2.745h-3.15v2.745Zm6.011-21.177H127.3v2.093h8.388Zm-2.382,14.611h3.15v-2.75H133.3Zm3.15,6.567v-2.745H133.3v2.745Z" transform="translate(42.575 -1267.236)" fill="gold"/>
  <path id="Path_31721" data-name="Path 31721" d="M124.193,1274.13v-6.277h4.277v6.277h6.907v-6.277h4.277v6.277h4.5v4.805h-4.5v8.66h5.656v4.972H118.44v-4.972h5.753v-8.66h-4.5v-4.805Zm5.4,21.968a29.087,29.087,0,0,1-8.388,9.11l-2.41-4.805a30.015,30.015,0,0,0,7.551-7.22Zm5.785-8.5v-8.66H128.47v8.66Zm9.418,12.974-2.9,4.52a62.347,62.347,0,0,0-8.416-8.829l2.893-3.367A67.939,67.939,0,0,1,144.8,1300.569Z" transform="translate(69.012 -1267.236)" fill="gold"/>
  <path id="Path_31722" data-name="Path 31722" d="M137.946,1290.564v-2.548h4.019v2.548H153.5v4.185h-7.427a27.859,27.859,0,0,0,9.064,4.475l-2.249,4.645a22.187,22.187,0,0,1-7.17-4.438,25.369,25.369,0,0,1-3.757-3.779v9.813h-4.019v-9.359a22.75,22.75,0,0,1-3.5,3.739,27.944,27.944,0,0,1-7.422,4.185l-1.863-4.966a22.752,22.752,0,0,0,8.9-4.314h-7.652v-4.185Zm-2.635-22.783a35.242,35.242,0,0,1-.708,7.427,47.646,47.646,0,0,1,4.981,4.6l-1.991,3.077h3.569l-1.315-3.532a6.686,6.686,0,0,0,4.111-3.113c.708-1.072,1.127-3.9,1.288-8.457h3.5a39.052,39.052,0,0,1-.676,7.468,51.5,51.5,0,0,1,5.56,4.1l-1.384,3.532h1.642v6.572h-4.148v-2.424h-19.83v2.424h-4.144v-6.572H127.5l-1.352-3.532a7.064,7.064,0,0,0,4.309-3.113c.708-1.072,1.154-3.9,1.347-8.457Zm-5.013,1.637a31.156,31.156,0,0,1-1.255,7.023l-3.274-1.274a22.462,22.462,0,0,0,1.508-6.4Zm6.622,13.466c-1.288-1.559-2.511-2.916-3.665-4.107a10.006,10.006,0,0,1-4.5,4.107Zm2.925-13.466a30.817,30.817,0,0,1-1.255,6.9l-3.15-1.15a23,23,0,0,0,1.384-6.235Zm4.144-.161a39.6,39.6,0,0,1-1.03,7.059L139.717,1275a26.325,26.325,0,0,0,1.251-6.4Zm7.39,13.626a60.945,60.945,0,0,0-4.626-4.061,9.9,9.9,0,0,1-4.337,4.061Zm2.253-13.337a29.973,29.973,0,0,1-1.255,6.894l-3.247-1.274a21.386,21.386,0,0,0,1.513-6.235Z" transform="translate(93.185 -1267.492)" fill="gold"/>
  <path id="Path_31723" data-name="Path 31723" d="M141.95,1270.629c-.478,2.175-1,4.185-1.541,6.075h5.431v-8.949h4.4v8.949h9.29v4.847h-9.29v6.4H158.4v4.806h-8.163v6.9h10.674v4.8H133.148v-4.8h12.693v-6.9h-9.032v-4.806h9.032v-6.4h-7.1a49.5,49.5,0,0,1-3.955,8l-2.506-4.8c2.313-3.739,4.015-8.788,5.141-15.107Z" transform="translate(118.816 -1267.589)" fill="gold"/>
  <path id="Path_31724" data-name="Path 31724" d="M148.425,1290.072a68.057,68.057,0,0,1-5.045,14.946l-4.245-3.21a48.735,48.735,0,0,0,5.4-13.626Zm-.644-7.349-3.021,4.144a47.526,47.526,0,0,0-5.528-5.909l2.667-3.527A40.935,40.935,0,0,1,147.781,1282.723Zm1.513-9.648L146.4,1277.1a47.5,47.5,0,0,0-5.785-5.914l2.539-3.4A49.785,49.785,0,0,1,149.294,1273.075Zm18.188-.45c-2.056.492-4.5.989-7.262,1.393v5.009h8.517v4.64h-8.517v4.967h6.65v16.831h-4.015v-2.216h-9.161v2.216H149.68v-16.831h6.392v-4.967H148.3v-4.64h7.777v-4.434c-1.895.249-3.918.5-6.043.746l-1.251-5.137a127.124,127.124,0,0,0,16.97-1.932Zm-4.626,26.439v-6.24h-9.161v6.24Z" transform="translate(143.489 -1267.492)" fill="gold"/>
  <path id="Path_31725" data-name="Path 31725" d="M173.493,1304.119H169.6v-1.445H150.288v1.445H146.4v-36.087h27.1Zm-20.184-19.748H150.77v-3.531h5.045c.253-.455.483-.948.736-1.435h-5.013V1276.2h2.189c-.327-.989-.676-1.932-1.062-2.874l3.279-.818a22.621,22.621,0,0,1,1.154,3.693h.708a25.53,25.53,0,0,0,1-4.309h-8.517v15.392A21.845,21.845,0,0,0,153.309,1284.371Zm16.294,14.445V1288.6l-1.255,2.5a9.258,9.258,0,0,1-3.15-2.584q-.234,3.077-1.154,3.937a5.038,5.038,0,0,1-3.472.906h-1.38l-.515-3.2a7.41,7.41,0,0,0,1.895.336,1.611,1.611,0,0,0,.9-.165.659.659,0,0,0,.386-.616s.032-.208.1-.657H156.68v4.308c0,.575.327.819,1,.819h5.4c1.315,0,2.06-.447,2.217-1.394,0,0,.1-.533.29-1.683l3.15,1.15c-.386,2.585-.993,4.189-1.83,4.764a7.143,7.143,0,0,1-3.7.653H156.3a2.921,2.921,0,0,1-2.378-1.021,3.551,3.551,0,0,1-.74-2.469v-3.937c-.644.658-1.255,1.27-1.9,1.844l-.993-2.336v9.068Zm-6.4-12.849a10.763,10.763,0,0,1-.966-1.6h-4.562c-.354.575-.708,1.1-1.058,1.6Zm6.4.984V1271.89h-7.491a33.151,33.151,0,0,1-.9,4.309H162.5a21.737,21.737,0,0,0,1.835-3.693l3.146.98a20.3,20.3,0,0,1-1.315,2.713h2.06v3.206h-8.071c-.193.487-.419.98-.612,1.435h9.322v3.531H166A11.32,11.32,0,0,0,169.6,1286.951Z" transform="translate(169.624 -1266.593)" fill="gold"/>
</svg>
