<?xml version="1.0" encoding="utf-8"?>
<!-- Generator: Adobe Illustrator 22.1.0, SVG Export Plug-In . SVG Version: 6.00 Build 0)  -->
<svg version="1.1" id="圖層_1" xmlns="http://www.w3.org/2000/svg" xmlns:xlink="http://www.w3.org/1999/xlink" x="0px" y="0px"
	 viewBox="0 0 240 240" style="enable-background:new 0 0 240 240;" xml:space="preserve">
<style type="text/css">
	.st0{fill:#FFFFFF;}
	.st1{fill:#72ADB6;}
</style>
<g id="section7_imgicon4" transform="translate(-4084 -13179)">
	<g id="字" transform="translate(4084.34 13021.427)">
		<circle id="Ellipse_347" class="st0" cx="120.9" cy="277.6" r="119"/>
		<g id="Group_6288" transform="translate(129.293 579.632)">
			<g id="Group_6287">
				<path id="Path_41670" class="st1" d="M-62.8-360.9c-1.9,1.8-4.6,2.7-8,2.7h-5.9v-23.4h5.8c2.9-0.2,5.8,0.9,8,2.9
					c2.1,2.1,3.2,5.1,3.2,8.9C-59.7-365.8-60.7-362.8-62.8-360.9z M-71.2-377.4h-1.7v15.2h2.8c4.2,0,6.3-2.5,6.3-7.5
					C-63.7-374.9-66.2-377.4-71.2-377.4L-71.2-377.4z"/>
				<path id="Path_41671" class="st1" d="M-45.5-360.1c-1.2,1.6-3.1,2.5-5.1,2.4c-2,0.1-3.9-0.9-5.1-2.5c-1.3-1.8-2-3.9-1.9-6.1
					c-0.1-2.2,0.6-4.4,1.9-6.2c1.2-1.6,3.1-2.5,5.1-2.4c2,0,3.9,0.9,5.1,2.5C-42.9-368.6-42.9-363.8-45.5-360.1L-45.5-360.1z
					 M-48.1-369.5c-0.5-0.9-1.4-1.5-2.5-1.5c-1,0-2,0.5-2.5,1.4c-0.6,1-0.9,2.2-0.9,3.4c0,1.1,0.2,2.3,0.8,3.2
					c0.5,0.9,1.5,1.5,2.5,1.4c1,0,2-0.5,2.5-1.4c0.6-1,0.9-2.1,0.8-3.2C-47.2-367.4-47.5-368.5-48.1-369.5z"/>
				<path id="Path_41672" class="st1" d="M-35.7-371c-0.6,0-1.2,0.4-1.5,1c-0.3,0.6-0.5,1.3-0.5,2v9.9h-3.4V-370
					c0-0.8-0.1-2.3-0.4-4.4h3.6v1.1c0.5-0.8,1.4-1.4,2.3-1.4c0.6,0,1.2,0.1,1.8,0.4v4C-34.4-370.8-35-370.9-35.7-371z"/>
				<path id="Path_41673" class="st1" d="M-16.2-358.1v-10.4c0-1.7-0.7-2.5-2.2-2.5c-1.5,0-2.2,1.1-2.2,3.4v9.6H-24v-10.5
					c0-1.6-0.7-2.4-2.1-2.4c-0.7,0-1.4,0.4-1.7,1c-0.4,0.7-0.6,1.5-0.5,2.3v9.6h-3.4v-12c0-0.9-0.1-2.4-0.3-4.4h3.5l0.1,0.9
					c0.7-0.9,1.7-1.4,2.8-1.3c1.5,0,2.9,0.7,3.7,1.9c1-1.2,2.5-1.9,4-1.9c1.6-0.1,3.1,0.7,4,2c0.9,1.5,1.3,3.1,1.2,4.8v10
					L-16.2-358.1z"/>
				<path id="Path_41674" class="st1" d="M-2.3-358.1v-1c-0.8,0.9-1.9,1.5-3.1,1.4c-1.4,0-2.7-0.5-3.7-1.4c-1-1.1-1.6-2.5-1.5-4
					c-0.1-1.9,0.7-3.7,2.3-4.7c1.4-0.8,3.1-1.3,4.7-1.2h1.1c0-1.4-0.7-2.2-2-2.2c-1.1-0.1-2.1,0.7-2.2,1.8c0,0,0,0.1,0,0.1h-3.7
					c0.1-1.6,0.7-3.1,1.8-4.3c1.1-1,2.6-1.5,4.1-1.5c1.5-0.1,2.9,0.4,4,1.4c1.1,1.2,1.6,2.8,1.5,4.5v6.5c0,1.5,0.1,3,0.4,4.4
					L-2.3-358.1z M-3.5-365.3c-2.3,0-3.5,0.7-3.5,2.1c0,0.5,0.2,1,0.6,1.3c0.4,0.3,0.8,0.5,1.3,0.5c1.7,0,2.6-1.2,2.8-3.8H-3.5z"/>
				<path id="Path_41675" class="st1" d="M12.5-358.1l-5.1-6v6H3.9v-23.4h3.6v11.6l4.1-4.6h5.2l-6.9,7.3l7.5,9.1L12.5-358.1z"/>
				<path id="Path_41676" class="st1" d="M26.7-358.1v-1c-0.8,0.9-1.9,1.5-3.1,1.4c-1.4,0-2.7-0.5-3.7-1.4c-1-1.1-1.6-2.5-1.5-4
					c-0.1-1.9,0.7-3.7,2.3-4.7c1.4-0.8,3.1-1.3,4.7-1.2h1.1c0-1.4-0.7-2.2-2-2.2c-1.1-0.1-2.1,0.7-2.2,1.8c0,0,0,0.1,0,0.1h-3.7
					c0.1-1.6,0.7-3.1,1.8-4.3c1.1-1,2.6-1.5,4-1.5c1.5-0.1,2.9,0.4,4,1.4c1.1,1.2,1.6,2.8,1.5,4.5v6.5c0,1.5,0.1,3,0.4,4.4
					L26.7-358.1z M25.5-365.3c-2.3,0-3.5,0.7-3.5,2.1c0,0.5,0.2,1,0.6,1.3c0.4,0.3,0.8,0.5,1.3,0.5c1.7,0,2.6-1.2,2.8-3.8H25.5z"/>
				<path id="Path_41677" class="st1" d="M45.1-360.2c-1,1.6-2.8,2.6-4.8,2.5c-1.4,0.1-2.8-0.5-3.7-1.7c0,0.3,0,0.7,0,1.3h-3.7
					c0.2-2.4,0.4-4,0.4-4.6v-18.8h3.6v7.6c1-0.7,2.2-1,3.4-1c2,0,3.8,1,4.8,2.7c1.1,1.8,1.6,3.9,1.5,6.1
					C46.7-364,46.2-362,45.1-360.2z M42.2-369.4c-0.4-0.9-1.3-1.5-2.2-1.6c-1,0-1.9,0.5-2.4,1.4c-0.5,1-0.8,2.1-0.7,3.2
					c0,3.2,1.1,4.7,3.3,4.7c1,0,1.8-0.6,2.1-1.6C43.1-365.2,43.1-367.4,42.2-369.4L42.2-369.4z"/>
				<path id="Path_41678" class="st1" d="M56.7-358.1v-1c-0.8,0.9-1.9,1.5-3.1,1.4c-1.4,0-2.7-0.5-3.7-1.4c-1-1.1-1.6-2.5-1.5-4
					c-0.1-1.9,0.7-3.7,2.3-4.7c1.4-0.8,3.1-1.3,4.7-1.2h1.1c0-1.4-0.7-2.2-2-2.2c-1.1-0.1-2.1,0.7-2.2,1.8c0,0,0,0.1,0,0.1h-3.7
					c0.1-1.6,0.7-3.1,1.8-4.3c1.1-1,2.6-1.5,4.1-1.5c1.5-0.1,2.9,0.4,4,1.4c1.1,1.2,1.6,2.8,1.5,4.5v6.5c0,1.5,0.1,3,0.4,4.4
					L56.7-358.1z M55.5-365.3c-2.3,0-3.5,0.7-3.5,2.1c0,0.5,0.2,1,0.6,1.3c0.4,0.3,0.8,0.5,1.3,0.5c1.7,0,2.6-1.2,2.8-3.8H55.5z"/>
				<path id="Path_41679" class="st1" d="M-23.8-348.6v2.7h-7.7v0.6h9.4v5.5h-2.6v-2.7h-6.8v5.6h-2.8v-5.6H-41v2.7h-2.6v-5.5h9.3
					v-0.6h-7.6v-2.7H-23.8z M-24.2-326.6h-7.6c0.1,0.6,0.2,0.9,0.4,0.9c0.1,0.1,0.5,0.1,1,0.1c2.7,0,4,0,4-0.1c0.5,0,1-0.1,1.5-0.1
					c0.5,0,0.9-0.6,1.1-1.8l2.4,1.2c-0.1,1.1-0.6,2.2-1.4,3c-0.6,0.2-1.2,0.4-1.9,0.4c-1.9,0.1-3.8,0.2-5.7,0.2h-0.9
					c-0.5,0-1.1-0.1-1.6-0.3c-1.1-0.1-1.7-1-1.7-3v-0.5h-4.9v1.2h-2.7V-336h18L-24.2-326.6z M-34.8-341.8v2.4h-5.8v-2.4H-34.8z
					 M-34.8-338.9v2.4h-5.8v-2.4H-34.8z M-34.5-332.5v-0.8h-4.9v0.8H-34.5z M-34.5-329.3v-0.8h-4.9v0.8H-34.5z M-31.8-332.5h5v-0.8
					h-5L-31.8-332.5z M-31.8-329.3h5v-0.8h-5L-31.8-329.3z M-25.1-341.8v2.4h-6v-2.4H-25.1z M-25.1-338.9v2.4h-6v-2.4H-25.1z"/>
				<path id="Path_41680" class="st1" d="M1.3-347.7v3c-2.4,2.6-5.2,4.8-8.3,6.5v0.8h9.3v3.2H-7v7.5c0,1.6-0.3,2.5-0.8,3
					c-0.8,0.6-1.8,0.9-2.8,0.8c-0.9,0-1.8-0.1-2.7-0.2l-0.5-3.7c1,0.4,2.1,0.6,3.1,0.5c0.2,0,0.4-0.1,0.5-0.2
					c0.1-0.4,0.2-0.7,0.1-1.1v-6.6H-19v-3.2h9.1v-3.8l1.4,0.2c1.9-0.9,3.6-2.1,5.2-3.4h-13.6v-3.3L1.3-347.7z"/>
				<path id="Path_41681" class="st1" d="M11.2-348l-0.2,0.5c1.3,0.8,2.5,1.6,3.6,2.6l-1.8,2.7c-1-1-2-1.9-3.1-2.8
					c-0.2,0.4-0.5,0.7-0.7,1.1c-0.4,0.7-0.9,1.3-1.4,1.9h5.8v2.9h-2.2v2.1h2.8v2.9h-2.8v6.3c1-0.1,1.9-0.3,2.8-0.5l0.3,2.2
					c1.1-0.4,2.1-1,3.1-1.7H15v-15.5h4.6v-5.8h2.8v5.8h4.2v15.5h-2.3c0.4,0.4,0.8,0.8,1.3,1.1c0.5,0.4,1.1,0.8,1.7,1l-1.9,2.8
					c-0.6-0.4-1.2-0.9-1.8-1.4c-0.7-0.6-1.3-1.3-1.8-2.1l1.5-1.5h-4.9l1.5,1.5c-1.4,1.4-2.9,2.6-4.7,3.5l-1.2-2.5
					c-2.5,0.6-5.2,1.2-8.2,1.7l-0.9-3.1c1.2-0.2,2.4-0.3,3.5-0.5v-6.8H5.6v-2.9h2.8v-2.1H6.4v-1.6c-0.1,0.1-0.3,0.3-0.4,0.4L4.7-343
					c1.7-1.7,3-3.7,3.9-5.9L11.2-348z M8.3-328.9l-2.2,1.1c-0.3-1.4-0.6-2.7-1-4l2.1-1.1C7.6-331.6,8-330.3,8.3-328.9L8.3-328.9z
					 M14.7-332.7c-0.4,1.7-0.7,3-1.1,4.2l-2.3-0.8c0.4-1.4,0.7-2.7,0.9-4L14.7-332.7z M18.9-344.8l-2.6,1.5
					c-0.3-1.1-0.7-2.2-1.2-3.2l2.4-1.4C18.1-347,18.6-345.9,18.9-344.8L18.9-344.8z M23.9-339v-1.2h-6.2v1.2H23.9z M23.9-334.8v-1.3
					h-6.2v1.3H23.9z M23.9-330.6v-1.5h-6.2v1.5H23.9z M26.6-347.2c-0.4,1.3-0.8,2.6-1.4,3.8l-2.5-1.6c0.5-1,1-2.1,1.3-3.2
					L26.6-347.2z"/>
			</g>
		</g>
		<rect id="Rectangle_81" x="34.7" y="270.4" class="st1" width="172.5" height="1.8"/>
		<g id="Group_6289" transform="translate(111.17 667.076)">
			<path id="Path_41682" class="st1" d="M-73.2-377.5v-3.5c0-0.1,0.1-0.2,0.3-0.2c0.9,0,1.4,0.1,1.4,0.2s-0.1,0.3-0.2,0.3
				s-0.2,0.1-0.2,0.4v2.8h2.4c0.1,0,0.2,0.1,0.2,0.3v0.6c0,0.2-0.1,0.3-0.2,0.3h-2.3c0.3,0.7,0.7,1.4,1.1,2.1c0.5,0.9,1.2,1.7,2,2.4
				c0.1,0.1,0.2,0.1,0.2,0.2c0,0-0.1,0.1-0.1,0.1c-0.2,0.2-0.3,0.4-0.5,0.6c-0.1,0.1-0.1,0.2-0.2,0.2c-0.1,0-0.2-0.1-0.3-0.1
				c-0.7-0.7-1.3-1.4-1.7-2.3c-0.2-0.3-0.3-0.6-0.5-0.9v9.3c0,0.1-0.1,0.2-0.3,0.2h-0.7c-0.2,0-0.3-0.1-0.3-0.2v-7.7
				c-0.3,0.7-0.6,1.3-0.9,1.8c-0.4,0.8-0.8,1.5-1.4,2.2c-0.1,0-0.2,0-0.3-0.1c-0.3-0.1-0.6-0.2-0.8-0.4c-0.1,0-0.2,0-0.2-0.1
				c0.6-0.8,1.2-1.7,1.7-2.6c0.4-0.7,0.7-1.5,1-2.3c0.3-0.8,0.5-1.6,0.7-2.4H-76c-0.1,0-0.2-0.1-0.2-0.3v-0.6c0-0.2,0.1-0.3,0.2-0.3
				L-73.2-377.5z M-60.5-380.6c0.2,0,0.3,0.1,0.3,0.2v15.5c0,0.1-0.1,0.2-0.3,0.2h-0.7c-0.2,0-0.3-0.1-0.3-0.2v-0.8h-5.4v0.8
				c0,0.1-0.1,0.2-0.3,0.2h-0.7c-0.2,0-0.3-0.1-0.3-0.2v-15.5c0-0.1,0.1-0.3,0.2-0.3c0,0,0,0,0.1,0H-60.5z M-61.5-375.8v-3.6h-5.4
				v3.6H-61.5z M-61.5-371.3v-3.4h-5.4v3.4H-61.5z M-61.5-366.8v-3.4h-5.4v3.4H-61.5z"/>
			<path id="Path_41683" class="st1" d="M-52.7-379.1v-1.9c0-0.1,0.1-0.2,0.3-0.2c0.9,0,1.4,0.1,1.4,0.2s-0.1,0.3-0.2,0.3
				s-0.2,0.1-0.2,0.4v1.2h2.9c0.1,0,0.2,0.1,0.2,0.3v0.6c0,0.2-0.1,0.3-0.2,0.3h-2.9v1.4h2.5c0.2,0,0.3,0.1,0.3,0.2v6
				c0,0.1-0.1,0.2-0.3,0.2h-2.5v1.3h3c0.1,0,0.2,0.1,0.2,0.3v0.6c0,0.2-0.1,0.3-0.2,0.3h-3v3c0,0.1-0.1,0.2-0.3,0.2h-0.7
				c-0.2,0-0.3-0.1-0.3-0.2v-3h-2.9c-0.1,0-0.2-0.1-0.2-0.3v-0.6c0-0.2,0.1-0.3,0.2-0.3h2.9v-1.3h-2.5c-0.2,0-0.3-0.1-0.3-0.2v-6
				c0-0.2,0.1-0.2,0.3-0.2h2.5v-1.4h-2.8c-0.1,0-0.2-0.1-0.2-0.3v-0.6c0-0.2,0.1-0.3,0.2-0.3L-52.7-379.1z M-52.7-373.8v-1.7h-1.6
				v1.7H-52.7z M-52.7-372.8h-1.6v1.6h1.6V-372.8z M-51.4-373.8h1.7v-1.7h-1.7L-51.4-373.8z M-49.8-372.8h-1.7v1.6h1.7L-49.8-372.8z
				 M-40.4-372.7c0,0.1-0.1,0.3-0.2,0.3c-0.1,0.1-0.2,0.2-0.2,0.3c-0.2,0.8-0.5,1.5-0.8,2.2c-0.3,0.7-0.6,1.4-1.1,2
				c0.2,0.2,0.4,0.4,0.6,0.6c0.5,0.4,1.1,0.8,1.7,1c0.3,0.1,0.7,0.2,1.1,0.3c0.1,0,0.1,0.1,0.1,0.1c0,0.1,0,0.2-0.1,0.2
				c-0.2,0.2-0.4,0.5-0.6,0.7c-0.1,0.1-0.2,0.2-0.3,0.2c-0.7-0.2-1.4-0.6-2-1c-0.5-0.4-0.9-0.8-1.4-1.2c-0.3,0.4-0.7,0.7-1,0.9
				c-0.8,0.6-1.7,1.1-2.6,1.4c-0.1,0-0.3,0-0.4-0.1c-0.2-0.3-0.4-0.5-0.6-0.7c-0.1-0.1-0.1-0.2-0.1-0.3c0.9-0.2,1.7-0.6,2.4-1.1
				c0.5-0.2,0.9-0.6,1.3-0.9c0.1-0.1,0.1-0.2,0.2-0.3c-0.2-0.2-0.4-0.5-0.5-0.7c-0.3-0.5-0.6-1.1-0.8-1.8c-0.3-0.8-0.4-1.5-0.6-2.3
				c0.3-0.2,0.6-0.4,0.9-0.5c0,0,0.1,0.1,0.1,0.1c0,0.6,0.1,1.2,0.3,1.7c0.1,0.6,0.4,1.1,0.7,1.6c0.2,0.3,0.3,0.6,0.6,0.9
				c0.2-0.3,0.4-0.7,0.6-1c0.3-0.6,0.5-1.1,0.7-1.7c0.1-0.5,0.2-1,0.3-1.5c0-0.1,0-0.1,0.1-0.1C-41.4-373.2-40.9-373-40.4-372.7
				L-40.4-372.7z M-44-376.5c0.1,0.1,0.2,0.1,0.2,0.2c0,0.1-0.1,0.2-0.3,0.2c-0.1,0-0.2,0-0.3,0.1c-0.2,0.4-0.5,0.7-0.7,1.1
				c-0.2,0.3-0.4,0.5-0.6,0.8c-0.3,0.3-0.5,0.5-0.7,0.7c-0.3,0.2-0.4,0.3-0.6,0.4c-0.1,0-0.2-0.1-0.3-0.2c-0.1-0.2-0.3-0.4-0.5-0.6
				c-0.1-0.1-0.2-0.1-0.2-0.2c0,0,0,0,0-0.1c0.3-0.2,0.6-0.3,0.8-0.5c0.3-0.3,0.6-0.6,0.9-1c0.2-0.2,0.4-0.5,0.5-0.7
				c0.2-0.3,0.3-0.5,0.4-0.8c0,0,0.1-0.1,0.1-0.1L-44-376.5z M-42.4-381c0,0.2-0.1,0.3-0.2,0.3s-0.2,0.1-0.2,0.4v1.3h3.3
				c0.1,0,0.2,0.1,0.2,0.3v0.6c0,0.2-0.1,0.3-0.2,0.3h-7.6c-0.1,0-0.2-0.1-0.2-0.3v-0.6c0-0.2,0.1-0.3,0.2-0.3h3v-1.9
				c0-0.2,0.1-0.2,0.3-0.2C-42.8-381.2-42.4-381.2-42.4-381L-42.4-381z M-39.9-375.4c0.5,0.5,0.9,1,1.2,1.4l-0.1,0.2
				c-0.4,0.5-0.6,0.8-0.6,0.8c-0.5-0.6-1-1.2-1.6-1.8c-0.4-0.3-0.7-0.7-1.2-0.9c0.1-0.3,0.3-0.6,0.6-0.8c0-0.1,0.1-0.1,0.2-0.1
				C-40.9-376.3-40.4-375.9-39.9-375.4L-39.9-375.4z"/>
			<path id="Path_41684" class="st1" d="M-29.6-380.4c0,0.1-0.1,0.2-0.1,0.2c-0.2,0-0.3,0.1-0.4,0.2c-0.4,1.1-0.9,2.2-1.4,3.3v11.9
				c0,0.1-0.1,0.2-0.3,0.2h-0.7c-0.2,0-0.3-0.1-0.3-0.2v-9.9c-0.4,0.6-1,1.3-1.6,2.1c-0.1,0-0.3-0.1-0.4-0.2
				c-0.2-0.1-0.4-0.3-0.6-0.5c-0.1-0.1-0.1-0.2-0.1-0.3c0.5-0.6,1-1.2,1.6-1.9c0.7-0.9,1.3-1.9,1.8-2.9c0.4-0.9,0.8-1.9,1-2.8
				c0-0.1,0.1-0.1,0.1-0.1C-30.5-381.1-30-380.8-29.6-380.4z M-22.3-369.3L-22.3-369.3c0-0.3,0-0.6-0.1-0.9
				c-0.1-0.1-0.1-0.2-0.1-0.3c0-0.1,0.1-0.1,0.4-0.1l1.4,0.2c0.1,0.1,0.2,0.1,0.2,0.2c0,0.1-0.1,0.2-0.2,0.2
				c-0.2,0.1-0.3,0.4-0.3,0.9h2.4c0.1,0,0.2,0.1,0.2,0.3v0.6c0,0.2-0.1,0.3-0.2,0.3H-21v2.3c0,0.9-0.7,1.3-1.9,1.3h-1.1
				c-0.1,0-0.1-0.1-0.1-0.3c-0.1-0.3-0.2-0.6-0.4-0.8c0-0.1,0-0.2,0.1-0.2c0.5,0.1,0.9,0.1,1.4,0.2c0.5,0,0.8-0.2,0.8-0.6v-1.8h-7.2
				c-0.1,0-0.2-0.1-0.2-0.3v-0.6c0-0.2,0.1-0.3,0.2-0.3L-22.3-369.3z M-24.7-380.1v-1c0-0.1,0.1-0.2,0.3-0.2c0.9,0,1.4,0.1,1.4,0.2
				c0,0.2-0.1,0.3-0.2,0.3s-0.2,0.1-0.2,0.4v0.4h4.6c0.1,0,0.2,0.1,0.2,0.3v0.6c0,0.2-0.1,0.3-0.2,0.3h-4.6v1h3.9
				c0.2,0,0.3,0.1,0.3,0.2v4.8c0,0.2-0.1,0.2-0.3,0.2h-0.8c0.2,0.3,0.4,0.5,0.6,0.7c0.3,0.5,0.7,0.9,0.9,1.2l-0.1,0.1
				c-0.4,0.5-0.6,0.7-0.6,0.7c-0.2-0.3-0.5-0.6-0.7-0.9l-1.9,0.1c-2.2,0.1-4.5,0.3-6.8,0.5c-0.1,0.3-0.2,0.5-0.3,0.5
				c-0.1,0-0.1,0-0.2-0.1l-0.5-1.5c0.7,0,2.3-0.1,5-0.2v-1h-3.8c-0.2,0-0.3-0.1-0.3-0.2v-4.8c0-0.1,0.1-0.2,0.3-0.2h3.8v-1h-4.4
				c-0.1,0-0.2-0.1-0.2-0.3v-0.6c0-0.2,0.1-0.3,0.2-0.3L-24.7-380.1z M-26.4-366.7c0.3,0.3,0.6,0.6,0.9,0.8l-0.1,0.2
				c-0.4,0.5-0.6,0.7-0.6,0.7c-0.4-0.4-0.8-0.8-1.2-1.1c-0.3-0.2-0.6-0.4-0.8-0.6c0.1-0.3,0.3-0.5,0.5-0.7c0-0.1,0.1-0.1,0.1-0.1
				C-27.2-367.3-26.8-367-26.4-366.7L-26.4-366.7z M-24.7-375.9v-1h-2.8v1H-24.7z M-24.7-374.8h-2.8v1h2.8V-374.8z M-23.4-375.9h2.9
				v-1h-2.9V-375.9z M-20.5-374.8h-2.9v1h2.9V-374.8z M-21.4-372.4c0.1-0.1,0.1-0.3,0.2-0.4h-2.2v1c0.6,0,1.2-0.1,1.9-0.1
				c0.2,0,0.4,0,0.6,0C-21.1-372.1-21.3-372.2-21.4-372.4L-21.4-372.4z"/>
			<path id="Path_41685" class="st1" d="M-12.4-370.1c0,0.1-0.1,0.2-0.1,0.2c-0.1,0.1-0.2,0.2-0.2,0.3c-0.1,0.9-0.2,1.8-0.4,2.7
				c-0.1,0.4-0.2,0.8-0.4,1.2c-0.1,0.1-0.1,0.1-0.1,0.1c-0.3-0.1-0.7-0.2-1-0.3c-0.1,0-0.1-0.1-0.1-0.2c0.2-0.6,0.4-1.1,0.5-1.7
				c0.2-0.9,0.3-1.8,0.4-2.6c0-0.1,0.1-0.2,0.2-0.2C-12.8-370.3-12.4-370.2-12.4-370.1z M-9.5-380.7l0.1,0.2c0,0.1-0.1,0.2-0.3,0.2
				c-0.3,0-0.5,0.1-0.6,0.2c-0.6,0.9-1.2,1.8-1.7,2.5c0.4,0.4,0.9,0.8,1.3,1.3l0,0c0.7-1,1.3-1.8,1.8-2.6c0.5,0.3,0.9,0.7,1.3,1.2
				c0,0.1-0.1,0.1-0.2,0.1c-0.3,0-0.5,0.1-0.6,0.1c-1.1,1.6-2.2,3.1-3.3,4.4c0.7-0.1,1.6-0.1,2.6-0.2c-0.1-0.4-0.3-0.7-0.5-1.1
				c0-0.1,0.3-0.3,0.9-0.6c0.3,0.7,0.6,1.3,0.7,1.9c0.2,0.5,0.3,1.1,0.5,1.7c-0.3,0.2-0.7,0.3-1.1,0.4c-0.1-0.5-0.2-0.9-0.3-1.4v0
				l-1.6,0.3v7.3c0,0.2-0.1,0.2-0.3,0.2h-0.7c-0.2,0-0.3-0.1-0.3-0.2v-7.1l-2.2,0.5c-0.1,0.2-0.3,0.4-0.5,0.5
				c-0.2-0.6-0.3-1.1-0.4-1.7c0.5-0.1,0.9-0.2,1.4-0.2c0.8-1,1.5-1.9,2-2.6c-0.7-0.6-1.3-1-1.6-1.3c-0.6-0.4-1.1-0.7-1.7-0.9
				c0-0.1,0.3-0.4,0.8-1c0-0.1,0.1-0.1,0.2-0.1c0.3,0.2,0.5,0.4,0.8,0.6c0.3-0.5,0.6-0.9,0.9-1.4c0.5-0.8,0.8-1.4,1-1.8L-9.5-380.7z
				 M-8.5-370.4c0.4,1,0.7,2.1,1,3.2c0,0.1-0.4,0.3-1.1,0.4c-0.1,0-0.2,0-0.2-0.1c-0.2-1.1-0.4-2.1-0.7-3.2c0-0.1,0.3-0.2,0.9-0.4
				C-8.5-370.5-8.5-370.5-8.5-370.4z M-3.4-372.1c0,0.1-0.1,0.2-0.2,0.2c-0.1,0.1-0.2,0.3-0.2,0.5v0.7c0,0.6-0.1,1.2-0.1,1.7
				c-0.1,1.2-0.6,2.4-1.5,3.2c-0.4,0.4-0.9,0.8-1.4,1.2c-0.1,0-0.1-0.1-0.2-0.2c-0.2-0.2-0.4-0.4-0.6-0.5c-0.1-0.1-0.2-0.1-0.2-0.2
				c0.5-0.3,1-0.7,1.4-1.1c0.3-0.3,0.5-0.7,0.7-1.1c0.2-0.5,0.4-1,0.5-1.5c0.1-0.5,0.1-1.1,0.1-1.6v-1.4c0-0.1,0-0.2,0.1-0.2
				C-4.4-372.3-3.9-372.2-3.4-372.1z M-1.6-381.2c0,0.2-0.1,0.3-0.2,0.3c-0.1,0-0.2,0.1-0.2,0.4v1.6h4c0.1,0,0.1,0.1,0.1,0.2v0.6
				c0,0.2-0.1,0.3-0.1,0.3h-4.7c-0.7,1.6-1.2,2.8-1.5,3.5c1.2-0.1,2.4-0.3,3.7-0.4c-0.3-0.7-0.6-1.3-0.9-1.8c0-0.1,0.3-0.3,0.8-0.6
				c0.1,0,0.2,0,0.2,0.1c0.8,1.4,1.5,2.8,2.1,4.3c0,0.2,0,0.3-0.1,0.3c-0.3,0.2-0.7,0.4-1,0.4c-0.2-0.6-0.5-1.2-0.7-1.7
				c-2.1,0.3-4,0.5-5.8,0.7c-0.1,0-0.2,0.1-0.3,0.3c0,0.3-0.1,0.5-0.3,0.5s-0.4-0.6-0.8-1.8c0.2,0,0.6,0,1.2-0.1c0.1,0,0.3,0,0.4,0
				c0.1-0.1,0.1-0.3,0.2-0.4c0.5-1.2,1-2.2,1.4-3.2h-3.1c-0.1,0-0.1-0.1-0.1-0.3v-0.6c0-0.1,0-0.2,0.1-0.2h3.9v-2.2
				c0-0.1,0.1-0.2,0.3-0.2C-2-381.4-1.6-381.4-1.6-381.2z M-0.6-372c0,0.1-0.1,0.3-0.1,0.4v5.2c0,0.2,0,0.3,0.1,0.3h1.2
				c0.2,0,0.4-0.6,0.6-1.9l1.1,0.7c-0.4,1.6-0.9,2.4-1.4,2.4h-2c-0.6,0-0.9-0.3-0.9-0.9v-6.3c0-0.1,0-0.2,0.1-0.2
				C-1-372.2-0.6-372.1-0.6-372L-0.6-372z"/>
			<path id="Path_41686" class="st1" d="M13.6-380.9c0.2,0,0.3,0.1,0.3,0.2v5.9c0,0.1-0.1,0.3-0.2,0.3c0,0,0,0-0.1,0H8.1v9.7
				c0,0.1-0.1,0.2-0.3,0.2H7.1c-0.2,0-0.3-0.1-0.3-0.2v-15.9c0-0.1,0.1-0.2,0.3-0.2L13.6-380.9z M12.6-378.2v-1.6H8.1v1.6H12.6z
				 M12.6-375.5v-1.6H8.1v1.6H12.6z M21.3-380.9c0.2,0,0.4,0.1,0.4,0.2v14.2c0,0.6-0.3,1.1-0.8,1.4c-0.7,0.3-1.3,0.5-2,0.5
				c-0.1,0-0.2-0.1-0.2-0.2c0,0,0,0,0,0c-0.1-0.4-0.2-0.8-0.4-1.2c0-0.1,0.1-0.1,0.2-0.1c0.6,0.1,1.2,0,1.7-0.2
				c0.2-0.2,0.3-0.4,0.3-0.7v-7.5h-5c-0.2,0-0.3-0.1-0.3-0.3v-5.9c0-0.1,0.1-0.2,0.3-0.2L21.3-380.9z M20.4-378.2v-1.6h-4v1.6H20.4z
				 M20.4-375.5v-1.6h-4v1.6H20.4z"/>
			<path id="Path_41687" class="st1" d="M31.5-380.7c0.1,0.1,0.2,0.2,0.2,0.2c0,0.1-0.1,0.2-0.4,0.2c-0.1,0-0.2,0.1-0.3,0.2
				c0.4,0.5,0.8,1,1.2,1.5c0.6,0.6,1.2,1,1.9,1.4c0,0.1,0,0.2-0.1,0.3c-0.2,0.2-0.4,0.4-0.7,0.6c-0.1,0-0.1,0-0.1-0.1
				c-0.5-0.3-0.9-0.6-1.3-1c-0.6-0.6-1.1-1.2-1.5-1.9c-0.2,0.3-0.3,0.5-0.5,0.7c-0.2,0.4-0.5,0.7-0.8,1c-0.4,0.4-0.7,0.7-1,1
				c-0.2,0.2-0.5,0.4-0.8,0.6c-0.1,0-0.2-0.1-0.3-0.2c-0.1-0.2-0.3-0.5-0.5-0.6c-0.1-0.1-0.2-0.1-0.2-0.2l0.1-0.1
				c0.4-0.2,0.8-0.5,1.2-0.8c0.5-0.4,0.9-0.9,1.3-1.3c0.3-0.3,0.5-0.7,0.7-1c0.2-0.4,0.4-0.8,0.5-1.1c0.1-0.1,0.1-0.1,0.2-0.1
				L31.5-380.7z M33-376.2c0.1,0,0.1,0.1,0.1,0.2v0.6c0,0.2-0.1,0.3-0.1,0.3H31v2.3h2.4c0.1,0,0.1,0.1,0.1,0.2v0.6
				c0,0.2-0.1,0.3-0.1,0.3H31v4.8c0.8-0.1,1.6-0.3,2.4-0.5c0,0,0.1,0,0.1,0c0.1,0,0.1,0.1,0.1,0.2c0,0.3,0,0.6-0.1,0.9
				c-1.9,0.3-3.9,0.6-6,0.9c-0.2,0.3-0.3,0.5-0.4,0.5s-0.3-0.5-0.7-1.4c0.9-0.1,2-0.2,3.2-0.5v-5h-2.5c-0.1,0-0.1-0.1-0.1-0.3v-0.6
				c0-0.1,0-0.2,0.1-0.2h2.5v-2.3h-1.9c-0.1,0-0.1-0.1-0.1-0.3v-0.6c0-0.1,0-0.2,0.1-0.2L33-376.2z M28.7-369c0.2,0.5,0.4,1,0.5,1.5
				c-0.4,0.2-0.8,0.3-1.2,0.4c-0.1-0.4-0.2-0.9-0.3-1.3c-0.2-0.6-0.4-1.2-0.7-1.8c0-0.1,0.3-0.3,0.9-0.6
				C28.3-370.1,28.5-369.5,28.7-369L28.7-369z M33.7-370.4c0.1,0.1,0.2,0.1,0.2,0.2c0,0.1-0.1,0.1-0.1,0.1c-0.1,0-0.1,0.1-0.2,0.2
				c-0.2,0.6-0.5,1.3-0.8,1.8c-0.1,0.1-0.1,0.1-0.1,0.1c-0.1,0-0.2,0-0.3-0.1c-0.2-0.1-0.4-0.2-0.6-0.3l-0.1-0.1c0,0,0-0.1,0-0.1
				c0.2-0.3,0.4-0.7,0.5-1c0.2-0.4,0.3-0.7,0.4-1.1c0-0.1,0.1-0.2,0.1-0.2L33.7-370.4z M39.6-381c0,0.2-0.1,0.3-0.2,0.3
				c-0.1,0-0.2,0.1-0.2,0.4v3.2h3.2c0.2,0,0.3,0.1,0.3,0.2v9.4c0,0.1-0.1,0.2-0.3,0.2h-1.4c0.7,0.8,1.5,1.4,2.4,2
				c0,0.1-0.1,0.1-0.1,0.2c-0.1,0.3-0.3,0.5-0.5,0.8c-1-0.6-1.9-1.4-2.7-2.2l0.6-0.7l0,0H37c0.5,0.5,0.8,0.7,0.8,0.8
				c0,0.1-0.1,0.1-0.2,0.1c-0.2,0-0.4,0-0.4,0.1c-0.8,0.7-1.7,1.4-2.6,1.9c-0.1,0-0.2-0.1-0.3-0.2c-0.1-0.2-0.2-0.3-0.4-0.5
				c-0.1-0.1-0.1-0.1-0.1-0.2c0-0.1,0-0.1,0.1-0.1c0.4-0.2,0.9-0.5,1.3-0.8c0.5-0.3,0.9-0.7,1.3-1.2h-1.4c-0.2,0-0.3-0.1-0.3-0.2
				v-9.4c0-0.1,0.1-0.2,0.3-0.2H38v-3.8c0-0.2,0.1-0.2,0.3-0.2C39.2-381.2,39.6-381.2,39.6-381L39.6-381z M36-379.8
				c0.3,0.4,0.6,0.7,0.8,1c0,0.1-0.1,0.1-0.1,0.2c-0.4,0.6-0.6,0.8-0.6,0.8c-0.3-0.5-0.7-1-1.1-1.4c-0.2-0.3-0.5-0.5-0.8-0.7
				c0.1-0.3,0.3-0.6,0.6-0.8c0.1-0.1,0.1-0.1,0.1-0.1C35.4-380.5,35.7-380.1,36-379.8L36-379.8z M41.6-374.3v-1.9h-5.5v1.9H41.6z
				 M41.6-371.4v-1.8h-5.5v1.8H41.6z M41.6-370.3h-5.5v1.9h5.5L41.6-370.3z M43.1-380.4c0.1,0.1,0.2,0.1,0.2,0.2s-0.1,0.1-0.2,0.2
				c-0.2,0-0.3,0.1-0.3,0.2c-0.4,0.7-0.8,1.3-1.4,1.8c-0.1,0.1-0.2,0.1-0.3,0.2c-0.1,0-0.2,0-0.3-0.1c-0.2-0.1-0.4-0.2-0.6-0.3
				c-0.1,0-0.1,0-0.1-0.1c0,0,0-0.1,0.1-0.1c0.4-0.3,0.7-0.6,1-1c0.3-0.3,0.6-0.7,0.7-1.1c0.1-0.1,0.1-0.2,0.2-0.2L43.1-380.4z"/>
			<path id="Path_41688" class="st1" d="M51.6-371.7c-0.3,0.5-0.7,1-1.2,1.3l-0.5-0.5c0.7-0.5,1.2-1.3,1.2-2.1h-1.4v-2.2H52v2
				C52-372.7,51.8-372.2,51.6-371.7z"/>
			<path id="Path_41689" class="st1" d="M74.4-380.4c0.1,0,0.2,0.1,0.2,0.3v0.6c0,0.2-0.1,0.3-0.2,0.3h-6.9v0.1l0,1.4h5
				c0.2,0,0.3,0.1,0.3,0.2v7.3c0,0.1-0.1,0.2-0.3,0.2h-0.7c-0.2,0-0.3-0.1-0.3-0.2v-0.5h-4.1c0,0.3-0.1,0.7-0.2,1
				c-0.1,0.7-0.5,1.4-1,1.9c-0.1,0.1-0.1,0.1-0.2,0.2c0.2,0.1,0.3,0.2,0.5,0.3c0.8,0.4,1.6,0.7,2.5,0.9c1.1,0.2,2.1,0.4,3.2,0.5
				c0.9,0.1,1.7,0.1,2.6,0.1c0,0.1-0.1,0.2-0.1,0.3c-0.1,0.3-0.3,0.6-0.4,0.9c0,0.1-0.1,0.2-0.1,0.2c-1.1-0.1-2.1-0.2-3-0.3
				c-0.9-0.1-1.8-0.3-2.6-0.6c-0.9-0.2-1.8-0.6-2.6-1c-0.3-0.1-0.6-0.3-0.9-0.5c-0.2,0.2-0.4,0.3-0.6,0.5c-1,0.6-2,1.1-3.1,1.5
				c-0.5,0.2-1,0.3-1.5,0.3c-0.1,0-0.2-0.1-0.2-0.2c-0.1-0.3-0.3-0.6-0.5-0.9c-0.1,0-0.1-0.1-0.1-0.1c0-0.1,0-0.1,0.1-0.1
				c0.8-0.1,1.7-0.3,2.5-0.6c0.7-0.2,1.4-0.6,2.1-1c0.2-0.1,0.3-0.2,0.5-0.3c-0.5-0.5-1-1.1-1.4-1.7c0.4-0.2,0.7-0.3,1.1-0.4
				c0.3,0.5,0.7,1,1.1,1.4l0,0c0.1,0,0.1-0.1,0.1-0.2c0.4-0.4,0.6-0.8,0.7-1.3c0.1-0.3,0.2-0.6,0.2-0.9h-3.9v0.5
				c0,0.1-0.1,0.2-0.3,0.2h-0.7c-0.2,0-0.3-0.1-0.3-0.2v-7.2c0-0.1,0.1-0.3,0.2-0.3c0,0,0,0,0.1,0h5.1l0-0.9v-0.6h-6.9
				c-0.1,0-0.2-0.1-0.2-0.3v-0.6c0-0.2,0.1-0.3,0.2-0.3L74.4-380.4z M66.2-374.8l0-1.8h-4.1v1.8H66.2z M66.1-372l0-1.7h-4v1.7H66.1z
				 M67.4-372h4.1v-1.7h-4.1L67.4-372z M67.5-374.8h4.1v-1.8h-4.1L67.5-374.8z"/>
			<path id="Path_41690" class="st1" d="M92.4-381.1c0.2,0,0.3,0.1,0.3,0.2v11.4h2.9c0.1,0,0.2,0.1,0.2,0.3v0.6
				c0,0.2-0.1,0.3-0.2,0.3H79.3c-0.1,0-0.2-0.1-0.2-0.3v-0.6c0-0.2,0.1-0.3,0.2-0.3h3.1v-11.3c0-0.1,0.1-0.3,0.2-0.3c0,0,0,0,0.1,0
				H92.4z M85.4-367.2c0.1,0.1,0.1,0.2,0.1,0.3c0,0-0.1,0.1-0.2,0.1c-0.2,0-0.3,0.1-0.4,0.1c-0.5,0.4-1,0.8-1.5,1.1
				c-0.8,0.4-1.6,0.8-2.5,1.2c-0.1,0-0.2,0-0.3-0.2c-0.3-0.2-0.5-0.4-0.6-0.5c-0.1,0-0.1-0.1-0.1-0.1c0,0,0-0.1,0.1-0.1
				c0.4-0.1,0.8-0.2,1.2-0.4c0.6-0.3,1.2-0.6,1.7-1c0.5-0.3,1-0.7,1.4-1.1c0,0,0.1-0.1,0.1-0.1L85.4-367.2z M91.4-378.2v-1.7h-7.7
				v1.7H91.4z M91.4-375.3v-1.7h-7.7v1.7H91.4z M91.4-372.3v-1.9h-7.7v1.9L91.4-372.3z M91.4-369.5v-1.6h-7.7v1.6H91.4z M92.6-366.6
				c0.7,0.4,1.5,0.7,2.3,1c0.1,0.1,0.2,0.1,0.2,0.2c0,0.1-0.3,0.4-0.8,0.9c-0.1,0-0.2,0-0.3-0.1c-1.5-0.7-2.9-1.5-4.2-2.5
				c-0.1-0.1-0.1-0.1-0.1-0.2c0-0.1,0.3-0.4,0.8-0.9C91.1-367.5,91.8-367,92.6-366.6L92.6-366.6z"/>
			<path id="Path_41691" class="st1" d="M-74.5-339.1c0,0.1-0.1,0.2-0.3,0.2h-0.7c-0.2,0-0.3-0.1-0.3-0.2v-15.7
				c0-0.1,0.1-0.2,0.3-0.2h4.8c0.1,0,0.3,0,0.4,0.1c0.3,0.2,0.4,0.4,0.4,0.5l-2,4.6c0,0.1-0.1,0.2-0.1,0.3c0,0.1,0.1,0.2,0.1,0.2
				c0.6,0.6,1,1.3,1.4,2c0.3,0.8,0.5,1.6,0.5,2.5c0,0.6-0.1,1.3-0.4,1.8c-0.2,0.5-0.6,0.9-1.2,1.1c-0.5,0.3-1.1,0.4-1.6,0.3
				c-0.3,0-0.4-0.1-0.4-0.3c0-0.3-0.1-0.6-0.3-0.9c0-0.1,0.1-0.2,0.2-0.2l0.8,0.1c0.5,0,1-0.2,1.3-0.6c0.3-0.4,0.4-0.9,0.4-1.4
				c0-0.7-0.2-1.3-0.4-2c-0.4-0.9-1-1.6-1.7-2.3c-0.1,0-0.1-0.1-0.1-0.2c0-0.1,0-0.2,0.1-0.3l2.1-4.3h-3.3L-74.5-339.1z
				 M-63.8-355.3c0,0.2-0.1,0.3-0.2,0.3c-0.1,0-0.2,0.1-0.2,0.4v2.1h4.4c0.1,0,0.2,0.1,0.2,0.3v0.6c0,0.2-0.1,0.3-0.2,0.3H-66l0,0.1
				c0,1-0.1,1.9-0.1,2.6h5.4c0.1,0,0.2,0.1,0.2,0.3c0,2.5-0.1,4.3-0.3,5.5c-0.1,1-0.3,2-0.7,2.9c-0.3,0.7-1,1-2.2,1
				c-1.1,0-1.6-0.2-1.7-0.5c-0.1-0.4-0.3-0.8-0.6-1.2v-0.1c0.7,0.3,1.5,0.4,2.3,0.4c0.5,0.1,1-0.2,1.2-0.7c0.3-0.7,0.4-1.5,0.5-2.3
				c0.1-0.9,0.2-2.3,0.3-4.2h-4.5c-0.1,0.7-0.1,1.3-0.2,1.8c-0.2,1.3-0.6,2.5-1.2,3.7c-0.5,1-1.2,2-2,2.8c-0.1,0-0.3,0-0.4,0
				c-0.3-0.1-0.5-0.3-0.7-0.5c-0.1,0-0.2-0.1-0.2-0.2s0-0.1,0.1-0.2c1-0.8,1.7-1.8,2.2-3c0.5-1.2,0.9-2.5,1-3.8
				c0.2-1.5,0.3-3.1,0.2-4.6h-2.3c-0.1,0-0.2-0.1-0.2-0.3v-0.6c0-0.2,0.1-0.3,0.2-0.3h4.2v-2.7c0-0.2,0.1-0.2,0.3-0.2
				C-64.3-355.5-63.8-355.4-63.8-355.3z"/>
			<path id="Path_41692" class="st1" d="M-50.7-349.8c0.3,0.6,0.4,0.9,0.4,1c0,0.1-0.1,0.1-0.1,0.1c-0.7,0.8-1.5,1.5-2.3,2.1
				c-0.4,0.3-0.9,0.7-1.4,1.1c-0.1,0.1-0.2,0.2-0.1,0.4c0,0.1-0.1,0.2-0.1,0.2s-0.4-0.4-1-1.1c-0.1,0-0.1-0.1-0.1-0.2
				c0-0.1,0.1-0.1,0.1-0.2c0.5-0.2,0.9-0.5,1.4-0.8c0.6-0.5,1.3-0.9,1.8-1.5c0.5-0.5,1-0.9,1.4-1.3c0-0.1,0.1-0.1,0.1-0.1
				C-50.8-349.9-50.7-349.9-50.7-349.8z M-41.5-344.9c0.2,0,0.3,0.1,0.3,0.2v4.3h1.8c0.1,0,0.2,0.1,0.2,0.3v0.6
				c0,0.2-0.1,0.3-0.2,0.3h-16c-0.1,0-0.2-0.1-0.2-0.3v-0.6c0-0.2,0.1-0.3,0.2-0.3h1.9v-4.2c0-0.2,0.1-0.3,0.3-0.3L-41.5-344.9z
				 M-53.3-351.5c0.5,0.3,0.9,0.6,1.2,0.9c0,0,0,0.1-0.1,0.1c-0.2,0.3-0.4,0.5-0.6,0.8c-0.5-0.4-1.1-0.8-1.6-1.1
				c-0.4-0.2-0.8-0.4-1.2-0.6c0.2-0.3,0.3-0.6,0.6-0.8c0.1-0.1,0.1-0.1,0.1-0.1C-54.3-352.1-53.8-351.8-53.3-351.5L-53.3-351.5z
				 M-51.6-354.5c0.4,0.3,0.8,0.6,1.1,0.8c0,0.1-0.1,0.1-0.1,0.1c-0.4,0.5-0.6,0.8-0.6,0.8c-0.5-0.4-1-0.7-1.5-1.1
				c-0.3-0.2-0.7-0.4-1.1-0.5c0.2-0.3,0.3-0.6,0.6-0.8c0-0.1,0.1-0.1,0.1-0.1C-52.5-355-52-354.7-51.6-354.5L-51.6-354.5z
				 M-49.8-340.4v-3.3h-2.4v3.3H-49.8z M-46.4-355.5c0.1,0.1,0.2,0.2,0.2,0.2c0,0.1-0.1,0.2-0.2,0.2c-0.1,0-0.2,0.1-0.2,0.2
				c0,0,0,0,0,0c-0.1,0.5-0.3,1-0.4,1.3h6.9c0.1,0,0.2,0,0.3,0.1c0.3,0.2,0.4,0.4,0.4,0.5l-1.6,3.4c0,0.1-0.1,0.1-0.1,0.1
				c-0.7-0.2-1-0.4-1-0.5l1.2-2.4h-2.9c0,0.5,0.1,1,0.2,1.5c0.1,0.5,0.3,1,0.6,1.4c0.2,0.4,0.5,0.8,0.8,1.1c0.4,0.4,0.8,0.8,1.3,1
				c0.5,0.4,1.1,0.6,1.8,0.8c0,0.1-0.1,0.2-0.2,0.3c-0.2,0.2-0.5,0.5-0.7,0.7c-0.1,0.1-0.1,0.1-0.2,0.2c-0.6-0.3-1.2-0.6-1.8-1
				c-0.5-0.3-0.9-0.7-1.2-1.1c-0.4-0.4-0.7-0.8-0.9-1.3c-0.2-0.3-0.4-0.7-0.5-1.1c-0.2,0.5-0.3,0.9-0.6,1.3c-0.3,0.5-0.7,1-1.1,1.4
				c-0.5,0.5-1,0.9-1.6,1.2c-0.5,0.2-0.9,0.4-1.4,0.6c-0.2,0-0.4-0.1-0.4-0.2c-0.1-0.2-0.3-0.5-0.5-0.7c-0.1,0-0.1-0.1-0.1-0.1
				c0-0.1,0-0.1,0.1-0.2c0.6-0.1,1.2-0.3,1.7-0.6c0.6-0.3,1.2-0.7,1.6-1.1c0.3-0.3,0.6-0.7,0.8-1.1c0.3-0.5,0.4-1,0.6-1.5
				c0.1-0.5,0.2-0.9,0.2-1.4h-2.1c-0.2,0.5-0.4,0.9-0.6,1.3c-0.2,0.4-0.5,0.8-0.8,1.2c-0.1,0-0.2,0-0.4-0.1
				c-0.2-0.1-0.4-0.2-0.7-0.3c-0.1,0-0.1-0.1-0.1-0.1c0-0.1,0-0.1,0.1-0.2c0.5-0.6,0.9-1.2,1.2-1.9c0.2-0.4,0.4-0.9,0.5-1.4
				c0.2-0.7,0.4-1.3,0.5-2c0-0.1,0.1-0.1,0.1-0.1L-46.4-355.5z M-46.2-340.4v-3.3h-2.3v3.3H-46.2z M-42.5-340.4v-3.3h-2.4v3.3H-42.5
				z"/>
			<path id="Path_41693" class="st1" d="M-30.2-344.9c-0.4-0.5-0.9-1.2-1.6-2c-0.6-0.7-1.2-1.3-1.9-1.9l0.8-1
				c1.4,1.2,2.6,2.4,3.8,3.8L-30.2-344.9z"/>
			<path id="Path_41694" class="st1" d="M-7.5-354.9c0.1,0,0.2,0.1,0.2,0.2v0.7c0,0.2-0.1,0.3-0.2,0.3h-6.8c0.5,0.4,0.8,0.6,0.8,0.6
				c0,0.1-0.1,0.2-0.3,0.2c-0.2,0-0.4,0.2-0.6,0.5c-0.5,0.7-1.2,1.6-2.1,2.7c-1,1.1-2.1,2.2-3.2,3.1c-0.9,0.7-1.8,1.3-2.8,1.9
				c-0.2,0-0.3-0.1-0.4-0.2c-0.2-0.2-0.4-0.4-0.6-0.6c-0.1,0-0.2-0.1-0.2-0.2c0-0.1,0.1-0.2,0.1-0.2c1.3-0.6,2.4-1.3,3.5-2.1
				c1-0.8,2-1.7,2.8-2.7c0.8-1,1.5-2,2.1-3.1h-8.2c-0.1,0-0.2-0.1-0.2-0.3v-0.7c0-0.1,0.1-0.2,0.2-0.2L-7.5-354.9z M-14.4-349.5
				c0,0.2-0.1,0.3-0.2,0.3c-0.1,0-0.2,0.2-0.2,0.4v9.8c0,0.1-0.1,0.2-0.4,0.2h-0.7c-0.2,0-0.3-0.1-0.3-0.2v-10.4
				c0-0.1,0.1-0.2,0.3-0.2C-14.9-349.7-14.4-349.6-14.4-349.5L-14.4-349.5z M-9.7-348.8c1,1,1.8,1.9,2.5,2.6c0,0,0,0.1-0.1,0.2
				l-0.6,0.8c-1-1.2-2.2-2.4-3.3-3.4c-0.8-0.7-1.6-1.2-2.4-1.8c0.2-0.3,0.4-0.6,0.6-0.9c0.1-0.1,0.1-0.1,0.2-0.1
				C-11.7-350.6-10.7-349.7-9.7-348.8L-9.7-348.8z"/>
			<path id="Path_41695" class="st1" d="M10.8-355.3c0.2,0,0.3,0.1,0.3,0.2v6.7c0,0.1-0.1,0.2-0.3,0.2H3.7c-0.3,0.5-0.7,1-1.1,1.4
				c-0.1,0.1-0.2,0.2-0.3,0.3h10.3c0.1,0,0.2,0.1,0.2,0.2c0,0,0,0,0,0c0,1.4-0.1,2.8-0.3,4.2c-0.1,0.8-0.4,1.6-0.8,2.3
				c-0.3,0.5-1.1,0.8-2.5,0.8c-0.7,0-1-0.1-1-0.4c-0.1-0.4-0.2-0.7-0.4-1v-0.1c0.5,0.1,0.9,0.2,1.4,0.2c0.8,0,1.2-0.2,1.5-0.6
				c0.3-0.5,0.5-1.1,0.6-1.7c0.2-1,0.3-1.9,0.3-2.9H9.2c-0.4,0.9-0.9,1.7-1.3,2.4c-0.6,0.8-1.2,1.5-1.9,2.2
				c-0.7,0.7-1.5,1.3-2.3,1.9c-0.1,0-0.3,0-0.3-0.1l-0.9-0.4c-0.1,0-0.2,0-0.2-0.1c1-0.6,1.9-1.3,2.8-2.2c0.6-0.6,1.2-1.2,1.6-1.9
				c0.4-0.5,0.7-1.1,1-1.7H5.2c-0.5,0.7-1,1.4-1.5,2c-0.7,0.7-1.4,1.3-2.2,1.9c-0.8,0.6-1.7,1.2-2.7,1.6c-0.1,0-0.3,0-0.3-0.1
				c-0.3-0.1-0.6-0.3-0.9-0.4c-0.1,0-0.2,0-0.2-0.1c1.1-0.5,2.2-1.1,3.2-1.8c0.7-0.5,1.3-1,1.9-1.7c0.4-0.4,0.8-0.8,1.1-1.3H1.3
				c-0.1,0.1-0.1,0.1-0.2,0.1c-0.6,0.5-1.3,0.9-2,1.3c-0.5,0.3-1,0.5-1.5,0.7c-0.1,0-0.2-0.1-0.2-0.3l-0.6-0.7
				c-0.1-0.1-0.2-0.2-0.2-0.2c0.8-0.3,1.7-0.6,2.5-1c0.7-0.4,1.4-0.9,2-1.5c0.4-0.4,0.8-0.9,1.2-1.3h-2.5c-0.2,0-0.3-0.1-0.3-0.2
				v-6.7c0-0.1,0.1-0.2,0.3-0.2L10.8-355.3z M9.8-352.4v-1.8H0.7v1.8H9.8z M9.8-351.2H0.7v1.9h9.1V-351.2z"/>
			<path id="Path_41696" class="st1" d="M23.9-354.2c0.1,0,0.2,0.1,0.2,0.3v0.6c0,0.2-0.1,0.3-0.2,0.3h-3.2c0,0.1,0,0.1,0,0.2
				c-0.1,0.9-0.2,1.8-0.4,2.6c-0.1,0.4-0.2,0.7-0.3,1.1h3.1c0.2,0,0.3,0.1,0.3,0.2v8.1c0,0.1-0.1,0.2-0.3,0.2h-0.7
				c-0.1,0-0.2-0.1-0.2-0.2c0,0,0,0,0,0v-0.8H20v2.5c0,0.1-0.1,0.2-0.3,0.2H19c-0.1,0-0.2-0.1-0.2-0.2v-6.8
				c-0.2,0.3-0.3,0.6-0.5,0.8c-0.1,0.1-0.2,0.2-0.2,0.2c-0.1,0-0.3,0-0.4-0.1c-0.2-0.2-0.5-0.3-0.7-0.4c-0.1,0-0.1-0.1-0.1-0.2
				c0-0.1,0-0.1,0.1-0.1c0.3-0.3,0.6-0.7,0.8-1.1c0.4-0.7,0.7-1.5,0.9-2.3c0.3-0.9,0.5-1.8,0.6-2.7c0.1-0.3,0.1-0.7,0.1-1h-1.8
				c-0.1,0-0.2-0.1-0.2-0.3v-0.6c0-0.2,0.1-0.3,0.2-0.3H23.9z M22.2-343v-5.2H20v5.2H22.2z M32.8-348.1c0.1,0,0.2,0,0.3,0.1
				c0.1,0.2,0.3,0.4,0.4,0.6c-0.2,0.9-0.5,1.9-0.9,2.8c-0.3,0.7-0.6,1.4-1,2.1c-0.2,0.3-0.4,0.6-0.7,0.9c0.3,0.3,0.7,0.5,1,0.7
				c0.7,0.4,1.4,0.7,2.2,1c0.1,0,0.1,0.1,0.1,0.1c0,0.1,0,0.1-0.1,0.2c-0.2,0.2-0.5,0.4-0.7,0.6c-0.1,0.1-0.1,0.2-0.2,0.2
				c-0.1,0-0.2-0.1-0.3-0.1c-0.4-0.2-0.9-0.4-1.4-0.7c-0.6-0.3-1.1-0.7-1.6-1.1c-0.5,0.5-1.1,0.9-1.7,1.2c-0.6,0.3-1.2,0.6-1.8,0.8
				c-0.1,0-0.3,0-0.3-0.1l-0.4-0.6c0,0-0.1-0.1-0.1-0.2c0-0.1,0-0.1,0.1-0.2c0.5-0.1,0.9-0.3,1.4-0.5c0.7-0.3,1.4-0.8,2-1.3
				c-0.3-0.3-0.5-0.5-0.7-0.8c-0.4-0.6-0.8-1.2-1-1.9c-0.4-0.8-0.6-1.7-0.8-2.6h-0.4c0,1.2-0.1,2.3-0.3,3.5c-0.1,1-0.4,2-0.8,3
				c-0.2,0.6-0.5,1.2-0.8,1.7c-0.1,0-0.1,0-0.2,0c-0.2-0.2-0.4-0.4-0.7-0.5c-0.1-0.1-0.1-0.1-0.1-0.2c0.4-0.7,0.6-1.3,0.8-2.1
				c0.2-0.9,0.4-1.9,0.5-2.9c0.1-1.3,0.2-2.6,0.2-3.8v-4.8c0-0.2,0.1-0.3,0.3-0.3h3.5v-1.9c0-0.1,0.1-0.1,0.2-0.1
				c0.9,0,1.3,0.1,1.3,0.2s-0.1,0.2-0.1,0.2c-0.1,0-0.1,0.1-0.1,0.3v1.3h3.5c0.1,0,0.2,0,0.4,0.1c0.2,0.2,0.4,0.4,0.4,0.5l-1.3,3.8
				c0,0.1-0.1,0.1-0.1,0.1c-0.7-0.2-1-0.3-1-0.5l1-2.9H30v4.2L32.8-348.1z M26.3-348.1h2.4v-4.2h-2.4V-348.1z M28.3-345.5
				c0.2,0.7,0.5,1.4,0.9,2c0.2,0.4,0.5,0.7,0.8,1c0.2-0.3,0.5-0.6,0.7-0.9c0.4-0.6,0.7-1.3,0.9-2c0.2-0.5,0.3-1,0.5-1.6h-4.1
				C28-346.5,28.1-346,28.3-345.5L28.3-345.5z"/>
			<path id="Path_41697" class="st1" d="M40.1-350.6v-4.7c0-0.2,0.1-0.2,0.3-0.2c0.9,0,1.4,0.1,1.4,0.2s-0.1,0.3-0.2,0.3
				s-0.2,0.1-0.2,0.4v4h1.7c0.1,0,0.2,0.1,0.2,0.3v0.6c0,0.2-0.1,0.3-0.2,0.3h-1.7v5.3c0.7-0.2,1.5-0.4,2.1-0.7c0,0,0.1,0,0.1,0
				c0.1,0,0.1,0,0.1,0.1c0,0,0,0,0,0c0,0.3,0,0.7-0.1,1c-1.6,0.6-3.1,1.1-4.7,1.5c-0.2,0.3-0.3,0.5-0.4,0.5c-0.1,0-0.4-0.5-0.7-1.5
				c0.8-0.1,1.5-0.3,2.3-0.6v-5.6h-1.9c-0.1,0-0.2-0.1-0.2-0.3v-0.6c0-0.2,0.1-0.3,0.2-0.3L40.1-350.6z M53.7-352.5
				c0.2,0,0.3,0.1,0.3,0.2v3.3c0,0.2-0.1,0.2-0.3,0.2h-4v2.8c0.3,0.8,0.7,1.5,1.2,2.3c0.2,0.3,0.4,0.6,0.6,0.9
				c0.3-0.1,0.6-0.3,0.9-0.5c0.5-0.3,0.9-0.6,1.3-1c0.1,0,0.1-0.1,0.2-0.1c0.4,0.3,0.7,0.6,1,1c0,0.1-0.1,0.1-0.2,0.1
				c-0.2,0-0.4,0-0.4,0.1c-0.6,0.5-1.2,0.9-1.9,1.3l0.1,0.1c0.7,0.7,1.6,1.4,2.5,1.8c0.1,0,0.2,0.1,0.2,0.1c0,0.1,0,0.2-0.1,0.2
				c-0.3,0.2-0.5,0.4-0.7,0.6c-0.1,0.1-0.1,0.1-0.2,0.1c-0.7-0.4-1.3-0.8-1.8-1.3c-0.7-0.6-1.4-1.4-1.9-2.2
				c-0.5-0.7-0.9-1.4-1.2-2.2c-0.8,0.6-1.5,1.1-2.4,1.5v2.1c0.9-0.2,1.8-0.4,2.6-0.7c0,0,0.1,0,0.1,0c0.1,0,0.1,0.1,0.1,0.1
				c0,0,0,0,0,0c0,0.3,0,0.7-0.1,1c-1.6,0.4-3.3,0.8-5,1.2c-0.2,0.3-0.3,0.5-0.4,0.5s-0.4-0.5-0.7-1.5c0.6-0.1,1.3-0.2,2.1-0.4v-1.8
				c-1,0.4-1.9,0.8-2.7,1c-0.1,0-0.2-0.1-0.2-0.2c-0.2-0.2-0.3-0.5-0.5-0.7c-0.1-0.1-0.1-0.2-0.1-0.3c1.1-0.3,2.2-0.6,3.3-1
				c1.1-0.5,2.2-1.2,3.2-1.9v-3.2h-3.9c-0.2,0-0.3-0.1-0.3-0.2v-3.3c0-0.1,0.1-0.2,0.3-0.2L53.7-352.5z M49.9-355.4
				c0,0.2-0.1,0.3-0.2,0.3c-0.1,0-0.2,0.1-0.2,0.4v0.6h5c0.1,0,0.1,0.1,0.1,0.2v0.4c0,0.2-0.1,0.3-0.1,0.3H43.3
				c-0.1,0-0.1-0.1-0.1-0.3v-0.4c0-0.1,0-0.2,0.1-0.2h4.9v-1.2c0-0.1,0.1-0.2,0.3-0.2C49.4-355.6,49.9-355.5,49.9-355.4L49.9-355.4z
				 M47.5-347.9c0.1,0,0.1,0.1,0.1,0.2v0.4c0,0.2-0.1,0.3-0.1,0.3H44c-0.1,0-0.1-0.1-0.1-0.3v-0.4c0-0.2,0-0.2,0.1-0.2H47.5z
				 M47.5-345.8c0.1,0,0.1,0.1,0.1,0.2v0.4c0,0.2-0.1,0.3-0.1,0.3H44c-0.1,0-0.1-0.1-0.1-0.3v-0.4c0-0.1,0-0.2,0.1-0.2H47.5z
				 M47.1-351.5h-1.6v1.9h1.6V-351.5z M50-351.5h-1.8v1.9H50V-351.5z M53.9-347.9c0.1,0,0.1,0.1,0.1,0.2v0.4c0,0.2-0.1,0.3-0.1,0.3
				h-3.1c-0.1,0-0.1-0.1-0.1-0.3v-0.4c0-0.2,0-0.2,0.1-0.2H53.9z M53.9-345.8c0.1,0,0.1,0.1,0.1,0.2v0.4c0,0.2-0.1,0.3-0.1,0.3h-3.1
				c-0.1,0-0.1-0.1-0.1-0.3v-0.4c0-0.1,0-0.2,0.1-0.2H53.9z M52.8-351.5H51v1.9h1.8V-351.5z"/>
			<path id="Path_41698" class="st1" d="M63.2-355.1c0,0.1-0.1,0.2-0.1,0.2c-0.2,0-0.3,0.1-0.4,0.2c-0.1,0.2-0.1,0.3-0.2,0.4h4.3
				c0.1,0,0.1,0.1,0.1,0.2v0.6c0,0.2-0.1,0.3-0.1,0.3h-2.6c0.3,0.5,0.7,1,1,1.5c0,0.2-0.1,0.3-0.1,0.3c-0.3,0.2-0.6,0.4-1,0.4
				c-0.4-0.9-0.8-1.6-1.2-2.2h-0.9c-0.2,0.4-0.5,0.7-0.8,1c-0.5,0.5-1,1-1.5,1.5c-0.1,0-0.3-0.1-0.3-0.2c-0.2-0.1-0.4-0.3-0.5-0.4
				c-0.1,0-0.1-0.1-0.1-0.2c0.4-0.3,0.8-0.7,1.1-1.1c0.5-0.5,0.9-1,1.3-1.6c0.3-0.5,0.5-1,0.7-1.6c0-0.1,0-0.1,0.1-0.1
				C62.3-355.8,62.8-355.5,63.2-355.1z M66.1-349.9v-0.9c0-0.1,0.1-0.2,0.3-0.2c0.9,0,1.4,0.1,1.4,0.2c0,0.2-0.1,0.3-0.2,0.3
				s-0.2,0.2-0.2,0.4v0.3h5.3c0.1,0,0.2,0.1,0.2,0.3v0.6c0,0.2-0.1,0.3-0.2,0.3h-5.3v1.6h7.5c0.1,0,0.2,0.1,0.2,0.3v0.6
				c0,0.2-0.1,0.3-0.2,0.3h-4.2v1.4h2.7c0.1,0,0.2,0.1,0.2,0.3v0.6c0,0.2-0.1,0.3-0.2,0.3h-2.7v3.2c0,0.9-0.8,1.4-2.2,1.4h-1.1
				c-0.1,0-0.1-0.1-0.1-0.4c-0.1-0.3-0.2-0.7-0.3-1v-0.1c0.5,0.1,1,0.1,1.5,0.2c0.7,0,1-0.2,1-0.6v-2.7h-9.1c-0.1,0-0.2-0.1-0.2-0.3
				v-0.6c0-0.2,0.1-0.3,0.2-0.3h9.1v-1.4H58.9c-0.1,0-0.2-0.1-0.2-0.3v-0.6c0-0.2,0.1-0.3,0.2-0.3h7.2v-1.6h-5
				c-0.1,0-0.2-0.1-0.2-0.3v-0.6c0-0.2,0.1-0.3,0.2-0.3L66.1-349.9z M64.1-342c0.5,0.3,1,0.6,1.3,0.9c0,0.1-0.1,0.1-0.1,0.1
				c-0.3,0.5-0.5,0.8-0.5,0.8c-0.6-0.4-1.2-0.8-1.8-1.1c-0.4-0.2-0.9-0.4-1.3-0.6c0.1-0.3,0.3-0.6,0.6-0.8c0.1-0.1,0.1-0.1,0.1-0.1
				C63-342.6,63.6-342.3,64.1-342L64.1-342z M70.6-355.1c0,0.1-0.1,0.2-0.1,0.2c-0.2,0-0.3,0.1-0.4,0.2c-0.1,0.2-0.1,0.3-0.2,0.4
				h5.2c0.1,0,0.1,0.1,0.1,0.2v0.6c0,0.2-0.1,0.3-0.1,0.3h-2.9c0.4,0.5,0.7,1,1,1.5c0,0.2,0,0.3-0.1,0.3c-0.3,0.2-0.6,0.4-1,0.4
				c-0.4-0.7-0.8-1.5-1.3-2.2h-1.5c-0.1,0.2-0.3,0.4-0.4,0.6c-0.3,0.4-0.7,0.8-1.1,1.2c-0.1,0-0.3-0.1-0.4-0.2
				c-0.2-0.1-0.4-0.3-0.5-0.4c-0.1,0-0.1-0.1-0.1-0.2c0.3-0.3,0.5-0.6,0.8-0.9c0.4-0.4,0.7-0.9,0.9-1.4c0.2-0.4,0.4-0.9,0.5-1.3
				c0-0.1,0-0.1,0.1-0.1C69.7-355.8,70.2-355.5,70.6-355.1z"/>
			<path id="Path_41699" class="st1" d="M83.7-354.7c0,0.1-0.1,0.2-0.1,0.2c-0.2,0-0.3,0.1-0.4,0.3c-0.3,1-0.6,1.9-0.9,2.6v12.5
				c0,0.1-0.1,0.2-0.3,0.2h-0.7c-0.2,0-0.3-0.1-0.3-0.2v-9.9c-0.3,0.5-0.7,1.1-1.2,1.8c-0.2,0-0.3-0.1-0.4-0.2
				c-0.2-0.2-0.4-0.3-0.6-0.5c-0.1,0-0.1-0.1-0.1-0.2c0.4-0.6,0.8-1.2,1.2-1.9c0.5-0.9,1-1.8,1.3-2.8c0.3-0.9,0.6-1.8,0.8-2.7
				c0-0.1,0-0.1,0.1-0.1C82.6-355.4,83.2-355.1,83.7-354.7z M88.2-346.9c0.1,0,0.2,0.1,0.2,0.1c0,0.1,0,0.2-0.1,0.2
				c-0.1,0-0.1,0.1-0.1,0.2v1c0,0.4,0.2,0.7,0.7,0.7h1.9c0.4,0,0.6-0.1,0.7-0.2c0.2-0.3,0.3-0.7,0.4-1.1c0.2,0.2,0.4,0.4,0.6,0.5
				c0.1,0,0.2,0.1,0.2,0.2c-0.1,0.4-0.2,0.9-0.5,1.3c-0.1,0.2-0.4,0.3-0.7,0.3h-2.7c-0.2,0-0.3,0-0.5,0c-0.2,0.3-0.4,0.5-0.6,0.7
				h5.9c0.1,0,0.2,0,0.3,0.1c0.2,0.2,0.3,0.4,0.3,0.4c-0.4,0.5-0.8,0.9-1.2,1.3c-0.4,0.4-0.9,0.7-1.4,0.9c-0.2,0.1-0.4,0.2-0.6,0.3
				c0.3,0.1,0.7,0.1,1,0.2c1.2,0.2,2.5,0.3,3.8,0.2c0,0.1-0.1,0.2-0.1,0.3c-0.1,0.2-0.2,0.4-0.2,0.6c0,0.1-0.1,0.2-0.2,0.2
				c-1.2,0-2.4-0.1-3.5-0.4c-0.7-0.2-1.4-0.4-2.1-0.6c-0.8,0.2-1.6,0.4-2.4,0.6c-0.6,0.1-1.5,0.3-2.5,0.4c-0.1,0-0.2,0-0.3-0.1
				c-0.1-0.2-0.2-0.4-0.4-0.6c0,0-0.1-0.1-0.1-0.2c0,0,0-0.1,0.1-0.1c0.6-0.1,1.3-0.1,1.9-0.2c0.8-0.1,1.6-0.2,2.4-0.4
				c-0.2-0.1-0.5-0.3-0.7-0.5c-0.5-0.4-0.9-0.8-1.2-1.3c-0.1,0.1-0.2,0.1-0.3,0.2c-0.4,0.3-0.8,0.5-1.2,0.8c-0.3,0.2-0.6,0.3-1,0.5
				c-0.1,0-0.2,0-0.2-0.1c-0.1-0.2-0.3-0.4-0.4-0.5c-0.1-0.1-0.1-0.1-0.1-0.2l0.1-0.1c1-0.3,2-0.9,2.9-1.6c0.3-0.2,0.6-0.5,0.8-0.8
				c0.1-0.1,0.2-0.2,0.3-0.4c-0.1-0.1-0.2-0.3-0.2-0.5v-2c0-0.1,0-0.2,0.1-0.2L88.2-346.9z M95.1-355c0.1,0,0.1,0.1,0.1,0.2v0.4
				c0,0.1-0.1,0.2-0.1,0.2h-5c-0.2,0.3-0.4,0.6-0.6,0.9h3.8c0.2,0,0.3,0.1,0.3,0.2v4.7h1.7c0.2,0,0.3,0.1,0.3,0.2v1.9
				c0,0.1-0.1,0.2-0.3,0.2h-0.7c-0.1,0-0.2-0.1-0.2-0.2v-1.3h-9.6v1.4c0,0.1-0.1,0.2-0.3,0.2h-0.7c-0.1,0-0.2-0.1-0.2-0.2
				c0,0,0,0,0,0v-2c0-0.1,0.1-0.2,0.2-0.2h1.7v-4.8c0-0.1,0.1-0.1,0.2-0.1h2.4c0.2-0.2,0.3-0.4,0.5-0.6c0.1-0.1,0.2-0.2,0.2-0.4
				h-4.6c-0.1,0-0.1-0.1-0.1-0.2v-0.4c0-0.1,0-0.2,0.1-0.2L95.1-355z M86.5-346.1c0.1,0.1,0.2,0.1,0.2,0.2s-0.1,0.1-0.1,0.1
				c-0.1,0-0.2,0.1-0.2,0.1c-0.3,0.6-0.6,1.2-1,1.8c-0.1,0.1-0.1,0.1-0.2,0.1c-0.1,0-0.2,0-0.3-0.1c-0.2-0.1-0.4-0.2-0.6-0.3
				c-0.1,0-0.1,0-0.1-0.1l0.1-0.1c0.3-0.3,0.5-0.6,0.7-1c0.2-0.3,0.4-0.7,0.5-1.1c0-0.1,0.1-0.1,0.1-0.1L86.5-346.1z M92.5-351.5
				v-0.9h-5.8v0.9H92.5z M92.5-349.9v-0.8h-5.8v0.8H92.5z M92.5-348.3v-0.9h-5.8v0.9H92.5z M88.1-341.6c0.4,0.4,0.9,0.7,1.5,0.9
				c0.5-0.2,0.9-0.3,1.3-0.5c0.5-0.2,0.9-0.5,1.3-0.8c0.1-0.1,0.2-0.2,0.3-0.3h-5.1C87.6-342.1,87.9-341.8,88.1-341.6z M90.6-346.5
				c0.3,0.2,0.5,0.4,0.7,0.6l-0.1,0.1l-0.4,0.6c-0.3-0.2-0.6-0.5-0.9-0.7c-0.2-0.1-0.4-0.3-0.7-0.4c0.1-0.2,0.2-0.4,0.4-0.6
				c0-0.1,0.1-0.1,0.1-0.1C90-346.9,90.3-346.7,90.6-346.5z M94.6-345.4c0.2,0.3,0.4,0.5,0.5,0.8c-0.3,0.1-0.6,0.2-0.9,0.3
				c-0.1-0.2-0.2-0.4-0.4-0.6c-0.2-0.3-0.5-0.6-0.8-0.9c0-0.1,0.3-0.2,0.8-0.5C94.1-346.1,94.4-345.8,94.6-345.4L94.6-345.4z"/>
			<path id="Path_41700" class="st1" d="M-68.8-318.2c0.1-0.3,0.1-0.6,0.1-0.9c0-0.1,0.1-0.2,0.3-0.2l1.3,0.2c0.1,0,0.2,0.1,0.2,0.1
				s-0.1,0.1-0.2,0.2c-0.1,0.1-0.2,0.2-0.3,0.3c0,0.1-0.1,0.2-0.1,0.3h6.4c0.1,0,0.2,0.1,0.2,0.2c0,0,0,0,0,0c0,0.9-0.1,1.9-0.2,2.8
				c-0.1,0.6-0.3,1.1-0.6,1.5c-0.3,0.4-1,0.6-2.1,0.6c-0.8,0-1.2-0.1-1.2-0.4c-0.1-0.3-0.3-0.7-0.5-1v-0.1c0.6,0,1.2,0.1,1.7,0.1
				c0.6,0,0.9-0.1,1.1-0.3c0.2-0.3,0.4-0.6,0.5-1c0.1-0.4,0.2-0.9,0.2-1.3h-5.8c0,0.1-0.1,0.1-0.1,0.1c-0.3,0.5-0.6,0.9-1,1.3
				c-0.5,0.4-1.1,0.8-1.8,1.1c-0.8,0.4-1.6,0.7-2.4,0.9c-0.6,0.1-1.3,0.3-2.1,0.5c-0.2,0-0.4-0.1-0.4-0.2c-0.2-0.2-0.3-0.5-0.5-0.7
				c-0.1,0-0.1-0.1-0.1-0.2c0-0.1,0-0.1,0.1-0.1c0.9-0.1,1.8-0.3,2.6-0.5c0.9-0.2,1.7-0.5,2.5-0.9c0.5-0.2,0.9-0.5,1.3-0.9
				c0.2-0.1,0.3-0.3,0.4-0.5h-4.8c-0.1,0-0.2-0.1-0.2-0.3v-0.6c0-0.1,0.1-0.2,0.2-0.2c0,0,0,0,0,0L-68.8-318.2z M-71.9-328.8v-0.9
				c0-0.1,0.1-0.1,0.2-0.1c0.9,0,1.3,0.1,1.3,0.2c0,0.2-0.1,0.3-0.1,0.3c-0.1,0-0.1,0.1-0.1,0.3v0.3h2.7c0.1,0,0.1,0.1,0.1,0.2v0.4
				c0,0.2-0.1,0.3-0.1,0.3h-2.7v0.9h3.2c0.1,0,0.1,0.1,0.1,0.2v0.4c0,0.2-0.1,0.3-0.1,0.3h-2.1v1c0,0.2,0,0.2,0.1,0.2h1.6
				c0.1,0,0.2-0.3,0.3-0.9l0.9,0.6c-0.3,0.8-0.6,1.2-1,1.2h-2.2c-0.5,0-0.7-0.2-0.7-0.6v-1.5h-1.7v0.1c0,0.4-0.2,0.8-0.4,1.1
				c-0.2,0.3-0.6,0.6-1,0.8c-0.5,0.2-1,0.4-1.6,0.5c-0.1,0-0.2,0-0.2-0.1c-0.2-0.1-0.3-0.2-0.6-0.4c-0.1,0-0.1-0.1-0.1-0.2
				c0,0,0.1,0,0.2-0.1c0.5-0.1,0.9-0.3,1.4-0.5c0.3-0.1,0.6-0.3,0.8-0.6c0.2-0.2,0.3-0.5,0.4-0.7h-2.4c-0.1,0-0.1-0.1-0.1-0.3v-0.4
				c0-0.1,0-0.2,0.1-0.2h3.9v-0.9H-75c-0.1,0-0.1-0.1-0.1-0.3v-0.4c0-0.2,0-0.2,0.1-0.2L-71.9-328.8z M-72-322.7v-1.1
				c0-0.1,0.1-0.1,0.2-0.1c0.9,0,1.3,0.1,1.3,0.2s-0.1,0.2-0.1,0.2c-0.1,0-0.1,0.1-0.1,0.3v0.5h2.7c0.1,0,0.1,0.1,0.1,0.2v0.4
				c0,0.2-0.1,0.3-0.1,0.3h-2.7v1.2c0.5,0,1-0.1,1.6-0.2s1-0.1,1.3-0.2c0,0,0.1,0,0.1,0.1c0,0.2-0.1,0.4-0.1,0.6
				c0,0.1,0,0.1-0.1,0.1c-0.5,0-1,0.1-1.6,0.2c-1.8,0.3-3.5,0.5-5.4,0.8c-0.1,0.3-0.2,0.4-0.3,0.4c-0.1,0-0.1,0-0.1-0.1l-0.4-1.3
				c0.5,0,1.7-0.2,3.7-0.4v-1.3h-3c-0.1,0-0.1-0.1-0.1-0.3v-0.4c0-0.1,0-0.2,0.1-0.2L-72-322.7z M-64.7-327.7c0-0.6,0-1.1,0-1.8
				c0-0.2,0.1-0.2,0.2-0.2l1.1,0.1c0.1,0,0.1,0.1,0.1,0.2c0,0.1-0.1,0.2-0.2,0.3c-0.1,0-0.2,0.1-0.2,0.2c0,0.4,0,0.9,0,1.2h2.5
				c0.1,0,0.2,0.1,0.2,0.1c0.1,0.2,0.2,0.4,0.3,0.6c-0.4,0.7-0.6,1.5-0.8,2.3c-0.1,0.6-0.2,1.3-0.2,1.9c0,0.5,0.1,1,0.2,1.5
				c0.1,0.3,0.3,0.4,0.4,0.4c0.2,0,0.3-0.1,0.4-0.2c0.2-0.4,0.4-0.9,0.4-1.4c0-0.1,0.1-0.1,0.2-0.1c0.1,0,0.1,0,0.1,0.1
				c0.2,0.2,0.3,0.3,0.5,0.4c0.1,0,0.1,0.1,0.1,0.2c-0.2,0.8-0.6,1.6-1.1,2.2c-0.2,0.2-0.4,0.3-0.7,0.4c-0.3,0-0.6-0.2-0.8-0.5
				c-0.3-0.3-0.6-0.8-0.7-1.2c-0.2-0.6-0.2-1.2-0.2-1.8c0.1-1.3,0.3-2.6,0.8-3.9h-1.8c-0.1,0.8-0.1,1.5-0.2,2
				c-0.1,0.6-0.2,1.1-0.4,1.7c0.4,0.5,0.8,1,1.1,1.5l-0.1,0.1c-0.3,0.4-0.5,0.7-0.5,0.7c-0.3-0.4-0.6-0.8-0.9-1.2l0,0.1
				c-0.4,0.8-0.9,1.5-1.5,2.1c-0.1,0-0.2,0-0.3,0c-0.2-0.1-0.4-0.2-0.6-0.3c-0.1,0-0.1,0-0.1-0.1c0-0.1,0-0.1,0.1-0.1
				c0.7-0.6,1.3-1.4,1.6-2.3c0-0.1,0.1-0.1,0.1-0.2c-0.4-0.4-0.8-0.8-1.2-1.1c0.1-0.3,0.3-0.5,0.5-0.7c0.1-0.1,0.1-0.1,0.1-0.1
				c0.3,0.3,0.6,0.6,0.9,0.8c0.1-0.5,0.3-1.1,0.3-1.6c0-0.3,0.1-0.7,0.1-1.1h-1.8c-0.1,0-0.2-0.1-0.2-0.2v-0.6
				c0-0.1,0.1-0.2,0.2-0.2L-64.7-327.7z"/>
			<path id="Path_41701" class="st1" d="M-53.5-320.2c-0.3,0.5-0.7,1-1.2,1.3l-0.5-0.5c0.7-0.5,1.2-1.3,1.2-2.1h-1.4v-2.2h2.2v2
				C-53.1-321.2-53.2-320.7-53.5-320.2z"/>
			<path id="Path_41702" class="st1" d="M-45.8-323.7c0,1.7-0.1,3.4-0.4,5.1c-0.2,1.1-0.5,2.2-0.9,3.2c-0.2,0.6-0.6,1.3-1,1.8
				c-0.1,0-0.1,0-0.2,0c-0.2-0.2-0.4-0.3-0.7-0.5c-0.1-0.1-0.1-0.2-0.1-0.3c0.4-0.7,0.8-1.4,1-2.2c0.3-1,0.5-2,0.6-3.1
				c0.1-1.4,0.2-2.7,0.2-4.1v-5.3c0-0.2,0.1-0.3,0.3-0.3h13.5c0.2,0,0.3,0.1,0.3,0.2v3.9c0,0.1-0.1,0.3-0.2,0.3c0,0,0,0-0.1,0h-12.5
				V-323.7z M-45.8-326h11.5v-2.2h-11.5V-326z M-39.5-322.1v-1.9c0-0.1,0.1-0.2,0.3-0.2c0.9,0,1.4,0.1,1.4,0.2s-0.1,0.3-0.2,0.3
				s-0.2,0.1-0.2,0.4v1.2h5.4c0.1,0,0.2,0.1,0.2,0.3v0.6c0,0.2-0.1,0.3-0.2,0.3h-5.4v2.2h4.3c0.2,0,0.3,0.1,0.3,0.2v5.2
				c0,0.1-0.1,0.3-0.2,0.3c0,0,0,0,0,0h-0.7c-0.1,0-0.3-0.1-0.3-0.2c0,0,0,0,0-0.1v-0.5h-7.9v0.6c0,0.1-0.1,0.2-0.3,0.2h-0.7
				c-0.2,0-0.3-0.1-0.3-0.2v-5.2c0-0.1,0.1-0.3,0.2-0.3c0,0,0,0,0.1,0h4.3v-2.2h-5c-0.1,0-0.2-0.1-0.2-0.3v-0.6
				c0-0.2,0.1-0.3,0.2-0.3L-39.5-322.1z M-34.9-315v-2.6h-7.9v2.6H-34.9z"/>
			<path id="Path_41703" class="st1" d="M-21.3-329.7c0,0.2-0.1,0.3-0.2,0.3s-0.2,0.1-0.2,0.4v1h7.1c0.2,0,0.3,0.1,0.3,0.2v3.5
				c0,0.1-0.1,0.2-0.3,0.2h-0.7c-0.2,0-0.3-0.1-0.3-0.2v-2.6H-29v2.6c0,0.1-0.1,0.2-0.3,0.2h-0.7c-0.2,0-0.3-0.1-0.3-0.2v-3.4
				c0-0.1,0.1-0.3,0.2-0.3c0,0,0.1,0,0.1,0h7v-1.7c0-0.1,0.1-0.2,0.3-0.2C-21.8-329.9-21.3-329.8-21.3-329.7z M-17-325.2
				c0.1,0,0.2,0.1,0.2,0.3v0.6c0,0.2-0.1,0.3-0.2,0.3h-4.6c-0.3,0.3-0.7,0.5-0.9,0.7c0.5,0.7,1,1.2,1.3,1.7c0.3,0.4,0.5,0.9,0.7,1.2
				c1.1-0.7,2.1-1.5,3-2.3c0.1-0.1,0.3-0.2,0.5-0.2c0.1,0,0.2,0.1,0.3,0.1c0.8,0.5,1.2,0.8,1.2,0.9c0,0.2-0.1,0.3-0.2,0.3l-0.4-0.1
				c-0.2,0-0.5,0.1-0.7,0.3c-0.8,0.5-1.8,1.2-2.8,2c0.3,0.5,0.7,1,1,1.4c0.5,0.6,1.1,1.1,1.7,1.5c0.9,0.7,1.8,1.2,2.8,1.5
				c0.1,0,0.2,0.1,0.2,0.1c0,0.1,0,0.2-0.1,0.2c-0.3,0.2-0.5,0.4-0.7,0.6c-0.1,0.1-0.1,0.2-0.2,0.2c-1.6-0.7-3-1.7-4.2-2.9
				c-0.2-0.2-0.4-0.4-0.6-0.7c0,0.1,0,0.2,0,0.3c0,0.6-0.1,1.1-0.2,1.6c-0.1,0.5-0.3,0.9-0.6,1.3c-0.3,0.3-0.7,0.6-1.1,0.8
				c-0.6,0.2-1.2,0.4-1.9,0.4c-0.1,0-0.3-0.1-0.3-0.2c0,0,0,0,0-0.1c-0.1-0.4-0.3-0.7-0.5-1.1c0-0.1,0-0.2,0.1-0.2l0.4,0.1
				c0.7,0.1,1.3-0.1,1.9-0.4c0.3-0.2,0.5-0.6,0.6-0.9c0.2-0.4,0.2-0.9,0.2-1.3c0-0.3,0-0.6-0.1-0.9c-0.3,0.3-0.6,0.5-0.9,0.7
				c-0.7,0.6-1.4,1.1-2.2,1.5c-0.9,0.5-1.8,1-2.8,1.3c-0.7,0.3-1.4,0.5-2.2,0.7c-0.1,0-0.2-0.1-0.3-0.3c-0.2-0.2-0.4-0.4-0.6-0.7
				c-0.1-0.1-0.1-0.2-0.1-0.2c1.2-0.3,2.4-0.6,3.6-1c1-0.4,2-0.9,2.9-1.5c0.8-0.6,1.6-1.2,2.3-1.9c-0.2-0.5-0.4-0.9-0.6-1.4
				c-0.3,0.3-0.6,0.5-0.9,0.7c-0.6,0.5-1.2,0.9-1.9,1.3c-0.8,0.4-1.6,0.8-2.4,1.1c-0.6,0.3-1.2,0.5-1.9,0.6c-0.1,0-0.2-0.1-0.2-0.2
				c-0.2-0.2-0.4-0.4-0.6-0.7C-30-318-30-318-30-318.1c1-0.2,2-0.5,3-0.9c0.9-0.3,1.7-0.7,2.5-1.2c0.6-0.4,1.3-0.9,1.8-1.5
				c-0.3-0.3-0.5-0.7-0.8-1c-0.1,0.1-0.2,0.1-0.2,0.1c-0.7,0.5-1.5,0.9-2.3,1.3c-0.9,0.4-1.9,0.8-2.9,1.1c-0.1,0-0.2,0-0.3-0.1
				c-0.2-0.2-0.5-0.4-0.7-0.6c0-0.1,0-0.1-0.1-0.2c0.9-0.2,1.6-0.5,2.2-0.7c0.9-0.3,1.8-0.7,2.7-1.2c0.4-0.2,0.9-0.6,1.6-1.1h-4.1
				c-0.1,0-0.2-0.1-0.2-0.3v-0.6c0-0.2,0.1-0.3,0.2-0.3L-17-325.2z"/>
			<path id="Path_41704" class="st1" d="M-2.8-324.7l0.1,0.2c0,0.1-0.1,0.2-0.2,0.2c-0.4,0-0.5,0.1-0.6,0.2
				c-0.3,0.6-0.7,1.2-1.1,1.9H4c0.2,0,0.2,0.1,0.2,0.2v0.7c0,0.2-0.1,0.3-0.2,0.3H0.4c-0.2,0.6-0.5,1.2-0.8,1.8
				c-0.3,0.7-0.8,1.4-1.3,2.1c-0.1,0.1-0.2,0.2-0.3,0.3c0.2,0.1,0.4,0.2,0.6,0.3c1.9,1,3.5,1.8,4.8,2.6c0,0.1-0.1,0.1-0.1,0.2
				c-0.4,0.6-0.6,0.8-0.6,0.8c-1.8-1.1-3.7-2.1-5.7-3c-0.2,0.1-0.3,0.2-0.5,0.3c-0.8,0.5-1.6,0.9-2.4,1.3c-1.4,0.5-2.8,1-4.2,1.4
				c-0.1,0-0.2-0.1-0.2-0.1c-0.2-0.3-0.4-0.6-0.6-0.9c-0.1-0.1-0.1-0.2-0.1-0.2c0.4,0,0.9-0.1,1.3-0.2c0.8-0.2,1.5-0.3,2.3-0.6
				c1-0.3,1.9-0.7,2.8-1.2c0.2-0.1,0.3-0.2,0.5-0.3c-1.4-0.6-2.6-1.1-3.6-1.4c-0.3,0.3-0.6,0.7-0.8,1c-0.1,0-0.2,0-0.3-0.1
				c-0.2-0.1-0.5-0.2-0.7-0.3c-0.1,0-0.1-0.1-0.1-0.2c1.1-1.3,1.9-2.4,2.6-3.3c0-0.1,0.1-0.1,0.1-0.2H-12c-0.1,0-0.2-0.1-0.2-0.3
				v-0.7c0-0.1,0.1-0.2,0.2-0.2h5.7c0.4-0.6,0.8-1.3,1.2-2c0.2-0.4,0.5-0.9,0.6-1.3c0-0.1,0.1-0.2,0.1-0.2L-2.8-324.7z M-2.8-329.4
				c0,0.2-0.1,0.3-0.2,0.3c-0.1,0-0.2,0.1-0.2,0.4v0.9h6.3c0.2,0,0.3,0.1,0.3,0.2v3.6c0,0.1-0.1,0.2-0.3,0.2H2.4
				c-0.2,0-0.3-0.1-0.3-0.2v-2.7h-12.5v2.7c0,0.1-0.1,0.2-0.3,0.2h-0.7c-0.2,0-0.3-0.1-0.3-0.2v-3.5c0-0.1,0.1-0.3,0.2-0.3
				c0,0,0,0,0.1,0h6.8v-1.6c0-0.1,0.1-0.2,0.3-0.2C-3.3-329.7-2.8-329.6-2.8-329.4L-2.8-329.4z M-5.5-321L-5.5-321
				c-0.5,0.7-1,1.4-1.6,2.2c1.5,0.5,2.7,1,3.8,1.5l0.1-0.1c0.5-0.5,1-1.1,1.4-1.8c0.4-0.6,0.6-1.2,0.8-1.8L-5.5-321z"/>
			<path id="Path_41705" class="st1" d="M10.4-328.1c-0.1,0-0.2-0.1-0.2-0.3v-0.7c0-0.1,0.1-0.2,0.2-0.2c0,0,0,0,0.1,0h4.2
				c0.2,0,0.3,0.1,0.4,0.2c0.6,1.3,1.4,2.5,2.5,3.4c1.4,1.2,3.1,2,5,2.2c0.3,0,0.4,0.1,0.4,0.2c0,0.1,0,0.2-0.1,0.2
				c-0.2,0.2-0.4,0.4-0.6,0.6c-0.1,0.1-0.2,0.2-0.3,0.2c-0.6-0.2-1.2-0.4-1.8-0.6v0.5c0,0.2-0.1,0.3-0.2,0.3h-4.8v2.9h4.7
				c0.1,0,0.2,0.1,0.2,0.2c0,0,0,0,0,0v0.7c0,0.2-0.1,0.3-0.2,0.3h-4.7v3.2h6.8c0.1,0,0.2,0.1,0.2,0.2c0,0,0,0,0,0.1v0.7
				c0,0.2-0.1,0.3-0.2,0.3H6.6c-0.1,0-0.2-0.1-0.2-0.3v-0.7c0-0.1,0.1-0.2,0.2-0.2h6.9v-3.2H8.7c-0.1,0-0.2-0.1-0.2-0.3v-0.7
				c0-0.1,0.1-0.2,0.2-0.2h4.8v-2.9h-5c-0.1,0-0.2-0.1-0.2-0.3v-0.4c-0.5,0.3-1.1,0.6-1.7,0.8c-0.1,0-0.2-0.1-0.2-0.2
				c-0.2-0.2-0.4-0.4-0.6-0.7c-0.1-0.1-0.1-0.2-0.1-0.2c1.1-0.4,2.1-0.8,3.1-1.3c0.9-0.5,1.8-1.1,2.5-1.8c0.6-0.6,1.1-1.2,1.5-1.8
				L10.4-328.1z M18.9-323.2c-0.9-0.4-1.8-0.9-2.5-1.5c-0.9-0.9-1.7-2-2.3-3.2c-0.4,0.6-0.8,1.2-1.3,1.7c-0.6,0.7-1.2,1.3-1.9,1.9
				c-0.5,0.4-1.1,0.8-1.7,1.2L18.9-323.2z"/>
			<path id="Path_41706" class="st1" d="M40-328.9c0.1,0,0.2,0.1,0.2,0.3v0.6c0,0.2-0.1,0.3-0.2,0.3h-6.9v0.1l0,1.4h5
				c0.2,0,0.3,0.1,0.3,0.2v7.3c0,0.1-0.1,0.2-0.3,0.2h-0.7c-0.2,0-0.3-0.1-0.3-0.2v-0.5H33c0,0.3-0.1,0.7-0.2,1
				c-0.2,0.7-0.5,1.4-1,1.9c-0.1,0.1-0.1,0.1-0.2,0.2c0.2,0.1,0.4,0.2,0.5,0.3c0.8,0.4,1.6,0.7,2.5,0.9c1.1,0.2,2.1,0.4,3.2,0.5
				c0.9,0.1,1.7,0.1,2.6,0.1c0,0.1-0.1,0.2-0.1,0.3c-0.1,0.3-0.3,0.6-0.4,0.9c0,0.1-0.1,0.2-0.1,0.2c-1.1-0.1-2.1-0.2-3-0.3
				c-0.9-0.1-1.8-0.3-2.6-0.6c-0.9-0.2-1.8-0.6-2.6-1c-0.3-0.1-0.6-0.3-0.9-0.5c-0.2,0.2-0.4,0.3-0.6,0.5c-1,0.6-2,1.1-3.1,1.5
				c-0.5,0.2-1,0.3-1.5,0.3c-0.1,0-0.2-0.1-0.2-0.2c-0.2-0.3-0.3-0.6-0.5-0.9c-0.1,0-0.1-0.1-0.1-0.1c0-0.1,0-0.1,0.1-0.1
				c0.8-0.1,1.7-0.3,2.5-0.6c0.7-0.2,1.4-0.6,2.1-1c0.2-0.1,0.3-0.2,0.5-0.3c-0.5-0.5-1-1.1-1.4-1.7c0.4-0.2,0.7-0.3,1.1-0.4
				c0.3,0.5,0.7,1,1.1,1.4l0,0c0.1,0,0.1-0.1,0.1-0.2c0.4-0.4,0.6-0.8,0.7-1.3c0.1-0.3,0.2-0.6,0.2-0.9h-3.9v0.5
				c0,0.1-0.1,0.2-0.3,0.2h-0.7c-0.2,0-0.3-0.1-0.3-0.2v-7.2c0-0.1,0.1-0.3,0.2-0.3c0,0,0,0,0.1,0h5.1l0-0.9v-0.6h-6.9
				c-0.1,0-0.2-0.1-0.2-0.3v-0.6c0-0.2,0.1-0.3,0.2-0.3L40-328.9z M31.7-323.3l0-1.8h-4v1.8H31.7z M31.7-320.4l0-1.7h-4v1.7H31.7z
				 M33-320.4h4.1v-1.7H33L33-320.4z M33-323.3h4.1v-1.8h-4.1L33-323.3z"/>
			<path id="Path_41707" class="st1" d="M48.2-327.5c0.3-0.7,0.5-1.3,0.7-2c0.1-0.2,0.2-0.2,0.3-0.2l1.4,0.5
				c0.1,0.1,0.2,0.2,0.2,0.3c0,0.1-0.1,0.3-0.2,0.3c-0.3,0-0.5,0.1-0.6,0.4c-0.1,0.3-0.2,0.6-0.3,0.8h8.8c0.1,0,0.2,0.1,0.2,0.3v0.6
				c0,0.2-0.1,0.3-0.2,0.3h-9.4c-0.3,0.6-0.6,1.2-1,1.8c-0.1,0.1-0.1,0.2-0.2,0.3h8.6c0.2,0,0.4,0.1,0.4,0.3v9.7
				c0,0.4-0.3,0.7-0.9,0.9c-0.7,0.2-1.5,0.3-2.3,0.4c-0.1,0-0.2-0.1-0.2-0.2c-0.1-0.4-0.2-0.8-0.4-1.2c0,0,0.1-0.1,0.2-0.1
				c0.7,0,1.3,0,2-0.1c0.2-0.1,0.4-0.2,0.4-0.4v-1.3h-7.8v3c0,0.1-0.1,0.2-0.3,0.2h-0.7c-0.2,0-0.3-0.1-0.3-0.2v-9.1
				c-0.1,0.1-0.2,0.3-0.4,0.4c-0.7,0.7-1.4,1.4-2.2,2c-0.2,0-0.3,0-0.4-0.1c-0.3-0.1-0.5-0.2-0.8-0.3c-0.1,0-0.1-0.1-0.1-0.1
				c0-0.1,0.1-0.2,0.1-0.2c1.3-0.9,2.4-2,3.3-3.2c0.6-0.7,1.1-1.5,1.5-2.3l0.1-0.2h-5c-0.1,0-0.2-0.1-0.2-0.3v-0.6
				c0-0.2,0.1-0.3,0.2-0.3L48.2-327.5z M55.6-320.9v-2.2h-7.8v2.2H55.6z M55.6-317.4v-2.3h-7.8v2.3H55.6z"/>
			<path id="Path_41708" class="st1" d="M66.4-328.8c0,0.1-0.1,0.2-0.1,0.2c-0.2,0-0.3,0.1-0.4,0.2c-0.5,1.2-1,2.3-1.7,3.3v11.9
				c0,0.1-0.1,0.2-0.3,0.2h-0.7c-0.2,0-0.3-0.1-0.3-0.2v-10.2c-0.4,0.5-1,1.1-1.6,1.8c-0.1,0-0.3-0.1-0.4-0.2
				c-0.2-0.2-0.4-0.3-0.6-0.5c-0.1,0-0.1-0.1-0.1-0.2c0.5-0.6,1.1-1.2,1.6-1.8c0.7-0.8,1.3-1.8,1.8-2.7c0.4-0.8,0.8-1.7,1.1-2.6
				c0-0.1,0.1-0.2,0.1-0.2C65.4-329.5,65.9-329.2,66.4-328.8z M75.9-328.9c0.2,0,0.3,0.1,0.3,0.2v6.2c0,0.2-0.1,0.2-0.3,0.2h-0.7
				c-0.2,0-0.3-0.1-0.3-0.2v-0.8h-2.7v2.7h4.9c0.1,0,0.2,0.1,0.2,0.3v0.6c0,0.2-0.1,0.3-0.2,0.3h-4.6c0.4,0.6,0.9,1.2,1.5,1.8
				c0.6,0.6,1.2,1.2,1.9,1.6c0.6,0.4,1.2,0.7,1.9,0.9c0,0.1-0.1,0.2-0.2,0.2c-0.2,0.2-0.5,0.5-0.6,0.7c-0.1,0.1-0.1,0.1-0.2,0.1
				c-0.8-0.4-1.6-0.9-2.3-1.5c-0.7-0.5-1.2-1.2-1.7-1.9c-0.1-0.2-0.3-0.4-0.4-0.6v4.9c0,0.1-0.1,0.2-0.3,0.2h-0.7
				c-0.2,0-0.3-0.1-0.3-0.2v-4.6c-0.2,0.3-0.4,0.5-0.5,0.7c-0.5,0.6-1.1,1.2-1.7,1.7c-0.7,0.5-1.3,1-2.1,1.4c-0.1,0-0.2,0-0.3-0.1
				c-0.2-0.2-0.5-0.4-0.7-0.6c0-0.1-0.1-0.1-0.1-0.2c0.6-0.3,1.1-0.6,1.6-0.9c0.7-0.5,1.3-1,1.9-1.6c0.6-0.6,1.1-1.3,1.6-2h-4.3
				c-0.1,0-0.2-0.1-0.2-0.3v-0.6c0-0.2,0.1-0.3,0.2-0.3h4.6v-2.7h-2.7v0.9c0,0.1-0.1,0.2-0.3,0.2h-0.7c-0.2,0-0.3-0.1-0.3-0.2v-6.2
				c0-0.1,0.1-0.3,0.2-0.3c0,0,0,0,0.1,0L75.9-328.9z M74.9-324.5v-3.3h-6.7v3.3H74.9z"/>
			<path id="Path_41709" class="st1" d="M83.5-329.3c0.3,0,0.5,0.1,0.6,0.1c0.2,0.2,0.4,0.4,0.4,0.7l-1.8,4.7c0,0.1,0,0.1,0,0.2
				c0,0.1,0,0.1,0.1,0.2c0.6,0.6,1.1,1.3,1.5,2c0.2,0.6,0.4,1.2,0.4,1.9c0.1,0.8-0.1,1.7-0.6,2.4c-0.4,0.7-1.2,1.1-2,1
				c-0.6,0-0.8-0.1-0.8-0.4c-0.1-0.3-0.1-0.6-0.2-0.9c0-0.2,0-0.3,0.1-0.3l1,0.2c0.4,0,0.8-0.2,0.9-0.6c0.1-0.5,0.2-1,0.2-1.5
				c0-0.6-0.2-1.2-0.5-1.7c-0.4-0.7-0.9-1.4-1.5-1.9c-0.1-0.1-0.1-0.1-0.1-0.1c0-0.1,0-0.2,0.1-0.3l1.9-4.5h-2.6v14.8
				c0,0.2-0.1,0.2-0.3,0.2h-0.7c-0.2,0-0.3-0.1-0.3-0.2v-15.7c0-0.1,0.1-0.2,0.3-0.2L83.5-329.3z M88-325.9c0.1,0.2,0.2,0.5,0.3,0.7
				H91c0.2-0.2,0.3-0.5,0.5-0.7c0.2-0.3,0.3-0.7,0.4-1c0-0.1,0.1-0.1,0.1-0.1l1,0.4c0.2,0.1,0.3,0.1,0.3,0.2s-0.1,0.1-0.1,0.1
				c-0.1,0-0.2,0.1-0.2,0.2c-0.1,0.3-0.3,0.6-0.4,0.9h2.6c0.1,0,0.2,0.1,0.2,0.2v0.6c0,0.2-0.1,0.3-0.2,0.3H84.1
				c-0.1,0-0.1-0.1-0.1-0.3v-0.6c0-0.1,0-0.2,0.1-0.2h3.1c0-0.1-0.1-0.1-0.1-0.2c-0.2-0.4-0.5-0.8-0.7-1.1c0-0.1,0.3-0.3,0.9-0.6
				C87.6-326.7,87.8-326.3,88-325.9L88-325.9z M93.8-322.9c0.2,0,0.3,0.1,0.3,0.2v5c0,0.2-0.1,0.2-0.3,0.2h-3.5v1.3h4.8
				c0.1,0,0.1,0.1,0.1,0.2v0.6c0,0.2-0.1,0.3-0.1,0.3h-4.8v1.8c0,0.1-0.1,0.2-0.3,0.2h-0.7c-0.2,0-0.3-0.1-0.3-0.2v-1.8h-5
				c-0.1,0-0.1-0.1-0.1-0.3v-0.6c0-0.1,0-0.2,0.1-0.2h5v-1.3h-3.3c-0.2,0-0.3-0.1-0.3-0.2v-5c0-0.2,0.1-0.2,0.3-0.2L93.8-322.9z
				 M90.8-329.7c0,0.2-0.1,0.3-0.2,0.3c-0.1,0-0.2,0.1-0.2,0.4v0.7h4.3c0.1,0,0.1,0.1,0.1,0.2v0.6c0,0.2-0.1,0.3-0.1,0.3h-9.7
				c-0.1,0-0.1-0.1-0.1-0.3v-0.6c0-0.1,0-0.2,0.1-0.2h4.2v-1.4c0-0.1,0.1-0.2,0.3-0.2C90.3-329.9,90.8-329.9,90.8-329.7L90.8-329.7z
				 M92.8-320.7v-1.2h-6v1.2H92.8z M92.8-319.7h-6v1.2h6L92.8-319.7z"/>
		</g>
	</g>
</g>
</svg>
