<svg id="section5_title_lg" xmlns="http://www.w3.org/2000/svg" width="347.628" height="123" viewBox="0 0 347.628 123">
  <path id="Path_533" data-name="Path 533" d="M358.616,1814.545v8.429H319.51v-8.429Z" transform="translate(-317.145 -1793.288)" fill="#c9dcb7"/>
  <path id="Path_534" data-name="Path 534" d="M367.545,1811.3v33.844h-8.051v8.261c.048,1.4.652,2.041,1.76,2.041h4.884a1.313,1.313,0,0,0,1.2-.754c.305-.473.509-2.933.611-7.5l6.441,1.635c-.353,5.741-1.059,9.487-2.167,11.241-.856,1.293-2.412,1.994-4.681,1.994H357.68c-3.268,0-4.879-2.227-4.879-6.62v-10.3h-4.783c-.5,4.747-1.712,8.261-3.723,10.482-2.616,3.047-6.692,5.567-12.331,7.608l-4.729-7.081q7.551-1.932,10.871-4.741a10.137,10.137,0,0,0,3.017-6.268h-6.639V1811.3Zm-6.692,9.607v-3.22H341.177v3.22Zm0,8.895v-3.16H341.177v3.16Zm0,5.741H341.177v3.22h19.676Z" transform="translate(-278.624 -1809.489)" fill="#c9dcb7"/>
  <path id="Path_535" data-name="Path 535" d="M381.477,1816.029a60.448,60.448,0,0,1-10.415,1.933v2.16h11.577v5.507H371.062v2.281h10.015v20.316H371.062v2.28h10.619v5.041H371.062v2.514h11.577v5.974H353.547v-3.687c-4.777,1.287-10.014,2.46-15.7,3.454l-1.006-6.615c2.215-.24,4.478-.527,6.693-.94v-15.337h-6.291V1835h6.291V1831.3H339.2v-2.748c-.8.94-1.562,1.873-2.365,2.748l-1.155-7.727a44.788,44.788,0,0,0,7.243-11.475h5.735a62.186,62.186,0,0,1,6.6,8.021h9.913v-1.694c-2.921.233-6.04.293-9.26.293l-1.557-5.68c10.212,0,18.623-.647,25.159-2.047Zm-38.55,37.932-4.878.712c-.054-3.514-.251-7.38-.6-11.481l4.124-.413C342.126,1845.886,342.575,1849.633,342.928,1853.962Zm8.051-28.332a83.2,83.2,0,0,0-4.681-7.788,56.335,56.335,0,0,1-4.831,7.788Zm3.172,28.332v4.1h11.02v-2.514h-9.458v-5.041h9.458v-2.28H355.51v-20.316h9.661v-2.281H354.553v-2.52l-1.706,2.52h.7v5.675h-4.681V1835h5.082v5.914h-5.082v10.248a40.211,40.211,0,0,0,1.766-8.846l3.921.7a46.751,46.751,0,0,1-1.76,10.014l-3.927-1.287v3.515C350.632,1854.908,352.392,1854.435,354.151,1853.962Zm11.224-18.084v-2.693h-4.124v2.693Zm0,4.155h-4.124v2.981h4.124Zm5.483-4.155h4.531v-2.693h-4.531Zm4.531,4.155h-4.531v2.981h4.531Z" transform="translate(-236.498 -1810.995)" fill="#c9dcb7"/>
  <path id="Path_536" data-name="Path 536" d="M350.051,1822.682c-.2,5.86-.449,10.894-.8,15.108l-5.082-1.406a130.762,130.762,0,0,0,1.359-14.169Zm6.9-11.649v10.775l2.52-.94a65.887,65.887,0,0,1,2.813,7.968H371.7v-2.521h-9.865v-5.034H371.7v-2.053H360.473v-5.5H371.7v-2.694h6.441v2.694h11.625v5.5H378.137v2.053H388.4v5.034H378.137v2.521H390.72v5.727H359.665v-3.626l-1.155.64c-.5-2.221-1.006-4.328-1.562-6.2v39.585h-6.136v-53.928Zm31.809,25.818v22.9c0,3.334-1.862,5.034-5.483,5.034h-7.1l-.754-6.208c3.37.181,5.28.234,5.687.234.9,0,1.359-.526,1.359-1.58v-.7H367.919v8.434h-6.291v-28.11h27.128Zm-6.291,8.021v-2.52H367.919v2.52Zm0,7.087v-2.521H367.919v2.521Z" transform="translate(-194.207 -1810.799)" fill="#c9dcb7"/>
  <path id="Path_537" data-name="Path 537" d="M361.795,1827.6q-3.322.7-6.95,1.227l5.19,1.521a32.852,32.852,0,0,1-2.466,4.574h5.782v10.3h-4.328c1.46,1.76,2.819,3.633,4.13,5.506l-4.729,4.1a51.208,51.208,0,0,0-5.19-7.494c-.449,2.926-1.257,4.8-2.412,5.675-.958.826-2.718,1.173-5.339,1.173h-6.692c-.449.587-.9,1.113-1.305,1.58h19.975v4.567a28.706,28.706,0,0,1-7.345,6.615,72.947,72.947,0,0,0,14.241,1.407l-1.2,6.848a82.948,82.948,0,0,1-19.424-3.627c-.611-.233-1.215-.467-1.718-.7a109.339,109.339,0,0,1-20.328,4.561l-2.568-6.435a95.875,95.875,0,0,0,15.252-1.873,55.462,55.462,0,0,1-5.441-3.633,29.086,29.086,0,0,1-6.088,2.987l-2.718-6.148a27.445,27.445,0,0,0,12.331-6.913c-1.155-.814-1.712-2.394-1.712-4.735v-6.447h5.89v4.806c0,1.114.551,1.641,1.562,1.641h6.088a6.071,6.071,0,0,0,2.316-.354c.5-.118.856-1.166,1.054-3.106l4.783,1.179c-.5-.532-1.006-1.059-1.46-1.646l4.531-3.394c.6.641,1.155,1.292,1.76,1.873v-2.807H342.819a49.584,49.584,0,0,1,4.43,2.987l-3.771,4.561a53.456,53.456,0,0,0-5.89-4.795l2.263-2.753H325.61v2.281l4.124,1.813a40.117,40.117,0,0,1-4.729,11.008l-4.885-4.1a30.653,30.653,0,0,0,3.777-6.208h-4.382v-10.3h7c-.6-.947-1.311-1.94-2.065-2.934l4.884-1.232c-2.317.06-4.633.06-7.051.06l-1.61-5.735q23.866,0,39.16-2.52Zm-22.094,7.321c-.557-1.18-1.209-2.407-1.915-3.634l4.579-1.114c-3.52.234-7.3.407-11.224.521a22.944,22.944,0,0,1,2.317,4.227Zm2.616,29.851a25.287,25.287,0,0,0,6.591-3.748H334.816A34.68,34.68,0,0,0,342.316,1864.775Zm7.949-29.851a31.367,31.367,0,0,0,3.22-5.861c-2.867.407-5.884.7-9.057.933a30.073,30.073,0,0,1,2.065,4.927Z" transform="translate(-319.115 -1753.317)" fill="#c9dcb7"/>
  <path id="Path_538" data-name="Path 538" d="M351.364,1822.641v14.176h16.509v7.314H351.364v20.849H371.4v7.315H327.564v-7.315h16.707v-42.339Z" transform="translate(-276.989 -1752.928)" fill="#c9dcb7"/>
  <path id="Path_539" data-name="Path 539" d="M377.556,1822.916v10.062h4.927v6.386h-4.927v10.3h-22.6a26.34,26.34,0,0,1-1.766,2.933,7.3,7.3,0,0,0-.5.7h26.422v20.837h-6.495v-2.514H352.793v2.514H346.3v-13.989a31.493,31.493,0,0,1-6.89,4.568l-3.723-6.849a23.535,23.535,0,0,0,11.068-8.2h-6.74v-6.208H350.53a41.182,41.182,0,0,0,1.508-4.1H337.044v-6.386h16.605c.2-1.228.455-2.514.653-3.921H341.168v-6.142Zm-4.938,42.5v-5.908H352.793v5.908Zm-14.845-21.956h13.289v-4.1h-11.93C358.683,1840.832,358.228,1842.179,357.773,1843.46Zm2.867-10.482h10.421v-3.921h-9.715C361.149,1830.464,360.892,1831.751,360.64,1832.978Z" transform="translate(-236.498 -1751.557)" fill="#c9dcb7"/>
  <path id="Path_540" data-name="Path 540" d="M385.027,1841.728v18.323h-33.82v5.448c0,1.287.706,1.873,2.161,1.873h26.171c.808,0,1.413-.94,1.712-2.927,0,0,.15-1.287.455-3.922l7.446,1.814c-1.006,5.447-2.167,8.781-3.37,10.128-.91.993-2.669,1.521-5.285,1.521H352.212c-5.136,0-7.65-2.395-7.65-7.082v-25.177Zm-2.568-18.969v15.982H347.076v-15.982Zm-21.041,25.177H351.206v5.914h10.212Zm14.4-19.03h-22.04v3.688h22.04Zm2.52,19.03H368.117v5.914h10.218Z" transform="translate(-192.237 -1752.34)" fill="#c9dcb7"/>
  <path id="Path_541" data-name="Path 541" d="M392.756,1829.84a201.26,201.26,0,0,1-26.171,3.394v7.847h27.326v6.621h-7.65v18.73h9.811v6.62h-43.23v-6.62h6.9v-39.807a165.259,165.259,0,0,0,30.05-3.867Zm-13.187,36.592V1847.7H366.586v18.73Z" transform="translate(-150.954 -1752.34)" fill="#c9dcb7"/>
  <path id="Path_542" data-name="Path 542" d="M372.516,1861.222a84.2,84.2,0,0,0,10.416-3.16l.407,7.315a159.57,159.57,0,0,1-21.645,6.441l-.6-8.248q2.568-.36,5.136-.886v-39.807h6.291v15.1h9.811v6.62h-9.811Zm32.809-26c-4.478,6.034-9.308,10.482-14.54,13.355v11.529c0,1.987.2,3.28.653,3.981.6.706,1.862,1.054,3.675,1.054h2.365a2.054,2.054,0,0,0,2.011-1.107c.455-1.233.754-5.687.958-13.295l6.489,3.453c-.6,7.494-1.454,12.349-2.46,14.635a6.486,6.486,0,0,1-6.189,3.634h-5.238c-3.771,0-6.141-.82-7.045-2.406q-1.508-2.452-1.508-8.074v-39.107h6.291v17.384a37.888,37.888,0,0,0,9.661-10.535Z" transform="translate(-109.835 -1751.751)" fill="#c9dcb7"/>
  <path id="Path_543" data-name="Path 543" d="M378.068,1826.627c-.1,2.58-.251,4.987-.4,7.322h1.963v-10.776h6.088v10.776h3.526v6.387h-3.526v9.3c1.359-.467,2.718-.934,4.124-1.521v2.753h15.15v-4.095H389.644V1840.1h9.464v-5.214H391v-6.435h8.1v-5.914h6.285v5.914H414.2v6.435h-8.805v5.214h10.571v6.679h-4.681v4.095h4.681v6.615h-4.681v12.821c0,3.807-1.664,5.735-4.932,5.735h-6.692l-1.161-7.548c3.226.353,4.986.473,5.286.473.808,0,1.209-.533,1.209-1.647v-9.834H389.243V1855.5c-1.209.58-2.418,1.107-3.526,1.574v19.389H379.63v-16.868c-2.921,1.173-5.74,2.113-8.458,2.933l-1.76-8.433a102.569,102.569,0,0,0,10.218-2.461v-11.295h-2.568c-.353,2.867-.754,5.554-1.155,8.015l-6.142-2.042a121.77,121.77,0,0,0,2.562-20.615Zm22.6,40.226-5.735,3.22a48.857,48.857,0,0,0-4.681-9.6l5.082-2.047A51.877,51.877,0,0,1,400.665,1866.853Z" transform="translate(-68.336 -1753.461)" fill="#c9dcb7"/>
</svg>
