<svg id="section4_subtitle3" xmlns="http://www.w3.org/2000/svg" width="289.315" height="24.576" viewBox="0 0 289.315 24.576">
  <path id="Path_31550" data-name="Path 31550" d="M103.531,1075.3v3.017H94.867c-.271.842-.57,1.637-.883,2.354h8.476v17.669H99.622v-1.426H87.454v1.426H84.612v-17.669h6.093a23.263,23.263,0,0,0,.865-2.354H83.545V1075.3Zm-14.21,18.8v-10.632H87.454V1094.1Zm5.684-8.779v-1.854H91.979v1.854Zm0,4.341v-2.07H91.979v2.07Zm0,4.438v-2.166H91.979v2.166Zm4.617,0v-10.632H97.663V1094.1Z" transform="translate(-83.545 -1073.866)" fill="#fff"/>
  <path id="Path_31551" data-name="Path 31551" d="M92.7,1087.389v-2.272h2.658v2.272H98.3v2.7H95.361v.557a21.756,21.756,0,0,1,3.21,2.327l-1.435,2.594a19.306,19.306,0,0,0-1.775-1.959v5.767H92.7v-5.739a17.159,17.159,0,0,1-2.663,4.314l-1.679-3.021a12.548,12.548,0,0,0,3.661-4.838H88.7v-2.7Zm4.981-10.315v-2.065h2.75v2.065h8v2.778h-5.408a18.741,18.741,0,0,0,6.3,3.095l-1.614,2.911a14.407,14.407,0,0,1-4.774-2.966,17.057,17.057,0,0,1-2.5-2.488v5.744h-2.75v-5.606a14.759,14.759,0,0,1-2.5,2.644,17.8,17.8,0,0,1-5.045,2.773l-1.251-3.118a15.405,15.405,0,0,0,6.047-2.99H89.521v-2.778Zm4.617,10.315v-2.567h2.658v2.567h4.18v2.7h-3.615a11.876,11.876,0,0,0,3.96,4.838l-1.32,3.312a14.3,14.3,0,0,1-3.049-4.792c-.064-.156-.115-.285-.156-.418v6.346H102.3v-5.555a16.846,16.846,0,0,1-3.21,4.42l-1.591-2.888a14.013,14.013,0,0,0,4.41-5.261H99.091v-2.7Z" transform="translate(-66.209 -1074.903)" fill="#fff"/>
  <path id="Path_31552" data-name="Path 31552" d="M97.382,1079.836v-4.764h2.594v4.764h2.295v3.095H99.976v1.8a21.277,21.277,0,0,1,3.362,2.86l-1.591,2.985a20.951,20.951,0,0,0-1.771-2.377v10.66H97.382v-9.529a25.047,25.047,0,0,1-2.75,5.583l-1.32-3.808a19.817,19.817,0,0,0,3.886-8.172H94.016v-3.095Zm9.345,0v-4.764h2.842v4.764h4.162v3.2h-3.55c1.251,4.236,2.842,7.386,4.8,9.5l-1.771,3.228c-.888-.851-1.867-2.755-2.957-5.689-.248-.634-.478-1.269-.681-1.932v10.716h-2.842v-10.425a28.965,28.965,0,0,1-3.661,7.119l-1.867-3.311q2.9-2.773,5.164-9.207h-3.3v-3.2Z" transform="translate(-48.396 -1074.676)" fill="#fff"/>
  <path id="Path_31553" data-name="Path 31553" d="M105.194,1075.922a46.127,46.127,0,0,1-1.591,5.684v17.54h-2.75v-11.455c-.478.878-.98,1.692-1.5,2.488l-1.067-3.73a33.26,33.26,0,0,0,4.157-11.377Zm12.435.184v8.6H113.1v1.849h5.684v2.773h-3.431a13.311,13.311,0,0,0,3.955,5.482l-1.591,2.911a11.077,11.077,0,0,1-2.888-3.89,27.093,27.093,0,0,1-1.729-3.835v9.151h-2.842v-8.572a14.436,14.436,0,0,1-.952,2.331,23.521,23.521,0,0,1-3.661,5.105l-1.591-2.989a14.741,14.741,0,0,0,2.791-3.307,9.467,9.467,0,0,0,1.026-2.387h-3.569v-2.773h5.955v-1.849h-4.433v-8.6Zm-2.842,2.8h-6.116v2.99h6.116Z" transform="translate(-30.509 -1074.676)" fill="#fff"/>
  <path id="Path_31554" data-name="Path 31554" d="M113.185,1076.149v-1.14H115.5v1.14h1.412v2.249H115.5v1.136h-1.84l.773.211c-.087.235-.161.447-.248.635h2.387c-.138-.478-.294-.929-.455-1.347l2.571-.212c.11.529.225,1.03.317,1.559h4.751v2.065h-4.341v.924H123.3v1.563h-3.886v.925H123.3v1.531h-3.886v.929h4.433v2.088H111.323v-5.45a13.513,13.513,0,0,1-1.159,1.191l-.5-1.854h-5.707V1081.7h5.955v1.058a10.454,10.454,0,0,0,2.391-3.628l.883.267v-1h-2.658v1.877h-7.275v-2.7H105.5c-.11-.8-.248-1.508-.386-2.171l3.1-.317c.069.851.133,1.664.2,2.488h1.752v-1.426Zm-3.274,13.517v7.96H106.25v1.246h-2.387v-9.207Zm0-4.02v2.589h-5.955v-2.589Zm-2.41,9.391v-2.782H106.25v2.782Zm15.714-3.918v1.854a12.194,12.194,0,0,1-2.778,2.934,18.286,18.286,0,0,0,3.753.373l-.432,2.911a22.967,22.967,0,0,1-6.273-1.43.08.08,0,0,1-.046-.023,23.039,23.039,0,0,1-6.3,1.559l-.975-2.911a22.946,22.946,0,0,0,4.318-.34,19.122,19.122,0,0,1-2.543-2.148l.474-.5h-1.182v-2.281Zm-6.392-8.673H113.8v.924h3.021Zm0,2.488H113.8v.925h3.021Zm-3.021,3.385h3.021v-.929H113.8Zm3.748,6.719a10.3,10.3,0,0,0,2.207-1.637H114.8A11.833,11.833,0,0,0,117.55,1095.037Zm1.412-18.888v-1.14h2.318v1.14h2.911v2.249h-2.911v1.237h-2.318V1078.4h-1.435v-2.249Z" transform="translate(-12.623 -1074.903)" fill="#fff"/>
  <path id="Path_31555" data-name="Path 31555" d="M127.834,1078.149h-16.6V1095h17.209v2.883H111.237v.924H108.4v-23.647h19.439Zm-8.618,8.494v7.33h-7.091v-7.33Zm6.664-7.57v6.617H113.624v-6.617Zm-9.142,10.135H114.6v2.171h2.134Zm6.48-7.537h-6.935v1.453h6.935Zm4.185,4.972v7.33H120.2v-7.33Zm-2.5,2.566h-2.207v2.171H124.9Z" transform="translate(5.885 -1074.341)" fill="#fff"/>
  <path id="Path_31556" data-name="Path 31556" d="M117.507,1082.713a7.63,7.63,0,0,1-2.023,1.8l-1-1.748a3.751,3.751,0,0,0,1.89-1.932h-1.389V1077.1h3.228v2.883A4.934,4.934,0,0,1,117.507,1082.713Z" transform="translate(27.788 -1067.367)" fill="#fff"/>
  <path id="Path_31557" data-name="Path 31557" d="M125.71,1084.8v2.276a17.608,17.608,0,0,1-2.456,5.873,20.983,20.983,0,0,1-4.2,4.443l-1.959-3.1a12.306,12.306,0,0,0,3.8-3.251,9.807,9.807,0,0,0,1.706-3.146h-4.8v-3.1Zm3.546-5.081v2.727a27.918,27.918,0,0,0,1.136,2.883,26.994,26.994,0,0,0,4-4.364l2.686,1.88A27.425,27.425,0,0,1,131.8,1088c.294.506.616.979.934,1.43a19.259,19.259,0,0,0,5.385,5.077l-2.2,2.884a22.332,22.332,0,0,1-5-5.924,28.892,28.892,0,0,1-1.66-3.467v8.466c0,1.854-.814,2.805-2.41,2.805h-3l-.543-3.518c1.481.157,2.341.207,2.571.207.363,0,.547-.262.547-.842v-12.2h-5.96v-3.206Zm2.479-2.773-.888,3.095a45.45,45.45,0,0,0-8.25-2.488l1.067-2.566A45.211,45.211,0,0,1,131.735,1076.945Z" transform="translate(37.184 -1074.986)" fill="#fff"/>
  <path id="Path_31558" data-name="Path 31558" d="M132.975,1075.68a41.325,41.325,0,0,1-1.568,3.918h6.549v2.378a25.282,25.282,0,0,1-3.435,7.647,9.756,9.756,0,0,0,2.3,2.382,23.18,23.18,0,0,0,6.277,3.412l-2.115,3.408a28.669,28.669,0,0,1-6.231-4.148,11.811,11.811,0,0,1-2.18-2.461,39.879,39.879,0,0,1-8.3,7.009l-2.207-3.495a26.482,26.482,0,0,0,8.232-5.974,18.341,18.341,0,0,0,4.116-6.958h-4.7a33.95,33.95,0,0,1-4.888,6.323l-1.775-3.2a24.317,24.317,0,0,0,6.664-10.871Z" transform="translate(55.07 -1074.755)" fill="#fff"/>
  <path id="Path_31559" data-name="Path 31559" d="M129.919,1091.942a39.373,39.373,0,0,1-.612,6.4l-2.295-.294a30.768,30.768,0,0,0,.975-6.213Zm3.21-15.9a37.615,37.615,0,0,1-2.368,5.5c.5-.051.98-.106,1.435-.189.455-.952.883-1.955,1.3-2.957l2.2,1.559a47.473,47.473,0,0,1-4.41,7.722,19.523,19.523,0,0,0,1.977-.368c-.133-.607-.271-1.163-.409-1.664l1.706-.529c.115.34.23.685.34,1.03V1083.9h7.593l.253-1.136H135.7l2.318-7.753,2.663.189-.432,1.343h6.388l-1.476,7.358h2.456v2.883H142.63v6.636l.98-1.264a35.99,35.99,0,0,1,4.521,4.337l-1.954,2.382a32.355,32.355,0,0,0-3.546-4.047v1.77c0,1.642-.639,2.488-1.862,2.488h-3.026l-.317-2.778a26.169,26.169,0,0,1-2.617,1.743l-1.228-2.7a5.992,5.992,0,0,0,.773-.368,19.1,19.1,0,0,0-.952-3.146l1.954-.607a20.074,20.074,0,0,1,1.113,2.484,16.3,16.3,0,0,0,2.345-1.987l1.067,2.17a16.223,16.223,0,0,1-2.3,2.276c1.094.083,1.706.106,1.844.106.363,0,.547-.189.547-.607v-8.89h-4.888c.179.579.34,1.219.5,1.877l1.274-1.559a22.135,22.135,0,0,1,2.41,2.99l-1.7,2.065a27.438,27.438,0,0,0-1.844-2.939c.092.368.161.741.248,1.085l-2.042.819c-.069-.5-.138-.974-.207-1.453-2,.584-4,1.081-6,1.453l-.455-3.09a8.151,8.151,0,0,0,1.159-.055c.819-1.219,1.591-2.488,2.295-3.762-1,.165-2.065.294-3.182.4l-.363-2.805c.317,0,.616-.023.911-.051a24.362,24.362,0,0,0,2.295-6.668Zm.179,21.085-2.23.294a33.226,33.226,0,0,0-.612-5.371l1.863-.212A43.919,43.919,0,0,1,133.309,1097.124Zm10.209-18.091h-4.07l-.409,1.242h4.226Zm3.909,8.995a17.361,17.361,0,0,1-1.863,4.649l-2.663-1.448a14.283,14.283,0,0,0,2.138-3.84Z" transform="translate(72.888 -1074.903)" fill="#fff"/>
  <path id="Path_31560" data-name="Path 31560" d="M150.248,1075.165v8.172h-6.843c.092.34.2.685.294,1.035h8.6v2.35H132.037v-2.35h8.549c-.138-.35-.276-.694-.409-1.035H133.9v-8.172Zm-.092,12.4v5.371h-6.48v3.307c0,1.508-.727,2.276-2.138,2.276h-3.113l-.34-2.7c1.136.083,1.775.106,1.954.106.409,0,.616-.161.616-.5v-2.488h-3.141l1.366,1.849a15.714,15.714,0,0,1-5.321,3.417l-1.251-2.99a12.832,12.832,0,0,0,4.548-2.276H133.9v-5.371Zm-2.842,2.17H136.741v1.03h10.573Zm-.092-11.589v-.712h-10.3v.712Zm0,2.065h-10.3v.847h10.3Zm4.888,15.1-1.407,3.095a32.231,32.231,0,0,0-5.684-2.984l1.5-2.276A40,40,0,0,1,152.111,1095.317Z" transform="translate(90.968 -1074.341)" fill="#fff"/>
  <path id="Path_31561" data-name="Path 31561" d="M143.155,1075.9v2.81h-1.591v4.548h1.5v-1.136h14.574v2.456H143.155v1.664h-1.591v4.447a12.445,12.445,0,0,0,1.591-.819v3.095a29.058,29.058,0,0,1-5.684,2.672l-.543-3.307a20.105,20.105,0,0,0,2.047-.58v-5.509h-1.867v-2.984h1.867v-4.548h-2.047v-2.81Zm13.6,9.712v5.583h-1.32l1.32,1.348a8.292,8.292,0,0,1-1.959,1.692,11.334,11.334,0,0,0,3.274,1.72l-1.5,2.883a13.384,13.384,0,0,1-4.341-3.361,16.654,16.654,0,0,1-2.456-4.282h-.34a7.206,7.206,0,0,1-.5.63v3.624c.865-.156,1.729-.313,2.571-.524v2.672a57.142,57.142,0,0,1-5.868,1.241l-.432-2.883c.455-.027.888-.078,1.32-.128v-1.458a13.292,13.292,0,0,1-4.162,2.511l-1.159-2.594a11.875,11.875,0,0,0,5.344-3.091h-2.589v-5.583Zm.34-10.425v5.979H143.679v-5.979Zm-9.5,1.959h-1.32v2.065h1.32Zm6.475,10.637h-7.455v1.242h7.455Zm-3.09-10.637h-1.251v2.065h1.251Zm2.161,15.447a5.638,5.638,0,0,0,1.453-1.4h-2.387A10.113,10.113,0,0,0,153.139,1092.593Zm1.384-15.447h-1.43v2.065h1.43Z" transform="translate(108.57 -1074.262)" fill="#fff"/>
  <path id="Path_31562" data-name="Path 31562" d="M144.705,1091.665c-.023,2.17-.133,4.391-.363,6.723l-2.479-.29a47.778,47.778,0,0,0,.708-6.535Zm3.09-15.687a35.583,35.583,0,0,1-2.157,5.243c-.023.051-.046.051-.046.051a10.919,10.919,0,0,0,1.407-.212c.46-.952.91-1.909,1.343-2.911l2.207,1.536a1.531,1.531,0,0,0-.092.212h4.64v-1.136h-4.277v-2.382H155.1v-1.14h2.566v1.14h4.346v2.382h-4.346v1.136h4.8v2.488h-1.775v1.242H162.1v2.382h-1.412v1.426h1.775v2.382h-6.047v-2.382h1.867v-1.426h-1.5v-2.382h1.5v-1.242h-3.822v1.242h1.527v2.382h-1.527v1.187c.5-.078.975-.157,1.435-.262v2.382a34.485,34.485,0,0,1-5.072.819l-.363-2.594a15.492,15.492,0,0,0,1.614-.078v-1.453h-1.614v-2.382h1.614v-1.242H150.21V1080.4a52.215,52.215,0,0,1-4.254,7.17c.616-.079,1.251-.184,1.89-.318-.138-.634-.253-1.214-.386-1.775l1.862-.6a44.613,44.613,0,0,1,1.315,5.05l-2.2.924c-.046-.372-.115-.74-.161-1.113-1.954.533-3.886.98-5.795,1.324l-.455-3.2c.317,0,.658,0,1.021-.027.819-1.187,1.568-2.405,2.3-3.652-.911.166-1.867.267-2.865.373l-.455-2.989c.317,0,.635-.027.934-.055a23.074,23.074,0,0,0,2.088-6.48Zm.092,21.379-2.387.419q-.035-2.856-.271-6.111l2.046-.184C147.5,1093.123,147.708,1095.077,147.887,1097.357Zm2.23-4.87v-1.959h12.435v2.594h-3.73v2.382a.624.624,0,0,0,.708.713h.612c.23,0,.34-.345.386-1.058,0,0,.023-.423.069-1.325l2.387.851q-.276,3.09-.888,3.808a2.377,2.377,0,0,1-1.775.529h-1.771a2.268,2.268,0,0,1-1.84-.846,2.971,2.971,0,0,1-.57-1.959v-3.095H155.1a7.477,7.477,0,0,1-1,3.384,7.87,7.87,0,0,1-3.366,2.621l-1.771-2.7a6.118,6.118,0,0,0,2.8-1.564,3.357,3.357,0,0,0,.727-1.742H150.32c.184.662.386,1.375.593,2.166l-2.138.929a34.1,34.1,0,0,0-.98-4.654l1.775-.612C149.754,1091.407,149.934,1091.9,150.118,1092.487Z" transform="translate(126.33 -1074.842)" fill="#fff"/>
</svg>
