<svg id="section1_title" xmlns="http://www.w3.org/2000/svg" width="233.845" height="101.23" viewBox="0 0 233.845 101.23">
  <g id="Group_4072" data-name="Group 4072" transform="translate(0 18.515)">
    <path id="Path_17661" data-name="Path 17661" d="M127.962,98.776q.62.034,2.012,0a4.8,4.8,0,0,0,.946-.1.257.257,0,0,0,.216-.253c0-.165-.193-.271-.565-.312-.129-.014-.4-.023-.818-.023-.05,0-.129.009-.257.014s-.216.009-.243.009a4.8,4.8,0,0,1-.827-.078c-.156-.028-.22-.046-.193-.046a2.044,2.044,0,0,0-.671.133c-.248.083-.363.179-.363.276C127.2,98.675,127.443,98.8,127.962,98.776Z" transform="translate(32.541 -29.172)" fill="#d40012"/>
    <path id="Path_17662" data-name="Path 17662" d="M132.129,99.04a2.918,2.918,0,0,0-1.1-.138l-1.327-.041a.3.3,0,0,1-.17-.055.32.32,0,0,0-.115-.046.4.4,0,0,0-.207.073,1.716,1.716,0,0,1-.749.1,7.025,7.025,0,0,0-.854.028,4.018,4.018,0,0,1-.528.262c-.041.014-.064.051-.078.11,0,0,.037.041.142.138a.41.41,0,0,1,.115.331c-.028.188.064.308.3.349a2.664,2.664,0,0,0,.4.041,2.576,2.576,0,0,1,.377.028c.129.046.28.1.473.156a1.417,1.417,0,0,0,.262-.046,1.113,1.113,0,0,1,.335-.055c.413-.014.854-.023,1.318-.023.877,0,1.383-.138,1.525-.427a1.087,1.087,0,0,1,.078-.092c.051-.055.087-.1.087-.124a.821.821,0,0,0-.078-.225A.961.961,0,0,0,132.129,99.04Z" transform="translate(31.833 -26.409)" fill="#d40012"/>
    <path id="Path_17663" data-name="Path 17663" d="M132.04,99.5a7.357,7.357,0,0,0-.854-.051c-.335,0-.62,0-.85.009l-1.346.05a2.726,2.726,0,0,1-.491-.037c-.179-.028-.271-.046-.271-.046a1.189,1.189,0,0,0-.243.041,1.456,1.456,0,0,1-.184.032,3.144,3.144,0,0,0-.762.165c-.28.11-.423.22-.423.331s.115.193.358.271a2.336,2.336,0,0,0,.675.11c.285.014.928.014,1.938,0a6.553,6.553,0,0,1,.694.041c.262.032.377.037.377.037a1.191,1.191,0,0,0,.22-.046,1.549,1.549,0,0,1,.335-.06h.464a2.291,2.291,0,0,0,.749-.129c.184-.069.285-.175.285-.3C132.71,99.715,132.476,99.568,132.04,99.5Z" transform="translate(30.439 -24.016)" fill="#d40012"/>
    <path id="Path_17664" data-name="Path 17664" d="M127.743,101,128.79,101a2.654,2.654,0,0,0,1.3-.234c.078-.046.119-.17.119-.372a.4.4,0,0,0-.285-.4,1.694,1.694,0,0,0-.505-.051c-.372.014-.606.023-.684.014a1.482,1.482,0,0,1-.243-.032,1.617,1.617,0,0,0-.193-.037c-.028,0-.133.028-.312.069a2.087,2.087,0,0,1-.386.064l-.119-.009h-.207a1.209,1.209,0,0,0-.593.161c-.207.124-.308.248-.308.372,0,.152.179.271.514.344A3.627,3.627,0,0,0,127.743,101Z" transform="translate(29.591 -22.37)" fill="#d40012"/>
    <path id="Path_17665" data-name="Path 17665" d="M127.4,98.931a1.539,1.539,0,0,0,.547.083c.423.009,1.02.009,1.768.009a5.489,5.489,0,0,0,.914-.069c.418-.069.634-.179.634-.34a.309.309,0,0,0-.28-.3c-.184-.014-.354-.037-.519-.055l-2.237-.014a3.008,3.008,0,0,0-.813.074c-.193.073-.285.184-.285.335C127.129,98.775,127.221,98.862,127.4,98.931Z" transform="translate(32.286 -28.27)" fill="#d40012"/>
    <g id="Group_4071" data-name="Group 4071">
      <g id="Group_4063" data-name="Group 4063" transform="translate(73.27 70.716)">
        <g id="Group_4062" data-name="Group 4062">
          <path id="Path_17666" data-name="Path 17666" d="M113.56,103.055v.965a4.855,4.855,0,0,1-1.024.418,4.058,4.058,0,0,1-1.033.142,3.142,3.142,0,0,1-1.782-.533,3.036,3.036,0,0,1-.992-1.112,3.147,3.147,0,0,1-.354-1.474,3,3,0,0,1,.234-1.162,2.915,2.915,0,0,1,.661-.992,3.123,3.123,0,0,1,1.029-.675,3.355,3.355,0,0,1,1.259-.225,4.283,4.283,0,0,1,.96.115,5.246,5.246,0,0,1,.992.363v.928a5.249,5.249,0,0,0-1.024-.455,3.052,3.052,0,0,0-.928-.147,2.25,2.25,0,0,0-1.658.652,2.269,2.269,0,0,0,1.612,3.9,3.013,3.013,0,0,0,1.006-.175A4.314,4.314,0,0,0,113.56,103.055Z" transform="translate(-108.374 -98.393)" fill="#fff"/>
          <path id="Path_17667" data-name="Path 17667" d="M110.064,98.428h.818v3.426a3.64,3.64,0,0,0,.06.808,1.068,1.068,0,0,0,.2.418,1.588,1.588,0,0,0,.6.464,1.954,1.954,0,0,0,.79.152,1.75,1.75,0,0,0,1.2-.4,1.343,1.343,0,0,0,.455-1.061V98.428H115v3.835a2.092,2.092,0,0,1-.684,1.621,2.544,2.544,0,0,1-1.782.62,2.706,2.706,0,0,1-1.176-.243,2.341,2.341,0,0,1-.882-.7,1.728,1.728,0,0,1-.317-.62,4.493,4.493,0,0,1-.092-1.052Z" transform="translate(-102.302 -98.318)" fill="#fff"/>
          <path id="Path_17668" data-name="Path 17668" d="M111.765,104.4V98.428h1.782a2.017,2.017,0,0,1,1.4.45,1.6,1.6,0,0,1,.505,1.259,1.571,1.571,0,0,1-.505,1.245,2.015,2.015,0,0,1-1.4.446h-.974V104.4Zm.808-3.33h.886a1.368,1.368,0,0,0,.868-.22,1.091,1.091,0,0,0,0-1.428,1.338,1.338,0,0,0-.868-.225h-.886Z" transform="translate(-96.19 -98.318)" fill="#fff"/>
          <path id="Path_17669" data-name="Path 17669" d="M113.123,104.4V98.428h.822V104.4Z" transform="translate(-91.31 -98.318)" fill="#fff"/>
          <path id="Path_17670" data-name="Path 17670" d="M116.043,98.428a4.238,4.238,0,0,1,1.093.124,2.629,2.629,0,0,1,.836.39,2.8,2.8,0,0,1,.9,1.052,3.1,3.1,0,0,1,.317,1.415,3.171,3.171,0,0,1-.317,1.419,2.766,2.766,0,0,1-.9,1.052,2.549,2.549,0,0,1-.836.395,4.238,4.238,0,0,1-1.093.124h-2.1V98.428Zm0,.813h-1.291v4.345h1.291a2.316,2.316,0,0,0,1.667-.579,2.392,2.392,0,0,0,0-3.183A2.318,2.318,0,0,0,116.043,99.241Z" transform="translate(-88.378 -98.318)" fill="#fff"/>
          <path id="Path_17671" data-name="Path 17671" d="M121.6,103.055v.965a4.759,4.759,0,0,1-1.024.418,4.031,4.031,0,0,1-1.033.142,3.325,3.325,0,0,1-.937-.133,3.382,3.382,0,0,1-.845-.4,3.023,3.023,0,0,1-.988-1.112,3.162,3.162,0,0,1-.124-2.636,2.927,2.927,0,0,1,.666-.992,3.106,3.106,0,0,1,1.024-.675,3.378,3.378,0,0,1,1.263-.225,4.212,4.212,0,0,1,.955.115,5.281,5.281,0,0,1,1,.363v.928a5.369,5.369,0,0,0-1.024-.455,3.073,3.073,0,0,0-.928-.147,2.243,2.243,0,0,0-1.658.652,2.269,2.269,0,0,0,1.608,3.9,3.039,3.039,0,0,0,1.01-.175A4.288,4.288,0,0,0,121.6,103.055Z" transform="translate(-79.485 -98.393)" fill="#fff"/>
          <path id="Path_17672" data-name="Path 17672" d="M117.939,104.4l2.48-5.971h.6l2.512,5.971h-.845l-.74-1.759h-2.439l-.726,1.759Zm1.888-2.531h1.782l-.9-2.15Z" transform="translate(-74.005 -98.318)" fill="#fff"/>
          <path id="Path_17673" data-name="Path 17673" d="M119.587,104.021v-1.13a3.091,3.091,0,0,0,.744.671,1.493,1.493,0,0,0,.758.207,1.009,1.009,0,0,0,.671-.207A.713.713,0,0,0,122,103a.827.827,0,0,0-.165-.51,3.654,3.654,0,0,0-.79-.634,4.973,4.973,0,0,1-1.217-1.011,1.463,1.463,0,0,1-.248-.854,1.49,1.49,0,0,1,.473-1.139,1.692,1.692,0,0,1,1.217-.446,2.123,2.123,0,0,1,.652.1,2.668,2.668,0,0,1,.648.308v.969a2.969,2.969,0,0,0-.7-.459,1.511,1.511,0,0,0-.634-.142.956.956,0,0,0-.629.2.622.622,0,0,0-.243.51c0,.294.335.661,1.01,1.1l.119.078a3.552,3.552,0,0,1,1.079.937,1.864,1.864,0,0,1,.253,1.01,1.484,1.484,0,0,1-.473,1.13,1.719,1.719,0,0,1-1.217.446,2.355,2.355,0,0,1-.831-.138A2.316,2.316,0,0,1,119.587,104.021Z" transform="translate(-68.102 -98.404)" fill="#fff"/>
          <path id="Path_17674" data-name="Path 17674" d="M122.836,104.4V99.2h-2.1v-.776h5.02V99.2h-2.1V104.4Z" transform="translate(-63.97 -98.318)" fill="#fff"/>
          <path id="Path_17675" data-name="Path 17675" d="M122.342,104.4V98.428h.813v5.2h2.724v.772Z" transform="translate(-58.185 -98.318)" fill="#fff"/>
          <path id="Path_17676" data-name="Path 17676" d="M123.623,104.4V98.428h3.44v.758h-2.632V101h2.558v.772h-2.558v1.86h2.719v.772Z" transform="translate(-53.582 -98.318)" fill="#fff"/>
        </g>
      </g>
      <g id="Group_4065" data-name="Group 4065" transform="translate(0 5.786)">
        <g id="Group_4064" data-name="Group 4064">
          <path id="Path_17677" data-name="Path 17677" d="M108.8,98.644A1.664,1.664,0,0,0,108.135,97c-1.125-.946-2.186-1.975-3.472-3.16a3.928,3.928,0,0,1,4.387.937c1.842,1.828,3.863,3.518,5.163,5.81.937,1.654,1.929,3.325,1.594,5.383a9.711,9.711,0,0,0-.009,1.268,12.005,12.005,0,0,0,.859,5.911c1.451.707,2-.735,2.884-1.314l1.056.726,1.566-1.19.634-.634.638-.638c.85,0,.514-.675.657-1.1a3.148,3.148,0,0,1,.615-.808l.211.528.427-.528.634-.634.638-.638a1.568,1.568,0,0,0,1.272-1.906l.634-.638c.955-.055.542-.79.638-1.272.951-.055.542-.79.638-1.272.951-.055.537-.79.634-1.272.951-.055.542-.795.638-1.277,1.337-.23.129-1.208,1.176-1.86-3.982-.207-6.862,1.075-9.747,2.715l-3.766-2.2h-2.76c1.006-1.534,1.759-2.692,2.5-3.831,3.454.625,6.228-1.176,9.173-2.016,3.353-.96,6.536-2.411,10.142-2.411,1.309,0,2.388-.726,3.982-.1,1.8.712,2.986,2.03,4.465,3.013.854.565,1.282,1.773,1.961,2.774l.455,1.846-.717,1.442c-4.68-1.461-10.114-2.687-12.461-1.644a17.949,17.949,0,0,1,.188,8.291c-.57,2.783-1.052,5.457-2.719,8.066.6,1.566,2.361,1.484,3.679,1.755a39.118,39.118,0,0,0,5.976.436c.294.014.6-.257.9-.367,5.636-1.993,5.264-1.373,8.952-4.5a5.125,5.125,0,0,1,2.035-1.194,3.668,3.668,0,0,0,3.013-3.238c.1-.487.253-.96.4-1.5l-1.373-.684,1.41-.74a10.051,10.051,0,0,0,2.007.367,4.539,4.539,0,0,1,3.509,1.534c.588.611,1.2,1.194,1.8,1.805a7.129,7.129,0,0,0,3.381,1.837A8.736,8.736,0,0,1,175,116.153L172.6,118.4c-1.8-.74-3.133.666-4.552,1.552-2.71,1.695-5.121,4.005-8.006,5.25-3.5,1.507-6.949,3.546-11.01,3.353a5.241,5.241,0,0,1-2.632-.579c-1.162-.671-2.655-.758-3.863-1.378-1.139-.579-2.692-.39-3.408-1.764-2.811-.611-5.351-2.191-8.392-2.058a35.507,35.507,0,0,1-4.818-.574,12.318,12.318,0,0,0-4.837.579c-1.438.436-3.128-.505-4.5.675-.064.05-.207.014-.312,0-4.152-.363-7.808,1.543-11.662,2.549a2.557,2.557,0,0,0-.836.271,8.282,8.282,0,0,0-.909.886l-1.346-.675c-.666,3.114-2.884,4.18-5.493,4.726a5.576,5.576,0,0,1-2.563-4.759,9.2,9.2,0,0,0-1.038-2.839l.473-.5c1.7.427,3.119.142,5.016-1.208a25.417,25.417,0,0,1,7.106-3.587,29.383,29.383,0,0,0,4.074-2.081l-1.649-.863a7.89,7.89,0,0,0-2.145-7.041c.349-.519.3-1.764,1.589-2.067l.211.528.427-.528c1.856-2.563,2.361-4.984,1.571-7.634C109.086,98.616,108.9,98.644,108.8,98.644Z" transform="translate(-92.422 -66.1)" fill="#fff"/>
          <path id="Path_17678" data-name="Path 17678" d="M99.7,99.624a1.562,1.562,0,0,0,1.906-1.272l.638-.634a4.527,4.527,0,0,0,3.817-2.549l.638-.634.634-.638.528-.207-.528-.427a21.965,21.965,0,0,1,2.6-2.517,7.853,7.853,0,0,0,3.252-4.331c-.758-.11-1.341-.2-2.186-.322l.753-1.442c2.026-1.387,5.976,1.153,8.318,5.14,0,1.511-.046,3.1.014,4.676a5.57,5.57,0,0,1-1.281,3.619c-2.9,4.06-6.862,6.651-11.29,8.727a24.041,24.041,0,0,0-4.8,2.944c-.873.7-1.686.652-2.917.7-.335-.4-1.061-.891-1.231-1.53a22.873,22.873,0,0,0-1.323-3.918c-.4-.863-.078-2.076-.078-3.174-.427-.2-.854-.4-1.323-.62a4.96,4.96,0,0,1,3.22-1.594,4.785,4.785,0,0,0,.032.666l-.087-.1-.524.446.2.2a3.724,3.724,0,0,0,.409-.551A6.353,6.353,0,0,1,99.7,99.624Z" transform="translate(-80.141 -84.268)" fill="#fff"/>
          <path id="Path_17679" data-name="Path 17679" d="M99.878,95.137H98.624c.4-1.038,1.006-1.392,1.888-1.272V94.5Z" transform="translate(-70.137 -49.865)" fill="#fff"/>
          <path id="Path_17680" data-name="Path 17680" d="M95.871,93.5V91.818l.331-.032c.083.565.161,1.125.239,1.69Z" transform="translate(-80.029 -57.253)" fill="#fff"/>
          <path id="Path_17681" data-name="Path 17681" d="M100.7,92.436V91.274l.423-.046.216,1.208Z" transform="translate(-62.685 -59.258)" fill="#fff"/>
          <path id="Path_17682" data-name="Path 17682" d="M101.194,92.768l-.634-.795.634-.482Z" transform="translate(-63.181 -58.313)" fill="#fff"/>
          <path id="Path_17683" data-name="Path 17683" d="M100.288,93.318c.1-.482-.312-1.222.638-1.272v1.272Z" transform="translate(-64.186 -56.319)" fill="#fff"/>
          <path id="Path_17684" data-name="Path 17684" d="M95.733,93.444V92.392l.3-.055.248,1.043Z" transform="translate(-80.525 -55.274)" fill="#fff"/>
          <path id="Path_17685" data-name="Path 17685" d="M100.151,93.6c.1-.482-.317-1.217.634-1.272V93.6Z" transform="translate(-64.683 -55.324)" fill="#fff"/>
          <path id="Path_17686" data-name="Path 17686" d="M95.571,93.961V92.794l.423-.041.216,1.208Z" transform="translate(-81.107 -53.779)" fill="#fff"/>
          <path id="Path_17687" data-name="Path 17687" d="M99.735,94.149c.1-.482-.317-1.217.638-1.272v1.272Z" transform="translate(-66.177 -53.333)" fill="#fff"/>
          <path id="Path_17688" data-name="Path 17688" d="M96.5,91.462l-.441.524-.2-.2.519-.446Z" transform="translate(-80.065 -58.863)" fill="#fff"/>
          <path id="Path_17689" data-name="Path 17689" d="M100.005,93.238l.638-.638v.638Z" transform="translate(-65.175 -54.329)" fill="#fff"/>
          <path id="Path_17690" data-name="Path 17690" d="M100.421,92.459l.427-.528.211.528Z" transform="translate(-63.68 -56.732)" fill="#fff"/>
          <path id="Path_17691" data-name="Path 17691" d="M99.867,93.373l.634-.634Z" transform="translate(-65.671 -53.829)" fill="#fff"/>
          <path id="Path_17692" data-name="Path 17692" d="M99.59,93.792l.634-.638v.638Z" transform="translate(-66.666 -52.338)" fill="#fff"/>
          <path id="Path_17693" data-name="Path 17693" d="M99.451,93.927l.638-.634v.634Z" transform="translate(-67.166 -51.839)" fill="#fff"/>
          <path id="Path_17694" data-name="Path 17694" d="M99.035,94.26l.427-.528.211.528Z" transform="translate(-68.66 -50.261)" fill="#fff"/>
        </g>
      </g>
      <g id="Group_4067" data-name="Group 4067" transform="translate(155.506)">
        <g id="Group_4066" data-name="Group 4066">
          <path id="Path_17695" data-name="Path 17695" d="M191.469,112.147c-.335.028-.7.028-1.332.028.377-.446.51-.712.721-.827,1.043-.57,2.108-1.1,3.128-1.621.882.28,1.672.533,2.82.9a28.552,28.552,0,0,0,6.339,5.209,3.19,3.19,0,0,1,1.447,2.636c.051.785.009,1.575.009,2.591-1.015.468-2.095.974-3.817,1.773-.652.652-1.842,1.846-2.613,2.614a26.983,26.983,0,0,0-4.033,1.713,11.141,11.141,0,0,1-7.326,1.663,18.182,18.182,0,0,1-2.7-.648c-1.029,1.7-.06,3.252.459,4.634.505,1.346.4,2.747.85,4.092.312.928-.473,2.283-.919,3.385a27.117,27.117,0,0,1-3.913,6.417,75.023,75.023,0,0,1-6.343,7.459c-1.249,1.24-2.894,2.044-3.808,3.7-.358.648-1.341.946-2.094,1.438-2.044-.818-2.765-2.476-3.055-4.474-.133-.914-.4-1.814-.579-2.724a8.8,8.8,0,0,0-.487-2.779c-.514-1.029-.115-2.517-.115-3.8a5.6,5.6,0,0,0,.565-.625l.087.092.487-.418-.188-.184a3.231,3.231,0,0,0-.386.51,5.6,5.6,0,0,1-.565.625c-.9-.193-.785-.776-.285-1.167a8.046,8.046,0,0,1,3.858-1.81v.593a6.062,6.062,0,0,0-.565.625l-.083-.092-.487.418.188.188a3.473,3.473,0,0,0,.381-.514,6.062,6.062,0,0,1,.565-.625l.6-.593c1.3.087,1.856-.831,2.379-1.787l1.787-1.787,1.19-1.194.6-.593a1.466,1.466,0,0,0,1.19-1.787l.6-.6a3.922,3.922,0,0,0,1.075-.822c.257-.4.253-.928-.478-.965.225-.583-.551-1.507.593-1.787l.2,1.135.4-.046v-1.089c.2-.156.56-.3.57-.473.055-.974.028-1.952.028-3.215l-.859.625c-.694-.767-.386-1.4.2-1.975l-2.223-1.511h-6.633c-2.659,1.277-5.062,2.425-7.464,3.573-2.067-.3-3.844.776-5.627,1.355l-2.37-2.921c-1.291,1.654-2.228,3.064-1.658,5.007a11.513,11.513,0,0,1,.032,6.2,5.4,5.4,0,0,0-.188,1.41c-.023,1.883.427,3.909-.129,5.613-.611,1.869-.354,3.642-.455,5.447-.106,1.874-.023,3.753-.023,5.8a2.859,2.859,0,0,1-3.137-1.511c-1.222-1.8-2.692-3.431-4.06-5.144.505-2.958-1.217-5.737-.253-9.14.17.73.243,1.02.3,1.314.055.266.1.537.165.923,1.258-1.516-.377-2.705-.207-4.07a40.539,40.539,0,0,0,.041-4.768,23.885,23.885,0,0,1-7.712-9.218c.138-1.006,1.079-1.125,1.86-1.112,1.364-1.056,2.558-2.021,3.789-2.935,1.2-.9,2.43-1.745,3.711-2.659v-5.062l-.28-.023-.354,1.805-.28-.023v-1.791l-1.736-1.9a3.427,3.427,0,0,0-.808.478,5.026,5.026,0,0,0-.57.946c-1.833,3.463-3.932,6.7-7.4,8.8a4.3,4.3,0,0,0-.73.7,5.943,5.943,0,0,1-3.844-4.29c-.56-1.732-1.8-3.215-1.938-5.163-.028-.436-.744-.822-1.3-1.387.813-.671,1.456-1.2,2.1-1.736l.193.491.4-.491.6-.6c.891-.051.505-.74.6-1.19l.592-.6a5.551,5.551,0,0,0,.565-.62l.087.087.487-.413-.188-.188a3.071,3.071,0,0,0-.386.514,4.4,4.4,0,0,1-.565.023,8.971,8.971,0,0,1,2.384-3.569l.193.492a3.815,3.815,0,0,0,.372-.519l.083.087.487-.413-.188-.188a3.042,3.042,0,0,0-.381.514,3.7,3.7,0,0,1-.565.028,7.6,7.6,0,0,1,.427-1.3c.707-1.327,1-2.852,2.186-4.065.06,0-.115.009-.285.018l.23,1.162.381-.051a2.115,2.115,0,0,0-.326-1.13c.184-1.291-1.631-1.562-1.461-2.944h-3.054c1.332-2.14,3.2-.661,4.552-1.392l5.971,4.731c.831,2.462,1.562,4.625,2.31,6.839.367-.363.648-.643,1.024-1.024V98.115c.9,1.5.3,2.751.79,4.295.785-2.457-.418-4.956,1.64-6.637l-1.286-.868v-1.36l.864.712c.1-.106.308-.225.312-.344.028-.992.014-1.984.014-2.972,0-3.509,0-3.509-1.373-6.706l-.9.6a4.083,4.083,0,0,1-.694-.349,5.285,5.285,0,0,1-.588-.611l.868-.863h3.137c1.291,1.525,2.719,3.1,4,4.791a4.325,4.325,0,0,1,.864,2.292c.078,1.727.886,3.316.684,5.108a48.617,48.617,0,0,0-.041,5.369l2.026,1.984c2.811.253,3.041,2.921,4.6,4.653-.592.289-1.125.785-1.63.758a5.181,5.181,0,0,0-4.262,1.975c-.6.657-1.254,1.268-1.888,1.9a17.974,17.974,0,0,1-.542,3.936c-.712,1.993.39,3.913,1.612,5.493s1.768,3.073.2,5.475l1.415-.772.45.386c2.912-1.644,5.792-3.3,8.7-4.9a12.209,12.209,0,0,1,5.007-1.6c1.1-.083,2.159-.556,3.325-.574a22.5,22.5,0,0,0,3.468-.606v-5.82h-5.778l-4.671,3.28c-.4-.234-1.079-.625-1.764-1.015-.138-1.548-.266-3.027-.4-4.607h2.053c1.713-1.548,3.234-2.921,4.758-4.295v1.194a5.134,5.134,0,0,0-.565.62l-.087-.087-.487.413.188.188a3.582,3.582,0,0,0,.386-.514,5.134,5.134,0,0,1,.565-.62c.891-.051.505-.739.593-1.194l.6-.593c.891-.05.505-.739.565-1.217l.083.087.487-.413-.188-.188a3.047,3.047,0,0,0-.381.514,4.433,4.433,0,0,1-.565.023c-.491-.588-.864-1.4-1.493-1.732-2.577-1.346-4.239-3.523-5.829-5.833-.34-.5-1.061-.735-1.608-1.089V94.518c.248-.064.542-.253.772-.193,4.722,1.281,4.947.349,9.37-.661.588-.133,1.015-.951,1.589-1.52l.689.335V89.236L173.376,87.6c.436-.216.661-.409.9-.423,1.773-.106,2.558,1.355,3.491,2.416.776.886,1.277,1.782,2.71,1.819.7.018,1.47.808,2.058,1.4,1.631,1.654,3.183,3.385,4.685,4.993-.473,2.522-2.448,3.05-4.217,3.61-2.535.8-4.625,2.021-5.76,4.667H182.8l1.493,1.782v2.568l-4.5,2.081c1,2.026.919,4.639,2.476,6.683,2.848-.864,6.311-3.482,9.2-7.05l.087.087.482-.413-.184-.188A3.012,3.012,0,0,0,191.469,112.147Zm-46.712,21.464a19.3,19.3,0,0,0,0,5.953A19.6,19.6,0,0,0,144.756,133.611Zm32.3-19.65h-.3v2.976h.3ZM135.23,99.667c-.069.069-.2.147-.188.2a1.854,1.854,0,0,0,.188.4c.064-.064.193-.147.184-.2A2.08,2.08,0,0,0,135.23,99.667Zm-.6,1.194c-.069.064-.2.147-.188.193a1.757,1.757,0,0,0,.188.4c.064-.064.2-.147.184-.193A1.653,1.653,0,0,0,134.633,100.862Zm11.313,1.787c-.064.064-.2.142-.184.193a1.738,1.738,0,0,0,.184.4c.064-.064.2-.147.188-.193A1.671,1.671,0,0,0,145.946,102.648Zm-12.888,1.4-.211-.211a1.981,1.981,0,0,0-.188.4c-.009.05.124.129.188.193Z" transform="translate(-126.278 -83.008)" fill="#fff"/>
          <path id="Path_17696" data-name="Path 17696" d="M143.674,101.467a5.3,5.3,0,0,1-3.518-.8,8.906,8.906,0,0,0-1.782-.625c-.648-.643-1.874-1.346-2.218-2.352-.4-1.167-1.9-.9-2.035-2.347l1.061-1.194c.446.285.827.528,1.208.776,2.476-.767,4.786-2.219,7.629-1.7,1.539,1.332,3.008,2.829,2.632,5.268l-.5.2.5.4-.6,1.787-.6.593h-1.19l-.193-.491Zm1.571-1.277.211-.211a1.85,1.85,0,0,0-.4-.184c-.046-.014-.129.119-.193.184Z" transform="translate(-98.1 -46.699)" fill="#fff"/>
          <path id="Path_17697" data-name="Path 17697" d="M126.748,90.108a1.464,1.464,0,0,1,1.19-1.787v1.19l-.6.6Z" transform="translate(-124.645 -63.918)" fill="#fff"/>
          <path id="Path_17698" data-name="Path 17698" d="M135.823,89.459a1.466,1.466,0,0,1,1.19-1.787v1.194l-.6.593Z" transform="translate(-92.037 -66.25)" fill="#fff"/>
          <path id="Path_17699" data-name="Path 17699" d="M130.935,85.618v1.677C130.379,86.307,130.379,86.307,130.935,85.618Z" transform="translate(-111.042 -73.63)" fill="#fff"/>
          <path id="Path_17700" data-name="Path 17700" d="M137.219,96.515h-1.635l1.635-1.194Z" transform="translate(-92.84 -38.765)" fill="#fff"/>
          <path id="Path_17701" data-name="Path 17701" d="M137.366,94.857V93.176l.423-.046c.06.579.115,1.153.175,1.727Z" transform="translate(-86.437 -46.638)" fill="#fff"/>
          <path id="Path_17702" data-name="Path 17702" d="M136.07,96.126l.6-1.194h.593v1.194Z" transform="translate(-91.094 -40.163)" fill="#fff"/>
          <path id="Path_17703" data-name="Path 17703" d="M136.611,85.478v-.987l.28-.046.234.974Z" transform="translate(-89.15 -77.845)" fill="#fff"/>
          <path id="Path_17704" data-name="Path 17704" d="M130.258,91.306v-.988l.294-.041.216,1Z" transform="translate(-111.977 -56.889)" fill="#fff"/>
          <path id="Path_17705" data-name="Path 17705" d="M136.983,95.215c.092-.45-.294-1.139.6-1.19v1.19Z" transform="translate(-87.84 -43.422)" fill="#fff"/>
          <path id="Path_17706" data-name="Path 17706" d="M137.107,94.492l.6-.6Z" transform="translate(-87.368 -43.889)" fill="#fff"/>
          <path id="Path_17707" data-name="Path 17707" d="M136.848,94.284h.593v.6h-.593Z" transform="translate(-88.298 -42.492)" fill="#fff"/>
          <path id="Path_17708" data-name="Path 17708" d="M135.94,95.785l.6-.593Z" transform="translate(-91.561 -39.229)" fill="#fff"/>
          <path id="Path_17709" data-name="Path 17709" d="M126.995,88.788l.6-.6v.6Z" transform="translate(-123.702 -64.385)" fill="#fff"/>
          <path id="Path_17710" data-name="Path 17710" d="M127.125,88.658l.592-.6v.6Z" transform="translate(-123.235 -64.852)" fill="#fff"/>
          <path id="Path_17711" data-name="Path 17711" d="M135.408,96.209l.413-.487.188.188-.487.418Z" transform="translate(-93.472 -37.325)" fill="#fff"/>
          <path id="Path_17712" data-name="Path 17712" d="M135.292,96.437l.6-.6v.6Z" transform="translate(-93.889 -36.901)" fill="#fff"/>
          <path id="Path_17713" data-name="Path 17713" d="M135.162,96.7l.6-.6Z" transform="translate(-94.356 -35.97)" fill="#fff"/>
        </g>
      </g>
      <g id="Group_4070" data-name="Group 4070" transform="translate(84.096 11.041)">
        <g id="Group_4068" data-name="Group 4068" transform="translate(0 6.707)">
          <path id="Path_17714" data-name="Path 17714" d="M113.694,109.6c1.148-.289.363-1.208.753-2.071.06-.184-.055-.087-.17.009l.266.262a2.465,2.465,0,0,0,.262-.358c.014-.023-.115-.119-.358.087-.372.018-.795-.363-.735-.469a2.11,2.11,0,0,1,.942-.928c.2-.069.73.919.749-.161,0-.225-.643-.468-1.318-.919l1.364-.551c-.1-.087.11.1.322.285,1.029-1.415-.772-2.682-.243-4.221l.744.588c.1-.1.317-.211.317-.322,0-2.287-.037-4.575-.041-6.862a5.854,5.854,0,0,0-1.378-3.9,4.074,4.074,0,0,0-3.615-1.355c-.133.009-.285-.207-.56-.418a2.4,2.4,0,0,1,2.756-1.318,13.574,13.574,0,0,1,6.945,5.222c.574.845.965,1.787,1.644,2.609a4.2,4.2,0,0,1,.716,3.693l1.8,1.2c-.064.051.1-.184.322-.257,1.676-.565,3.247-1.557,5.126-1.323.638.078,1.047-.289,1.566-.56a1.363,1.363,0,0,1,1.791.6,1.39,1.39,0,0,1-.133,1.842,12.447,12.447,0,0,0-1.383,2.108c-1.236,2.241-1.709,2.407-4.033,1.41-.841-.363-1.745-.583-2.581-.96-.335-.152-.565-.542-.9-.891-1.672,3.6-1.185,7.6-2.816,11.276,1.263.133,2.379-.06,3.114.386a36.456,36.456,0,0,1,5.034,3.725c1.093.951.721,2.159-.785,2.517a5.777,5.777,0,0,0-2.715,1.405,3.306,3.306,0,0,1-1.64,1.01c-1.327.119-2.209.932-3.28,1.507a13.434,13.434,0,0,0-2.871,1.736c-.491.446-1.41.418-2.081.588a3.11,3.11,0,0,0-.367-.625c-1.934-1.86-2.287-4.428-2.995-6.812a1.571,1.571,0,0,0-.942-1.1c-1.787-1.089-1.929-2.09-.928-4.138a3.731,3.731,0,0,1,1.442-1.566c.179.055.087-.06-.009-.175l-.262.271a2.469,2.469,0,0,0,.358.262c.023.009.119-.119-.087-.358-.124-.372.028-.744.175-.744C113.97,110.834,113.648,110.122,113.694,109.6Z" transform="translate(-110.731 -86.872)" fill="#fff"/>
          <path id="Path_17715" data-name="Path 17715" d="M111.623,91.514l.211,1.41a4.622,4.622,0,0,1-.579-.7C111.209,92.148,111.4,91.937,111.623,91.514Z" transform="translate(-108.871 -70.193)" fill="#fff"/>
        </g>
        <g id="Group_4069" data-name="Group 4069" transform="translate(24.702)">
          <path id="Path_17716" data-name="Path 17716" d="M117.993,102.224a6.46,6.46,0,0,0,1.217-1.846c.193-.776.344-1.925-2.113-1.075a19.511,19.511,0,0,0,2.315-1.484c.257-.248.528-.946.432-1.029-1.52-1.323-.069-2.384.271-3.684l.758,1.557a23.724,23.724,0,0,0,.854-2.609c.046-.211-.395-.533-.611-.8.239-.638-.611-1.626.923-1.755.2.06.092-.064-.009-.188l-.285.289a2.567,2.567,0,0,0,.39.285c.023.014.129-.124-.1-.386-.8-2.347.331-3.449,2.292-4.07.027,0,.184-.046.239,0,.519.537,1.02,1.093,1.644,1.764.354,5.287-1.015,10.606-1.764,16.058,2.664.744,5.2-.152,7.569-.873,1.429-.436,2.269,1.185,3.463.331.611.661,1.24,1.318,1.837,2a6.687,6.687,0,0,1,.542.891c-1.911,2.6-4.625,3.61-7.84,3.6-1.286,0-2.572.064-3.854.009a5.639,5.639,0,0,1-1.428-.482,6.087,6.087,0,0,0-.887,3.647c.1,2.783.147,5.572.069,8.355a5.7,5.7,0,0,0,1.8,4.745c.193.175.2.551.322.9,1.934.3,3.858,1.033,5.98.859s4.281-.073,6.6-.092a25.41,25.41,0,0,0,5.3-10.583c.478-2.434,1.364-4.791,1.9-7.234.248-1.153.859-2.223,1.153-3.371.395-1.548-.9-1.86-2.016-2.384.542-2.021,2.664-1.9,3.918-2.907,3.381-.184,6.619.069,9.237,3.068a42.256,42.256,0,0,1-.845,4.685c-.276.969-1.18,1.8,0,2.724-.248,1.162-.482,2.329-.749,3.486a7.684,7.684,0,0,0-.409,1.428c-.037,1.819.055,3.642.014,5.461-.037,1.64-.707,3.174-.666,4.883a9.853,9.853,0,0,1-2.026,5.535,11.2,11.2,0,0,1-4.4,3.955,7.327,7.327,0,0,1-3.514.877,41.574,41.574,0,0,0-6.1.055c-3.587.367-6.917-.583-10.256-1.612-.188-.055-.358-.248-.533-.243-4.2.1-6.045-2.839-7.716-5.976a6.613,6.613,0,0,1-.266-1.5,4.619,4.619,0,0,0-.556-1.686c-.335-.432-1.006-.593-1.456-.955a6.316,6.316,0,0,1-2.425-5.094c-.018-1.929-.06-3.858-.037-5.787.009-.8-.367-1.732.542-2.338C117,108.479,118.08,105.43,117.993,102.224Zm2.287-7.009-.413.234c.074.069.161.211.211.2a2.3,2.3,0,0,0,.432-.2Z" transform="translate(-116.109 -85.412)" fill="#fff"/>
          <path id="Path_17717" data-name="Path 17717" d="M117.038,88.282l.441-1.6a5.386,5.386,0,0,1,.285.9C117.777,87.676,117.543,87.809,117.038,88.282Z" transform="translate(-112.77 -80.841)" fill="#fff"/>
          <path id="Path_17718" data-name="Path 17718" d="M116.787,88.74l.23,1.525a5.108,5.108,0,0,1-.629-.753C116.341,89.429,116.543,89.2,116.787,88.74Z" transform="translate(-115.132 -73.453)" fill="#fff"/>
        </g>
      </g>
      <path id="Path_17719" data-name="Path 17719" d="M140.823,110.06a14.739,14.739,0,0,0-.124-3.822c0-.165-.243-.289-.207-.5.207-.326.129-.735.207-1.107a10.959,10.959,0,0,0,.083-1.644c-.124-.491.041-1.107-.409-1.479-.124-.165.083-.289.165-.45,0-.289.244-.537.041-.822-.124-.041-.248-.165-.413-.083-.165.207.124.409.207.574-.5.165-.083.7-.248,1.029.124,1.805.083,3.7.041,5.544l-.372.661a8.929,8.929,0,0,1,.331,1.52,12.33,12.33,0,0,1-.083,2.136c-.083.119-.165.326-.367.285-.041-.041-.041-.083-.083-.165.083-1.929-.041-3.817.041-5.792.083-.165.243-.326.2-.533-.574-.987-.083-2.3-.367-3.413l.083-1.438a1.072,1.072,0,0,1-.124-.946c.041-.161-.124-.326-.041-.491a.316.316,0,0,0-.124-.409c-.367-.248-.942.165-1.107-.331a.919.919,0,0,1,.657-.326c.207-.083.409.161.574-.041,0-.041,0-.041-.041-.083-.326,0-.491-.491-.9-.248a6.782,6.782,0,0,0-1.6-.165,11.418,11.418,0,0,1-1.681-.041,4.13,4.13,0,0,0-1.029.207c.289.124.491.372.781.372.45.326.864-.207,1.314,0,.455-.207.863.078,1.318.078.119.083.367.207.326.413-.083.165-.243.165-.409.165-.537-.289-1.029.124-1.6-.041a1.061,1.061,0,0,0-.5-.207c-.326.331-.818.165-1.148.455-.413.078-.7-.331-1.112-.165-.409.243-.574-.289-.983-.124a3.481,3.481,0,0,0-1.6.124c-.615.041-1.07-.165-1.644-.124a4.452,4.452,0,0,0-1.438.367c-.165-.041-.165-.243-.331-.243a2.806,2.806,0,0,0-1.024.165,3.794,3.794,0,0,0,.041,1.19.964.964,0,0,0-.124.822c-.041.367-.165.9.124,1.231.2.413-.331.781-.041,1.236.119.367-.289.533-.248.818.041,1.975.083,3.946.083,5.921.207.657-.165,1.272-.041,1.929.165.533.7.124,1.07.289.533.2,1.024-.124,1.479.165a1.517,1.517,0,0,1,.859,0,4.361,4.361,0,0,1,1.442.078,5.328,5.328,0,0,1,1.6,0c2.016-.041,3.987.041,6-.078l.161.119c.041.083-.041.165-.083.248a8.436,8.436,0,0,1-2.053.248c-.331.037-.74-.124-1.066.037-.5.124-.946-.119-1.4,0a6.886,6.886,0,0,0-2.012.083,23.116,23.116,0,0,0-3.7.041,3.592,3.592,0,0,0-1.355-.243c-.083.041-.165.083-.165.161a.553.553,0,0,0,.492.207c.537.537,1.4.124,2.094.207.289-.413.7.083,1.07-.124a11.089,11.089,0,0,0,2.342,0c.289-.289.739-.041,1.112-.161.615.409,1.4,0,2.136.119.983.124,1.929-.041,2.917,0a2.5,2.5,0,0,1,.942-.289c.455-.161.62-.652.9-.983a1.463,1.463,0,0,0-.078-.739C140.29,110.882,140.947,110.593,140.823,110.06Zm-13.692-5.59a.219.219,0,0,1,.106-.184,2.287,2.287,0,0,1,.542-.234c.179-.069.386-.138.6-.207a8.672,8.672,0,0,0,1.405-.717c.62-.386.932-.671.932-.859,0-.142-.262-.22-.753-.22.028,0-.129.023-.436.064a6.182,6.182,0,0,1-.776.055c-.62,0-.919-.055-.919-.175a.107.107,0,0,1,.028-.078c.064-.1.335-.17.8-.2a4.681,4.681,0,0,1,.818.069c.266.055.4.078.4.078a1.353,1.353,0,0,0,.285-.074,3.5,3.5,0,0,1,.542-.11.6.6,0,0,0,.257-.115c.1-.069.17-.133.17-.179a.293.293,0,0,0-.156-.285,1.521,1.521,0,0,0-.519-.083,1.82,1.82,0,0,1-.423-.064,2.141,2.141,0,0,0-.289-.06.682.682,0,0,0-.138.037,2.075,2.075,0,0,1-.455.083c-.3.032-.684.055-1.176.06-.579.014-.864-.041-.864-.161,0-.051.064-.115.22-.175a1.312,1.312,0,0,1,.45-.106l1.084-.028a2.244,2.244,0,0,1,.57.069,1.632,1.632,0,0,0,.308.073c-.037,0,.078-.032.363-.106.184-.009.455-.037.841-.092.17-.041.257-.124.257-.248,0-.243-.322-.354-.969-.34l-1.084.028c-.478,0-.707-.078-.707-.2,0-.069.074-.124.257-.165a4.356,4.356,0,0,1,.877-.1l1.86-.009c.349,0,.8.014,1.341.041,0,.009.055.023.156.051a.5.5,0,0,0,.207.032s.078-.014.234-.046a6.237,6.237,0,0,1,.841-.069c.207,0,.514,0,.9.014.45.014.749.018.9.018a2.081,2.081,0,0,1,.547.1c.243.078.386.161.409.257a.458.458,0,0,1-.037.124.45.45,0,0,0-.037.165.156.156,0,0,0,.037.119c.064.083.243.129.542.156.441.051.662.078.671.078.142.032.22.092.22.17s-.064.133-.165.175a1.215,1.215,0,0,1-.372.069h0c-.064,0-.22-.009-.5-.009-.363,0-.528.156-.528.459-.1.4-.542.62-1.3.684-.193.014-.735.014-1.64,0a8.713,8.713,0,0,0-1.81.087,2.086,2.086,0,0,0-.593.289c-.133.1-.363.3-.684.588a6.848,6.848,0,0,1-1.176.822c-.413.234-.726.4-.946.5a3.216,3.216,0,0,1-1.176.3C127.25,104.7,127.131,104.622,127.131,104.47Zm9.921-.078a.579.579,0,0,1,.092.207q0,.62-1.667.62c-.156,0-.423,0-.827,0s-.671,0-.827,0a2.342,2.342,0,0,1-.386-.06,2.013,2.013,0,0,0-.312-.055c-.009,0-.078.023-.207.064a2.036,2.036,0,0,1-.579.06,6.827,6.827,0,0,1-.684-.028c-.184-.018-.271-.028-.285-.028-.441,0-.657-.331-.657-1a.362.362,0,0,1,.115-.248c.078-.083.115-.115.115-.115a1.619,1.619,0,0,1-.087-.253c0-.161.179-.289.537-.372a3.917,3.917,0,0,1,.841-.083h.326c.129.009.244.009.322.009a2.811,2.811,0,0,1,.413.055,3.048,3.048,0,0,0,.349.046.39.39,0,0,0,.156-.032.419.419,0,0,1,.152-.041c.868-.028,1.525-.041,1.98-.041a3.146,3.146,0,0,1,.785.129c.335.1.519.2.519.312v.262c0,.041-.055.11-.142.22a.648.648,0,0,0-.129.193A.384.384,0,0,0,137.052,104.392Zm-.629,2.375a1.185,1.185,0,0,1-.106.423.954.954,0,0,1-.8.478,11.219,11.219,0,0,1-1.346.041c-.037,0-.243-.037-.634-.106a1.111,1.111,0,0,0-.308.064,1.21,1.21,0,0,1-.3.055c-.285,0-.478,0-.556,0-1.263.014-2.209.014-2.816-.014a1.007,1.007,0,0,1-.721-.266.552.552,0,0,1-.193-.418.77.77,0,0,1,.138-.5.826.826,0,0,1,.583-.354c.037-.014.427-.041,1.148-.069a1.316,1.316,0,0,1,.363.064,1.481,1.481,0,0,0,.22.06,1.8,1.8,0,0,0,.386-.083,2.061,2.061,0,0,1,.4-.087l.841-.028c.932-.014,1.525-.014,1.782-.009a4.232,4.232,0,0,1,1.589.257A.543.543,0,0,1,136.423,106.767Zm1.7,4.974a3.087,3.087,0,0,1-.854.11l-3.537.032c-.478,0-1.2.009-2.159.009h-.014l.028-.009h-.119a15.1,15.1,0,0,1-1.663-.1,3.758,3.758,0,0,1-1.5-.377c-.257-.188-.4-.358-.423-.528v-.468l-.041-.606a.727.727,0,0,1,.092-.455c0-.014.037-.041.1-.1s.092-.087.064-.106c-.152-.087-.23-.165-.23-.234,0-.317.051-.505.152-.574a2.814,2.814,0,0,1,1.1-.129,4.283,4.283,0,0,1,.813.069c.1.028.22.046.335.073l.165-.069a1.427,1.427,0,0,1,.427-.073,3.243,3.243,0,0,0,.377-.023c.078,0,.257,0,.542,0,.014,0,.129,0,.335-.014s.322-.018.335-.018h.39l2.26-.023.992.009a1.581,1.581,0,0,1,.955.257.952.952,0,0,1,.276.781c0,.524-.533.781-1.589.781H133.9c-.064,0-.349,0-.854,0s-.928.009-1.277.009c-.257,0-.579,0-.955.023s-.684.018-.942.018a3.293,3.293,0,0,0-.932.1c-.179.069-.271.271-.271.615,0,.4.634.629,1.9.675,1.075.041,2.3.064,3.67.064q.331,0,2.829-.119l.877-.041c.285,0,.441.078.441.216C138.384,111.6,138.292,111.677,138.127,111.741Z" transform="translate(27.594 -30.993)" fill="#d40012"/>
    </g>
    <path id="Path_17720" data-name="Path 17720" d="M128.27,100.969c1.02,0,1.64,0,1.86-.032.556-.055.841-.23.841-.514,0-.358-.413-.542-1.24-.542-.064,0-.248,0-.556.018s-.491.014-.556.014a3.174,3.174,0,0,0-.726.092c-.349.083-.514.207-.514.358-.014.234.023.381.129.436A1.379,1.379,0,0,0,128.27,100.969Z" transform="translate(33.175 -22.384)" fill="#d40012"/>
    <path id="Path_17721" data-name="Path 17721" d="M128.16,98.016c.285-.037.533-.119.776.083.455-.326.868.165,1.277-.119.409-.207.864.078,1.231.078.124-.078.248-.119.207-.285-.289-.409-.822-.124-1.231-.248a20.626,20.626,0,0,1-2.26,0,15.134,15.134,0,0,0-1.975.289c-.124.041-.326,0-.285.2a.732.732,0,0,0,.533.124A6.137,6.137,0,0,1,128.16,98.016Z" transform="translate(27.851 -30.91)" fill="#d40012"/>
    <path id="Path_17722" data-name="Path 17722" d="M127.75,97.612c-.119-.165-.326,0-.45.041.041.124.207.124.367.124C127.713,97.736,127.791,97.7,127.75,97.612Z" transform="translate(32.9 -30.791)" fill="#d40012"/>
    <path id="Path_17723" data-name="Path 17723" d="M129.2,97.947c-.041-.083-.083-.248-.207-.207,0,.041-.083.083-.083.165a.485.485,0,0,0,.207.367C129.241,98.232,129.2,98.066,129.2,97.947Z" transform="translate(38.685 -30.097)" fill="#d40012"/>
    <path id="Path_17724" data-name="Path 17724" d="M125.958,98.442c-.041-.083-.083-.2-.207-.165a.375.375,0,0,0-.124.289.742.742,0,0,0,.207.289A1.573,1.573,0,0,0,125.958,98.442Z" transform="translate(26.889 -28.171)" fill="#d40012"/>
    <path id="Path_17725" data-name="Path 17725" d="M126.136,101.661c.326-.7-.372-1.148-.248-1.846.083-.289.45-.615.124-.946-.083-.124.083-.409-.124-.409-.367.037-.124.367-.207.574-.326.367.248.781-.078,1.148.161.864-.083,1.768.037,2.632a6.872,6.872,0,0,1-.037,1.846,2.371,2.371,0,0,1,.119.946c.289.413-.041.988.289,1.4.165-.165.041-.491.041-.74.124-.822-.083-1.6.041-2.425.041-.2.207-.367.165-.615C125.888,102.773,126.3,102.2,126.136,101.661Z" transform="translate(26.71 -27.487)" fill="#d40012"/>
  </g>
  <g id="Group_4073" data-name="Group 4073" transform="translate(86.149)">
    <path id="Path_17726" data-name="Path 17726" d="M130.671,78.977v4.359h2.6v2.825h-2.6v4.566H119.3a14.461,14.461,0,0,1-1.249,1.814h13.407v9.127h-2.889v-.831H118.444v.73h-2.862V95.081a18.263,18.263,0,0,1-3.059,2.021l-1.346-2.641a14.24,14.24,0,0,0,4.6-3.734h-2.958V87.975h4.745a18.909,18.909,0,0,0,.73-1.814h-6.821V83.336h7.51c.1-.519.17-1.066.22-1.635h-6.187V78.977Zm-2.1,16.494H118.444v2.54h10.123Zm-7.974-7.5h7.216V86.161h-6.628C120.984,86.785,120.792,87.405,120.594,87.975Zm1.176-4.639h6.04V81.7h-5.82C121.94,82.27,121.866,82.817,121.77,83.336Z" transform="translate(-111.178 -78.977)" fill="#fff"/>
    <path id="Path_17727" data-name="Path 17727" d="M120.821,97.207c0,.6.367.937,1.148.988.487.1,2.618.129,6.407.129,2.1,0,3.523-.028,4.23-.078a14.282,14.282,0,0,0,2.278-.262c.565-.257.9-1.011,1.029-2.306l2.885,1.53a5.7,5.7,0,0,1-1.883,3.449,7.309,7.309,0,0,1-1.957.441c-1.957.106-4.161.156-6.582.156-3.84,0-6.26-.078-7.285-.184a2.907,2.907,0,0,1-3.133-3.266V86.863h19.787v8.608h-3.059v-.7H120.821Zm15.02-18.23v6.977H119.3V78.977Zm-15.02,10.739v2.228h5.356V89.716Zm12.131-6.486V81.7H122.162v1.53Zm-3.812,6.486v2.228h5.549V89.716Z" transform="translate(-86.813 -78.977)" fill="#fff"/>
  </g>
</svg>
