<svg xmlns="http://www.w3.org/2000/svg" width="156" height="68" viewBox="0 0 156 68">
  <g id="section2_subtitle2_lg" transform="translate(-342.042 -520.09)">
    <g id="Group_127" data-name="Group 127" transform="translate(342.042 520.09)">
      <path id="Path_583" data-name="Path 583" d="M350.564,520.7a28.632,28.632,0,0,1-2.13,4.507c.106.264.213.523.313.758a21.059,21.059,0,0,1,1.21,5.923,11.8,11.8,0,0,0,2.921-3.807h-2.213v-7.257h14.784v7.257h-9.23c-.213.435-.4.846-.608,1.251h10.045v4.354c0,6.452-.313,10.2-.891,11.335a3.5,3.5,0,0,1-3.311,1.569h-1.027l-.425-2.5c.319.029.584.059.791.059-.106-.264-.183-.465-.289-.705-3.287.705-6.575,1.281-9.838,1.775l-.519-3.2a44.1,44.1,0,0,0,5.046-.288V539.88h-3.919V535c-.159.141-.289.265-.4.353l-.785-1.369c.053,1.046.053,2.092.053,3.167q0,6.188-1.11,7.751c-.738,1.11-2.467,1.692-5.152,1.692l-.525-3.867a17.951,17.951,0,0,0,2.154.229,1.135,1.135,0,0,0,1.133-.84,14.46,14.46,0,0,0,.525-4.966v-1.481a19.855,19.855,0,0,1-3.075,4.09l-2.054-2.815a17.7,17.7,0,0,0,4.81-6.247c-.153-.928-.313-1.768-.5-2.462a27.493,27.493,0,0,1-2.685,2.9l-1.629-2.82a17.375,17.375,0,0,0,2.892-3.138,14.42,14.42,0,0,0-2.39-2.562l1.865-2.027a12.341,12.341,0,0,1,2.13,1.8,21.705,21.705,0,0,0,.944-2.262Zm4.627,11.365h-1.263a14.026,14.026,0,0,1-1.286,1.563h2.549Zm-.212-8.861h-1.446v2.5h1.446Zm.212,12.493h-1.552v2.145h1.552Zm3.577-12.493h-1.629v2.5h1.629Zm3.789,19.668q.151-2.177.236-10.807h-4.946v1.563h3.919v6.252h-1.051A28.453,28.453,0,0,1,362.556,542.871ZM359.4,535.7h-1.552v2.145H359.4Zm-.95,4.184h-.6v1.51a12.34,12.34,0,0,0,1.446-.235C359.027,540.72,358.744,540.279,358.449,539.88ZM362.58,523.2h-1.658v2.5h1.658Z" transform="translate(-342.042 -519.924)" fill="#fff"/>
      <path id="Path_584" data-name="Path 584" d="M356.01,520.109a43.621,43.621,0,0,1,6.574,5.083l-1.523,2.268v9.76h-9.5c-.053.406-.083.781-.13,1.134h10.228v8.192h-2.974V545.53h-4.733v1.017h-2.969v-5.665a30.276,30.276,0,0,1-1.658,5.312l-2.868-2.726a22.064,22.064,0,0,0,2.266-10.666v-4.066a11.935,11.935,0,0,1-1.133.787l-.738-3.978a25.676,25.676,0,0,0,6.681-5.435h2.473Zm-2.024,7.028c-.183-.576-.4-1.128-.631-1.716l2.969-.664a15.67,15.67,0,0,1,.767,2.38h2.26a43.876,43.876,0,0,0-4.367-4.207,28.335,28.335,0,0,1-4.208,4.207Zm-2.207,7.381h6.385v-1.251H351.8C351.8,533.7,351.778,534.112,351.778,534.517Zm.023-4.648V531h6.362V529.87Zm6.887,12.927v-1.716h-4.733V542.8Zm7.076-20.655v18.275h-2.975V522.142Zm4.415,21.437c0,1.98-.838,2.967-2.473,2.967H364.03l-.631-3.867c1.895.176,2.921.235,3.1.235.4,0,.6-.264.6-.817V520.432h3.075Z" transform="translate(-320.381 -519.997)" fill="#fff"/>
      <path id="Path_585" data-name="Path 585" d="M372.72,520.608v3.4H364.3v14.638h9.968v3.4H351.055v-3.4h9.756V524.01h-8.2v-3.4Z" transform="translate(-297.863 -517.564)" fill="#fff"/>
      <path id="Path_586" data-name="Path 586" d="M362.9,535.887a42.81,42.81,0,0,1-4.1,10.424l-3.393-2.145a31.313,31.313,0,0,0,4.42-9.531Zm-.313-5.118-2.473,2.932a36.864,36.864,0,0,0-4.42-4.178l2.16-2.5A32.145,32.145,0,0,1,362.589,530.768Zm1.446-6.71-2.367,2.85a34.944,34.944,0,0,0-4.314-3.978l2.048-2.386A33.478,33.478,0,0,1,364.035,524.058Zm5.022.123v-4.072h3.388v4.072h5.235v3.279h-5.235v4.325h7v3.285h-8a32.817,32.817,0,0,1-3.21,6.364c1.871-.117,3.813-.294,5.843-.523-.579-1.164-1.21-2.292-1.842-3.343l2.892-1.017a55.44,55.44,0,0,1,4.6,8.632l-3.181,1.68c-.372-1.016-.738-2-1.1-2.932q-6.276,1.092-12.547,1.8l-.631-4.066c.685,0,1.422,0,2.154-.029a31.513,31.513,0,0,0,3.34-6.564H362.8v-3.285h6.262V527.46h-4.71v-3.279Z" transform="translate(-276.53 -519.997)" fill="#fff"/>
      <path id="Path_587" data-name="Path 587" d="M370.087,535.769v-2.5h3.6v2.5H381.6v3.162h-7.914v3.285h9.862v3.514H359.912v-3.514h10.175v-3.285h-8.1v-3.162Zm0-12.61v-3.05h3.6v3.05h7.6v3.167h-7.6v2.844h9.336v3.52H360.544v-3.52h9.543v-2.844h-7.814v-3.167Z" transform="translate(-254.448 -519.997)" fill="#fff"/>
      <path id="Path_588" data-name="Path 588" d="M378.705,520.636a13.411,13.411,0,0,1-1,1.481h8.18v13.4h-7.708v1.592h10.18v2.815h-7.047a11.639,11.639,0,0,0,1.971,1.2,21.752,21.752,0,0,0,5.577,1.651l-1.735,3.285A20.521,20.521,0,0,1,381,543.119a13.6,13.6,0,0,1-2.821-2.814v6.652h-3.387v-6.511a15.6,15.6,0,0,1-3.1,2.826,24.8,24.8,0,0,1-5.943,2.785l-1.422-3.285a20.913,20.913,0,0,0,7.1-2.85h-6.8v-2.815h10.175v-1.592h-7.6v-13.4h6.864a7.138,7.138,0,0,0,.944-2.027Zm3.783,5.465v-1.363h-11.91V526.1Zm0,3.4v-1.363h-11.91V529.5Zm0,2.033h-11.91v1.363h11.91Z" transform="translate(-232.856 -520.09)" fill="#fff"/>
      <path id="Path_589" data-name="Path 589" d="M352.265,543.861v-1.369h3.394v1.369h8.416v3.167h-8.416V549.2h10.18v3.167H342.091V549.2h10.174v-2.174h-8.3v-3.167Zm2.473-13.974h-3.388v1.592h2.969v6.135h-2.969v1.71h3.181v2.621h-11.5V527.3h11.7Zm-6.256,1.592v-1.592H346.01v1.592Zm3.075,3.872v-1.6H346.01v1.6Zm-3.075,2.262H346.01v1.71h2.473ZM365.1,527.3V530a24.651,24.651,0,0,1-3.028,7,12.543,12.543,0,0,0,4.055,2.209l-1.735,3.514a13.683,13.683,0,0,1-4.527-3.191,18.967,18.967,0,0,1-3.683,2.609l-1.652-3.285a8.336,8.336,0,0,0,3.417-1.651,24.96,24.96,0,0,1-2.709-5.377l2.284-1.369h-2.178V527.3Zm-5.052,7.527a16.787,16.787,0,0,0,1.788-4.366h-4.072A20.789,20.789,0,0,0,360.05,534.829Z" transform="translate(-341.802 -484.922)" fill="#fff"/>
      <path id="Path_590" data-name="Path 590" d="M360.469,538.272v-3.631h3.677v3.631h5.76v3.4h-5.76V550.3c0,1.974-.968,2.968-2.863,2.968h-4.739l-.6-3.873c2.313.182,3.576.235,3.789.235.472,0,.738-.258.738-.811v-7.145h-8.126a41.372,41.372,0,0,1,4.833,4.213l-2.361,3.161a42.226,42.226,0,0,0-5.264-5.318l2.054-2.057h-5.022v-3.4Zm.1-8.162h8.705v6.358H365.8V533.4h-15.12v3.073h-3.47V530.11h9.047c-.212-.929-.425-1.745-.632-2.5l4.521-.464C360.309,528.13,360.439,529.123,360.569,530.11Z" transform="translate(-319.788 -485.698)" fill="#fff"/>
      <path id="Path_591" data-name="Path 591" d="M359.279,528.678a51.431,51.431,0,0,1-3.128,7.727h3.341q-.637,7.757-2.29,11.594a1.707,1.707,0,0,0-.106.2c1.34,1.164,4.84,1.716,10.493,1.716.525,0,3.081-.059,7.708-.235l-.814,3.755c-4.839,0-7.259-.065-7.259-.123q-8.676,0-11.756-2.438a19.994,19.994,0,0,1-2.656,2.791l-1.842-3.314a8.676,8.676,0,0,0,2.367-2.239,26.33,26.33,0,0,1-2.077-6.158l2.685-.67a23.636,23.636,0,0,0,1,3.549,33.3,33.3,0,0,0,1.027-5.576h-4.5c1.263-2.468,2.39-4.854,3.388-7.175h-3.388v-3.4Zm5.341-.229v-1.34H367.8v1.34h5.754v4.1H374.8v2.962h-1.239v4.066H367.8V540.7h6.179v2.85H367.8v1.134h6.569v2.962H367.8v1.8H364.62v-1.8h-5.866v-2.962h5.866v-1.134H359.8V540.7h4.816v-1.128h-4.314v-2.815h4.314v-1.251h-5.866v-2.962h5.866v-1.252h-4.208v-2.844Zm3.181,4.1h2.573v-1.252H367.8Zm0,4.213h2.573v-1.251H367.8Z" transform="translate(-298.279 -485.863)" fill="#fff"/>
      <path id="Path_592" data-name="Path 592" d="M362.082,527.544c-.213.465-.4.876-.579,1.252h6.126V531a12.294,12.294,0,0,0,2.154-3.89l3.1.435c-.189.465-.372.876-.531,1.252h7v2.962H375.65a16.707,16.707,0,0,1,.708,1.916l-3.287.352a11.739,11.739,0,0,0-.5-2.268h-1.711a20.232,20.232,0,0,1-1.47,2.268l-2.679-2.039a2.184,2.184,0,0,0,.236-.229h-2.733c.283.817.5,1.539.655,2.15l-3.081.347c-.1-.781-.236-1.628-.419-2.5h-1.446a19.468,19.468,0,0,1-1.841,2.615l-2.656-2.062a12.423,12.423,0,0,0,3.576-5.2Zm3.706,7.034V537.3H362.5v2.5a31.28,31.28,0,0,0,3.287-.664l.154,1.246a7.636,7.636,0,0,0,1.08-.493c-.313-.118-.579-.2-.814-.317l1.34-2.033c.4.118.814.259,1.292.435.077-.259.154-.523.207-.781H366.5V534.46h9.779v5.112c0,.412.135.582.4.582.342,0,.525-.352.525-1.075v-.87l2.762.694c-.154,2.121-.525,3.308-1.1,3.6a2.636,2.636,0,0,1-1.552.382h-1.446a2.189,2.189,0,0,1-2.473-2.5v-3.19h-1.546a10.57,10.57,0,0,1-.348,1.857c.5.229,1.027.493,1.582.752l-1.21,2.733c-.632-.376-1.24-.723-1.818-1.069a7.721,7.721,0,0,1-1.706,1.3h.738v1.246H379.25v2.815h-7.177a10.1,10.1,0,0,0,2.024,1.2,22.869,22.869,0,0,0,5.754,1.651l-1.735,3.285a21.921,21.921,0,0,1-6.309-2.938,13.37,13.37,0,0,1-2.732-2.609v6.446h-3.287v-6.387a16.354,16.354,0,0,1-3,2.7,24.9,24.9,0,0,1-5.943,2.785l-1.422-3.285a21.019,21.019,0,0,0,7.1-2.85h-6.811v-2.815h10.074v-1.246h1.074l-.761-1.1v.053a40.972,40.972,0,0,1-10.281,1.716l-.4-3.05c1.34,0,2.685-.059,4-.17V537.3H356.24v-2.727Z" transform="translate(-276.442 -485.863)" fill="#fff"/>
      <path id="Path_593" data-name="Path 593" d="M370.27,552.507h-3.287v-1.48H363.3v1.48h-3.281V538.763H370.27Zm9.673-25.185v9.643H362.568v-9.643Zm-12.96,20.626V541.93H363.3v6.017Zm9.467-17.341H366.062v3.044h10.387Zm6.049,21.9h-3.287v-1.48h-4v1.48h-3.287V538.763H382.5Zm-3.287-4.56V541.93h-4v6.017Z" transform="translate(-253.924 -484.825)" fill="#fff"/>
      <path id="Path_594" data-name="Path 594" d="M376.233,529.9a33.337,33.337,0,0,1-6.893.782v.811h6.787v2.621h-2.26v2.145h2.969l-1.233-1.128a4,4,0,0,0,1.34-3.167V528.1a38.383,38.383,0,0,0,9.756-1.011l1.133,2.815a42,42,0,0,1-7.814.782v.811h8.021v2.621h-2.573v2.145h.419v13.163h-4.521c1.971.288,4.308.723,6.994,1.246l-.838,3.285a47.441,47.441,0,0,0-8.917-2.145l.838-2.386h-6.309l.95,2.386a21.725,21.725,0,0,1-8.628,2.145l-.944-3.285a30.343,30.343,0,0,0,7.755-1.246h-4.969V537.808c-.159.17-.289.341-.419.493l-2.555-2.386a5.853,5.853,0,0,0,1.948-4.642V528.1a31.743,31.743,0,0,0,8.835-1.011ZM371,536.263v-2.145H369a9.161,9.161,0,0,1-.767,2.145Zm11.491,3.984V539h-11.8v1.251Zm0,3.167V542.28h-11.8v1.134Zm0,2.033h-11.8V546.7h11.8Zm0-9.185v-2.145h-2.709a7.027,7.027,0,0,1-.761,2.145Z" transform="translate(-232.856 -485.956)" fill="#fff"/>
    </g>
  </g>
</svg>
