<svg id="section2_title2" xmlns="http://www.w3.org/2000/svg" width="137.725" height="38.138" viewBox="0 0 137.725 38.138">
  <path id="Path_21497" data-name="Path 21497" d="M113.781,404.064c.106-.74.212-1.476.285-2.221l4.81.782c-.11.538-.216,1.025-.285,1.439h11.778v4.185h-12.8c-.179.575-.317,1.108-.46,1.6h9.938V429.1h4.139v4.144h-6.227c1.84.616,3.891,1.352,6.084,2.258l-1.945,4.475a61.029,61.029,0,0,0-10.219-4.475l1.481-2.258H110.7l1.554,2.1a34.333,34.333,0,0,1-9.8,4.516l-1.945-4.516a29.51,29.51,0,0,0,7-2.1H100.1V429.1h4.139V409.854h8.273c.143-.538.285-1.072.428-1.6h-11.6v-4.185Zm8.558,11.244v-1.6h-13.4v1.6Zm0,4.479v-1.605h-13.4v1.605Zm0,4.677V422.7h-13.4v1.761Zm0,4.64v-1.766h-13.4V429.1Z" transform="translate(-100.095 -401.843)" fill="#c9dcb7"/>
  <path id="Path_21498" data-name="Path 21498" d="M136.926,402.817v4.8H125.608v20.69h13.406v4.8h-31.23v-4.8h13.125v-20.69H109.871v-4.8Z" transform="translate(-72.427 -398.338)" fill="#c9dcb7"/>
  <path id="Path_21499" data-name="Path 21499" d="M128.924,406.39h5.693a22.389,22.389,0,0,0,2.865-4.475l4.7,1.274a21.679,21.679,0,0,1-2.125,3.2h6.121v3.858H133.734v2.382H144.8v3.859H133.734V419.2H147.42v4.019H133.7c-.037.989-.106,1.932-.212,2.755h13.792v3.978H136.208a14.848,14.848,0,0,0,3.467,2.18,33.627,33.627,0,0,0,8.839,2.626l-2.617,4.967a32.771,32.771,0,0,1-9.547-4.557,23.763,23.763,0,0,1-4.461-4.474,10.846,10.846,0,0,1-2.12,2.791c-2.58,2.548-6.54,4.645-11.915,6.241l-2.621-4.967c4.81-1.025,8.315-2.419,10.508-4.231a7.829,7.829,0,0,0,.635-.575h-9.9v-3.978h12.132a13.86,13.86,0,0,0,.386-2.755H116.332V419.2h12.7v-2.709H118.949V412.63h10.081v-2.382h-11.46V406.39h6.365a29.228,29.228,0,0,0-2.617-3.2l4.7-1.15A18.414,18.414,0,0,1,128.924,406.39Z" transform="translate(-45.616 -401.584)" fill="#c9dcb7"/>
  <path id="Path_21500" data-name="Path 21500" d="M149.122,423.451v2.874a35.6,35.6,0,0,1-6.3,3.2h12.095v4.189H141.659v2.709c-.175,1.931-1.38,2.915-3.605,2.915h-5.942l-.566-4.024c2.617.12,4.1.166,4.419.166a.886.886,0,0,0,.993-.989v-.777H123.13v-4.189h13.829v-.777a23.975,23.975,0,0,0,4.562-1.766H129.072v-3.532ZM134.2,405.966a34.169,34.169,0,0,1-5.2,1.1l.037,1.15h4.456v3.532H129.21l.074,1.6h4.208V415.2a14.37,14.37,0,0,0,3.04-1.311c-.846-.616-1.628-1.191-2.332-1.688l1.734-1.725c-.285.124-.57.207-.782.29l-1.38-3.366a14.027,14.027,0,0,0,2.971-1.15c-.846-.74-1.623-1.435-2.405-2.056l2.194-2.254c1.131.865,2.194,1.679,3.113,2.419A14.77,14.77,0,0,0,141.8,402.1l2.051,1.973v-1.15h9.69l-1.131,15.4h1.807v9.152h-4.281v-5.3H127.83v5.3h-4.277v-9.152h1.7l-.6-14.454a28.25,28.25,0,0,0,8.029-1.766Zm.248,12.357-.957-2.341v.9h-4.033l.069,1.439Zm7.073,0c-.814-.782-1.559-1.481-2.263-2.134a20.814,20.814,0,0,1-3.858,2.134Zm-2.194-6.406a11.5,11.5,0,0,0,1.554-1.518q-.849-.862-1.591-1.724a15.016,15.016,0,0,1-2.617,1.476C137.593,410.767,138.476,411.342,139.327,411.917Zm4.81,1.269h4.314l.106-1.435h-4.419v-3.366h4.668l.143-1.6h-5.1v-2.092a17.377,17.377,0,0,1-1.734,1.8c.639.616,1.2,1.191,1.734,1.724l-1.449,2.014,1.591,1.518a17.259,17.259,0,0,1-1.982,2.138c.777.653,1.49,1.228,2.125,1.761Zm3.854,5.137.143-1.6h-4v-.409l-1.453,2.014Z" transform="translate(-17.197 -401.487)" fill="#c9dcb7"/>
</svg>
