<svg xmlns="http://www.w3.org/2000/svg" xmlns:xlink="http://www.w3.org/1999/xlink" width="360.94" height="144.705" viewBox="0 0 360.94 144.705">
  <defs>
    <filter id="Path_37850" x="64.893" y="0" width="296.047" height="144.705" filterUnits="userSpaceOnUse">
      <feOffset input="SourceAlpha"/>
      <feGaussianBlur stdDeviation="0.511" result="blur"/>
      <feFlood flood-opacity="0.4"/>
      <feComposite operator="in" in2="blur"/>
      <feComposite in="SourceGraphic"/>
    </filter>
    <linearGradient id="linear-gradient" x1="100.18" y1="-273.2" x2="99.475" y2="-272.74" gradientUnits="objectBoundingBox">
      <stop offset="0" stop-color="#c9cdcd"/>
      <stop offset="1" stop-color="#9fa0a0"/>
    </linearGradient>
  </defs>
  <g id="section6_imgicon4" transform="translate(-52.101 -7828.351)">
    <rect id="Rectangle_119" data-name="Rectangle 119" width="309" height="50.552" transform="translate(77.101 7829)" fill="#72adb6"/>
    <g id="Group_6139" data-name="Group 6139" transform="translate(52.101 7828.896)">
      <g id="Group_6133" data-name="Group 6133" transform="translate(66.428 0.983)">
        <g transform="matrix(1, 0, 0, 1, -66.43, -1.53)" filter="url(#Path_37850)">
          <path id="Path_37850-2" data-name="Path 37850" d="M376.05,1809.952,337.728,1762.9c-3.923-4.824-9.184-7.045-14.357-6.719a15.181,15.181,0,0,0-3.339-.386H106.321c-9.754,0-17.733,9.8-17.733,21.775v98.083c0,11.98,7.979,21.78,17.733,21.78H320.032a15.532,15.532,0,0,0,4.9-.823,17.339,17.339,0,0,0,12.8-6.742l38.322-47.059C383.408,1833.769,383.408,1818.989,376.05,1809.952Z" transform="translate(-22.16 -1754.26)" fill="#fff"/>
        </g>
      </g>
      <g id="Group_6138" data-name="Group 6138">
        <g id="Group_6135" data-name="Group 6135">
          <g id="Group_6134" data-name="Group 6134" opacity="0.6" style="mix-blend-mode: multiply;isolation: isolate">
            <circle id="Ellipse_238" data-name="Ellipse 238" cx="49.47" cy="49.47" r="49.47" transform="translate(9.236 75.86) rotate(-50.061)" fill="#fff"/>
            <circle id="Ellipse_239" data-name="Ellipse 239" cx="49.47" cy="49.47" r="49.47" transform="matrix(0.642, -0.767, 0.767, 0.642, 9.149, 75.899)" fill="#fefefe"/>
            <circle id="Ellipse_240" data-name="Ellipse 240" cx="49.47" cy="49.47" r="49.47" transform="translate(9.063 75.938) rotate(-50.077)" fill="#fdfdfd"/>
            <circle id="Ellipse_241" data-name="Ellipse 241" cx="49.47" cy="49.47" r="49.47" transform="translate(8.976 75.978) rotate(-50.07)" fill="#fcfcfc"/>
            <circle id="Ellipse_242" data-name="Ellipse 242" cx="49.47" cy="49.47" r="49.47" transform="translate(8.889 76.017) rotate(-50.07)" fill="#fbfbfb"/>
            <circle id="Ellipse_243" data-name="Ellipse 243" cx="49.47" cy="49.47" r="49.47" transform="matrix(0.641, -0.767, 0.767, 0.641, 8.802, 76.058)" fill="#fafafa"/>
            <circle id="Ellipse_244" data-name="Ellipse 244" cx="49.47" cy="49.47" r="49.47" transform="matrix(0.641, -0.767, 0.767, 0.641, 8.715, 76.098)" fill="#f9f9f9"/>
            <circle id="Ellipse_245" data-name="Ellipse 245" cx="49.47" cy="49.47" r="49.47" transform="translate(8.629 76.139) rotate(-50.12)" fill="#f8f8f8"/>
            <circle id="Ellipse_246" data-name="Ellipse 246" cx="49.47" cy="49.47" r="49.47" transform="matrix(0.641, -0.767, 0.767, 0.641, 8.542, 76.18)" fill="#f7f7f7"/>
            <circle id="Ellipse_247" data-name="Ellipse 247" cx="49.47" cy="49.47" r="49.47" transform="translate(8.456 76.222) rotate(-50.15)" fill="#f6f6f6"/>
            <circle id="Ellipse_248" data-name="Ellipse 248" cx="49.47" cy="49.47" r="49.47" transform="translate(8.369 76.264) rotate(-50.15)" fill="#f5f5f5"/>
            <circle id="Ellipse_249" data-name="Ellipse 249" cx="49.47" cy="49.47" r="49.47" transform="translate(8.282 76.306) rotate(-50.161)" fill="#f4f4f4"/>
            <circle id="Ellipse_250" data-name="Ellipse 250" cx="49.47" cy="49.47" r="49.47" transform="matrix(0.64, -0.768, 0.768, 0.64, 8.196, 76.35)" fill="#f3f3f3"/>
            <circle id="Ellipse_251" data-name="Ellipse 251" cx="49.47" cy="49.47" r="49.47" transform="matrix(0.64, -0.768, 0.768, 0.64, 8.109, 76.393)" fill="#f2f2f2"/>
            <circle id="Ellipse_252" data-name="Ellipse 252" cx="49.47" cy="49.47" r="49.47" transform="matrix(0.64, -0.768, 0.768, 0.64, 8.023, 76.438)" fill="#f1f1f1"/>
            <circle id="Ellipse_253" data-name="Ellipse 253" cx="49.47" cy="49.47" r="49.47" transform="matrix(0.64, -0.768, 0.768, 0.64, 7.937, 76.483)" fill="#f0f0f0"/>
            <circle id="Ellipse_254" data-name="Ellipse 254" cx="49.47" cy="49.47" r="49.47" transform="translate(7.851 76.529) rotate(-50.222)" fill="#efefef"/>
            <circle id="Ellipse_255" data-name="Ellipse 255" cx="49.47" cy="49.47" r="49.47" transform="matrix(0.64, -0.769, 0.769, 0.64, 7.765, 76.575)" fill="#eee"/>
            <circle id="Ellipse_256" data-name="Ellipse 256" cx="49.47" cy="49.47" r="49.47" transform="matrix(0.639, -0.769, 0.769, 0.639, 7.678, 76.622)" fill="#ededed"/>
            <circle id="Ellipse_257" data-name="Ellipse 257" cx="49.47" cy="49.47" r="49.47" transform="translate(7.592 76.67) rotate(-50.266)" fill="#ececec"/>
            <circle id="Ellipse_258" data-name="Ellipse 258" cx="49.47" cy="49.47" r="49.47" transform="matrix(0.639, -0.769, 0.769, 0.639, 7.507, 76.718)" fill="#ebebeb"/>
            <circle id="Ellipse_259" data-name="Ellipse 259" cx="49.47" cy="49.47" r="49.47" transform="matrix(0.639, -0.769, 0.769, 0.639, 7.421, 76.768)" fill="#eaeaea"/>
            <circle id="Ellipse_260" data-name="Ellipse 260" cx="49.47" cy="49.47" r="49.47" transform="matrix(0.639, -0.77, 0.77, 0.639, 7.335, 76.818)" fill="#e9e9e9"/>
            <circle id="Ellipse_261" data-name="Ellipse 261" cx="49.47" cy="49.47" r="49.47" transform="translate(7.249 76.87) rotate(-50.333)" fill="#e8e8e8"/>
            <circle id="Ellipse_262" data-name="Ellipse 262" cx="49.47" cy="49.47" r="49.47" transform="matrix(0.638, -0.77, 0.77, 0.638, 7.164, 76.923)" fill="#e7e7e7"/>
            <circle id="Ellipse_263" data-name="Ellipse 263" cx="49.47" cy="49.47" r="49.47" transform="translate(7.078 76.977) rotate(-50.356)" fill="#e6e6e6"/>
            <circle id="Ellipse_264" data-name="Ellipse 264" cx="49.47" cy="49.47" r="49.47" transform="translate(6.993 77.032) rotate(-50.356)" fill="#e5e5e5"/>
            <circle id="Ellipse_265" data-name="Ellipse 265" cx="49.47" cy="49.47" r="49.47" transform="translate(6.908 77.089) rotate(-50.416)" fill="#e4e4e4"/>
            <circle id="Ellipse_266" data-name="Ellipse 266" cx="49.47" cy="49.47" r="49.47" transform="matrix(0.637, -0.771, 0.771, 0.637, 6.823, 77.147)" fill="#e3e3e3"/>
            <circle id="Ellipse_267" data-name="Ellipse 267" cx="49.47" cy="49.47" r="49.47" transform="translate(6.738 77.207) rotate(-50.436)" fill="#e2e2e2"/>
            <circle id="Ellipse_268" data-name="Ellipse 268" cx="49.47" cy="49.47" r="49.47" transform="translate(6.653 77.268) rotate(-50.517)" fill="#e1e1e1"/>
            <circle id="Ellipse_269" data-name="Ellipse 269" cx="49.47" cy="49.47" r="49.47" transform="translate(6.569 77.332) rotate(-50.517)" fill="#e0e0e0"/>
            <circle id="Ellipse_270" data-name="Ellipse 270" cx="49.47" cy="49.47" r="49.47" transform="translate(6.485 77.398) rotate(-50.561)" fill="#dfdfdf"/>
            <circle id="Ellipse_271" data-name="Ellipse 271" cx="49.47" cy="49.47" r="49.47" transform="translate(6.401 77.466) rotate(-50.598)" fill="#dedede"/>
            <circle id="Ellipse_272" data-name="Ellipse 272" cx="49.47" cy="49.47" r="49.47" transform="translate(6.317 77.537) rotate(-50.615)" fill="#ddd"/>
            <circle id="Ellipse_273" data-name="Ellipse 273" cx="49.47" cy="49.47" r="49.47" transform="matrix(0.634, -0.773, 0.773, 0.634, 6.234, 77.612)" fill="#dcdcdc"/>
            <circle id="Ellipse_274" data-name="Ellipse 274" cx="49.47" cy="49.47" r="49.47" transform="translate(6.151 77.688) rotate(-50.691)" fill="#dbdbdb"/>
            <circle id="Ellipse_275" data-name="Ellipse 275" cx="49.47" cy="49.47" r="49.47" transform="translate(6.068 77.769) rotate(-50.734)" fill="#dadada"/>
            <circle id="Ellipse_276" data-name="Ellipse 276" cx="49.47" cy="49.47" r="49.47" transform="translate(5.986 77.855) rotate(-50.779)" fill="#d9d9d9"/>
            <ellipse id="Ellipse_277" data-name="Ellipse 277" cx="49.47" cy="49.469" rx="49.47" ry="49.469" transform="matrix(0.632, -0.775, 0.775, 0.632, 5.905, 77.944)" fill="#d8d8d8"/>
            <circle id="Ellipse_278" data-name="Ellipse 278" cx="49.469" cy="49.469" r="49.469" transform="translate(5.824 78.039) rotate(-50.884)" fill="#d7d7d7"/>
            <circle id="Ellipse_279" data-name="Ellipse 279" cx="49.469" cy="49.469" r="49.469" transform="translate(5.743 78.139) rotate(-50.941)" fill="#d6d6d6"/>
            <circle id="Ellipse_280" data-name="Ellipse 280" cx="49.469" cy="49.469" r="49.469" transform="translate(5.664 78.246) rotate(-51.005)" fill="#d5d5d5"/>
            <circle id="Ellipse_281" data-name="Ellipse 281" cx="49.469" cy="49.469" r="49.469" transform="matrix(0.628, -0.778, 0.778, 0.628, 5.585, 78.362)" fill="#d4d4d4"/>
            <circle id="Ellipse_282" data-name="Ellipse 282" cx="49.469" cy="49.469" r="49.469" transform="translate(5.507 78.486) rotate(-51.153)" fill="#d3d3d3"/>
            <circle id="Ellipse_283" data-name="Ellipse 283" cx="49.469" cy="49.469" r="49.469" transform="matrix(0.626, -0.78, 0.78, 0.626, 5.431, 78.62)" fill="#d2d2d2"/>
            <circle id="Ellipse_284" data-name="Ellipse 284" cx="49.469" cy="49.469" r="49.469" transform="matrix(0.625, -0.781, 0.781, 0.625, 5.357, 78.767)" fill="#d1d1d1"/>
            <circle id="Ellipse_285" data-name="Ellipse 285" cx="49.469" cy="49.469" r="49.469" transform="translate(5.283 78.927) rotate(-51.444)" fill="#d0d0d0"/>
            <circle id="Ellipse_286" data-name="Ellipse 286" cx="49.469" cy="49.469" r="49.469" transform="matrix(0.622, -0.783, 0.783, 0.622, 5.213, 79.106)" fill="#cfcfcf"/>
            <circle id="Ellipse_287" data-name="Ellipse 287" cx="49.469" cy="49.469" r="49.469" transform="matrix(0.62, -0.785, 0.785, 0.62, 5.145, 79.305)" fill="#cecece"/>
            <circle id="Ellipse_288" data-name="Ellipse 288" cx="49.469" cy="49.469" r="49.469" transform="matrix(0.617, -0.787, 0.787, 0.617, 5.08, 79.53)" fill="#cdcdcd"/>
            <circle id="Ellipse_289" data-name="Ellipse 289" cx="49.469" cy="49.469" r="49.469" transform="matrix(0.615, -0.789, 0.789, 0.615, 5.02, 79.787)" fill="#ccc"/>
            <circle id="Ellipse_290" data-name="Ellipse 290" cx="49.469" cy="49.469" r="49.469" transform="matrix(0.612, -0.791, 0.791, 0.612, 4.966, 80.084)" fill="#cbcbcb"/>
            <circle id="Ellipse_291" data-name="Ellipse 291" cx="49.469" cy="49.469" r="49.469" transform="translate(4.92 80.435) rotate(-52.542)" fill="#cacaca"/>
            <circle id="Ellipse_292" data-name="Ellipse 292" cx="49.469" cy="49.469" r="49.469" transform="translate(4.885 80.853) rotate(-52.844)" fill="#c9c9c9"/>
            <circle id="Ellipse_293" data-name="Ellipse 293" cx="49.469" cy="49.469" r="49.469" transform="translate(4.866 81.367) rotate(-53.256)" fill="#c8c8c8"/>
            <circle id="Ellipse_294" data-name="Ellipse 294" cx="49.469" cy="49.469" r="49.469" transform="translate(4.871 82.013) rotate(-53.775)" fill="#c7c7c7"/>
            <circle id="Ellipse_295" data-name="Ellipse 295" cx="49.469" cy="49.469" r="49.469" transform="translate(4.913 82.856) rotate(-54.482)" fill="#c6c6c6"/>
            <circle id="Ellipse_296" data-name="Ellipse 296" cx="49.469" cy="49.469" r="49.469" transform="translate(5.021 84.003) rotate(-55.388)" fill="#c5c5c5"/>
            <circle id="Ellipse_297" data-name="Ellipse 297" cx="49.469" cy="49.469" r="49.469" transform="translate(24.28 21.96)" fill="#c4c4c4"/>
            <circle id="Ellipse_298" data-name="Ellipse 298" cx="49.469" cy="49.469" r="49.469" transform="translate(24.192 21.99)" fill="#c3c3c3"/>
            <circle id="Ellipse_299" data-name="Ellipse 299" cx="49.469" cy="49.469" r="49.469" transform="translate(24.104 22.019)" fill="#c2c2c2"/>
            <circle id="Ellipse_300" data-name="Ellipse 300" cx="49.469" cy="49.469" r="49.469" transform="translate(24.017 22.049)" fill="#c1c1c1"/>
            <circle id="Ellipse_301" data-name="Ellipse 301" cx="49.469" cy="49.469" r="49.469" transform="translate(23.929 22.078)" fill="silver"/>
            <circle id="Ellipse_302" data-name="Ellipse 302" cx="49.469" cy="49.469" r="49.469" transform="translate(23.841 22.108)" fill="silver"/>
            <circle id="Ellipse_303" data-name="Ellipse 303" cx="49.469" cy="49.469" r="49.469" transform="translate(23.753 22.137)" fill="#bfbfbf"/>
            <circle id="Ellipse_304" data-name="Ellipse 304" cx="49.469" cy="49.469" r="49.469" transform="translate(23.666 22.167)" fill="#bebebe"/>
            <circle id="Ellipse_305" data-name="Ellipse 305" cx="49.469" cy="49.469" r="49.469" transform="translate(23.578 22.196)" fill="#bdbdbd"/>
            <circle id="Ellipse_306" data-name="Ellipse 306" cx="49.469" cy="49.469" r="49.469" transform="translate(2.999 71.695) rotate(-45)" fill="#bcbcbc"/>
            <circle id="Ellipse_307" data-name="Ellipse 307" cx="49.469" cy="49.469" r="49.469" transform="translate(2.912 71.724) rotate(-45)" fill="#bbb"/>
            <circle id="Ellipse_308" data-name="Ellipse 308" cx="49.469" cy="49.469" r="49.469" transform="translate(2.824 71.754) rotate(-45)" fill="#bababa"/>
            <circle id="Ellipse_309" data-name="Ellipse 309" cx="49.469" cy="49.469" r="49.469" transform="translate(2.736 71.783) rotate(-45)" fill="#b9b9b9"/>
            <circle id="Ellipse_310" data-name="Ellipse 310" cx="49.469" cy="49.469" r="49.469" transform="translate(2.665 73.321) rotate(-46.215)" fill="#b8b8b8"/>
            <circle id="Ellipse_311" data-name="Ellipse 311" cx="49.469" cy="49.469" r="49.469" transform="translate(2.587 73.76) rotate(-46.571)" fill="#b7b7b7"/>
            <circle id="Ellipse_312" data-name="Ellipse 312" cx="49.469" cy="49.469" r="49.469" transform="matrix(0.684, -0.73, 0.73, 0.684, 2.51, 74.125)" fill="#b6b6b6"/>
            <circle id="Ellipse_313" data-name="Ellipse 313" cx="49.469" cy="49.469" r="49.469" transform="translate(2.431 74.435) rotate(-47.067)" fill="#b5b5b5"/>
            <circle id="Ellipse_314" data-name="Ellipse 314" cx="49.469" cy="49.469" r="49.469" transform="translate(2.353 74.701) rotate(-47.269)" fill="#b4b4b4"/>
            <circle id="Ellipse_315" data-name="Ellipse 315" cx="49.469" cy="49.469" r="49.469" transform="translate(2.273 74.933) rotate(-47.435)" fill="#b3b3b3"/>
            <circle id="Ellipse_316" data-name="Ellipse 316" cx="49.469" cy="49.469" r="49.469" transform="matrix(0.675, -0.738, 0.738, 0.675, 2.193, 75.138)" fill="#b2b2b2"/>
            <circle id="Ellipse_317" data-name="Ellipse 317" cx="49.469" cy="49.469" r="49.469" transform="matrix(0.673, -0.74, 0.74, 0.673, 2.113, 75.321)" fill="#b1b1b1"/>
            <circle id="Ellipse_318" data-name="Ellipse 318" cx="49.469" cy="49.469" r="49.469" transform="translate(2.031 75.486) rotate(-47.816)" fill="#b0b0b0"/>
            <circle id="Ellipse_319" data-name="Ellipse 319" cx="49.469" cy="49.469" r="49.469" transform="matrix(0.67, -0.742, 0.742, 0.67, 1.95, 75.636)" fill="#afafaf"/>
            <circle id="Ellipse_320" data-name="Ellipse 320" cx="49.469" cy="49.469" r="49.469" transform="matrix(0.669, -0.743, 0.743, 0.669, 1.868, 75.773)" fill="#aeaeae"/>
            <circle id="Ellipse_321" data-name="Ellipse 321" cx="49.469" cy="49.469" r="49.469" transform="translate(1.785 75.899) rotate(-48.082)" fill="#adadad"/>
            <circle id="Ellipse_322" data-name="Ellipse 322" cx="49.469" cy="49.469" r="49.469" transform="translate(1.702 76.017) rotate(-48.154)" fill="#acacac"/>
            <circle id="Ellipse_323" data-name="Ellipse 323" cx="49.469" cy="49.469" r="49.469" transform="translate(1.619 76.126) rotate(-48.219)" fill="#ababab"/>
            <circle id="Ellipse_324" data-name="Ellipse 324" cx="49.469" cy="49.469" r="49.469" transform="matrix(0.665, -0.746, 0.746, 0.665, 1.535, 76.228)" fill="#aaa"/>
            <circle id="Ellipse_325" data-name="Ellipse 325" cx="49.469" cy="49.469" r="49.469" transform="matrix(0.665, -0.747, 0.747, 0.665, 1.451, 76.324)" fill="#a9a9a9"/>
            <circle id="Ellipse_326" data-name="Ellipse 326" cx="49.469" cy="49.469" r="49.469" transform="translate(1.367 76.415) rotate(-48.384)" fill="#a8a8a8"/>
            <circle id="Ellipse_327" data-name="Ellipse 327" cx="49.469" cy="49.469" r="49.469" transform="translate(1.283 76.501) rotate(-48.405)" fill="#a7a7a7"/>
            <circle id="Ellipse_328" data-name="Ellipse 328" cx="49.469" cy="49.469" r="49.469" transform="translate(1.198 76.583) rotate(-48.485)" fill="#a6a6a6"/>
            <circle id="Ellipse_329" data-name="Ellipse 329" cx="49.469" cy="49.469" r="49.469" transform="translate(1.114 76.661) rotate(-48.513)" fill="#a5a5a5"/>
            <circle id="Ellipse_330" data-name="Ellipse 330" cx="49.469" cy="49.469" r="49.469" transform="translate(1.029 76.735) rotate(-48.55)" fill="#a4a4a4"/>
            <circle id="Ellipse_331" data-name="Ellipse 331" cx="49.469" cy="49.469" r="49.469" transform="matrix(0.662, -0.75, 0.75, 0.662, 0.944, 76.807)" fill="#a3a3a3"/>
            <circle id="Ellipse_332" data-name="Ellipse 332" cx="49.469" cy="49.469" r="49.469" transform="translate(0.858 76.876) rotate(-48.617)" fill="#a2a2a2"/>
            <circle id="Ellipse_333" data-name="Ellipse 333" cx="49.469" cy="49.469" r="49.469" transform="translate(0.773 76.942) rotate(-48.647)" fill="#a1a1a1"/>
            <circle id="Ellipse_334" data-name="Ellipse 334" cx="49.469" cy="49.469" r="49.469" transform="matrix(0.66, -0.751, 0.751, 0.66, 0.688, 77.007)" fill="#a0a0a0"/>
            <circle id="Ellipse_335" data-name="Ellipse 335" cx="49.469" cy="49.469" r="49.469" transform="matrix(0.66, -0.751, 0.751, 0.66, 0.602, 77.069)" fill="#9f9f9f"/>
            <circle id="Ellipse_336" data-name="Ellipse 336" cx="49.469" cy="49.469" r="49.469" transform="translate(0.516 77.129) rotate(-48.728)" fill="#9e9e9e"/>
            <circle id="Ellipse_337" data-name="Ellipse 337" cx="49.469" cy="49.469" r="49.469" transform="translate(0.43 77.188) rotate(-48.771)" fill="#9d9d9d"/>
            <circle id="Ellipse_338" data-name="Ellipse 338" cx="49.469" cy="49.469" r="49.469" transform="translate(0.345 77.245) rotate(-48.771)" fill="#9c9c9c"/>
            <circle id="Ellipse_339" data-name="Ellipse 339" cx="49.469" cy="49.469" r="49.469" transform="translate(0.259 77.301) rotate(-48.771)" fill="#9b9b9b"/>
            <circle id="Ellipse_340" data-name="Ellipse 340" cx="49.469" cy="49.469" r="49.469" transform="translate(0.172 77.355) rotate(-48.816)" fill="#9a9a9a"/>
            <circle id="Ellipse_341" data-name="Ellipse 341" cx="49.469" cy="49.469" r="49.469" transform="translate(0.086 77.408) rotate(-48.836)" fill="#999"/>
            <circle id="Ellipse_342" data-name="Ellipse 342" cx="49.469" cy="49.469" r="49.469" transform="translate(0 77.459) rotate(-48.854)" fill="#989898"/>
            <path id="Path_37851" data-name="Path 37851" d="M175.178,1825.081a49.468,49.468,0,1,1-32.2-62.106,49.468,49.468,0,0,1,32.2,62.106Z" transform="translate(-58.31 -1737.342)" fill="#979797"/>
            <path id="Path_37852" data-name="Path 37852" d="M175.159,1825.091a49.469,49.469,0,1,1-32.2-62.111,49.469,49.469,0,0,1,32.2,62.111Z" transform="translate(-58.379 -1737.319)" fill="#969696"/>
            <path id="Path_37853" data-name="Path 37853" d="M175.14,1825.094a49.468,49.468,0,1,1-32.2-62.107,49.468,49.468,0,0,1,32.2,62.107Z" transform="translate(-58.447 -1737.295)" fill="#959595"/>
            <path id="Path_37854" data-name="Path 37854" d="M175.123,1825.1a49.47,49.47,0,1,1-32.2-62.107,49.47,49.47,0,0,1,32.2,62.107Z" transform="translate(-58.518 -1737.273)" fill="#949494"/>
            <path id="Path_37855" data-name="Path 37855" d="M175.1,1825.108A49.47,49.47,0,1,1,142.9,1763a49.47,49.47,0,0,1,32.2,62.108Z" transform="translate(-58.586 -1737.25)" fill="#939393"/>
            <path id="Path_37856" data-name="Path 37856" d="M175.085,1825.112a49.47,49.47,0,1,1-32.2-62.106,49.47,49.47,0,0,1,32.2,62.106Z" transform="translate(-58.654 -1737.226)" fill="#929292"/>
            <path id="Path_37857" data-name="Path 37857" d="M175.067,1825.122a49.47,49.47,0,1,1-32.2-62.112,49.47,49.47,0,0,1,32.2,62.112Z" transform="translate(-58.723 -1737.203)" fill="#919191"/>
            <path id="Path_37858" data-name="Path 37858" d="M175.049,1825.125a49.47,49.47,0,1,1-32.2-62.107,49.47,49.47,0,0,1,32.2,62.107Z" transform="translate(-58.793 -1737.179)" fill="#909090"/>
            <path id="Path_37859" data-name="Path 37859" d="M175.03,1825.136a49.471,49.471,0,1,1-32.2-62.111,49.471,49.471,0,0,1,32.2,62.111Z" transform="translate(-58.861 -1737.158)" fill="#8f8f8f"/>
            <path id="Path_37860" data-name="Path 37860" d="M175.011,1825.138a49.47,49.47,0,1,1-32.2-62.107,49.47,49.47,0,0,1,32.2,62.107Z" transform="translate(-58.93 -1737.132)" fill="#8e8e8e"/>
            <path id="Path_37861" data-name="Path 37861" d="M174.987,1825.143a49.468,49.468,0,1,1-32.2-62.106,49.468,49.468,0,0,1,32.2,62.106Z" transform="translate(-58.998 -1737.11)" fill="#8d8d8d"/>
            <path id="Path_37862" data-name="Path 37862" d="M174.968,1825.153a49.468,49.468,0,1,1-32.2-62.111,49.468,49.468,0,0,1,32.2,62.111Z" transform="translate(-59.066 -1737.087)" fill="#8c8c8c"/>
            <path id="Path_37863" data-name="Path 37863" d="M174.949,1825.157a49.468,49.468,0,1,1-32.2-62.107,49.468,49.468,0,0,1,32.2,62.107Z" transform="translate(-59.135 -1737.064)" fill="#8b8b8b"/>
            <path id="Path_37864" data-name="Path 37864" d="M174.93,1825.168a49.469,49.469,0,1,1-32.2-62.111A49.469,49.469,0,0,1,174.93,1825.168Z" transform="translate(-59.203 -1737.042)" fill="#8a8a8a"/>
            <path id="Path_37865" data-name="Path 37865" d="M174.911,1825.169a49.468,49.468,0,1,1-32.2-62.107,49.468,49.468,0,0,1,32.2,62.107Z" transform="translate(-59.271 -1737.016)" fill="#898989"/>
            <path id="Path_37866" data-name="Path 37866" d="M174.892,1825.176a49.468,49.468,0,1,1-32.2-62.107,49.468,49.468,0,0,1,32.2,62.107Z" transform="translate(-59.34 -1736.995)" fill="#888"/>
            <path id="Path_37867" data-name="Path 37867" d="M174.873,1825.185a49.468,49.468,0,1,1-32.2-62.111,49.468,49.468,0,0,1,32.2,62.111Z" transform="translate(-59.408 -1736.972)" fill="#878787"/>
            <path id="Path_37868" data-name="Path 37868" d="M174.856,1825.19a49.47,49.47,0,1,1-32.2-62.107,49.47,49.47,0,0,1,32.2,62.107Z" transform="translate(-59.478 -1736.949)" fill="#868686"/>
            <path id="Path_37869" data-name="Path 37869" d="M174.837,1825.2a49.47,49.47,0,1,1-32.2-62.111,49.47,49.47,0,0,1,32.2,62.111Z" transform="translate(-59.547 -1736.926)" fill="#858585"/>
            <path id="Path_37870" data-name="Path 37870" d="M174.819,1825.2a49.47,49.47,0,1,1-32.2-62.107,49.47,49.47,0,0,1,32.2,62.107Z" transform="translate(-59.616 -1736.902)" fill="#848484"/>
            <path id="Path_37871" data-name="Path 37871" d="M174.8,1825.213a49.471,49.471,0,1,1-32.2-62.112,49.471,49.471,0,0,1,32.2,62.112Z" transform="translate(-59.684 -1736.88)" fill="#838383"/>
            <path id="Path_37872" data-name="Path 37872" d="M174.782,1825.216a49.47,49.47,0,1,1-32.205-62.107,49.47,49.47,0,0,1,32.205,62.107Z" transform="translate(-59.754 -1736.856)" fill="#828282"/>
            <path id="Path_37873" data-name="Path 37873" d="M174.763,1825.222a49.47,49.47,0,1,1-32.2-62.107,49.47,49.47,0,0,1,32.2,62.107Z" transform="translate(-59.822 -1736.834)" fill="#818181"/>
            <path id="Path_37874" data-name="Path 37874" d="M174.744,1825.231a49.47,49.47,0,1,1-32.2-62.112,49.47,49.47,0,0,1,32.2,62.112Z" transform="translate(-59.89 -1736.811)" fill="gray"/>
          </g>
          <path id="Path_37875" data-name="Path 37875" d="M174.734,1825.326a49.47,49.47,0,1,1-32.2-62.106,49.47,49.47,0,0,1,32.2,62.106Z" transform="translate(-59.926 -1736.46)" fill="#a9c9ea"/>
        </g>
        <g id="Group_6137" data-name="Group 6137" transform="translate(22.494 28.917)">
          <g id="Group_6136" data-name="Group 6136" style="mix-blend-mode: multiply;isolation: isolate">
            <path id="Path_37876" data-name="Path 37876" d="M155.97,1838.817a45.083,45.083,0,1,1,.014-63.762,45.083,45.083,0,0,1-.014,63.762Zm-59.03-59.058a38.416,38.416,0,1,0,54.33.014,38.416,38.416,0,0,0-54.33-.014Z" transform="translate(-79.035 -1761.866)" fill="url(#linear-gradient)"/>
          </g>
        </g>
      </g>
    </g>
    <g id="Group_6146" data-name="Group 6146" transform="translate(188.808 7889.76)">
      <path id="Path_37987" data-name="Path 37987" d="M109.49,1771.581c.11,0,.175.1.175.253v.483c0,.17-.064.253-.175.253h-5.38c-.124,0-.189-.083-.189-.253v-.483c0-.157.064-.253.189-.253Zm-.8,6.37c.156,0,.248.064.248.17v4.65c0,.124-.092.188-.248.188h-.612c-.17,0-.253-.064-.253-.188v-.8h-2.313v.8c0,.124-.092.188-.248.188h-.612c-.175,0-.253-.064-.253-.188v-4.586c0-.151.078-.234.253-.234Zm.124-4.291c.11,0,.17.1.17.253v.487c0,.175-.06.248-.17.248h-4.038c-.124,0-.189-.074-.189-.248v-.487c0-.157.064-.253.189-.253Zm0,2.213c.11,0,.17.078.17.234v.5c0,.152-.06.234-.17.234h-4.038c-.124,0-.189-.082-.189-.234v-.5c0-.156.064-.234.189-.234Zm0-6.48c.11,0,.17.078.17.234v.5c0,.156-.06.234-.17.234h-3.973c-.124,0-.189-.079-.189-.234v-.5c0-.156.064-.234.189-.234ZM107.83,1781v-2.083h-2.313V1781Zm9.722-9.1a.166.166,0,0,1,.189.189v.6c0,.161-.064.239-.189.239H114.5v2.143h2.631a.168.168,0,0,1,.189.189v.612c0,.156-.064.234-.189.234H114.5v2.391h3.366c.124,0,.189.065.189.17v.612c0,.175-.064.253-.189.253H114.5v3.426c0,.125-.092.189-.248.189h-.612c-.156,0-.235-.064-.235-.189v-3.426h-3.3c-.124,0-.189-.078-.189-.253v-.612c0-.106.064-.17.189-.17h3.3V1776.1H110.65c-.124,0-.189-.078-.189-.234v-.612a.168.168,0,0,1,.189-.189h2.75v-2.143h-3.067c-.124,0-.17-.078-.17-.239v-.6c0-.129.046-.189.17-.189Zm-4.774-1.711a9.077,9.077,0,0,1,.566,1.164,5,5,0,0,1-1.049.294,4.448,4.448,0,0,0-.409-.925,7.031,7.031,0,0,0-.878-1.27c0-.073.285-.261.86-.56a12.039,12.039,0,0,1,.91,1.3Zm4.116-.906c.156.064.235.142.235.221s-.046.106-.143.137a.2.2,0,0,0-.216.161,8.757,8.757,0,0,1-.989,1.656c-.092.092-.156.124-.189.124a.461.461,0,0,1-.248-.092c-.221-.1-.409-.17-.593-.267-.1-.032-.129-.05-.129-.064a.142.142,0,0,1,.051-.092,6.874,6.874,0,0,0,.685-.957,4.2,4.2,0,0,0,.488-1.057c.028-.1.06-.161.124-.161Z" transform="translate(-103.687 -1768.533)" fill="#3d93ab"/>
      <path id="Path_37988" data-name="Path 37988" d="M109.722,1778.3a.294.294,0,0,1-.17.253.433.433,0,0,0-.193.294,22.93,22.93,0,0,1-.326,2.383c-.092.344-.189.671-.294,1.048-.051.079-.078.125-.11.125a5.308,5.308,0,0,0-.906-.216c-.1-.032-.129-.083-.129-.143a12.016,12.016,0,0,0,.487-1.531,14.577,14.577,0,0,0,.326-2.4c0-.111.046-.175.156-.175C109.331,1778.1,109.722,1778.231,109.722,1778.3Zm2.378-8.793c.046.11.078.175.078.175,0,.1-.092.137-.267.137a.531.531,0,0,0-.469.17c-.579.911-1.113,1.725-1.61,2.447.359.345.717.685,1.076,1.044a.168.168,0,0,1,.051-.059c.579-.782,1.062-1.5,1.453-2.144a6.276,6.276,0,0,1,1.113.989c0,.055-.064.087-.189.087-.248,0-.391.051-.437.115q-1.338,1.9-2.631,3.467c.69-.06,1.5-.138,2.456-.23-.156-.377-.313-.75-.483-1.127,0-.065.248-.22.782-.487a17.06,17.06,0,0,1,.671,1.614c.156.451.313.938.442,1.439a4.063,4.063,0,0,1-.924.313,7.8,7.8,0,0,0-.253-1.081l-1.582.345v6.227c0,.124-.092.188-.248.188h-.612c-.156,0-.23-.064-.23-.188v-5.993l-1.725.373a2.236,2.236,0,0,1-.423.428,5.885,5.885,0,0,1-.313-1.472,3.631,3.631,0,0,1,1.095-.2c.6-.754,1.113-1.393,1.518-1.959-.593-.487-1.049-.828-1.329-1.049a10.282,10.282,0,0,0-1.407-.768,3.258,3.258,0,0,1,.658-.809.151.151,0,0,1,.138-.1c.189.129.377.267.552.391a15.727,15.727,0,0,0,.888-1.315c.441-.717.754-1.265.957-1.642Zm1.251,10.127c.129.5.253,1.049.345,1.614a3.892,3.892,0,0,1-.97.295c-.046-.359-.124-.809-.235-1.362a16.092,16.092,0,0,0-.5-1.881c0-.059.267-.216.8-.483.215.662.4,1.274.56,1.821Zm8.108-10c.156,0,.253.065.253.175v13.079c0,.124-.1.189-.253.189h-.612c-.156,0-.234-.065-.234-.189v-.97H115.59v.97c0,.124-.078.189-.235.189h-.612c-.17,0-.248-.065-.248-.189V1769.87c0-.151.078-.235.248-.235Zm-3.914,5.555v-4.584H115.59v4.584Zm0,5.744v-4.755H115.59v4.755Zm1.113-5.744h1.955v-4.584h-1.955Zm1.955,5.744v-4.755h-1.955v4.755Z" transform="translate(-90.472 -1768.716)" fill="#3d93ab"/>
      <path id="Path_37989" data-name="Path 37989" d="M118.049,1771.23c.124,0,.189.092.189.248v.488c0,.17-.064.248-.189.248h-6.48c-.129,0-.189-.078-.189-.248v-.488c0-.156.06-.248.189-.248Zm-.736,6.429c.156,0,.248.064.248.17v4.709c0,.129-.092.193-.248.193H116.7q-.235,0-.235-.193v-.607h-3.256v.607q0,.193-.235.193h-.612c-.17,0-.248-.065-.248-.193v-4.645c0-.151.078-.234.248-.234Zm-.124-8.687c.124,0,.184.082.184.239v.5c0,.156-.06.23-.184.23h-4.7c-.129,0-.189-.074-.189-.23v-.5c0-.157.06-.239.189-.239Zm0,4.4c.124,0,.184.1.184.253v.487c0,.175-.06.248-.184.248h-4.7c-.129,0-.189-.074-.189-.248v-.487c0-.157.06-.253.189-.253Zm0,2.148c.124,0,.184.078.184.234v.5c0,.156-.06.234-.184.234h-4.7c-.129,0-.189-.078-.189-.234v-.5c0-.156.06-.234.189-.234Zm-.722,5.432v-2.318h-3.256v2.318Zm8-11.976c.156,0,.248.064.248.188v6.968c0,.125-.092.189-.248.189h-.612c-.156,0-.235-.064-.235-.189v-.865h-3.863v5.326c0,.5.294.735.92.735H123.5a.8.8,0,0,0,.874-.7,7.718,7.718,0,0,0,.345-1.632,2.332,2.332,0,0,0,.86.487.238.238,0,0,1,.175.248,6.13,6.13,0,0,1-.515,1.862,1.3,1.3,0,0,1-1.38.768h-3.789c-.938,0-1.407-.345-1.407-1.03V1774.4c0-.151.078-.234.253-.234h4.709v-4.227h-4.774c-.124,0-.189-.074-.189-.23v-.5c0-.157.064-.239.189-.239Z" transform="translate(-76.839 -1768.24)" fill="#3d93ab"/>
      <path id="Path_37990" data-name="Path 37990" d="M129,1769.038a.165.165,0,0,1,.189.184v.612c0,.175-.064.248-.189.248h-6.415v3.081a30.206,30.206,0,0,1,2.709,1.568c.874.626,1.61,1.2,2.235,1.706a.386.386,0,0,1-.092.139,9.37,9.37,0,0,1-.579.782,26.591,26.591,0,0,0-3.021-2.222c-.469-.281-.874-.529-1.251-.717v8.011c0,.125-.11.189-.313.189h-.612c-.2,0-.294-.064-.294-.189v-12.347H115.31c-.129,0-.189-.074-.189-.248v-.612c0-.125.06-.184.189-.184Z" transform="translate(-63.391 -1768.003)" fill="#3d93ab"/>
      <path id="Path_37991" data-name="Path 37991" d="M123.37,1769.544c0,.1-.046.147-.11.147a.349.349,0,0,0-.313.156c-.092.184-.175.341-.253.5h9.423c.11,0,.17.078.17.234v.483c0,.175-.06.253-.17.253h-9.97a6.265,6.265,0,0,1-.842,1.14,16.012,16.012,0,0,1-1.536,1.55.362.362,0,0,1-.294-.139c-.156-.11-.3-.234-.455-.358a.2.2,0,0,1-.11-.17c.377-.35.75-.709,1.145-1.1a7.855,7.855,0,0,0,1.278-1.693,9.849,9.849,0,0,0,.754-1.609c0-.078.032-.124.06-.124a4.056,4.056,0,0,1,1.223.73Zm7.34,3.182c.124,0,.189.092.189.245q-.028,2.165-.1,3.665h1.927c.106,0,.17.1.17.253v.488c0,.151-.064.229-.17.229h-1.973c-.032.562-.078,1.049-.11,1.439-.06.469-.11.874-.156,1.251h1.628c.11,0,.17.1.17.253v.483c0,.175-.06.253-.17.253H130.3a10.512,10.512,0,0,1-.294,1.049c-.253.75-.938,1.14-2.051,1.14-.722,0-1.081-.124-1.1-.363a3.314,3.314,0,0,0-.441-.966v-.129a4.923,4.923,0,0,0,1.536.3,1.14,1.14,0,0,0,1.173-.833c.032-.064.046-.124.078-.2h-7.685c-.092.281-.189.529-.267.75a.246.246,0,0,1-.262.221c-.377-.032-.676-.064-.892-.083-.156-.027-.221-.06-.221-.092.281-.625.515-1.218.722-1.784a23.72,23.72,0,0,0,.7-2.69h-2.1c-.124,0-.175-.078-.175-.229v-.488c0-.156.051-.253.175-.253h2.286c0-.027.014-.079.014-.11a17.9,17.9,0,0,0,.156-3.555c0-.153.092-.245.3-.245Zm-1.094,6.182c.028-.35.074-.782.124-1.3h-7.23c-.032.17-.064.331-.1.469-.189.818-.391,1.55-.579,2.221h7.606c.063-.4.114-.862.178-1.391Zm.184-2.272c.032-.828.064-1.812.1-2.939h-7.013a24.907,24.907,0,0,1-.216,2.939Zm-3.3-1.748c.437.262.828.5,1.154.718a.41.41,0,0,1-.078.124c-.313.437-.469.657-.483.657a16.438,16.438,0,0,0-1.564-.924,9.62,9.62,0,0,0-1.131-.488,3.393,3.393,0,0,1,.487-.667c.046-.064.092-.115.143-.115a15.332,15.332,0,0,1,1.472.694Zm0,3.877c.437.248.828.488,1.154.69a.4.4,0,0,1-.078.125c-.313.437-.469.657-.483.657a16.106,16.106,0,0,0-1.564-.878,7.642,7.642,0,0,0-1.131-.464,3.288,3.288,0,0,1,.487-.676c.046-.065.092-.111.143-.111a15.074,15.074,0,0,1,1.472.656Z" transform="translate(-49.748 -1768.813)" fill="#3d93ab"/>
      <path id="Path_37992" data-name="Path 37992" d="M136.475,1770.234c.124,0,.184.11.184.3v.626c0,.2-.06.3-.184.3h-13.7c-.124,0-.189-.1-.189-.3v-.626c0-.189.064-.3.189-.3Z" transform="translate(-36.497 -1763.695)" fill="#3d93ab"/>
      <path id="Path_37993" data-name="Path 37993" d="M129.469,1775.945c.189,0,.3.065.3.189v4.083a5.532,5.532,0,0,0,.046.671,2.645,2.645,0,0,0,.782.952,3.593,3.593,0,0,0,1.863.4h4.226c.359,0,.984-.046,1.89-.142a18.417,18.417,0,0,0,1.881-.262.669.669,0,0,1,.2-.019c.064,0,.11.027.11.124-.189.345-.345.671-.469.957-.032.22-.124.327-.313.327h-7.528a4.073,4.073,0,0,1-2.6-.768,3.551,3.551,0,0,1-.814-1.173c-.5.474-.938.878-1.315,1.27a.613.613,0,0,0-.372.483c0,.156-.032.253-.1.253-.046,0-.11-.046-.2-.137l-.768-1.146a8.472,8.472,0,0,0,2.069-1.3.474.474,0,0,0,.248-.483v-3.3H126.71c-.124,0-.189-.078-.189-.234v-.5c0-.156.064-.234.189-.234Zm-.906-2.769c.437.248.828.483,1.14.685a.391.391,0,0,1-.078.124,5.871,5.871,0,0,1-.469.676c-.5-.317-1.016-.611-1.564-.892a8.647,8.647,0,0,0-1.127-.455,2.906,2.906,0,0,1,.483-.69c.046-.06.1-.106.124-.106a16.241,16.241,0,0,1,1.491.658Zm.4-3.334c.409.285.754.516,1.048.718a.44.44,0,0,1-.078.128c-.313.451-.469.671-.469.671a13.17,13.17,0,0,0-1.439-.924,8.769,8.769,0,0,0-1.016-.488,3.5,3.5,0,0,1,.483-.685.213.213,0,0,1,.143-.106,14.7,14.7,0,0,1,1.333.686Zm4.709.267a6.32,6.32,0,0,1,.533.809h2.065a5.132,5.132,0,0,0,.722-.855,4.04,4.04,0,0,0,.579-1.067c.028-.092.078-.142.138-.142l.938.377c.143.063.221.137.221.234,0,.065-.06.11-.156.143-.156,0-.235.046-.267.138a8.333,8.333,0,0,1-.736,1.172H139.6c.124,0,.189.1.189.253v.488c0,.17-.064.248-.189.248h-3.771a12.487,12.487,0,0,1-.86,1.407h3.771c.156,0,.248.065.248.189v7.874c0,.124-.092.188-.248.188h-.612c-.156,0-.235-.064-.235-.188v-.488H133v.488c0,.124-.078.188-.235.188h-.612c-.17,0-.248-.064-.248-.188V1773.5c0-.124.078-.189.248-.189h1.614a6.3,6.3,0,0,0,.579-.75,5.893,5.893,0,0,0,.391-.658h-3.817c-.129,0-.175-.078-.175-.248v-.488c0-.156.046-.253.175-.253h2.092l-.2-.294a7.206,7.206,0,0,0-1.1-1.159c0-.078.281-.267.86-.547a14.037,14.037,0,0,1,1.1,1.194Zm4.226,5.4v-1.283H133v1.283Zm0,2.208v-1.284H133v1.284Zm0,2.267v-1.348H133v1.348Z" transform="translate(-23.181 -1768.669)" fill="#3d93ab"/>
      <path id="Path_37994" data-name="Path 37994" d="M142.8,1769.119c.11,0,.17.064.17.189v.611c0,.157-.06.23-.17.23h-5.137v10.159h6.167c.129,0,.188.06.188.175v.608c0,.161-.06.248-.188.248H130.268c-.124,0-.189-.087-.189-.248v-.608c0-.115.064-.175.189-.175H136.5v-10.159h-5.261c-.124,0-.175-.073-.175-.23v-.611c0-.125.051-.189.175-.189Z" transform="translate(-9.549 -1767.712)" fill="#3d93ab"/>
      <path id="Path_37995" data-name="Path 37995" d="M142.288,1769.066c0,.138-.051.212-.143.23-.11.014-.156.129-.156.317v.562h5.555c.124,0,.189.078.189.234v.483c0,.175-.064.253-.189.253H136.185v3.849a25.915,25.915,0,0,1-.253,3.973,11.6,11.6,0,0,1-.639,2.442,6.632,6.632,0,0,1-.708,1.407.3.3,0,0,1-.156-.033,2.971,2.971,0,0,0-.561-.391.243.243,0,0,1-.078-.189,7.026,7.026,0,0,0,.736-1.688,14.048,14.048,0,0,0,.469-2.364,30.366,30.366,0,0,0,.138-3.159v-4.585c0-.156.064-.234.189-.234h5.569v-1.109c0-.128.083-.188.239-.188C141.892,1768.878,142.288,1768.938,142.288,1769.066Zm2.879,3.362a.446.446,0,0,1,.281.063c.221.184.326.327.326.424l-3.049,2.736c.313.184.593.345.842.5,0,.027-.028.06-.078.125-.17.234-.294.391-.359.483h3.5a.4.4,0,0,1,.363.193,3.907,3.907,0,0,1,.547.791q-1.876,1.959-2.35,2.52c-.06.082-.106.115-.156.115a.343.343,0,0,1-.262-.115,4.7,4.7,0,0,1-.579-.516.155.155,0,0,1-.129-.17l2.037-1.835h-3.757v4.166c0,.768-.639,1.159-1.9,1.159H139.11c-.078,0-.11-.111-.11-.3a3.067,3.067,0,0,0-.248-.814v-.046a15.611,15.611,0,0,0,1.642.11c.561,0,.86-.189.86-.547v-3.729h-4.337c-.124,0-.184-.074-.184-.244v-.488c0-.156.06-.253.184-.253h5.9a19.513,19.513,0,0,0-1.784-1,13.929,13.929,0,0,0-1.439-.579,2.485,2.485,0,0,1,.437-.644.147.147,0,0,1,.129-.092q.959.373,1.642.7l1.987-1.738h-5.647c-.129,0-.189-.078-.189-.248v-.488c0-.151.06-.248.189-.248Z" transform="translate(3.803 -1768.579)" fill="#3d93ab"/>
      <path id="Path_37996" data-name="Path 37996" d="M140.384,1773.01a3.131,3.131,0,0,1-1,1.094l-.4-.45a2.441,2.441,0,0,0,1.049-1.785h-1.159v-1.876h1.876v1.72a2.656,2.656,0,0,1-.366,1.3Z" transform="translate(22.074 -1764.563)" fill="#3d93ab"/>
      <path id="Path_37997" data-name="Path 37997" d="M154.558,1771.881c.129,0,.189.1.189.253v.483c0,.151-.06.234-.189.234h-3.909v8.623h4.4c.124,0,.184.092.184.248v.483c0,.157-.06.253-.184.253h-13.57c-.129,0-.189-.1-.189-.253v-.483c0-.156.06-.248.189-.248h4.456v-8.623h-3.849c-.124,0-.189-.082-.189-.234v-.483c0-.157.064-.253.189-.253Zm-10.14,5.472a21.9,21.9,0,0,1,.722,2.415,3.947,3.947,0,0,1-1.094.358,16.325,16.325,0,0,0-.534-2.1,22.951,22.951,0,0,0-1.173-2.847c0-.078.294-.267.906-.547.469.987.855,1.9,1.172,2.721Zm1.439-7.086a6.825,6.825,0,0,1,.754,1.237,3.08,3.08,0,0,1-1.035.313,4.447,4.447,0,0,0-.561-1,8.826,8.826,0,0,0-1.223-1.38c0-.078.281-.267.86-.561A15.127,15.127,0,0,1,145.857,1770.267Zm3.693,11.207v-8.623h-2.515v8.623Zm2.943-12.2c.156.06.234.138.234.229,0,.065-.06.115-.17.148-.156,0-.253.055-.285.17a8.226,8.226,0,0,1-1.173,1.857.379.379,0,0,1-.221.143.5.5,0,0,1-.281-.11c-.216-.11-.437-.2-.625-.3-.092-.027-.124-.06-.124-.074a.164.164,0,0,1,.064-.115,6.635,6.635,0,0,0,.874-1.03,4.363,4.363,0,0,0,.625-1.14c.032-.11.078-.17.143-.17Zm1.9,5.744c.156.06.235.138.235.229a.329.329,0,0,1-.207.318c-.17,0-.281.12-.308.34a23.175,23.175,0,0,1-1.38,3.868c-.11.2-.189.294-.248.294a.512.512,0,0,1-.281-.106c-.221-.1-.442-.208-.63-.3-.092-.032-.124-.046-.124-.078a.4.4,0,0,1,.078-.221,17.441,17.441,0,0,0,1.016-2.065,11.448,11.448,0,0,0,.736-2.313c.046-.221.11-.345.189-.345Z" transform="translate(30.797 -1768.579)" fill="#3d93ab"/>
      <path id="Path_37998" data-name="Path 37998" d="M109.55,1774.2c0,.138-.06.211-.156.23s-.156.128-.156.317v13.328c0,.129-.078.189-.235.189h-.612c-.17,0-.248-.06-.248-.189v-5.8H106.39a.426.426,0,0,0-.014.12,25.851,25.851,0,0,1-.207,2.63,9.171,9.171,0,0,1-.533,1.89,3.69,3.69,0,0,1-.86,1.288c-.124,0-.189-.032-.221-.078a2.973,2.973,0,0,0-.547-.391c-.092-.1-.138-.157-.138-.207a.149.149,0,0,1,.078-.157,3.627,3.627,0,0,0,.7-1.081,4.891,4.891,0,0,0,.437-1.329,13.679,13.679,0,0,0,.267-2.686h-1.127c-.124,0-.189-.083-.189-.253v-.487c0-.157.064-.248.189-.248h3.914v-1.9H105.7v.8c0,.129-.092.189-.248.189h-.612c-.175,0-.253-.06-.253-.189v-5.38c0-.11.078-.175.253-.175.768,0,1.159.065,1.159.175,0,.142-.046.216-.143.234s-.156.129-.156.313v3.067h2.442v-4.22c0-.129.078-.189.248-.189C109.159,1774.014,109.55,1774.074,109.55,1774.2Zm5.417.17c.092.074.138.138.138.2,0,.125-.106.175-.3.175a.509.509,0,0,0-.373.12c-.11.143-.221.272-.313.377h3.256a.345.345,0,0,1,.262.1,1.763,1.763,0,0,1,.345.515,10.347,10.347,0,0,1-.906,1.719,6.873,6.873,0,0,1-1.062,1.265,7.252,7.252,0,0,1-1.366.971,10.741,10.741,0,0,1-2.019.883,11.948,11.948,0,0,1-1.922.483.316.316,0,0,1-.313-.156,6.551,6.551,0,0,1-.391-.547c-.064-.064-.092-.11-.092-.156s.028-.064.106-.1a10.742,10.742,0,0,0,1.439-.3,5.718,5.718,0,0,0,.832-.234,3.155,3.155,0,0,1-.189-.3,6.785,6.785,0,0,0-.846-.906c0-.06.267-.23.8-.5a9.447,9.447,0,0,1,.865.938c.106.138.2.286.294.405.156-.079.317-.153.455-.235a7.019,7.019,0,0,0,.625-.359c-.092-.124-.189-.266-.313-.409a6.684,6.684,0,0,0-1-.952c0-.065.248-.22.777-.483.409.359.754.685,1.021.97.092.106.17.216.262.313.032-.032.078-.064.129-.11a5.2,5.2,0,0,0,.952-1.2,4.991,4.991,0,0,0,.363-.643H113.13a4.715,4.715,0,0,1-.437.344,10.88,10.88,0,0,1-.97.657,7.471,7.471,0,0,1-.763.41.257.257,0,0,1-.239-.142,2.651,2.651,0,0,0-.469-.552c-.11-.059-.156-.124-.156-.17l.046-.046a6.816,6.816,0,0,0,1.113-.5,6.944,6.944,0,0,0,1.223-.874,3.969,3.969,0,0,0,.671-.658,4.217,4.217,0,0,0,.529-.754.192.192,0,0,1,.143-.092Zm.515,7.418v-.377a3.366,3.366,0,0,0-.064-.685.758.758,0,0,1-.06-.285c0-.078.092-.125.294-.125l1.237.156c.11.065.17.106.17.138,0,.115-.06.157-.17.157-.221.078-.313.317-.313.708v.313h1.472c.124,0,.189.079.189.234v.483c0,.17-.064.253-.189.253h-1.472v4.4c0,.731-.547,1.108-1.642,1.108h-1.113c-.092,0-.124-.092-.124-.262a2.419,2.419,0,0,0-.3-.723c0-.092.032-.124.129-.124a7.806,7.806,0,0,0,1.278.124c.442,0,.676-.188.676-.547v-3.973h-5.321c-.129,0-.189-.083-.189-.253v-.483c0-.156.06-.234.189-.234Zm-3.711,1.844a13.352,13.352,0,0,1,1.849,1.674.33.33,0,0,1,.078.208.261.261,0,0,1-.046.156l-.331.483a.706.706,0,0,1-.281.1c-.06,0-.11-.05-.17-.156a15.173,15.173,0,0,0-1.706-1.49.211.211,0,0,1-.143-.189.525.525,0,0,1,.046-.2l.377-.6a.5.5,0,0,1,.189-.059.333.333,0,0,1,.138.075Z" transform="translate(-103.87 -1750.721)" fill="#3d93ab"/>
      <path id="Path_37999" data-name="Path 37999" d="M111.67,1774.088c0,.143-.046.222-.138.239-.11.014-.161.125-.161.308v1.9h2.083a.165.165,0,0,1,.175.189v.612c0,.17-.064.248-.175.248h-3v.05c-.018.778-.032,1.468-.046,2.079h2.125c.129,0,.189.092.189.248-.028,2.162-.078,3.725-.156,4.663a14.348,14.348,0,0,1-.373,2.52,1.15,1.15,0,0,1-1.255.892c-.5,0-.763-.106-.782-.294a3.3,3.3,0,0,0-.313-.814v-.11c.391.027.754.046,1.1.046.253,0,.409-.207.487-.607.06-.331.124-.97.189-1.927.046-.722.078-1.909.11-3.569h-1.366c-.032.594-.078,1.108-.124,1.55a18.1,18.1,0,0,1-.607,3.067,10.459,10.459,0,0,1-1.067,2.346,1.117,1.117,0,0,1-.313-.032c-.221-.12-.423-.267-.625-.391-.11-.014-.156-.065-.156-.125a.233.233,0,0,1,.064-.17,7.117,7.117,0,0,0,1.154-2.488,20.185,20.185,0,0,0,.552-3.163c.06-.875.106-2.13.106-3.771h-1.393c-.124,0-.189-.078-.189-.248v-.612a.168.168,0,0,1,.189-.189h2.318v-2.442c0-.119.078-.183.248-.183C111.279,1773.905,111.67,1773.969,111.67,1774.088Zm5.04.208c.138.065.216.138.216.22a.292.292,0,0,1-.216.3.361.361,0,0,0-.377.327c-.092.266-.184.5-.267.721H121.7a.165.165,0,0,1,.184.189v.612c0,.17-.064.248-.184.248h-6.043a13.013,13.013,0,0,1-.938,1.909c-.124.189-.235.281-.3.281a.521.521,0,0,1-.267-.092c-.216-.092-.4-.175-.593-.267-.078-.032-.11-.046-.11-.065a.4.4,0,0,1,.078-.2,12.626,12.626,0,0,0,1.191-2,10.662,10.662,0,0,0,.846-2.24c.06-.22.124-.326.2-.326Zm4.866,4.819.189.2a.741.741,0,0,1,.06.326c-.092,1.518-.2,2.631-.294,3.339a2.08,2.08,0,0,1-.5,1.246,1,1,0,0,1-.671.189h-.552c-.308,0-.451-.065-.451-.221-.064-.216-.138-.45-.221-.685,0-.078.018-.129.064-.129a3.6,3.6,0,0,0,.8.065h.3c.124,0,.235-.235.3-.7a22.041,22.041,0,0,0,.184-2.423l-2.125.561v4.023c0,.125-.1.189-.253.189h-.612c-.17,0-.248-.064-.248-.189v-3.724l-1.453.391v4.446c0,.451.281.667.842.667h3.008c.5,0,.814-.073.92-.2a2.941,2.941,0,0,0,.474-1.2,1.759,1.759,0,0,0,.639.56c.143.06.221.143.221.235a4.089,4.089,0,0,1-.593,1.361,1.088,1.088,0,0,1-.878.281H116.8c-1.219,0-1.83-.373-1.83-1.094v-4.76l-.906.234a.168.168,0,0,1-.175-.138l-.2-.593a.127.127,0,0,1,.064-.124l1.219-.363v-1.844c0-.11.032-.175.129-.175l1.03.124c.124.032.189.065.189.111,0,.11-.051.175-.11.188-.092.018-.124.078-.124.189v1.094l1.453-.423v-1.954c0-.124.078-.184.248-.184.768,0,1.159.06,1.159.184,0,.143-.06.216-.156.216-.092.032-.138.147-.138.331v1.094l2.736-.8a.2.2,0,0,1,.188.079Z" transform="translate(-90.943 -1750.488)" fill="#3d93ab"/>
      <path id="Path_38000" data-name="Path 38000" d="M123.88,1774.119a.165.165,0,0,1,.175.189v.612c0,.156-.064.23-.175.23h-5.132v10.159h6.167c.124,0,.184.059.184.175v.607c0,.161-.06.248-.184.248H111.348c-.129,0-.189-.088-.189-.248v-.607c0-.115.06-.175.189-.175h6.227V1775.15h-5.256c-.129,0-.175-.074-.175-.23v-.612c0-.124.046-.189.175-.189Z" transform="translate(-77.635 -1749.718)" fill="#3d93ab"/>
      <path id="Path_38001" data-name="Path 38001" d="M116.817,1778.88c.437.281.814.534,1.127.755,0,.018-.032.059-.1.124a8.475,8.475,0,0,1-.529.717,15.885,15.885,0,0,0-1.49-1,6.707,6.707,0,0,0-1.076-.515,2.744,2.744,0,0,1,.483-.685c.046-.065.092-.11.124-.11A15.8,15.8,0,0,1,116.817,1778.88Zm1.458,2.709c.248.561.386.878.386.911a.346.346,0,0,1-.078.229q-.793,1.787-1.5,3.049c-.267.474-.579.989-.938,1.55a1.175,1.175,0,0,0-.11.547c0,.128-.051.193-.11.193-.1,0-.423-.331-1-.984a.238.238,0,0,1-.11-.175.269.269,0,0,1,.078-.222,8.239,8.239,0,0,0,.957-1.121,22.586,22.586,0,0,0,1.283-2.116c.359-.676.671-1.3.938-1.862.032-.079.078-.125.11-.125S118.256,1781.511,118.275,1781.589Zm-.708-6.774a13.115,13.115,0,0,1,1.1.782.5.5,0,0,1-.078.138c-.34.483-.515.722-.529.722a15.212,15.212,0,0,0-1.458-1.048,8.229,8.229,0,0,0-1.049-.552,3.381,3.381,0,0,1,.487-.685c.046-.064.092-.106.124-.106.566.275,1.035.529,1.407.749Zm4.1,6.884c0,.106-.046.17-.143.17a.423.423,0,0,0-.175.391v1.035c0,.4-.028.878-.074,1.375a5.34,5.34,0,0,1-.377,1.458,4.407,4.407,0,0,1-.69,1.141,5.766,5.766,0,0,1-.984.924c-.064,0-.124-.046-.175-.137a2.927,2.927,0,0,0-.5-.442c-.1-.065-.129-.11-.129-.156a5.67,5.67,0,0,0,.938-.878,3.062,3.062,0,0,0,.487-.809,5.724,5.724,0,0,0,.313-1.2,8.166,8.166,0,0,0,.1-1.27v-1.642c0-.124.014-.189.06-.189a7.71,7.71,0,0,1,1.351.23Zm3.113-7.634c0,.138-.064.211-.156.23-.11.014-.156.128-.156.317v1.109h4.162c.124,0,.184.078.184.234v.5c0,.156-.06.234-.184.234H122.9c.63.221.957.359.957.442,0,.106-.078.151-.2.151-.156,0-.221.051-.221.143-.281.455-.625.97-1.062,1.55-.143.184-.28.358-.423.515,1.5-.124,2.989-.3,4.475-.483-.281-.424-.533-.818-.782-1.159,0-.1.216-.267.671-.488a.222.222,0,0,1,.175.065,30.51,30.51,0,0,1,2.327,3.426c0,.156-.041.235-.106.235a1.754,1.754,0,0,1-.878.377c-.294-.547-.575-1.062-.86-1.55-1.954.267-4.116.5-6.493.718a.328.328,0,0,0-.281.161.247.247,0,0,1-.253.184c-.11,0-.34-.419-.717-1.284.533-.032,1.049-.059,1.577-.106a16.767,16.767,0,0,0,1.191-1.927,8.864,8.864,0,0,0,.4-.97h-2.939c-.129,0-.189-.078-.189-.234v-.5c0-.156.06-.234.189-.234h3.909v-1.656c0-.129.083-.189.253-.189.771,0,1.162.061,1.162.19Zm-.547,7.634c0,.157-.064.235-.156.235-.11.027-.156.142-.156.327v5.555c0,.124-.083.188-.235.188h-.612c-.175,0-.253-.064-.253-.188V1781.7c0-.11.078-.17.253-.17.765,0,1.161.059,1.161.17Zm2.5,0a.624.624,0,0,1-.124.313v4.46c0,.171.032.249.124.249h.989q.3,0,.607-1.407l.97.612c-.345,1.218-.782,1.826-1.283,1.826H126.31c-.529,0-.8-.248-.8-.731v-5.367c0-.124.032-.189.124-.189.725.065,1.1.135,1.1.235Z" transform="translate(-64.708 -1750.584)" fill="#3d93ab"/>
      <path id="Path_38002" data-name="Path 38002" d="M122.3,1775.656v2.3h2.125c.129,0,.189.092.189.249v.487c0,.17-.06.244-.189.244h-1.876a10.372,10.372,0,0,0,.612,1.348,6.968,6.968,0,0,0,1.283,1.693.161.161,0,0,1,.11.142c0,.032-.046.074-.11.12a2.576,2.576,0,0,1-.455.474c-.06.092-.124.137-.17.137a.3.3,0,0,1-.189-.106,7.557,7.557,0,0,1-1.095-1.614,2.394,2.394,0,0,1-.235-.488v7.275c0,.128-.1.193-.253.193h-.607a.171.171,0,0,1-.193-.193V1781.1c-.06.157-.106.286-.152.41-.285.644-.566,1.237-.865,1.785a12.116,12.116,0,0,1-1.062,1.517.284.284,0,0,1-.248-.11c-.189-.189-.377-.364-.547-.534a.421.421,0,0,1-.051-.156,10.027,10.027,0,0,0,.8-1,12.837,12.837,0,0,0,.957-1.785c.184-.45.469-1.218.842-2.286h-2.175c-.124,0-.184-.073-.184-.244v-.487c0-.157.06-.249.184-.249h2.5v-2.069a9.907,9.907,0,0,1-1.954.17.234.234,0,0,1-.262-.2,6.666,6.666,0,0,0-.349-.6c0-.157.064-.235.189-.235a12.388,12.388,0,0,0,2.585-.189,4.6,4.6,0,0,0,2.157-.906.451.451,0,0,1,.207-.065c.06,0,.124.051.216.11a8.2,8.2,0,0,1,.644.8c0,.125-.051.189-.124.189l-.428-.064a6.409,6.409,0,0,1-1.827.754Zm9.248,5.035a14.3,14.3,0,0,1-1.725.373c-.221.032-.437.065-.625.1v2.175h2.943c.11,0,.17.092.17.248v.488c0,.17-.06.248-.17.248H129.2v2.129h3.55c.11,0,.175.1.175.253v.483c0,.157-.064.249-.175.249h-8.324c-.124,0-.17-.092-.17-.249v-.483c0-.156.046-.253.17-.253H128.1v-2.129h-3.067c-.124,0-.17-.078-.17-.248v-.488c0-.156.046-.248.17-.248H128.1V1781.3a2.642,2.642,0,0,1-.487.051c-.809.065-1.545.092-2.2.092-.175,0-.267-.06-.3-.207-.138-.17-.28-.373-.437-.593,0-.125.06-.184.189-.184l.842.059a19.231,19.231,0,0,0,2.207-.106,11.191,11.191,0,0,0,1.66-.234,6.364,6.364,0,0,0,1.628-.533.89.89,0,0,1,.138-.032.533.533,0,0,1,.253.065c.561.5.846.8.846.906a.168.168,0,0,1-.189.189l-.423-.129a1.027,1.027,0,0,0-.281.048Zm.152-6.341c.161,0,.253.064.253.188v4.024c0,.129-.092.184-.253.184h-5.93c-.156,0-.235-.055-.235-.184v-4.024c0-.124.078-.188.235-.188Zm-.842.864H126.63v2.676h4.226Z" transform="translate(-51.867 -1750.625)" fill="#3d93ab"/>
      <path id="Path_38003" data-name="Path 38003" d="M129.89,1786.109a5.8,5.8,0,0,1-3.279.865c-2.433,0-3.918-1.081-4.438-3.243l1.251-.5a3,3,0,0,0,3.187,2.492,4.166,4.166,0,0,0,2.511-.68,2,2,0,0,0,.883-1.678c0-.732-.483-1.348-1.426-1.868a19.723,19.723,0,0,0-2.373-.91,8.716,8.716,0,0,1-2.548-1.173,2.5,2.5,0,0,1-1.14-2.143,2.835,2.835,0,0,1,1.255-2.529,5.069,5.069,0,0,1,2.916-.754,4.823,4.823,0,0,1,3.123.905,4.564,4.564,0,0,1,1.2,1.872l-1.237.506a3.429,3.429,0,0,0-.832-1.371,3.389,3.389,0,0,0-2.253-.662c-1.89,0-2.837.681-2.837,2.032,0,.557.423,1.058,1.274,1.486a15.941,15.941,0,0,0,2,.75,11.994,11.994,0,0,1,2.819,1.278,3.208,3.208,0,0,1-.06,5.326Z" transform="translate(-38.001 -1750.193)" fill="#3d93ab"/>
      <path id="Path_38004" data-name="Path 38004" d="M134.2,1785.043a5.215,5.215,0,0,1-8.1,0,8.166,8.166,0,0,1,0-9.166,5.288,5.288,0,0,1,8.1,0A8.144,8.144,0,0,1,134.2,1785.043Zm-1.058-8.375a3.663,3.663,0,0,0-2.994-1.43,3.6,3.6,0,0,0-2.989,1.43,6.9,6.9,0,0,0,0,7.6,3.56,3.56,0,0,0,2.989,1.453,3.622,3.622,0,0,0,2.994-1.453,6.927,6.927,0,0,0,0-7.6Z" transform="translate(-28.939 -1750.193)" fill="#3d93ab"/>
      <path id="Path_38005" data-name="Path 38005" d="M135.476,1780.068a5.058,5.058,0,0,1-3.146.925h-3.219v5.693h-1.352v-12.66h4.571a5.132,5.132,0,0,1,3.187.924,3.122,3.122,0,0,1,1.177,2.571,3.03,3.03,0,0,1-1.218,2.547Zm-3.146-4.769h-3.219v4.4h3.219a3.648,3.648,0,0,0,2.318-.64,1.9,1.9,0,0,0,.717-1.541c0-1.469-1.025-2.218-3.035-2.218Z" transform="translate(-17.898 -1750.056)" fill="#3d93ab"/>
      <path id="Path_38006" data-name="Path 38006" d="M136,1774.635c0,.1-.046.129-.124.129-.189.027-.3.074-.359.17-.382.906-.754,1.693-1.113,2.35v10.793c0,.129-.11.189-.3.189h-.6c-.175,0-.253-.06-.253-.189v-9.027c-.423.561-1.081,1.3-1.954,2.239a.4.4,0,0,1-.313-.143c-.156-.124-.331-.267-.487-.391a.242.242,0,0,1-.11-.2q.75-.75,1.5-1.647a13.608,13.608,0,0,0,2.7-4.944c.032-.078.064-.125.129-.125a5.08,5.08,0,0,1,1.288.8Zm7.979,3.849a12.484,12.484,0,0,1-1.688,1.113,15.38,15.38,0,0,1-3.04,1.361.314.314,0,0,1-.138.046v5.119c0,.5.281.736.86.736h1.536c.874,0,1.389-.092,1.577-.313a4.682,4.682,0,0,0,.8-1.959,1.953,1.953,0,0,0,.685.63c.143.065.221.139.221.235a5.293,5.293,0,0,1-.984,2.079,1.875,1.875,0,0,1-1.458.423h-2.5c-1.269,0-1.9-.391-1.9-1.155v-12.6c0-.129.018-.189.064-.189l1.14.138c.124.032.2.065.2.11,0,.11-.046.17-.11.184a.167.167,0,0,0-.138.188v5.165a8.246,8.246,0,0,0,2.318-.957,13.34,13.34,0,0,0,2.079-1.55.345.345,0,0,1,.124-.023,8.053,8.053,0,0,1,.924,1.03c0,.092-.092.124-.248.124h-.129a.576.576,0,0,0-.2.065Z" transform="translate(-8.462 -1750.721)" fill="#3d93ab"/>
      <path id="Path_38007" data-name="Path 38007" d="M143.663,1779.653a9,9,0,0,1-1.062,3.518,11.21,11.21,0,0,0,1.876,1.155l-.515.864a10.564,10.564,0,0,1-1.973-1.141,4.787,4.787,0,0,1-3.679,1.706,4.035,4.035,0,0,1-2.658-.818,2.881,2.881,0,0,1-1.067-2.4,2.99,2.99,0,0,1,.708-1.881,8.1,8.1,0,0,1,1.706-1.439,5.079,5.079,0,0,1-1.127-2.677,2.187,2.187,0,0,1,.782-1.812,2.871,2.871,0,0,1,1.908-.593,2.277,2.277,0,0,1,1.674.653,2.343,2.343,0,0,1,.671,1.706,2.421,2.421,0,0,1-.69,1.646,9.33,9.33,0,0,1-1.72,1.329,23.322,23.322,0,0,0,3.242,3.068,8.473,8.473,0,0,0,.828-2.879h-1.426V1778.6h3.5v1.053Zm-6.038.372a8.174,8.174,0,0,0-1.38,1.127,2.133,2.133,0,0,0-.561,1.38,1.983,1.983,0,0,0,.639,1.582,2.807,2.807,0,0,0,1.987.621,3.773,3.773,0,0,0,2.819-1.329,21.546,21.546,0,0,1-3.5-3.381Zm.846-4.884c-1,0-1.5.474-1.5,1.393a3.91,3.91,0,0,0,.906,2.116,9.442,9.442,0,0,0,1.38-1.021,1.654,1.654,0,0,0,.579-1.141,1.2,1.2,0,0,0-1.365-1.347Z" transform="translate(6.667 -1749.678)" fill="#3d93ab"/>
      <path id="Path_38008" data-name="Path 38008" d="M140.707,1781.491c.161,0,.239.064.239.189v3.472a1.694,1.694,0,0,0,.156.8.74.74,0,0,0,.359.423,1.868,1.868,0,0,0,.736.28,7.469,7.469,0,0,0,1.251.1h3.5a30.631,30.631,0,0,0,4.82-.441.619.619,0,0,1,.239-.046c.078,0,.124.027.124.059a9.345,9.345,0,0,0-.285,1.27c-.028.161-.11.248-.262.248h-8.14a7.765,7.765,0,0,1-1-.073c-.327-.065-.639-.143-.952-.235a2.95,2.95,0,0,1-.768-.441,2.878,2.878,0,0,1-.533-.768l-.028-.059c-.078,0-.124.014-.124.027a6.61,6.61,0,0,0-1.6,1.7c-.032.06-.06.106-.124.106s-.267-.267-.593-.781a.539.539,0,0,1-.078-.312,11.869,11.869,0,0,0,2.143-1.5.682.682,0,0,0,.06-.345v-2.691h-1.89c-.124,0-.189-.078-.189-.229v-.488c0-.156.064-.253.189-.253Zm-.92-3.316c.4.327.75.621,1.048.874a.392.392,0,0,1-.078.124,6.468,6.468,0,0,1-.487.657,13.85,13.85,0,0,0-1.421-1.108,6.8,6.8,0,0,0-1.016-.593,3.011,3.011,0,0,1,.483-.69c.046-.065.092-.11.124-.11.533.313.988.593,1.347.846Zm.533-3.431c.373.286.717.533,1,.755,0,.027-.032.059-.078.124-.313.455-.469.671-.469.671a16.521,16.521,0,0,0-1.361-.97,7.082,7.082,0,0,0-.97-.5,3.492,3.492,0,0,1,.487-.685c.046-.065.092-.11.124-.11.513.265.936.5,1.267.715Zm9.152.175a16.6,16.6,0,0,1-1.752.327c-.235.032-.455.065-.658.078v1.223h3.661c.129,0,.189.079.189.234v.483c0,.175-.06.253-.189.253h-3.192a5.04,5.04,0,0,0,.63.547,6.322,6.322,0,0,0,1.3.764,8.49,8.49,0,0,0,2.161.754c.092.032.152.046.152.078a.229.229,0,0,1-.092.189,5.632,5.632,0,0,0-.612.547c-.06.078-.106.11-.156.11a7.038,7.038,0,0,1-1.582-.566,6.653,6.653,0,0,1-1.628-.971,5.089,5.089,0,0,1-.639-.546v2.083h1.959a.492.492,0,0,1,.262.059c.189.157.285.285.285.377l-1.2,1.407h2.488c.078,0,.124.078.124.239a8.9,8.9,0,0,1-.235,2.047,2.455,2.455,0,0,1-.593,1.112,2.965,2.965,0,0,1-1.927.392c-.547,0-.828-.078-.828-.272a3.181,3.181,0,0,0-.331-.717v-.106c.409.032.8.046,1.159.046a1.987,1.987,0,0,0,1.173-.234,1.4,1.4,0,0,0,.487-.735,3.548,3.548,0,0,0,.216-.865h-2.5l-.345.41a.243.243,0,0,1-.189.082c-.58-.128-.86-.253-.86-.363l1.738-1.954H145.4a9.374,9.374,0,0,1-.189,1.766,4.53,4.53,0,0,1-.547,1.44,3.185,3.185,0,0,1-.768.782,4.425,4.425,0,0,1-1.049.6,10.381,10.381,0,0,1-.717-.8,2.84,2.84,0,0,0,.717-.391,2.993,2.993,0,0,0,.768-.7,3.749,3.749,0,0,0,.52-1.205,7.724,7.724,0,0,0,.17-1.485H143.22c-.124,0-.189-.083-.189-.253v-.488a.164.164,0,0,1,.189-.184h2.755v-2.226a1.789,1.789,0,0,1-.143.124,7.5,7.5,0,0,1-1.154.961,11.633,11.633,0,0,1-1.518.828,6.238,6.238,0,0,1-1.159.437c-.078,0-.143-.065-.189-.189-.156-.17-.313-.359-.5-.547a.335.335,0,0,1-.11-.17,14.251,14.251,0,0,0,1.895-.612,9.4,9.4,0,0,0,1.564-.878,9.189,9.189,0,0,0,.832-.717h-3.2c-.124,0-.17-.078-.17-.253v-.483c0-.156.046-.234.17-.234h3.679v-1.113a2.632,2.632,0,0,1-.469.051c-.814.059-1.564.073-2.221.073-.175,0-.267-.059-.3-.2-.143-.171-.281-.377-.437-.593a.163.163,0,0,1,.184-.175l.851.051c.842,0,1.6-.032,2.217-.092a9.211,9.211,0,0,0,1.692-.208,7.7,7.7,0,0,0,1.646-.455.923.923,0,0,1,.138-.032.534.534,0,0,1,.253.064c.561.5.842.8.842.906a.166.166,0,0,1-.184.189l-.428-.124a1.34,1.34,0,0,0-.284.023Z" transform="translate(17.676 -1750.674)" fill="#3d93ab"/>
      <path id="Path_38009" data-name="Path 38009" d="M146.38,1774.46c.161,0,.239.065.239.189v9.216c0,.125-.078.189-.239.189h-.607c-.175,0-.253-.064-.253-.189v-.487h-2.985v1.77c0,.125-.1.189-.253.189h-.612c-.17,0-.248-.065-.248-.189V1774.7c0-.157.078-.235.248-.235Zm-.86,3.909v-2.939h-2.985v2.939Zm0,4.038v-3.067h-2.985v3.067Zm8.31-8.384c.2,0,.313.1.313.248v11.658a1.264,1.264,0,0,1-.75,1.127,6.39,6.39,0,0,1-1.817.422.184.184,0,0,1-.2-.188,2.832,2.832,0,0,0-.345-.97c0-.065.046-.1.143-.1a3.986,3.986,0,0,0,1.577-.17.64.64,0,0,0,.285-.579v-2.833H148.92a7.765,7.765,0,0,1-.235,1.035,6.586,6.586,0,0,1-1.127,2.336,5.543,5.543,0,0,1-1.237,1.339.37.37,0,0,1-.17-.027,2.6,2.6,0,0,0-.566-.424.365.365,0,0,1-.064-.22,5.914,5.914,0,0,0,1.361-1.6,7.882,7.882,0,0,0,.878-2.221,14.646,14.646,0,0,0,.267-2.971v-5.62a.223.223,0,0,1,.248-.248Zm-.8,7.648v-2.943h-3.914v1.164c0,.657-.032,1.251-.078,1.779Zm0-3.909v-2.755h-3.914v2.755Z" transform="translate(31.276 -1750.059)" fill="#3d93ab"/>
      <path id="Path_38010" data-name="Path 38010" d="M109.49,1779.635a.113.113,0,0,1-.129.129c-.189.027-.3.073-.359.17a25.093,25.093,0,0,1-1.108,2.35v10.793c0,.128-.11.189-.3.189h-.612c-.17,0-.248-.06-.248-.189v-9.028c-.423.561-1.081,1.3-1.959,2.239a.407.407,0,0,1-.313-.143c-.156-.124-.326-.266-.483-.391a.241.241,0,0,1-.11-.2q.752-.752,1.5-1.647a13.6,13.6,0,0,0,2.7-4.944c.032-.078.064-.124.124-.124a5.089,5.089,0,0,1,1.3.8Zm7.979,3.849a12.236,12.236,0,0,1-1.692,1.113,15.348,15.348,0,0,1-3.035,1.36.326.326,0,0,1-.138.046v5.118c0,.5.281.736.86.736H115c.874,0,1.389-.092,1.577-.312a4.693,4.693,0,0,0,.8-1.959,1.917,1.917,0,0,0,.685.63c.143.064.221.138.221.234a5.358,5.358,0,0,1-.984,2.079,1.875,1.875,0,0,1-1.458.424h-2.5c-1.269,0-1.895-.392-1.895-1.155v-12.6c0-.129.014-.188.064-.188l1.141.137c.124.033.2.065.2.11,0,.111-.046.17-.11.184a.167.167,0,0,0-.138.188v5.165a8.213,8.213,0,0,0,2.313-.956,13.177,13.177,0,0,0,2.083-1.55.347.347,0,0,1,.124-.023,8.16,8.16,0,0,1,.924,1.03c0,.092-.092.124-.253.124h-.124a.563.563,0,0,0-.2.066Z" transform="translate(-103.87 -1732.728)" fill="#3d93ab"/>
      <path id="Path_38011" data-name="Path 38011" d="M110.152,1783.01a3.165,3.165,0,0,1-1,1.094l-.409-.45a2.44,2.44,0,0,0,1.049-1.785h-1.159v-1.876h1.881v1.72a2.664,2.664,0,0,1-.362,1.3Z" transform="translate(-86.725 -1728.574)" fill="#3d93ab"/>
      <path id="Path_38012" data-name="Path 38012" d="M115.481,1781.607c.124,0,.189.092.189.248v.488c0,.17-.064.248-.189.248H110.9c-.124,0-.189-.078-.189-.248v-.488c0-.156.064-.248.189-.248Zm-.547,6.365c.156,0,.235.063.235.175v4.46c0,.124-.078.184-.235.184h-.612a.162.162,0,0,1-.184-.184v-.547h-1.9v.8c0,.124-.092.188-.248.188h-.612c-.124,0-.17-.064-.17-.188v-4.65c0-.151.046-.234.17-.234Zm.064-4.227c.11,0,.17.1.17.253v.487c0,.175-.06.248-.17.248h-3.491c-.129,0-.189-.073-.189-.248V1784c0-.157.06-.253.189-.253Zm0,2.087c.11,0,.17.092.17.249v.487c0,.151-.06.23-.17.23h-3.491c-.129,0-.189-.079-.189-.23v-.487c0-.157.06-.249.189-.249Zm0-6.42c.11,0,.17.083.17.239v.5c0,.156-.06.234-.17.234h-3.307c-.124,0-.184-.078-.184-.234v-.5c0-.156.06-.239.184-.239Zm-.86,11.677v-2.148h-1.9v2.148Zm4.038-6.31v-.718c0-.078.06-.128.184-.128.722,0,1.1.065,1.1.189s-.046.193-.124.2c-.1.018-.124.115-.124.285v.17h2.079v-.718c0-.078.064-.128.189-.128.722,0,1.1.065,1.1.189s-.051.193-.129.2-.124.115-.124.285v.17H124.4c.078,0,.124.065.124.189v.488c0,.124-.046.184-.124.184h-2.083v.8H124.1c.078,0,.124.064.124.189v.487c0,.12-.046.184-.124.184h-1.784v.846h2.391c.078,0,.129.059.129.189v.483c0,.124-.051.189-.129.189h-3.766a8.861,8.861,0,0,0,1.159,1.315.45.45,0,0,0,.12.11,4.22,4.22,0,0,0,.579-.345,4.611,4.611,0,0,0,.878-.786.223.223,0,0,1,.11-.042,4.88,4.88,0,0,1,.86.842c0,.082-.06.11-.17.11-.189,0-.3.027-.313.078a7.863,7.863,0,0,1-1.127.833,5.285,5.285,0,0,0,.593.391,7.3,7.3,0,0,0,1.5.671c0,.06-.051.11-.143.142a3.749,3.749,0,0,0-.515.547c-.064.065-.11.106-.143.106a8.654,8.654,0,0,1-1.862-1.127,7.067,7.067,0,0,1-1.393-1.343,8.092,8.092,0,0,1-.97-1.348,13.686,13.686,0,0,1-1.329,1.068v1.559c.75-.212,1.472-.432,2.129-.685a.674.674,0,0,1,.078-.013.113.113,0,0,1,.11.124,2.445,2.445,0,0,1-.064.736q-1.9.586-3.849,1.094c-.124.234-.235.358-.3.358-.092,0-.248-.34-.483-1.035.391-.073.842-.17,1.343-.294v-1.237a13.471,13.471,0,0,1-1.531.676.178.178,0,0,1-.17-.156,5.393,5.393,0,0,1-.377-.547.331.331,0,0,1-.064-.2,12.333,12.333,0,0,0,1.959-.74,8.829,8.829,0,0,0,1.283-.86H115.9c-.078,0-.11-.065-.11-.189v-.483c0-.129.032-.189.11-.189h2.272v-.846h-1.725c-.078,0-.11-.065-.11-.184v-.487c0-.125.032-.189.11-.189h1.725v-.8h-2.083c-.1,0-.124-.06-.124-.184v-.488c0-.124.028-.189.124-.189Zm2.925-5.739c0,.138-.051.216-.143.235-.11.013-.156.124-.156.313v.124h3.789c.078,0,.12.06.12.184v.488c0,.124-.041.189-.12.189H115.9c-.078,0-.11-.065-.11-.189v-.488c0-.124.032-.184.11-.184h3.8v-.671c0-.11.078-.175.235-.175.765,0,1.165.065,1.165.175Zm-1.646,2.267c.161,0,.253.065.253.189v2.065c0,.129-.092.184-.253.184H116.7c-.17,0-.248-.055-.248-.184V1781.5c0-.124.078-.189.248-.189Zm-.736.8h-1.283v.846h1.283Zm2.566,3.531h-2.079v.8h2.079Zm0,2.507v-.846h-2.079v.846Zm2.382-6.839c.156,0,.248.065.248.189v2.065c0,.129-.092.184-.248.184h-2.805c-.17,0-.248-.055-.248-.184v-2.06c0-.124.078-.189.248-.189Zm-.722.8H121.6v.846h1.343Z" transform="translate(-79.265 -1732.63)" fill="#3d93ab"/>
      <path id="Path_38013" data-name="Path 38013" d="M122.215,1779.066c0,.138-.06.212-.156.23s-.156.129-.156.317v.667h5.634c.156,0,.235.065.235.189v2.819c0,.125-.078.175-.235.175h-.612c-.17,0-.248-.051-.248-.175v-2.019h-6.838l.874.424c.1.078.161.138.161.189,0,.124-.11.189-.3.189a.474.474,0,0,0-.377.138c-.106.156-.2.284-.281.409h4.93a.446.446,0,0,1,.281.092,1.634,1.634,0,0,1,.331.515,9.5,9.5,0,0,1-1.315,1.8,7.929,7.929,0,0,1-1.38,1.2,14.5,14.5,0,0,0,2.566.864,18.906,18.906,0,0,0,2.943.515c.189,0,.3.051.3.139a.548.548,0,0,1-.11.252c-.175.222-.327.424-.469.644a.2.2,0,0,1-.221.139,26.357,26.357,0,0,1-3.536-.828,14.52,14.52,0,0,1-2.3-.873,1.941,1.941,0,0,1-.326-.157c-.317.157-.644.308-.989.451a16.846,16.846,0,0,1-2.943.906,20.236,20.236,0,0,1-2.8.5.341.341,0,0,1-.313-.139c-.124-.2-.267-.409-.386-.611-.064-.065-.1-.11-.1-.157s.046-.078.17-.1a18.605,18.605,0,0,0,2.115-.308,16.459,16.459,0,0,0,3.256-.846c.294-.11.575-.239.86-.363a3.2,3.2,0,0,1-.469-.359,8.589,8.589,0,0,1-1.66-1.582,10.992,10.992,0,0,1-.911.735,9.058,9.058,0,0,1-.777.488.288.288,0,0,1-.253-.138,2.239,2.239,0,0,0-.455-.552c-.11-.06-.156-.124-.156-.157,0-.018.014-.032.046-.059a8.541,8.541,0,0,0,1.145-.612,9.015,9.015,0,0,0,1.233-1.048,6.479,6.479,0,0,0,.676-.819,5.8,5.8,0,0,0,.515-.887H115.8v2.019c0,.125-.092.175-.248.175h-.612c-.156,0-.235-.051-.235-.175v-2.755a.221.221,0,0,1,.235-.253h5.868v-1.214c0-.129.078-.188.253-.188C121.824,1778.878,122.215,1778.937,122.215,1779.066Zm3.178,9.648c.156,0,.253.065.253.189v4.1c0,.125-.1.189-.253.189h-.612c-.17,0-.248-.064-.248-.189v-.488h-6.351v.424c0,.128-.078.189-.239.189h-.607c-.175,0-.253-.06-.253-.189v-3.973a.226.226,0,0,1,.253-.253Zm-.86,2.823V1789.7h-6.351v1.834Zm-4.116-6.641a5.6,5.6,0,0,0,1.191.768,1.024,1.024,0,0,0,.216-.125,5.558,5.558,0,0,0,1.407-1.255,4.409,4.409,0,0,0,.566-.7H119.12l-.032.032a8.871,8.871,0,0,0,1.329,1.284Z" transform="translate(-67.126 -1732.591)" fill="#3d93ab"/>
      <path id="Path_38014" data-name="Path 38014" d="M129.8,1779.929a22.886,22.886,0,0,1-3.785.7,46.238,46.238,0,0,1-4.916.244v1.6h9.3c.152,0,.234.064.234.189v5.68c0,.124-.083.183-.234.183h-.612c-.175,0-.253-.059-.253-.183v-.86H121.09a9.766,9.766,0,0,1-.423,2.5,6.092,6.092,0,0,1-1.127,2.1,5.709,5.709,0,0,1-1.251,1.2.306.306,0,0,1-.156-.032,3.76,3.76,0,0,0-.566-.424.272.272,0,0,1-.074-.216,5.445,5.445,0,0,0,1.375-1.412,7.4,7.4,0,0,0,.86-1.982,10.681,10.681,0,0,0,.28-2.644v-6.42a.221.221,0,0,1,.235-.253h.129c2.157-.009,3.845-.092,5.068-.211a19.283,19.283,0,0,0,3.973-.74,1.278,1.278,0,0,1,.377-.079.451.451,0,0,1,.189.079c.515.436.782.708.782.828,0,.221-.064.317-.189.317l-.359-.193a3.465,3.465,0,0,0-.413.034Zm-8.7,6.576h8.434v-3.053H121.1Z" transform="translate(-54.84 -1732.63)" fill="#3d93ab"/>
      <path id="Path_38015" data-name="Path 38015" d="M132.044,1783.521c.156,0,.248.063.248.175v6.434c0,.12-.092.17-.248.17h-2.019a9.316,9.316,0,0,0,1.38.924,13.976,13.976,0,0,0,1.83.75c.092.064.156.106.156.156,0,.1-.235.359-.676.8a1.3,1.3,0,0,1-.2-.032,16.475,16.475,0,0,1-3.348-1.973c-.078-.06-.11-.106-.11-.125,0-.06.143-.234.423-.5h-4.258l.469.344c.083.092.129.152.129.2s-.064.064-.156.064a1.24,1.24,0,0,0-.363.106,11,11,0,0,1-1.246.938,15.569,15.569,0,0,1-2.037.97.256.256,0,0,1-.253-.124c-.216-.156-.391-.3-.547-.422-.074-.033-.106-.079-.106-.125,0-.027.014-.046.074-.078a5.693,5.693,0,0,0,.975-.327,10.931,10.931,0,0,0,1.421-.814c.281-.207.579-.455.892-.735h-2.019c-.17,0-.248-.051-.248-.17V1783.7c0-.111.078-.175.248-.175Zm1.049-4.521c.156,0,.235.059.235.175v3.3c0,.124-.078.189-.235.189H121.655c-.175,0-.253-.065-.253-.189v-3.3c0-.115.078-.175.253-.175Zm-8.324.906h-2.253v1.83h2.253Zm6.415,5.574v-1.053h-7.873v1.053Zm0,1.954v-1.049h-7.873v1.049Zm0,.906h-7.873v1.049h7.873Zm-2.631-8.434h-2.677v1.83h2.677Zm3.679,0h-2.566v1.83h2.566Z" transform="translate(-41.834 -1732.152)" fill="#3d93ab"/>
      <path id="Path_38016" data-name="Path 38016" d="M129.811,1782.942a.3.3,0,0,1-.235.308.593.593,0,0,0-.331.189,14.567,14.567,0,0,1-1.389,1.706v7.634c0,.129-.083.193-.239.193h-.625q-.235,0-.235-.193v-6.586c-.469.41-1.016.851-1.66,1.334a7.374,7.374,0,0,0-.717-.722c-.092-.1-.124-.157-.124-.2,0-.019.014-.046.06-.1a11.448,11.448,0,0,0,2.617-2.13,13.179,13.179,0,0,0,1.688-2.189.21.21,0,0,1,.156-.11,6.612,6.612,0,0,1,1.034.866Zm-1.067-3.366a.389.389,0,0,1,.207.313c0,.125-.064.189-.175.189a.516.516,0,0,0-.451.2,16.358,16.358,0,0,1-3.164,3.21.265.265,0,0,1-.248-.124,2.847,2.847,0,0,0-.487-.488.305.305,0,0,1-.11-.189.12.12,0,0,1,.064-.11,3.937,3.937,0,0,0,1-.75,8.784,8.784,0,0,0,1.283-1.27,11.069,11.069,0,0,0,.92-1.472c.064-.12.11-.184.143-.184Zm9.2,6.181c.11,0,.17.078.17.234v.5c0,.156-.06.234-.17.234h-1.283v1.284h1.771c.124,0,.184.092.184.248v.488c0,.175-.06.248-.184.248h-1.771v2.819c0,.768-.644,1.158-1.9,1.158H134.2c-.064,0-.1-.11-.1-.3a2.586,2.586,0,0,0-.262-.814v-.046a4.235,4.235,0,0,0,.86.11c.561,0,.842-.189.842-.547v-2.382h-6.1c-.129,0-.189-.074-.189-.248v-.488c0-.156.06-.248.189-.248h6.1v-1.284H130.06c-.124,0-.189-.078-.189-.234v-.5c0-.156.064-.234.189-.234Zm-5.79,4.566c.3.253.547.488.768.695a.449.449,0,0,1-.078.12c-.3.442-.455.676-.469.676a9.185,9.185,0,0,0-1.067-.892,4.481,4.481,0,0,0-.768-.45,2.89,2.89,0,0,1,.487-.7c.046-.06.092-.106.124-.106a9.427,9.427,0,0,1,1.006.652Zm5.054-11.046c.156,0,.235.065.235.175v4.957c0,.129-.078.188-.235.188H130.86c-.175,0-.253-.059-.253-.188v-4.893c0-.156.078-.239.253-.239Zm-.86,2.13v-1.159H131.7v1.159Zm0,2.2v-1.215H131.7v1.215Z" transform="translate(-30.505 -1732.493)" fill="#3d93ab"/>
      <path id="Path_38017" data-name="Path 38017" d="M132.7,1779.015c0,.156-.064.229-.156.229-.092.032-.143.143-.143.331v2.318h2.442c.129,0,.189.092.189.248v.487c0,.171-.06.244-.189.244h-3.725c-.032.768-.046,1.444-.064,2.005h3.178c.11,0,.175.092.175.253q-.048,3.193-.189,4.6a9.866,9.866,0,0,1-.5,2.469c-.189.579-.722.874-1.564.874-.658,0-1-.106-1.016-.3a2.2,2.2,0,0,0-.391-.8v-.124c.5.027.97.059,1.407.059a.755.755,0,0,0,.768-.607,9.244,9.244,0,0,0,.313-1.895c.078-.717.138-1.9.189-3.55H131c-.032.483-.078.892-.11,1.2a17.536,17.536,0,0,1-.593,3.086,7.058,7.058,0,0,1-.814,1.7,5.371,5.371,0,0,1-1.108,1.283c-.285-.3-.533-.561-.74-.8a3.824,3.824,0,0,0,.786-.92,7.379,7.379,0,0,0,.828-1.674,18.583,18.583,0,0,0,.566-2.911c.092-.879.17-2.208.2-3.964H128.24c-.124,0-.189-.073-.189-.244v-.487c0-.156.064-.248.189-.248h3.054V1779c0-.115.078-.175.248-.175C132.31,1778.84,132.7,1778.9,132.7,1779.015Zm5.4.28c.11.092.17.152.17.216a.161.161,0,0,1-.124.175c-.124,0-.189.078-.2.234-.189.833-.363,1.486-.5,1.973h4.364c.129,0,.189.092.189.248v.487c0,.171-.06.244-.189.244H140.7a22.147,22.147,0,0,1-.423,4.167,10.843,10.843,0,0,1-1.1,2.864,6.645,6.645,0,0,0,1.329,1.265,7.245,7.245,0,0,0,1.968.988c0,.1-.06.153-.152.216a4.965,4.965,0,0,0-.547.63.566.566,0,0,1-.221.138,10.978,10.978,0,0,1-1.973-1.191,4.631,4.631,0,0,1-1.113-1.109,6.914,6.914,0,0,1-1.076.957,9.637,9.637,0,0,1-2.253,1.279c-.28-.3-.533-.562-.736-.8a7.345,7.345,0,0,0,1.72-.911,7.613,7.613,0,0,0,1.66-1.486,4.925,4.925,0,0,1-.487-.892,8.68,8.68,0,0,1-.75-2.2,11.483,11.483,0,0,1-.235-2.207,6.362,6.362,0,0,1-.5.8.764.764,0,0,1-.331-.059c-.2-.078-.4-.157-.607-.221-.064-.032-.092-.065-.092-.1a.185.185,0,0,1,.046-.138,9.12,9.12,0,0,0,1.127-2.1,10.89,10.89,0,0,0,.515-1.532q.235-.848.469-2.207c.032-.078.06-.129.092-.129Zm-.75,4.926a10.968,10.968,0,0,0,.23,2.35,10.345,10.345,0,0,0,.644,1.863,2.229,2.229,0,0,0,.207.4,9.382,9.382,0,0,0,.731-2.02,20.555,20.555,0,0,0,.423-3.945h-2.5c-.156.441-.331.832-.487,1.21-.032.064-.064.11-.078.138Z" transform="translate(-18.37 -1732.728)" fill="#3d93ab"/>
      <path id="Path_38018" data-name="Path 38018" d="M134.045,1784.4c.156.078.248.161.248.248a.393.393,0,0,1-.2.377c-.175,0-.285.138-.317.391a29.661,29.661,0,0,1-1.375,4.447c-.11.244-.184.359-.248.359a.48.48,0,0,1-.3-.115c-.235-.106-.455-.2-.671-.294-.1-.032-.124-.065-.124-.078a.47.47,0,0,1,.078-.249,18.932,18.932,0,0,0,.984-2.409,16.217,16.217,0,0,0,.717-2.7c.051-.248.11-.391.175-.391Zm2.723-1.876c.138.032.216.06.216.12a.171.171,0,0,1-.11.179.18.18,0,0,0-.138.189v7.634c0,.5.281.735.86.735h2.925c.86,0,1.38-.142,1.55-.441a8.9,8.9,0,0,0,.782-2.736,1.965,1.965,0,0,0,.69.625c.143.065.221.139.221.235a8.621,8.621,0,0,1-.957,2.833,1.561,1.561,0,0,1-1.426.579h-3.909c-1.269,0-1.9-.4-1.9-1.158v-8.734c0-.124.014-.184.064-.184Zm-.11-3.518a25.636,25.636,0,0,1,3.628,2.047.3.3,0,0,1,.175.253.189.189,0,0,1-.051.138l-.34.441a.646.646,0,0,1-.285.092.521.521,0,0,1-.327-.189,26.672,26.672,0,0,0-3.4-1.83c-.216-.065-.308-.161-.308-.253a.432.432,0,0,1,.041-.17l.4-.562a.426.426,0,0,1,.184-.064.9.9,0,0,1,.282.091Zm7.165,6.411c.671.63,1.237,1.191,1.706,1.688a.463.463,0,0,1-.092.142c-.377.52-.566.768-.579.768a21.535,21.535,0,0,0-2.3-2.157,10.93,10.93,0,0,0-1.66-1.145,3.8,3.8,0,0,1,.561-.782c.064-.078.11-.128.156-.128a21.071,21.071,0,0,1,2.207,1.608Z" transform="translate(-6.033 -1732.493)" fill="#3d93ab"/>
    </g>
    <g id="Group_6147" data-name="Group 6147" transform="translate(189.084 7849.507)">
      <path id="Path_38019" data-name="Path 38019" d="M111.113,1761.49a48.1,48.1,0,0,1-2.7,7.036H111.3a36.909,36.909,0,0,1-1.977,10.555,1.66,1.66,0,0,0-.092.189c1.159,1.052,4.185,1.559,9.073,1.559.451,0,2.658-.056,6.659-.212l-.7,3.412c-4.185,0-6.277-.055-6.277-.1q-7.5,0-10.163-2.222a17.409,17.409,0,0,1-2.3,2.538l-1.591-3.012a7.855,7.855,0,0,0,2.046-2.042,24.911,24.911,0,0,1-1.8-5.606l2.322-.607a22.239,22.239,0,0,0,.865,3.223,31.473,31.473,0,0,0,.888-5.077h-3.891c1.09-2.253,2.069-4.415,2.934-6.535h-2.934v-3.1Zm4.617-.212v-1.218h2.75v1.218h4.981V1765h1.067v2.7h-1.067v3.706H118.48v1.035h5.344v2.589H118.48v1.03h5.684v2.7H118.48v1.633h-2.75v-1.633h-5.068v-2.7h5.068v-1.03h-4.162v-2.589h4.162v-1.035H112v-2.57h3.73V1767.7h-5.068V1765h5.068v-1.136h-3.638v-2.589Zm2.75,3.726h2.23v-1.136h-2.23Zm0,3.835h2.23V1767.7h-2.23Z" transform="translate(-103.93 -1760.06)" fill="#3d93ab"/>
      <path id="Path_38020" data-name="Path 38020" d="M114.633,1760.455c-.184.428-.34.8-.5,1.136h5.3v2.015a11.416,11.416,0,0,0,1.867-3.546l2.681.4c-.161.428-.317.8-.455,1.136h6.047v2.7h-3.205a13.7,13.7,0,0,1,.612,1.743l-2.837.317a10.916,10.916,0,0,0-.437-2.061H122.23a18.516,18.516,0,0,1-1.274,2.061l-2.318-1.854a1.709,1.709,0,0,0,.207-.207h-2.364c.248.736.428,1.4.566,1.955l-2.658.317c-.092-.713-.207-1.481-.363-2.272h-1.251a17.833,17.833,0,0,1-1.6,2.382l-2.3-1.881a11.29,11.29,0,0,0,3.1-4.736Zm3.205,6.4v2.488H115v2.277a26.092,26.092,0,0,0,2.842-.607l.138,1.135a5.55,5.55,0,0,0,.929-.455,5.762,5.762,0,0,1-.7-.285l1.164-1.849c.336.1.7.235,1.113.4.064-.239.133-.479.179-.718H118.45v-2.488h8.462v4.658c0,.368.115.529.34.529.294,0,.455-.317.455-.98v-.79l2.387.63c-.138,1.931-.455,3.021-.957,3.283a2.2,2.2,0,0,1-1.338.345h-1.251c-1.435,0-2.138-.745-2.138-2.277v-2.911h-1.343a9.494,9.494,0,0,1-.294,1.7c.432.206.888.446,1.366.685l-1.049,2.484c-.543-.34-1.067-.658-1.568-.975a6.531,6.531,0,0,1-1.476,1.191h.635v1.136h8.8v2.562h-6.2a8.711,8.711,0,0,0,1.752,1.09,18.98,18.98,0,0,0,4.976,1.508l-1.5,2.99a18.922,18.922,0,0,1-5.459-2.677,12.061,12.061,0,0,1-2.364-2.377v5.873h-2.842v-5.83a14.483,14.483,0,0,1-2.589,2.465,21.016,21.016,0,0,1-5.141,2.538l-1.228-2.99a17.611,17.611,0,0,0,6.139-2.6h-5.886v-2.562h8.706v-1.136h.934l-.658-1.007v.055a34.4,34.4,0,0,1-8.89,1.564l-.345-2.783c1.159,0,2.322-.055,3.458-.156v-2.65h-2.75v-2.488Z" transform="translate(-86.116 -1760.06)" fill="#3d93ab"/>
      <path id="Path_38021" data-name="Path 38021" d="M123.093,1766.621a14.559,14.559,0,0,1-3.73,4.654l-1.067-1.853v.818c0,1.3-.046,2.543-.115,3.707a14.226,14.226,0,0,0,3.32-3.808l1.954,1.747a22.4,22.4,0,0,1-1.43,2.032v9.662h-2.663v-6.88c-.317.285-.612.556-.888.759l-.474-1.481a34.717,34.717,0,0,1-1.66,7.491l-2.571-2.488a27.555,27.555,0,0,0,1.775-10.742v-10.026H134.1v5.16h-6.659a8.2,8.2,0,0,1-.345.818h7.643v2.088H126.05c-.161.271-.317.505-.455.721h8.6v7.032h-6.71c-.133.244-.248.451-.34.612h6.866v1.564a9.371,9.371,0,0,1-2.318,2.506,22.318,22.318,0,0,0,3.3.377l-.616,2.589a14.621,14.621,0,0,1-5.569-1.407,28.535,28.535,0,0,1-5.436,1.407l-.975-2.488a27.083,27.083,0,0,0,4.047-.552,7.459,7.459,0,0,1-1.228-1.407,7.82,7.82,0,0,1-1.931,1.435l-1.072-2.359a6.373,6.373,0,0,0,2.64-2.277H123.8v-5c-.161.128-.3.239-.437.345l-1.251-2.7a6.834,6.834,0,0,0,2.617-3.306h-3.274Zm-4.8-4.236v.823h12.959v-.823Zm0,6.112a14.4,14.4,0,0,0,2.957-3.123H118.3Zm13.231,3.2v-.736h-5.068v.736Zm0,1.642h-5.068v.708h5.068Zm-2.612,6.5a8.464,8.464,0,0,0,2.092-1.348h-3.891a5.988,5.988,0,0,0,1.8,1.352Z" transform="translate(-68.514 -1759.502)" fill="#3d93ab"/>
      <path id="Path_38022" data-name="Path 38022" d="M139.508,1762.891h-16.62v6.926a56.318,56.318,0,0,1-1.5,13.865l-2.594-2.488a40.158,40.158,0,0,0,1.343-11.378v-9.6h19.37Zm-6.935,12.615v1.352h5.684v2.377h-5.684v1.324h7.1v2.594h-17.3v-2.594h2.479v-4.125h2.658v4.125h2.318v-5.054ZM130.8,1765.8a22.992,22.992,0,0,1-2.318.4v1.352h2.046v2.272H129.07a18.693,18.693,0,0,1,1.821,1.669l-1.072,1.954a14.736,14.736,0,0,0-1.338-1.826v4H126.09V1772.4a11.213,11.213,0,0,1-2.134,2.91l-.888-2.57a8.1,8.1,0,0,0,2.773-2.911h-2.5v-2.272h2.75v-1.191c-.727.051-1.453.051-2.226.051l-.612-2.461a41.646,41.646,0,0,0,6.659-.423Zm8.163,0a21.324,21.324,0,0,1-3.026.45v1.3h3.3v2.272h-2.888a9.723,9.723,0,0,0,3.592,3.1l-1.159,2.911a11.751,11.751,0,0,1-2.842-3.467v3.251h-2.295v-2.883a11.412,11.412,0,0,1-2.046,2.57l-1.343-2.382a8.767,8.767,0,0,0,3-3.1h-2.115v-2.272h2.5v-1.168c-.7.027-1.412.027-2.138.027l-.612-2.461a48.2,48.2,0,0,0,7.183-.423Z" transform="translate(-50.434 -1759.502)" fill="#3d93ab"/>
    </g>
    <g id="Group_6148" data-name="Group 6148" transform="translate(103.974 7881.221)" style="mix-blend-mode: multiply;isolation: isolate">
      <path id="Path_38023" data-name="Path 38023" d="M109.6,1766.955H88.049a2.631,2.631,0,0,0-2.626,2.626v37.568a2.627,2.627,0,0,0,2.626,2.621h26.4a2.626,2.626,0,0,0,2.621-2.621v-32.072Zm.621,3.932,3.274,3.56H110.22Zm4.645,36.257a.422.422,0,0,1-.423.424H88.049a.421.421,0,0,1-.419-.424v-37.563a.42.42,0,0,1,.419-.418h19.963v6.383a1.1,1.1,0,0,0,1.1,1.1h5.748Zm-23.348-28.462h18.726a.828.828,0,0,1,0,1.656H91.516a.828.828,0,1,1,0-1.656Zm19.549,6.379a.826.826,0,0,1-.823.828H91.516a.828.828,0,0,1,0-1.655h18.726a.826.826,0,0,1,.824.827Zm0,5.372a.822.822,0,0,1-.823.823H91.516a.826.826,0,0,1,0-1.651h18.726a.824.824,0,0,1,.824.827Zm0,5.459a.822.822,0,0,1-.823.823H91.516a.826.826,0,0,1,0-1.651h18.726a.827.827,0,0,1,.824.827Z" transform="translate(-85.423 -1766.955)" fill="#717071"/>
    </g>
  </g>
</svg>
