<svg xmlns="http://www.w3.org/2000/svg" width="156" height="68" viewBox="0 0 156 68">
  <g id="section2_subtitle1_lg" transform="translate(-342.042 -342.124)">
    <path id="Path_571" data-name="Path 571" d="M356.227,346.2H344.919V364.5h10.387V365a14.616,14.616,0,0,0,1.788-3.579,21.115,21.115,0,0,0,1.186-6.58v-2.613c-.449,1.107-.95,2.207-1.529,3.314l-1.658-2.937v1.336h-8.622V347.1h8.622v4.685a21.034,21.034,0,0,0,1.422-3.838,38.859,38.859,0,0,0,.95-5.821l2.969.318c-.13,1.4-.289,2.707-.5,3.873h5.553v2.266a52.854,52.854,0,0,1-1.027,7.163l-2.685-.906a36.764,36.764,0,0,0,.814-5.439h-3.334c-.053.235-.136.465-.189.671-.159.465-.313.93-.472,1.365h3.081v3.4a17.951,17.951,0,0,0,1.234,6.522,11.9,11.9,0,0,0,3.181,4.626l-1.841,3.173a18.71,18.71,0,0,1-2.632-3.7,20.577,20.577,0,0,1-1.682-5.062A19.11,19.11,0,0,1,358.7,365a17.037,17.037,0,0,1-2.679,4.161l-1.027-1.366H344.919v1.13h-2.756v-25.9h14.064Zm-5.837,8.641V363.6h-4.733v-8.764Zm-1.865,2.507H347.5v3.749h1.027Zm3.919-7.74h-3.287v1.831h3.287Zm3.388,5.233V363.6H351.1v-8.764Zm-1.865,2.507H352.94v3.749h1.027Z" transform="translate(0.593 0)" fill="#fff"/>
    <path id="Path_572" data-name="Path 572" d="M359.412,346.843c-.053-1.483-.077-3.055-.077-4.685H362.7c0,1.689.023,3.261.083,4.685h3.181a20.71,20.71,0,0,0-2.213-2.966l2.237-1.6a22.584,22.584,0,0,1,2.786,3.32l-1.446,1.248h2.685v3.526h-7.129a60.211,60.211,0,0,0,.531,6.81,19.014,19.014,0,0,0,1.31,5.2c.5,1.083.921,1.6,1.263,1.6.472,0,.738-.9.844-2.708,0,0,.024-.547.1-1.713l2.975,1.836c-.213,2.731-.655,4.562-1.292,5.527a3.05,3.05,0,0,1-2.626,1.395c-.944,0-1.918-.724-2.892-2.154a17.812,17.812,0,0,1-2.55-6.545,62.252,62.252,0,0,1-1-9.253h-12.96v-3.526Zm-.4,6.58v3.52h-4.2v4.944c1.629-.259,3.228-.583,4.81-.96v3.638q-5.6,1.316-12.411,2.272l-.631-3.867c1.629-.124,3.234-.324,4.839-.559v-5.468h-4.108v-3.52Z" transform="translate(22.254 0.166)" fill="#fff"/>
    <path id="Path_573" data-name="Path 573" d="M359.279,343.7a51.814,51.814,0,0,1-3.128,7.74h3.341q-.637,7.77-2.29,11.607c-.053.094-.077.147-.106.206,1.34,1.165,4.84,1.719,10.493,1.719.525,0,3.081-.059,7.708-.235l-.814,3.755c-4.839,0-7.259-.059-7.259-.118q-8.676,0-11.756-2.443a20.006,20.006,0,0,1-2.656,2.8l-1.842-3.32a8.771,8.771,0,0,0,2.367-2.243,26.5,26.5,0,0,1-2.077-6.168l2.685-.671a23.907,23.907,0,0,0,1,3.555,33.288,33.288,0,0,0,1.027-5.586h-4.5c1.263-2.478,2.39-4.862,3.388-7.193h-3.388v-3.4Zm5.341-.235v-1.336H367.8v1.336h5.754v4.1H374.8v2.972h-1.239v4.073H367.8v1.136h6.179v2.849H367.8v1.136h6.569V362.7H367.8V364.5H364.62V362.7h-5.866v-2.966h5.866v-1.136H359.8v-2.849h4.816v-1.136h-4.314v-2.825h4.314v-1.248h-5.866v-2.972h5.866v-1.248h-4.208V343.46Zm3.181,4.1h2.573v-1.248H367.8Zm0,4.22h2.573v-1.248H367.8Z" transform="translate(43.763 0)" fill="#fff"/>
    <path id="Path_574" data-name="Path 574" d="M362.082,342.559c-.213.465-.4.871-.579,1.254h6.126v2.207a12.384,12.384,0,0,0,2.154-3.9l3.1.435c-.189.465-.372.871-.531,1.254h7v2.967H375.65a16.372,16.372,0,0,1,.708,1.919l-3.287.353a11.688,11.688,0,0,0-.5-2.272h-1.711a20.8,20.8,0,0,1-1.47,2.272l-2.679-2.042a1.721,1.721,0,0,0,.236-.229h-2.733c.283.812.5,1.542.655,2.154l-3.081.347c-.1-.783-.236-1.63-.419-2.5h-1.446a19.5,19.5,0,0,1-1.841,2.619l-2.656-2.066A12.406,12.406,0,0,0,359,342.124Zm3.706,7.045v2.731H362.5v2.5a31.23,31.23,0,0,0,3.287-.665l.154,1.248a7.08,7.08,0,0,0,1.08-.494c-.313-.118-.579-.2-.814-.318l1.34-2.037c.4.118.814.259,1.292.436.077-.265.154-.524.207-.783H366.5v-2.737h9.779v5.121c0,.406.135.583.4.583.342,0,.525-.353.525-1.077v-.877l2.762.7c-.154,2.125-.525,3.32-1.1,3.608a2.634,2.634,0,0,1-1.552.377h-1.446a2.186,2.186,0,0,1-2.473-2.5v-3.2h-1.546a10.608,10.608,0,0,1-.348,1.86c.5.229,1.027.494,1.582.753l-1.21,2.737c-.632-.377-1.24-.724-1.818-1.077a7.746,7.746,0,0,1-1.706,1.313h.738v1.248H379.25v2.825h-7.177a10.047,10.047,0,0,0,2.024,1.189,22.586,22.586,0,0,0,5.754,1.66l-1.735,3.29a22.073,22.073,0,0,1-6.309-2.937,13.736,13.736,0,0,1-2.732-2.619v6.457h-3.287v-6.4a16.166,16.166,0,0,1-3,2.707,24.9,24.9,0,0,1-5.943,2.79l-1.422-3.29a20.987,20.987,0,0,0,7.1-2.849h-6.811v-2.825h10.074V357.81h1.074L366.1,356.7v.053a41.172,41.172,0,0,1-10.281,1.725l-.4-3.061c1.34,0,2.685-.059,4-.171v-2.913H356.24V349.6Z" transform="translate(65.6 0)" fill="#fff"/>
    <path id="Path_575" data-name="Path 575" d="M372.745,358.593v2.849h-2.579v2.943c.03.7.266,1.018.738,1.018h9.336a1.505,1.505,0,0,0,.868-.206c.106-.059.183-.289.236-.695H379.32l-.4-3.061c.944.094,1.5.124,1.629.124.4,0,.608-.265.608-.818v-3.52a26.968,26.968,0,0,1-1.629,2.967l-1.446-3.2a12.735,12.735,0,0,0,3.075-3.9v-1.018l-1.948.724a49.583,49.583,0,0,0-.921-5.585l1.841-.553c.319,1.077.661,2.478,1.027,4.22V345.85h-2.868v-3.173h5.548V362a2.758,2.758,0,0,1-.443,1.683l1.157.265c-.183,2.037-.555,3.314-1.133,3.955a3.359,3.359,0,0,1-2.449.7H369.252c-1.528,0-2.266-1.077-2.266-3.2v-3.961h-1.18a13.707,13.707,0,0,1-.738,3.873,10.147,10.147,0,0,1-2.679,3.608l-2.579-2.707a6.164,6.164,0,0,0,2.366-2.178,6.556,6.556,0,0,0,.738-2.6h-2.6v-2.849Zm-7.808-15.133v-1.336h2.892v1.336h3.47v2.3h-3.47v1.454h4.414V349.6h-1.652v1.6h1.446v2.272h-1.446v1.836h1.652v2.384H366.8v-2.384h1.422v-1.836h-1.34V351.2h1.34v-1.6h-3.287v1.6h1.34v2.272h-1.34v1.483a15.3,15.3,0,0,0,1.653-.229v2.384a45.366,45.366,0,0,1-5.654.812l-.419-2.613c.714,0,1.393-.059,2.054-.118v-1.719h-1.522V351.2h1.522v-1.6H360.73v-2.389h4.208v-1.454h-3.394v-2.3Zm12.937-.783V362c0,1.683-.791,2.5-2.337,2.5H373.56l-.4-3.061c.844.094,1.316.124,1.422.124.419,0,.632-.265.632-.818V357.11a31.949,31.949,0,0,1-1.446,3.2l-1.416-3.2a13.357,13.357,0,0,0,2.862-4.279v-.753l-1.948.724c-.26-2.125-.578-3.955-.915-5.468l1.835-.553c.319,1.047.655,2.442,1.027,4.161V345.85h-3.081v-3.173Z" transform="translate(87.089 0)" fill="#fff"/>
    <path id="Path_576" data-name="Path 576" d="M388.119,355.073a48.5,48.5,0,0,1-.814,6.369l-2.367-.465V362.9H378.47v1.978c.891.059,1.895.088,2.974.088.685,0,3.1-.118,7.283-.353l-.608,3.526h-7.36c-3.629,0-6.2-.324-7.784-.959a8.4,8.4,0,0,1-3.051-2.154,16.063,16.063,0,0,1-2.969,3.579l-2.656-2.619q3.939-2.834,4.415-6.722l3.181.465a17.829,17.829,0,0,1-.708,2.649,6.3,6.3,0,0,0,1.918,1.454,9.963,9.963,0,0,0,1.871.612v-6.316h-9.549v-3.055ZM369.741,344.4v-2.272h2.975V344.4H376v2.7h-3.281v.524a23.572,23.572,0,0,1,3.387,2.213l-1.546,2.737a15.47,15.47,0,0,0-1.841-1.836v3.555h-2.975v-3.643a17.583,17.583,0,0,1-3.706,3.526l-1.529-2.972a14.892,14.892,0,0,0,4.893-4.1h-4.391v-2.7Zm10.783,0v-2.272h2.969V344.4h4.527v2.7h-4.232a13.422,13.422,0,0,0,5.152,3.755l-1.422,3.437a15.056,15.056,0,0,1-4.025-3.991v3.991h-2.969v-3.408a16.372,16.372,0,0,1-3.5,3.49l-1.523-2.937a14.25,14.25,0,0,0,4.786-4.338h-3.37v-2.7Zm3.364,15.8c.236-.7.419-1.4.579-2.066h-6v2.066Z" transform="translate(109.102 0)" fill="#fff"/>
    <path id="Path_577" data-name="Path 577" d="M352.718,367.289a27.258,27.258,0,0,1-8.729,7.04l-1.948-3.284a28.9,28.9,0,0,0,7.991-5.821Zm11.2-17.952v14.75H344.7v-14.75Zm-3.494,3.4H348.2v7.946h12.228Zm5.754,19.088-3.1,2.619a38.988,38.988,0,0,0-6.964-7.275l2.868-2.154A49.549,49.549,0,0,1,366.18,371.827Z" transform="translate(0 35.242)" fill="#fff"/>
    <path id="Path_578" data-name="Path 578" d="M368.5,372.4h2.237v2.855h-24.22V372.4h1.948v-5.444H368.5ZM352.145,350.7v-1.571h3.2V350.7h2.55v2.737h-2.55v1.248h-3.2v-1.248h-5.553V350.7Zm4.84,4.774v-1.253h3.181v1.253h8.227v2.5h-8.227v1.254h9.962v2.731h-4.733a44.13,44.13,0,0,1,4.131,2.272l-1.765,2.384c-.5-.347-.974-.695-1.422-1.048q-7.41.653-18.614.7l-.5-2.943c1.1.065,2.024.118,2.815.147a10.937,10.937,0,0,0,1.735-1.513h-4.757v-2.731h9.968v-1.254h-8.209v-2.5ZM354.116,372.4V369.7h-2.473V372.4Zm7.6-9.659.814-.789h-7.2a13.045,13.045,0,0,1-1.552,1.6c3.364,0,6.439-.059,9.177-.141C362.5,363.179,362.084,362.944,361.712,362.744Zm-2.048,9.659V369.7h-2.579V372.4Zm2.048-21.707v-1.571h3.181V350.7h5.553v2.737h-5.553v1.248h-3.181v-1.248h-2.573V350.7Zm3.577,21.707V369.7h-2.656V372.4Z" transform="translate(21.926 34.201)" fill="#fff"/>
    <path id="Path_579" data-name="Path 579" d="M358.134,350.378a46,46,0,0,1-1.239,4.538V375.6H353.82V361.9c-.525.93-1.05,1.836-1.629,2.678l-1.239-4.22a32.368,32.368,0,0,0,3.9-10.912Zm6.574,0v-1.254h3.181v1.254h6.887v2.82H367.89v1.136h6.256v8.64h-.5c.631.842,1.133,1.6,1.552,2.272l-1.653,2.154c-.266-.465-.531-.936-.791-1.4-.372.059-.708.088-1.051.118v1.63h3.576V370.6H371.7v2.384c0,1.807-.791,2.737-2.367,2.737h-3.287l-.425-3.32c1.263.088,2,.118,2.16.118.472,0,.738-.206.738-.671V370.6h-5.972a27.2,27.2,0,0,1,2.685,2.5l-2.473,2.043a19.492,19.492,0,0,0-3.5-3.526l1.4-1.012h-3.027v-2.855h10.888v-1.365c-3.1.23-6.657.347-10.6.347l-.4-2.849c2.632.171,4.1.23,4.444.23.944,0,1.841,0,2.738-.029v-1.107h-6.156v-8.64h6.156V353.2h-6.368v-2.82Zm0,7.357V356.6h-3.181v1.13Zm0,1.719h-3.181v1.254h3.181Zm3.181-1.719h3.287V356.6H367.89Zm3.287,1.719H367.89v1.254h3.287Zm-.448,3.52H367.89v1.018q1.815-.044,3.47-.177C371.147,363.527,370.935,363.238,370.729,362.973Z" transform="translate(43.674 34.201)" fill="#fff"/>
    <path id="Path_580" data-name="Path 580" d="M358.275,356.115v-5.356h3.706v5.356h3.394v-6.839h3.47v6.839h3.707v-6.957h3.5v6.957h3.606v3.408h-3.606v8.523H365.375v-8.523h-3.394v11.024h16.726v3.408H361.981v1.8h-3.706V359.523h-2.868v-3.408Zm10.57,8.529h3.707v-5.121h-3.707Z" transform="translate(65.511 34.368)" fill="#fff"/>
    <path id="Path_581" data-name="Path 581" d="M362.417,356.4v-7.075h3.1V356.4h1.948v3.29h-1.948V366a20.8,20.8,0,0,0,1.948-.989v2.243a24.031,24.031,0,0,0,.5-4.944V352.85H375.8c-.024-1.195-.024-2.443-.024-3.726h3.181c0,1.336,0,2.56.03,3.726h2.26a14.305,14.305,0,0,0-1.764-2.39l2.555-1.248a7.467,7.467,0,0,1,1.971,2.184l-2.077,1.454h2.26v3.084h-5.158c.059,2.849.189,5.209.343,7.069a51.115,51.115,0,0,0,1.735-5.15l2.473,1.254a47.347,47.347,0,0,1-3.441,9.105c.525,2.213.968,3.29,1.393,3.29.106,0,.207-.465.313-1.395,0,0,.053-.73.189-2.242l2.573,1.83a14.63,14.63,0,0,1-1.658,5.3,1.706,1.706,0,0,1-1.416.93c-.844,0-1.688-.665-2.526-1.978a10.979,10.979,0,0,1-1.127-2.213,23.752,23.752,0,0,1-4.161,4.191l-2.154-2.937a18.2,18.2,0,0,0,5.235-5.268v-.059a74.4,74.4,0,0,1-.95-11.725h-4.81v2.731h4.42v3.061c0,4.479-.319,7.128-.9,7.881-.608.759-1.711,1.106-3.311,1.106h-.289l-.425-2.672a25.947,25.947,0,0,1-2.679,7.793L364.99,373.1a14.94,14.94,0,0,0,2-4.067,37.019,37.019,0,0,1-6.521,2.937l-.608-3.991a20.623,20.623,0,0,0,2.556-.694v-7.593h-2.26V356.4Zm8.835,11.113a1.293,1.293,0,0,0,1.021-.318,28.608,28.608,0,0,0,.319-5.468H371.04v.583a31.407,31.407,0,0,1-.4,5.121C371.01,367.482,371.2,367.512,371.252,367.512Z" transform="translate(87.349 34.201)" fill="#fff"/>
    <path id="Path_582" data-name="Path 582" d="M372.025,350.094a31.948,31.948,0,0,1-1.759,4.685v11.784h-3.081V359.87a24.453,24.453,0,0,1-1.629,2.037l-1.239-4.1a21.549,21.549,0,0,0,4.527-8.646Zm2.762,17.487v-1.8h3.287v1.8h8.516v2.966h-8.516v1.571h10.57V375.2H364.317v-3.085h10.47v-1.571h-8.31v-2.966Zm12.228-17.84V356h-5.548v1.371h6.781v2.819h-3.942a4.791,4.791,0,0,0,1,.906,10.17,10.17,0,0,0,3.264,1.483l-1.764,3.2a11.167,11.167,0,0,1-3.76-2.737,11.465,11.465,0,0,1-1.576-2.331v5.733h-3.293v-5.5a8.744,8.744,0,0,1-1.31,1.683,15.4,15.4,0,0,1-4.131,3.031l-2.048-2.855a13.589,13.589,0,0,0,3.653-1.831,4,4,0,0,0,.867-.789h-3.919v-2.819h6.887V356h-5.542v-6.257Zm-3.287,2.39h-7.814v1.483h7.814Z" transform="translate(109.186 34.368)" fill="#fff"/>
  </g>
</svg>
