<svg id="section4_title5_lg" xmlns="http://www.w3.org/2000/svg" width="346.271" height="123" viewBox="0 0 346.271 123">
  <g id="Group_108" data-name="Group 108" transform="translate(0)">
    <path id="Path_358" data-name="Path 358" d="M124.926,1585.923c-.2,3.04-.455,6.087-.754,9.188h9.206c.1,11.595-1.257,20.79-4.023,27.578,2.011,1.76,3.771,3.454,5.381,5.094l-4.124,7.321a50.647,50.647,0,0,0-4.579-5.74,44.467,44.467,0,0,1-8,9.422l-4.729-6.2a26.913,26.913,0,0,0,7.949-8.021c-2.263-1.993-4.729-3.921-7.345-5.915,1.407-5.793,2.466-11.415,3.268-16.916H113.7v-6.621h4.28c.3-3.22.551-6.38.652-9.422Zm2.215,15.809h-3.777q-1.051,7.021-2.562,14.4c1.2.82,2.311,1.634,3.37,2.4A58.808,58.808,0,0,0,127.141,1601.731Zm30.193-13.762v6.208a55.208,55.208,0,0,1-7.447,11.768v2.4h9.057v7.082h-9.057v17.156c-.1,3.981-3.017,5.969-8.656,5.969H136.9l-.958-7.315c3.274.179,5.232.239,5.89.239,1.006,0,1.562-.82,1.562-2.52v-13.528H133.378v-7.082H143.4v-6.381a34.2,34.2,0,0,0,5.435-6.855h-14.5v-7.141Z" transform="translate(-113.301 -1585.043)" fill="gold"/>
    <path id="Path_359" data-name="Path 359" d="M132.572,1586.928c-.2.467-.353.82-.5,1.173h15.246v5.029H128.9c-.4.472-.754.945-1.155,1.352h18.215c-.347,3.107-.551,5.148-.652,6.142h1.61v4.16h-2.065c-.1.88-.2,1.641-.3,2.288h1.407v4.094h-2.113a10.017,10.017,0,0,1-.449,1.526l3.52,1.227a50.116,50.116,0,0,1-5.286,3.161c2.215,0,4.681-.054,7.351-.174a54.887,54.887,0,0,0,5.986-3.687l5.944,2.987a93.248,93.248,0,0,1-16.509,7.554c-.353.114-.652.234-.91.294,4.735-.12,9.111-.413,13.139-.826-.706-.76-1.359-1.521-2.011-2.221l4.879-1.821a46.381,46.381,0,0,1,7.7,8.022l-5.531,3.16c-.6-1.054-1.209-1.987-1.814-2.861-3.472.466-7.2.814-11.17,1.107v5.441c0,3.634-1.514,5.508-4.483,5.508H137.5l-.8-6.442c2.514.174,3.975.234,4.328.234.9,0,1.359-.407,1.359-1.341v-3.047c-2.215.114-4.382.233-6.6.294l2.113,2.753a40.412,40.412,0,0,1-12.984,7.308l-2.562-6.2a30.621,30.621,0,0,0,9.356-3.747c-2.568.12-5.184.12-7.8.12l-.754-5.735c2.819.174,5.13.294,6.842.294a73.418,73.418,0,0,0,9.817-2.934c-4.633.354-9.362.527-14.295.587l-.6-5.034c3.472.12,6.393.234,8.71.234a9.481,9.481,0,0,0,1.407-.587,14.479,14.479,0,0,0,1.61-.82h-4.831l-.808-3.4c3.526.179,5.639.239,6.3.239a1.458,1.458,0,0,0,1.155-.413,2.274,2.274,0,0,0,.353-.761h-15.1c.455-2.221.856-4.328,1.209-6.382h-3.173v-4.16h3.777c.15-1.461.305-2.922.4-4.328a25.24,25.24,0,0,1-2.412,2.053l-1.766-6.388a15.89,15.89,0,0,0,6.094-6.38Zm.3,17.855h-2.915c-.15.827-.305,1.58-.455,2.288h3.622C133.027,1606.251,132.973,1605.49,132.871,1604.783Zm.808-4.16c-.1-.7-.251-1.4-.353-2.041h-2.514c-.1.7-.15,1.4-.251,2.041Zm6.142,4.16h-3.173c.1.827.251,1.58.353,2.288h2.568C139.671,1606.364,139.719,1605.61,139.821,1604.783Zm-2.317-4.16h2.766c.054-.64.1-1.341.2-2.041H137.1C137.253,1599.283,137.4,1599.984,137.5,1600.624Zm19.478-13c-.251.94-.5,1.754-.754,2.521H167v5.915h-1.61a39.138,39.138,0,0,1-4.28,9.834,21.228,21.228,0,0,0,6.848,3.927l-2.921,6.381a24.119,24.119,0,0,1-7.854-5.974,23.1,23.1,0,0,1-9.057,4.388l-1.76-5.967a12.924,12.924,0,0,0,7.548-2.634,37.03,37.03,0,0,1-2.867-5.448,42.811,42.811,0,0,1-2.718,3.514L146.363,1597a27.649,27.649,0,0,0,5.286-11.008ZM167,1633.121l-2.766,6.2a83.4,83.4,0,0,0-13.941-5.968l2.915-4.561A100.617,100.617,0,0,1,167,1633.121Zm-9.613-31.5a36.047,36.047,0,0,0,2.269-5.561h-5.238A28.191,28.191,0,0,0,157.384,1601.623Z" transform="translate(-71.179 -1585.581)" fill="gold"/>
    <path id="Path_360" data-name="Path 360" d="M140.547,1589.481v-3.861h6.142v3.861h5.082v6.153h-5.082v2.988h11.978v-2.988h-4.729v-6.153h4.729v-3.861h6.094v3.861h10.817v6.153H164.76v2.988h7.848v5.735h-4.735v3.394h5.741v5.973h-5.741v4.1h8.1v5.741H156.1v2.981h17.515v5.68H156.1v7.321h-6.489v-7.321H132.9v-5.68h16.713v-2.981H130.532v-5.741h7.3v-4.1h-5.537v-5.973h5.537v-3.394H133.1v-5.735h7.447v-2.988H130.131v-6.153Zm9.063,14.875h-6.094v3.394h6.094Zm0,13.468v-4.1h-6.094v4.1Zm12.577-13.468H156.1v3.394h6.088Zm-6.088,13.468h6.088v-4.1H156.1Z" transform="translate(-29.387 -1585.386)" fill="gold"/>
    <path id="Path_361" data-name="Path 361" d="M132.779,1601.687v-4.568h6.9v4.568h15.5v6.614h-15.5v3.867h19.071v6.907h-8.506a33.872,33.872,0,0,1-2.867,5.681h9.009v6.668H139.675v4.333h17.862v6.615H139.675v8.674h-6.9v-8.674H114.708v-6.615h18.072v-4.333h-16.91v-6.668h8.955a60.572,60.572,0,0,0-2.867-5.681H113.3v-6.907h19.478V1608.3h-15.9v-6.614Zm7.548,23.07a33.434,33.434,0,0,0,2.867-5.681H129.1c.958,1.873,1.862,3.8,2.718,5.681Z" transform="translate(-113.301 -1528.047)" fill="gold"/>
    <path id="Path_362" data-name="Path 362" d="M135.348,1606.42h3.52v4.8a44.805,44.805,0,0,1-3.873,9.722,57.122,57.122,0,0,1,4.43,5.034v-2.634h28.134v26.519h-6.291v-1.868H145.715v1.868h-6.291v-20.544l-2.514,4.74c-.808-1.933-1.766-3.807-2.772-5.68v21.249h-5.89v-18.5c-1.2,1.586-2.466,3.107-3.771,4.574l-2.921-7.788a34.243,34.243,0,0,0,10.769-15.576h-9.206v-5.915h6.04c-.455-2.459-1.006-4.98-1.712-7.548l6.088-1.646A84.235,84.235,0,0,1,135.348,1606.42Zm32.612-7.781v5.675H139.071v-5.675Zm-1.76,7.961v14H140.831v-14Zm-15.552,26.344v-3.921h-4.932v3.921Zm0,9.368v-3.927h-4.932v3.927Zm9.41-30.211H146.919v2.987h13.139Zm-3.723,20.843h4.932v-3.921h-4.932Zm4.932,9.368v-3.927h-4.932v3.927Z" transform="translate(-72.142 -1527.514)" fill="gold"/>
    <path id="Path_363" data-name="Path 363" d="M139.409,1606.188v-8.961H146.1v8.961h10.823v-8.961h6.692v8.961h7.046v6.854h-7.046v12.349h8.859v7.087H130.4v-7.087h9.009v-12.349h-7.046v-6.854Zm8.452,31.325a43.231,43.231,0,0,1-13.133,13l-3.777-6.854a45.287,45.287,0,0,0,11.828-10.308Zm9.063-12.122v-12.349H146.1v12.349Zm14.744,18.5-4.526,6.442a93.568,93.568,0,0,0-13.193-12.589l4.531-4.8A102.88,102.88,0,0,1,171.668,1643.893Z" transform="translate(-28.046 -1527.514)" fill="gold"/>
    <path id="Path_364" data-name="Path 364" d="M158.516,1629.646v-3.634h6.291v3.634h18.066v5.968H171.248a45.484,45.484,0,0,0,14.2,6.381l-3.526,6.62c-3.37-.993-7.1-3.107-11.224-6.328a38.277,38.277,0,0,1-5.89-5.38V1650.9h-6.291v-13.355a33.45,33.45,0,0,1-5.483,5.328,45.023,45.023,0,0,1-11.625,5.974l-2.921-7.087a37.049,37.049,0,0,0,13.941-6.149H140.45v-5.968Zm-4.124-32.5a46.208,46.208,0,0,1-1.107,10.6,73.462,73.462,0,0,1,7.8,6.554l-3.119,4.394h5.585l-2.059-5.034c3.22-1,5.333-2.461,6.441-4.454,1.1-1.52,1.76-5.561,2.011-12.061h5.483a50.045,50.045,0,0,1-1.054,10.655,78.466,78.466,0,0,1,8.7,5.86l-2.161,5.034h2.562v9.362h-6.489v-3.448H145.934v3.448h-6.489V1618.7h2.718l-2.113-5.034c3.322-1,5.585-2.461,6.74-4.454,1.107-1.52,1.814-5.561,2.113-12.061Zm-7.848,2.346a41.185,41.185,0,0,1-1.969,10.014l-5.13-1.82a29.588,29.588,0,0,0,2.364-9.135Zm10.368,19.2c-2.017-2.227-3.927-4.16-5.741-5.86a15.35,15.35,0,0,1-7.046,5.86Zm4.579-19.2a40.958,40.958,0,0,1-1.963,9.828l-4.933-1.634a30.569,30.569,0,0,0,2.161-8.9Zm6.489-.234a52.053,52.053,0,0,1-1.61,10.062l-5.082-1.867a34.484,34.484,0,0,0,1.957-9.135Zm11.577,19.436q-3.924-3.43-7.249-5.8a15.039,15.039,0,0,1-6.794,5.8Zm3.52-19.03a39.46,39.46,0,0,1-1.963,9.841l-5.082-1.82a28.394,28.394,0,0,0,2.364-8.9Z" transform="translate(12.276 -1527.903)" fill="gold"/>
    <path id="Path_365" data-name="Path 365" d="M162.213,1601.213c-.76,3.107-1.562,5.975-2.418,8.674H168.3v-12.768h6.9v12.768h14.54v6.9H175.2v9.135h12.786v6.855H175.2v9.829H191.9v6.854H148.421v-6.854H168.3v-9.829H154.161v-6.855H168.3v-9.135H157.178a67.121,67.121,0,0,1-6.189,11.416l-3.927-6.842c3.622-5.333,6.291-12.534,8.051-21.55Z" transform="translate(55.031 -1528.047)" fill="gold"/>
    <path id="Path_366" data-name="Path 366" d="M169.863,1628.946a90.72,90.72,0,0,1-7.9,21.3l-6.644-4.561a66.129,66.129,0,0,0,8.458-19.443Zm-1.006-10.482-4.729,5.908a71.385,71.385,0,0,0-8.662-8.429l4.178-5.034A63.712,63.712,0,0,1,168.857,1618.464Zm2.364-13.761-4.531,5.74a70.732,70.732,0,0,0-9.057-8.428l3.975-4.867A77.718,77.718,0,0,1,171.222,1604.7Zm28.481-.647c-3.22.706-7.039,1.407-11.367,1.994v7.147h13.331v6.608H188.336v7.088h10.416V1650.9H192.46v-3.167H178.118v3.167h-6.291v-24.009h10.015v-7.088H169.659V1613.2h12.181v-6.327c-2.969.353-6.142.7-9.464,1.054l-1.963-7.321a217.756,217.756,0,0,0,26.578-2.754Zm-7.243,37.707v-8.9H178.118v8.9Z" transform="translate(96.19 -1527.903)" fill="gold"/>
    <path id="Path_367" data-name="Path 367" d="M206.489,1648.885H200.4v-2.047H170.154v2.047H164.06v-51.462h42.429Zm-31.606-28.158h-3.975v-5.034h7.9c.407-.647.754-1.347,1.161-2.047h-7.854v-4.567h3.424c-.5-1.413-1.059-2.754-1.658-4.1l5.13-1.173a30.071,30.071,0,0,1,1.814,5.274h1.107a33.082,33.082,0,0,0,1.556-6.153H170.154v21.956A32.37,32.37,0,0,0,174.883,1620.727Zm25.512,20.61v-14.582l-1.963,3.574a14.276,14.276,0,0,1-4.926-3.694q-.386,4.4-1.814,5.627c-1.006.874-2.819,1.287-5.435,1.287h-2.167l-.8-4.568a12.481,12.481,0,0,0,2.969.467,2.678,2.678,0,0,0,1.407-.233.914.914,0,0,0,.6-.874s.054-.294.15-.94h-8.249v6.147c0,.82.5,1.174,1.556,1.174h8.458c2.065,0,3.22-.646,3.472-1.993,0,0,.15-.761.455-2.4l4.926,1.64c-.6,3.688-1.556,5.968-2.867,6.795-1.006.64-2.969.933-5.788.933H179.558a4.522,4.522,0,0,1-4.879-4.974V1629.1c-1.006.934-1.963,1.814-2.969,2.634l-1.556-3.34v12.942Zm-10.015-18.329a15.181,15.181,0,0,1-1.508-2.281h-7.147q-.835,1.23-1.658,2.281Zm10.015,1.406v-21.489H188.669a43.725,43.725,0,0,1-1.407,6.153h2.017a30.736,30.736,0,0,0,2.867-5.274l4.933,1.406a29.4,29.4,0,0,1-2.065,3.867h3.22v4.567H185.6c-.305.7-.659,1.4-.958,2.047H199.24v5.034h-4.477A17.6,17.6,0,0,0,200.4,1624.414Z" transform="translate(139.783 -1526.537)" fill="gold"/>
  </g>
</svg>
