<svg xmlns="http://www.w3.org/2000/svg" width="333.63" height="103.434" viewBox="0 0 333.63 103.434">
  <g id="section1_subtitle" transform="translate(-82.865 -245.216)">
    <g id="Group_4075" data-name="Group 4075" transform="translate(112.863 245.437)">
      <path id="Path_17728" data-name="Path 17728" d="M106.705,106.224l9.375,4.988-10.123,20.9a16.348,16.348,0,0,1,12.5,5.608,19.793,19.793,0,0,1,5.154,13.926,19.048,19.048,0,0,1-5.291,13.609,17.457,17.457,0,0,1-25.786-.207,19.269,19.269,0,0,1-5.213-13.279,21.208,21.208,0,0,1,.808-5.728,59.576,59.576,0,0,1,3.716-8.869ZM105.332,143.2a6.6,6.6,0,0,0-5.153,2.361,9.358,9.358,0,0,0,.1,11.9,6.649,6.649,0,0,0,5.089,2.421,6.908,6.908,0,0,0,5.268-2.384,9.294,9.294,0,0,0,.06-11.938A6.942,6.942,0,0,0,105.332,143.2Z" transform="translate(-87.322 -106.224)" fill="gold" stroke="gold" stroke-width="0.323"/>
      <path id="Path_17729" data-name="Path 17729" d="M111.6,170.841,102.25,165.9l10.133-20.949a16.4,16.4,0,0,1-12.526-5.6A19.742,19.742,0,0,1,94.7,125.442,19.084,19.084,0,0,1,99.986,111.8a17.471,17.471,0,0,1,25.791.207,19.292,19.292,0,0,1,5.209,13.3,20.968,20.968,0,0,1-.808,5.7,60.557,60.557,0,0,1-3.711,8.833Zm1.378-36.97a6.578,6.578,0,0,0,5.149-2.379,9.362,9.362,0,0,0-.1-11.887,6.665,6.665,0,0,0-5.094-2.421,6.913,6.913,0,0,0-5.268,2.4,9.256,9.256,0,0,0-.06,11.91A6.93,6.93,0,0,0,112.98,133.87Z" transform="translate(-60.815 -106.224)" fill="gold" stroke="gold" stroke-width="0.323"/>
      <path id="Path_17730" data-name="Path 17730" d="M134.61,135.937a18.224,18.224,0,0,1,6.072,6.885,19.754,19.754,0,0,1,2.145,9.1,19.985,19.985,0,0,1-2.5,9.839,16.663,16.663,0,0,1-6.7,6.8,22.388,22.388,0,0,1-10.734,2.278q-6.993,0-11.125-2.2a16.261,16.261,0,0,1-6.6-6.655,20.391,20.391,0,0,1-2.476-10.068,19.556,19.556,0,0,1,1.989-8.846,21.049,21.049,0,0,1,5.953-7.138,20.18,20.18,0,0,1-3.913-5.957,17.113,17.113,0,0,1-1.314-6.665,17.8,17.8,0,0,1,2.182-8.755,15.468,15.468,0,0,1,6.109-6.141,18.31,18.31,0,0,1,9.085-2.2,17.62,17.62,0,0,1,8.925,2.214,15.854,15.854,0,0,1,6.072,6.288,18.04,18.04,0,0,1,2.218,8.759,15.9,15.9,0,0,1-1.157,6.123A23.988,23.988,0,0,1,134.61,135.937Zm-11.754,6.256a9.327,9.327,0,0,0-6.683,2.572,8.16,8.16,0,0,0-2.715,6.127,8.586,8.586,0,0,0,2.558,6.293,9.031,9.031,0,0,0,6.72,2.572,9.263,9.263,0,0,0,6.706-2.4,8.246,8.246,0,0,0,2.494-6.21,8.62,8.62,0,0,0-2.6-6.38A8.822,8.822,0,0,0,122.857,142.193Zm-.432-24.674a5.8,5.8,0,0,0-4.465,1.9,6.872,6.872,0,0,0-1.75,4.855,7.055,7.055,0,0,0,1.851,4.965,6.265,6.265,0,0,0,9.14.037,7.254,7.254,0,0,0,1.787-5.085,6.59,6.59,0,0,0-1.81-4.814A6.338,6.338,0,0,0,122.425,117.519Z" transform="translate(-32.109 -106.224)" fill="gold" stroke="gold" stroke-width="0.323"/>
    </g>
    <g id="Group_4077" data-name="Group 4077" transform="translate(83.416 245.249)">
      <g id="Group_4076" data-name="Group 4076">
        <path id="Path_17731" data-name="Path 17731" d="M84.38,127.27c-.028,2.765-.161,5.636-.432,8.6l-2.944-.4a64.006,64.006,0,0,0,.836-8.341Zm3.56-19.783a44.628,44.628,0,0,1-2.641,6.6.2.2,0,0,0-.055.106,14.127,14.127,0,0,0,1.617-.271c.57-1.236,1.107-2.5,1.621-3.835l2.646,1.934a63.228,63.228,0,0,1-5.4,10.041c.671-.1,1.373-.23,2.1-.4-.11-.8-.188-1.534-.3-2.2l2.32-.767c.354,1.534.73,3.633,1.162,6.371l-2.751,1.167c-.055-.464-.083-.9-.11-1.364a59.837,59.837,0,0,1-6.421,1.631l-.542-4.033c.381,0,.758,0,1.134-.037.919-1.465,1.81-3,2.618-4.57a30.443,30.443,0,0,1-3.211.436l-.542-3.771a8.212,8.212,0,0,0,.891-.032,31.509,31.509,0,0,0,2.591-8.208Zm.11,27.219-2.834.537c-.028-2.439-.106-5.039-.216-7.845l2.43-.266C87.673,129.268,87.885,131.771,88.05,134.707Zm2.862-5.268c.188-.9.349-1.837.51-2.806l2.43.638a60.041,60.041,0,0,1-1.378,8.1l-2.724-1.7c.106-.3.188-.6.3-.9l-1.056.5a56.785,56.785,0,0,0-1.052-6.141l2.136-.767C90.342,127.233,90.613,128.235,90.911,129.438Zm8.635-22.621c-.22.533-.409,1-.625,1.433h5.989V125.2H99.326a18.558,18.558,0,0,1,1.7,1.833l-1.805,2.738a27.093,27.093,0,0,0-2.1-2.834V131.7c.028.7.266,1.038.753,1.038h.62a.854.854,0,0,0,.648-.234,7.3,7.3,0,0,0,.3-2.5l2.967.8c-.188,2.4-.542,3.9-1.024,4.639a2.513,2.513,0,0,1-2.159.836h-2.94c-1.488,0-2.214-1.2-2.214-3.537v-6.109h2.806c-.216-.23-.432-.464-.593-.666l.7-.767H91.205V108.25H95.39a12.31,12.31,0,0,0,.565-2.067Zm-.248,8.842a30.473,30.473,0,0,0,1.3-3.1l1.373.234V111.52h-7.8v1.97l1.378-1.6c.432.367.836.735,1.268,1.135.138-.367.271-.735.4-1.135l2.43.4c-.326.9-.648,1.768-1.024,2.572C98.844,115.126,99.083,115.392,99.3,115.659Zm-5.126-1.736v3.371a11.4,11.4,0,0,0,1.461-1.9C95.146,114.859,94.659,114.391,94.173,113.922Zm1.272,6.972a16.566,16.566,0,0,0,2.4-2.8,7.447,7.447,0,0,1-.593-.8,17.9,17.9,0,0,1-2.563,3.2l-.514-1.033v2.467H96.6Zm3.964-.6c-.377.6-.73,1.135-1.079,1.631h2.1C100.084,121.331,99.735,120.794,99.409,120.3Zm2.563-.069-1.19,1.7h1.19Zm0-1.2V115.59c-.349.735-.7,1.438-1.024,2.039C101.3,118.093,101.646,118.562,101.972,119.025Zm4.207,14.914-3.045,1.033a55.083,55.083,0,0,0-1.162-7.436l2.646-.9A47.367,47.367,0,0,1,106.179,133.939Z" transform="translate(-80.577 -106.183)" fill="#fff"/>
        <path id="Path_17732" data-name="Path 17732" d="M88.816,114.278a1.06,1.06,0,0,0-.083.4H105.9v3.133h-4.754v1.033h4.318v7.175H88.6v-7.175h4.318v-1.033H88.384v-1.635c-.4,1.6-.864,3.169-1.35,4.639V144H83.851V128.094q-.854,1.6-1.782,3l-1.157-4.57a39.51,39.51,0,0,0,4.745-13.141Zm16.026,12.645v13.045H101.58c1.318.266,2.8.634,4.423,1.033l-.758,3.371a32.958,32.958,0,0,0-7.689-2.2l.675-2.2H95.21l.675,2.067a16.573,16.573,0,0,1-7.285,2.1l-.836-3.27a20.828,20.828,0,0,0,5.558-.9H89.248V126.923Zm-11.492-5.2h-1.7v1.438h1.7Zm8.231,8.975V129.66H92.509v1.033Zm0,3.27v-1.038H92.509v1.038Zm0,2.2H92.509v1.066h9.072ZM98.1,117.814H95.99v1.033H98.1Zm-.22,3.9H96.073v1.438h1.805Zm4.538,0h-1.81v1.438h1.81Z" transform="translate(-80.911 -80.316)" fill="#fff"/>
      </g>
    </g>
    <g id="Group_4079" data-name="Group 4079" transform="translate(227.922 245.621)">
      <g id="Group_4078" data-name="Group 4078">
        <path id="Path_17733" data-name="Path 17733" d="M118.063,107.931v-1.667h3.376v1.667h2.829v3.4h-2.829v1.571h6.743v-1.571H125.32v-3.4h2.862v-1.667h3.371v1.667h5.374v3.4h-5.374v1.571h3.78v10.808h-8.961v1.833H136.6v8.208c0,1.9-.781,2.871-2.32,2.871h-2.535l-.381-2.168-1.617.73c-.11-.565-.243-1.1-.349-1.635-3.67.6-7.367,1.1-11.037,1.5l-.514-3.67c1.672,0,3.426-.032,5.264-.165v-2.568H117.2v8.341h-3.266v-8.341h-1.562v-3.105h1.562v-1.167H117.2v1.167h5.911v-1.833h-8.419V112.906h3.371v-1.571h-5.4v-3.4Zm5.048,9.278v-1.438h-5.048v1.438Zm0,2.2h-5.048v1.433h5.048Zm3.261-2.2h5.59v-1.438h-5.59Zm5.59,2.2h-5.59v1.433h5.59Zm-3.78,10.307,2.4-.8a27.336,27.336,0,0,1,1.755,4.171h.051c.542,0,.841-.234.841-.767v-3.67h-6.858v2.333c.73-.064,1.461-.133,2.214-.2C128.425,130.419,128.292,130.052,128.182,129.717Z" transform="translate(-112.372 -106.264)" fill="#fff"/>
        <path id="Path_17734" data-name="Path 17734" d="M117.415,116.621v-3.1h3.376v3.1h3.587v3.67h-3.587v3.234h4.125v3.808h-3.183v3.633h2.646v3.771h-2.646v4.069a24.368,24.368,0,0,0,7.367.9q1.171,0,8.337-.4l-.62,4.3H128.37c-4.152,0-7.152-.57-8.957-1.7a10.71,10.71,0,0,1-3.05-3.234,51.118,51.118,0,0,1-1.268,5.838l-2.724-3.371A39.9,39.9,0,0,0,113.934,129l3.077.4c0,1.736-.055,3.371-.161,4.938a9.788,9.788,0,0,0,1.617,2.434v-9.439h-5.585v-3.808h4.533v-3.234H113.64v-3.67Zm18.35-1.566V127.7H128.8V133.3c0,.634.3.932.946.932h2.535c.7,0,1.107-.735,1.19-2.237,0,0,.05-.9.188-2.733l3.045,1.034c-.294,3.739-.753,6.04-1.4,6.871a3.294,3.294,0,0,1-2.806.969H128.48a2.74,2.74,0,0,1-2.324-1.2,4.385,4.385,0,0,1-.726-2.7V115.055Zm-3.376,3.537H128.8v5.6h3.587Z" transform="translate(-112.372 -80.188)" fill="#fff"/>
      </g>
    </g>
    <rect id="Rectangle_11" data-name="Rectangle 11" width="154.485" height="0.767" transform="translate(262.01 247.3)" fill="gold"/>
    <rect id="Rectangle_12" data-name="Rectangle 12" width="154.485" height="0.767" transform="translate(262.01 308.251)" fill="gold"/>
    <g id="Group_4083" data-name="Group 4083" transform="translate(266.454 255.721)">
      <g id="Group_4081" data-name="Group 4081" transform="translate(0 2.921)">
        <g id="Group_4080" data-name="Group 4080">
          <path id="Path_17735" data-name="Path 17735" d="M138.789,109.1v2.6h-6.954v11.2h8.236v2.6H120.889v-2.6h8.061V111.7h-6.784v-2.6Z" transform="translate(-120.301 -109.099)" fill="gold"/>
          <path id="Path_17736" data-name="Path 17736" d="M129.58,115.674a26.37,26.37,0,0,1-2.889.864v2.512h2.719v2.444h-2.719v.533a19.786,19.786,0,0,1,2.976,2.577l-1.369,2.269a19.571,19.571,0,0,0-1.608-2.154v9h-2.453v-8.089a15.564,15.564,0,0,1-2.306,3.578l-1.171-2.935a11.29,11.29,0,0,0,3.321-4.777H121V119.05h3.238v-1.975c-.762.152-1.543.289-2.37.418l-.781-2.6a33.075,33.075,0,0,0,7.386-1.4Zm10.606,8.507a22.735,22.735,0,0,1-3.89.666v1.667h3.978v2.356H136.3v1.911h4.648V133.2h-12.3v-2.421h4.933V128.87H129.41v-2.356h4.171v-1.442c-1.043.046-2.108.064-3.238.064l-.762-2.531a54.235,54.235,0,0,0,9.586-.689Zm-.243-10.151v7.551H130.08V114.03Zm-2.65,2.421h-4.561v2.687h4.561Z" transform="translate(-120.761 -93.296)" fill="gold"/>
        </g>
      </g>
      <g id="Group_4082" data-name="Group 4082" transform="translate(24.33)">
        <path id="Path_17737" data-name="Path 17737" d="M144.1,108.689a20.418,20.418,0,0,1,9.783,2.2,14.816,14.816,0,0,1,6.343,6.724q2.239,4.527,2.241,12.6,0,8.164-2.274,12.7a15.018,15.018,0,0,1-6.118,6.669,19.765,19.765,0,0,1-9.7,2.131,20.5,20.5,0,0,1-9.834-2.145,14.912,14.912,0,0,1-6.237-6.518q-2.26-4.375-2.255-12.452,0-11.278,4.4-16.347Q135.361,108.687,144.1,108.689Zm.23,7.409a7.235,7.235,0,0,0-7.386,5.627,30.515,30.515,0,0,0-1.024,9.053q0,7.772,2.343,10.739a7.374,7.374,0,0,0,6.068,2.963,6.761,6.761,0,0,0,5.7-2.811q2.563-3.4,2.568-11.363,0-8.082-2.306-11.143A7.135,7.135,0,0,0,144.334,116.1Z" transform="translate(-126.058 -107.651)" fill="gold" stroke="gold" stroke-width="0.23"/>
        <path id="Path_17738" data-name="Path 17738" d="M151.074,110.012a55.114,55.114,0,0,1-4.125,9.655v30.577h-5.663V128.118a52.734,52.734,0,0,1-4.3,4.8l-2.191-7.064a41.6,41.6,0,0,0,10.44-17.321Zm13.16,7.39v-8.5h5.838v8.5h4.648v5.59h-4.648v22.539c0,3-1.534,4.524-4.607,4.524h-7.372l-1.052-5.957c3.684.276,5.659.372,6.008.372.79,0,1.185-.418,1.185-1.3V122.992H149.361V117.4Zm-2.545,18.382-5.484,2.907a71.583,71.583,0,0,0-5.484-12.654l4.961-1.8A69.14,69.14,0,0,1,161.689,135.784Z" transform="translate(-94.661 -108.211)" fill="gold"/>
        <path id="Path_17739" data-name="Path 17739" d="M152.093,136.775a54.331,54.331,0,0,1-3.422,11.363l-4.961-2.545a41.931,41.931,0,0,0,3.95-9.93Zm14.257-6.513v4.529H158.8v11.175c0,3-1.226,4.529-3.6,4.529h-3.95l-.7-5.406c1.18.092,1.883.138,2.058.138a.924.924,0,0,0,1.056-1.061v-9.375H144.72v-4.529Zm-13.38-18.938v-2.862H158.1v2.862h7.721v4.713H158.1v1.984h6.187v3.463a25.912,25.912,0,0,0,4.258-12.7l5.305.74c-.216,1.846-.524,3.6-.877,5.218h11.014v3.973a46.518,46.518,0,0,1-2.765,11.363l-5.305-1.8a30.949,30.949,0,0,0,2.453-8.268H171.4a30.931,30.931,0,0,1-4.212,7.758l-2.9-2.724v3.234H146.3v-4.295h16.848l-.4-.372a13.477,13.477,0,0,0,.965-1.291H146.434v-4.3h6.536v-1.984h-8.075v-4.713Zm13.205,29.98L161.7,143.61a37.848,37.848,0,0,0-2.237-6.467l3.945-1.479A35.215,35.215,0,0,1,166.175,141.3Zm9.568-17.693c0,2.219-.133,4.341-.308,6.283a23.69,23.69,0,0,0,2.894,7.294,29,29,0,0,0,6.844,8.222l-3.776,5.452a45.811,45.811,0,0,1-6.756-9.558,20.579,20.579,0,0,1-1.185-2.361,36.148,36.148,0,0,1-6.973,11.919l-3.9-5.268a18.488,18.488,0,0,0,6.008-8.125,44.166,44.166,0,0,0,2.021-14.225Z" transform="translate(-62.631 -108.463)" fill="gold"/>
      </g>
    </g>
    <g id="Group_4085" data-name="Group 4085" transform="translate(82.865 323.002)">
      <g id="Group_4084" data-name="Group 4084">
        <path id="Path_17740" data-name="Path 17740" d="M85.338,123.722c-.124.533-.262,1.038-.386,1.461h1.383c-.161-.505-.322-.983-.505-1.461l2.14-.611a14.25,14.25,0,0,1,.611,2.072h1.612v2.072H88.135V128.4h1.589v2.072H88.135v1.249h1.75v2.072h-1.75v1.249h2.14v2.177H82.4V131.03c-.266.423-.533.822-.795,1.194l-.818-3.11a16.891,16.891,0,0,0,2.489-6Zm12.034,14.317v2.071a14.449,14.449,0,0,1-3.693,3.426,31.976,31.976,0,0,0,5.833.533l-.877,3.321a31.867,31.867,0,0,1-8.033-2.1,29.511,29.511,0,0,1-8.856,2.1l-.955-3.427a32.7,32.7,0,0,0,6.568-.533,19.438,19.438,0,0,1-3.325-2.894H82.155v-2.5ZM86.05,127.254H84.626V128.4H86.05Zm0,3.215H84.626v1.249H86.05Zm-1.424,4.57H86.05V133.79H84.626Zm5.81,7.436a12.519,12.519,0,0,0,3.123-1.938h-6.1A15.191,15.191,0,0,0,90.437,142.476Zm3.592-18.754c-.124.533-.225,1.01-.349,1.461h1.3c-.161-.45-.363-.9-.57-1.355l2.246-.634a13.659,13.659,0,0,1,.652,1.989h1.9v2.072H97.046V128.4H98.8v2.072H97.046v1.249H98.8v2.072H97.046v1.249h2.241v2.177H91.07v-5.842c-.165.262-.326.533-.468.744l-.716-2.9a18.1,18.1,0,0,0,2.223-6.109Zm.877,3.532H93.317V128.4h1.589Zm0,3.215H93.317v1.249h1.589Zm-1.589,4.57h1.589V133.79H93.317Z" transform="translate(-80.791 -123.111)" fill="#fff"/>
        <path id="Path_17741" data-name="Path 17741" d="M90.535,125.752H93v2.816h-7.79v-2.816H87.78c-.119-.85-.262-1.594-.423-2.283l2.953-.317C90.393,124.025,90.457,124.9,90.535,125.752Zm1.672,4.037v2.71h-6.2v-2.71Zm0,3.959v2.682h-6.2v-2.682Zm.083,13.173h-2.3v-1.139H88.312v1.355H86.007v-9.352H92.29Zm-2.3-3.638V140.5H88.312v2.788Zm13.7-19.388v2.788H98.858l-.248,1.778h4.2v5.075h1.346v2.894H92.777v-2.894H95.39l.308-2.283H93.411v-2.793h2.655l.243-1.778H93.25V123.9Zm-.629,23.347h-2.554v-1.249H96.2v1.249H93.654V138h9.407Zm-2.554-3.959v-2.577H96.2v2.577Zm-.078-9.747v-2.283H98.247l-.308,2.283Z" transform="translate(-64.906 -122.964)" fill="#fff"/>
        <path id="Path_17742" data-name="Path 17742" d="M104.705,137.046v1.86a20.08,20.08,0,0,1-3.633,2.072h6.977v2.71H100.4v1.75a1.851,1.851,0,0,1-2.081,1.888H94.894l-.326-2.6c1.511.078,2.366.106,2.549.106.367,0,.574-.211.574-.634v-.505H89.713v-2.71h7.978v-.505a13.013,13.013,0,0,0,2.632-1.144H93.139v-2.283ZM96.1,125.729a17.673,17.673,0,0,1-2.995.717l.018.744h2.572v2.283H93.222l.041,1.038h2.43V131.7a7.728,7.728,0,0,0,1.75-.85c-.487-.4-.937-.767-1.346-1.089l1-1.116c-.165.083-.326.133-.45.188l-.795-2.177a7.538,7.538,0,0,0,1.713-.749c-.491-.473-.937-.928-1.387-1.323l1.263-1.461c.657.556,1.263,1.084,1.8,1.566a9.58,9.58,0,0,0,1.245-1.461l1.18,1.272v-.744h5.59l-.652,9.963h1.038v5.925h-2.466v-3.426H92.428v3.426H89.961v-5.925h.978l-.349-9.352a14.992,14.992,0,0,0,4.63-1.139Zm.142,8-.547-1.516v.588H93.365l.041.928Zm4.083,0c-.473-.505-.9-.955-1.309-1.382a11.259,11.259,0,0,1-2.223,1.382Zm-1.268-4.143a7.1,7.1,0,0,0,.9-.983c-.322-.372-.629-.744-.914-1.116a8.627,8.627,0,0,1-1.511.955C98.054,128.838,98.569,129.21,99.056,129.582Zm2.774.822h2.49l.06-.932H101.83v-2.177h2.692l.083-1.033h-2.94v-1.355a10.806,10.806,0,0,1-1,1.167c.367.4.694.772,1,1.116l-.836,1.3.919.978a10.18,10.18,0,0,1-1.144,1.383c.45.427.859.8,1.226,1.144Zm2.223,3.321.078-1.033h-2.3v-.266l-.836,1.3Z" transform="translate(-48.733 -123.046)" fill="#fff"/>
        <path id="Path_17743" data-name="Path 17743" d="M98.12,133.395h2.715v-.533h2.14v.533h1.511v1.86h-1.511v2.283h-2.466v.638h3.67v4.249h-3.67v.717h3.753a16.046,16.046,0,0,0,.712-4.965v-4.887h7.161v11c0,1.649-.51,2.5-1.511,2.5H108.4l-.409-3,1.286.083c.409,0,.634-.188.634-.611v-.932h-3.022a20.806,20.806,0,0,1-1.364,4.97l-1.773-1.97h-3.243v1.86H98.285v-1.86H94.064v-2.177h4.221v-.717H94.776v-4.249h3.509v-.638H95.961v-2.283H94.45v-1.86h1.511v-.533H98.12Zm13.463-10.174v2.388h-6.853v.721h7.73v5.5H109.91v-3.509h-5.181v4.359H102.18v-4.359H97.164v3.615H94.615v-5.6h7.565v-.721H95.405v-2.388Zm-13.3,16.71h-1.53v.717h1.53Zm3.426-10.89V130.5H97.49v-1.456Zm0,2.072v1.461H97.49v-1.461Zm-3.592,4.143v.822h2.715v-.822Zm4.06,4.676h-1.672v.717h1.672Zm7.322-8.819v1.461H105.28v-1.461Zm0-2.072V130.5h-4.143v-1.456Zm.409,11.207V139h-2.733c-.023.455-.041.877-.064,1.249Zm0-3.321v-1.249H107.2v1.249Z" transform="translate(-33.099 -122.716)" fill="#fff"/>
        <path id="Path_17744" data-name="Path 17744" d="M105.037,148.673l-3.316-1.957,3.592-8.277a5.565,5.565,0,0,1-4.437-2.214,8.326,8.326,0,0,1-1.828-5.5,8.039,8.039,0,0,1,1.874-5.392,5.771,5.771,0,0,1,9.131.083,8.139,8.139,0,0,1,1.846,5.259,9.282,9.282,0,0,1-.285,2.255,25.614,25.614,0,0,1-1.314,3.491Zm.482-14.615a2.231,2.231,0,0,0,1.824-.937,3.636,3.636,0,0,0,.744-2.329,3.681,3.681,0,0,0-.776-2.375,2.28,2.28,0,0,0-1.8-.955,2.353,2.353,0,0,0-1.869.951,3.607,3.607,0,0,0-.781,2.365,3.648,3.648,0,0,0,.758,2.342A2.361,2.361,0,0,0,105.52,134.058Z" transform="translate(-15.191 -123.025)" fill="#fff"/>
        <path id="Path_17745" data-name="Path 17745" d="M109.984,123.722c-.225.717-.468,1.41-.717,2.071h11.625v3.11h-5.728v2.71h5.259v3.105h-5.259v4.253h6.361v3.211h-6.361v5.392h-2.715v-5.392H102.8v-3.211h3.2v-6.986a18.843,18.843,0,0,1-1.451,1.805l-1.589-3.1a17.056,17.056,0,0,0,4.143-7.574Zm2.467,5.181H107.9a31.574,31.574,0,0,1-1.631,2.71h6.178Zm0,5.815h-3.812v4.253h3.812Z" transform="translate(-1.691 -123.111)" fill="#fff"/>
        <path id="Path_17746" data-name="Path 17746" d="M115.637,123.616c-.207.533-.432,1.01-.634,1.461h6.362v2.177a15.728,15.728,0,0,1-1.488,3h4.446v8.819h-4.465v3.955c0,.638.225.932.629.932h2.223a.573.573,0,0,0,.551-.294,9.223,9.223,0,0,0,.266-2.738l2.549.749c-.161,2.306-.446,3.8-.9,4.487a2.092,2.092,0,0,1-1.9.795h-4.143c-1.282,0-1.915-1.006-1.915-3v-4.887h-.3A14.205,14.205,0,0,1,115.531,142a13.226,13.226,0,0,1-6.913,5.5l-1.2-3.321a10.123,10.123,0,0,0,6.283-4.543,5.5,5.5,0,0,0,.3-.556h-4.258v-6.536c-.372.372-.758.717-1.125,1.038l-1.428-2.894a16.516,16.516,0,0,0,5.732-7.574Zm1.18,6.642a13.538,13.538,0,0,0,1.428-2.5h-4.671a24.793,24.793,0,0,1-1.755,2.5Zm-1.1,2.71h-3.426v3.426h2.774A22.609,22.609,0,0,0,115.715,132.968Zm6.058,0h-3.486a33.1,33.1,0,0,1-.593,3.426h4.079Z" transform="translate(14.065 -123.111)" fill="#fff"/>
        <path id="Path_17747" data-name="Path 17747" d="M113.915,127.718v-4.46H116.3v4.46h1.589v3.027H116.3v3.376c.446-.156.9-.372,1.346-.583l.161,3.11c-.487.262-1,.5-1.507.717v6.959c0,1.722-.652,2.6-1.92,2.6H112.4l-.487-3.422c.919.156,1.429.211,1.511.211.326,0,.487-.239.487-.744v-4.621c-.652.262-1.327.478-2,.689l-.243-3.532a16.677,16.677,0,0,0,2.241-.56v-4.2H112v-3.027Zm11.5-2.283h4.267v2.71h-1.47c-.184,1.01-.39,1.938-.611,2.788h2.489v2.816h-7.243l1.571.321c-.2.606-.409,1.194-.611,1.75h6.2v2.71h-1.364a19.3,19.3,0,0,1-2,3.826c1.121.556,2.264,1.167,3.449,1.86l-1.594,2.921a35.8,35.8,0,0,0-3.835-2.655,16.149,16.149,0,0,1-6.444,2.655l-.877-3.215a11.686,11.686,0,0,0,4.529-1.011c-1.121-.556-2.287-1.089-3.486-1.594a28.991,28.991,0,0,0,1.47-2.788h-1.879v-2.71h3.018q.4-1.034.735-2.072h-3.835v-2.816h2.489c-.225-1.011-.469-1.938-.712-2.788H118.3v-2.71h4.161c-.124-.717-.266-1.383-.427-1.966l3.119-.317C125.233,123.924,125.339,124.691,125.417,125.435Zm-2.728,13.1c-.266.583-.533,1.171-.818,1.755.735.266,1.488.583,2.264.9a11.61,11.61,0,0,0,1.713-2.655Zm2.283-7.6q.338-1.275.611-2.788h-3.261c.243.955.469,1.888.671,2.788Z" transform="translate(30.177 -122.964)" fill="#fff"/>
        <path id="Path_17748" data-name="Path 17748" d="M121.905,129.688a48.522,48.522,0,0,1-1.424,5.792h2.384a27.033,27.033,0,0,1-1.654,6.825,3.877,3.877,0,0,0,1.144.822c.818.427,2.715.638,5.65.666.776,0,3.1-.133,6.954-.427L134.491,147c-1.755.055-2.751.11-3,.11-5.158,0-8.419-.344-9.788-.988a7.665,7.665,0,0,1-1.736-1.35,25.466,25.466,0,0,1-1.975,2.733l-1.9-2.894a11.474,11.474,0,0,0,3.67-6.215h-2.65a51.306,51.306,0,0,0,1.713-5.82h-2.591v-2.894Zm-.161-2.71-2.163,2.177a20.531,20.531,0,0,0-2.935-4.249l2-1.778A24.915,24.915,0,0,1,121.745,126.978Zm6.178,0h1.1a22.034,22.034,0,0,0,1.635-3.849l2.545.85a18.081,18.081,0,0,1-1.286,3h1.86v2.894h-4v2.1c0,.294-.023.56-.023.827h4.488v3h-4.8a1.806,1.806,0,0,0-.037.239,32.047,32.047,0,0,1,4.993,4.648l-1.833,2.682a27.361,27.361,0,0,0-4.019-4.648c-.083.161-.165.317-.243.45a10.384,10.384,0,0,1-4.428,4.2l-1.428-3.1a7.538,7.538,0,0,0,3.569-2.926,6.717,6.717,0,0,0,.675-1.539h-3.693v-3h4.138c0-.266.023-.533.023-.827v-2.1h-3.835v-2.894h1.837a26.74,26.74,0,0,0-1.369-3l2.632-.744A17.631,17.631,0,0,1,127.922,126.978Z" transform="translate(46.062 -123.046)" fill="#fff"/>
      </g>
    </g>
    <g id="Group_4086" data-name="Group 4086" transform="translate(270.358 322.634)">
      <path id="Path_17749" data-name="Path 17749" d="M128.271,123.031a5.4,5.4,0,0,1,3.615,1.286,8.25,8.25,0,0,1,2.342,3.941,25.839,25.839,0,0,1,.827,7.381,25.738,25.738,0,0,1-.841,7.432,8.539,8.539,0,0,1-2.255,3.909,5.228,5.228,0,0,1-3.583,1.245,5.409,5.409,0,0,1-3.633-1.254,8.241,8.241,0,0,1-2.3-3.817,24.7,24.7,0,0,1-.831-7.289q0-6.607,1.626-9.572A5.558,5.558,0,0,1,128.271,123.031Zm.087,4.336a2.208,2.208,0,0,0-1.635.744,5.254,5.254,0,0,0-1.093,2.554,28.112,28.112,0,0,0-.377,5.3q0,4.554.863,6.288c.579,1.158,1.323,1.736,2.242,1.736a2.366,2.366,0,0,0,2.1-1.644q.951-1.991.951-6.656,0-4.726-.85-6.522C129.993,127.969,129.259,127.367,128.358,127.367Z" transform="translate(-121.611 -123.031)" fill="gold"/>
      <path id="Path_17750" data-name="Path 17750" d="M129.14,129.553h-3.5a8.234,8.234,0,0,1,1.52-4.272,5.335,5.335,0,0,1,4.386-2.251,4.981,4.981,0,0,1,3.95,1.874,6.645,6.645,0,0,1,1.6,4.451,6.179,6.179,0,0,1-.7,2.921,5.475,5.475,0,0,1-2.026,2.136,5.284,5.284,0,0,1,2.728,2.278,7.2,7.2,0,0,1,.983,3.822,8.163,8.163,0,0,1-1.9,5.471,6.058,6.058,0,0,1-4.841,2.242,5.626,5.626,0,0,1-4.543-2.113,9.4,9.4,0,0,1-1.925-5.746h3.606a5.045,5.045,0,0,0,1.034,2.765,2.587,2.587,0,0,0,2.021.9,2.622,2.622,0,0,0,2.117-1.029,3.834,3.834,0,0,0,.841-2.512,3.719,3.719,0,0,0-1.135-2.751,4.53,4.53,0,0,0-3.266-1.162v-3.913a4.844,4.844,0,0,0,1.957-.514,2.639,2.639,0,0,0,1.006-1.052,2.938,2.938,0,0,0,.354-1.415,2.419,2.419,0,0,0-.547-1.626,1.788,1.788,0,0,0-1.429-.643,2.029,2.029,0,0,0-1.419.592A3.066,3.066,0,0,0,129.14,129.553Z" transform="translate(-109.89 -123.031)" fill="gold"/>
      <path id="Path_17751" data-name="Path 17751" d="M128.449,126.01h6.614v4.138h-6.614Z" transform="translate(-97.041 -112.327)" fill="gold"/>
      <path id="Path_17752" data-name="Path 17752" d="M134.586,131.363h-3.555a10.068,10.068,0,0,1,1.947-6.109,5.693,5.693,0,0,1,4.625-2.223,5.284,5.284,0,0,1,3.082.923,6.355,6.355,0,0,1,2.131,2.655,8.316,8.316,0,0,1,.8,3.532,12.577,12.577,0,0,1-.974,4.6,25.276,25.276,0,0,1-3.546,5.824l-2.15,2.839h6.821v4.221H130.512v-2.186l5.921-7.565a21.6,21.6,0,0,0,2.857-4.382A7.69,7.69,0,0,0,140,130.5a3.521,3.521,0,0,0-.739-2.292,2.355,2.355,0,0,0-3.844.188A5.273,5.273,0,0,0,134.586,131.363Z" transform="translate(-89.628 -123.031)" fill="gold"/>
      <path id="Path_17753" data-name="Path 17753" d="M133.986,123.162h12.562v2.4L137.9,147.754l-3.077-1.87,7.193-18.432h-8.033Z" transform="translate(-77.146 -122.56)" fill="gold"/>
      <path id="Path_17754" data-name="Path 17754" d="M139.492,123.162h5.457v23.99h-3.619v-19.7h-3.945Z" transform="translate(-64.936 -122.56)" fill="gold"/>
      <path id="Path_17755" data-name="Path 17755" d="M149.007,123.031h3.633v15.442h1.7V142.7h-1.7v4.924h-3.564V142.7h-8.355v-4.226Zm.069,15.442v-8.038l-4.373,8.038Z" transform="translate(-52.946 -123.031)" fill="gold"/>
      <path id="Path_17756" data-name="Path 17756" d="M148.3,129.553h-3.5a8.234,8.234,0,0,1,1.52-4.272,5.341,5.341,0,0,1,4.387-2.251,4.99,4.99,0,0,1,3.955,1.874,6.664,6.664,0,0,1,1.594,4.451,6.179,6.179,0,0,1-.7,2.921,5.5,5.5,0,0,1-2.021,2.136,5.273,5.273,0,0,1,2.724,2.278,7.2,7.2,0,0,1,.983,3.822,8.164,8.164,0,0,1-1.9,5.471,6.058,6.058,0,0,1-4.841,2.242,5.632,5.632,0,0,1-4.543-2.113,9.4,9.4,0,0,1-1.925-5.746h3.606a5.08,5.08,0,0,0,1.033,2.765,2.59,2.59,0,0,0,2.026.9,2.62,2.62,0,0,0,2.113-1.029,3.834,3.834,0,0,0,.841-2.512,3.732,3.732,0,0,0-1.13-2.751,4.55,4.55,0,0,0-3.27-1.162v-3.913a4.891,4.891,0,0,0,1.961-.514,2.659,2.659,0,0,0,1-1.052,2.943,2.943,0,0,0,.358-1.415,2.442,2.442,0,0,0-.547-1.626,1.8,1.8,0,0,0-1.433-.643,2.045,2.045,0,0,0-1.419.592A3.06,3.06,0,0,0,148.3,129.553Z" transform="translate(-41.074 -123.031)" fill="gold"/>
      <path id="Path_17757" data-name="Path 17757" d="M151.547,129.553h-3.5a8.234,8.234,0,0,1,1.525-4.272,5.335,5.335,0,0,1,4.386-2.251,4.981,4.981,0,0,1,3.95,1.874,6.641,6.641,0,0,1,1.594,4.451,6.177,6.177,0,0,1-.694,2.921,5.475,5.475,0,0,1-2.026,2.136,5.284,5.284,0,0,1,2.728,2.278,7.2,7.2,0,0,1,.983,3.822,8.164,8.164,0,0,1-1.9,5.471,6.059,6.059,0,0,1-4.841,2.242,5.626,5.626,0,0,1-4.543-2.113,9.431,9.431,0,0,1-1.929-5.746h3.606a5.045,5.045,0,0,0,1.038,2.765,2.587,2.587,0,0,0,2.021.9,2.622,2.622,0,0,0,2.117-1.029,3.833,3.833,0,0,0,.841-2.512,3.719,3.719,0,0,0-1.134-2.751,4.538,4.538,0,0,0-3.266-1.162v-3.913a4.866,4.866,0,0,0,1.957-.514,2.671,2.671,0,0,0,1.006-1.052,2.991,2.991,0,0,0,.354-1.415,2.419,2.419,0,0,0-.547-1.626,1.788,1.788,0,0,0-1.429-.643,2.047,2.047,0,0,0-1.424.592A3.093,3.093,0,0,0,151.547,129.553Z" transform="translate(-29.396 -123.031)" fill="gold"/>
      <path id="Path_17758" data-name="Path 17758" d="M161.1,134.615a6.893,6.893,0,0,1,2.012,2.687,8.827,8.827,0,0,1,.712,3.546,8.917,8.917,0,0,1-.827,3.835,6.13,6.13,0,0,1-2.219,2.655,6.5,6.5,0,0,1-3.555.887,6.909,6.909,0,0,1-3.684-.854,5.985,5.985,0,0,1-2.186-2.6,9.087,9.087,0,0,1-.818-3.927,8.745,8.745,0,0,1,.657-3.45,8.045,8.045,0,0,1,1.97-2.783,8.032,8.032,0,0,1-1.3-2.324,7.733,7.733,0,0,1-.436-2.6,7.916,7.916,0,0,1,.721-3.413,5.69,5.69,0,0,1,2.026-2.4,5.351,5.351,0,0,1,3-.854,5.138,5.138,0,0,1,2.958.864,5.787,5.787,0,0,1,2.007,2.453,8.012,8.012,0,0,1,.739,3.413,7.174,7.174,0,0,1-.386,2.388A9.5,9.5,0,0,1,161.1,134.615Zm-3.89,2.439a2.867,2.867,0,0,0-2.214,1,3.481,3.481,0,0,0-.9,2.393,3.669,3.669,0,0,0,.845,2.453,2.763,2.763,0,0,0,2.228,1,2.811,2.811,0,0,0,2.219-.937,3.526,3.526,0,0,0,.827-2.421,3.7,3.7,0,0,0-.859-2.489A2.725,2.725,0,0,0,157.206,137.054Zm-.142-9.623a1.8,1.8,0,0,0-1.479.744,2.97,2.97,0,0,0-.579,1.892,3.026,3.026,0,0,0,.616,1.934,1.865,1.865,0,0,0,3.022.018,3.148,3.148,0,0,0,.593-1.984,2.844,2.844,0,0,0-.6-1.879A1.946,1.946,0,0,0,157.063,127.431Z" transform="translate(-17.693 -123.031)" fill="gold"/>
    </g>
  </g>
</svg>
