<svg xmlns="http://www.w3.org/2000/svg" width="244.932" height="244.932" viewBox="0 0 244.932 244.932">
  <g id="section7_imgicon1_lg" transform="translate(-12382.727 -8353.728)">
    <circle id="Ellipse_2" data-name="Ellipse 2" cx="122.466" cy="122.466" r="122.466" transform="translate(12382.727 8353.728)" fill="#fff"/>
    <g id="Group_128" data-name="Group 128" transform="translate(12443.292 8384.902)">
      <path id="Path_619" data-name="Path 619" d="M132.365,2200.91c-1.949,1.892-4.7,2.8-8.287,2.8h-6.064v-24.043h6a11.332,11.332,0,0,1,8.225,2.944c2.161,2.145,3.275,5.2,3.275,9.131Q135.516,2197.857,132.365,2200.91Zm-8.66-17.02h-1.731V2199.5h2.939c4.3,0,6.463-2.582,6.463-7.749C131.376,2186.507,128.805,2183.89,123.705,2183.89Z" transform="translate(-118.015 -2178.163)" fill="#72adb6"/>
      <path id="Path_620" data-name="Path 620" d="M130.739,2197.926l-.031-1.088a4.143,4.143,0,0,1-3.213,1.451,5.01,5.01,0,0,1-4.27-1.929,8.2,8.2,0,0,1-1.358-5.094v-10.178h3.711v10.764c0,1.674.741,2.473,2.285,2.473a2.345,2.345,0,0,0,1.98-.979,4.164,4.164,0,0,0,.71-2.478v-9.779h3.68v12.292a37.474,37.474,0,0,0,.4,4.545Z" transform="translate(-101.908 -2172.231)" fill="#72adb6"/>
      <path id="Path_621" data-name="Path 621" d="M130.743,2184.961a1.611,1.611,0,0,0-1.518.979,4.04,4.04,0,0,0-.492,2.067V2198.2h-3.555v-12.256c0-.84-.124-2.369-.373-4.552h3.68v1.095a3.039,3.039,0,0,1,2.415-1.493,6.255,6.255,0,0,1,1.85.363v4.073A7.24,7.24,0,0,0,130.743,2184.961Z" transform="translate(-89.62 -2172.645)" fill="#72adb6"/>
      <path id="Path_622" data-name="Path 622" d="M140.328,2186.012v7.162a20.15,20.15,0,0,1-.43,5.022,6.2,6.2,0,0,1-2.571,3.414,7.026,7.026,0,0,1-3.861,1.093c-3.991,0-6.095-1.813-6.276-5.383h3.586c.181.984,1.109,1.492,2.752,1.492a3.011,3.011,0,0,0,2.1-.833,3.5,3.5,0,0,0,1.021-2.255,5.311,5.311,0,0,1-3.306,1.275,6.14,6.14,0,0,1-4.887-2.109,8.157,8.157,0,0,1-1.85-5.6,9.571,9.571,0,0,1,1.731-6.007,5.853,5.853,0,0,1,4.944-2.291,4.321,4.321,0,0,1,3.431,1.638l.031-1.161h3.8C140.391,2183.9,140.328,2185.427,140.328,2186.012Zm-4.514.067a2.813,2.813,0,0,0-2.348-1.16,2.6,2.6,0,0,0-2.322,1.2,5.072,5.072,0,0,0-.8,2.98,4.557,4.557,0,0,0,.834,2.84,2.665,2.665,0,0,0,2.322,1.051c2.1,0,3.151-1.311,3.151-3.963A5.023,5.023,0,0,0,135.814,2186.079Z" transform="translate(-82.087 -2172.645)" fill="#72adb6"/>
      <path id="Path_623" data-name="Path 623" d="M142.2,2196.2a6.393,6.393,0,0,1-5.255,2.508,6.275,6.275,0,0,1-5.291-2.545,9.72,9.72,0,0,1-1.944-6.293,9.953,9.953,0,0,1,1.98-6.368,6.264,6.264,0,0,1,5.255-2.509,6.473,6.473,0,0,1,5.286,2.582,11.126,11.126,0,0,1-.031,12.625Zm-2.69-9.677a2.942,2.942,0,0,0-2.565-1.528,2.794,2.794,0,0,0-2.534,1.42,6.328,6.328,0,0,0-.9,3.456,6.031,6.031,0,0,0,.84,3.343,2.851,2.851,0,0,0,2.6,1.493,2.9,2.9,0,0,0,2.565-1.493,6.152,6.152,0,0,0,.866-3.343A6.351,6.351,0,0,0,139.51,2186.52Z" transform="translate(-69.1 -2172.645)" fill="#72adb6"/>
      <path id="Path_624" data-name="Path 624" d="M135.541,2183.776v-4.4h2.731v4.4h1.881v3.213h-1.881v4.54c.549-.233,1.078-.472,1.581-.73l.373,2.771c-.653.41-1.306.824-1.954,1.208v7.074a6.2,6.2,0,0,1-.58,3.192,2.789,2.789,0,0,1-2.457.969,7.09,7.09,0,0,1-1.85-.24l-.5-3.244a5.784,5.784,0,0,0,1.98.358.568.568,0,0,0,.554-.358,7.111,7.111,0,0,0,.124-1.472v-4.9c-.555.269-1.1.5-1.658.735l-1-3.327c.9-.3,1.8-.591,2.659-.918v-5.664h-2.462v-3.213Zm11.552-4.4v11.651a33.065,33.065,0,0,1-1.151,8.936,20.665,20.665,0,0,1-2.659,6.047l-2.457-2.213a18.887,18.887,0,0,0,2.534-5.395c-.98.414-1.985.8-3.037,1.149l-.974-3.333a43.714,43.714,0,0,0,4.737-1.388c.1-.709.176-1.415.223-2.183h-3.483v-3.244h3.535v-2.772h-3.633v-3.213h3.633v-4.043Zm4.317,0v4.043h3.809v3.213H151.41v2.772h3.809v3.244H151.41v3.215h4.208v3.212H151.41v6.935h-2.861V2179.38Z" transform="translate(-55.833 -2179.38)" fill="#72adb6"/>
      <path id="Path_625" data-name="Path 625" d="M146.664,2185.366v2.54a39.908,39.908,0,0,1-2.778,10.144,14.167,14.167,0,0,1-4.664,5.99l-1.477-3.217a10.931,10.931,0,0,0,3.882-4.986,30.43,30.43,0,0,0,2.006-7.1h-5.089v-3.365Zm4.011-5.986v5.691a32.162,32.162,0,0,0,1.358,3.364,22.831,22.831,0,0,0,1.9-1.769,21.741,21.741,0,0,0,2.907-3.6l2.358,2.3a24.323,24.323,0,0,1-3.234,4.043,27.056,27.056,0,0,1-2.482,2.12c.3.622.627,1.213.979,1.8a22.532,22.532,0,0,0,6.115,7.136l-1.679,3.689a25.337,25.337,0,0,1-5.063-5.871,35.6,35.6,0,0,1-3.161-6.162v9.26a6.985,6.985,0,0,1-.6,3.479,3.078,3.078,0,0,1-2.633,1.036,13.707,13.707,0,0,1-3.607-.477l-.5-3.447a12.465,12.465,0,0,0,3.711.554.526.526,0,0,0,.549-.379,5.73,5.73,0,0,0,.15-1.565V2179.38Z" transform="translate(-35.494 -2179.38)" fill="#72adb6"/>
      <path id="Path_626" data-name="Path 626" d="M126.421,2198.041v9.561a5.9,5.9,0,0,0,3.633,1.825,46.567,46.567,0,0,0,7.618.358,26.784,26.784,0,0,0,5.97-.566,17.455,17.455,0,0,0-1.254,3.806h-7.344a21.818,21.818,0,0,1-6.4-.767,8.759,8.759,0,0,1-3.41-2.358c-.954,1.03-1.881,2.062-2.83,3.125-.606-1.209-1.228-2.327-1.881-3.359,1.026-.478,2.052-.949,3.058-1.478v-6.929h-2.659v-3.219Zm.2-3.125-1.881,2.653a21.512,21.512,0,0,0-3.306-3.451l1.855-2.3A19.361,19.361,0,0,1,126.618,2194.915Zm.1-5.751-1.881,2.657a21.538,21.538,0,0,0-3.312-3.338l1.855-2.326A19.131,19.131,0,0,1,126.721,2189.164Zm15.667-2.421v2.307a26.65,26.65,0,0,1-4.239,3.452h4.312v12.2c0,2.394-1.052,3.575-3.13,3.575-.555,0-1.156-.031-1.855-.093l-.477-3.131a8.645,8.645,0,0,0,2.332.358c.327,0,.5-.439.5-1.388v-.114H136.5v4.156h-2.633v-4.156h-3.234v4.482H127.97V2192.5h4.566c-.58-.628-1.176-1.244-1.8-1.835l1.3-1.032h-3.757v-2.892Zm-8.525,10.148v-1.384h-3.234v1.384Zm0,4.244v-1.472h-3.234v1.472Zm1.13-9.551a26.887,26.887,0,0,0,2.882-1.949h-4.54C133.94,2190.289,134.49,2190.936,134.992,2191.583Zm4.835,5.307v-1.384H136.5v1.384Zm0,4.244v-1.472H136.5v1.472Z" transform="translate(-107.504 -2151.035)" fill="#72adb6"/>
      <path id="Path_627" data-name="Path 627" d="M131.813,2201.134l-1.6,1.515h2.28v-4.163h2.856v4.163h2.685l-1.607-1.039a13.186,13.186,0,0,0,1.653-2.891l2.457.942a17.634,17.634,0,0,1-1.477,2.987h2.659v2.885h-4.939c1.9,1.181,3.685,2.27,5.312,3.333l-2.052,3.012c-1.529-1.3-3.084-2.566-4.69-3.866v4.9h-2.856v-5.433a15.232,15.232,0,0,1-1.228,1.271,22.768,22.768,0,0,1-4.54,3.006l-1.275-2.768a18.348,18.348,0,0,0,3.659-2.157,14.929,14.929,0,0,0,1.5-1.3H126.05v-2.885h2.8c-.446-.654-.954-1.3-1.451-1.951l2.353-1.978A29.06,29.06,0,0,1,131.813,2201.134Zm-.5-14.033c-.1.352-.2.7-.3,1.031H146.7v2.887H129.911c-.129.3-.254.565-.378.8H144.65v2.648H129.46V2192a19.342,19.342,0,0,1-1.358,2.357l-2.358-2.062a14.682,14.682,0,0,0,1.705-2.985,21.651,21.651,0,0,0,1.228-3.15Zm13.231,8.049c0,5.783.078,9.938.254,12.5.073,1.212.176,1.8.327,1.8.047,0,.073-.094.124-.321a29.739,29.739,0,0,0,.275-3.043l2.457,1.151c-.451,2.478-.98,4.011-1.581,4.716a1.775,1.775,0,0,1-1.275.709c-.907,0-1.607-.824-2.156-2.42q-1.018-3.535-1.182-12.209H127.4v-2.891Z" transform="translate(-86.922 -2151.035)" fill="#72adb6"/>
      <path id="Path_628" data-name="Path 628" d="M138.059,2207.431a25.133,25.133,0,0,1-6.369,4.163l-1.379-3.131a21.323,21.323,0,0,0,5.965-3.8Zm12.029-18.2a85.144,85.144,0,0,1-9.349,1.182c-1,1.772-1.928,3.306-2.8,4.634.674.467,1.327.88,1.98,1.3a56.419,56.419,0,0,0,4.213-5.721l3.027,1.6c-2.1,2.829-4.1,5.336-5.986,7.457q3.234-.179,6.012-.353c-.425-.711-.85-1.39-1.3-2.038l2.555-1.824a34.129,34.129,0,0,1,3.711,6.778l-2.633,1.861c-.249-.647-.523-1.295-.829-1.944-1.928.208-3.908.379-5.939.554v9.916h-2.928v-9.677c-2.711.239-5.519.415-8.427.56l-.5-3.333c2.057-.056,4.011-.15,5.867-.265.327-.327.627-.647.907-.979-1.783-1.233-3.612-2.534-5.493-3.83l1.783-2.534c.477.3.948.586,1.4.855.6-.917,1.13-1.834,1.633-2.771-1.529.083-3.11.144-4.711.176l-.881-3.219a107.2,107.2,0,0,0,17.32-1.383Zm-1,17.554a17.7,17.7,0,0,0,3.058,1.565l-1.653,3.327a19.813,19.813,0,0,1-3.058-1.887,22.611,22.611,0,0,1-3.306-2.95l1.85-2.419A19.677,19.677,0,0,0,149.087,2206.784Z" transform="translate(-66.587 -2150.75)" fill="#72adb6"/>
      <path id="Path_629" data-name="Path 629" d="M138.631,2203.793c-.347,2.8-.726,5.135-1.078,7.021l-2.529-.916q.6-3.446.974-6.9Zm3.436-16.248c-.928,2.058-1.8,3.861-2.607,5.395.249.177.477.353.726.53q.863-1.813,1.581-3.629l2.659,1.384c-1.254,2.658-2.431,5.016-3.56,7.054.451-.063.9-.093,1.327-.151-.1-.528-.223-1-.327-1.478l2.358-.673a30.986,30.986,0,0,1,1.078,5.4l-2.555.8c-.052-.41-.078-.825-.13-1.239-.321.056-.648.119-.948.151v11.827h-2.736v-11.418c-1,.118-2.026.239-3.032.353l-.5-3.125c.7-.026,1.4-.088,2.057-.151.451-.762.876-1.5,1.28-2.27-1.156-.969-2.332-1.976-3.535-2.975l1.576-2.306c.13.093.254.181.352.269a41.986,41.986,0,0,0,2.28-5.13Zm3.332,20.735-2.653.825a51.658,51.658,0,0,0-.777-5.872l2.457-.71A45.268,45.268,0,0,1,145.4,2208.281Zm7.447-21.891v2.888h4.887v3.1h-6.39c-.2.709-.456,1.508-.757,2.364-.269.767-.549,1.441-.8,2.038,1.477-.151,2.83-.327,4.084-.5-.275-.767-.549-1.478-.85-2.156l2.654-.912a33.993,33.993,0,0,1,2.358,7.021l-2.856,1.032c-.15-.742-.3-1.446-.451-2.125a1.946,1.946,0,0,1-.529.083v9.179c0,.647.052.969.15,1,.052.118.176.148.4.148.446,0,.726-.118.8-.357a4.025,4.025,0,0,0,.254-1.295c.047-.416.124-1.095.171-2.032l2.337,1.616c-.254,2.54-.632,4.049-1.078,4.515a1.184,1.184,0,0,1-.933.534,5.682,5.682,0,0,1-1.55.145,4.5,4.5,0,0,1-1.783-.3c-1.005-.177-1.5-1.321-1.5-3.389v-9.292c-.5.088-.954.146-1.4.2q-.109,6.732-1.151,8.938a12.027,12.027,0,0,1-3.135,4.189l-1.555-2.888a9.481,9.481,0,0,0,2.28-3.368,22.77,22.77,0,0,0,.829-6.515c-.6.088-1.182.151-1.731.207l-.5-3.243c.555-.033,1.1-.089,1.633-.151.326-.706.674-1.56,1.052-2.534.275-.767.523-1.478.726-2.157H145v-3.1h4.991v-2.888Z" transform="translate(-46.874 -2151.035)" fill="#72adb6"/>
    </g>
    <rect id="Rectangle_64" data-name="Rectangle 64" width="177.461" height="1.893" transform="translate(12416.462 8458.515)" fill="#72adb6"/>
    <g id="Group_129" data-name="Group 129" transform="translate(12416.623 8474.049)">
      <path id="Path_630" data-name="Path 630" d="M116.569,2205.834c.192,0,.285.073.285.224v4.2a2.039,2.039,0,0,0,.192.963.908.908,0,0,0,.435.514,2.164,2.164,0,0,0,.886.337,9.146,9.146,0,0,0,1.513.114h4.234a36.7,36.7,0,0,0,5.82-.529.812.812,0,0,1,.285-.057c.093,0,.15.037.15.074a11.066,11.066,0,0,0-.342,1.532c-.036.187-.13.307-.321.307h-9.826a8.316,8.316,0,0,1-1.213-.1,11.122,11.122,0,0,1-1.151-.284,3.411,3.411,0,0,1-.928-.53,3.519,3.519,0,0,1-.643-.927l-.036-.074c-.093,0-.15.021-.15.037a8.021,8.021,0,0,0-1.928,2.042c-.036.077-.073.13-.15.13s-.321-.316-.72-.937a.709.709,0,0,1-.093-.379,14.884,14.884,0,0,0,2.591-1.814.879.879,0,0,0,.073-.419v-3.25h-2.286c-.15,0-.228-.1-.228-.285v-.586c0-.185.078-.3.228-.3Zm-1.109-4.006c.487.395.9.752,1.264,1.058a.577.577,0,0,1-.093.15c-.384.527-.57.8-.591.8a15.971,15.971,0,0,0-1.715-1.341,7.629,7.629,0,0,0-1.228-.721,3.587,3.587,0,0,1,.586-.833c.057-.079.114-.131.15-.131C114.476,2201.186,115.025,2201.524,115.46,2201.828Zm.643-4.139c.451.336.866.641,1.208.906,0,.041-.036.077-.093.149-.378.549-.57.814-.57.814a19.461,19.461,0,0,0-1.643-1.172,7.255,7.255,0,0,0-1.171-.6,3.474,3.474,0,0,1,.586-.834c.057-.079.114-.135.15-.135C115.191,2197.144,115.7,2197.424,116.1,2197.689Zm11.054.206a20.756,20.756,0,0,1-2.12.4c-.28.035-.544.072-.788.092v1.474h4.415c.155,0,.228.1.228.284v.586c0,.207-.073.305-.228.305h-3.851a6.559,6.559,0,0,0,.757.658,7.806,7.806,0,0,0,1.565.927,10.8,10.8,0,0,0,2.612.907c.114.036.187.058.187.1a.269.269,0,0,1-.114.223,6.738,6.738,0,0,0-.736.657c-.078.1-.135.135-.192.135a8.106,8.106,0,0,1-1.907-.679,8.2,8.2,0,0,1-1.964-1.176,5.72,5.72,0,0,1-.772-.653v2.508h2.358a.616.616,0,0,1,.321.079c.228.19.342.335.342.45l-1.456,1.706h3.006c.093,0,.15.092.15.279a10.311,10.311,0,0,1-.285,2.478,2.883,2.883,0,0,1-.715,1.343c-.3.321-1.078.471-2.327.471-.658,0-1-.092-1-.321a3.346,3.346,0,0,0-.394-.871v-.134c.487.041.964.056,1.394.056a2.408,2.408,0,0,0,1.42-.279,1.679,1.679,0,0,0,.586-.888,4.479,4.479,0,0,0,.264-1.041h-3.021l-.42.492a.281.281,0,0,1-.223.094c-.7-.156-1.042-.3-1.042-.435l2.1-2.359h-3.084A11.469,11.469,0,0,1,122,2207.9a5.466,5.466,0,0,1-.658,1.736,3.821,3.821,0,0,1-.928.943,5.347,5.347,0,0,1-1.265.721,11.958,11.958,0,0,1-.871-.963,3.54,3.54,0,0,0,.871-.472,3.759,3.759,0,0,0,.923-.851,4.429,4.429,0,0,0,.627-1.462,9.162,9.162,0,0,0,.207-1.787H119.6c-.15,0-.228-.1-.228-.307v-.584a.2.2,0,0,1,.228-.229h3.327v-2.684c-.078.078-.13.114-.171.155a9.735,9.735,0,0,1-1.4,1.151,14.034,14.034,0,0,1-1.829,1,7.6,7.6,0,0,1-1.4.524c-.093,0-.171-.072-.228-.228-.187-.207-.378-.435-.606-.658a.379.379,0,0,1-.13-.207,18.25,18.25,0,0,0,2.286-.737,11.3,11.3,0,0,0,1.892-1.057,11.034,11.034,0,0,0,1-.871h-3.856c-.15,0-.207-.1-.207-.305v-.586c0-.186.057-.284.207-.284h4.441v-1.343a3,3,0,0,1-.565.062c-.985.072-1.892.093-2.685.093-.207,0-.321-.077-.363-.244-.166-.208-.337-.455-.529-.72,0-.128.078-.208.228-.208l1.021.057c1.021,0,1.928-.042,2.685-.119a10.053,10.053,0,0,0,2.042-.244,9.322,9.322,0,0,0,1.985-.544.853.853,0,0,1,.171-.041.667.667,0,0,1,.3.077c.679.605,1.021.965,1.021,1.1a.2.2,0,0,1-.228.223l-.513-.149A2.229,2.229,0,0,0,127.157,2197.9Z" transform="translate(-112.869 -2196.459)" fill="#72adb6"/>
      <path id="Path_631" data-name="Path 631" d="M120.657,2205c.228,0,.363.079.363.229v4.42c0,.229.021.528.057.892a3.5,3.5,0,0,0,.943,1.244,4.118,4.118,0,0,0,2.285.534h5.162c.456,0,1.208-.056,2.306-.177a19.707,19.707,0,0,0,2.306-.337c.073,0,.15-.02.228-.02a.141.141,0,0,1,.15.151c-.228.413-.435.818-.586,1.155-.041.265-.155.4-.378.4h-9.189a4.894,4.894,0,0,1-3.172-.985,5.134,5.134,0,0,1-1.005-1.528c-.643.621-1.187,1.166-1.679,1.7a.794.794,0,0,0-.472.644c0,.207-.057.316-.135.316-.057,0-.13-.053-.223-.167l-.948-1.378a10.155,10.155,0,0,0,2.628-1.776.664.664,0,0,0,.321-.665v-3.477h-2.285c-.156,0-.228-.094-.228-.285v-.6c0-.19.073-.285.228-.285Zm-1.073-3.461,1.285.948-.078.149a8.968,8.968,0,0,1-.586.821c-.565-.437-1.15-.851-1.757-1.233a11.442,11.442,0,0,0-1.27-.623,3.726,3.726,0,0,1,.591-.833c.057-.079.114-.131.15-.131C118.6,2200.978,119.149,2201.283,119.585,2201.543Zm.622-4.058c.492.341.907.62,1.27.865a.372.372,0,0,1-.1.17c-.378.528-.565.8-.565.8a15.339,15.339,0,0,0-1.741-1.12,8.684,8.684,0,0,0-1.228-.581,3.656,3.656,0,0,1,.586-.834c.062-.079.114-.135.155-.135A17.489,17.489,0,0,1,120.206,2197.485Zm11.3-.53c.187,0,.3.072.3.229v5.686h1.4c.228,0,.363.078.363.206v7.371c0,.307-.249.555-.72.7a6.889,6.889,0,0,1-1.8.284c-.13,0-.207-.072-.223-.223a4.391,4.391,0,0,0-.435-1.2c0-.037.036-.056.15-.056a6.669,6.669,0,0,0,1.436-.073.334.334,0,0,0,.264-.321v-5.6h-8.562v6.938c0,.15-.114.229-.3.229h-.736c-.192,0-.285-.079-.285-.229v-7.826c0-.128.093-.206.285-.206h1.265v-5.686c0-.156.093-.229.28-.229Zm-4.576,5.914v-2.82c0-.144.093-.223.285-.223h3.249v-1.756h-5.234v4.8Zm3.384,2.5c.192,0,.3.072.3.228v3.758c0,.156-.109.228-.3.228H125.6c-.192,0-.285-.072-.285-.228v-3.758c0-.156.093-.228.285-.228Zm-1.021,1.114h-2.664v1.98H129.3Zm1.171-3.612v-1.928H128.26v1.928Z" transform="translate(-96.963 -2196.293)" fill="#72adb6"/>
      <path id="Path_632" data-name="Path 632" d="M136.492,2196.837a.2.2,0,0,1,.228.223v.735c0,.208-.078.307-.228.307h-6.426v5.156h5.613a.2.2,0,0,1,.228.228v.736c0,.192-.078.284-.228.284h-5.613v6.216h7.162c.15,0,.228.077.228.211v.737c0,.191-.078.306-.228.306H120.841c-.15,0-.228-.114-.228-.306v-.737c0-.134.078-.211.228-.211h2.871v-8.936c0-.155.1-.227.306-.227.979,0,1.472.072,1.472.227,0,.172-.073.26-.187.281-.135.021-.192.154-.192.383v8.272h3.555V2198.1h-7.09c-.15,0-.223-.1-.223-.307v-.735a.2.2,0,0,1,.223-.223Z" transform="translate(-80.479 -2195.511)" fill="#72adb6"/>
      <path id="Path_633" data-name="Path 633" d="M132,2197.473c0,.109-.057.165-.135.165a.54.54,0,0,0-.337.114h5.934a.6.6,0,0,1,.337.079c.27.186.4.337.4.451L135.361,2201h3.648c.187,0,.28.077.28.228v9.754c0,.149-.093.206-.28.206h-2.27a11.138,11.138,0,0,0,1.57.831,20.466,20.466,0,0,0,2.892.969c.15.072.244.128.244.207,0,.109-.28.451-.809,1.015a2.81,2.81,0,0,1-.321-.035,27.172,27.172,0,0,1-5.354-2.515c-.114-.076-.166-.128-.166-.165,0-.062.052-.156.187-.307h-3.814a4.122,4.122,0,0,1,.757.742c0,.089-.078.13-.228.13-.269,0-.42.036-.435.093a33.823,33.823,0,0,1-5.54,2.057.337.337,0,0,1-.321-.165,1.861,1.861,0,0,0-.435-.535.333.333,0,0,1-.13-.237c0-.1.073-.156.223-.176a26.252,26.252,0,0,0,2.591-.809,13.289,13.289,0,0,0,2.306-1.1h-2.477c-.187,0-.285-.057-.285-.206v-9.754c0-.151.1-.228.285-.228h6.084l2.311-2.136h-5.582a10.152,10.152,0,0,1-1.907,1.229q-.847.483-2.892,1.363a.5.5,0,0,1-.358-.17c-.187-.13-.358-.286-.549-.435a.24.24,0,0,1-.13-.208c.715-.306,1.436-.643,2.156-.979a12.005,12.005,0,0,0,2.415-1.518,7.076,7.076,0,0,0,1.42-1.415c0-.1.036-.151.073-.151C131.505,2197.074,132,2197.374,132,2197.473Zm5.975,6.556v-1.834H128.52v1.834Zm0,3.042v-1.85H128.52v1.85Zm0,1.172H128.52v1.778h9.453Z" transform="translate(-64.402 -2196.581)" fill="#72adb6"/>
      <path id="Path_634" data-name="Path 634" d="M130.753,2202.971a30.607,30.607,0,0,1-.244,4.228,12.732,12.732,0,0,1-.606,2.606,6.2,6.2,0,0,1-.7,1.493c-.073,0-.15,0-.187-.037a5.76,5.76,0,0,0-.684-.472.324.324,0,0,1-.073-.228,8.061,8.061,0,0,0,.679-1.792,18.684,18.684,0,0,0,.435-2.478c.078-.907.135-2.021.135-3.321v-6c0-.128.073-.206.223-.206h14.915c.093,0,.15.078.15.206v.607c0,.191-.057.28-.15.28H130.753Zm7.318.43c.187,0,.3.057.3.149v4.556c0,.191-.228.342-.643.455a.4.4,0,0,1-.15.022h.057c.928,0,1.4.072,1.4.206,0,.188-.078.281-.192.281-.13.021-.187.155-.187.395h5.478c.078,0,.135.076.135.212v.586c0,.148-.057.227-.135.227h-5.478v1.188h6.727c.093,0,.15.057.15.208v.611c0,.186-.057.279-.15.279H130.167c-.114,0-.15-.093-.15-.279v-.611c0-.151.036-.208.15-.208h7.162v-1.187h-5.157c-.114,0-.15-.079-.15-.227v-.586c0-.136.036-.212.15-.212h5.157v-.675a.183.183,0,0,1,.155-.191,12.221,12.221,0,0,1-1.327.114.164.164,0,0,1-.187-.17,3.224,3.224,0,0,0-.342-.927c0-.017.041-.037.135-.037a7.37,7.37,0,0,0,1.265-.058c.15-.014.228-.073.228-.17v-.472h-4.421v1.549c0,.156-.114.229-.306.229h-.586c-.207,0-.3-.072-.3-.229v-4.877c0-.093.093-.149.3-.149Zm-.363-4.728c.192,0,.285.078.285.228v3.479c0,.154-.093.206-.285.206H132.38c-.187,0-.28-.051-.28-.206V2198.9c0-.15.093-.228.28-.228Zm-.451,6.2v-.663h-4.421v.663Zm0,1.343v-.685h-4.421v.685Zm-.435-5.919v-.812h-3.55v.813Zm0,.664h-3.55v.809h3.55Zm4.27.374c.042-.752.078-1.6.078-2.529,0-.228.036-.363.15-.363l1.078.1c.207,0,.321.077.321.206,0,.207-.078.321-.207.343-.155.015-.228.128-.228.321-.042.734-.057,1.378-.093,1.922H144.8c.073,0,.135.079.135.228v.585c0,.188-.062.286-.135.286H142.32a16.8,16.8,0,0,0,.834,2.1,8.72,8.72,0,0,0,1.036,1.813,3.779,3.779,0,0,0,1.042,1.037c0,.079-.057.135-.171.172a7.129,7.129,0,0,0-.622.663c-.078.093-.135.134-.171.134a7.882,7.882,0,0,1-1.285-1.646,11.565,11.565,0,0,1-.964-2,3.55,3.55,0,0,1-.207-.529,12.194,12.194,0,0,1-.643,2.095,5.205,5.205,0,0,1-1.322,1.926c-.135,0-.228-.02-.27-.072a3.248,3.248,0,0,0-.58-.436c-.135-.076-.192-.154-.192-.227a.208.208,0,0,1,.13-.208,6,6,0,0,0,1.135-1.627,7.352,7.352,0,0,0,.679-1.964c.078-.358.155-.772.228-1.229h-2.094c-.114,0-.155-.1-.155-.286v-.585c0-.149.041-.228.155-.228Zm3.5-1.944c.264.286.508.53.715.756,0,.022-.036.053-.073.131l-.513.683a7.712,7.712,0,0,0-1.622-1.548,3.033,3.033,0,0,1,.451-.644.2.2,0,0,1,.135-.1C144.041,2198.938,144.341,2199.186,144.59,2199.393Z" transform="translate(-48.496 -2195.803)" fill="#72adb6"/>
      <path id="Path_635" data-name="Path 635" d="M135.216,2200.46v-2.513a4.587,4.587,0,0,0-.073-.833.862.862,0,0,1-.078-.358c0-.078.114-.13.358-.13l1.492.186c.135.079.213.135.213.172,0,.114-.078.172-.213.172-.259.112-.373.393-.373.865v2.439h2.363c.15,0,.223.095.223.285v.608c0,.186-.073.279-.223.279h-2.363v4.177c.809-.393,1.586-.814,2.322-1.229a.19.19,0,0,1,.114-.058.136.136,0,0,1,.15.136,3.941,3.941,0,0,1-.073,1.041c-.834.486-1.684.938-2.514,1.352v5.221c0,.869-.663,1.326-1.985,1.326h-1.114c-.114,0-.155-.114-.155-.321a3,3,0,0,0-.358-.85c0-.114.036-.155.135-.155a7,7,0,0,0,1.342.155c.529,0,.808-.228.808-.679v-4.033c-.643.344-1.285.643-1.928.93-.187.356-.321.534-.43.534-.135,0-.383-.514-.741-1.555a29.777,29.777,0,0,0,3.1-1.191v-4.8H132.7c-.15,0-.228-.093-.228-.279v-.608c0-.19.078-.285.228-.285Zm8.639-.885v-2.67c0-.149.093-.227.285-.227.943,0,1.415.078,1.415.227,0,.177-.073.265-.187.286-.135.021-.192.149-.192.377v2.007h3.913c.15,0,.228.092.228.285v.6c0,.193-.078.285-.228.285h-3.913v3.1h2.949a.746.746,0,0,1,.378.114c.228.186.363.316.363.414a21.546,21.546,0,0,1-.663,2.4,10.941,10.941,0,0,1-1.078,2.02,10.235,10.235,0,0,1-1.114,1.442,1.331,1.331,0,0,1-.207.207,7.682,7.682,0,0,0,2.192,1.415,6.668,6.668,0,0,0,1.451.549c.155.051.228.114.228.151a.308.308,0,0,1-.114.263,8.722,8.722,0,0,0-.549.7.259.259,0,0,1-.223.151,4.522,4.522,0,0,1-1.021-.395,13.251,13.251,0,0,1-2.964-1.948c-.171.135-.327.244-.477.358a13.726,13.726,0,0,1-1.85,1.062,20.4,20.4,0,0,1-2.534,1,.366.366,0,0,1-.321-.187,7.892,7.892,0,0,0-.829-.6.484.484,0,0,1-.114-.172c0-.056.036-.1.15-.113a16.753,16.753,0,0,0,2.871-.984,8.919,8.919,0,0,0,2.12-1.213.145.145,0,0,0,.073-.051,11.6,11.6,0,0,1-1.55-2.23,18.329,18.329,0,0,1-1.223-3.155h-.969c-.15,0-.207-.1-.207-.306v-.586c0-.186.057-.3.207-.3h3.706v-3.1h-3.763c-.15,0-.223-.092-.223-.285v-.6c0-.193.073-.285.223-.285Zm-.472,7.861a7.876,7.876,0,0,0,1.513,2.136,5.221,5.221,0,0,0,.549-.57,12.3,12.3,0,0,0,1.187-1.793,19.564,19.564,0,0,0,.757-2.171h-4.97A11.227,11.227,0,0,0,143.384,2207.436Z" transform="translate(-32.364 -2196.398)" fill="#72adb6"/>
      <path id="Path_636" data-name="Path 636" d="M141.118,2202.218a.362.362,0,0,1-.285.377.447.447,0,0,0-.28.228c-.358.664-.72,1.244-1.057,1.757v9.018c0,.146-.1.224-.285.224h-.736c-.207,0-.306-.079-.306-.224v-7.317c-.337.4-.736.813-1.187,1.269a7.472,7.472,0,0,0-.871-.871c-.114-.114-.15-.191-.15-.248a.384.384,0,0,1,.057-.131,10.751,10.751,0,0,0,2.249-2.456,16.654,16.654,0,0,0,1.472-2.534c.036-.079.078-.109.135-.109A7.4,7.4,0,0,1,141.118,2202.218Zm-.187-4.494c.171.109.264.223.264.374s-.078.207-.228.207a.535.535,0,0,0-.487.249,17.5,17.5,0,0,1-3.426,3.529.327.327,0,0,1-.3-.167,4.193,4.193,0,0,0-.586-.586c-.1-.1-.135-.17-.135-.207,0-.077.021-.119.078-.134a4.719,4.719,0,0,0,1.078-.835,11.176,11.176,0,0,0,1.379-1.415,10.161,10.161,0,0,0,.985-1.643c.073-.114.13-.192.166-.192Zm2.306,6.028c.114.037.171.093.171.17,0,.146-.057.244-.155.265q-.225.108-.28.621a25.376,25.376,0,0,1-.285,4.649c-.249.85-.492,1.585-.736,2.192,0,.114-.135.17-.378.17-.7-.211-1.042-.357-1.042-.436a10.915,10.915,0,0,0,.871-2.414,40.089,40.089,0,0,0,.358-5.3c0-.109.078-.187.249-.187Zm.829-3.214v-3.705c0-.135.093-.207.3-.207.928,0,1.4.072,1.4.207,0,.172-.062.265-.171.281-.135.02-.192.154-.192.383v3.042h2.514c.135,0,.207.094.207.28v.586c0,.211-.073.305-.207.305h-2.514v11.811c0,.151-.114.223-.3.223h-.741c-.207,0-.3-.072-.3-.223v-11.811h-2.285c-.15,0-.207-.094-.207-.305v-.586c0-.186.057-.28.207-.28Zm3.042-2.97a20.007,20.007,0,0,1,1.171,1.778c0,.188-.036.286-.114.307a1.911,1.911,0,0,1-.98.43c-.378-.793-.72-1.457-1.042-1.985,0-.135.264-.342.814-.6A.194.194,0,0,1,147.109,2197.568Zm.814,6.277c0,.092-.078.186-.223.3v5.763c0,.151.036.207.145.207h.363c.166,0,.342-.581.529-1.758l1.1.665c-.363,1.529-.8,2.291-1.327,2.291h-1.114c-.643,0-.964-.27-.964-.814v-6.727c0-.134.078-.206.228-.206C147.487,2203.638,147.922,2203.731,147.922,2203.845Zm5.54-1.834c.13,0,.207.092.207.279v.611c0,.188-.078.279-.207.279h-1.27v9.247c0,.923-.772,1.4-2.286,1.4h-.814c-.093,0-.13-.131-.13-.358a3.882,3.882,0,0,0-.3-.985v-.052a6.614,6.614,0,0,0,1.171.13c.679,0,1.036-.228,1.036-.664v-8.713h-2.078c-.15,0-.207-.092-.207-.279v-.611c0-.187.057-.279.207-.279Zm-.306-3.991c.156,0,.228.1.228.284v.606c0,.188-.073.286-.228.286h-3.985c-.155,0-.228-.1-.228-.286v-.606c0-.186.073-.284.228-.284Z" transform="translate(-16.286 -2196.398)" fill="#72adb6"/>
      <path id="Path_637" data-name="Path 637" d="M143.145,2201.48a3.976,3.976,0,0,1-1.208,1.321l-.492-.548a2.941,2.941,0,0,0,1.265-2.157h-1.4v-2.264h2.27v2.077A3.264,3.264,0,0,1,143.145,2201.48Z" transform="translate(6.086 -2191.349)" fill="#72adb6"/>
      <path id="Path_638" data-name="Path 638" d="M145.164,2213.493c0,.146-.109.224-.3.224h-.736c-.187,0-.28-.079-.28-.224v-16.1c0-.134.093-.207.28-.207h4.949a.878.878,0,0,1,.435.087c.306.25.456.421.456.5l-2.078,4.762a.841.841,0,0,0-.057.265.392.392,0,0,0,.114.244,8.2,8.2,0,0,1,1.4,2.078,6.535,6.535,0,0,1,.549,2.534,4.417,4.417,0,0,1-.384,1.887,2.381,2.381,0,0,1-1.187,1.177,3.169,3.169,0,0,1-1.684.335c-.3,0-.451-.093-.451-.3a2.507,2.507,0,0,0-.285-.949c0-.089.078-.151.228-.151l.809.079a1.41,1.41,0,0,0,1.306-.644,2.329,2.329,0,0,0,.4-1.436,5.391,5.391,0,0,0-.456-2.02,9.213,9.213,0,0,0-1.7-2.4.278.278,0,0,1-.15-.228.968.968,0,0,1,.057-.263l2.151-4.461h-3.384Zm10.925-16.615c0,.172-.073.265-.187.285s-.171.15-.171.379v2.151h4.5c.156,0,.228.1.228.284v.586c0,.208-.073.306-.228.306h-6.369a.139.139,0,0,0-.016.072c-.021,1.026-.057,1.928-.1,2.726h5.519c.15,0,.228.109.228.3-.036,2.611-.135,4.462-.264,5.6a12.565,12.565,0,0,1-.7,3.022c-.28.7-1.021,1.057-2.213,1.057-1.093,0-1.658-.167-1.7-.467a3.372,3.372,0,0,0-.663-1.232v-.151a7.056,7.056,0,0,0,2.363.455,1.138,1.138,0,0,0,1.192-.739,8.573,8.573,0,0,0,.492-2.322c.114-.872.207-2.322.264-4.329h-4.612c-.073.721-.15,1.342-.244,1.872a15.143,15.143,0,0,1-1.192,3.8,11.07,11.07,0,0,1-2.1,2.892,1.64,1.64,0,0,1-.4-.037c-.259-.156-.508-.321-.751-.471-.135-.021-.192-.079-.192-.151s.042-.135.135-.212a8.361,8.361,0,0,0,2.306-3.078,15.229,15.229,0,0,0,1.057-3.893,33.038,33.038,0,0,0,.244-4.705h-2.4c-.15,0-.223-.1-.223-.306v-.586c0-.186.073-.284.223-.284h4.27v-2.815c0-.151.093-.228.306-.228C155.623,2196.65,156.089,2196.727,156.089,2196.878Z" transform="translate(16.702 -2196.293)" fill="#72adb6"/>
      <path id="Path_639" data-name="Path 639" d="M122.931,2201.976c0,.172-.052.26-.166.28-.135.021-.192.155-.192.383v5.764h6.048a.2.2,0,0,1,.228.228v.731c0,.2-.078.285-.228.285h-6.048v7.09h6.939a.2.2,0,0,1,.228.223v.741c0,.186-.078.3-.228.3H113.126c-.15,0-.228-.114-.228-.3v-.741a.2.2,0,0,1,.228-.223h2.514v-10.925c0-.13.093-.208.28-.208.985,0,1.477.079,1.477.208,0,.17-.057.264-.171.285-.13.016-.187.151-.187.377v10.263h4.141v-14.761c0-.155.093-.227.28-.227C122.444,2201.749,122.931,2201.822,122.931,2201.976Z" transform="translate(-112.748 -2174.966)" fill="#72adb6"/>
      <path id="Path_640" data-name="Path 640" d="M127.9,2201.976c0,.172-.073.26-.187.28-.135.021-.187.155-.187.383v.809h6.349c.15,0,.228.115.228.3v.591c0,.207-.078.3-.228.3H120.735v4.276a22.952,22.952,0,0,1-.451,5.135,11.145,11.145,0,0,1-1.119,3.156,8.321,8.321,0,0,1-1.244,1.835.439.439,0,0,1-.171-.036,2.556,2.556,0,0,0-.622-.416.308.308,0,0,1-.1-.228,8.314,8.314,0,0,0,1.384-2.213,14.038,14.038,0,0,0,.85-3.1c.036-.186.057-.394.093-.622-.192.228-.378.4-.529.555-.264.223-.549.486-.886.751a.363.363,0,0,0-.1.285c0,.109-.036.151-.073.151-.078,0-.42-.321-1.005-1a.213.213,0,0,1-.093-.186.18.18,0,0,1,.057-.119,4.662,4.662,0,0,0,.891-.523,15.312,15.312,0,0,0,1.187-1.042c.264-.264.492-.514.7-.736.021-.535.041-1.079.041-1.643v-.44a14.664,14.664,0,0,0-1.42-1.229,8.223,8.223,0,0,0-1.171-.773,3.765,3.765,0,0,1,.586-.813c.057-.077.114-.135.15-.135a16.424,16.424,0,0,1,1.586,1.042,2.1,2.1,0,0,0,.269.222v-3.042a.269.269,0,0,1,.3-.3H126.2v-1.472c0-.155.093-.227.285-.227C127.426,2201.749,127.9,2201.822,127.9,2201.976Zm5.462,4.364c.135,0,.212.093.212.285v.6c0,.192-.078.287-.212.287h-5.193c-.021.662-.041,1.227-.078,1.7h4.535c.228,0,.358.118.358.306v8.391c0,.337-.3.623-.871.813a13.216,13.216,0,0,1-2.151.323.221.221,0,0,1-.244-.228,3.669,3.669,0,0,0-.42-1.192c0-.037.057-.052.171-.052a8.122,8.122,0,0,0,1.85-.114c.228-.079.342-.212.342-.358v-1.8l-.093.077c-.192.208-.378.436-.549.658-.057.135-.13.191-.244.191-.057,0-.192-.077-.4-.265a7.483,7.483,0,0,1-1.793-1.7,5.391,5.391,0,0,1-.871-1.569,3.7,3.7,0,0,1-.171-.4,9.722,9.722,0,0,1-.565,1.436,5.582,5.582,0,0,1-1.213,1.452,6.084,6.084,0,0,1-1.643,1.118c-.321-.32-.586-.622-.814-.89v3.254c0,.151-.093.223-.28.223h-.741c-.207,0-.3-.072-.3-.223v-9.147a.272.272,0,0,1,.3-.306h4.462c.036-.493.057-1.057.093-1.7h-4.706c-.15,0-.228-.095-.228-.287v-.6c0-.191.078-.285.228-.285Zm-8.919,8.219a5.432,5.432,0,0,0,1.249-1.394,8.227,8.227,0,0,0,.85-2.441c.021-.093.036-.207.057-.316h-3.291v4.893A4.568,4.568,0,0,0,124.441,2214.559Zm3.934-3.093a7.107,7.107,0,0,0,.6,1.243,5.451,5.451,0,0,0,1.228,1.457,4.322,4.322,0,0,0,1.456.871v-4.628h-3.628A5.672,5.672,0,0,0,128.374,2211.467Z" transform="translate(-96.963 -2174.966)" fill="#72adb6"/>
      <path id="Path_641" data-name="Path 641" d="M128.52,2203.189v-1.207c0-.156.073-.229.259-.229.948,0,1.42.073,1.441.229,0,.166-.057.258-.135.258-.171.041-.244.177-.244.4v.544h6.442c.135,0,.212.077.212.228v.658c0,.15-.078.229-.212.229h-6.442v1.249h5.706c.114,0,.192.077.192.223v.664c0,.15-.078.227-.192.227h-5.706v1.244h7.406c.114,0,.192.079.192.229v.664c0,.149-.078.227-.192.227H120.8c-.13,0-.187-.077-.187-.227v-.664c0-.151.057-.229.187-.229h7.717v-1.244h-6.012c-.135,0-.192-.076-.192-.227v-.664c0-.146.057-.223.192-.223h6.012V2204.3h-6.753c-.15,0-.207-.079-.207-.229v-.658c0-.151.057-.228.207-.228Zm6.442,6.727c.171,0,.264.093.264.286,0,1.078-.016,1.978-.036,2.741h2.057a.186.186,0,0,1,.192.207v.679c0,.151-.078.207-.192.207h-2.1a5.817,5.817,0,0,0-.052.735c-.062.437-.114.835-.155,1.193H136.8c.13,0,.207.072.207.228v.662c0,.151-.078.228-.207.228h-2.063a2.791,2.791,0,0,0-.093.358,2.654,2.654,0,0,1-.7,1.244,2.264,2.264,0,0,1-1.456.342,11.2,11.2,0,0,1-1.415-.093c-.192-.021-.285-.079-.285-.172a5.033,5.033,0,0,0-.358-1.037c0-.139.021-.2.052-.2a14.136,14.136,0,0,0,1.933.2.987.987,0,0,0,.679-.212,1.507,1.507,0,0,0,.244-.43h-9.6c-.078.279-.15.544-.207.788-.041.114-.093.191-.192.191a8.5,8.5,0,0,0-1.042-.092c-.187-.037-.259-.1-.259-.137.187-.528.337-1.02.487-1.513a18.1,18.1,0,0,0,.492-2.285h-2.135c-.13,0-.187-.056-.187-.207v-.679c0-.13.057-.207.187-.207h2.249c.078-.892.114-1.818.13-2.8,0-.156.1-.229.285-.229Zm-1.208,4.935c.016-.208.036-.472.073-.814h-9.469a4.252,4.252,0,0,0-.073.477c-.114.523-.207,1.015-.285,1.452h5.742c-.508-.151-1.036-.3-1.607-.453-.6-.149-1.109-.248-1.529-.326a3.865,3.865,0,0,1,.627-.829c.073-.073.13-.13.166-.13.912.188,1.586.338,2.042.472.606.17,1.135.321,1.57.467a.857.857,0,0,1-.093.175c-.228.3-.378.507-.456.623H133.6C133.656,2215.644,133.718,2215.265,133.755,2214.85Zm-3.97-1.907c-.492-.149-.985-.306-1.513-.457-.565-.15-1.057-.242-1.436-.321a3.658,3.658,0,0,1,.622-.834c.078-.073.135-.131.171-.131.829.193,1.472.338,1.907.458.57.186,1.057.337,1.477.486a.849.849,0,0,1-.093.177c-.228.295-.378.5-.456.622h3.4c0-.57.021-1.213.042-1.927h-9.318c-.021.714-.057,1.357-.093,1.927Z" transform="translate(-80.463 -2174.95)" fill="#72adb6"/>
      <path id="Path_642" data-name="Path 642" d="M129.27,2207.829c-.394-.528-.943-1.206-1.664-2a21.655,21.655,0,0,0-1.964-1.909l.871-1a28.848,28.848,0,0,1,3.856,3.949Z" transform="translate(-59.445 -2170.085)" fill="#72adb6"/>
      <path id="Path_643" data-name="Path 643" d="M130.831,2213.148a.338.338,0,0,1-.207.295.5.5,0,0,0-.228.363c-.114,1.171-.249,2.113-.394,2.87-.114.416-.228.814-.363,1.267-.057.1-.093.155-.13.155a6.022,6.022,0,0,0-1.1-.264c-.114-.042-.15-.094-.15-.172a14.43,14.43,0,0,0,.586-1.856,17.232,17.232,0,0,0,.4-2.885c0-.135.052-.207.187-.207C130.359,2212.9,130.831,2213.05,130.831,2213.148Zm2.871-10.625c.057.13.1.207.1.207,0,.109-.114.167-.321.167-.306,0-.492.076-.57.212-.7,1.093-1.342,2.077-1.949,2.943.435.419.871.834,1.306,1.269a.488.488,0,0,1,.057-.076c.7-.944,1.285-1.814,1.757-2.586a7.605,7.605,0,0,1,1.342,1.191c0,.072-.078.109-.228.109-.3,0-.472.062-.529.134-1.073,1.53-2.135,2.93-3.172,4.2.829-.077,1.814-.172,2.964-.286-.192-.457-.378-.911-.586-1.362,0-.073.3-.265.943-.586a20.468,20.468,0,0,1,.814,1.948c.192.549.378,1.135.529,1.737a4.545,4.545,0,0,1-1.114.378,10.577,10.577,0,0,0-.3-1.306l-1.907.421v7.524c0,.146-.114.223-.306.223h-.736c-.192,0-.285-.078-.285-.223v-7.245l-2.078.455a2.659,2.659,0,0,1-.508.514,6.911,6.911,0,0,1-.378-1.777,4.43,4.43,0,0,1,1.322-.25c.715-.907,1.342-1.679,1.835-2.364-.72-.579-1.27-1-1.607-1.264a13.206,13.206,0,0,0-1.7-.927,3.783,3.783,0,0,1,.793-.979.177.177,0,0,1,.171-.115c.223.156.451.321.658.472a18.5,18.5,0,0,0,1.078-1.59c.529-.862.907-1.523,1.151-1.981Zm1.513,12.227c.15.6.3,1.264.415,1.948a5.264,5.264,0,0,1-1.171.362c-.057-.435-.15-.99-.285-1.648a20.011,20.011,0,0,0-.6-2.264c0-.079.321-.27.964-.591C134.8,2213.355,135.023,2214.085,135.215,2214.75Zm9.79-12.076c.187,0,.3.077.3.207v15.8c0,.151-.114.224-.3.224h-.736c-.187,0-.285-.073-.285-.224v-1.17h-6.069v1.17c0,.151-.093.224-.28.224H136.9c-.212,0-.306-.073-.306-.224v-15.723c0-.191.093-.284.306-.284Zm-4.721,6.706v-5.535h-2.368v5.535Zm0,6.939v-5.742h-2.368v5.742Zm1.337-6.939h2.363v-5.535h-2.363Zm2.363,6.939v-5.742h-2.363v5.742Z" transform="translate(-48.496 -2175.134)" fill="#72adb6"/>
      <path id="Path_644" data-name="Path 644" d="M137.14,2203.211v-1.265c0-.13.093-.207.306-.207.922,0,1.394.077,1.394.207,0,.172-.073.265-.187.286-.135.02-.187.149-.187.377v.6h4.364v-1.265c0-.13.093-.207.28-.207.948,0,1.42.077,1.42.207,0,.172-.073.265-.187.286-.135.02-.192.149-.192.377v.6H148.8c.15,0,.228.1.228.284v.607c0,.186-.078.284-.228.284h-4.649v1.037c0,.149-.114.227-.3.227h-.741c-.187,0-.28-.078-.28-.227v-1.037h-4.364v1.037c0,.149-.1.227-.285.227h-.736c-.212,0-.306-.078-.306-.227v-1.037h-4.727c-.15,0-.228-.1-.228-.284v-.607c0-.186.078-.284.228-.284Zm10.412,3.026c.192,0,.285.079.285.228v12.174c0,.146-.093.223-.285.223h-.736c-.207,0-.3-.077-.3-.223v-.591H134.7v.591c0,.146-.114.223-.306.223h-.736c-.187,0-.28-.077-.28-.223v-12.174c0-.149.093-.228.28-.228Zm-1.037,10.625v-9.531H134.7v9.531Zm-2.192-7.69c-.606.149-1.322.295-2.135.414a8.944,8.944,0,0,1-.907.109v1.12h4.2c.093,0,.15.077.15.223v.586c0,.207-.057.305-.15.305h-3.592a9.325,9.325,0,0,0,1.13,1.227,8.024,8.024,0,0,0,1.648,1.224,6.208,6.208,0,0,0,1.622.721c0,.078-.057.149-.171.191a6.71,6.71,0,0,0-.622.7c-.078.093-.13.128-.15.128a7.725,7.725,0,0,1-2.042-1.229,8.107,8.107,0,0,1-1.529-1.471,3.934,3.934,0,0,1-.492-.606v3.384c0,.149-.114.228-.306.228h-.736a.2.2,0,0,1-.228-.228v-3.115c-.223.259-.394.488-.544.642a10.836,10.836,0,0,1-3.213,2.394.336.336,0,0,1-.285-.109c-.228-.212-.435-.4-.622-.584a.551.551,0,0,1-.057-.2,7.894,7.894,0,0,0,1.379-.695,9.127,9.127,0,0,0,1.643-1.248,13.864,13.864,0,0,0,1.228-1.358h-3.8c-.109,0-.15-.1-.15-.305v-.586c0-.146.041-.223.15-.223h4.27v-.984a3.827,3.827,0,0,1-.586.056c-1,.077-1.907.114-2.736.114-.228,0-.342-.079-.383-.264-.186-.228-.373-.493-.565-.772,0-.141.057-.212.212-.212h1.109c1.042,0,1.949-.037,2.705-.114a18.3,18.3,0,0,0,2.057-.229,10.357,10.357,0,0,0,2.006-.507,1.476,1.476,0,0,1,.171-.037.5.5,0,0,1,.321.094c.72.622,1.078,1.006,1.078,1.15s-.078.229-.207.229l-.529-.229A1.4,1.4,0,0,0,144.323,2209.171Z" transform="translate(-32.075 -2175.012)" fill="#72adb6"/>
      <path id="Path_645" data-name="Path 645" d="M140.848,2207.829c-.4-.528-.948-1.206-1.664-2a21.593,21.593,0,0,0-1.969-1.909l.871-1a28.544,28.544,0,0,1,3.856,3.949Z" transform="translate(-11.041 -2170.085)" fill="#72adb6"/>
      <path id="Path_646" data-name="Path 646" d="M149.476,2202.42c0,.058-.078.109-.228.151a.519.519,0,0,0-.4.186,4.189,4.189,0,0,1-.435.549h5.276c.192,0,.285.079.285.228v8.561c0,.151-.093.208-.285.208h-1.265a7.993,7.993,0,0,1,.814.585c.321.286.586.529.809.756a.46.46,0,0,1-.093.151,1.08,1.08,0,0,1-.13.207h2.514c.15,0,.223.119.223.305v.586c0,.207-.073.3-.223.3h-6.784a4.586,4.586,0,0,0,.586.527,8.1,8.1,0,0,0,1.643,1.005,11.063,11.063,0,0,0,2.457.871c.663.151,1.472.3,2.436.435.171,0,.27.033.27.109a.665.665,0,0,1-.156.307,5.044,5.044,0,0,0-.549.772.245.245,0,0,1-.264.165,25.786,25.786,0,0,1-2.964-.73,14.959,14.959,0,0,1-1.949-.778,8.071,8.071,0,0,1-1.607-1.057,8.169,8.169,0,0,1-1.435-1.457,6.022,6.022,0,0,1-.508.7,6.379,6.379,0,0,1-1.814,1.415,16.135,16.135,0,0,1-2.514,1.248c-.57.172-1.285.379-2.2.607a.485.485,0,0,1-.451-.208,6.189,6.189,0,0,0-.549-.734c-.073-.079-.114-.136-.114-.172a.178.178,0,0,1,.135-.172,14.4,14.4,0,0,0,2.685-.658,9.267,9.267,0,0,0,2.57-1.176,5.274,5.274,0,0,0,1.192-1.02h-5.9c-.145,0-.223-.094-.223-.3v-.586c0-.186.078-.305.223-.305h6.711c.078-.186.155-.379.228-.565a3.533,3.533,0,0,0,.285-1.134h-4.8c-.187,0-.28-.058-.28-.208v-8.561c0-.149.093-.228.28-.228h3.8a3.616,3.616,0,0,0,.321-.353,5.069,5.069,0,0,0,.695-1.156c.021-.078.057-.118.135-.118A11.352,11.352,0,0,1,149.476,2202.42Zm3.172,3.556v-1.5h-8.634v1.5Zm0,2.643v-1.473h-8.634v1.473Zm0,1.191h-8.634v1.327h8.634Zm-.373,3.814c-.342-.223-.606-.394-.8-.507a3.735,3.735,0,0,1,.549-.813h-2.757a.185.185,0,0,0-.021.076,7.6,7.6,0,0,1-.472,1.623h3.97C152.6,2213.873,152.425,2213.745,152.275,2213.624Z" transform="translate(0.076 -2175.26)" fill="#72adb6"/>
      <path id="Path_647" data-name="Path 647" d="M148.894,2203.211c.187,0,.285.077.285.207v11.308c0,.146-.1.224-.285.224h-.757c-.192,0-.285-.079-.285-.224v-.892h-2.742v2.441c0,.15-.093.228-.28.228h-.736c-.212,0-.306-.078-.306-.228v-12.78c0-.186.093-.284.306-.284Zm-1.042,9.453v-8.277h-2.742v8.277Zm6.577-8.126v-2.592c0-.13.093-.207.285-.207.928,0,1.4.077,1.4.207,0,.172-.057.265-.171.286-.135.02-.187.149-.187.377v1.929h3.607c.15,0,.228.114.228.306v.581c0,.207-.078.306-.228.306h-3.607v3.234h4.421c.15,0,.228.108.228.295v.586c0,.207-.078.305-.228.305h-4.027a18.269,18.269,0,0,0,1.358,2.721,10.6,10.6,0,0,0,1.684,2.269,5.907,5.907,0,0,0,1.648,1.286.2.2,0,0,1-.155.187c-.264.265-.472.492-.643.7-.073.093-.13.15-.15.15a9.93,9.93,0,0,1-2.078-2.015,11.768,11.768,0,0,1-1.55-2.441,6.67,6.67,0,0,1-.508-1.02v6.726c0,.151-.114.223-.306.223h-.736c-.192,0-.285-.072-.285-.223V2212.1c-.3.507-.565.943-.793,1.3a19.773,19.773,0,0,1-1.793,2.307,16.194,16.194,0,0,1-2.213,1.964.433.433,0,0,1-.321-.108c-.228-.25-.451-.458-.658-.644a.481.481,0,0,1-.062-.191,12.936,12.936,0,0,0,3.726-3.633,32.88,32.88,0,0,0,1.757-2.943h-3.928c-.155,0-.228-.1-.228-.305v-.586c0-.187.073-.295.228-.295h4.286v-3.234H150.8c-.15,0-.228-.1-.228-.306v-.581c0-.191.078-.306.228-.306Z" transform="translate(16.455 -2175.012)" fill="#72adb6"/>
      <path id="Path_648" data-name="Path 648" d="M117.668,2207.668c0,.109-.057.17-.13.17-.192.017-.321.074-.378.188a2.775,2.775,0,0,1-.228.451H121.3c.093,0,.145.079.145.227v.586c0,.192-.052.286-.145.286h-2.69c.342.493.684.984.985,1.492,0,.188-.057.284-.13.284a1.989,1.989,0,0,1-.985.458c-.451-.893-.871-1.627-1.249-2.234h-.943a6.771,6.771,0,0,1-.814,1,14.721,14.721,0,0,1-1.57,1.513.477.477,0,0,1-.358-.17c-.187-.13-.358-.265-.544-.416a.238.238,0,0,1-.135-.227c.378-.337.777-.7,1.171-1.079a9.032,9.032,0,0,0,1.322-1.678,8.558,8.558,0,0,0,.757-1.592c0-.087.036-.149.078-.149A5.757,5.757,0,0,1,117.668,2207.668Zm2.97,5.386v-.965c0-.128.093-.207.28-.207.928,0,1.4.079,1.4.207,0,.17-.052.265-.166.285-.135.017-.192.151-.192.374v.307h5.39c.145,0,.223.113.223.3v.59c0,.208-.078.3-.223.3h-5.39v1.688h7.675c.15,0,.228.109.228.3v.586c0,.206-.078.3-.228.3h-4.276v1.473h2.8c.155,0,.228.121.228.305v.586c0,.208-.073.307-.228.307h-2.8v3.306c0,.943-.772,1.415-2.306,1.415h-1.094c-.093,0-.13-.13-.13-.359a3.26,3.26,0,0,0-.321-.983v-.072a8.235,8.235,0,0,0,1.493.149c.679,0,1.016-.228,1.016-.663v-2.792h-9.292c-.155,0-.228-.1-.228-.307v-.586c0-.185.073-.305.228-.305h9.292v-1.473H113.247c-.15,0-.228-.093-.228-.3v-.586c0-.193.078-.3.228-.3h7.39v-1.688H115.46c-.156,0-.228-.089-.228-.3v-.59c0-.187.073-.3.228-.3Zm-1.985,8.075c.529.315,1,.6,1.379.871a.765.765,0,0,1-.093.144,9.282,9.282,0,0,1-.57.813,17.951,17.951,0,0,0-1.886-1.134,11.166,11.166,0,0,0-1.363-.565,3.425,3.425,0,0,1,.586-.829c.057-.079.114-.14.15-.14A19.127,19.127,0,0,1,118.653,2221.129Zm6.634-13.46c0,.109-.057.17-.135.17-.207.017-.337.074-.394.188-.078.187-.15.342-.187.451h5.291c.093,0,.15.079.15.227v.586c0,.192-.057.286-.15.286h-2.949a15.929,15.929,0,0,1,1.016,1.492c0,.188-.036.284-.114.284a1.958,1.958,0,0,1-.979.458,23.178,23.178,0,0,0-1.322-2.234H124a5.224,5.224,0,0,1-.42.585,13.03,13.03,0,0,1-1.109,1.27.486.486,0,0,1-.363-.175c-.187-.13-.358-.281-.549-.43a.225.225,0,0,1-.114-.212c.269-.279.534-.581.819-.923a7.763,7.763,0,0,0,.923-1.421,10.065,10.065,0,0,0,.549-1.341c0-.087.036-.149.073-.149A5.738,5.738,0,0,1,125.286,2207.668Z" transform="translate(-112.869 -2153.932)" fill="#72adb6"/>
      <path id="Path_649" data-name="Path 649" d="M121.191,2207.322c.13.121.207.193.207.27a.275.275,0,0,1-.228.286c-.15,0-.244.087-.285.26a28.563,28.563,0,0,1-.886,3.026v12.666c0,.146-.114.223-.3.223h-.741c-.207,0-.3-.077-.3-.223v-9.893c-.228.346-.435.662-.663.948a.917.917,0,0,1-.415-.078c-.264-.108-.529-.208-.772-.3-.1-.036-.135-.092-.135-.134a.256.256,0,0,1,.073-.186,10.85,10.85,0,0,0,1.591-2.571,16.68,16.68,0,0,0,.72-1.887,25.311,25.311,0,0,0,.643-2.706c.036-.113.073-.17.15-.17Zm7.069.779c.15,0,.223.114.223.3v.586c0,.193-.073.286-.223.286h-2.933c-.643,1.818-1.135,3.119-1.436,3.933.985-.128,2.006-.305,3.027-.512-.212-.586-.456-1.15-.72-1.72,0-.072.3-.265.943-.586a23.729,23.729,0,0,1,1.005,2.306,16.842,16.842,0,0,1,.622,2.062,4.653,4.653,0,0,1-1.171.358,9.267,9.267,0,0,0-.342-1.415c-1.757.393-3.42.693-4.97.9a.257.257,0,0,0-.244.228c-.036.307-.135.437-.285.437s-.435-.565-.814-1.7a9.97,9.97,0,0,0,1.062-.114c.166-.015.337-.037.487-.057.057-.167.135-.342.207-.529.477-1.285.912-2.492,1.285-3.591h-2.151c-.15,0-.228-.093-.228-.286v-.586c0-.185.078-.3.228-.3Zm-3.84,9.224v-1.985c0-.15.093-.228.306-.228.923,0,1.4.078,1.4.228,0,.166-.078.265-.192.265-.13.037-.187.17-.187.4v1.321h2.586c.15,0,.228.109.228.3v.586c0,.212-.078.3-.228.3h-2.586v2.8c1.094-.172,2.135-.358,3.115-.565.041,0,.093-.021.135-.021a.139.139,0,0,1,.15.15,3.651,3.651,0,0,1-.073,1.026c-2.291.416-4.6.773-6.939,1.109q-.28.513-.451.514c-.114,0-.363-.528-.741-1.55.985-.073,2.135-.228,3.477-.456v-3h-2.664c-.15,0-.207-.089-.207-.3v-.586c0-.191.057-.3.207-.3Zm6.939-8.111c0,.172-.078.265-.192.265-.114.042-.171.171-.171.4v10.7c0,.149-.109.227-.3.227h-.736c-.207,0-.3-.078-.3-.227v-11.361c0-.149.093-.228.3-.228C130.888,2208.985,131.359,2209.064,131.359,2209.213Zm2.892-2.02c.13.072.207.128.207.17,0,.109-.078.17-.228.17-.244.114-.358.395-.358.865v14.31c0,.891-.684,1.342-2.006,1.342h-1.021c-.114,0-.171-.114-.171-.321a2.708,2.708,0,0,0-.358-.871c0-.109.041-.15.15-.15a6.565,6.565,0,0,0,1.27.15c.529,0,.808-.228.808-.663v-13.874a4.423,4.423,0,0,0-.073-.83.866.866,0,0,1-.073-.358c0-.1.109-.151.352-.151Z" transform="translate(-96.963 -2153.626)" fill="#72adb6"/>
      <path id="Path_650" data-name="Path 650" d="M123.077,2212.91c.534.341.985.643,1.363.913a.439.439,0,0,1-.114.144,9.745,9.745,0,0,1-.643.871,17.013,17.013,0,0,0-1.793-1.208,7.392,7.392,0,0,0-1.306-.626,3.56,3.56,0,0,1,.586-.83c.057-.072.114-.134.155-.134C122.04,2212.366,122.626,2212.646,123.077,2212.91Zm1.762,3.27c.3.685.472,1.057.472,1.1a.448.448,0,0,1-.1.285c-.637,1.437-1.244,2.659-1.814,3.68-.321.57-.694,1.191-1.13,1.876a1.372,1.372,0,0,0-.135.663c0,.146-.052.223-.13.223-.114,0-.513-.4-1.213-1.192a.258.258,0,0,1-.13-.208.3.3,0,0,1,.093-.262,9.8,9.8,0,0,0,1.151-1.359,27.759,27.759,0,0,0,1.555-2.554c.435-.814.808-1.565,1.13-2.25.041-.093.1-.149.135-.149C124.782,2216.031,124.818,2216.087,124.839,2216.18Zm-.85-8.183c.529.342.964.663,1.322.942a.692.692,0,0,1-.1.177c-.409.579-.622.866-.637.866a21.056,21.056,0,0,0-1.757-1.27,10.459,10.459,0,0,0-1.27-.658,3.885,3.885,0,0,1,.586-.835c.057-.072.114-.129.155-.129C122.968,2207.427,123.533,2207.733,123.989,2208Zm4.949,8.313c0,.139-.057.212-.166.212a.485.485,0,0,0-.212.471v1.244c0,.493-.036,1.058-.093,1.669a6.426,6.426,0,0,1-.451,1.751,5.386,5.386,0,0,1-.834,1.383,6.7,6.7,0,0,1-1.192,1.116.261.261,0,0,1-.207-.167,3.658,3.658,0,0,0-.606-.534c-.109-.072-.15-.13-.15-.186a7.205,7.205,0,0,0,1.135-1.058,3.776,3.776,0,0,0,.586-.99,6.593,6.593,0,0,0,.378-1.45,9.818,9.818,0,0,0,.114-1.535v-1.979c0-.155.021-.227.073-.227A9.707,9.707,0,0,1,128.938,2216.31Zm3.762-9.22c0,.171-.078.265-.192.284-.13.022-.187.151-.187.379v1.343h5.027c.15,0,.228.093.228.279v.608c0,.19-.078.279-.228.279h-6.919c.757.269,1.156.436,1.156.534,0,.13-.093.186-.249.186-.187,0-.264.062-.264.17-.342.549-.757,1.178-1.285,1.877-.166.222-.342.43-.508.622,1.814-.155,3.607-.363,5.405-.59-.342-.509-.643-.981-.943-1.4,0-.119.259-.327.808-.586a.273.273,0,0,1,.207.072,37.064,37.064,0,0,1,2.819,4.142c0,.187-.057.285-.135.285a2.146,2.146,0,0,1-1.057.452c-.358-.659-.7-1.286-1.037-1.872-2.363.321-4.975.6-7.846.871a.384.384,0,0,0-.337.188.307.307,0,0,1-.306.228c-.13,0-.415-.509-.871-1.555.648-.032,1.27-.067,1.912-.13a20.177,20.177,0,0,0,1.436-2.322c.187-.395.358-.8.492-1.176h-3.555c-.15,0-.228-.089-.228-.279v-.608c0-.187.078-.279.228-.279H131v-2.006c0-.151.093-.227.3-.227C132.229,2206.863,132.7,2206.939,132.7,2207.09Zm-.663,9.22c0,.191-.073.285-.187.285-.135.042-.192.17-.192.4v6.712c0,.144-.093.223-.28.223h-.741c-.207,0-.3-.079-.3-.223v-7.4c0-.13.093-.207.3-.207C131.566,2216.1,132.037,2216.18,132.037,2216.31Zm3.027,0a.742.742,0,0,1-.15.379v5.384c0,.218.036.306.15.306h1.187c.249,0,.492-.565.736-1.7l1.176.741c-.42,1.473-.948,2.208-1.55,2.208h-2.063c-.643,0-.964-.3-.964-.885v-6.484c0-.155.041-.227.155-.227C134.608,2216.1,135.064,2216.2,135.064,2216.31Z" transform="translate(-80.601 -2153.581)" fill="#72adb6"/>
      <path id="Path_651" data-name="Path 651" d="M127.714,2211.706a3.871,3.871,0,0,1-1.213,1.323l-.487-.544a2.954,2.954,0,0,0,1.265-2.156h-1.4v-2.27h2.265v2.082A3.241,3.241,0,0,1,127.714,2211.706Z" transform="translate(-58.454 -2148.579)" fill="#72adb6"/>
      <path id="Path_652" data-name="Path 652" d="M134.357,2208.173c.145,0,.223.118.223.305v.586c0,.187-.078.285-.223.285h-2.083c-.358,1.337-.658,2.4-.886,3.156-.114.321-.207.623-.321.907h3.213c.187,0,.3.079.3.228v8.334c0,.146-.114.223-.3.223h-.741a.2.2,0,0,1-.223-.223v-.944H131.48v2.208c0,.135-.114.207-.3.207h-.741c-.15,0-.223-.072-.223-.207v-7.77a16.062,16.062,0,0,1-.891,1.571.386.386,0,0,1-.321-.128c-.244-.228-.487-.436-.715-.644a.458.458,0,0,1-.057-.19,13.43,13.43,0,0,0,.886-1.379,14.782,14.782,0,0,0,1.037-2.462c.192-.58.477-1.549.855-2.887h-1.741c-.15,0-.223-.1-.223-.285v-.586c0-.187.073-.305.223-.305Zm-1.042,11.665v-5.24H131.48v5.24Zm5.369-11.079c0-.033.016-.053.016-.072a7.1,7.1,0,0,0,.264-1.721.1.1,0,0,1,.114-.114,9.963,9.963,0,0,1,1.55.362c0,.207-.078.3-.223.3-.228.02-.321.114-.321.305-.078.337-.135.644-.192.939h5.162c.186,0,.3.076.3.227v3.1c0,.149-.114.228-.3.228h-.741c-.15,0-.207-.079-.207-.228v-2.208h-4.5c-.057.186-.114.362-.15.507a13.638,13.638,0,0,1-1.379,2.875h2.493a7.384,7.384,0,0,0,.492-.906,11.775,11.775,0,0,0,.451-1.4.152.152,0,0,1,.155-.109l1.171.606c.093.072.15.146.15.186a.136.136,0,0,1-.15.151c-.155.016-.249.079-.27.17a10.66,10.66,0,0,1-.6,1.306h2.721c.093,0,.15.073.15.229v.586c0,.206-.057.295-.15.295h-2.664v1.855h2.514c.093,0,.15.078.15.208v.605c0,.188-.057.286-.15.286h-2.514v1.927h2.514c.093,0,.15.074.15.229v.58c0,.193-.057.286-.15.286h-2.514v1.772h3.249c.1,0,.15.078.15.229v.59c0,.186-.052.3-.15.3h-7.162v.591c0,.146-.093.223-.285.223h-.736a.2.2,0,0,1-.223-.223V2214.9a5.861,5.861,0,0,1-.606.6.886.886,0,0,1-.363.192c-.187,0-.3-.037-.358-.13-.244-.15-.472-.284-.679-.4a.208.208,0,0,1-.135-.208c0-.037.021-.077.093-.135a5.887,5.887,0,0,0,1.4-1.129,11.142,11.142,0,0,0,1.534-2.348,10.187,10.187,0,0,0,.586-1.471h-1.855v2.208c0,.149-.093.228-.28.228h-.741a.2.2,0,0,1-.223-.228v-3.1a.2.2,0,0,1,.223-.227Zm2.094,5.612h-2.664v1.855h2.664Zm0,2.954h-2.664v1.927h2.664Zm0,4.794v-1.772h-2.664v1.772Z" transform="translate(-48.617 -2153.626)" fill="#72adb6"/>
      <path id="Path_653" data-name="Path 653" d="M138.442,2207.842c0,.114-.057.166-.156.166a.512.512,0,0,0-.43.208,22.373,22.373,0,0,1-1.705,3.41v12.241c0,.151-.109.228-.3.228h-.736c-.207,0-.306-.077-.306-.228v-10.454c-.435.534-.98,1.135-1.622,1.82a.49.49,0,0,1-.378-.17c-.192-.151-.4-.321-.586-.493a.249.249,0,0,1-.135-.228c.549-.565,1.1-1.188,1.664-1.829a14.5,14.5,0,0,0,1.892-2.8,16.809,16.809,0,0,0,1.093-2.685c.021-.1.078-.151.155-.151A5.9,5.9,0,0,1,138.442,2207.842Zm9.805-.15c.192,0,.306.079.306.228v6.344c0,.154-.114.227-.306.227h-.736c-.192,0-.285-.072-.285-.227v-.809h-2.814v2.741h5.027c.15,0,.228.094.228.281v.586c0,.212-.078.3-.228.3h-4.763a13.723,13.723,0,0,0,1.493,1.835,9.729,9.729,0,0,0,1.985,1.664,7.567,7.567,0,0,0,1.949.927c0,.109-.078.167-.192.208a5.978,5.978,0,0,0-.663.752c-.073.1-.145.149-.186.149a12.345,12.345,0,0,1-2.4-1.544,9.982,9.982,0,0,1-1.793-1.912c-.155-.192-.306-.379-.456-.586v5.007c0,.151-.093.228-.285.228h-.736c-.207,0-.306-.077-.306-.228v-4.7c-.207.264-.394.486-.544.678a15.135,15.135,0,0,1-1.7,1.743,17.862,17.862,0,0,1-2.12,1.471.419.419,0,0,1-.321-.135c-.244-.228-.492-.457-.72-.641a.49.49,0,0,1-.052-.193,10.579,10.579,0,0,0,1.643-.959,10.438,10.438,0,0,0,1.949-1.7,24.628,24.628,0,0,0,1.607-2.063h-4.462c-.15,0-.228-.092-.228-.3v-.586c0-.187.078-.281.228-.281h4.721v-2.741h-2.736v.886c0,.149-.093.228-.285.228h-.736c-.207,0-.3-.079-.3-.228v-6.348a.267.267,0,0,1,.3-.3Zm-1.021,4.591v-3.4h-6.877v3.4Z" transform="translate(-32.485 -2153.518)" fill="#72adb6"/>
      <path id="Path_654" data-name="Path 654" d="M139.224,2212.65a29.648,29.648,0,0,1-.373,5.277,12.97,12.97,0,0,1-.907,3.249,7.972,7.972,0,0,1-1.021,1.871.435.435,0,0,1-.192-.042,4.412,4.412,0,0,0-.679-.5.41.41,0,0,1-.078-.269,9.282,9.282,0,0,0,1.042-2.249,18.35,18.35,0,0,0,.663-3.136,38.075,38.075,0,0,0,.207-4.2v-5.405c0-.187.093-.279.3-.279h13.874c.187,0,.3.072.3.223v4.047a.268.268,0,0,1-.3.3H139.224Zm0-2.285h11.816v-2.234H139.224Zm6.488,3.965v-1.908c0-.149.093-.227.3-.227.922,0,1.4.077,1.4.227,0,.177-.078.265-.192.286s-.171.149-.171.377v1.244h5.6c.15,0,.223.118.223.305v.586c0,.206-.073.305-.223.305h-5.6v2.28h4.426c.187,0,.3.079.3.229v5.316a.274.274,0,0,1-.3.3h-.741a.265.265,0,0,1-.3-.3v-.513h-8.105v.658c0,.151-.114.228-.306.228h-.736c-.207,0-.3-.077-.3-.228v-5.386a.273.273,0,0,1,.3-.306h4.426v-2.28h-5.162c-.15,0-.228-.1-.228-.305v-.586c0-.187.078-.305.228-.305Zm4.721,7.313V2219h-8.105v2.638Z" transform="translate(-16.227 -2153.149)" fill="#72adb6"/>
      <path id="Path_655" data-name="Path 655" d="M149.079,2207.058c0,.177-.057.264-.171.286-.135.02-.192.149-.192.377v1.037h7.24c.187,0,.285.076.285.227v3.613c0,.151-.1.227-.285.227h-.736c-.207,0-.3-.076-.3-.227v-2.643H141.254v2.643c0,.151-.093.227-.285.227h-.736c-.207,0-.3-.076-.3-.227v-3.535a.271.271,0,0,1,.3-.305h7.162v-1.7c0-.13.1-.207.285-.207C148.6,2206.851,149.079,2206.928,149.079,2207.058Zm4.441,4.519c.13,0,.207.093.207.286v.579c0,.212-.078.307-.207.307h-4.727c-.358.3-.679.548-.964.756.549.679,1,1.248,1.379,1.715.264.456.513.871.7,1.254a29.446,29.446,0,0,0,3.1-2.4.887.887,0,0,1,.513-.207.646.646,0,0,1,.28.128c.8.528,1.192.851,1.192.963,0,.208-.073.3-.228.3l-.435-.073a1.391,1.391,0,0,0-.679.259c-.829.534-1.793,1.213-2.907,2.048a9.925,9.925,0,0,0,1.078,1.451,8.407,8.407,0,0,0,1.757,1.59,10.066,10.066,0,0,0,2.913,1.529c.13.041.207.077.207.13a.277.277,0,0,1-.114.228,4.94,4.94,0,0,0-.741.662c-.073.1-.13.151-.187.151a11.573,11.573,0,0,1-4.312-3.026,6.061,6.061,0,0,1-.586-.674c0,.108.021.208.021.3a7.629,7.629,0,0,1-.207,1.7,5.812,5.812,0,0,1-.606,1.378,3.012,3.012,0,0,1-1.093.835,5.438,5.438,0,0,1-1.928.374c-.207,0-.306-.109-.306-.317a3.363,3.363,0,0,0-.508-1.1c0-.15.036-.208.15-.208l.435.072a3.166,3.166,0,0,0,1.928-.43,1.747,1.747,0,0,0,.586-.948,3.952,3.952,0,0,0,.228-1.358,7.46,7.46,0,0,0-.078-.89,9.383,9.383,0,0,1-.928.757,16.192,16.192,0,0,1-2.228,1.585,21.91,21.91,0,0,1-2.871,1.362,13.535,13.535,0,0,1-2.228.742c-.1,0-.192-.1-.27-.27-.187-.223-.394-.45-.622-.678-.114-.109-.15-.187-.15-.249a32.8,32.8,0,0,0,3.648-1.074,17.668,17.668,0,0,0,2.985-1.513,21.207,21.207,0,0,0,2.327-1.948c-.192-.472-.42-.944-.663-1.415a11.564,11.564,0,0,1-.907.751,12.966,12.966,0,0,1-1.907,1.348,22.453,22.453,0,0,1-2.477,1.171,11.841,11.841,0,0,1-1.912.623c-.073,0-.166-.079-.244-.245-.192-.227-.4-.455-.627-.7-.109-.114-.145-.191-.145-.248a30.528,30.528,0,0,0,3.1-.887,16.109,16.109,0,0,0,2.586-1.25,14.765,14.765,0,0,0,1.871-1.527c-.264-.342-.544-.706-.85-1.079-.093.078-.171.114-.228.156a17.916,17.916,0,0,1-2.379,1.316,22.661,22.661,0,0,1-2.928,1.134.412.412,0,0,1-.321-.109c-.249-.227-.492-.455-.72-.662a.474.474,0,0,1-.057-.187c.928-.248,1.684-.493,2.285-.72a18.549,18.549,0,0,0,2.726-1.264c.415-.249.964-.628,1.643-1.12h-4.162c-.15,0-.207-.095-.207-.307v-.579c0-.193.057-.286.207-.286Z" transform="translate(0.323 -2153.626)" fill="#72adb6"/>
      <path id="Path_656" data-name="Path 656" d="M148.809,2212.373c0,.113-.042.149-.114.149-.207.041-.342.1-.4.208a17.544,17.544,0,0,1-1.114,2.025v9.054c0,.144-.1.223-.285.223h-.736a.2.2,0,0,1-.228-.223v-7.5c-.337.379-.757.772-1.244,1.227a.438.438,0,0,1-.363-.17c-.187-.134-.358-.285-.549-.436a.241.241,0,0,1-.13-.207c.415-.395.85-.809,1.285-1.265a10.326,10.326,0,0,0,1.472-1.962,10.925,10.925,0,0,0,.85-1.856c0-.093.041-.151.078-.151C148.316,2211.979,148.809,2212.279,148.809,2212.373Zm-.078-4.593c0,.114-.036.17-.114.17-.207.037-.337.095-.4.208a8.137,8.137,0,0,1-1.508,2.077,12.337,12.337,0,0,1-1.441,1.25.5.5,0,0,1-.358-.17c-.187-.13-.358-.285-.544-.435a.24.24,0,0,1-.135-.208c.342-.285.7-.583,1.057-.906a7.28,7.28,0,0,0,1.213-1.394,6.938,6.938,0,0,0,.679-1.328c0-.076.036-.133.073-.133A5.59,5.59,0,0,1,148.731,2207.781Zm5.405,13.231h2.213c.093,0,.15.078.15.207v.6c0,.191-.057.29-.15.29h-2.213v1.7c0,.144-.114.223-.306.223h-.736a.2.2,0,0,1-.223-.223v-1.7h-4.8c-.093,0-.13-.1-.13-.29v-.6c0-.129.036-.207.13-.207h1.27v-2.364c0-.149.052-.227.207-.227h3.327v-1.037c0-.1.073-.155.223-.155.871,0,1.327.076,1.327.227s-.057.245-.156.245c-.093.02-.129.139-.129.346v.374h1.907c.1,0,.15.077.15.227v.586c0,.208-.052.307-.15.307h-1.907Zm-2.757-12.474c.073-.492.166-1.021.244-1.569a.235.235,0,0,1,.228-.131l1.021.244a.26.26,0,0,1,.223.265c0,.186-.093.265-.244.265a.312.312,0,0,0-.192.248c-.036.265-.073.492-.109.679h2.607c.187,0,.3.072.3.208v2.512h.586c.1,0,.15.079.15.228v.586c0,.151-.052.223-.15.223h-7.085c-.114,0-.15-.072-.15-.223v-.586c0-.149.036-.228.15-.228h1.907c.114-.513.223-1.078.337-1.7H149.41c-.114,0-.15-.079-.15-.228v-.584c0-.137.036-.208.15-.208Zm4.006,4.933c.187,0,.3.079.3.228v2.945c0,.151-.114.227-.3.227h-5.613c-.192,0-.285-.076-.285-.227V2213.7c0-.149.093-.228.285-.228Zm-4.8,7.541h2.291v-1.471h-2.291Zm3.84-6.5h-3.685v1.327h3.685Zm-.212-3.25v-1.7H152.38c-.114.622-.228,1.187-.342,1.7Zm7.09.965c.135,0,.207.093.207.279v.607c0,.191-.073.285-.207.285h-1.342v9.454c0,.885-.72,1.337-2.135,1.337h-.586c-.078,0-.114-.109-.114-.338a3.5,3.5,0,0,0-.264-.927v-.072a3.055,3.055,0,0,0,.886.149c.643,0,.964-.228.964-.663v-8.94h-2.078c-.15,0-.207-.093-.207-.285v-.607c0-.186.057-.279.207-.279Zm-.529-3.991c.15,0,.228.118.228.306v.586c0,.186-.078.284-.228.284h-3.384c-.15,0-.228-.1-.228-.284v-.586c0-.187.078-.306.228-.306Z" transform="translate(15.861 -2153.685)" fill="#72adb6"/>
      <path id="Path_657" data-name="Path 657" d="M129.274,2212.761c.13.121.207.208.207.27a.291.291,0,0,1-.228.3.288.288,0,0,0-.285.249c-.228.792-.415,1.45-.586,1.963h4.5v-3.328c0-.15.093-.227.285-.227q1.415,0,1.415.227c0,.172-.073.265-.187.286-.135.016-.187.149-.187.379v2.663H140.4c.155,0,.228.072.228.223v.742c0,.186-.073.285-.228.285h-6.193v4.213h5.307c.15,0,.228.114.228.3v.584c0,.188-.078.286-.228.286h-5.307v5.028h7.085a.2.2,0,0,1,.228.223v.741c0,.186-.078.285-.228.285H124.905c-.15,0-.228-.1-.228-.285v-.741a.2.2,0,0,1,.228-.223h7.976v-5.028h-5.763c-.15,0-.228-.1-.228-.286v-.584c0-.186.078-.3.228-.3h5.763v-4.213h-4.97c-.264.6-.529,1.186-.814,1.735a11.7,11.7,0,0,1-1.078,1.513.956.956,0,0,1-.435-.076c-.264-.109-.508-.208-.772-.307-.093-.03-.135-.089-.135-.128a.173.173,0,0,1,.078-.167,11.427,11.427,0,0,0,1.627-2.5,13.171,13.171,0,0,0,.736-1.813,21.736,21.736,0,0,0,.658-2.587c.041-.118.1-.17.155-.17Z" transform="translate(-63.482 -2132.133)" fill="#72adb6"/>
      <path id="Path_658" data-name="Path 658" d="M132.3,2226.137c.1.109.155.186.155.244s-.041.093-.114.093a.488.488,0,0,0-.285.134,9.974,9.974,0,0,1-1.021,1.265,10.837,10.837,0,0,1-1.607,1.321.308.308,0,0,1-.3-.149c-.264-.207-.492-.379-.663-.528-.114-.037-.15-.1-.15-.136a.1.1,0,0,1,.078-.092,3.579,3.579,0,0,0,.757-.452,7.1,7.1,0,0,0,1.13-1.1c.27-.337.57-.757.912-1.265.016-.078.052-.12.093-.12Zm1.477-13.329c0,.114-.036.17-.114.17-.207.021-.337.072-.4.193-.187.337-.358.621-.508.885h11.433c.155,0,.228.114.228.3v.59c0,.207-.073.3-.228.3h-1.544v3.456H145c.155,0,.228.114.228.307v.58c0,.207-.073.306-.228.306h-2.358v3.608h1.85c.13,0,.207.114.207.305v.585c0,.208-.078.3-.207.3H129.279c-.15,0-.223-.093-.223-.3v-.585c0-.191.073-.305.223-.305h1.928V2219.9h-2.591c-.15,0-.223-.1-.223-.306v-.58c0-.192.073-.307.223-.307h2.591v-2.627a20.466,20.466,0,0,1-1.622,1.457.439.439,0,0,1-.363-.171c-.187-.129-.358-.279-.549-.436a.229.229,0,0,1-.13-.207c.435-.379.871-.756,1.322-1.171a8.753,8.753,0,0,0,1.493-1.778,7.975,7.975,0,0,0,.871-1.7c0-.1.036-.151.073-.151C133.285,2212.408,133.777,2212.715,133.777,2212.808Zm.736,2.441h-1.985v3.456h1.985Zm0,8.256V2219.9h-1.985v3.608Zm.814,2.006a28.812,28.812,0,0,1,1.493,2.87c0,.177-.057.265-.13.307a2.27,2.27,0,0,1-1.057.436c-.477-1.25-.912-2.27-1.327-3.1,0-.131.27-.317.814-.586A.267.267,0,0,1,135.327,2225.511Zm2.591-10.262h-2.063v3.456h2.063Zm0,8.256V2219.9h-2.063v3.608Zm1.114,2.006a28.139,28.139,0,0,1,1.835,2.948c0,.167-.036.265-.114.285a2.216,2.216,0,0,1-1.057.451,30.775,30.775,0,0,0-1.705-3.175c0-.131.264-.317.814-.586A.324.324,0,0,1,139.032,2225.511Zm2.286-10.262H139.24v3.456h2.078Zm0,8.256V2219.9H139.24v3.608Zm2.8,3.254c.529.544.964,1.016,1.342,1.472a.444.444,0,0,1-.093.149c-.378.53-.57.814-.586.814a17.427,17.427,0,0,0-1.8-1.892,9.221,9.221,0,0,0-1.3-.979,3.262,3.262,0,0,1,.58-.829c.062-.079.114-.14.155-.14C143.1,2225.869,143.66,2226.346,144.117,2226.759Z" transform="translate(-48.266 -2132.421)" fill="#72adb6"/>
      <path id="Path_659" data-name="Path 659" d="M141.366,2212.158c0,.191-.078.284-.187.284-.114.021-.176.151-.176.4v.208h6.711c.093,0,.155.077.155.228v.43c0,.212-.062.3-.155.3H141v.664h7.96c.186,0,.3.077.3.228v2.949c0,.149-.114.228-.3.228h-.736c-.192,0-.285-.079-.285-.228v-2.136h-7.748v.923l5.67-.337c.093,0,.15.072.15.228v.436c0,.207-.057.3-.15.3l-5.67.346v.317c0,.155.021.227.057.227h5.328c.4,0,.8-.285,1.171-.891l.964.59a2.176,2.176,0,0,1-1.85,1.321h-5.97c-.549,0-.814-.244-.814-.737v-.756l-2.954.172c-.109,0-.145-.093-.145-.286v-.45c0-.15.036-.228.145-.228l2.954-.172v-1h-4.219v4.422a26.624,26.624,0,0,1-.321,4.611,11.507,11.507,0,0,1-.829,2.836,7.814,7.814,0,0,1-.907,1.643.411.411,0,0,1-.192-.037,3.655,3.655,0,0,0-.679-.528.328.328,0,0,1-.093-.244,8.056,8.056,0,0,0,.928-1.948,15.262,15.262,0,0,0,.586-2.706,33.021,33.021,0,0,0,.187-3.626V2214.9c0-.151.093-.228.306-.228h5.82v-2.513c0-.13.093-.208.3-.208C140.894,2211.95,141.366,2212.029,141.366,2212.158Zm-3.477,8.125c0,.155-.057.25-.135.25-.114.014-.15.135-.15.342v2.585h9.3c.187,0,.3.073.3.228v1.7h1.679c.1,0,.155.072.155.207v.605c0,.151-.057.208-.155.208h-5.892a6.074,6.074,0,0,0,1.114.68,12.068,12.068,0,0,0,1.622.643c.534.149,1.1.3,1.7.435.529.114,1.114.206,1.757.321a.259.259,0,0,1-.171.228,3.062,3.062,0,0,0-.549.734.4.4,0,0,1-.321.131,18.786,18.786,0,0,1-2.306-.524,15.839,15.839,0,0,1-1.736-.684,12.211,12.211,0,0,1-1.513-.808,7.55,7.55,0,0,1-.948-.777,4.412,4.412,0,0,1-1.13,1.149,7.292,7.292,0,0,1-1.892.851,17.2,17.2,0,0,1-2.571.642c-.378-.374-.7-.714-.964-1.016.549-.078,1.213-.229,1.964-.415a9.93,9.93,0,0,0,2.042-.741,4.152,4.152,0,0,0,1.078-.851h-4.649c-.093,0-.135-.057-.135-.208v-.605c0-.135.042-.207.135-.207h5.255a5.153,5.153,0,0,0,.187-.965h-4.4a.2.2,0,0,1-.228-.229v-3.985c0-.1.073-.155.228-.155C137.432,2220.056,137.888,2220.135,137.888,2220.284Zm8.276-.3c.192,0,.306.072.306.227v2.287c0,.149-.114.228-.306.228H139c-.207,0-.3-.079-.3-.228v-2.287c0-.155.093-.227.3-.227Zm-.964.964h-5.234v.809H145.2Zm-2.964,4.442h3.628v-.965h-3.477A9.624,9.624,0,0,1,142.236,2225.389Z" transform="translate(-33.522 -2132.3)" fill="#72adb6"/>
    </g>
  </g>
</svg>
