<svg id="section4_subtitle4" xmlns="http://www.w3.org/2000/svg" width="368.962" height="24.47" viewBox="0 0 368.962 24.47">
  <path id="Path_31645" data-name="Path 31645" d="M77.489,1220.26v-4.337h2.318v4.337h1.32v1.007a2.384,2.384,0,0,0,.455-.055,24.98,24.98,0,0,0,1.136-5.289l2.138.741a36.906,36.906,0,0,1-1.3,4.129.781.781,0,0,1-.092.184c.363-.051.727-.106,1.09-.184a26.175,26.175,0,0,0,.842-2.7l1.55.74c-.028-1.007-.046-2.087-.046-3.2h2.318c.023,1.853.069,3.518.115,5.026h.225A20.147,20.147,0,0,0,91,1215.923l2.111.741a37.335,37.335,0,0,1-1.43,3.734c.271-.056.57-.11.842-.184.317-.745.589-1.508.865-2.3l2.046.924a40.806,40.806,0,0,1-1.844,3.68l1.228-.368a23.1,23.1,0,0,1,1.32,4.626l-1.954.634c-.046-.345-.092-.685-.138-1.007a21.157,21.157,0,0,1-4.364.74c.046.584.11,1.085.156,1.513h1.913c-.138-.479-.276-.929-.409-1.352l2.589-.211c.092.529.184,1.03.271,1.563h1.688v2.484H90.269a15.351,15.351,0,0,0,.7,2.516,11.444,11.444,0,0,0,1.61-2.327l1.959,1.026a18.946,18.946,0,0,1-2.345,3.6c.363.5.708.74,1,.74.409,0,.635-.5.727-1.508,0,0,.023-.317.092-.952l2.024,1.246a6.74,6.74,0,0,1-.934,3.463,2.334,2.334,0,0,1-1.909.873c-.911,0-1.816-.69-2.727-2.01a.786.786,0,0,0-.092-.133,18.246,18.246,0,0,1-3.661,2.143l-1.683-2.382a14.89,14.89,0,0,0,4.093-2.115,17.132,17.132,0,0,1-1.067-3.546,5.868,5.868,0,0,1-.115-.634H85.082c-.023.262-.046.529-.046.768a19.363,19.363,0,0,1,3.113,1.8l-1.338,2.488a16.949,16.949,0,0,0-2.069-1.72c-.092.524-.207.979-.317,1.375a10.951,10.951,0,0,1-2.23,3.863l-1.863-2.383a6.506,6.506,0,0,0,1.84-2.778,13.766,13.766,0,0,0,.57-3.412H81.219v-2.01l-.363.663c-.322-.824-.662-1.615-1.049-2.41v12.33H77.489v-10.637a38.7,38.7,0,0,1-1.683,5.449l-.975-3.807a28.968,28.968,0,0,0,2.134-7.753H75.443v-2.7Zm3.73,4.976a9.706,9.706,0,0,0,1.182-.05,15.335,15.335,0,0,0,1.2-2.144c-.865.212-1.752.367-2.663.529l-.046-.611h-1.09v1.14c.57.635,1.067,1.191,1.5,1.716Zm6.185,1.826-1.3.446c-.046-.313-.115-.6-.161-.924-1.3.372-2.566.667-3.84.924l-.616,1.145h1.32v-1.145h2.318v1.145h2.456C87.514,1228.147,87.445,1227.618,87.4,1227.061Zm-2.161-3.2c-.23.4-.432.74-.616,1.058.294-.055.593-.1.888-.156C85.422,1224.468,85.335,1224.178,85.243,1223.861ZM86.995,1220c-.455,1.164-.888,2.19-1.343,3.1l.727-.239c.363.952.658,1.821.888,2.645C87.128,1223.861,87.036,1222.008,86.995,1220Zm2.52,4.889h.345a19.96,19.96,0,0,0,1.568-2.405,12.969,12.969,0,0,1-2.028.317C89.423,1223.571,89.469,1224.256,89.515,1224.891Zm3.73-1.794c-.386.6-.75,1.159-1.09,1.638.5-.056,1-.106,1.5-.212C93.52,1224.049,93.383,1223.571,93.245,1223.1Z" transform="translate(-74.831 -1215.634)" fill="#fff"/>
  <path id="Path_31646" data-name="Path 31646" d="M82.2,1220.521v-4.659h2.663v4.659h1.863v2.989H84.859v3.463c.5-.211.975-.45,1.43-.685v-1.531h5.045v-1.246H87.425v-2.566h3.909v-1.03h-4.8v-2.7h4.8v-1.563h2.75v1.563h6.139v2.7H94.084v1.03H99.52v3.6h.98v2.906h-.98v3.629H94.084v1.324H99.52v2.378H94.084v1.486a37.126,37.126,0,0,0,4.1.179c.271,0,1.044-.051,2.318-.207l-.455,3.1H97.7a23.653,23.653,0,0,1-6.595-.791,7.183,7.183,0,0,1-2.387-1.564,14.7,14.7,0,0,1-1.637,2.778l-2.138-2.166a9.7,9.7,0,0,0,2.479-5.905l2.594.424a21.2,21.2,0,0,1-.432,2.332,4.339,4.339,0,0,0,1.637,1.191c.046.027.064.051.11.051v-4.6h-4.07v-2.593h4.07v-1.242h-4.82l.115,2.065c-.593.313-1.182.635-1.771.925v6.719c0,1.637-.731,2.488-2.138,2.488H80.513l-.543-3.306c1.021.156,1.587.211,1.679.211.363,0,.547-.239.547-.74v-4.235c-.685.267-1.366.529-2.046.74l-.276-3.514a20.249,20.249,0,0,0,2.322-.612v-4.47H79.971v-2.989Zm11.888,4.235h2.755v-1.246H94.084Zm0,3.726h2.755v-1.242H94.084Z" transform="translate(-56.682 -1215.573)" fill="#fff"/>
  <path id="Path_31647" data-name="Path 31647" d="M104.461,1238.531h-4.249l-1.706-5.146H90.729l-1.61,5.146H84.948l7.57-22.713h4.157Zm-7.216-8.99-2.686-8.43-2.631,8.43Z" transform="translate(-38.422 -1214.972)" fill="#fff"/>
  <path id="Path_31648" data-name="Path 31648" d="M89.458,1219.927v-4.042H102.2v3.159a23.855,23.855,0,0,0-3.178,5.151,34.009,34.009,0,0,0-2.488,7.161,31.01,31.01,0,0,0-.883,6.934H92.061a35.409,35.409,0,0,1,5.873-18.362Z" transform="translate(-22.191 -1214.731)" fill="#fff"/>
  <path id="Path_31649" data-name="Path 31649" d="M101.82,1223.465q-.069,4.842-.474,9.975c.451-.139.86-.294,1.269-.451v3.2a66.414,66.414,0,0,1-9.046,2.778l-.524-3.417a39.073,39.073,0,0,0,5.5-1.186,110.271,110.271,0,0,0,.888-11.083Zm-2.2-3.807h3.27v2.878H93.294v-2.878h3.3c-.2-1.353-.432-2.567-.7-3.629l3.182-.317C99.273,1217.036,99.457,1218.328,99.618,1219.658Zm-1.775,13.331-2.842.4a60.029,60.029,0,0,0-.98-9.179l2.479-.212A83.964,83.964,0,0,1,97.843,1232.989Zm11-17.355v3.914h5.137v2.989h-5.137v4.236H113.1V1240h-2.75v-1.853h-4.7V1240h-2.755v-13.226h3.118v-11.138Zm1.5,19.627v-5.583h-4.7v5.583Z" transform="translate(-9.279 -1215.634)" fill="#fff"/>
  <path id="Path_31650" data-name="Path 31650" d="M107.086,1225.918v8.043h-1.274v-8.043H98.56v-1.481h7.252v-8.067h1.274v8.067h7.252v1.481Z" transform="translate(10.565 -1212.981)" fill="#fff"/>
  <path id="Path_31651" data-name="Path 31651" d="M110.832,1219.658v-4.024h3.113v4.024h7.915v11.874h-7.915V1240h-3.113v-8.466h-7.639v-11.874Zm0,3.09h-4.613v5.693h4.613Zm8,0h-4.889v5.693h4.889Z" transform="translate(27.238 -1215.634)" fill="#fff"/>
  <path id="Path_31652" data-name="Path 31652" d="M118.88,1215.675v18.3h4.8v-13.649H126.7v19.232h-3.026v-2.277H111.149v2.277h-3.026v-19.232h3.026v13.649h4.525v-18.3Z" transform="translate(44.98 -1215.486)" fill="#fff"/>
  <path id="Path_31653" data-name="Path 31653" d="M124.692,1217.487h8.071v2.589h-19.8v-2.589h8.273a11.506,11.506,0,0,0-.543-1.458l3.546-.395C124.4,1216.268,124.554,1216.875,124.692,1217.487Zm7.708,10.527v9.1c0,1.8-.681,2.7-2.023,2.7h-2.681l-.276-2.065h-9.57v-6.006h10.025v4.9c.524.051.8.051.8.051.547,0,.819-.189.819-.607v-5.477H116.414V1240h-2.929v-11.984H132.4Zm-2.3-6.8v5.665H115.618v-5.665Zm-2.929,2.175h-8.618v1.32h8.618Zm-1.867,10.421h-4.889v1.853H125.3Z" transform="translate(62.388 -1215.634)" fill="#fff"/>
  <path id="Path_31654" data-name="Path 31654" d="M122.151,1223.339a7.635,7.635,0,0,1-2.023,1.8l-1-1.748a3.751,3.751,0,0,0,1.89-1.932h-1.389v-3.729h3.228v2.883A4.935,4.935,0,0,1,122.151,1223.339Z" transform="translate(84.574 -1208.098)" fill="#fff"/>
  <path id="Path_31655" data-name="Path 31655" d="M131.9,1216.664a38.227,38.227,0,0,1-3.067,5.453c-.409.58-.8,1.109-1.182,1.559,2.589-.051,5.546-.189,8.844-.4q-1.366-1.669-3-3.417l2.207-1.771a52.164,52.164,0,0,1,6.595,7.961l-2.414,2.17c-.4-.735-.86-1.453-1.338-2.193a159.846,159.846,0,0,1-16.326,1.058l-.363-3.519c.681.027,1.3.056,1.84.056a16.923,16.923,0,0,0,2.023-2.359,28.3,28.3,0,0,0,2.98-5.634ZM140.153,1240h-3.026v-1.426H126.555V1240h-3.021v-11.243h16.62Zm-3.026-4.447v-3.7H126.555v3.7Z" transform="translate(94.381 -1215.634)" fill="#fff"/>
  <path id="Path_31656" data-name="Path 31656" d="M135.147,1215.766v17.673c.727-.262,1.407-.529,2.046-.823v3.706a76.217,76.217,0,0,1-9.506,2.8l-.888-3.513a50.115,50.115,0,0,0,5.413-1.219v-8.384h-5.229V1222.7h5.229v-6.931Zm11.915,6.617a19.1,19.1,0,0,1-6.139,4.548v7.754c0,.556.248.814.791.814h1.711c.451,0,.7-.791.768-2.428,0,0,.023-1.007.115-3.045l2.658.823c-.225,3.808-.612,6.107-1.136,6.981a2.43,2.43,0,0,1-2.249.98h-3a2.372,2.372,0,0,1-1.977-1.007,3.76,3.76,0,0,1-.612-2.3v-19.734h2.934v7.7a14.969,14.969,0,0,0,4.088-3.463Z" transform="translate(112.195 -1215.159)" fill="#fff"/>
  <path id="Path_31657" data-name="Path 31657" d="M134.116,1222v-4.871h3.205V1222h2.934v-6.223h3V1222h3.205v-6.323h3.026V1222H152.6v3.09h-3.113v7.753h-9.23v-7.753h-2.934v10.025H151.78v3.1H137.321v1.637h-3.205v-14.762h-2.479V1222Zm9.138,7.749h3.205v-4.659h-3.205Z" transform="translate(129.603 -1215.486)" fill="#fff"/>
  <path id="Path_31658" data-name="Path 31658" d="M155.842,1215.79v11.663h-4.088a18.852,18.852,0,0,0,6.227,3.123l-1.683,3.1a13.251,13.251,0,0,1-4-2.249v8.016h-2.842v-9.5h1.072a17.741,17.741,0,0,1-2.322-2.488h-2.138a20.412,20.412,0,0,1-2.2,2.488h1.412a11.764,11.764,0,0,1-1.251,5.739,11.9,11.9,0,0,1-4.162,3.863l-2.479-2.883a10.253,10.253,0,0,0,3.776-2.3,5.91,5.91,0,0,0,1.2-3.1,17.857,17.857,0,0,1-4.364,2.512l-1.412-3.2a13.707,13.707,0,0,0,5.868-3.123h-4V1215.79Zm-10.2,4.654v-1.982h-4.346v1.982Zm0,2.382h-4.346v1.954h4.346Zm2.75-2.382H153v-1.982h-4.617Zm4.617,2.382h-4.617v1.954H153Z" transform="translate(147.417 -1215.072)" fill="#fff"/>
  <path id="Path_31659" data-name="Path 31659" d="M148.289,1215.8a5.313,5.313,0,0,1,4.576,2.575q1.745,2.58,1.743,9.023,0,6.422-1.743,9a5.352,5.352,0,0,1-9.133.027q-1.752-2.559-1.748-9.078,0-6.395,1.748-8.973A5.3,5.3,0,0,1,148.289,1215.8Zm.009,3.61q-1.1,0-1.761,1.389t-.658,6.6q0,5.2.658,6.586a1.814,1.814,0,0,0,3.527-.009c.432-.924.648-3.123.648-6.577s-.216-5.67-.648-6.6A1.984,1.984,0,0,0,148.3,1219.411Z" transform="translate(166.839 -1215.033)" fill="#fff"/>
  <path id="Path_31660" data-name="Path 31660" d="M153.139,1235.974h-2.658v-1.238h-1.959v1.454h-2.658v-18.814h7.275Zm-2.658-11.451v-4.364h-1.959v4.364Zm0,7.432v-4.76h-1.959v4.76Zm7.731-13.649v-2.672h2.837v2.672h4.438v2.907h-4.438v2.253h5.233v3.017H163.8v1.959h2.41v2.985H163.8v5.583c0,1.854-.681,2.805-2.046,2.805h-3.1l-.363-3.311c1.187.082,1.867.11,2.047.11.409,0,.616-.239.616-.74v-4.447h-7.367v-2.985h7.367v-1.959h-7.275v-3.017h4.525v-2.253h-4.093v-2.907Zm1.338,17.245-2.681,1.564a23.876,23.876,0,0,0-2.387-4.548l2.387-.93A24.626,24.626,0,0,1,159.55,1235.551Z" transform="translate(180.803 -1215.634)" fill="#fff"/>
  <path id="Path_31661" data-name="Path 31661" d="M159.685,1218.623H163a10.069,10.069,0,0,0,1.343-2.99l3.389.607a16.142,16.142,0,0,1-1.481,2.383h3.868v2.672h-7.275v1.453h6.024v2.7h-6.024v1.642h7.979v2.989H157.7c-.133.5-.248.952-.386,1.348h12.095v2.805H164v2.46h6.572v2.805H154.135v-2.327a18.625,18.625,0,0,1-1.5,1.614l-1.954-2.911a11.4,11.4,0,0,0,2.98-3.306,11.681,11.681,0,0,0,1.136-2.488H151.66v-2.989h8.25v-1.642h-6.139v-2.7h6.139v-1.453h-7.367v-2.672h3.978a14.645,14.645,0,0,0-1.683-2.488l3.389-.312C158.775,1216.774,159.253,1217.7,159.685,1218.623Zm1.384,18.068v-2.46h-4.912a.4.4,0,0,0-.069.106,14.955,14.955,0,0,1-1.564,2.354Z" transform="translate(198.138 -1215.634)" fill="#fff"/>
</svg>
