<svg xmlns="http://www.w3.org/2000/svg" width="297" height="123" viewBox="0 0 297 123">
  <g id="section6_title_lg" transform="translate(-120.371 -1987.693)">
    <path id="Path_557" data-name="Path 557" d="M127.791,2007.37v-19.638h5.517v19.638h5.666v6.6h-5.666v1.636a55.93,55.93,0,0,1,6.818,7.713l-3.31,6.136a65.791,65.791,0,0,0-3.507-6.309v18.407h-5.517V2023.03a46.4,46.4,0,0,1-4.712,10.348l-2.708-8.011a30.841,30.841,0,0,0,5.762-11.393H120.92v-6.6Zm-.406-3.215-5.261.879c-.1-3.8-.352-7.893-.805-12.273l4.515-.466C126.437,1995.57,126.986,1999.544,127.385,2004.156Zm12.192-11.626c-.2,5.024-.453,9.343-.805,12.97l-5.112-1.345a97.9,97.9,0,0,0,1.4-12.092Zm10.176-2.283v-2.514h6.675v2.514H166v5.67h-9.573v2.043H165v5.025h-8.571v2.515h10.379v5.73H139.172v-5.73h10.581v-2.515h-8.225v-5.025h8.225v-2.043h-9.221v-5.67Zm15.645,23.027v22.847c0,3.328-1.855,5.025-5.464,5.025h-5.517l-.752-6.2c2.41.179,3.811.239,4.116.239.9,0,1.354-.526,1.354-1.578v-.465H147.4v8.412h-6.066v-28.284H165.4Zm-6.263,8V2019H147.4v2.276Zm0,7.307v-2.743H147.4v2.743Z" transform="translate(0 0.194)" fill="#fff"/>
    <path id="Path_558" data-name="Path 558" d="M134.716,2024.13c-.048,4.792-.3,9.7-.8,14.841l-5.064-.639A105.552,105.552,0,0,0,130.4,2023.9Zm5.672-34.42a90.6,90.6,0,0,1-4.116,11.687.549.549,0,0,0-.048.173,20.8,20.8,0,0,0,2.756-.579c.907-2.043,1.754-4.152,2.559-6.315l4.515,3.215a106.4,106.4,0,0,1-8.983,17.476c1.306-.173,2.66-.406,4.068-.639-.2-1.41-.352-2.634-.555-3.8l3.71-1.171c.555,2.222,1.157,5.025,1.76,8.532v-1.87h4.11v-4.679c-1.5.293-3.012.526-4.462.759l-1-6.6c.7,0,1.449,0,2.153-.06a67.1,67.1,0,0,0,2.511-10.456H145.3v-6.136h15.848v6.136h-6.418a92,92,0,0,1-2,10.05,30.035,30.035,0,0,0,3.257-.353c-.3-1.75-.7-3.507-1.1-5.37l4.116-1.351c.447,1.643.853,3.214,1.253,4.738.352-.938.7-1.87,1-2.863a69.81,69.81,0,0,0,2.261-12.391l5.261.705a79.5,79.5,0,0,1-1.2,8.24h7.122v6.369h-1.05q-.3,14.2-3.161,22.267a2.593,2.593,0,0,1-.149.406,31.611,31.611,0,0,0,4.36,6.542l-2.356,8.006a70.39,70.39,0,0,1-5.064-8.006,58.56,58.56,0,0,1-6.716,8.479l-2.714-6.435c.406-.346.751-.752,1.109-1.106a68.881,68.881,0,0,1-13.242,3.853l-.3-2.222-2.654,1.112a116.168,116.168,0,0,0-2.159-12.153l3.71-1.112c.656,1.984,1.354,4.44,2.058,7.367,1.306-.119,2.559-.292,3.811-.525v-7.307h-4.11v-1.4l-4.116,1.638c-.1-.819-.149-1.638-.2-2.455-3.865,1.052-7.724,1.989-11.536,2.688l-1-6.834c.7,0,1.354,0,2.052-.06q2.487-4.034,4.664-8.413c-1.9.406-3.859.7-5.917.932l-.8-6.2a15.208,15.208,0,0,0,1.7-.12,59.424,59.424,0,0,0,3.811-14.255Zm.6,47.218-4.909.7c-.054-4.086-.257-8.526-.608-13.263l4.116-.466C140.138,2027.518,140.586,2031.9,140.985,2036.928Zm23.423-10.809a5,5,0,0,1-.2-.584A56.686,56.686,0,0,1,161.6,2013.2c-.4.819-.853,1.578-1.253,2.276l-1.658-3.268-1.652.526c-.1-.76-.149-1.518-.251-2.336-.4.113-.805.173-1.1.233v5.783h4.313v5.9h-4.313v5.9a41.673,41.673,0,0,0,4.867-1.984v5.317A33.439,33.439,0,0,0,164.409,2026.119Zm2.857-8.005a90.331,90.331,0,0,0,1.306-14.96h-2.612c-.1.352-.2.7-.3.992A78.986,78.986,0,0,0,167.266,2018.114Z" transform="translate(42.11 0.731)" fill="#fff"/>
    <path id="Path_559" data-name="Path 559" d="M178.745,1988.72v6.841H162.7v29.455h19.01v6.835H137.428v-6.835h18.6v-29.455H140.386v-6.841Z" transform="translate(84.683 5.109)" fill="#fff"/>
    <path id="Path_560" data-name="Path 560" d="M157.748,1989.742v-2.05h5.47v2.05h4.915v5.024h-4.915v1.811h-1.557v.7h7.074v3.86h-7.074v1.578h8.625v3.913h-3.71v.232c0,.765.149,1.117.555,1.117h3.155v2.982h-5.464c-1.861,0-2.762-1.057-2.762-3.221v-1.111h-6.269a9.488,9.488,0,0,1-1.652,4.564,3.763,3.763,0,0,1-.656.7H156.2v-3.215h5.267v3.215h6.865v3.387h-6.865v1.751c2.708-.06,5.416-.174,8.023-.346l.048.286a14.075,14.075,0,0,0,4.312-3.794c-1.2-.992-2.308-1.87-3.358-2.688l2.553-3.859c.805.531,1.712,1.111,2.66,1.756,0-.352.048-.7.048-1.052v-2.282h-4.658v-5.257h4.658v-2.743H174.6v-2.283h-4.915v-5.024H174.6v-2.05h5.47v2.05h11.381v5.024H180.068v2.044h.6v2.982h7.265c-.149,5.843-.2,10.109-.2,12.737,0,1.99.1,2.982.352,2.982.65,0,1-1.637,1-5.025l3.31,2.043q-.528,6.14-2.255,8.419a2.488,2.488,0,0,1-2.058,1.4,4.093,4.093,0,0,1-3.412-2.282,9.775,9.775,0,0,1-1.455-5.67c0-2.043-.149-5.144-.4-9.35H180.67v2.282a19.97,19.97,0,0,1-.656,4.673c.907.818,1.807,1.7,2.809,2.634l-2.356,5.2c-.954-1.052-1.855-1.989-2.66-2.922a21.814,21.814,0,0,1-4.414,4.786l-3.758-3.68.25,2.514c-6.621.759-13.939,1.226-21.914,1.411l-.6-4.624c3.012,0,5.917,0,8.828-.113v-1.93h-5.72v-1.345a14.715,14.715,0,0,1-2.153.938l-2.708-4.385a11.665,11.665,0,0,0,4.814-1.983,3.22,3.22,0,0,0,1.151-1.876H146.97v-3.913h9.025v-1.578h-7.474v-3.86h7.474v-1.165h1.754v-1.345H146.368v-5.024Zm33.9,38.333v4.792h-6.824a47.117,47.117,0,0,1,5.822,5.962l-4.712,2.749c-.507-.711-.954-1.411-1.461-1.989q-14.217,1.567-35.353,1.75l-.954-5.957c2.41.113,4.366.232,5.971.286a18.8,18.8,0,0,0,2.857-2.8H146.165v-4.792Zm-5.714-5.9v4.087H151.885v-4.087Zm-7.325,10.689h-14.44a22.608,22.608,0,0,1-2.613,2.982c7.122-.06,13.593-.293,19.308-.705Q179.668,2033.925,178.613,2032.868Z" transform="translate(125.334 0.001)" fill="#fff"/>
    <path id="Path_561" data-name="Path 561" d="M129.348,2004.668v-5.436h5.917v5.436h6.466v6.424h-6.466v5.263h5.267l-.406-.465a15.713,15.713,0,0,0,6.12-4.087,10.278,10.278,0,0,0,1.855-4.624h-5.016v-6.13H165.6v5.078q0,11.22-1.95,13.156c-1.36,1.279-3.764,1.864-7.223,1.864h-2.559l-1-6.429c2.106.173,3.257.233,3.561.233a3.754,3.754,0,0,0,2.207-.466c.3-.353.549-2.742.7-7.307h-5.416a20.742,20.742,0,0,1-1.9,7.307,20.431,20.431,0,0,1-6.77,7.068l-3.161-3.5v4.911h-5.064v6.13h5.064v6.429h-5.064v8.006c3.459,1.225,8.273,1.816,14.494,1.816q2.174,0,15.645-.7l-1.157,7.3H150.159c-7.826,0-13.391-1.045-16.8-3.155a20.738,20.738,0,0,1-5.666-5.843,79.177,79.177,0,0,1-2.255,10.349l-5.064-5.9c1.8-5.377,2.708-12.331,2.708-20.809l5.714.705c0,2.862-.1,5.61-.3,8.184a19.765,19.765,0,0,0,2.863,4.26v-16.765h-9.83v-6.608h7.826v-5.263h-6.621v-6.424Zm35.3,18.528v18.933H144.039V2023.2Zm-5.917,5.9h-8.774v7.074h8.774Z" transform="translate(0 57.402)" fill="#fff"/>
    <path id="Path_562" data-name="Path 562" d="M137.208,2004.668v-5.436h6.066v5.436h5.47v6.424h-5.47v5.443h5.869v6.428h-4.515v6.6h3.513V2034a24.225,24.225,0,0,0,2.553-1.231v-25.828h8.476c-.048-2.449-.048-5.025-.048-7.712h5.869c0,2.808,0,5.383.048,7.712h3.31a34.476,34.476,0,0,0-2.959-5.664l4.11-1.636a31.063,31.063,0,0,1,3.913,5.49l-3.06,1.81h4.062v5.73h-9.221c.149,4.9.4,8.878.752,12.039a68.9,68.9,0,0,0,3.006-10.229l4.861,2.282a65.874,65.874,0,0,1-6.168,16.419c.758,2.455,1.455,3.68,2.058,3.68.2,0,.4-.933.6-2.922,0,0,.1-1.518.406-4.619l4.658,2.981c-.8,5.025-1.855,8.419-3.06,10.115a3.073,3.073,0,0,1-2.607,1.751c-1.5,0-3.06-1.112-4.611-3.334a9.793,9.793,0,0,1-1.306-2.157,39.451,39.451,0,0,1-7.474,6.536,33.766,33.766,0,0,0,3.615.126q2.183,0,15.645-.7l-1.157,7.3H158.574c-7.826,0-13.391-.992-16.8-2.862a19.032,19.032,0,0,1-5.917-5.55,83.97,83.97,0,0,1-2,9.529l-5.064-5.9c1.7-5.378,2.553-12.213,2.553-20.577l5.672.705c0,3.035-.1,5.9-.3,8.651a19.118,19.118,0,0,0,2.255,3.328v-16.3h-9.227v-6.428h7.474v-5.443h-6.269v-6.424Zm15.645,35.412a25.779,25.779,0,0,0,8.726-7.307,13.816,13.816,0,0,1-.555-2.508c-.847-3.8-1.4-9.643-1.7-17.59h-3.114v16.591a34,34,0,0,0,3.513-3.095v6.6a57.352,57.352,0,0,1-11.381,8.18l-1.2-5.019h-2.511v7.42a35.184,35.184,0,0,0,10.283,1.811Z" transform="translate(41.778 57.402)" fill="#fff"/>
    <path id="Path_563" data-name="Path 563" d="M165.119,2002.5h18.5v5.258H137.234V2002.5H157.9c-.251-.992-.5-1.869-.7-2.687l7.468-.7C164.815,2000.28,164.97,2001.4,165.119,2002.5Zm9.728,24.018v4.326H163.115c-1.157.645-2.314,1.23-3.412,1.81a20.174,20.174,0,0,1,3.811,2.575A32.966,32.966,0,0,0,176,2031.079l4.318,4.559a32.214,32.214,0,0,1-6.024,2.448A12.563,12.563,0,0,0,176,2040.2a25.83,25.83,0,0,0,7.474,5.491l-3.96,6.369a34.382,34.382,0,0,1-7.474-6.834,17.329,17.329,0,0,1-3.406-5.664c-.656.113-1.259.226-1.861.286a14.527,14.527,0,0,1,1.008,5.378c0,3.035-.555,5.144-1.557,6.308-1.2,1.285-3.161,1.936-5.869,1.936H156.6l-1.157-5.264h4.515c1.151,0,1.754-.992,1.754-2.981,0-.353-.048-.7-.048-1.052a57.136,57.136,0,0,1-22.266,7.886l-2.159-5.49c9.031-.526,16.6-2.749,22.767-6.6a1.848,1.848,0,0,1-.25-.353c-.3-.466-.65-.873-.948-1.291a47.239,47.239,0,0,1-18.658,6.436l-1.754-4.56a41.5,41.5,0,0,0,17.5-4.558c-.406-.293-.752-.58-1.1-.819a62.2,62.2,0,0,1-13.242,3.561l-2.153-5.025a87.4,87.4,0,0,0,15.144-2.509h-8.524v-4.326Zm7.826,4.558H176.6v-6.2H144.457v6.2h-6.066v-10.748h44.282Zm-3.71-21.675v9.343H142.1V2009.4Zm-6.871,3.853H148.972v1.577h23.119Z" transform="translate(83.72 56.82)" fill="#fff"/>
    <path id="Path_564" data-name="Path 564" d="M171.7,2004.991h16.952v14.381h-6.269V2011.6h-30.14v5.782A153.169,153.169,0,0,0,179.278,2013l2.708,6.141a126.1,126.1,0,0,1-14.643,3.322v6.429l21.312-3.095.4,7.068-21.711,3.161v4.379c0,1.757.2,2.922.7,3.567.656.7,1.956.992,3.967.992h6.066a6.284,6.284,0,0,0,3.412-.7c.752-.7,1.253-3.393,1.5-8.005l7.068,3.68c-.752,4.852-1.8,7.947-3.108,9.47-1.6,1.577-4.265,2.389-7.873,2.389H170.9c-4.617,0-7.474-.758-8.631-2.276q-1.8-2.277-1.8-7.534v-4.971L146.532,2039l-.352-7.074,14.291-2.05v-6.25q-4.062.708-8.422,1.232l-1.6-5.969h-4.467v-13.9h17.757c-.352-1.751-.7-3.388-1.1-4.792l8.422-.938C171.3,2001.2,171.506,2003.121,171.7,2004.991Z" transform="translate(127.126 57.547)" fill="#fff"/>
    <path id="Path_565" data-name="Path 565" d="M170.973,2011.743v5.024a73.837,73.837,0,0,1-4.515,17.59,63.528,63.528,0,0,1-7.82,13.263l-4.515-7.307a34.242,34.242,0,0,0,6.77-10.342,45.426,45.426,0,0,0,3.263-11.34h-8.631v-6.888Zm9.025-2.809a81.923,81.923,0,0,0,4.014,10.462,64.126,64.126,0,0,0,7.575-10.575l6.066,4.319a58.71,58.71,0,0,1-10.534,12.212c.155.292.3.526.453.758a51.679,51.679,0,0,0,12.585,13.737l-5.464,7.073a58.929,58.929,0,0,1-11.583-16.071c-1.2-2.455-2.207-4.912-3.114-7.247v21.269c0,4.679-1.7,7.068-5.064,7.068h-7.671l-1.354-9.111c3.913.466,6.066.639,6.472.639.751,0,1.151-.758,1.151-2.276v-41.959H180Z" transform="translate(167.568 57.402)" fill="#fff"/>
    <path id="Path_566" data-name="Path 566" d="M172.787,2014.422l-4.312,6.142a66.431,66.431,0,0,0-5.869-8.239l4.318-4.565A59.472,59.472,0,0,1,172.787,2014.422Zm14.345-13.258a47.25,47.25,0,0,1-1.76,5.258h6.674c-.3-1.936-.65-3.687-1-5.258l7.217-.705c.149,1.984.3,3.973.453,5.963h7.975v5.49h-9.18v2.509h7.426v5.025H197.51v2.688h7.426v5.025H197.51v2.748h9.377v5.5h-18.6v3.215h19.409v6.136H188.283v8.884h-6.269v-8.884H162.808v-6.136h19.206V2035.4h-2.958v-17.242c-1.056,1.458-2.153,2.867-3.31,4.212l-2.153-7.54a38.077,38.077,0,0,0,7.82-15.254Zm-12.538,20.971a61.171,61.171,0,0,1-2.958,15.313l-6.472-2.749a42.255,42.255,0,0,0,4.116-13.671Zm2.708-17.117-4.313,6.19a61.063,61.063,0,0,0-6.824-7.534l4.312-4.559A58.612,58.612,0,0,1,177.3,2005.019Zm14.488,6.894h-6.818v2.509h6.818Zm0,7.534h-6.818v2.688h6.818Zm0,7.713h-6.818v2.748h6.818Z" transform="translate(209.679 56.82)" fill="#fff"/>
  </g>
</svg>
