<svg id="section4_title2" xmlns="http://www.w3.org/2000/svg" width="344.368" height="37.802" viewBox="0 0 344.368 37.802">
  <path id="Path_31465" data-name="Path 31465" d="M85.1,839.685c-.129,2.138-.29,4.272-.478,6.447H90.5q.1,12.189-2.571,19.338c1.288,1.228,2.41,2.419,3.44,3.569l-2.635,5.128a35.437,35.437,0,0,0-2.925-4.019,30.9,30.9,0,0,1-5.109,6.609L77.679,872.4a18.2,18.2,0,0,0,5.077-5.62c-1.444-1.4-3.021-2.75-4.691-4.143.9-4.065,1.573-8.007,2.088-11.87H77.937v-4.636h2.732c.193-2.258.354-4.475.414-6.609Zm1.416,11.083h-2.41q-.676,4.932-1.642,10.1c.773.575,1.481,1.15,2.157,1.683A44.983,44.983,0,0,0,86.518,850.768Zm19.283-9.644v4.351a39.543,39.543,0,0,1-4.755,8.25v1.683h5.785v4.966h-5.785V872.4c-.064,2.8-1.932,4.194-5.528,4.194H92.754l-.612-5.137c2.088.128,3.339.17,3.762.17.639,0,.993-.575.993-1.766v-9.487H90.5v-4.966h6.4v-4.47a23.652,23.652,0,0,0,3.472-4.806H91.112v-5.008Z" transform="translate(-77.679 -839.239)" fill="gold"/>
  <path id="Path_31466" data-name="Path 31466" d="M91.628,853.257l-2.764,4.355a42.269,42.269,0,0,0-4.245-5.463l2.764-3.2A39.476,39.476,0,0,1,91.628,853.257Zm.129,7.229a114.915,114.915,0,0,1-3.021,15.724l-4.019-3.045a75.552,75.552,0,0,0,3.408-14.445Zm0-16.832-2.764,4.309a42.642,42.642,0,0,0-4.148-5.132l2.764-3.2A34.928,34.928,0,0,1,91.756,843.654Zm10.669-.331h-2.86c-.064,1.274-.161,2.382-.258,3.371H102.3v3.688h-1.991v3.371a22.4,22.4,0,0,0,2.12-1.932v3.159A11.323,11.323,0,0,0,106.091,851c.1-.2.193-.41.29-.616h-3.826l1.255-10.752h9.543v3.693h-2.6c-.064,1.274-.161,2.382-.29,3.371h3.408v3.688H110.2v3.863c0,.658.064.943.258.943h.258c.579,0,.9-.45.961-1.393,0,0,.037-.7.166-2.134l2.5.984c-.189,3.118-.607,5.008-1.186,5.62a2.273,2.273,0,0,1-1.8.616h-1.642a1.841,1.841,0,0,1-1.734-.777,4.577,4.577,0,0,1-.515-2.424v-.7a24.835,24.835,0,0,1-4.659,4.682l-1.481-2.874a25.762,25.762,0,0,1-3.661,2.589l-1.255-3.366a9.882,9.882,0,0,0,1.38-.621v-2.538a21.911,21.911,0,0,1-5.523,6.811l-1.9-3.651a12.346,12.346,0,0,0,4.7-5.013c.1-.2.193-.41.29-.616H91.4l1.251-10.752h9.772Zm9.929,33.332H108.6v-1.6H96.9v1.6H93.136V859.828h19.218ZM96.511,843.324H95.1l-.547,3.371h1.7C96.383,845.664,96.447,844.556,96.511,843.324ZM108.6,865.779v-2.093H96.9v2.093Zm0,5.624v-2.092H96.9V871.4Zm-.934-28.08h-1.412l-.52,3.371h1.61C107.47,845.664,107.6,844.556,107.664,843.324Z" transform="translate(-52.703 -838.853)" fill="gold"/>
  <path id="Path_31467" data-name="Path 31467" d="M102.547,847.7c.037-1.1.064-2.253.064-3.4v-4.806h4.406v4.847c0,1.15-.032,2.3-.064,3.362h11.856c-.06,10.637-.06,15.93-.06,15.93,0,4.681-.354,7.924-1,9.685a3.854,3.854,0,0,1-3.95,2.916h-6.526l-.773-6.075c3.569.087,5.785.124,6.654.124.74,0,1.122-3.118,1.122-9.359v-8.089H106.7a46.354,46.354,0,0,1-2.506,12.316,31.811,31.811,0,0,1-8.968,11.906l-3.536-5.132a22.317,22.317,0,0,0,8.071-9.152,30.561,30.561,0,0,0,2.442-9.938H94.191V847.7Z" transform="translate(-27.274 -839.368)" fill="gold"/>
  <path id="Path_31468" data-name="Path 31468" d="M100.506,850.072v-7.308h5.689v7.308Z" transform="translate(4.471 -827.579)" fill="gold"/>
  <path id="Path_31469" data-name="Path 31469" d="M108.53,846.583v-6.9H112.2v6.9h1.9c-.193-.653-.354-1.269-.52-1.932l3.123-1.1a59.267,59.267,0,0,1,2.152,7.882V839.524h3.5V858.94c-.1,7.266-2,13.3-5.657,18.1l-3.247-3.362a19.29,19.29,0,0,0,5.141-10.963,40.664,40.664,0,0,1-3.633,4.392l-2.024-5.128a11.477,11.477,0,0,0,1.122-.7,26.614,26.614,0,0,0-1.863-3.164V876.6H108.53V861.078a51.168,51.168,0,0,1-2.856,7.469l-1.513-6.567a36.416,36.416,0,0,0,3.987-10.881h-3.376v-4.516Zm7.91,10.43-1.964,3.936a22.569,22.569,0,0,0,4.373-4.677v-2.667l-3.279,1.15c-.129-1.191-.29-2.423-.515-3.656H112.2v1.683A32.577,32.577,0,0,1,116.44,857.013Zm11.308-5.422a52.174,52.174,0,0,0,2.511-8.374l3.279.989a59.193,59.193,0,0,1-2.511,10.55l-3.279-1.973v2.548a40.884,40.884,0,0,1,6.139,5.376l-2.378,4.806a39.985,39.985,0,0,0-3.762-4.806v9.772c0,.98.359,1.435,1,1.435h.129a.948.948,0,0,0,.869-.492c.193-.248.322-1.849.386-4.76l3.661.943c-.221,3.854-.639,6.323-1.283,7.51a2.916,2.916,0,0,1-2.732,1.31h-3.021c-1.867,0-2.764-1.517-2.764-4.511v-32.39h3.757Z" transform="translate(17.625 -839.239)" fill="gold"/>
  <path id="Path_31470" data-name="Path 31470" d="M139.561,876.526h-4.015v-1.269H115.33v1.269h-4.019V839.667h28.25Zm-4.015-5.128V843.525H115.33v21.431a16.266,16.266,0,0,0,5.845-2.507H117.1v-7.39H133.9v7.39h-2.6l1.991,1.6a14.679,14.679,0,0,1-1.026,1.683c.929.414,1.895.86,2.893,1.357l-1.513,3.854a48.571,48.571,0,0,0-8.034-4.185l1.637-2.874c.547.166,1.095.368,1.674.538.354-.658.676-1.32.993-1.973H125.71a2.583,2.583,0,0,1-.322.368v7.473h-3.665v-3.9a19.627,19.627,0,0,1-5.013,2.791l-1.38-3.532V871.4Zm-12.053-26.112v-1.6h4.015v1.6h6.043v3.532h-6.043v1.435h7.3v3.532H116.1v-3.532h7.395v-1.435h-6.268v-3.532Zm6.65,12.646h-9.285v1.6h9.285Z" transform="translate(43.356 -838.724)" fill="gold"/>
  <path id="Path_31471" data-name="Path 31471" d="M125.824,852.27H127.3a32.757,32.757,0,0,0,1.738-4.64l3.376,1.108a31.145,31.145,0,0,1-1.255,3.532h2.764v4.185h-5.657V859h5.013v4.35h-3.95a34.394,34.394,0,0,1,3.6,3.651l-2.152,4.351a33.388,33.388,0,0,0-2.506-3.817v9.11h-3.633v-8.82a24.216,24.216,0,0,1-4.884,6.728l-1.637-5.132a18.413,18.413,0,0,0,5.813-6.071h-4.3V859h5.013v-2.548h-5.657V852.27h3.086a36.2,36.2,0,0,0-1.315-3.532l3.633-.947A26.275,26.275,0,0,1,125.824,852.27Zm2.957-9.156h4.272V847.3h-13.3v-4.189h4.787c-.156-.865-.35-1.725-.543-2.543l4.144-1.108C128.395,840.57,128.588,841.8,128.781,843.113Zm18.961,1.761a21.924,21.924,0,0,1-9.064,2.18v5.868h8.935V857.4h-2.281v19.867h-3.891V857.4h-2.8c-.189,8.374-1.476,14.987-3.854,19.747l-3.247-3.532c2.152-4.268,3.247-9.975,3.247-17.158V842.989a21.146,21.146,0,0,0,11.313-2.75Z" transform="translate(67.831 -839.462)" fill="gold"/>
  <path id="Path_31472" data-name="Path 31472" d="M136.3,847.669v-3.362H129.4v-4.641H140.71v8h11.056V871.4c0,2.874-1.256,4.346-3.762,4.346h-4.787l-.612-5.293c2.378.124,3.7.165,4.019.165.579,0,.869-.41.869-1.27v-4.52l-2.511,2.755a30.177,30.177,0,0,1-6.392-11.7A20.635,20.635,0,0,1,132.16,868.2l-2.249-2.874v11.2h-4.406V847.669h10.8Zm-.386,4.847h-6.006v10.918A20.668,20.668,0,0,0,135.918,852.516Zm11.575,10.467V852.516h-6.365A23.574,23.574,0,0,0,147.493,862.983Z" transform="translate(94.441 -838.724)" fill="gold"/>
  <path id="Path_31473" data-name="Path 31473" d="M145.757,843.771a45.154,45.154,0,0,1-4.277,1.518v4.884h4.277v4.35H141.48v1.15a32.65,32.65,0,0,1,4.4,4.148l-2.152,4.309a30.832,30.832,0,0,0-2.249-3.366v16.5h-3.762V861.83a29.437,29.437,0,0,1-3.886,7.105l-1.771-5.583a21.59,21.59,0,0,0,5.27-8.83h-4.787v-4.35h5.174v-3.9c-1.283.326-2.6.616-4.019.864l-1.154-4.8a45.278,45.278,0,0,0,11.571-2.589Zm16.289,22.451-3.371.621v10.421h-4.148v-9.685l-10.154,1.844-.258-5.128,10.412-1.89V839.462h4.148V861.67l3.15-.575Zm-8.034-19.251-1.991,4.972a38.9,38.9,0,0,0-6.65-6.08l2.115-3.693A35.713,35.713,0,0,1,154.012,846.972Zm-.221,9.938-2.028,4.967a39.6,39.6,0,0,0-6.268-5.914l2.125-3.693A35.283,35.283,0,0,1,153.791,856.91Z" transform="translate(118.035 -839.462)" fill="gold"/>
  <path id="Path_31474" data-name="Path 31474" d="M156.27,840.311a19.675,19.675,0,0,0,2.028,3.408,28.731,28.731,0,0,0,5.367-4.231l3.017,2.424a30.092,30.092,0,0,1-6.135,4.516,14.793,14.793,0,0,0,1.347,1.269A27.654,27.654,0,0,0,166.3,844l3.026,2.382a26.5,26.5,0,0,1-4.534,3.652,32.757,32.757,0,0,0,4.148,2.465l-1.61,5.128A52.569,52.569,0,0,1,160.9,852.7v2.18H147.592v-1.6a29.792,29.792,0,0,1-6.521,4.024l-1.991-4.967a18.011,18.011,0,0,0,4.3-1.807,35.094,35.094,0,0,0-2.442-2.994l2.893-2.423a39.427,39.427,0,0,1,2.824,3.159,30.39,30.39,0,0,0,3.891-3.775h-8.227v-4.185Zm-4.948,31.732h5.3a22.066,22.066,0,0,0,2.539-3.983l4.277,1.27a22.541,22.541,0,0,1-1.8,2.713h6.172v4.185H140.331v-4.185h6.687a36.188,36.188,0,0,0-2.184-3.04l4.015-1.1A18.51,18.51,0,0,1,151.322,872.043Zm13.852-15.066v10.757H143.352V856.977ZM161.288,861H147.238v2.709h14.049Zm-2.253-10.1a25.318,25.318,0,0,1-4.208-5.579,35.6,35.6,0,0,1-4.567,5.579Z" transform="translate(143.291 -839.368)" fill="gold"/>
  <path id="Path_31475" data-name="Path 31475" d="M149.553,848.407v-8.945h3.891v8.945h2.506v5.132h-2.506v8.784c.8-.367,1.6-.782,2.378-1.228v1.8a12.7,12.7,0,0,0,2.893-3.076h-3.762v-3.858h20.7v3.858H162.632c-.253.575-.478,1.108-.7,1.6H174.91v3.941c0,5.786-.414,9.156-1.186,10.177-.837.943-2.313,1.44-4.47,1.44h-1.637l-.612-4.682c1.32.129,2.056.166,2.249.166a1.841,1.841,0,0,0,1.352-.414c.193-.327.322-2.626.418-6.93h-1.352a19.445,19.445,0,0,1-2.12,5.583,23.413,23.413,0,0,1-5.206,6.443l-2.86-3.532a20.727,20.727,0,0,0,5.013-4.843,11.315,11.315,0,0,0,1.83-3.651h-1.7a17.628,17.628,0,0,1-2.506,4.594,22.319,22.319,0,0,1-5.528,5.013l-2.41-4.024a16.109,16.109,0,0,0,5.013-3.371,10.242,10.242,0,0,0,1.669-2.212h-1.283a15.939,15.939,0,0,1-3.633,3.2L155.4,866.8a45.682,45.682,0,0,1-8.485,3.734l-.773-5.744a24.05,24.05,0,0,0,3.408-.947v-10.3h-3.146v-5.132Zm24.107-7.836v13.792h-16.2V840.57Zm-3.891,5.128v-1.6h-8.42v1.6Zm0,3.371h-8.42v1.761h8.42Z" transform="translate(168.717 -839.462)" fill="gold"/>
</svg>
