<svg xmlns="http://www.w3.org/2000/svg" width="244.932" height="244.932" viewBox="0 0 244.932 244.932">
  <g id="section7_imgicon2_lg" transform="translate(-12662.63 -8353.728)">
    <circle id="Ellipse_3" data-name="Ellipse 3" cx="122.466" cy="122.466" r="122.466" transform="translate(12662.63 8598.659) rotate(-90)" fill="#fff"/>
    <g id="Group_132" data-name="Group 132" transform="translate(12711.25 8412.697)">
      <g id="Group_131" data-name="Group 131">
        <path id="Path_660" data-name="Path 660" d="M189.4,2187.974H175.508v1.269h13.21v3.011h-13.21v1.271h13.21v2.98h-13.21v1.176h16.444v3.213H188.62l1.477,2.306a23.914,23.914,0,0,1-3.913,2.5,1.65,1.65,0,0,0,.43.239,27.328,27.328,0,0,0,5.436,2.093l-1.576,3.333a26.347,26.347,0,0,1-6.468-3.131,13.227,13.227,0,0,1-3.861-3.773,12.486,12.486,0,0,1-1.881-3.57h-2.679v5.727c1.627-.353,3.156-.71,4.607-1.125l.4,2.892a84.831,84.831,0,0,1-9.6,2.653l-.979-3.359c.907-.151,1.783-.3,2.638-.477v-6.312h-2.933v-3.213h2.933v-12.8H189.4Zm-1.684,12.92H181.3a8.851,8.851,0,0,0,1.705,2.42c.1.119.228.237.327.356A19.825,19.825,0,0,0,187.713,2200.894Z" transform="translate(-169.719 -2184.175)" fill="#72adb6"/>
        <path id="Path_661" data-name="Path 661" d="M188.236,2184.788v1.855h8.924v3.338H179.135v6.224h6.841v-1.269h-5.385v-3.1h5.385v-1.383h2.762v1.383H195.1v4.368h2.057v3.1H195.1v4.509h-4.359a9.357,9.357,0,0,0,1.98,2.155,11.154,11.154,0,0,0,4.338,2.094l-1.182,3.359a12.806,12.806,0,0,1-5.089-3.064,15.288,15.288,0,0,1-2.954-4.544h-.43a17.513,17.513,0,0,1-1.15,2.062,18.912,18.912,0,0,1-5.742,5.546l-1.679-3.125a16.954,16.954,0,0,0,5.115-4.482h-3.26v-3.125h4.835a8.66,8.66,0,0,0,.327-1.383h-6.717a52.976,52.976,0,0,1-.529,6.488,36.793,36.793,0,0,1-1.327,5.628l-2.757-1.969a45.768,45.768,0,0,0,1.3-6.142,54.155,54.155,0,0,0,.378-6.425v-10.242h9.1v-1.855Zm.176,15.9h3.731V2199.3h-3.5A11.054,11.054,0,0,1,188.412,2200.688Zm.327-4.484h3.4v-1.269h-3.4Z" transform="translate(-149.626 -2184.554)" fill="#72adb6"/>
        <path id="Path_662" data-name="Path 662" d="M184.657,2194.463l-1.954,2.892a21.782,21.782,0,0,0-3.338-3.218l2.057-2.534A18.858,18.858,0,0,1,184.657,2194.463Zm.979,5.779a74.723,74.723,0,0,1-3.037,11.179l-2.731-1.741a68.829,68.829,0,0,0,3.032-10.47Zm1.078-12.8-1.959,2.886a22.711,22.711,0,0,0-3.032-3.124l1.954-2.42A17.635,17.635,0,0,1,186.715,2187.447Zm14.309.352c-1.7.321-3.509.618-5.39.856v3.861H202.1v3.213h-6.468v3.482H201.1v11.978h-2.83v-.913h-8.126v1.032h-2.83v-12.1H192.6v-3.482h-6.566v-3.213H192.6v-3.483c-1.5.177-3.032.358-4.612.477l-.974-3.338c4.587-.29,8.821-.762,12.733-1.383Zm-2.752,19.234v-4.608h-8.126v4.608Z" transform="translate(-129.37 -2184.554)" fill="#72adb6"/>
        <path id="Path_663" data-name="Path 663" d="M193.114,2190.774v2.54a40.031,40.031,0,0,1-2.778,10.141,14.221,14.221,0,0,1-4.664,6l-1.482-3.219a10.962,10.962,0,0,0,3.887-4.986,30.376,30.376,0,0,0,2.006-7.111h-5.089v-3.363Zm4.011-5.986v5.69a32.8,32.8,0,0,0,1.353,3.364,22.361,22.361,0,0,0,1.907-1.768,21.967,21.967,0,0,0,2.907-3.6l2.358,2.3a24.177,24.177,0,0,1-3.234,4.042,28.065,28.065,0,0,1-2.482,2.125c.3.622.627,1.208.98,1.8a22.519,22.519,0,0,0,6.115,7.137l-1.679,3.69a25.25,25.25,0,0,1-5.063-5.872,35.548,35.548,0,0,1-3.161-6.162v9.26a7.013,7.013,0,0,1-.6,3.483,3.072,3.072,0,0,1-2.633,1.032,13.617,13.617,0,0,1-3.607-.477l-.5-3.447a12.473,12.473,0,0,0,3.711.561.532.532,0,0,0,.549-.385,5.927,5.927,0,0,0,.15-1.559v-21.212Z" transform="translate(-109.194 -2184.554)" fill="#72adb6"/>
        <path id="Path_664" data-name="Path 664" d="M196.854,2206.018a24.994,24.994,0,0,1-6.364,4.161l-1.379-3.129a21.356,21.356,0,0,0,5.965-3.8Zm12.034-18.2a85.38,85.38,0,0,1-9.349,1.182c-1,1.772-1.928,3.306-2.8,4.628.674.472,1.327.886,1.975,1.3a54.675,54.675,0,0,0,4.213-5.721l3.032,1.591c-2.1,2.83-4.11,5.344-5.986,7.462q3.234-.179,6.012-.353c-.425-.71-.85-1.388-1.3-2.036l2.555-1.83a34.585,34.585,0,0,1,3.711,6.783l-2.633,1.856c-.249-.647-.529-1.3-.829-1.943-1.928.212-3.908.383-5.939.559v9.915h-2.933v-9.675c-2.705.237-5.514.413-8.422.559l-.5-3.333c2.057-.057,4.011-.149,5.867-.265.327-.325.627-.647.9-.978-1.778-1.233-3.607-2.535-5.488-3.831l1.783-2.534c.472.291.948.586,1.4.854.6-.916,1.13-1.834,1.632-2.771-1.534.083-3.109.146-4.716.176l-.876-3.219a107.253,107.253,0,0,0,17.32-1.383Zm-1,17.554a17.486,17.486,0,0,0,3.058,1.565l-1.653,3.326a19.511,19.511,0,0,1-3.058-1.886,23,23,0,0,1-3.312-2.949l1.855-2.42A19.714,19.714,0,0,0,207.887,2205.371Z" transform="translate(-88.611 -2184.458)" fill="#72adb6"/>
        <path id="Path_665" data-name="Path 665" d="M197.431,2202.379c-.347,2.8-.726,5.131-1.078,7.023l-2.529-.917c.4-2.3.725-4.6.974-6.9Zm3.436-16.251c-.928,2.062-1.809,3.866-2.607,5.4.249.176.472.353.726.528q.863-1.813,1.581-3.627l2.659,1.383c-1.259,2.659-2.436,5.017-3.56,7.053.451-.062.9-.093,1.327-.149-.1-.53-.223-1-.327-1.478l2.358-.679a31.131,31.131,0,0,1,1.078,5.4l-2.555.8c-.052-.411-.078-.824-.13-1.244-.321.063-.648.125-.954.156V2211.5h-2.731v-11.417c-1,.119-2.032.238-3.032.353l-.5-3.125c.7-.025,1.4-.088,2.057-.151.451-.762.876-1.5,1.28-2.269-1.156-.974-2.332-1.975-3.54-2.975l1.581-2.306c.124.093.249.183.352.269a41.829,41.829,0,0,0,2.28-5.13Zm3.332,20.735-2.654.828a51.669,51.669,0,0,0-.777-5.871l2.456-.712A45.385,45.385,0,0,1,204.2,2206.863Zm7.447-21.887v2.887h4.887v3.1h-6.39c-.2.71-.456,1.508-.757,2.362-.275.769-.549,1.441-.8,2.038,1.477-.151,2.83-.327,4.084-.5-.275-.767-.549-1.479-.855-2.157l2.659-.913a33.781,33.781,0,0,1,2.358,7.023l-2.861,1.031c-.145-.741-.3-1.446-.446-2.124a1.985,1.985,0,0,1-.529.083v9.177c0,.648.052.97.15,1,.052.118.176.15.4.15.451,0,.726-.121.8-.359a3.928,3.928,0,0,0,.249-1.3c.052-.415.13-1.093.176-2.032l2.332,1.618c-.249,2.54-.627,4.042-1.078,4.514a1.166,1.166,0,0,1-.928.534,5.707,5.707,0,0,1-1.555.144,4.455,4.455,0,0,1-1.778-.294c-1.005-.177-1.5-1.321-1.5-3.39v-9.292c-.5.089-.954.146-1.4.2-.078,4.482-.451,7.468-1.156,8.938a11.955,11.955,0,0,1-3.135,4.189l-1.549-2.887a9.475,9.475,0,0,0,2.28-3.37,22.763,22.763,0,0,0,.829-6.515c-.6.088-1.182.151-1.731.208l-.5-3.244c.549-.03,1.1-.088,1.632-.151.321-.705.674-1.559,1.052-2.534.275-.767.523-1.478.726-2.155H203.8v-3.1h4.991v-2.887Z" transform="translate(-68.899 -2184.744)" fill="#72adb6"/>
      </g>
    </g>
    <rect id="Rectangle_65" data-name="Rectangle 65" width="177.459" height="1.893" transform="translate(12696.366 8455.848)" fill="#72adb6"/>
    <g id="Group_133" data-name="Group 133" transform="translate(12696.313 8474.209)">
      <path id="Path_666" data-name="Path 666" d="M169.864,2200.7v-2.492a4.4,4.4,0,0,0-.073-.83.935.935,0,0,1-.078-.362c0-.095.114-.151.378-.151l1.472.207c.135.078.213.13.213.172,0,.113-.078.17-.213.17-.264.093-.378.377-.378.865v2.42h1.7c.1,0,.156.078.156.229v.586c0,.207-.057.305-.156.305h-1.7v3.893c.591-.307,1.156-.623,1.684-.949a.133.133,0,0,1,.093-.072.134.134,0,0,1,.15.15,3.831,3.831,0,0,1-.073,1.036c-.643.379-1.249.741-1.855,1.079v5.711c0,.89-.658,1.341-1.985,1.341l-1.036-.078c-.114,0-.15-.114-.15-.321a3.116,3.116,0,0,0-.358-.87c0-.109.036-.151.13-.151a4.07,4.07,0,0,0,1.265.228c.529,0,.814-.228.814-.664v-4.477c-.622.336-1.249.643-1.85.927-.192.358-.321.529-.435.529-.135,0-.378-.507-.741-1.551a20.977,20.977,0,0,0,2.876-1.15c.036-.02.093-.042.15-.077v-4.535h-2.286c-.114,0-.15-.1-.15-.305v-.586c0-.151.036-.229.15-.229Zm8.126,4.805v-1.479c0-.144.093-.221.285-.221.928,0,1.4.077,1.4.221,0,.173-.057.27-.171.287-.135.015-.187.149-.187.378v.814h4.571c.15,0,.228.109.228.306v.579c0,.208-.078.3-.228.3h-4.405a13.468,13.468,0,0,0,1.441,2.082,9.15,9.15,0,0,0,1.83,1.777,6.749,6.749,0,0,0,1.8,1.016.224.224,0,0,1-.171.193,5.489,5.489,0,0,0-.622.7c-.078.072-.135.128-.171.128a9.946,9.946,0,0,1-2.249-1.622,9.755,9.755,0,0,1-1.684-1.985,5.731,5.731,0,0,1-.337-.493v5.214c0,.151-.114.228-.306.228h-.736c-.192,0-.285-.077-.285-.228v-5.177a7.7,7.7,0,0,1-.529.72,18.22,18.22,0,0,1-1.622,1.741,15.975,15.975,0,0,1-1.99,1.474.468.468,0,0,1-.337-.135c-.244-.228-.492-.435-.72-.644a.488.488,0,0,1-.052-.186,14.575,14.575,0,0,0,1.544-.964,10.713,10.713,0,0,0,1.855-1.7,22.147,22.147,0,0,0,1.57-2.14h-3.783c-.15,0-.223-.094-.223-.3v-.579c0-.2.073-.306.223-.306Zm4.726-7.541a20.036,20.036,0,0,1-2.327.6,29.5,29.5,0,0,1-2.928.435,26.159,26.159,0,0,1-2.949.151c-.228,0-.358-.072-.394-.243-.171-.223-.363-.493-.57-.779a.2.2,0,0,1,.228-.223h1.1a23.362,23.362,0,0,0,2.949-.151,11.44,11.44,0,0,0,2.229-.341,8.448,8.448,0,0,0,2.171-.714.731.731,0,0,1,.192-.042.708.708,0,0,1,.321.077c.715.643,1.073,1.02,1.073,1.171a.2.2,0,0,1-.223.223l-.513-.223A1.333,1.333,0,0,0,182.716,2197.962Zm-6.732,3.587a10.433,10.433,0,0,1,.435,1.513,4,4,0,0,1-1.244.383,9.838,9.838,0,0,0-.3-1.253,13.068,13.068,0,0,0-.663-1.7c0-.094.342-.316,1.037-.663A16.782,16.782,0,0,1,175.984,2201.549Zm3.2-.26a15.039,15.039,0,0,1,.415,1.492,5.315,5.315,0,0,1-1.244.358,7.384,7.384,0,0,0-.285-1.208,12.239,12.239,0,0,0-.606-1.669c0-.073.342-.3,1.042-.658C178.767,2200.207,179,2200.776,179.182,2201.289Zm4.628-1.1a.313.313,0,0,1,.156.229c0,.092-.078.149-.228.149-.228.042-.358.093-.4.207a18.735,18.735,0,0,1-1.664,2.669c-.187,0-.285-.021-.3-.078l-.886-.513a7.494,7.494,0,0,0,1.151-1.535,12.76,12.76,0,0,0,.757-1.657.259.259,0,0,1,.244-.131Z" transform="translate(-166.837 -2196.429)" fill="#72adb6"/>
      <path id="Path_667" data-name="Path 667" d="M187.453,2203.591c.093,0,.15.072.15.217v.591c0,.207-.057.3-.15.3h-8.712v8.566c0,.146-.114.223-.3.223H177.7c-.186,0-.285-.077-.285-.223v-1.4c-1.814.208-3.628.4-5.457.586-.192.342-.342.513-.456.513s-.321-.492-.663-1.471c.456-.042.948-.078,1.477-.141V2204.7h-1.4c-.114,0-.15-.093-.15-.3v-.591c0-.146.036-.217.15-.217Zm-2.591-6.866c.192,0,.306.078.306.228v5.385c0,.155-.114.228-.306.228H173.786c-.187,0-.285-.073-.285-.228v-5.385c0-.15.1-.228.285-.228Zm-7.447,9.3V2204.7h-3.757v1.321Zm0,2.519v-1.4h-3.757v1.4Zm-3.249,2.591c1.135-.139,2.234-.285,3.249-.455v-1.026h-3.757v1.555C173.807,2211.183,173.978,2211.164,174.165,2211.131Zm9.681-12.043v-1.25h-9.018v1.25Zm0,1.114h-9.018v1.248h9.018Zm2.286,5.746a.393.393,0,0,1,.243.115l.285.394a.888.888,0,0,1,.13.384,16,16,0,0,1-2.021,3.627c-.114.151-.228.26-.3.358a4.99,4.99,0,0,0,1.192.72,9.3,9.3,0,0,0,2.021.731c.093.041.15.062.15.1a.3.3,0,0,1-.093.206,5.885,5.885,0,0,0-.684.665c-.073.109-.15.166-.187.166a.8.8,0,0,1-.264-.109c-.415-.155-.85-.321-1.327-.528a11.014,11.014,0,0,1-1.586-.949.541.541,0,0,1-.13-.114,5.656,5.656,0,0,1-.757.549,20.141,20.141,0,0,1-2.291,1.079.378.378,0,0,1-.337-.249,6.848,6.848,0,0,0-.4-.622c-.114-.114-.15-.191-.15-.244a.193.193,0,0,1,.135-.191,7.328,7.328,0,0,0,2.778-1.172c.021,0,.036-.016.057-.058a1.659,1.659,0,0,1-.192-.227,5.058,5.058,0,0,1-.907-1.529,8.149,8.149,0,0,1-.679-1.908h-.834c-.15,0-.207-.1-.207-.3v-.591c0-.187.057-.3.207-.3Zm-3.763,2.1a6.538,6.538,0,0,0,.834,1.514,2.835,2.835,0,0,0,.321.395,7.9,7.9,0,0,0,.829-1.058c.28-.435.6-1.021.985-1.757h-3.27A5.585,5.585,0,0,0,182.369,2208.047Z" transform="translate(-150.408 -2196.139)" fill="#72adb6"/>
      <path id="Path_668" data-name="Path 668" d="M179.786,2197.753c.187.079.28.171.28.286,0,.17-.109.279-.337.356a.507.507,0,0,0-.549.4c-.114.285-.228.549-.342.8h3.747v-2.668c0-.151.093-.228.28-.228.985,0,1.493.077,1.493.228,0,.17-.073.263-.187.284-.135.021-.192.151-.192.378v2.006h5.39c.15,0,.228.089.228.28v.607c0,.185-.078.279-.228.279h-5.39v3.835h6.789c.15,0,.223.119.223.307v.585c0,.207-.073.3-.223.3h-5.084v5.467c0,.6.358.888,1.094.888h2.156a.853.853,0,0,0,.907-.742,7.347,7.347,0,0,0,.337-1.7,3.264,3.264,0,0,0,1.042.586.279.279,0,0,1,.228.306,6.884,6.884,0,0,1-.586,1.979c-.192.534-.684.818-1.492.818h-3.327c-1.135,0-1.684-.42-1.684-1.248v-6.355h-2.964c-.021.871-.057,1.607-.093,2.178a8,8,0,0,1-.549,1.984,4.794,4.794,0,0,1-1.156,1.665,6.826,6.826,0,0,1-1.928,1.285,21.661,21.661,0,0,1-2.172.714c-.129,0-.207-.077-.228-.223a5.105,5.105,0,0,1-.529-.818.507.507,0,0,1-.057-.223,15.612,15.612,0,0,0,2.685-.7,3.156,3.156,0,0,0,1.306-.928,3.249,3.249,0,0,0,.751-1.078,6.491,6.491,0,0,0,.513-1.622,19.1,19.1,0,0,0,.13-2.235h-5.157c-.15,0-.228-.093-.228-.3v-.585c0-.187.078-.307.228-.307h7.675v-3.835h-4.3a16.28,16.28,0,0,1-1.493,2.529c-.187.228-.321.347-.415.347a.506.506,0,0,1-.337-.135c-.264-.114-.534-.244-.757-.358-.114-.042-.171-.062-.171-.092,0-.059.041-.137.15-.25a18.008,18.008,0,0,0,1.8-2.4,11.3,11.3,0,0,0,1.3-2.706c.078-.257.192-.393.306-.393Z" transform="translate(-134.029 -2196.261)" fill="#72adb6"/>
      <path id="Path_669" data-name="Path 669" d="M182.292,2205.608c.192,0,.285.079.285.228v4.877a1.461,1.461,0,0,0,.207.851.787.787,0,0,0,.472.435,2.5,2.5,0,0,0,.985.3,10.677,10.677,0,0,0,1.664.114h3.949a32.2,32.2,0,0,0,5.447-.527.616.616,0,0,1,.28-.063c.093,0,.15.026.15.063a8.387,8.387,0,0,0-.358,1.527c-.036.208-.135.326-.321.326H185.9c-.451,0-.886-.041-1.306-.076-.43-.079-.85-.151-1.244-.25a4.941,4.941,0,0,1-1.005-.471,3.152,3.152,0,0,1-.658-.834l-.078-.068c-.073,0-.135.01-.135.052a7.118,7.118,0,0,0-2.057,1.833.18.18,0,0,1-.171.11c-.073,0-.321-.316-.715-.958a.619.619,0,0,1-.1-.379,14.578,14.578,0,0,0,2.721-1.627c.062-.037.1-.15.1-.358V2206.8h-2.363c-.15,0-.228-.1-.228-.306v-.581c0-.19.078-.306.228-.306Zm-.964-3.549c.513.393.948.751,1.322,1.057a.444.444,0,0,1-.093.149c-.378.53-.565.8-.565.8a16.317,16.317,0,0,0-1.814-1.346,8.886,8.886,0,0,0-1.285-.716,3.574,3.574,0,0,1,.586-.835c.057-.077.114-.128.15-.128C180.307,2201.416,180.877,2201.753,181.328,2202.06Zm.4-4.292c.492.337.922.643,1.306.9a.4.4,0,0,1-.1.176c-.378.524-.565.793-.565.793a20.42,20.42,0,0,0-1.778-1.176c-.513-.259-.928-.467-1.265-.6a3.834,3.834,0,0,1,.586-.835c.057-.077.114-.13.15-.13A18.562,18.562,0,0,1,181.727,2197.767Zm6.027-.265c0,.109-.057.167-.13.167-.212.021-.342.079-.4.192-.264.62-.508,1.171-.757,1.627h2.8a5.278,5.278,0,0,0,.508-.7,9.393,9.393,0,0,0,.855-1.778c.016-.114.073-.17.15-.17a11.215,11.215,0,0,1,1.55.741c0,.052-.078.088-.228.13a.606.606,0,0,0-.472.358c-.244.471-.529.948-.834,1.42h4.12c.135,0,.212.108.212.3v.585c0,.207-.078.3-.212.3h-3.985v2.136h3.535c.15,0,.228.12.228.306v.584c0,.188-.078.286-.228.286h-3.535v2.15h3.535c.15,0,.228.094.228.285v.608c0,.185-.078.284-.228.284h-3.535v2.077h4.343c.155,0,.233.089.233.287v.6c0,.191-.078.279-.233.279h-8.992v.591c0,.151-.114.228-.3.228h-.741c-.207,0-.3-.077-.3-.228v-9.416c-.342.4-.757.848-1.249,1.383a.5.5,0,0,1-.358-.172c-.192-.134-.363-.284-.549-.435a.247.247,0,0,1-.135-.207c.42-.436.855-.907,1.29-1.4a11.716,11.716,0,0,0,1.436-2.115,14.282,14.282,0,0,0,.829-2.026c0-.094.036-.15.078-.15C187.267,2197.1,187.754,2197.4,187.754,2197.5Zm1.835,3.172h-3.306v2.136h3.306Zm0,5.462v-2.15h-3.306v2.15Zm0,3.254v-2.077h-3.306v2.077Z" transform="translate(-118.324 -2196.612)" fill="#72adb6"/>
      <path id="Path_670" data-name="Path 670" d="M185.368,2200.491v-2.515a4.4,4.4,0,0,0-.078-.828.867.867,0,0,1-.073-.363c0-.072.109-.128.358-.128l1.493.186c.135.077.207.135.207.172,0,.114-.073.17-.207.17-.264.114-.378.4-.378.871v2.436h2.363c.15,0,.228.1.228.285v.607c0,.186-.078.285-.228.285H186.69v4.171c.814-.393,1.586-.812,2.327-1.229a.165.165,0,0,1,.114-.056.135.135,0,0,1,.15.135,3.808,3.808,0,0,1-.078,1.041c-.829.493-1.679.944-2.514,1.358v5.219c0,.865-.658,1.321-1.985,1.321h-1.114c-.114,0-.15-.114-.15-.322a3.162,3.162,0,0,0-.358-.848c0-.114.036-.151.13-.151a7.383,7.383,0,0,0,1.342.151c.529,0,.814-.229.814-.679v-4.026c-.643.336-1.285.641-1.928.922-.192.362-.321.532-.435.532-.135,0-.378-.511-.736-1.554a31.1,31.1,0,0,0,3.1-1.187v-4.8h-2.513c-.156,0-.228-.1-.228-.285v-.607c0-.186.073-.285.228-.285ZM194,2199.6v-2.664c0-.156.1-.228.285-.228.943,0,1.42.072,1.42.228s-.078.26-.192.279c-.13.022-.187.156-.187.386v2h3.908c.156,0,.228.093.228.285v.6c0,.193-.073.285-.228.285h-3.908v3.1h2.944a.776.776,0,0,1,.383.109c.223.186.358.322.358.414a21.142,21.142,0,0,1-.663,2.4,11.128,11.128,0,0,1-1.073,2.026,10.722,10.722,0,0,1-1.119,1.436.963.963,0,0,1-.207.208,7.842,7.842,0,0,0,2.192,1.415,6.689,6.689,0,0,0,1.456.548c.15.058.228.114.228.151a.318.318,0,0,1-.114.265,8.522,8.522,0,0,0-.549.7.274.274,0,0,1-.228.146,4.164,4.164,0,0,1-1.016-.395,12.77,12.77,0,0,1-2.97-1.948c-.171.135-.321.249-.477.358a13.112,13.112,0,0,1-1.85,1.063,21.025,21.025,0,0,1-2.534,1,.362.362,0,0,1-.316-.187,7.9,7.9,0,0,0-.834-.607.587.587,0,0,1-.114-.17c0-.056.041-.093.155-.109a16.679,16.679,0,0,0,2.871-.99,8.864,8.864,0,0,0,2.114-1.206.252.252,0,0,0,.078-.058,11.163,11.163,0,0,1-1.55-2.229,18.368,18.368,0,0,1-1.228-3.155H190.3c-.15,0-.213-.1-.213-.307v-.586c0-.186.062-.295.213-.295H194v-3.1h-3.757c-.156,0-.228-.092-.228-.285v-.6c0-.191.073-.285.228-.285Zm-.472,7.861a7.881,7.881,0,0,0,1.513,2.137,5.573,5.573,0,0,0,.549-.566,12.207,12.207,0,0,0,1.187-1.8,18.263,18.263,0,0,0,.757-2.171h-4.97A11.208,11.208,0,0,0,193.531,2207.466Z" transform="translate(-102.292 -2196.429)" fill="#72adb6"/>
      <path id="Path_671" data-name="Path 671" d="M191.269,2202.248a.364.364,0,0,1-.28.379.453.453,0,0,0-.285.228c-.358.662-.715,1.243-1.057,1.755v9.019c0,.15-.093.223-.285.223h-.736c-.207,0-.3-.073-.3-.223v-7.318c-.342.4-.741.819-1.192,1.269a7.581,7.581,0,0,0-.871-.871c-.114-.114-.15-.19-.15-.243a.575.575,0,0,1,.057-.135,10.848,10.848,0,0,0,2.249-2.452,16.237,16.237,0,0,0,1.472-2.54c.041-.073.078-.109.135-.109A7.169,7.169,0,0,1,191.269,2202.248Zm-.187-4.494c.171.109.264.223.264.374s-.078.207-.223.207a.557.557,0,0,0-.492.25,17.492,17.492,0,0,1-3.42,3.534.344.344,0,0,1-.306-.17,3.929,3.929,0,0,0-.586-.586.384.384,0,0,1-.13-.207c0-.078.016-.114.073-.13a4.76,4.76,0,0,0,1.078-.835,10.419,10.419,0,0,0,1.379-1.42,9.468,9.468,0,0,0,.985-1.642c.073-.114.135-.187.171-.187Zm2.306,6.028c.114.037.171.1.171.17,0,.146-.057.245-.15.265-.15.077-.249.285-.285.623a24.983,24.983,0,0,1-.285,4.654,22.711,22.711,0,0,1-.736,2.186c0,.114-.13.177-.378.177-.7-.217-1.037-.363-1.037-.437a11.259,11.259,0,0,0,.871-2.419,39.336,39.336,0,0,0,.352-5.3c0-.109.078-.187.249-.187Zm.834-3.213v-3.705c0-.13.093-.207.3-.207.928,0,1.4.077,1.4.207,0,.17-.057.265-.171.285-.135.021-.192.15-.192.379v3.042h2.513c.135,0,.207.093.207.286v.586c0,.206-.073.3-.207.3H195.56v11.816c0,.146-.109.223-.3.223h-.736c-.207,0-.3-.078-.3-.223v-11.816h-2.291c-.15,0-.207-.093-.207-.3v-.586c0-.193.057-.286.207-.286Zm3.042-2.963a20.011,20.011,0,0,1,1.171,1.771c0,.186-.041.286-.114.306a1.917,1.917,0,0,1-.985.43c-.373-.788-.715-1.451-1.036-1.985,0-.128.264-.337.808-.6A.2.2,0,0,1,197.265,2197.606Zm.808,6.274c0,.088-.073.186-.223.295v5.763c0,.156.036.208.15.208h.358c.171,0,.342-.581.529-1.753l1.1.665c-.358,1.523-.793,2.285-1.321,2.285h-1.119q-.964,0-.964-.814V2203.8c0-.135.078-.208.228-.208C197.638,2203.668,198.073,2203.762,198.073,2203.88Zm5.54-1.839c.135,0,.207.1.207.285v.607c0,.186-.073.286-.207.286h-1.265v9.24c0,.921-.777,1.394-2.291,1.394h-.814c-.093,0-.13-.13-.13-.358a3.449,3.449,0,0,0-.3-.979v-.056a6.656,6.656,0,0,0,1.171.128c.679,0,1.037-.227,1.037-.662v-8.707h-2.078c-.15,0-.207-.1-.207-.286v-.607c0-.187.057-.285.207-.285Zm-.3-3.985c.15,0,.228.093.228.279v.607c0,.186-.078.286-.228.286h-3.991c-.15,0-.223-.1-.223-.286v-.607c0-.186.073-.279.223-.279Z" transform="translate(-86.219 -2196.429)" fill="#72adb6"/>
      <path id="Path_672" data-name="Path 672" d="M192.17,2202.346c.451.358.834.679,1.171.944a.278.278,0,0,1-.114.165c-.415.591-.622.871-.622.871a18.613,18.613,0,0,0-1.55-1.264c-.456-.3-.829-.509-1.114-.665a3.956,3.956,0,0,1,.586-.829c.057-.072.114-.128.15-.128C191.283,2201.776,191.771,2202.081,192.17,2202.346Zm1.721,3.25c.3.678.472,1.062.472,1.093a.533.533,0,0,1-.073.248c-.549,1.36-1.062,2.534-1.534,3.479-.264.549-.565,1.135-.943,1.777a1.4,1.4,0,0,0-.093.622c0,.151-.057.229-.156.229a6.341,6.341,0,0,1-1.208-1.188.209.209,0,0,1-.114-.217.421.421,0,0,1,.078-.258,8.727,8.727,0,0,0,1-1.286c.451-.7.886-1.493,1.342-2.378.378-.779.72-1.493,1-2.136.042-.1.078-.156.114-.156C193.833,2205.425,193.869,2205.481,193.89,2205.6Zm.093-7.676c.456.342.85.664,1.192.949a.889.889,0,0,1-.093.17c-.42.565-.622.85-.643.85a12.386,12.386,0,0,0-1.591-1.248,8.007,8.007,0,0,0-1.13-.665,3.958,3.958,0,0,1,.565-.828c.057-.078.114-.134.171-.134C193.056,2197.355,193.569,2197.656,193.983,2197.92Zm7.541-1.057c0,.17-.073.265-.187.285s-.171.15-.171.379v.377H206.1c.093,0,.15.072.15.223v.436c0,.207-.057.307-.15.307h-4.934v.89h5.747c.187,0,.3.068.3.207v1.851c0,.145-.114.223-.3.223h-.741c-.15,0-.207-.079-.207-.223v-1.042h-5.69v1.021l4.426-.493c.093,0,.15.079.15.208v.45c0,.192-.057.286-.15.286l-4.426.5c0,.373.285.544.814.544h3.327a1.154,1.154,0,0,0,.627-.131c.13-.056.223-.269.28-.605,0-.036.041-.078.114-.078a1.751,1.751,0,0,0,.907.27c.135.015.207.067.207.187a2.02,2.02,0,0,1-.658,1.114,1.374,1.374,0,0,1-.891.207H200.56c-.886,0-1.322-.321-1.322-.963v-.436l-1.855.208c-.093,0-.13-.093-.13-.281v-.456c0-.134.036-.208.13-.208l1.855-.207v-1.135h-2.721v4.064a18.815,18.815,0,0,1-.4,4.384,9.35,9.35,0,0,1-.964,2.7,6.651,6.651,0,0,1-1.078,1.555.49.49,0,0,1-.207-.042,3.571,3.571,0,0,0-.679-.472.352.352,0,0,1-.073-.228,6.546,6.546,0,0,0,1.151-1.85,11.5,11.5,0,0,0,.736-2.59,22.13,22.13,0,0,0,.249-3.458v-4.873c0-.139.073-.207.223-.207h4.348v-2.9c0-.13.093-.207.3-.207C201.052,2196.656,201.524,2196.734,201.524,2196.864ZM198.2,2210.68c.15.077.223.128.223.207a.18.18,0,0,1-.114.186c-.109,0-.171.078-.186.193a12.462,12.462,0,0,1-.814,2.191c-.073.114-.114.171-.135.171a.712.712,0,0,1-.28-.093c-.228-.121-.435-.207-.622-.286l-.135-.056a.179.179,0,0,1,.036-.13,11.3,11.3,0,0,0,.57-1.208,7.95,7.95,0,0,0,.394-1.363c.036-.119.078-.191.114-.191Zm7.763-5.691c.192,0,.285.079.285.229v4.063c0,.156-.093.214-.285.214H197.99c-.207,0-.3-.058-.3-.214v-4.062c0-.149.093-.229.3-.229Zm-4.649,1.778v-.814h-2.363v.814Zm0,.964h-2.363v.793h2.363Zm-.809,2.492c0,.1-.078.193-.233.307v1.85c0,.135.041.207.156.207h3.384c.244,0,.487-.377.736-1.093l1.114.658c-.415,1.078-.948,1.627-1.55,1.627h-4.141c-.643,0-.964-.285-.964-.813v-2.819c0-.131.078-.208.228-.208C200.068,2210.016,200.508,2210.114,200.508,2210.223Zm1.565-.394a8.561,8.561,0,0,1,1.379,1.021c.041.037.078.077.078.114a.2.2,0,0,1-.057.15l-.342.436a.42.42,0,0,1-.264.088.135.135,0,0,1-.13-.088,10.884,10.884,0,0,0-1.249-.835c-.078-.035-.114-.072-.114-.114a.455.455,0,0,1,.057-.186l.358-.565a.424.424,0,0,1,.192-.063Zm.492-3.062H205v-.814h-2.436Zm2.436.964h-2.436v.793H205Zm1.705,3.214c.337.336.622.643.886.911l-.093.13c-.342.45-.513.679-.513.679a14.2,14.2,0,0,0-1.208-1.156,6.3,6.3,0,0,0-.85-.622,3.994,3.994,0,0,1,.508-.7.317.317,0,0,1,.15-.093A10.481,10.481,0,0,1,206.707,2210.945Z" transform="translate(-70.204 -2196.429)" fill="#72adb6"/>
      <path id="Path_673" data-name="Path 673" d="M195.321,2213.656c0,.151-.109.228-.3.228h-.736c-.187,0-.285-.077-.285-.228v-16.1a.254.254,0,0,1,.285-.287h4.291a1.053,1.053,0,0,1,.6.131,1.285,1.285,0,0,1,.44.756l-1.912,4.44a.781.781,0,0,0-.021.208.234.234,0,0,0,.078.17,10.633,10.633,0,0,1,1.435,2.534,7.374,7.374,0,0,1,.42,2.306,3.988,3.988,0,0,1-.606,2.42,2.491,2.491,0,0,1-2.213.981c-.565,0-.85-.116-.871-.379-.057-.265-.13-.586-.244-.949,0-.186.021-.295.073-.295l1.042.144c.586,0,.964-.165,1.114-.522a4.55,4.55,0,0,0,.207-1.535,5.722,5.722,0,0,0-.451-2.1,8.575,8.575,0,0,0-1.5-2.456.332.332,0,0,1-.109-.167.855.855,0,0,1,.078-.286l1.907-4.238h-2.726Zm7.318-4.307a.534.534,0,0,1,.13.249c0,.077-.036.088-.114.088a.546.546,0,0,0-.3.175,12.2,12.2,0,0,1-1.057,1.53,13.048,13.048,0,0,1-1.679,1.607.307.307,0,0,1-.306-.151c-.244-.207-.456-.379-.606-.534-.093-.037-.129-.089-.129-.131a.153.153,0,0,1,.057-.114,3.214,3.214,0,0,0,.814-.527,6.673,6.673,0,0,0,1.187-1.286c.285-.4.606-.886.948-1.473.016-.1.057-.154.093-.154Zm3.213-12.019c.114.093.171.17.171.229,0,.148-.135.227-.363.227a.694.694,0,0,0-.223.03,10.676,10.676,0,0,0,.98,1.286,7.786,7.786,0,0,0,1.456,1.271,8.5,8.5,0,0,0,2.42,1.208c.114.041.171.076.171.113a.263.263,0,0,1-.114.223,6.294,6.294,0,0,0-.736.665c-.078.119-.135.155-.192.155a6.955,6.955,0,0,1-1.757-.928,7.919,7.919,0,0,1-1.814-1.513,11.15,11.15,0,0,1-1.192-1.529,12.789,12.789,0,0,1-.834,1.167,9.945,9.945,0,0,1-1.151,1.341c-.472.477-.923.892-1.379,1.275a9.31,9.31,0,0,1-1.1.772.291.291,0,0,1-.28-.172,3.38,3.38,0,0,0-.57-.662c-.13-.073-.187-.151-.187-.208a.139.139,0,0,1,.073-.093,8.948,8.948,0,0,0,1.591-.943,12.121,12.121,0,0,0,1.736-1.685,9.251,9.251,0,0,0,.964-1.271,12.362,12.362,0,0,0,.741-1.429c.073-.121.15-.192.207-.192Zm2.322,5.021c.135,0,.207.121.207.307v.586c0,.208-.073.306-.207.306H205.66v2.715h4.2c.15,0,.223.12.223.306v.586c0,.208-.073.306-.223.306h-4.2v5.007c0,.942-.772,1.415-2.285,1.415h-.886c-.093,0-.135-.128-.135-.358a3.134,3.134,0,0,0-.321-.985v-.072a6.044,6.044,0,0,0,1.265.151c.684,0,1.042-.229,1.042-.665v-4.493h-3.985c-.155,0-.228-.1-.228-.306v-.586c0-.186.073-.306.228-.306h3.985v-2.715h-2.514c-.15,0-.228-.1-.228-.306v-.586c0-.186.078-.307.228-.307Zm.964,7.888c.456.643.85,1.208,1.171,1.715a.37.37,0,0,1-.093.172c-.415.565-.643.872-.643.872a18.843,18.843,0,0,0-1.55-2.287,8.822,8.822,0,0,0-1.114-1.192,3.551,3.551,0,0,1,.586-.833c.057-.079.114-.131.15-.131A14.96,14.96,0,0,1,209.137,2210.24Z" transform="translate(-53.231 -2196.383)" fill="#72adb6"/>
      <path id="Path_674" data-name="Path 674" d="M201.542,2200.638c.171.072.264.148.264.242,0,.151-.093.249-.28.306a.418.418,0,0,0-.456.317c-.15.383-.3.739-.451,1.046a8.859,8.859,0,0,0,1.472,1.073c0,.058-.036.114-.114.191a3.068,3.068,0,0,1-.549.751,8.872,8.872,0,0,1-1.321-.979,10.7,10.7,0,0,1-.98,1.586c-.155.186-.285.286-.363.286a.589.589,0,0,1-.28-.114c-.249-.114-.477-.207-.684-.321-.093-.042-.13-.058-.13-.079a.48.48,0,0,1,.109-.206,13.662,13.662,0,0,0,1.461-1.97,9.3,9.3,0,0,0,1.057-2.2c.073-.228.15-.347.244-.347Zm.342,6.083v-1.114c0-.093.057-.149.207-.149.886,0,1.342.077,1.342.227s-.057.245-.15.245c-.114.02-.15.128-.15.335v.457h3.172c.093,0,.156.079.156.207v.606c0,.192-.062.286-.156.286h-3.021a11.025,11.025,0,0,0,1.078,1.509,6.616,6.616,0,0,0,1.436,1.4,5.651,5.651,0,0,0,1.4.787c0,.073-.057.136-.171.172a4.247,4.247,0,0,0-.643.663c-.078.078-.114.114-.15.114a8.029,8.029,0,0,1-1.741-1.3,7.409,7.409,0,0,1-1.3-1.591c-.036-.042-.057-.057-.057-.1v4.1c0,.149-.114.223-.3.223h-.741c-.15,0-.207-.074-.207-.223v-4.157c-.15.224-.264.416-.378.566a14.86,14.86,0,0,1-1.249,1.491,12.223,12.223,0,0,1-1.55,1.286.428.428,0,0,1-.321-.109,8.669,8.669,0,0,0-.658-.643.459.459,0,0,1-.057-.207,9.318,9.318,0,0,0,1.171-.839,7.906,7.906,0,0,0,1.415-1.452c.264-.342.643-.912,1.135-1.7h-2.985c-.114,0-.15-.093-.15-.286v-.606c0-.128.036-.207.15-.207Zm1.684-9.826c0,.17-.057.26-.171.279-.135.022-.192.156-.192.385v1.336h2.949c.093,0,.15.078.15.207v.611c0,.188-.057.28-.15.28h-7.748c-.114,0-.15-.093-.15-.28v-.611c0-.129.036-.207.15-.207h3.477v-2c0-.156.093-.228.285-.228C203.092,2196.667,203.569,2196.739,203.569,2196.9Zm1.7,3.914c.15.072.228.15.228.223a.3.3,0,0,1-.207.285.3.3,0,0,0-.321.284c-.114.358-.228.679-.342.981a3.979,3.979,0,0,0,.565.818,5.059,5.059,0,0,0,1.156,1.016c.073.041.114.063.114.093s-.062.079-.135.135a2.786,2.786,0,0,1-.508.528c-.078.114-.135.155-.176.155a.313.313,0,0,1-.187-.077,4.56,4.56,0,0,1-.985-1.057,2.842,2.842,0,0,1-.3-.476,13.082,13.082,0,0,1-.643,1.248c-.114.186-.186.285-.244.285a.584.584,0,0,1-.285-.113c-.228-.095-.435-.193-.622-.265-.093-.037-.135-.058-.135-.077a.365.365,0,0,1,.078-.187,14.1,14.1,0,0,0,1.057-1.82,9.813,9.813,0,0,0,.757-2.036c.036-.186.093-.305.171-.305Zm4.669-3.654c.13.118.207.2.207.269a.207.207,0,0,1-.155.208.234.234,0,0,0-.259.207c-.306.927-.549,1.627-.741,2.082h1.964a5.165,5.165,0,0,0,.383-.818,13.845,13.845,0,0,0,.674-2.134c.021-.15.062-.229.114-.229a11.122,11.122,0,0,1,1.57.742c0,.079-.073.109-.223.151a.616.616,0,0,0-.4.435c-.207.6-.435,1.229-.679,1.854h2.472c.155,0,.228.109.228.3v.591c0,.207-.073.3-.228.3h-2.586v2.648h2.285c.15,0,.228.109.228.295v.591c0,.207-.078.3-.228.3h-2.285v2.954h2.363c.15,0,.223.109.223.3v.59c0,.208-.073.3-.223.3h-2.363v2.726h2.586c.155,0,.228.109.228.295v.586c0,.191-.073.307-.228.307h-5.893v.584c0,.149-.114.223-.306.223h-.736c-.207,0-.3-.074-.3-.223v-11.318a9.242,9.242,0,0,1-.663.751,1.323,1.323,0,0,1-.4-.052,6.827,6.827,0,0,0-.736-.264c-.078-.042-.114-.079-.114-.119a.17.17,0,0,1,.057-.13,8.619,8.619,0,0,0,1.477-2.042,8.788,8.788,0,0,0,.679-1.477,15.232,15.232,0,0,0,.606-2.114c.036-.1.073-.151.129-.151Zm1.016,3.954h-1.98v2.648h1.98Zm0,3.835h-1.98v2.954h1.98Zm0,6.867v-2.726h-1.98v2.726Z" transform="translate(-37.873 -2196.383)" fill="#72adb6"/>
      <path id="Path_675" data-name="Path 675" d="M174.225,2202.873a9.016,9.016,0,0,1-1.943.509,14.464,14.464,0,0,1-2.42.187v1.119h5.312c.093,0,.15.078.15.208v.6c0,.2-.057.285-.15.285H173.4v1.928c0,.156-.114.229-.306.229h-.736c-.187,0-.28-.072-.28-.229v-1.928h-2.291a2.858,2.858,0,0,1-.243.851,3.483,3.483,0,0,1-.8,1.155,3.713,3.713,0,0,1-.886.663c-.093,0-.15,0-.186-.041a6.573,6.573,0,0,0-.679-.472.252.252,0,0,1-.1-.229,2.979,2.979,0,0,0,.928-.695,2.945,2.945,0,0,0,.586-.969,4.043,4.043,0,0,0,.192-1.281v-1.927c0-.191.073-.306.223-.306h.285a18.18,18.18,0,0,0,2.628-.15,6.835,6.835,0,0,0,2.063-.534.477.477,0,0,1,.187-.053.4.4,0,0,1,.207.093c.549.456.829.742.829.871,0,.208-.052.3-.15.3l-.435-.223A.677.677,0,0,0,174.225,2202.873Zm6.841,5.5c.192,0,.3.077.3.227v7.75c0,.155-.109.222-.3.222h-2.286a13.789,13.789,0,0,0,1.627.706,21.976,21.976,0,0,0,2.571.679c.15.058.244.114.244.172,0,.093-.285.413-.814.943a2.468,2.468,0,0,1-.3-.036,25.288,25.288,0,0,1-4.721-1.835c-.114-.051-.156-.093-.156-.114,0-.079.135-.244.4-.514h-4.12c.451.421.7.664.7.742s-.078.128-.207.128c-.228,0-.363.022-.383.079a41.064,41.064,0,0,1-5.25,1.492.314.314,0,0,1-.285-.187,1.418,1.418,0,0,0-.4-.472.369.369,0,0,1-.13-.227c0-.079.078-.114.228-.131.943-.2,1.757-.4,2.457-.611a13.69,13.69,0,0,0,2.115-.814h-2.721c-.207,0-.3-.067-.3-.222v-7.75c0-.149.093-.227.3-.227Zm-1.016,2.362v-1.248h-9.375v1.248Zm0,2.359v-1.243h-9.375v1.243Zm0,1.118h-9.375v1.244h9.375Zm1.985-11.339a10.172,10.172,0,0,1-2.063.509,16.5,16.5,0,0,1-2.586.187v1.119h6.271c.093,0,.15.078.15.208v.6c0,.2-.057.285-.15.285h-2.591v1.928c0,.156-.093.229-.28.229h-.736c-.207,0-.306-.072-.306-.229v-1.928h-2.436a4.075,4.075,0,0,1-.15.684,3.318,3.318,0,0,1-.57,1.074,2.272,2.272,0,0,1-.606.606.328.328,0,0,1-.207-.037,5.576,5.576,0,0,0-.679-.471c-.057-.037-.078-.116-.078-.229a2.48,2.48,0,0,0,.606-.622,2.88,2.88,0,0,0,.378-.871,4.7,4.7,0,0,0,.135-1.151v-1.927c0-.191.052-.306.207-.306h.3a20.369,20.369,0,0,0,2.778-.15,7.885,7.885,0,0,0,2.192-.534.524.524,0,0,1,.192-.053.4.4,0,0,1,.207.093c.549.456.829.742.829.871,0,.208-.057.3-.15.3l-.435-.223A.654.654,0,0,0,182.035,2202.873Z" transform="translate(-166.607 -2174.935)" fill="#72adb6"/>
      <path id="Path_676" data-name="Path 676" d="M174.81,2207.861c-.394-.524-.943-1.208-1.664-2.006a21.553,21.553,0,0,0-1.964-1.908l.871-1a28.906,28.906,0,0,1,3.856,3.954Z" transform="translate(-148.664 -2170.115)" fill="#72adb6"/>
      <path id="Path_677" data-name="Path 677" d="M179.392,2203.319c.187,0,.3.077.3.206v6.147c0,.188-.114.279-.3.279h-4.8v5.177c0,.591.363.871,1.119.871h2.358a1.141,1.141,0,0,0,1.285-.9,9.952,9.952,0,0,0,.492-2.12,2.657,2.657,0,0,0,1.021.584.288.288,0,0,1,.228.3,7.743,7.743,0,0,1-.72,2.42c-.223.664-.85.979-1.871.979h-3.534c-1.135,0-1.7-.415-1.7-1.265v-6.934c0-.191.093-.279.306-.279h4.8v-4.291h-5.027c-.156,0-.228-.1-.228-.305v-.586c0-.187.073-.284.228-.284Zm4.815-1.078c.135.118.212.19.212.269a.267.267,0,0,1-.228.281c-.15,0-.228.113-.244.3-.156.705-.269,1.286-.378,1.783h6.157c.156,0,.228.089.228.281v.607c0,.186-.073.279-.228.279h-1.265a28.023,28.023,0,0,1-.529,5.254,12.142,12.142,0,0,1-1.477,3.877.173.173,0,0,0-.052.093,6.937,6.937,0,0,0,1.187,1.1,8.992,8.992,0,0,0,2.363,1.208.349.349,0,0,1-.187.264,7.042,7.042,0,0,0-.684.735.552.552,0,0,1-.244.176,11.817,11.817,0,0,1-2.342-1.46,5.138,5.138,0,0,1-1.005-.923,7.7,7.7,0,0,1-1.057.923,12.137,12.137,0,0,1-2.757,1.606c-.358-.373-.679-.735-.948-1.036a8.986,8.986,0,0,0,2.1-1.135,10.827,10.827,0,0,0,1.762-1.55,6.945,6.945,0,0,1-.85-1.476,11.548,11.548,0,0,1-.891-2.685,12.639,12.639,0,0,1-.28-2.815c-.078.244-.176.472-.249.7a17.243,17.243,0,0,1-.928,1.8,1,1,0,0,1-.435-.078c-.264-.114-.508-.208-.772-.3-.1-.037-.135-.1-.135-.134a.291.291,0,0,1,.078-.208,13.8,13.8,0,0,0,1.4-2.892,19.351,19.351,0,0,0,.643-2.1c.187-.792.373-1.792.565-3.026.041-.108.078-.186.135-.186Zm-.373,5.653a13.192,13.192,0,0,0,.28,2.876,11.41,11.41,0,0,0,.757,2.245,6.424,6.424,0,0,0,.529.963,10.787,10.787,0,0,0,1.119-2.985,25.655,25.655,0,0,0,.529-4.955h-3.763c-.057.191-.093.342-.135.455-.166.509-.321.986-.472,1.4Z" transform="translate(-140.575 -2175.043)" fill="#72adb6"/>
      <path id="Path_678" data-name="Path 678" d="M178.844,2209.171a.266.266,0,0,1-.155.228c-.109.052-.187.114-.187.193a9.049,9.049,0,0,1-.342,1.548c-.114.228-.207.447-.321.674-.036.077-.078.1-.114.1a5.3,5.3,0,0,0-.907-.229.14.14,0,0,1-.13-.149,7.391,7.391,0,0,0,.492-1.016,7.117,7.117,0,0,0,.321-1.611c0-.058.036-.1.15-.1C178.445,2208.964,178.844,2209.092,178.844,2209.171Zm2.285-6.727a.59.59,0,0,0,.078.151c0,.1-.1.134-.249.134-.228,0-.378.052-.415.171-.529.523-1.021.979-1.472,1.394.28.305.544.591.809.872.529-.586.964-1.12,1.327-1.607a8.34,8.34,0,0,1,1.094,1.041c0,.037-.057.058-.15.058-.228,0-.378.032-.415.093-.8.865-1.57,1.643-2.327,2.343.508-.016,1.093-.058,1.757-.093-.186-.265-.358-.514-.549-.777,0-.072.27-.244.8-.507a12.124,12.124,0,0,1,.9,1.394,9.574,9.574,0,0,1,.591,1.255,3.428,3.428,0,0,1-.964.3,7.836,7.836,0,0,0-.415-1.041l-1.062.193v3.8c0,.151-.114.223-.3.223h-.586c-.207,0-.3-.072-.3-.223v-3.575l-1.705.327a2.422,2.422,0,0,1-.508.444,6.032,6.032,0,0,1-.3-1.493,6.629,6.629,0,0,1,1.244-.128c.529-.549.985-1.016,1.363-1.431-.492-.456-.871-.783-1.114-.99a10.122,10.122,0,0,0-1.27-.751c0-.1.192-.362.606-.8.036-.051.073-.093.13-.093.228.17.435.342.663.53a7.968,7.968,0,0,0,.7-.773,11.947,11.947,0,0,0,.85-1.1Zm1.021,9.547a.327.327,0,0,1,.15.207c0,.151-.093.229-.285.229a.347.347,0,0,0-.321.149c-.093.167-.166.321-.244.435h11.567c.093,0,.15.072.15.223v.586c0,.207-.057.307-.15.307h-2.457a5.124,5.124,0,0,1-.777,1,6.13,6.13,0,0,1-1.565,1.3,8.556,8.556,0,0,1-1.192.643,30.749,30.749,0,0,0,3.592.572,23.336,23.336,0,0,0,2.907.17.624.624,0,0,1-.13.279,6.354,6.354,0,0,0-.342.777c-.021.13-.057.207-.114.207-1.285-.092-2.379-.207-3.306-.337-1.078-.176-2.057-.363-2.928-.59-.513-.13-.985-.285-1.436-.436-.627.191-1.306.378-2.042.57-1.378.3-3.027.585-4.913.85-.156,0-.228-.058-.249-.135a9.386,9.386,0,0,1-.606-.922.387.387,0,0,1-.166-.265,13.842,13.842,0,0,0,1.508-.135c.834-.072,1.721-.186,2.664-.321.72-.114,1.4-.244,2.006-.395a11.74,11.74,0,0,1-1.477-.927,7.229,7.229,0,0,1-1.529-1.627,3.3,3.3,0,0,1-.321.362,8.1,8.1,0,0,1-.85.809,6.761,6.761,0,0,1-.679.533.283.283,0,0,1-.264-.175,3.065,3.065,0,0,0-.513-.6c-.13-.072-.187-.128-.187-.17,0-.021.016-.037.057-.079a5.462,5.462,0,0,0,.964-.643,8.226,8.226,0,0,0,1.057-1.113,7.031,7.031,0,0,0,.586-.865,6.022,6.022,0,0,0,.456-.965.171.171,0,0,1,.13-.114Zm.264-2.006c.114.321.223.664.337,1.036a3.1,3.1,0,0,1-.964.285,6.361,6.361,0,0,0-.223-.848,8.073,8.073,0,0,0-.513-1.135c0-.079.27-.244.814-.514C182.073,2209.228,182.264,2209.627,182.415,2209.985Zm-.036,5.047a7.643,7.643,0,0,0,1.85,1.1,9.653,9.653,0,0,0,.928.374,10.147,10.147,0,0,0,1.451-.551,6.929,6.929,0,0,0,1.612-1,5.63,5.63,0,0,0,.85-.829h-7.561A4.433,4.433,0,0,0,182.378,2215.032Zm5.535-11.1c.093,0,.15.078.15.208v.605c0,.151-.057.208-.15.208H182.98c-.114,0-.15-.058-.15-.208v-.605c0-.13.036-.208.15-.208Zm-.658-1.85c.093,0,.145.072.145.227v.586c0,.145-.052.223-.145.223h-3.69c-.114,0-.15-.079-.15-.223v-.586c0-.155.036-.227.15-.227Zm0,3.549c.093,0,.145.079.145.207v.457c0,.186-.052.286-.145.286h-3.69c-.114,0-.15-.1-.15-.286v-.457c0-.128.036-.207.15-.207Zm0,1.55c.093,0,.145.077.145.207v.456c0,.188-.052.286-.145.286h-3.69c-.114,0-.15-.1-.15-.286v-.456c0-.13.036-.207.15-.207Zm-.078,1.685c.187,0,.3.077.3.222v2.821c0,.149-.114.206-.3.206h-3.462c-.207,0-.3-.056-.3-.206v-2.821c0-.145.093-.222.3-.222Zm-.886.963h-1.7v1.337h1.7Zm6.349-7.39a.725.725,0,0,0,.073.151c0,.1-.093.134-.244.134-.228,0-.358.052-.415.171-.57.493-1.114.938-1.607,1.358.243.3.492.586.715.885l.041-.035c.6-.622,1.093-1.193,1.508-1.706a8.279,8.279,0,0,1,1.119,1.047c0,.051-.078.074-.192.074a.8.8,0,0,0-.451.076c-.85.851-1.684,1.623-2.477,2.343.492-.021,1.037-.058,1.627-.093-.192-.264-.383-.513-.591-.778,0-.077.264-.248.814-.512a14.7,14.7,0,0,1,.871,1.29,7.059,7.059,0,0,1,.549,1.151,3.515,3.515,0,0,1-.964.285,5.5,5.5,0,0,0-.321-.792l-1.156.227v3.965c0,.151-.114.229-.3.229h-.586c-.207,0-.3-.079-.3-.229v-3.742l-1.4.265a2.542,2.542,0,0,1-.513.455,5.511,5.511,0,0,1-.3-1.476,4.843,4.843,0,0,1,1.114-.151c.565-.528,1.021-.964,1.4-1.342-.435-.436-.757-.757-.985-.962a8.131,8.131,0,0,0-1.171-.793c0-.1.187-.358.606-.793a.193.193,0,0,1,.15-.1c.187.172.358.349.549.514.264-.244.508-.492.736-.721.415-.451.736-.809.928-1.057Zm-2.648,6.8a.26.26,0,0,1-.15.229.265.265,0,0,0-.129.171,14.209,14.209,0,0,1-.249,1.519c-.073.223-.135.426-.207.653a.311.311,0,0,1-.073.1,6.686,6.686,0,0,0-.912-.229.14.14,0,0,1-.13-.149c.114-.306.223-.623.337-.986a11.112,11.112,0,0,0,.207-1.565.1.1,0,0,1,.114-.113C189.6,2209.035,189.992,2209.171,189.992,2209.242Zm3.612,1.2c.114.416.207.865.3,1.323a3.811,3.811,0,0,1-.964.279c-.036-.279-.114-.643-.187-1.093-.114-.492-.249-.986-.4-1.478,0-.072.264-.243.814-.523C193.339,2209.492,193.49,2209.985,193.6,2210.44Z" transform="translate(-125.635 -2174.998)" fill="#72adb6"/>
      <path id="Path_679" data-name="Path 679" d="M186.476,2205.966a.806.806,0,0,1,.378.109c.228.17.358.3.358.4-.15,1.062-.285,1.913-.43,2.585a20.446,20.446,0,0,1-.684,2.157,12.494,12.494,0,0,1-.715,1.534,9.193,9.193,0,0,1-1.057,1.571,7.3,7.3,0,0,1-1.171,1.135,11.592,11.592,0,0,1-1.627,1.071.334.334,0,0,1-.321-.206c-.264-.187-.549-.395-.814-.586a.31.31,0,0,1-.114-.17.151.151,0,0,1,.073-.131,7.657,7.657,0,0,0,1.855-1.041,6.348,6.348,0,0,0,1.342-1.321,7.1,7.1,0,0,0,1.036-1.571,11.915,11.915,0,0,0,.757-1.948c.156-.6.321-1.395.492-2.343h-4.612c-.15,0-.207-.093-.207-.284v-.731c0-.155.057-.227.207-.227Zm4.2-3.954c.15.078.228.149.228.19,0,.131-.093.188-.249.188-.28.12-.415.457-.415.985v1.969a18.77,18.77,0,0,0,.829,2.622,37.461,37.461,0,0,0,3.612-3.058,1.012,1.012,0,0,1,.586-.265.633.633,0,0,1,.285.131c.793.569,1.192.927,1.192,1.036,0,.265-.078.383-.228.383l-.435-.155a1.46,1.46,0,0,0-.777.321q-1.531,1.135-3.685,2.9a8.07,8.07,0,0,0,.663,1.264,12.421,12.421,0,0,0,2.513,2.908,8.932,8.932,0,0,0,2.985,1.741c.073.079.135.135.135.165a.375.375,0,0,1-.171.307,5.49,5.49,0,0,0-.643.741.317.317,0,0,1-.285.2,2.312,2.312,0,0,1-.793-.489,14.866,14.866,0,0,1-3.649-3.212,11.8,11.8,0,0,1-1.741-3.006,5.724,5.724,0,0,1-.394-.948v8.333c0,.985-.7,1.477-2.063,1.477h-1.923c-.114,0-.156-.134-.156-.362a3.269,3.269,0,0,0-.358-.907c0-.151.036-.208.15-.208a12.758,12.758,0,0,0,2.135.208c.534,0,.814-.223.814-.658V2203.3c0-.394-.021-.7-.036-.927a1.561,1.561,0,0,1-.036-.393c0-.094.093-.151.3-.151Z" transform="translate(-110.62 -2174.813)" fill="#72adb6"/>
      <path id="Path_680" data-name="Path 680" d="M190.766,2202.849a.3.3,0,0,1-.223.307.367.367,0,0,0-.358.228,19.367,19.367,0,0,1-1.156,2.736,13.881,13.881,0,0,1-1.42,2.067,12.565,12.565,0,0,1-2.493,2.073.662.662,0,0,1-.264.062.356.356,0,0,1-.342-.212,2.8,2.8,0,0,0-.451-.507.249.249,0,0,1-.15-.25c0-.035.036-.072.114-.108a4.03,4.03,0,0,0,1.094-.606,8.535,8.535,0,0,0,1.643-1.472,9.03,9.03,0,0,0,1.591-2.627,10.4,10.4,0,0,0,.715-2.176.2.2,0,0,1,.228-.17C190.278,2202.533,190.766,2202.761,190.766,2202.849Zm5.39-.937c.114,0,.192.078.264.229a15.525,15.525,0,0,0,1.607,4.328,5.5,5.5,0,0,0,3.192,2.736.309.309,0,0,1,.249.306c0,.073-.057.13-.135.207-.244.228-.451.436-.637.623a.388.388,0,0,1-.326.206,9.412,9.412,0,0,1-2.514-1.906v.051c-.036,2.571-.114,4.426-.244,5.545a12.375,12.375,0,0,1-.622,3c-.27.7-.928,1.057-2.006,1.057-1.057,0-1.607-.146-1.643-.414a2.789,2.789,0,0,0-.663-1.057v-.156a19.344,19.344,0,0,0,2.306.156.955.955,0,0,0,1-.742,8.674,8.674,0,0,0,.415-2.264c.114-.865.192-2.27.249-4.233h-5.084a15.142,15.142,0,0,1-.456,3.477,8.379,8.379,0,0,1-1.3,2.685,7.465,7.465,0,0,1-1.778,1.434,11.077,11.077,0,0,1-2.441,1.114c-.337-.358-.622-.679-.871-.963a8.706,8.706,0,0,0,1.835-.751,7.349,7.349,0,0,0,1.912-1.405,6.661,6.661,0,0,0,1.306-2.415,13.611,13.611,0,0,0,.466-3.175h-2.415c-.15,0-.228-.094-.228-.3v-.591c0-.186.078-.295.228-.295h9.811a5.291,5.291,0,0,1-.684-.969,18.689,18.689,0,0,1-1.643-4.349h-2.628c-.15,0-.207-.086-.207-.279v-.606c0-.193.057-.281.207-.281Z" transform="translate(-95.433 -2174.444)" fill="#72adb6"/>
      <path id="Path_681" data-name="Path 681" d="M201.981,2201.952c.192,0,.306.037.342.088.264.228.4.405.4.514l-5.483,4.727a.367.367,0,0,1-.207.1v1.3h7.162c.15,0,.228.093.228.279v.761c0,.188-.078.286-.228.286h-7.162v6.649c0,.979-1.062,1.471-3.177,1.471h-.814c-.073,0-.135-.134-.15-.373a2.067,2.067,0,0,0-.358-.948c0-.109.036-.151.15-.151a4.952,4.952,0,0,0,1.171.207c1.171,0,1.778-.228,1.778-.659v-6.2h-7.826c-.15,0-.228-.1-.228-.286v-.761c0-.187.078-.279.228-.279h7.826v-2.742c0-.191.093-.28.3-.28l.814.374,3.348-2.813H189.714c-.15,0-.207-.1-.207-.307v-.73c0-.155.057-.228.207-.228Z" transform="translate(-80.083 -2174.279)" fill="#72adb6"/>
      <path id="Path_682" data-name="Path 682" d="M197.275,2202.588c.057.129.093.2.093.2,0,.113-.114.17-.321.17-.3,0-.492.072-.565.207-.891.984-1.721,1.871-2.514,2.664.451.383.907.8,1.363,1.233q1.127-1.252,1.886-2.271a8.84,8.84,0,0,1,1.322,1.244c0,.078-.093.114-.244.114a.988.988,0,0,0-.622.135c-1.171,1.322-2.306,2.55-3.441,3.644.943-.072,2.094-.186,3.457-.295a12.216,12.216,0,0,0-.772-1.514c0-.078.321-.286.964-.607.415.814.772,1.55,1.037,2.23a15.546,15.546,0,0,1,.663,1.983,4.036,4.036,0,0,1-1.114.358,10.47,10.47,0,0,0-.435-1.585l-2.135.418v7.826c0,.146-.114.223-.306.223h-.736c-.207,0-.3-.077-.3-.223v-7.561l-2.493.472a3.168,3.168,0,0,1-.606.586,8.293,8.293,0,0,1-.358-1.835,4.292,4.292,0,0,1,1.358-.269c.886-.9,1.643-1.7,2.249-2.374-.7-.534-1.228-.907-1.586-1.157-.549-.3-1.135-.584-1.741-.848,0-.114.264-.435.793-1.007a.185.185,0,0,1,.171-.109c.228.151.456.3.679.451.5-.513.948-1,1.342-1.492.684-.812,1.156-1.419,1.456-1.834Zm-3.592,10.391a.3.3,0,0,1-.228.3.422.422,0,0,0-.166.342,27.622,27.622,0,0,1-.342,2.773c-.073.421-.171.819-.285,1.234-.036.093-.073.149-.093.149a6.7,6.7,0,0,0-1.1-.265c-.109-.035-.15-.092-.15-.17.171-.527.321-1.135.472-1.778a19.984,19.984,0,0,0,.321-2.813c0-.13.042-.208.155-.208C193.212,2212.73,193.683,2212.885,193.683,2212.979Zm4.2-.358a38.343,38.343,0,0,1,1.265,4.347c0,.146-.378.265-1.114.374-.171,0-.244-.056-.244-.186a39.079,39.079,0,0,0-.928-4.312c0-.114.3-.244.943-.372C197.839,2212.471,197.86,2212.522,197.881,2212.621Zm5.385-8.052V2202.2c0-.151.093-.229.3-.229.928,0,1.4.078,1.4.229,0,.17-.073.263-.187.284s-.171.151-.171.377v1.7H208.6c.13,0,.207.112.207.3v.581c0,.207-.078.307-.207.307h-3.991v3.305h3.384c.15,0,.223.114.223.3v.584c0,.207-.073.307-.223.307h-7.748c-.15,0-.212-.1-.212-.307v-.584c0-.187.062-.3.212-.3h3.021v-3.305h-3.685c-.15,0-.228-.1-.228-.307v-.581c0-.191.078-.3.228-.3Zm4.592,7.467c.192,0,.285.072.285.207v6.5c0,.146-.093.223-.285.223h-.736c-.207,0-.3-.077-.3-.223v-.739h-5.234v.739c0,.146-.114.223-.306.223h-.736c-.207,0-.3-.077-.3-.223v-6.431c0-.186.093-.279.3-.279Zm-1.036,4.779V2213.2h-5.234v3.613Z" transform="translate(-65.369 -2175.043)" fill="#72adb6"/>
      <path id="Path_683" data-name="Path 683" d="M197.119,2205.424v-3.4c0-.156.093-.229.285-.229.923,0,1.4.074,1.4.229s-.062.258-.176.279c-.13.02-.187.151-.187.379v2.741h1.907c.1,0,.155.072.155.229v.584c0,.186-.057.286-.155.286h-1.721a11.844,11.844,0,0,0,.643,1.756,9.223,9.223,0,0,0,1.347,2.116.24.24,0,0,1,.109.191c0,.037-.052.088-.13.166a3.684,3.684,0,0,1-.549.57c-.093.114-.171.151-.207.151a.31.31,0,0,1-.207-.115,10.534,10.534,0,0,1-1.135-2.04.219.219,0,0,1-.057-.151v9.542c0,.153-.114.227-.3.227H197.4c-.192,0-.285-.073-.285-.227v-7.729c-.078.263-.171.533-.244.756a18.814,18.814,0,0,1-.871,2.1c-.156,0-.249-.021-.3-.1l-.8-.395c-.114,0-.15-.021-.15-.095a20.612,20.612,0,0,0,1.078-2.4,16.973,16.973,0,0,0,.643-2.171,18.774,18.774,0,0,0,.435-2.156h-1.492c-.114,0-.15-.1-.15-.286v-.584c0-.156.036-.229.15-.229Zm6.2-2.135v-1.115c0-.1.057-.149.207-.149.891,0,1.342.072,1.342.227s-.057.238-.15.238c-.114.021-.15.141-.15.348v.451h3.021v-1.115c0-.1.078-.149.228-.149.871,0,1.322.072,1.322.227s-.057.238-.15.238c-.093.021-.13.141-.13.348v.451h2.363c.073,0,.13.072.13.207v.586c0,.206-.057.306-.13.306h-2.363v1.321h1.622c.078,0,.135.072.135.223v.591c0,.15-.057.227-.135.227h-1.622v1.188h2.871c.093,0,.15.077.15.207v.6c0,.2-.057.285-.15.285h-5.162v1.043h3.384c.244,0,.378.078.378.227v4.493H211.8c.093,0,.155.079.155.228v.591c0,.188-.062.279-.155.279h-1.472v2.157c0,.306-.228.57-.679.756a7.549,7.549,0,0,1-1.684.265.218.218,0,0,1-.244-.208,3.645,3.645,0,0,0-.415-1.192c0-.035.036-.056.109-.056a5.405,5.405,0,0,0,1.342-.093.368.368,0,0,0,.228-.342v-1.286h-6.2v2.816c0,.153-.093.227-.285.227h-.736c-.207,0-.3-.073-.3-.227v-2.816h-1.4c-.114,0-.15-.092-.15-.279v-.591c0-.149.036-.228.15-.228h1.4V2210.3c0-.149.093-.227.3-.227H205.3v-1.043h-4.727c-.114,0-.15-.086-.15-.285v-.6c0-.13.036-.207.15-.207h2.742v-1.188H201.69c-.114,0-.15-.077-.15-.227v-.591c0-.151.036-.223.15-.223h1.627v-1.321H201.1c-.114,0-.15-.1-.15-.306v-.586c0-.135.036-.207.15-.207Zm1.985,9.224v-1.346h-2.514v1.346Zm0,2.28v-1.264h-2.514v1.264Zm2.285-10.405h-3.021v1.321h3.021Zm0,3.55v-1.188h-3.021v1.188Zm-1.021,4.575h2.42v-1.346h-2.42Zm2.42,2.28v-1.264h-2.42v1.264Z" transform="translate(-50.065 -2174.935)" fill="#72adb6"/>
      <path id="Path_684" data-name="Path 684" d="M200.975,2206.625a3.838,3.838,0,0,1-1.208,1.321l-.492-.544a2.934,2.934,0,0,0,1.264-2.155h-1.4v-2.271h2.27v2.083A3.257,3.257,0,0,1,200.975,2206.625Z" transform="translate(-31.729 -2169.995)" fill="#72adb6"/>
      <path id="Path_685" data-name="Path 685" d="M169.263,2212.648q.739.45,1.306.793a.5.5,0,0,1-.093.149c-.378.549-.57.814-.57.814a13.679,13.679,0,0,0-1.778-1.021,9.562,9.562,0,0,0-1.264-.527,3.15,3.15,0,0,1,.586-.83c.057-.077.114-.14.171-.14C168.283,2212.156,168.827,2212.421,169.263,2212.648Zm1.876,3.529a11.755,11.755,0,0,1,.451,1.1.448.448,0,0,1-.093.263,38.344,38.344,0,0,1-1.778,3.422c-.306.534-.679,1.113-1.1,1.757a1.134,1.134,0,0,0-.13.607c0,.155-.057.228-.135.228-.114,0-.508-.4-1.208-1.193a.271.271,0,0,1-.135-.207.313.313,0,0,1,.1-.244,10.885,10.885,0,0,0,1.114-1.264,20.958,20.958,0,0,0,1.529-2.383c.42-.758.793-1.457,1.114-2.1.041-.069.093-.131.135-.131C171.061,2216.027,171.1,2216.088,171.139,2216.177Zm-1.042-8.142c.544.358,1.021.679,1.436.984a.57.57,0,0,1-.093.149c-.378.524-.57.793-.586.793a20.679,20.679,0,0,0-1.928-1.271,12.632,12.632,0,0,0-1.379-.641,3.481,3.481,0,0,1,.565-.83c.057-.078.114-.134.171-.134A19.474,19.474,0,0,1,170.1,2208.036Zm11.889.135a18.608,18.608,0,0,1-3.306.772v3.021h5.1c.15,0,.228.1.228.285v.608c0,.186-.078.279-.228.279h-5.1v3.249h3.985c.187,0,.3.077.3.228v6.94c0,.149-.114.222-.3.222h-.736c-.192,0-.285-.072-.285-.222v-.965h-7.39v.965c0,.149-.114.222-.306.222h-.736c-.187,0-.28-.072-.28-.222v-6.862c0-.187.093-.307.28-.307h4.141v-3.249h-5.084c-.15,0-.228-.093-.228-.279v-.608c0-.185.078-.285.228-.285h5.084v-2.85a36.129,36.129,0,0,1-3.835.188c-.207,0-.342-.052-.378-.187a2.413,2.413,0,0,0-.228-.664.532.532,0,0,1-.057-.249,38.468,38.468,0,0,0,4.9-.279,15.5,15.5,0,0,0,3.814-.87.945.945,0,0,1,.363-.114.356.356,0,0,1,.228.114c.58.528.886.854.886,1,0,.191-.078.285-.228.285l-.435-.207A2,2,0,0,0,181.986,2208.171Zm-.342,13.245v-3.835h-7.39v3.835Z" transform="translate(-166.728 -2153.428)" fill="#72adb6"/>
      <path id="Path_686" data-name="Path 686" d="M177.293,2207.822a.132.132,0,0,1-.15.151c-.228.036-.363.092-.435.206a29.612,29.612,0,0,1-1.342,2.835v13.04c0,.149-.135.228-.358.228h-.741c-.207,0-.3-.079-.3-.228v-10.9c-.513.678-1.306,1.571-2.363,2.706a.491.491,0,0,1-.378-.178c-.192-.148-.4-.315-.586-.465a.314.314,0,0,1-.135-.25q.91-.9,1.819-1.985a16.168,16.168,0,0,0,2.078-3.062,16.334,16.334,0,0,0,1.187-2.906c.041-.1.078-.156.155-.156A5.727,5.727,0,0,1,177.293,2207.822Zm9.64,4.644a15.155,15.155,0,0,1-2.042,1.342,18.578,18.578,0,0,1-3.669,1.643.378.378,0,0,1-.166.062v6.179c0,.605.337.885,1.037.885h1.855c1.057,0,1.679-.109,1.907-.374a5.682,5.682,0,0,0,.964-2.362,2.326,2.326,0,0,0,.829.756c.171.073.264.171.264.28a6.4,6.4,0,0,1-1.192,2.519,2.266,2.266,0,0,1-1.757.509h-3.021c-1.529,0-2.286-.472-2.286-1.4v-15.215c0-.151.015-.229.073-.229l1.379.176c.155.032.249.072.249.13,0,.13-.057.207-.135.228-.114.021-.166.093-.166.228v6.234a10.026,10.026,0,0,0,2.793-1.155,16.93,16.93,0,0,0,2.519-1.866.24.24,0,0,1,.145-.041,11.227,11.227,0,0,1,1.119,1.243c0,.12-.114.156-.306.156h-.15A.725.725,0,0,0,186.933,2212.466Z" transform="translate(-151.5 -2153.779)" fill="#72adb6"/>
      <path id="Path_687" data-name="Path 687" d="M176.713,2208.592c0,.175-.073.27-.187.284-.135.022-.192.151-.192.38v4.291h4.877v-6.427c0-.151.093-.228.3-.228.928,0,1.4.077,1.4.228,0,.17-.073.265-.187.285-.135.021-.192.151-.192.379v5.763h4.592v-4.877c0-.13.093-.207.285-.207.943,0,1.42.077,1.42.207,0,.17-.078.27-.192.284-.13.021-.187.151-.187.379v6.276c0,.151-.114.227-.306.227h-.736c-.192,0-.285-.076-.285-.227v-.87h-4.592v6.86h5.177v-4.5c0-.151.1-.229.306-.229.923,0,1.4.078,1.4.229s-.078.263-.192.263c-.13.042-.187.172-.187.4v5.972c0,.149-.1.221-.285.221h-.736c-.207,0-.306-.072-.306-.221v-.965H175.749v.965c0,.149-.114.221-.306.221h-.736c-.187,0-.28-.072-.28-.221V2217.1c0-.151.093-.229.28-.229.948,0,1.42.078,1.42.229s-.078.263-.192.263c-.13.042-.187.172-.187.4v3.835h5.462v-6.86h-4.877v.87c0,.151-.093.227-.285.227h-.736c-.207,0-.3-.076-.3-.227v-7.018c0-.128.093-.208.3-.208C176.241,2208.385,176.713,2208.464,176.713,2208.592Z" transform="translate(-135.092 -2153.612)" fill="#72adb6"/>
      <path id="Path_688" data-name="Path 688" d="M187.462,2207.121c0,.17-.073.265-.187.285-.135.021-.187.151-.187.379v1.036h7.385c.155,0,.228.121.228.307v.585c0,.208-.073.3-.228.3H178.092c-.155,0-.228-.093-.228-.3v-.585c0-.186.073-.307.228-.307h7.67v-1.7c0-.151.1-.228.306-.228C187,2206.893,187.462,2206.97,187.462,2207.121Zm5.918,8.94c.228,0,.358.093.358.281v6.923c0,.279-.228.507-.658.657a9.35,9.35,0,0,1-1.627.265.219.219,0,0,1-.244-.229,3.635,3.635,0,0,0-.42-1.187c0-.037.041-.037.114-.037a5,5,0,0,0,1.285-.1.292.292,0,0,0,.228-.279v-5.126h-12.34v6.581c0,.146-.093.223-.285.223h-.736c-.207,0-.306-.078-.306-.223v-7.471c0-.187.1-.281.306-.281Zm-2.306-4.949c.192,0,.3.072.3.228v3.456c0,.151-.109.228-.3.228h-9.66c-.207,0-.3-.077-.3-.228v-3.456c0-.156.093-.228.3-.228Zm-.871,7.39c.192,0,.285.072.285.2v3.331c0,.146-.093.223-.285.223h-7.541c-.207,0-.3-.078-.3-.223V2218.7c0-.13.093-.2.3-.2Zm-.15-6.2H182.44v1.555h7.613Zm-.886,7.3H183.7v1.549h5.462Z" transform="translate(-120.716 -2153.612)" fill="#72adb6"/>
      <path id="Path_689" data-name="Path 689" d="M188.63,2215.573c.192,0,.285.077.285.228v7.448c0,.149-.093.222-.285.222h-.736c-.207,0-.3-.072-.3-.222v-.893H182.94v.893c0,.149-.109.222-.3.222H181.9c-.187,0-.285-.072-.285-.222v-7.4a.251.251,0,0,1,.285-.28Zm-1.036,5.618v-4.447H182.94v4.447Zm6.654-14.18c.187,0,.28.077.28.214v6.876c0,.151-.093.208-.28.208h-.757c-.192,0-.285-.057-.285-.208v-.663h-7.24v.737c0,.156-.114.206-.3.206h-.741c-.187,0-.28-.05-.28-.206V2207.3a.25.25,0,0,1,.28-.286Zm-1.042,5.235v-4.063h-7.24v4.063Zm4.063,3.254c.187,0,.285.074.285.223v7.453c0,.149-.1.223-.285.223h-.736c-.207,0-.3-.073-.3-.223v-.819h-4.654v.893c0,.149-.109.222-.3.222h-.736c-.192,0-.285-.072-.285-.222V2215.8a.264.264,0,0,1,.285-.3Zm-1.036,5.691v-4.519h-4.654v4.519Z" transform="translate(-105.015 -2153.122)" fill="#72adb6"/>
      <path id="Path_690" data-name="Path 690" d="M192.487,2207.986a9.39,9.39,0,0,1-1.949.514,14.987,14.987,0,0,1-2.415.186v1.114h5.312c.093,0,.145.078.145.212v.6c0,.191-.052.279-.145.279h-1.778v1.934c0,.151-.114.223-.306.223h-.736c-.192,0-.285-.072-.285-.223v-1.934h-2.285a3.207,3.207,0,0,1-.244.851,3.561,3.561,0,0,1-.8,1.155,3.712,3.712,0,0,1-.886.663c-.093,0-.15,0-.187-.041a6.942,6.942,0,0,0-.684-.472.25.25,0,0,1-.093-.223,3.108,3.108,0,0,0,.928-.7,2.882,2.882,0,0,0,.586-.969,4.054,4.054,0,0,0,.187-1.281v-1.929c0-.19.078-.3.228-.3h.285a17.839,17.839,0,0,0,2.622-.156,6.738,6.738,0,0,0,2.063-.529.45.45,0,0,1,.186-.057.381.381,0,0,1,.207.1c.549.451.834.737.834.865,0,.208-.057.3-.15.3l-.435-.224A.677.677,0,0,0,192.487,2207.986Zm6.841,5.5c.192,0,.3.077.3.227v7.75c0,.155-.109.222-.3.222h-2.286a13.654,13.654,0,0,0,1.627.705,21.556,21.556,0,0,0,2.565.678c.156.059.249.121.249.173a3.8,3.8,0,0,1-.814.942,2.064,2.064,0,0,1-.3-.037,25.92,25.92,0,0,1-4.727-1.829c-.114-.057-.15-.1-.15-.121,0-.078.13-.243.4-.513h-4.12c.451.426.695.664.695.742s-.073.128-.207.128c-.228,0-.358.021-.378.077a40.737,40.737,0,0,1-5.25,1.493.305.305,0,0,1-.285-.186,1.469,1.469,0,0,0-.4-.472.356.356,0,0,1-.13-.227c0-.073.073-.114.223-.131.948-.191,1.762-.4,2.457-.605a13.774,13.774,0,0,0,2.12-.819H187.9c-.207,0-.306-.067-.306-.222v-7.75c0-.149.1-.227.306-.227Zm-1.021,2.362V2214.6h-9.375v1.248Zm0,2.364v-1.25h-9.375v1.25Zm0,1.114h-9.375v1.248h9.375Zm1.985-11.34a10.492,10.492,0,0,1-2.057.514,17.194,17.194,0,0,1-2.591.186v1.114h6.276c.093,0,.15.078.15.212v.6c0,.191-.057.279-.15.279h-2.591v1.934c0,.151-.093.223-.285.223h-.736c-.207,0-.3-.072-.3-.223v-1.934h-2.436a4.044,4.044,0,0,1-.155.684,3.257,3.257,0,0,1-.565,1.074,2.271,2.271,0,0,1-.606.606.372.372,0,0,1-.207-.032,5.564,5.564,0,0,0-.679-.477c-.057-.036-.078-.114-.078-.228a2.4,2.4,0,0,0,.606-.622,2.879,2.879,0,0,0,.378-.872,4.942,4.942,0,0,0,.135-1.149v-1.929c0-.19.052-.3.2-.3h.306a20.186,20.186,0,0,0,2.778-.156,7.816,7.816,0,0,0,2.192-.529.43.43,0,0,1,.187-.057.4.4,0,0,1,.207.1c.549.451.834.737.834.865,0,.208-.057.3-.15.3l-.435-.224A.706.706,0,0,0,200.292,2207.986Z" transform="translate(-90.226 -2153.549)" fill="#72adb6"/>
      <path id="Path_691" data-name="Path 691" d="M193.518,2207.471c0,.088-.1.186-.249.279a.455.455,0,0,0-.264.379c-.093.87-.244,1.85-.451,2.95h2.736a.593.593,0,0,1,.342.114c.207.17.321.3.321.4-.135,1.285-.264,2.343-.4,3.171-.187.907-.394,1.8-.658,2.648-.171.564-.4,1.187-.684,1.887l-.016.062c.285.26.544.5.814.772a12.775,12.775,0,0,1,1.342,1.57.291.291,0,0,1,.052.149c0,.074-.3.3-.886.658a.25.25,0,0,1-.171-.056,14.794,14.794,0,0,0-1.736-1.927c-.155.248-.285.471-.435.7a8.916,8.916,0,0,1-1.135,1.4,11.283,11.283,0,0,1-1.55,1.3.363.363,0,0,1-.285-.193c-.264-.185-.508-.377-.772-.544-.078-.076-.114-.128-.114-.149,0-.078.021-.135.078-.156a8.461,8.461,0,0,0,1.778-1.306,7.1,7.1,0,0,0,1.3-1.643c.057-.093.114-.187.15-.264-.207-.151-.415-.317-.622-.472-.472-.3-.964-.607-1.477-.907-.15.4-.321.793-.472,1.192a1.025,1.025,0,0,1-.306-.077c-.244-.053-.508-.114-.808-.171-.114-.037-.15-.108-.15-.265a30.022,30.022,0,0,0,1.228-2.8,33.7,33.7,0,0,0,1.094-3.929H189.17c-.156,0-.228-.092-.228-.285v-.581c0-.19.073-.3.228-.3h2.192a29.006,29.006,0,0,0,.394-3.991c0-.095.041-.151.135-.151C192.969,2207.144,193.518,2207.315,193.518,2207.471ZM193.456,2218a23.6,23.6,0,0,0,.741-2.441c.15-.83.321-1.929.508-3.308h-2.4c-.15.628-.3,1.271-.451,1.914-.228.938-.534,1.926-.871,2.906.529.3,1.078.658,1.643,1.037.187.156.4.285.606.44C193.311,2218.354,193.384,2218.162,193.456,2218Zm11.666-10.169a.569.569,0,0,1,.337.079c.27.223.4.394.4.5L202.1,2212.8c-.036.036-.057.058-.073.058v2.512h3.757c.155,0,.228.079.228.208v.735c0,.207-.073.3-.228.3h-3.757v5.691c0,.979-.7,1.471-2.083,1.471h-1.622c-.078,0-.13-.13-.15-.372a2.171,2.171,0,0,0-.363-.949c0-.109.041-.149.15-.149a14.187,14.187,0,0,0,1.985.206.59.59,0,0,0,.663-.658v-5.239h-3.985c-.15,0-.213-.093-.213-.3v-.735a.186.186,0,0,1,.213-.208H200.6v-3.55a.267.267,0,0,1,.3-.3l.456.207,2.4-2.7H196.69c-.15,0-.207-.1-.207-.305v-.586c0-.187.057-.3.207-.3Z" transform="translate(-75.009 -2153.428)" fill="#72adb6"/>
      <path id="Path_692" data-name="Path 692" d="M198.6,2211.079a.745.745,0,0,1,.378.114c.228.17.358.3.358.4-.15,1.057-.28,1.906-.43,2.585a21.281,21.281,0,0,1-.684,2.157,12.83,12.83,0,0,1-.715,1.533,9.036,9.036,0,0,1-1.057,1.565,6.873,6.873,0,0,1-1.177,1.135,10.612,10.612,0,0,1-1.622,1.072.333.333,0,0,1-.321-.207c-.264-.186-.549-.393-.814-.58a.346.346,0,0,1-.114-.17.148.148,0,0,1,.073-.135,7.578,7.578,0,0,0,1.855-1.042,6.2,6.2,0,0,0,1.342-1.321,7.01,7.01,0,0,0,1.036-1.571,11.938,11.938,0,0,0,.757-1.948c.155-.6.321-1.4.492-2.343h-4.613c-.15,0-.207-.088-.207-.279v-.737c0-.149.057-.227.207-.227Zm4.2-3.956c.15.079.228.155.228.191,0,.135-.1.193-.249.193-.28.114-.415.451-.415.979v1.969a18.4,18.4,0,0,0,.829,2.627,37.433,37.433,0,0,0,3.612-3.062,1.049,1.049,0,0,1,.586-.265.63.63,0,0,1,.285.135c.793.565,1.192.923,1.192,1.037,0,.265-.078.377-.228.377l-.435-.149a1.45,1.45,0,0,0-.777.316c-1.021.762-2.249,1.72-3.685,2.9a7.741,7.741,0,0,0,.663,1.264,12.423,12.423,0,0,0,2.514,2.913,9,9,0,0,0,2.985,1.736c.073.079.135.135.135.17a.369.369,0,0,1-.171.3,5.465,5.465,0,0,0-.643.741.322.322,0,0,1-.285.207,2.268,2.268,0,0,1-.793-.493A14.845,14.845,0,0,1,204.5,2218a11.783,11.783,0,0,1-1.741-3.006,5.731,5.731,0,0,1-.394-.948v8.338c0,.979-.7,1.471-2.063,1.471h-1.923c-.114,0-.156-.129-.156-.357a3.2,3.2,0,0,0-.358-.907c0-.156.036-.207.15-.207a13.516,13.516,0,0,0,2.135.207c.534,0,.814-.228.814-.663v-13.517c0-.393-.021-.695-.036-.921a1.629,1.629,0,0,1-.036-.4c0-.095.093-.151.3-.151Z" transform="translate(-59.902 -2153.428)" fill="#72adb6"/>
    </g>
  </g>
</svg>
