<svg id="section4_subtitle1" xmlns="http://www.w3.org/2000/svg" width="290.327" height="24.686" viewBox="0 0 290.327 24.686">
  <path id="Path_31355" data-name="Path 31355" d="M92.247,793.465v-2.884h3.021v2.884h6.756v3.2H95.269v2.594h8.439v3.2H95.793v2.166h6.5v3.1h-6.5v2.911c.727.051,1.5.078,2.341.078.57,0,2.617-.078,6.116-.29l-.635,3.6H97.5q-4.5,0-6.48-1.03a7.792,7.792,0,0,1-2.64-2.543,18.684,18.684,0,0,1-2.52,4.319l-2.479-2.6a14.119,14.119,0,0,0,3.638-8.568l3.021.5a23.646,23.646,0,0,1-.681,3.435,6.063,6.063,0,0,0,1.863,1.987,5.251,5.251,0,0,0,1.481.612v-7.675h-8.8v-3.2h8.342v-2.594H85.584v-3.2Z" transform="translate(-83.381 -790.26)" fill="#fff"/>
  <path id="Path_31356" data-name="Path 31356" d="M97.289,791.607v4.659a14.763,14.763,0,0,0,2.658-5.684l2.842.5c-.161.529-.317,1.007-.451,1.458h5.615V794.7a19.9,19.9,0,0,1-2.842,5.716,13.757,13.757,0,0,0,4.521,2.037l-1.407,3.1a3,3,0,0,1-.635-.267v9.657h-2.847v-1.329h-3.638v1.329H98.264v-9.5a5.323,5.323,0,0,1-.612.211l-.635-1.748v2.065H95.335v3.573c.75-.239,1.5-.506,2.226-.8v2.989a65.773,65.773,0,0,1-8.8,2.7l-.432-3.2c.294-.055.589-.1.888-.156v-9.05h2.295V810.6a9.531,9.531,0,0,0,1.159-.262v-9.763H89.467v-8.972Zm-2.75,2.782H92.217V797.8h2.322Zm1.954,8.066a10.86,10.86,0,0,0,4.682-2.01,17.854,17.854,0,0,1-1.591-2.405c-.386.552-.773,1.053-1.136,1.5l-1.159-2.01v3.044H95.335v2.589h1.407Zm9.869,2.276a14.908,14.908,0,0,1-3.21-2.2,14.905,14.905,0,0,1-3.228,2.2ZM103,798.515a17.857,17.857,0,0,0,1.978-3.306h-3.753a3.643,3.643,0,0,0-.2.4A15.946,15.946,0,0,0,103,798.515Zm1.748,12.3V807.51h-3.638v3.307Z" transform="translate(-65.567 -790.26)" fill="#fff"/>
  <path id="Path_31357" data-name="Path 31357" d="M109.97,809.5v4.042H93.644a9.97,9.97,0,0,1,1.6-4.355,29.366,29.366,0,0,1,5.224-5.427,33.571,33.571,0,0,0,3.78-3.624,4.567,4.567,0,0,0,1.049-2.773,2.815,2.815,0,0,0-.869-2.244,3.341,3.341,0,0,0-2.281-.759c-2.065,0-3.173,1.187-3.334,3.546l-4.631-.428a7.235,7.235,0,0,1,2.52-5.1,8.8,8.8,0,0,1,5.565-1.628q3.822,0,5.762,1.9a5.956,5.956,0,0,1,1.936,4.364,7.665,7.665,0,0,1-.492,2.7,10.328,10.328,0,0,1-1.527,2.631,26,26,0,0,1-3.435,3.385q-2.242,1.931-2.837,2.552a6.941,6.941,0,0,0-.961,1.209Z" transform="translate(-46.446 -789.662)" fill="#fff"/>
  <path id="Path_31358" data-name="Path 31358" d="M106.468,792.13a31.8,31.8,0,0,1-3.251,7.22h10.821c-.313-.529-.589-1.053-.837-1.582a24.5,24.5,0,0,1-1.5-3.789h-4.525v-3.2H114.2a16.453,16.453,0,0,0,1.821,5.344,17.673,17.673,0,0,0,3.684,4.364l-2.842,2.884c-.478-.556-.911-1.113-1.32-1.665l-.069,3.1c-.133,4.2-.612,6.769-1.476,7.777-.685.818-1.932,1.242-3.707,1.242h-2.046l-.7-3.624c1.5.161,2.433.216,2.75.216a1.645,1.645,0,0,0,1.568-.717c.363-.69.547-2.41.593-5.215l.064-1.932h-4.088a18.493,18.493,0,0,1-2.64,7.3,13.176,13.176,0,0,1-4.636,4.074l-1.706-3.095a7.617,7.617,0,0,0,3.817-2.961,11.987,11.987,0,0,0,1.982-5.321h-2.957v-1.8a26.035,26.035,0,0,1-2.023,2.516l-1.8-3.2a19.388,19.388,0,0,0,4.709-8.572Z" transform="translate(-29.093 -789.536)" fill="#fff"/>
  <path id="Path_31359" data-name="Path 31359" d="M108.939,791.119q1.635,1.593,2.929,3.1v-1.959h4.774c-.115-.529-.225-1.007-.34-1.426l3.026-.322c.046.58.11,1.164.156,1.748h4.548v2.382h-1.908c-.184.557-.363,1.081-.547,1.559h2.888v2.566H111.6v-1.425l-.616.924v1.747h-1.954v1.453H111.6v2.778h-2.571v6.351a19.767,19.767,0,0,0,2.479-.952V812.2h4.981v-.924h-4.709V808.9h4.709v-.924h-4.433V799.4h11.437v8.572h-4.438v.924h4.888v2.382h-4.888v.924h5.413v2.488h-13.3v-2.037a33.114,33.114,0,0,1-7.206,2.037l-.432-3.1a19.324,19.324,0,0,0,3.09-.4v-6.953h-2.842v-2.778h2.842v-1.453h-1.683v-1.3c-.363.368-.7.74-1.067,1.081l-.524-3.491a20,20,0,0,0,3.909-5.187h1.688Zm-2.571,18.919-1.954.635c-.092-1.642-.276-3.385-.547-5.293l1.683-.506A50.546,50.546,0,0,1,106.368,810.038Zm4.047-12.7a28.064,28.064,0,0,0-2.184-3.021,19.707,19.707,0,0,1-2.092,3.021Zm1.09,7.749a30.868,30.868,0,0,1-.524,4.442l-1.771-.635a23.244,23.244,0,0,0,.612-4.125Zm2.842-8.889c-.207-.552-.409-1.086-.612-1.559h-1.527c.23.313.455.58.639.819l-.5.74Zm2.318,6.507v-1.03h-2.318v1.03Zm0,1.959h-2.318v1.03h2.318Zm2.341-8.466c.184-.478.368-1,.524-1.559H116.37c.156.529.317,1.03.478,1.559Zm-.133,6.507h2.318v-1.03h-2.318Zm2.318,1.959h-2.318v1.03h2.318Z" transform="translate(-11.545 -790.512)" fill="#fff"/>
  <path id="Path_31360" data-name="Path 31360" d="M112.687,798.282a7.788,7.788,0,0,1-2.024,1.8l-1-1.748a3.72,3.72,0,0,0,1.885-1.931h-1.384v-3.725h3.228v2.879A4.951,4.951,0,0,1,112.687,798.282Z" transform="translate(11.196 -782.724)" fill="#fff"/>
  <path id="Path_31361" data-name="Path 31361" d="M117.375,791.189c-.138.529-.294,1.03-.432,1.453h1.545c-.179-.5-.363-.98-.566-1.453l2.387-.607a12.893,12.893,0,0,1,.681,2.061h1.8v2.06h-2.3v1.14h1.775v2.065h-1.775v1.242h1.959v2.065h-1.959v1.242h2.387v2.166H114.1v-6.158c-.294.418-.589.818-.888,1.187l-.906-3.091a15.91,15.91,0,0,0,2.773-5.979Zm13.415,14.256v2.065a15.625,15.625,0,0,1-4.116,3.412,40.162,40.162,0,0,0,6.5.529l-.975,3.311a38.773,38.773,0,0,1-8.958-2.1,36.218,36.218,0,0,1-9.869,2.1l-1.067-3.417a40.851,40.851,0,0,0,7.317-.529,21.373,21.373,0,0,1-3.7-2.884h-2.092v-2.488ZM118.17,794.7h-1.591v1.14h1.591Zm0,3.205h-1.591v1.242h1.591Zm-1.591,4.548h1.591v-1.242h-1.591Zm6.48,7.409a14.383,14.383,0,0,0,3.477-1.932h-6.8A17.3,17.3,0,0,0,123.059,809.865Zm4-18.676c-.133.529-.248,1-.386,1.453h1.458c-.184-.451-.409-.9-.639-1.348l2.5-.639a12.581,12.581,0,0,1,.727,1.987h2.115v2.06h-2.41v1.14h1.954v2.065h-1.954v1.242h1.954v2.065h-1.954v1.242h2.5v2.166h-9.165v-5.813c-.179.258-.363.524-.52.736l-.8-2.884a16.923,16.923,0,0,0,2.479-6.08Zm.979,3.513h-1.775v1.14h1.775Zm0,3.205h-1.775v1.242h1.775Zm-1.775,4.548h1.775v-1.242h-1.775Z" transform="translate(20.718 -790.26)" fill="#fff"/>
  <path id="Path_31362" data-name="Path 31362" d="M123.174,793.211h2.755v2.805h-8.687v-2.805h2.865c-.138-.842-.294-1.587-.478-2.277l3.3-.312C123.018,791.491,123.087,792.37,123.174,793.211Zm1.867,4.019v2.7H118.13v-2.7Zm0,3.946v2.672H118.13v-2.672Zm.087,13.12h-2.566v-1.136H120.7v1.347H118.13V805.2h7Zm-2.566-3.624V807.9H120.7v2.778Zm15.277-19.31v2.773h-5.385l-.276,1.775h4.686v5.054h1.5v2.884H125.676v-2.884h2.911l.34-2.276H126.38V795.91h2.957l.276-1.775H126.2v-2.773Zm-.7,23.256h-2.842v-1.247h-4.8v1.247h-2.842v-9.207h10.481Zm-2.842-3.946V808.1h-4.8v2.571Zm-.092-9.708v-2.276H131.77l-.34,2.276Z" transform="translate(38.478 -790.116)" fill="#fff"/>
  <path id="Path_31363" data-name="Path 31363" d="M135.01,794.66,133.1,795.8h8.935v3.1H139.19a22.2,22.2,0,0,1-4.456,9.363,16.98,16.98,0,0,0,8,2.939l-.975,3.734a16.848,16.848,0,0,1-9.46-4.341,26.172,26.172,0,0,1-8.3,4.442l-1.8-3.307a19.344,19.344,0,0,0,7.956-3.6,26.132,26.132,0,0,1-4.452-9.234h-2.525v-3.1h8.094a34.55,34.55,0,0,0-1.5-4.024l3.1-1.242A27.217,27.217,0,0,1,135.01,794.66Zm-2.571,11.377a17.23,17.23,0,0,0,3.385-7.142h-6.93A22.194,22.194,0,0,0,132.439,806.037Z" transform="translate(56.346 -790.429)" fill="#fff"/>
  <path id="Path_31364" data-name="Path 31364" d="M135.887,791.8v-1.246H139V791.8h7.459v2.35H139v.952h6.48v2.069H139V798.2h8.71v2.571H127.177V798.2h8.71v-1.025h-6.664v-2.069h6.664v-.952h-7.459V791.8Zm9.409,9.92v10.738a1.99,1.99,0,0,1-2.2,2.276h-3.822l-.363-2.7c1.545.083,2.318.11,2.318.11.593,0,.888-.166.888-.506v-1.058h-9.5v4.153h-3.026V801.724H145.3Zm-3.182,3.6v-1.03h-9.5v1.03Zm0,3.205v-1.145h-9.5v1.145Z" transform="translate(74.232 -790.347)" fill="#fff"/>
  <path id="Path_31365" data-name="Path 31365" d="M139.979,794.6v-4.019h3.113V794.6h7.915V806.48h-7.915v8.466h-3.113V806.48H132.34V794.6Zm0,3.1h-4.613v5.689h4.613Zm8,0h-4.889v5.689h4.889Z" transform="translate(92.813 -790.26)" fill="#fff"/>
  <path id="Path_31366" data-name="Path 31366" d="M143.687,796.438A41.87,41.87,0,0,1,140.3,809.77l-3.274-1.554a32.065,32.065,0,0,0,3.546-12.49Zm5.68,15.19c0,1.849-.837,2.8-2.5,2.8h-4l-.524-3.729c2,.216,3.09.317,3.3.317.409,0,.612-.294.612-.924V790.644h3.113Zm8.526-2.57-3.569,1.14a75.541,75.541,0,0,0-2.842-13.76l3.118-1.03A82.1,82.1,0,0,1,157.892,809.058Z" transform="translate(109.666 -790.037)" fill="#fff"/>
  <path id="Path_31367" data-name="Path 31367" d="M158.779,804.463v1.849a22.742,22.742,0,0,1-4.047,2.069h7.776v2.7h-8.526v1.738c-.115,1.246-.888,1.886-2.322,1.886h-3.817l-.363-2.6c1.683.083,2.635.105,2.842.105a.564.564,0,0,0,.635-.634v-.5h-8.889v-2.7h8.889v-.506a15.308,15.308,0,0,0,2.934-1.136h-8v-2.276ZM149.186,793.2a23.7,23.7,0,0,1-3.343.713l.023.736h2.865v2.277h-2.755l.051,1.035h2.7v1.191a9.118,9.118,0,0,0,1.954-.851c-.547-.4-1.049-.763-1.5-1.081L150.3,796.1c-.184.078-.363.133-.5.189l-.888-2.171a9.455,9.455,0,0,0,1.913-.74c-.547-.478-1.049-.924-1.55-1.325l1.412-1.458c.727.556,1.412,1.09,2,1.563a9.685,9.685,0,0,0,1.389-1.453l1.315,1.269v-.741h6.231l-.727,9.92h1.159v5.9H159.3V803.64H145.093v3.417h-2.755v-5.9h1.095l-.386-9.312a18.484,18.484,0,0,0,5.16-1.136Zm.156,7.961-.612-1.508v.58h-2.594l.046.929Zm4.548,0c-.524-.5-1-.952-1.453-1.38a13.24,13.24,0,0,1-2.479,1.38Zm-1.412-4.125a7.458,7.458,0,0,0,1-.98c-.363-.372-.7-.74-1.021-1.113a9.677,9.677,0,0,1-1.683.952C151.366,796.291,151.936,796.659,152.479,797.031Zm3.1.818h2.773l.069-.929h-2.842v-2.166h3l.092-1.035H155.39v-1.347a11.42,11.42,0,0,1-1.113,1.163c.409.4.773.768,1.113,1.108l-.929,1.3,1.021.98a10.61,10.61,0,0,1-1.274,1.375c.5.428.956.8,1.366,1.14Zm2.479,3.307.087-1.03h-2.566v-.266l-.934,1.3Z" transform="translate(127.818 -790.202)" fill="#fff"/>
</svg>
