<svg id="section4_title3" xmlns="http://www.w3.org/2000/svg" width="344.368" height="37.972" viewBox="0 0 344.368 37.972">
  <path id="Path_31539" data-name="Path 31539" d="M85.1,981.113c-.129,2.138-.29,4.272-.478,6.443H90.5q.1,12.2-2.571,19.338c1.288,1.232,2.41,2.423,3.44,3.573l-2.635,5.128a35.437,35.437,0,0,0-2.925-4.019,30.879,30.879,0,0,1-5.109,6.6l-3.021-4.351a18.2,18.2,0,0,0,5.077-5.62c-1.444-1.4-3.021-2.75-4.691-4.148.9-4.065,1.573-8,2.088-11.865H77.937v-4.64h2.732c.193-2.253.354-4.47.414-6.6ZM86.518,992.2h-2.41q-.676,4.932-1.642,10.1c.773.575,1.481,1.15,2.157,1.688A45.021,45.021,0,0,0,86.518,992.2Zm19.283-9.644V986.9a39.659,39.659,0,0,1-4.755,8.25v1.683h5.785v4.967h-5.785v12.026c-.064,2.8-1.932,4.19-5.528,4.19H92.754l-.612-5.132c2.088.124,3.339.166,3.762.166.639,0,.993-.575.993-1.766V1001.8H90.5v-4.967h6.4v-4.475a23.517,23.517,0,0,0,3.472-4.806H91.112v-5Z" transform="translate(-77.679 -980.497)" fill="gold"/>
  <path id="Path_31540" data-name="Path 31540" d="M93.116,986.08H96.2v3.371a33.522,33.522,0,0,1-2.378,6.443,37.48,37.48,0,0,1,3.633,4.967V981.6H112.4v23.73h-3.757v6.567c0,.777.322,1.15,1,1.15h.382c.515,0,.8-.782.869-2.378,0,0,.032-.947.129-2.915l3.5,1.269c-.29,4.065-.773,6.526-1.416,7.473a3.406,3.406,0,0,1-2.828,1.025h-2.152a2.984,2.984,0,0,1-2.571-1.357,5.3,5.3,0,0,1-.8-3.118v-7.717h-1.026c-.258,3.449-.869,5.951-1.867,7.551a15.608,15.608,0,0,1-6.264,5.463l-2.286-3.9v3.076H89.552v-14.491c-.966,1.352-2.028,2.708-3.15,4.061l-1.867-5.454a24.521,24.521,0,0,0,7.491-11.373H85.4V986.08h3.858c-.258-1.394-.515-2.75-.837-4.144l3.762-.984C92.537,982.469,92.859,984.194,93.116,986.08Zm5.243,24.181a9.992,9.992,0,0,0,1.476-4.926H97.458v-3.491l-1.862,3.817a51.925,51.925,0,0,0-2.286-4.967v12.973A11.583,11.583,0,0,0,98.359,1010.26Zm10.025-21.923V986.08h-6.912v2.258Zm0,6.241v-2.216h-6.912v2.216Zm0,4.024h-6.912v2.258h6.912Z" transform="translate(-53.006 -980.497)" fill="gold"/>
  <path id="Path_31541" data-name="Path 31541" d="M106.977,981.166V994.8h5.56a35.56,35.56,0,0,0-4.787-5.137l2.506-2.419a29.951,29.951,0,0,1,3.215,2.589,13.929,13.929,0,0,0,2.86-4.194H107.75v-4.47H120.41v3.527a25.064,25.064,0,0,1-4.015,8.3c.317.409.607.777.9,1.15l-.414.658h4.433a45.411,45.411,0,0,1-2.764,12.642l-3.408-2.056a28.139,28.139,0,0,0,2.088-6.277h-2.474v13.626c0,2.874-.9,4.35-2.635,4.35h-3.757l-.487-5.128c1.384.12,2.189.161,2.382.161.483,0,.74-.368.74-1.15v-11.86h-4.019v1.6H101.45v2.585h5.27v4.314h-5.27v3.035a50.308,50.308,0,0,0,5.914-1.44v4.682a98.917,98.917,0,0,1-15.2,2.874l-.607-4.967a63.61,63.61,0,0,0,6.392-.575v-3.61h-5.27v-4.314h5.27v-2.585h-5.27v-19.54ZM98.2,989.006v-3.7H96.308v3.7Zm0,3.859H96.308v3.693H98.2Zm3.021-3.859h2.12v-3.7h-2.12Zm2.12,3.859h-2.12v3.693h2.12Z" transform="translate(-27.749 -979.726)" fill="gold"/>
  <path id="Path_31542" data-name="Path 31542" d="M100.506,991.5v-7.307h5.689V991.5Z" transform="translate(4.471 -968.837)" fill="gold"/>
  <path id="Path_31543" data-name="Path 31543" d="M108.365,1017.958H104.35V981.094h12.789v15.231h-8.774Zm0-33.006v2.221h5.141v-2.221Zm0,7.515h5.141V990.25h-5.141Zm18.193,5.463v3.527h-2.989v4.024h3.762v3.693h-3.762v7.514H119.9v-7.514h-3.118a11.7,11.7,0,0,1-1.315,4.392,10.813,10.813,0,0,1-4.341,3.941l-2.023-4.19a6.657,6.657,0,0,0,3.182-2.295,6.247,6.247,0,0,0,.74-1.848h-3.665v-3.693h3.891v-4.024h-2.989V997.93Zm-6.654,3.527h-2.989v4.024H119.9Zm12.311-20.363v32.39c0,2.667-1.127,4.024-3.375,4.024h-3.665l-.736-5.132c1.734.124,2.727.166,3.017.166.483,0,.74-.373.74-1.15V996.325h-8.9V981.094h12.918Zm-4.019,3.858h-5.27v2.221h5.27Zm0,5.3h-5.27v2.216h5.27Z" transform="translate(18.305 -979.986)" fill="gold"/>
  <path id="Path_31544" data-name="Path 31544" d="M128.248,983.566H139.69v7.39h-2.249v3.035H129.15c-1.61,0-2.382-1.311-2.382-4.024v-2.216H115.454v3.205h-4.144v-7.39h12.247c-.129-.823-.29-1.563-.451-2.258l4.787-.455C128.023,981.759,128.12,982.66,128.248,983.566Zm-1.127,9.313a16.262,16.262,0,0,1-1.541,2.713h12.729v23.233H134.42v-1.766h-18.1v1.766h-3.886V995.592h1.219l-1.476-3.527a19.912,19.912,0,0,0,5.3-1.4,7.665,7.665,0,0,0,2.989-2.465l3.021,1.766a11.635,11.635,0,0,1-3.826,4.061,13.4,13.4,0,0,1-3.311,1.563h5.082a13.108,13.108,0,0,0,1.412-3.527Zm-4.208,20.529-2.313-2.093a27.932,27.932,0,0,0,4.5-3.573c-.547-.368-1.09-.736-1.637-1.1a30.218,30.218,0,0,1-4.856,4.346l-2.023-3.859a19.711,19.711,0,0,0,3.633-2.543c-1.095-.616-2.152-1.191-3.247-1.766l2.249-2.585c1.159.529,2.281,1.1,3.408,1.678a13.677,13.677,0,0,0,1.384-2.134l3.628.616a26.08,26.08,0,0,1-1.863,3.283c.644.414,1.251.782,1.863,1.15a23.441,23.441,0,0,0,2.506-4.107l4.019.662a59.727,59.727,0,0,1-3.5,5.5c1.127.823,2.249,1.646,3.376,2.506l-2.506,3.7c-1.095-1.03-2.189-2.014-3.311-2.962-1,1.2-1.991,2.3-2.957,3.288h9.161V999.285h-18.1v14.123Zm7.616-24.383c0,.86.193,1.274.612,1.274h4.406v-2.548h-5.017Z" transform="translate(43.356 -980.853)" fill="gold"/>
  <path id="Path_31545" data-name="Path 31545" d="M124.919,982.945v-2.056h4.019v2.056h3.376v4.185h-3.376v1.931h8.034V987.13h-3.408v-4.185h3.408v-2.056h4.015v2.056h6.4v4.185h-6.4v1.931h4.5v13.3H134.82v2.258H147v10.1c0,2.336-.934,3.528-2.764,3.528h-3.021l-.446-2.668-1.932.906c-.129-.7-.29-1.357-.418-2.014-4.369.736-8.77,1.352-13.143,1.844l-.612-4.511c2,0,4.084-.042,6.268-.207v-3.159h-7.036v10.26H120v-10.26H118.14v-3.822H120v-1.435h3.891v1.435h7.036v-2.258H120.9v-13.3h4.015V987.13h-6.429v-4.185Zm6.011,11.41v-1.766h-6.011v1.766Zm0,2.709h-6.011v1.766h6.011Zm3.891-2.709h6.65v-1.766h-6.65Zm6.65,2.709h-6.65v1.766h6.65Zm-4.5,12.688,2.86-.989a34.919,34.919,0,0,1,2.088,5.132h.064c.644,0,.993-.285.993-.942v-4.516H134.82v2.874c.869-.083,1.734-.17,2.635-.248C137.262,1010.611,137.1,1010.161,136.972,1009.751Z" transform="translate(67.932 -980.724)" fill="gold"/>
  <path id="Path_31546" data-name="Path 31546" d="M129.193,990.013v-8.991h3.923v8.991h3.118v4.966h-3.118v9.851a27.067,27.067,0,0,0,2.635-.86v-2.1h7.266V986.812h-6.526v-4.64h17.19v4.64H147.16v15.061h7.294v4.64H147.16v11.249h-4.143v-11.249h-6.4v2.258a69.638,69.638,0,0,1-10.665,3.366l-.773-5.459a33.066,33.066,0,0,0,4.015-.782V994.98h-3.376v-4.966Zm13.212,9.933-3.794,1.274a84.626,84.626,0,0,0-1.863-11.865l3.242-1.108A82.32,82.32,0,0,1,142.405,999.947Zm11.663-10.881a77.185,77.185,0,0,1-2.635,12.155l-3.886-1.44a63.483,63.483,0,0,0,3.021-12.026Z" transform="translate(93.261 -980.241)" fill="gold"/>
  <path id="Path_31547" data-name="Path 31547" d="M138.229,1000.1v-3.528h3.762v3.528h4.144v4.185h-4.144v.865a31.333,31.333,0,0,1,4.53,3.61l-2.023,4.024a30.077,30.077,0,0,0-2.506-3.035v8.945h-3.762v-8.908a27.257,27.257,0,0,1-3.762,6.7l-2.378-4.682c1.927-1.522,3.633-4.024,5.174-7.514h-4.691V1000.1Zm7.041-16.009v-3.205h3.886v3.205h11.313V988.4h-7.648a25.682,25.682,0,0,0,8.9,4.8l-2.281,4.511a19.992,19.992,0,0,1-6.751-4.59,26.159,26.159,0,0,1-3.537-3.863v8.907H145.27v-8.7a21.7,21.7,0,0,1-3.541,4.1,24.713,24.713,0,0,1-7.133,4.314l-1.766-4.847a21.045,21.045,0,0,0,8.549-4.636h-7.648v-4.309Zm6.521,16.009V996.12h3.762v3.983h5.909v4.185h-5.1a18.221,18.221,0,0,0,5.588,7.514l-1.863,5.128a22.432,22.432,0,0,1-4.3-7.427c-.1-.248-.161-.455-.225-.658v9.85h-3.762v-8.618a25.8,25.8,0,0,1-4.53,6.852l-2.253-4.47a21.4,21.4,0,0,0,6.236-8.172h-3.983V1000.1Z" transform="translate(118.135 -980.724)" fill="gold"/>
  <path id="Path_31548" data-name="Path 31548" d="M144.833,988.377v-7.39h3.661v7.39h3.247v4.8h-3.247v2.8a30.943,30.943,0,0,1,4.76,4.434L151,1005.043a31.787,31.787,0,0,0-2.506-3.693v16.542h-3.661v-14.781a40.889,40.889,0,0,1-3.891,8.664l-1.862-5.909a32.252,32.252,0,0,0,5.491-12.688h-4.5v-4.8Zm13.208,0v-7.39h4.015v7.39h5.882v4.971h-5.013c1.766,6.563,4.019,11.451,6.783,14.735l-2.511,5c-1.251-1.311-2.631-4.263-4.176-8.825-.354-.979-.676-1.968-.966-2.994v16.625h-4.015v-16.174a46.576,46.576,0,0,1-5.174,11.042l-2.64-5.128q4.1-4.312,7.3-14.284h-4.659v-4.971Z" transform="translate(143.291 -980.371)" fill="gold"/>
  <path id="Path_31549" data-name="Path 31549" d="M154.163,995.955l-3.021,4.148a50.86,50.86,0,0,0-5.017-5.914l2.64-3.532A42.276,42.276,0,0,1,154.163,995.955Zm-.644,6.733v-3.206h2.539c.129-1.8.225-3.61.322-5.335-.386.5-.74.9-1.095,1.315L153,991.153a23.142,23.142,0,0,0,5.657-10.264l4.019.777q-.338,1.111-.676,2.1h12.982v4.309H160.173c-.419.823-.837,1.6-1.223,2.258h15.043c-.354,5.334-.547,8.416-.58,9.151h2.313v3.983h-2.571c-.129,1.895-.258,3.532-.386,4.972h2.474v4.024h-2.925c-.386,2.543-.773,4.1-1.154,4.636-.708.906-2.152,1.393-4.341,1.481h-2.893l-.993-4.847c2.313.248,3.693.326,4.144.326a1.036,1.036,0,0,0,.934-.529,6.868,6.868,0,0,0,.257-1.067h-13.5q.579-4.622.966-9H154.1a88.351,88.351,0,0,1-3.73,14.781l-4.019-3.04a60.645,60.645,0,0,0,4.148-13.953Zm2.12-16.542-2.86,4.024a43.43,43.43,0,0,0-5.4-5.464l2.506-3.366A44.921,44.921,0,0,1,155.639,986.146Zm5.785,19.582,1.991-2.263h-3.661c-.161,1.766-.322,3.412-.483,4.972h5.335A33.746,33.746,0,0,0,161.424,1005.727Zm3.826-6.245a27.656,27.656,0,0,0-3.44-2.906l1.959-2.221h-3.44c-.1,1.808-.193,3.49-.285,5.128Zm3.858,3.983h-4.534a36.788,36.788,0,0,1,3.376,2.263l-1.734,2.709h2.534C168.879,1007.038,168.976,1005.4,169.109,1003.465Zm.253-3.983c.064-1.559.161-3.283.258-5.128h-4.948a38.026,38.026,0,0,1,3.279,2.051l-1.964,3.076Z" transform="translate(168.641 -980.724)" fill="gold"/>
</svg>
