<svg id="section4_subtitle2" xmlns="http://www.w3.org/2000/svg" width="323.025" height="24.581" viewBox="0 0 323.025 24.581">
  <g id="Group_5935" data-name="Group 5935">
    <path id="Path_31479" data-name="Path 31479" d="M91.746,934.021c-.138.584-.276,1.09-.432,1.564h2.115v4.125a2.483,2.483,0,0,0,.409-.023,26.977,26.977,0,0,0,1.384-5.877l2.571.851a39.244,39.244,0,0,1-1.568,4.7,7.552,7.552,0,0,0,1.067-.262c.363-.952.7-1.955,1.021-3.017l2.414,1.136a48.753,48.753,0,0,1-2.437,5.215l1.458-.451a34.8,34.8,0,0,1,1.228,5.477l-2.207.713c-.041-.418-.115-.869-.156-1.348a46.133,46.133,0,0,1-4.911,1.136l-.271-1.747v1.035h-1.6v1.458h8.8v2.562H94.04a10.209,10.209,0,0,0,2.023,1.352,18.611,18.611,0,0,0,5.183,1.665l-1.591,3.1a18.619,18.619,0,0,1-5.684-2.884,12.084,12.084,0,0,1-2.138-2.143v5.238H88.991v-5.132a13.666,13.666,0,0,1-2.318,2.17,22.287,22.287,0,0,1-5.408,2.75l-1.228-3.1a17.514,17.514,0,0,0,6.636-3.017h-6.3v-2.562h8.614v-1.458H87.538a1.074,1.074,0,0,0,.046.313l-1.954.612c-.046-.474-.115-.98-.161-1.508a37.743,37.743,0,0,1-4.544,1.3l-.46-2.778a9.9,9.9,0,0,0,1.209-.05,22.637,22.637,0,0,0,1.977-3.573c-.911.29-1.821.529-2.727.741l-.46-2.8a6.722,6.722,0,0,0,.75-.028,23.66,23.66,0,0,0,1.573-5.666l2.387.851a31.357,31.357,0,0,1-1.66,4.47.372.372,0,0,1-.046.078,9.781,9.781,0,0,0,1.182-.239c.276-.8.547-1.665.8-2.562l1.683.764v-1.587h1.614c.133-.634.248-1.3.34-1.987Zm-6.779,9.5c-.225.419-.478.819-.7,1.187a4.517,4.517,0,0,0,.888-.211C85.1,944.179,85.036,943.839,84.967,943.522Zm1.55-1.324c.225.9.432,1.771.612,2.594v-5.928c-.547,1.352-1.067,2.571-1.614,3.624Zm4.433-1.982v-2.253H89.607v2.253Zm0,2.193H89.607v2.465H90.95Zm3.067,2.75a23.112,23.112,0,0,0,2.138-3.463c-.865.267-1.706.5-2.548.713l-.179-1.425v4.2A4.391,4.391,0,0,0,94.017,945.159Zm3.886-2.033c-.386.658-.75,1.242-1.113,1.771.478-.05.957-.133,1.458-.234C98.133,944.156,98.018,943.655,97.9,943.126Z" transform="translate(-80.037 -933.308)" fill="#fff"/>
    <path id="Path_31480" data-name="Path 31480" d="M93.112,935.917h4.006a11.79,11.79,0,0,0,1.794-2.382l2.934.823a11.913,11.913,0,0,1-1.251,1.559h4v2.567H96.681v1.136h6.843V941.9H96.681v1.246h8.439v2.483h-3.187a12.662,12.662,0,0,1-.888,1.536h4.346v2.589H85.041v-2.589h4.364c-.317-.556-.635-1.062-.952-1.536H85.317v-2.483h8.434V941.9H86.908v-2.277h6.843v-1.136H85.837v-2.567h4.116a16.208,16.208,0,0,0-1.343-1.559l2.911-.717A10.121,10.121,0,0,1,93.112,935.917Zm10.14,22.2h-3.021v-1.035H90.113v1.035H87.087v-7.33h16.165Zm-3.021-3.495v-1.347H90.113v1.347Zm-2.479-7.459a10.407,10.407,0,0,0,.888-1.536H91.659c.34.529.658,1.058.957,1.536Z" transform="translate(-62.029 -933.535)" fill="#fff"/>
    <path id="Path_31481" data-name="Path 31481" d="M99.567,936.355c-.888.345-1.89.662-3.026.98v3.15h3.026v2.8H96.541v.741a22.172,22.172,0,0,1,3.113,2.672l-1.522,2.782a18.9,18.9,0,0,0-1.591-2.171v10.637H93.883v-9.952a18.653,18.653,0,0,1-2.755,4.58l-1.251-3.6a13.708,13.708,0,0,0,3.734-5.689H90.222v-2.8h3.661v-2.516c-.911.216-1.844.4-2.842.556l-.819-3.095a34.7,34.7,0,0,0,8.181-1.665Zm11.525,14.472-2.387.4v6.719H105.77V951.7l-7.183,1.191-.184-3.311,7.367-1.214V933.582H108.7v14.307l2.23-.368Zm-5.684-12.408L104,941.62a27.058,27.058,0,0,0-4.709-3.918l1.5-2.378A25.556,25.556,0,0,1,105.407,938.419Zm-.156,6.4-1.435,3.2a27.579,27.579,0,0,0-4.433-3.808l1.5-2.382A25.129,25.129,0,0,1,105.251,944.821Z" transform="translate(-44.625 -933.365)" fill="#fff"/>
    <path id="Path_31482" data-name="Path 31482" d="M97.875,938.2v-4.553h2.842V938.2h2.046v-1.352h4.525v-3.2h3.026v3.2h5.068v3.122h-5.068v2.884h4.272v2.7a21.886,21.886,0,0,1-3.366,6.641,15.778,15.778,0,0,0,4.594,1.931l-1.591,3.417a17.655,17.655,0,0,1-5.3-3.072,16.714,16.714,0,0,1-6.07,2.962l-1.683-3.017a13.1,13.1,0,0,0,5.459-2.221,24.531,24.531,0,0,1-3.251-5.316l1.568-.929h-1.821v-3.095h4.162v-2.884h-4.249v1.219h-2.322v3.523a18.614,18.614,0,0,0,1.959-.823l.179,3.1c-.681.345-1.412.658-2.138.98v6.668c0,1.72-.75,2.589-2.2,2.589H95.829l-.524-3.412c1.233.157,1.913.211,2.046.211.345,0,.524-.239.524-.74v-4.231c-.86.313-1.748.58-2.658.846l-.276-3.518c1-.184,1.982-.428,2.934-.69v-4.5H95.033V938.2Zm10.941,12.068a13.37,13.37,0,0,0,2.295-4.319h-5.3A16.446,16.446,0,0,0,108.816,950.264Z" transform="translate(-26.4 -933.143)" fill="#fff"/>
    <path id="Path_31483" data-name="Path 31483" d="M108.926,943.865v8.043h-1.274v-8.043H100.4v-1.481h7.252v-8.066h1.274v8.066h7.252v1.481Z" transform="translate(-6.755 -930.717)" fill="#fff"/>
    <path id="Path_31484" data-name="Path 31484" d="M112.673,937.6v-4.019h3.113V937.6H123.7V949.48h-7.915v8.466h-3.113V949.48h-7.639V937.6Zm0,3.1h-4.617v5.688h4.617Zm8,0h-4.888v5.688h4.888Z" transform="translate(9.922 -933.365)" fill="#fff"/>
    <path id="Path_31485" data-name="Path 31485" d="M114.48,935.325v-1.743h2.773v1.743h2.295V938.1h-2.295v1.347h5.413V938.1h-2.138v-2.778h2.138v-1.743h2.75v1.743H130.3V938.1h-4.889v1.347h3.546v2.594h-2.138v1.536h2.594v2.7h-2.594v1.853h3.661v2.594H121.5v1.347h7.915v2.566H121.5v3.311h-2.929v-3.311h-7.551v-2.566h7.551v-1.347h-8.618v-2.594h3.3v-1.853h-2.5v-2.7h2.5v-1.536h-2.138V939.45h3.366V938.1h-4.709v-2.778Zm4.093,6.719h-2.755v1.536h2.755Zm0,6.084v-1.853h-2.755v1.853Zm5.68-6.084H121.5v1.536h2.75Zm-2.75,6.084h2.75v-1.853H121.5Z" transform="translate(26.97 -933.365)" fill="#fff"/>
    <path id="Path_31486" data-name="Path 31486" d="M117.9,935.98c-.023,1.058-.041,2.065-.087,3.017h.911v-5.187H121.2V939h1.163v1.642a13.832,13.832,0,0,0,1.177-2.567,20.846,20.846,0,0,0,.934-4.474l2.594.322c-.115,1.058-.276,2.032-.455,2.911h8.706l-.11,8.568q-.207,8.574-1.366,10.609a3.612,3.612,0,0,1-3.412,1.7h-1.251l-.7-3.624a17.783,17.783,0,0,0,1.954.207,1.468,1.468,0,0,0,1.458-1.14c.317-1.053.478-3.808.524-8.227l.064-5.211H132a44.269,44.269,0,0,1-1.8,8.917,32.945,32.945,0,0,1-4.024,8.862l-2.318-2.484a32.1,32.1,0,0,0,3.932-7.726,35.246,35.246,0,0,0,1.614-7.57h-.727a27.181,27.181,0,0,1-1.412,6.006,23.435,23.435,0,0,1-3.316,6.406l-2.138-2.382A20.827,20.827,0,0,0,125,944.446a19.561,19.561,0,0,0,1.274-4.737h-.432a2.915,2.915,0,0,0-.115.294,25.266,25.266,0,0,1-2.226,4.364l-1.32-2.488h-.98v3.863a16.775,16.775,0,0,0,1.775-1.269v3.49c-.57.4-1.159.768-1.775,1.136v8.788h-2.474v-7.413c-1.049.533-2.138,1.062-3.3,1.536l-.8-3.3a28.888,28.888,0,0,0,4.1-1.619v-5.21h-1.049c-.092,1.347-.184,2.617-.294,3.835l-2.479-.841a92.8,92.8,0,0,0,.7-9.29Z" transform="translate(44.446 -933.308)" fill="#fff"/>
    <path id="Path_31487" data-name="Path 31487" d="M125,943.227l-2.138,2.672a29.608,29.608,0,0,0-3.205-3.7l1.885-2.276A28.019,28.019,0,0,1,125,943.227Zm.612,4.447a46.161,46.161,0,0,1-3.113,9.814l-2.75-1.853a34.814,34.814,0,0,0,3.385-9.1Zm.363-10.453-1.955,2.488a27.527,27.527,0,0,0-3.021-3.513l1.683-2.176A25.829,25.829,0,0,1,125.971,937.221Zm4,12.274a11.619,11.619,0,0,1-3.293,8.31l-2.23-2.17a8.471,8.471,0,0,0,2.345-3.1,10.26,10.26,0,0,0,.589-4v-2.433h2.589Zm4.824-13.622h5.114v2.805h-7.05a20.077,20.077,0,0,1-1.656,3.546,37.861,37.861,0,0,0,4.452-.635c-.317-.579-.658-1.136-.975-1.669l2.474-.925a33.164,33.164,0,0,1,3.21,5.477l-2.75,1.536c-.23-.634-.478-1.274-.731-1.853a58.155,58.155,0,0,1-10.3,1.136l-.345-3.095c.731.05,1.343.078,1.844.078a22.753,22.753,0,0,0,1.66-3.6H126.5v-2.805h5.026c-.161-.713-.317-1.371-.5-1.955l3.477-.322C134.589,934.366,134.7,935.134,134.8,935.874Zm-1.278,10.664V956.67h-2.566V946.539Zm3.822,7.432c0,.479.092.713.276.713h.34c.179,0,.271-.423.294-1.3,0,0,.023-.658.069-2l2.474.841c-.179,2.6-.474,4.13-.906,4.631a1.661,1.661,0,0,1-1.389.529h-1.614a2.22,2.22,0,0,1-1.7-.557,2.634,2.634,0,0,1-.5-1.72v-8.89h2.658Z" transform="translate(62.53 -933.308)" fill="#fff"/>
    <path id="Path_31488" data-name="Path 31488" d="M131.245,941.282a7.635,7.635,0,0,1-2.023,1.8l-1-1.748a3.757,3.757,0,0,0,1.886-1.931h-1.389v-3.725h3.233v2.879A4.912,4.912,0,0,1,131.245,941.282Z" transform="translate(93.379 -925.83)" fill="#fff"/>
    <path id="Path_31489" data-name="Path 31489" d="M132.955,939.756v-5.9h2.658v5.9h1.614v3.2h-1.614v6.48c.662-.211,1.32-.423,1.954-.69l.184,3.205a40.4,40.4,0,0,1-6.572,2.272l-.271-3.624a18.82,18.82,0,0,0,2.046-.423v-7.22h-1.867v-3.2Zm10.435-3.624h2.3a11.412,11.412,0,0,0,.676-2.488l3.026.529a16.1,16.1,0,0,1-.773,1.959h2.548v9.814h-13.6v-9.814h2.842a15.59,15.59,0,0,0-.883-1.748l2.837-.74A12.234,12.234,0,0,1,143.39,936.132Zm7.16,21.3h-2.773v-1.035h-6.82v1.035h-2.75V946.981H150.55Zm-7.478-18.809h-2.911v4.843h2.911ZM143,942.032l-2.047,1.136a34.887,34.887,0,0,0-.727-3.513l1.794-.717C142.434,940.05,142.751,941.08,143,942.032Zm4.774,8.466v-1.141h-6.82V950.5Zm0,3.518V952.77h-6.82v1.246Zm.819-15.4h-3.205v4.843H148.6Zm-.184.818a22.609,22.609,0,0,1-.8,3.84l-2.042-1.246a12.527,12.527,0,0,0,1.067-3.1Z" transform="translate(103.041 -933.143)" fill="#fff"/>
    <path id="Path_31490" data-name="Path 31490" d="M142.245,934.607a44.721,44.721,0,0,1-1.159,4.686v18.358h-2.934V946.514c-.432.851-.865,1.614-1.315,2.354l-1.072-3.835a36.5,36.5,0,0,0,3.638-11.267Zm5.413.929c.069-.635.133-1.3.179-1.955l3.205.5c-.092.529-.156,1.007-.225,1.458h5.73v2.778h-6.254c-.115.529-.23,1.007-.317,1.453h5.592v14.578h1.159v2.883H141.881v-2.883h1.343V939.767h3.7c.092-.474.207-.952.3-1.453h-4.889v-2.778Zm4.98,8.149v-1.14h-6.484v1.14Zm0,3.518v-1.136h-6.484V947.2Zm0,3.518v-1.141h-6.484v1.141Zm0,3.624V953.1h-6.484v1.241Z" transform="translate(120.517 -933.365)" fill="#fff"/>
    <path id="Path_31491" data-name="Path 31491" d="M146.255,952.575a17.722,17.722,0,0,1-2.842,5.371l-2.658-2.253a14.386,14.386,0,0,0,2.911-4.254Zm1.775-18.5c-.276.584-.547,1.14-.842,1.669h13.617v2.884h-1.591v3.307H160.9v2.782h-1.683v3.624h2.23v2.8H141.367v-2.8h2.479V944.72h-1.862v-2.782h1.862v-1.876c-.409.368-.819.74-1.228,1.053l-1.614-2.8a10.859,10.859,0,0,0,4.185-4.733Zm.087,4.553h-1.771v3.307h1.771Zm0,9.713V944.72h-1.771v3.624Zm3.026,8.384-3.205.5a19.186,19.186,0,0,0-.888-5.049l2.755-.211A25.743,25.743,0,0,1,151.144,956.728Zm1.228-18.1H150.6v3.307h1.775Zm0,9.713V944.72H150.6v3.624Zm3.638,7.855-3,1.03a21.116,21.116,0,0,0-1.251-4.654l2.663-.823A19.7,19.7,0,0,1,156.009,956.2Zm.727-17.567h-1.862v3.307h1.862Zm0,9.713V944.72h-1.862v3.624Zm4.958,8.172-3.182,1.348a25.484,25.484,0,0,0-2.046-5.4l2.75-.924A31.865,31.865,0,0,1,161.693,956.516Z" transform="translate(138.475 -933.365)" fill="#fff"/>
    <path id="Path_31492" data-name="Path 31492" d="M153.061,935.828c-.294,1.637-.8,3.753-1.5,6.3a11.493,11.493,0,0,1,1.407,4.971,5.252,5.252,0,0,1-.888,3.44c-.428.634-1.587.952-3.454,1.007v5.767h-2.75v-23.55h7.183Zm-3.909,12.8c.727-.027,1.113-.529,1.159-1.536a11.105,11.105,0,0,0-1.5-4.971,30.981,30.981,0,0,0,1.591-5.27h-1.775v11.722A2.318,2.318,0,0,0,149.152,948.631Zm15.553-14.762v11.662h-4.116a10.84,10.84,0,0,0,.7,3.127,9.582,9.582,0,0,0,2.525-2.7l1.862,2.672a10.712,10.712,0,0,1-3.049,2.433,11.588,11.588,0,0,0,3.481,3.04l-2.207,3.123a15.79,15.79,0,0,1-6-11.695H156.52v6.99a17.511,17.511,0,0,0,2.5-1.09v3.306a30.03,30.03,0,0,1-6.843,2.387l-.524-3.624a19.477,19.477,0,0,0,2.115-.267V933.869Zm-2.755,4.442v-1.771H156.52v1.771Zm0,4.553v-1.987H156.52v1.987Z" transform="translate(156.912 -932.729)" fill="#fff"/>
  </g>
  <g id="Group_5936" data-name="Group 5936" transform="translate(205.829 0.626)">
    <path id="Path_31493" data-name="Path 31493" d="M126.224,936.3a9.366,9.366,0,0,0-1.15-.865l.616-.639c.216.124.414.244.612.377a5.022,5.022,0,0,0,.6-.639h-1.987v-.86h3.146v.791a6.806,6.806,0,0,1-1.026,1.26l.253.221-.276.354h1.2v.639a5.683,5.683,0,0,1-.671,1.288l-.644-.419a5.557,5.557,0,0,0,.331-.7h-.428v2.594a1.671,1.671,0,0,1-.179.911.962.962,0,0,1-.782.28,3.127,3.127,0,0,1-.8-.1l-.166-.929a2.946,2.946,0,0,0,.842.129.129.129,0,0,0,.12-.1,2.086,2.086,0,0,0,.032-.414V937.1h-1.058v-.8Zm5.882-2.626v.86h-1.564l-.064.386h1.495v4.778h-.648a2.259,2.259,0,0,0,.336.161,2.878,2.878,0,0,0,.6.226l-.474.869a5.045,5.045,0,0,1-.685-.345,6.262,6.262,0,0,1-.727-.524l.474-.386h-1.361l.437.349a6.327,6.327,0,0,1-1.669.906l-.474-.869a5.665,5.665,0,0,0,1.09-.386h-.515v-4.778h1.2l.069-.386h-1.43v-.86Zm-1.062,2.557v-.441h-1.766v.441Zm0,1.315v-.511h-1.766v.511Zm0,1.292v-.488h-1.766v.488Z" transform="translate(-124.697 -933.67)" fill="#fff"/>
    <path id="Path_31494" data-name="Path 31494" d="M131.151,937.732v.9H129.1v.993h2.152v.869H129.1v1.269c.428.032.92.042,1.495.042a11.345,11.345,0,0,0,1.619-.1l-.29,1.058h-1.329a14.569,14.569,0,0,1-2.428-.147,2.654,2.654,0,0,1-1.784-1.039,6.762,6.762,0,0,1-.878,1.288l-.7-.676a6.153,6.153,0,0,0,.934-1.444,5.964,5.964,0,0,0,.474-1.729l.906.189a7.125,7.125,0,0,1-.331,1.435,2.5,2.5,0,0,0,.52.58,1.844,1.844,0,0,0,.869.428v-3.017h-2.217v-.9Zm-2.083-2.313v.644h3.012V937.6h-.929v-.634h-5.2v.634h-.924v-1.536h3.044v-.644Z" transform="translate(-124.772 -927.38)" fill="#fff"/>
    <path id="Path_31495" data-name="Path 31495" d="M125.659,938.922v-1.637h.892v1.637h.8v.9h-.8v2.3c.313-.083.616-.161.906-.253l.156.828a19.834,19.834,0,0,1-2.5.773l-.322-.962c.294-.05.584-.115.865-.179v-2.511h-.773v-.9Zm6.231,3a.963.963,0,0,1-.322.584.871.871,0,0,1-.46.129,1.78,1.78,0,0,1-.543-.088l-.161-.906a1.026,1.026,0,0,0,.515.133c.064,0,.115-.069.147-.2.051-.359.092-1.021.124-1.954l-.855.285v3.145h-.892V940.21l-.612.2v2.644c0,.3.11.455.322.46a2.784,2.784,0,0,0,.754.055,7.12,7.12,0,0,0,.906-.023,1.8,1.8,0,0,0,.345-.056c.115-.018.2-.266.235-.754l.906.386a2.579,2.579,0,0,1-.368,1.122,1.1,1.1,0,0,1-.492.147c-.52.051-1.03.074-1.531.074h-.432a2.933,2.933,0,0,1-.75-.083c-.533-.014-.8-.345-.8-.975v-2.7l-.506.175-.225-.773.731-.262V937.86h.9v1.665l.612-.212v-2.1h.892v1.775l1.734-.616A26.9,26.9,0,0,1,131.89,941.925Z" transform="translate(-124.794 -920.913)" fill="#fff"/>
  </g>
</svg>
