<svg id="section4_title3_lg" xmlns="http://www.w3.org/2000/svg" width="349" height="123" viewBox="0 0 349 123">
  <g id="Group_102" data-name="Group 102" transform="translate(0 0)">
    <path id="Path_290" data-name="Path 290" d="M124.951,1255.235c-.2,3.057-.456,6.12-.756,9.243h9.227c.1,11.65-1.26,20.894-4.031,27.718,2.016,1.763,3.779,3.478,5.393,5.12l-4.133,7.36a50.227,50.227,0,0,0-4.589-5.765,44.993,44.993,0,0,1-8.021,9.471l-4.739-6.234a27.176,27.176,0,0,0,7.967-8.07c-2.268-2-4.739-3.941-7.361-5.94,1.41-5.831,2.472-11.481,3.276-17.018H113.7v-6.643h4.289c.3-3.237.552-6.414.654-9.477Zm2.22,15.886h-3.785q-1.053,7.077-2.568,14.485c1.206.818,2.316,1.649,3.377,2.413A59.3,59.3,0,0,0,127.171,1271.121Zm30.26-13.822v6.234a55.8,55.8,0,0,1-7.463,11.831v2.414h9.077v7.118h-9.077v17.253c-.1,4-3.024,6-8.675,6h-4.337l-.96-7.36c3.282.174,5.243.235,5.9.235,1.008,0,1.566-.824,1.566-2.527v-13.6H133.422v-7.118h10.043v-6.422a34.43,34.43,0,0,0,5.447-6.878h-14.53V1257.3Z" transform="translate(-113.301 -1255)" fill="gold"/>
    <path id="Path_291" data-name="Path 291" d="M135.024,1262.354h4.841v4.826a45.784,45.784,0,0,1-3.731,9.243,54.392,54.392,0,0,1,5.7,7.125v-27.609H165.29v34.017h-5.9v9.424c0,1.113.5,1.642,1.566,1.642h.6c.81,0,1.266-1.113,1.362-3.411,0,0,.048-1.355.2-4.182l5.5,1.829c-.45,5.825-1.206,9.358-2.22,10.711-.8.944-2.268,1.474-4.433,1.474h-3.384a4.8,4.8,0,0,1-4.031-1.95,7.09,7.09,0,0,1-1.266-4.472v-11.066h-1.608c-.408,4.953-1.362,8.539-2.928,10.832-2.118,3.124-5.4,5.711-9.839,7.835l-3.576-5.6v4.417h-5.9v-20.785c-1.518,1.949-3.18,3.887-4.943,5.831l-2.928-7.829a35.041,35.041,0,0,0,11.752-16.3H122.918v-6.005h6.053c-.4-2-.8-3.942-1.314-5.946l5.9-1.408A74.714,74.714,0,0,1,135.024,1262.354Zm8.219,34.667c1.212-1.529,2.022-3.882,2.322-7.065h-3.731v-5l-2.928,5.469a69.782,69.782,0,0,0-3.576-7.113v18.6A18.265,18.265,0,0,0,143.243,1297.021Zm15.736-31.43v-3.237h-10.84v3.237Zm0,8.948v-3.183h-10.84v3.183Zm0,5.771h-10.84v3.237h10.84Z" transform="translate(-72.033 -1255)" fill="gold"/>
    <path id="Path_292" data-name="Path 292" d="M154.217,1255.233v19.545h8.723a53.05,53.05,0,0,0-7.517-7.36l3.935-3.472a47.155,47.155,0,0,1,5.045,3.707,19.9,19.9,0,0,0,4.487-6H155.423v-6.421H175.3v5.067a34.917,34.917,0,0,1-6.305,11.89l1.41,1.643-.654.945h6.959a60.093,60.093,0,0,1-4.337,18.125l-5.345-2.937a38.424,38.424,0,0,0,3.282-9.008H166.42V1300.5c0,4.122-1.41,6.24-4.133,6.24h-5.9l-.756-7.36c2.166.175,3.431.235,3.731.235.756,0,1.158-.529,1.158-1.642v-17.012h-6.3v2.292h-8.681v3.713h8.273v6.174h-8.273v4.363a86.791,86.791,0,0,0,9.281-2.064v6.709a168.385,168.385,0,0,1-23.853,4.121l-.96-7.124c3.48-.121,6.809-.41,10.037-.825v-5.181h-8.273v-6.174h8.273v-3.713h-8.273v-28.018Zm-13.774,11.241v-5.3h-2.976v5.3Zm0,5.535h-2.976v5.3h2.976Zm4.745-5.535h3.324v-5.3h-3.324Zm3.324,5.535h-3.324v5.3h3.324Z" transform="translate(-29.795 -1253.825)" fill="gold"/>
    <path id="Path_293" data-name="Path 293" d="M119.74,1319.51h-6.305v-52.852h20.079v21.832H119.74Zm0-47.322v3.177h8.075v-3.177Zm0,10.771h8.075v-3.178H119.74Zm28.55,7.828v5.061H143.6v5.764h5.9v5.3h-5.9v10.772h-5.753v-10.772h-4.889a15.648,15.648,0,0,1-2.07,6.3,16.523,16.523,0,0,1-6.809,5.651l-3.174-6a10.494,10.494,0,0,0,4.991-3.3,8.657,8.657,0,0,0,1.164-2.654h-5.753v-5.3h6.1v-5.764h-4.691v-5.061Zm-10.445,5.061H133.16v5.764h4.685Zm19.323-29.192V1313.1c0,3.821-1.764,5.765-5.3,5.765h-5.753l-1.158-7.36c2.724.174,4.289.241,4.739.241.756,0,1.164-.536,1.164-1.649v-21.6H136.892v-21.832h20.277Zm-6.305,5.531h-8.273v3.177h8.273Zm0,7.594h-8.273v3.178h8.273Z" transform="translate(-112.631 -1196.51)" fill="gold"/>
    <path id="Path_294" data-name="Path 294" d="M148.4,1270.279h17.955v10.591h-3.534v4.357H149.809c-2.52,0-3.731-1.877-3.731-5.765v-3.177H128.32v4.585h-6.5v-10.591h19.215c-.2-1.179-.456-2.233-.708-3.237l7.517-.65C148.045,1267.687,148.2,1268.985,148.4,1270.279Zm-1.77,13.366a24.17,24.17,0,0,1-2.418,3.881h19.971v33.313h-6.1v-2.533h-28.4v2.533h-6.1v-33.313h1.92l-2.322-5.067a33.008,33.008,0,0,0,8.321-2,11.8,11.8,0,0,0,4.691-3.532l4.739,2.533a17.483,17.483,0,0,1-6,5.825,22.314,22.314,0,0,1-5.2,2.239H137.7a17.825,17.825,0,0,0,2.22-5.067Zm-6.605,29.426-3.629-3a43.83,43.83,0,0,0,7.061-5.127q-1.287-.785-2.574-1.582a45.938,45.938,0,0,1-7.619,6.24l-3.174-5.536a31.2,31.2,0,0,0,5.693-3.647c-1.71-.884-3.372-1.709-5.093-2.533l3.534-3.707c1.818.764,3.581,1.589,5.345,2.413a19.681,19.681,0,0,0,2.172-3.063l5.7.885a36.757,36.757,0,0,1-2.928,4.712c1.008.583,1.968,1.113,2.928,1.642a33.562,33.562,0,0,0,3.935-5.88l6.3.939a83.028,83.028,0,0,1-5.5,7.884c1.764,1.179,3.534,2.358,5.3,3.592l-3.935,5.3c-1.716-1.468-3.432-2.882-5.2-4.236-1.56,1.709-3.125,3.3-4.637,4.712h14.374v-20.249h-28.4v20.249Zm11.95-34.963c0,1.24.306,1.823.96,1.823h6.911v-3.646h-7.871Z" transform="translate(-70.728 -1197.839)" fill="gold"/>
    <path id="Path_295" data-name="Path 295" d="M140.681,1269.379v-2.948h6.3v2.948h5.3v6.005h-5.3v2.763h12.61v-2.763h-5.345v-6.005h5.345v-2.948H165.9v2.948h10.043v6.005H165.9v2.763h7.061v19.07H156.213v3.237h19.113v14.478c0,3.352-1.458,5.061-4.337,5.061H166.25l-.7-3.827-3.03,1.3c-.2-1.005-.456-1.943-.654-2.888-6.863,1.059-13.774,1.943-20.631,2.654l-.96-6.475c3.132,0,6.407-.061,9.839-.295v-4.532h-11.05v14.713h-6.1V1305.93h-2.922v-5.476h2.922V1298.4h6.1v2.058h11.05v-3.237H134.37v-19.07h6.311v-2.763H130.591v-6.005Zm9.431,16.356v-2.528h-9.431v2.528Zm0,3.887h-9.431v2.534h9.431Zm6.1-3.887h10.439v-2.528H156.213Zm10.439,3.887H156.213v2.534h10.439Zm-7.061,18.186,4.487-1.408a46.474,46.474,0,0,1,3.282,7.36h.1c1.008,0,1.566-.415,1.566-1.36v-6.469H156.213v4.116c1.362-.114,2.724-.234,4.133-.348C160.047,1309.041,159.795,1308.4,159.591,1307.808Z" transform="translate(-29.625 -1197.643)" fill="gold"/>
    <path id="Path_296" data-name="Path 296" d="M144.823,1279.468v-12.889h6.149v12.889h4.889v7.125h-4.889v14.123c1.41-.354,2.772-.764,4.133-1.234v-3h11.4v-21.6H156.269v-6.656h26.984v6.656H173.013v21.6h11.446v6.65H173.013v16.127h-6.5v-16.127H156.467v3.237a115.443,115.443,0,0,1-16.744,4.827l-1.212-7.828a57.225,57.225,0,0,0,6.311-1.114v-15.657h-5.3v-7.125Zm20.727,14.25-5.951,1.817a110.667,110.667,0,0,0-2.928-17.006l5.093-1.588A109.033,109.033,0,0,1,165.55,1293.718Zm18.309-15.6a103.547,103.547,0,0,1-4.139,17.421l-6.1-2.058a84.332,84.332,0,0,0,4.739-17.246Z" transform="translate(12.732 -1196.906)" fill="gold"/>
    <path id="Path_297" data-name="Path 297" d="M156.47,1293.979v-5.061h5.9v5.061h6.509v6.005h-6.509v1.234a48.662,48.662,0,0,1,7.115,5.181l-3.18,5.765a44.376,44.376,0,0,0-3.936-4.356v12.835h-5.9v-12.774a38.33,38.33,0,0,1-5.9,9.6l-3.731-6.709c3.024-2.185,5.7-5.771,8.123-10.772h-7.367v-6.005Zm11.044-22.957v-4.591h6.1v4.591h17.758v6.18h-12a41.712,41.712,0,0,0,13.966,6.89l-3.576,6.475c-3.132-1-6.659-3.177-10.595-6.6a38.89,38.89,0,0,1-5.549-5.53v12.776h-6.1v-12.487a32.058,32.058,0,0,1-5.549,5.891,39.855,39.855,0,0,1-11.194,6.18l-2.778-6.944a34.226,34.226,0,0,0,13.42-6.656h-12v-6.18Zm10.241,22.957v-5.711h5.9v5.711h9.287v6.005h-8.021a26.476,26.476,0,0,0,8.771,10.772l-2.922,7.354a31.79,31.79,0,0,1-6.761-10.652c-.15-.356-.252-.65-.354-.945v14.129h-5.9v-12.365a37.107,37.107,0,0,1-7.115,9.833l-3.528-6.415c3.63-2.414,6.911-6.295,9.785-11.711H170.64v-6.005Z" transform="translate(54.34 -1197.643)" fill="gold"/>
    <path id="Path_298" data-name="Path 298" d="M164.279,1277.136v-10.6h5.747v10.6h5.1v6.884h-5.1v4a47.4,47.4,0,0,1,7.469,6.361l-3.533,6.644a46.923,46.923,0,0,0-3.935-5.3v23.721h-5.747v-21.187a56.169,56.169,0,0,1-6.107,12.42l-2.922-8.479a44.4,44.4,0,0,0,8.627-18.186h-7.061v-6.884Zm20.727,0v-10.6h6.305v10.6h9.233v7.119h-7.871c2.778,9.418,6.305,16.422,10.642,21.134l-3.935,7.179c-1.962-1.883-4.133-6.12-6.551-12.655-.558-1.414-1.062-2.828-1.518-4.3v23.836h-6.305V1296.26a64.1,64.1,0,0,1-8.117,15.832l-4.139-7.36q6.434-6.174,11.452-20.477h-7.313v-7.119Z" transform="translate(96.408 -1197.101)" fill="gold"/>
    <path id="Path_299" data-name="Path 299" d="M176.342,1288.034l-4.739,5.945a74.9,74.9,0,0,0-7.871-8.479l4.133-5.061A62.717,62.717,0,0,1,176.342,1288.034Zm-1.008,9.652v-4.591h3.983c.2-2.588.354-5.175.5-7.655-.6.71-1.158,1.3-1.716,1.89l-3.581-6.18a32.425,32.425,0,0,0,8.879-14.719l6.305,1.118q-.531,1.6-1.056,3h20.373v6.18H185.773c-.654,1.18-1.308,2.3-1.914,3.237h23.6c-.552,7.654-.858,12.066-.906,13.125h3.635v5.711h-4.037c-.2,2.7-.4,5.061-.606,7.124h3.888v5.765h-4.6c-.606,3.646-1.206,5.885-1.812,6.649q-1.665,1.941-6.815,2.124h-4.535l-1.566-6.944c3.635.348,5.8.469,6.509.469a1.659,1.659,0,0,0,1.464-.764,8.968,8.968,0,0,0,.4-1.534H177.3q.909-6.626,1.512-12.89H176.24a117.056,117.056,0,0,1-5.849,21.188l-6.305-4.356a81.913,81.913,0,0,0,6.509-20.009Zm3.329-23.721-4.487,5.771a65.6,65.6,0,0,0-8.477-7.829l3.935-4.827A70.384,70.384,0,0,1,178.664,1273.964Zm9.077,28.078,3.126-3.237h-5.747c-.252,2.527-.5,4.886-.756,7.124h8.369A51.932,51.932,0,0,0,187.74,1302.042Zm6.005-8.947a43.023,43.023,0,0,0-5.4-4.177l3.078-3.183h-5.4c-.15,2.593-.3,5.006-.45,7.36Zm6.053,5.711h-7.115a56.306,56.306,0,0,1,5.3,3.237l-2.724,3.888h3.983C199.445,1303.926,199.595,1301.568,199.8,1298.805Zm.4-5.711c.1-2.234.252-4.707.4-7.36h-7.769c2.172,1.125,3.888,2.124,5.147,2.949l-3.078,4.411Z" transform="translate(138.811 -1197.643)" fill="gold"/>
  </g>
</svg>
