<svg xmlns="http://www.w3.org/2000/svg" width="244.932" height="244.932" viewBox="0 0 244.932 244.932">
  <g id="section7_imgicon3_lg" transform="translate(-12942.534 -8353.728)">
    <circle id="Ellipse_4" data-name="Ellipse 4" cx="122.466" cy="122.466" r="122.466" transform="translate(12942.534 8598.659) rotate(-90)" fill="#fff"/>
    <g id="Group_136" data-name="Group 136" transform="translate(12980.829 8404.805)">
      <g id="Group_135" data-name="Group 135">
        <path id="Path_693" data-name="Path 693" d="M227.727,2184.421c-.829,1.71-1.607,3.15-2.306,4.333a10.167,10.167,0,0,0,.726.855c.451-.969.876-1.943,1.275-2.892l2.156,1.125v-2.364h1.83c.207-.73.378-1.471.534-2.213l2.628.711c-.124.533-.275,1.032-.425,1.5h2.581v2.565l.575-.854a2.229,2.229,0,0,0,.43.358,39.355,39.355,0,0,0,1.928-4.282l2.358,1.157c-.855,1.886-1.653,3.477-2.4,4.81a4.309,4.309,0,0,0,.648.584c.653-1.151,1.228-2.3,1.757-3.42l2.456,1.271q-1.469,2.736-2.835,4.954l1.456-.824a46.207,46.207,0,0,1,1.752,5.777l-2.052,1.033c-.1-.53-.228-1.033-.326-1.5-1.778.409-3.685.736-5.742,1.006v.258h-7.147v-.937l-1.674.825c-.052-.295-.1-.56-.13-.825a46.277,46.277,0,0,1-5.535,1.534l-.5-3.13c.4-.062.8-.113,1.177-.176q.98-1.593,1.8-3.182c-.954-1.125-1.9-2.244-2.882-3.42l1.679-2.42a1.946,1.946,0,0,0,.176.2,32.7,32.7,0,0,0,1.679-3.573Zm3.705,15.686v-1.269h2.933v1.269h9.4v2.748h-6.893a18.048,18.048,0,0,0,2.306,1.3,24.1,24.1,0,0,0,5.291,1.823l-1.581,3.452a24.985,24.985,0,0,1-5.763-3.068,19.32,19.32,0,0,1-2.762-2.389v5.929h-2.933v-5.4a21.016,21.016,0,0,1-2.177,1.772,33,33,0,0,1-6.043,3.038l-1.379-2.768a27.129,27.129,0,0,0,5.167-2.188,15.279,15.279,0,0,0,2.353-1.5h-6.815v-2.748Zm-4.483-6.632c-.326.585-.627,1.151-.928,1.618.451-.084.85-.177,1.254-.259C227.173,2194.361,227.048,2193.884,226.95,2193.475Zm2.628-4.9c-.8,1.532-1.524,2.947-2.228,4.217l1.254-.653c.378,1.3.7,2.659.974,4.1Zm4.592,2.062v-2.3h-2.057v2.3Zm0,4.84v-2.069h-2.057v2.069Zm2.907-.534c.575-.823,1.1-1.618,1.6-2.446-.648-.623-1.3-1.239-1.954-1.86v4.337A1.291,1.291,0,0,0,237.076,2194.947Zm4.26-1.825c-.321.53-.648,1.063-.954,1.534.5-.03.954-.093,1.4-.149C241.637,2194.03,241.487,2193.563,241.336,2193.123Z" transform="translate(-221.736 -2183.032)" fill="#72adb6"/>
        <path id="Path_694" data-name="Path 694" d="M248.87,2193.744v3.212h-3.032v8.878c0,1.685-.249,2.773-.726,3.245a3.254,3.254,0,0,1-2.607.916,11.916,11.916,0,0,1-3.332-.472l-.456-3.333h-7.37v1.27h-2.856v-9.235h11.179v7.965h-.6a10.719,10.719,0,0,0,3.436.561c.2,0,.3-.5.3-1.5v-8.292H226.637v-3.212Zm-12.858-8.525c0-.379.026-1.032.026-1.976h2.731v1.976h9.323v3.219h-6.965c0,.025.026.025.047.025a9.126,9.126,0,0,0,2.881,1.27,22.739,22.739,0,0,0,3.737.56l-1.373,3.212a18.5,18.5,0,0,1-3.737-.854,9.756,9.756,0,0,1-3.135-1.649,9.193,9.193,0,0,1-1.627-1.741,6.726,6.726,0,0,1-1.757,1.709,20.3,20.3,0,0,1-7.069,2.534l-1.176-3a19.35,19.35,0,0,0,6.115-1.829,1.852,1.852,0,0,0,.352-.233h-7.069v-3.219Zm.8,17.968v-1.948h-5.468v1.948Z" transform="translate(-201.237 -2183.125)" fill="#72adb6"/>
        <path id="Path_695" data-name="Path 695" d="M243.383,2183.289a30.31,30.31,0,0,0,10.951,8.52l-1.451,3.57a21.256,21.256,0,0,1-2.835-1.473v1.943h-5.893v3.573h6.566v3.212h-6.566v3.6h9.028v3.217H232.4v-3.217h8.826v-3.6h-6.069v-3.212h6.069v-3.573h-5.867v-1.444c-.8.471-1.555.886-2.26,1.212l-1.679-3.338a29.3,29.3,0,0,0,5.716-3.42,34.85,34.85,0,0,0,2.783-2.245h-3.109v-3.326Zm4.737,9.344a33.294,33.294,0,0,1-5.063-4.453,39.428,39.428,0,0,1-3.814,3.54c-.451.351-.85.653-1.228.913Z" transform="translate(-181.224 -2182.931)" fill="#72adb6"/>
        <path id="Path_696" data-name="Path 696" d="M243.629,2183.265v1.628h3.934v3h-3.934v1.032h4.612v2.981h-1.353l1.451.942c-.2,1.3-.451,2.063-.777,2.3a.932.932,0,0,1-.648.238,4.857,4.857,0,0,1-1.13.088,4.3,4.3,0,0,1-1.679-.239,1.084,1.084,0,0,1-.575-.2v1.146h3.934v2.984H243.53v1c1.353-.094,2.6-.177,3.732-.3l.1.742a12.007,12.007,0,0,0,1.98-3.66c.1-.294.2-.648.3-1-.5-.44-1.005-.859-1.5-1.269l1.752-2.182c.1.088.228.176.327.264.1-.943.176-1.948.228-3.037h-1.83v-3.011H250.5v-3.452h2.633v3.452h3.436v8.878c0,1.886.026,3.217.073,3.954,0,.383.052.558.13.558s.15-.237.2-.762c.078-.683.13-1.885.176-3.626l2.057,1.03c-.176,2.71-.5,4.51-1.005,5.338a1.747,1.747,0,0,1-1.425,1.006,1.937,1.937,0,0,1-1.809-1.095,8.441,8.441,0,0,1-.876-3.865l-.954,1.39c-.4-.478-.8-.918-1.2-1.365-.073.24-.15.478-.2.653a12.575,12.575,0,0,1-3.286,5.1l-1.026-1.243c-3.161.472-6.6.828-10.329,1.125l-.5-3.245c1.477-.057,2.881-.151,4.208-.207v-1.177h-3.633v-2.984h3.633V2194.8h2.482a3.4,3.4,0,0,1-.622-2.3v-.59h-1.031a8.263,8.263,0,0,1-.347.823,6.249,6.249,0,0,1-1.56,1.979,5.575,5.575,0,0,1-2.052,1.238l-1.379-2.54a5.92,5.92,0,0,0,1.529-.7,3.437,3.437,0,0,0,.85-.8h-2.177v-2.981h4.41V2187.9h-3.737v-3H240.9v-1.628Zm-2.933,21.685a14.494,14.494,0,0,1-1.555,4.955l-2.856-1.741a11.4,11.4,0,0,0,1.477-4.037Zm6.069,3.8-3.135.911a22.952,22.952,0,0,0-.974-4.716l2.83-.823A19.27,19.27,0,0,1,246.764,2208.754Zm-1.456-16.725c0,.5.026.767.124.8.026.088.155.119.352.119s.347-.031.4-.119a1.662,1.662,0,0,0,.13-.509,3.972,3.972,0,0,1,.052-.408h-1.057Zm7.344,16.133-2.954,1.5a24.829,24.829,0,0,0-1.555-4.716l2.555-1.39A30.372,30.372,0,0,1,252.651,2208.163Zm1.358-12.567v-5.867H253.1a39.271,39.271,0,0,1-.4,5.012c.451.415.881.855,1.306,1.269Zm4.913,12.215-2.861,1.979a20.9,20.9,0,0,0-2.332-4.633l2.436-1.834A21.391,21.391,0,0,1,258.922,2207.81Z" transform="translate(-160.884 -2183.032)" fill="#72adb6"/>
        <path id="Path_697" data-name="Path 697" d="M259.153,2196.375a25,25,0,0,1-4.136,6.4,32.033,32.033,0,0,0,8.847,3.829l-1.679,3.37a39.378,39.378,0,0,1-9.6-4.9,29.86,29.86,0,0,1-9.971,4.9l-1.482-3.456a27.729,27.729,0,0,0,8.676-3.717,31.651,31.651,0,0,1-4.664-5.395l2.353-2.068a24.859,24.859,0,0,0,4.794,5.425,21.509,21.509,0,0,0,4.037-5.664Zm-5.291-13.155v2.894h9.2v3.244H258a17.017,17.017,0,0,0,2.431,2.327,14.7,14.7,0,0,0,2.633,1.679l-1.653,3.452a15.043,15.043,0,0,1-2.83-2.182,23.492,23.492,0,0,1-3.037-3.333l1.985-1.944H247.57l1.881,1.83a21.315,21.315,0,0,1-2.856,3.3,19.073,19.073,0,0,1-3.41,2.45l-1.555-3.217a14.138,14.138,0,0,0,2.954-2.037,14.9,14.9,0,0,0,2.337-2.327h-5.291v-3.244h9.1v-2.894Z" transform="translate(-140.628 -2183.22)" fill="#72adb6"/>
        <path id="Path_698" data-name="Path 698" d="M248.728,2187.9v-4.633h2.835v4.633h1.855v1.711a13.531,13.531,0,0,0,1.783-2.829,19.824,19.824,0,0,0,1.55-3.515l2.633.949c-.1.295-.176.555-.275.793h6.266v2.985c-.347.586-.653,1.083-.928,1.5h3.26v11.065h.9v3H263.6a4.027,4.027,0,0,0,.5.773,6.253,6.253,0,0,0,1.8,1.5,11.341,11.341,0,0,0,2.705,1.176l-1.379,3.006a14.526,14.526,0,0,1-3.534-2.062,9.035,9.035,0,0,1-2.13-2.473,4.378,4.378,0,0,1-.326-.6,9.786,9.786,0,0,1-6.945,5.13l-1.254-2.886a9.1,9.1,0,0,0,3.664-1.5,6.877,6.877,0,0,0,1.954-2.069h-5.24v-3h1.28v-8.935l-1.28-1.188v.681h-1.855v4.368a18.877,18.877,0,0,0,1.855-.8l.4,2.778q-1.127.7-2.254,1.322v6.607a6.836,6.836,0,0,1-.6,3.452,3.005,3.005,0,0,1-2.633,1.062,4.639,4.639,0,0,1-1.855-.353l-.5-3.452a4.794,4.794,0,0,0,1.959.447.615.615,0,0,0,.627-.389,5.715,5.715,0,0,0,.171-1.559v-4.426c-.6.262-1.2.5-1.778.734l-.98-3.446c.954-.27,1.881-.565,2.757-.886v-5.461h-2.457V2187.9Zm12.485,1.592c.3-.5.6-1.031.881-1.592h-4.187c-.1.208-.2.384-.275.561-.2.383-.378.74-.554,1.031Zm-.7,3.011h-3.182v4.752A25.275,25.275,0,0,0,260.513,2192.5Zm-.8,8.054a13.608,13.608,0,0,0,.176-1.829l2.633.321c-.026.564-.052,1.061-.1,1.508h2.653v-2.892l-1.379,1.979a31.813,31.813,0,0,0-2.757-2.778,19.842,19.842,0,0,1-1.928,2.66l-1.679-1.686v2.716Zm5.364-3.629V2192.5h-3.612l1.358.911c-.2.416-.4.8-.58,1.125A22.253,22.253,0,0,1,265.074,2196.926Z" transform="translate(-120.372 -2183.032)" fill="#72adb6"/>
        <path id="Path_699" data-name="Path 699" d="M261.4,2183.334v7.727l2.234,1.384c-.352.622-.7,1.181-1.052,1.711h5.214c-.679-.561-1.358-1.063-2.006-1.5l.751-.917h-3.384v-8.406h9.1v8.406H269.4c.627.446,1.233.917,1.783,1.383l-.7,1.033h2.959v3.016h-4.41c.3.144.6.29.9.409a20.736,20.736,0,0,0,4.286,1.3l-1.451,3.245c-.156-.062-.3-.094-.4-.151v7.4h-2.731v-.471h-3.638v.471h-2.731v-8.991h5.618a9.242,9.242,0,0,1-1.254-.772,15.079,15.079,0,0,1-2.985-2.441h-4.41a16.879,16.879,0,0,1-1.555,1.5,25.624,25.624,0,0,1-2.529,1.711h5.436v8.991h-2.731v-.471h-3.638v.471h-2.731v-7.224c-.2.088-.347.149-.477.206l-1.275-2.776a24.713,24.713,0,0,0,4.685-2.41H251.4v-3.016h7.318a19.164,19.164,0,0,0,1.757-2.416h-8v-8.406Zm-2.757,5.307v-2.213h-3.436v2.213Zm.2,17.4v-2.774h-3.638v2.774Zm10.681-17.4v-2.213h-3.638v2.213Zm.1,17.4v-2.774h-3.638v2.774Z" transform="translate(-100.497 -2182.744)" fill="#72adb6"/>
      </g>
    </g>
    <rect id="Rectangle_66" data-name="Rectangle 66" width="177.461" height="1.893" transform="translate(12976.269 8447.957)" fill="#72adb6"/>
    <g id="Group_137" data-name="Group 137" transform="translate(12976.352 8466.316)">
      <path id="Path_700" data-name="Path 700" d="M224.244,2195.544c.192.095.285.187.285.279a.253.253,0,0,1-.223.245.343.343,0,0,0-.363.269,5.6,5.6,0,0,1-.228.523h5.312c.15,0,.228.1.228.286v.586c0,.206-.078.3-.228.3h-2.306a21.515,21.515,0,0,1-.228,2.213h3.27c.156,0,.228.109.228.3v.591c0,.206-.073.3-.228.3h-3.208a7.54,7.54,0,0,0,.964.871,8.985,8.985,0,0,0,1.809,1.036c0,.156-.052.249-.13.286-.187.191-.451.414-.757.683a.166.166,0,0,1-.13-.041,4.514,4.514,0,0,1-1.171-.7,9.351,9.351,0,0,1-1.29-1.229,6.68,6.68,0,0,1-.565.979,5.493,5.493,0,0,1-1.436,1.274,8.914,8.914,0,0,1-1.985.979,12.36,12.36,0,0,1-.886-.963,6.064,6.064,0,0,0,1.472-.658,6.189,6.189,0,0,0,1.534-1.212,5.187,5.187,0,0,0,.772-1.306H221.2c-.15,0-.223-.094-.223-.3v-.591c0-.187.073-.3.223-.3h3.934a17.855,17.855,0,0,0,.264-2.213h-2.228a10.252,10.252,0,0,1-.814,1.306c-.114.167-.207.245-.264.245a.592.592,0,0,1-.321-.114c-.264-.114-.492-.208-.72-.321-.114-.037-.15-.058-.15-.079a.274.274,0,0,1,.093-.167,12.941,12.941,0,0,0,1.114-1.683,6.83,6.83,0,0,0,.819-1.872c.052-.17.109-.262.187-.262Zm10.173,9.07c.187,0,.3.072.3.2v7.546c0,.149-.114.228-.3.228h-.741c-.207,0-.3-.079-.3-.228v-.659H225.55v.659c0,.149-.093.228-.28.228h-.741c-.207,0-.3-.079-.3-.228v-7.469c0-.186.093-.279.3-.279Zm-1.042,2.95v-1.778H225.55v1.778Zm0,2.947v-1.761H225.55v1.761Zm3.706-13.945c.187,0,.285.067.285.223v6.711c0,.151-.1.228-.285.228h-.741c-.207,0-.3-.077-.3-.228v-.513h-3.913v.664c0,.149-.114.227-.3.227h-.736c-.192,0-.285-.077-.285-.227v-6.79a.26.26,0,0,1,.285-.295Zm-1.042,5.229v-4.062h-3.913v4.063Z" transform="translate(-220.751 -2195.09)" fill="#72adb6"/>
      <path id="Path_701" data-name="Path 701" d="M228.266,2196.076v-.813c0-.077.057-.129.207-.129.891,0,1.342.072,1.342.2,0,.155-.057.248-.15.248-.114.016-.15.135-.15.363v.128h2.871c.1,0,.15.079.15.228v.581c0,.207-.052.307-.15.307h-2.871v.963h2.664c.093,0,.15.078.15.212v.6c0,.19-.057.279-.15.279h-2.664v1.155c.943-.077,1.871-.17,2.757-.248.042,0,.078-.016.114-.016a.138.138,0,0,1,.15.155,3.04,3.04,0,0,1-.073.888c-.985.093-1.964.17-2.949.243v.414c0,.156-.114.228-.3.228h-.741c-.15,0-.207-.072-.207-.228v-.321c-.829.078-1.643.13-2.436.172-.155.306-.285.457-.378.457-.114,0-.321-.478-.663-1.421.964-.035,2.12-.114,3.477-.223v-1.253H225.6c-.114,0-.15-.089-.15-.279v-.6c0-.135.036-.212.15-.212h2.664v-.963h-2.892c-.093,0-.13-.1-.13-.307v-.581c0-.149.036-.228.13-.228Zm-.43,13.024c.187.073.28.167.28.265s-.073.151-.187.188c-.192,0-.285.072-.321.19a11.707,11.707,0,0,1-1.384,2.266.557.557,0,0,1-.244.172.574.574,0,0,1-.321-.116,5.57,5.57,0,0,0-.72-.314.445.445,0,0,1-.15-.079.214.214,0,0,1,.078-.151,10.883,10.883,0,0,0,.964-1.264,5.139,5.139,0,0,0,.715-1.4c.041-.151.093-.228.171-.228Zm11.054-6.524c.187,0,.3.078.3.228v1.7h1.835c.093,0,.15.079.15.207v.607c0,.187-.057.286-.15.286H239.19v1.7a.272.272,0,0,1-.3.305H227.079c-.114,0-.155-.1-.155-.305v-.586c0-.149.041-.228.155-.228h10.79v-.885H225.451c-.114,0-.15-.1-.15-.286v-.607c0-.128.036-.207.15-.207h12.417v-.809h-10.79c-.114,0-.155-.1-.155-.3v-.586c0-.15.041-.228.155-.228Zm-8.489,5.883c.15.02.228.056.228.109,0,.119-.036.191-.114.206a.238.238,0,0,0-.114.229v1.175c0,.524.321.809.964.809h3.612c.679,0,1.078-.077,1.228-.228a3.948,3.948,0,0,0,.622-1.451,2.052,2.052,0,0,0,.72.644c.15.057.244.13.244.227a4.439,4.439,0,0,1-.772,1.66,1.505,1.505,0,0,1-1.156.342h-4.649c-1.379,0-2.063-.42-2.063-1.25v-2.436c0-.093.021-.156.062-.156Zm2.876-.121a12.633,12.633,0,0,1,1.622,1.328c0,.185-.036.284-.114.305a1.933,1.933,0,0,1-.979.43,16.8,16.8,0,0,0-1.477-1.55c0-.13.264-.321.814-.586C233.2,2208.266,233.236,2208.308,233.277,2208.338Zm3.4-12.262v-.813c0-.077.078-.129.228-.129.865,0,1.322.072,1.322.2,0,.155-.057.248-.15.248-.114.016-.15.135-.15.363v.128h2.964c.078,0,.135.079.135.228v.581c0,.207-.057.307-.135.307h-2.964v.963h2.586c.1,0,.155.078.155.212v.6c0,.19-.057.279-.155.279h-2.586v.969h3.249c.093,0,.15.077.15.223v.586c0,.207-.057.305-.15.305h-3.249v.507c0,.156-.093.228-.285.228H236.9a.2.2,0,0,1-.228-.228v-.507h-2.949c-.114,0-.15-.1-.15-.305v-.586c0-.146.036-.223.15-.223h2.949v-.969h-2.664c-.093,0-.135-.089-.135-.279v-.6c0-.135.042-.212.135-.212h2.664v-.963h-2.949c-.114,0-.15-.1-.15-.307v-.581c0-.149.036-.228.15-.228Zm2.363,12.418a19.839,19.839,0,0,1,2.286,2.436c0,.177-.036.264-.109.286a1.975,1.975,0,0,1-.985.455,25.835,25.835,0,0,0-2.156-2.668c0-.131.264-.316.814-.586A.207.207,0,0,1,239.04,2208.494Z" transform="translate(-204.493 -2194.906)" fill="#72adb6"/>
      <path id="Path_702" data-name="Path 702" d="M235.014,2196.184c0,.114-.057.172-.135.172a.565.565,0,0,0-.451.207,23.322,23.322,0,0,1-1.627,3.343v12.38c0,.13-.093.207-.285.207h-.757c-.187,0-.285-.077-.285-.207v-10.5c-.451.563-1.057,1.248-1.773,2.02a.477.477,0,0,1-.378-.191c-.192-.149-.4-.3-.586-.472a.265.265,0,0,1-.15-.227c.565-.586,1.135-1.208,1.7-1.887a15.49,15.49,0,0,0,1.928-2.9,16.223,16.223,0,0,0,1.094-2.757c.042-.094.078-.151.156-.151A5.834,5.834,0,0,1,235.014,2196.184Zm5.177-.813c0,.17-.073.264-.187.285-.135.021-.192.151-.192.377v.374h5.69c.15,0,.223.12.223.307v.584c0,.186-.073.286-.223.286h-5.69v1.55h4.519c.187,0,.28.072.28.228v9.525c0,.15-.093.229-.28.229h-1.855a11.758,11.758,0,0,0,1.322,1.15,9.912,9.912,0,0,0,1.762.927c.109.078.166.13.166.208,0,.1-.28.415-.808.964a.591.591,0,0,1-.207-.058,14.511,14.511,0,0,1-3.234-2.441c-.078-.077-.114-.13-.114-.167,0-.076.15-.284.472-.583h-3.648l.529.394c.078.114.135.19.135.264,0,.035-.057.077-.135.077a1.769,1.769,0,0,0-.358.114,11.728,11.728,0,0,1-1.208,1.172,15.441,15.441,0,0,1-1.985,1.229.309.309,0,0,1-.306-.156c-.259-.207-.466-.372-.658-.523-.093-.042-.135-.1-.135-.135a.1.1,0,0,1,.078-.093,4.911,4.911,0,0,0,.922-.416,7.9,7.9,0,0,0,1.384-1.025c.264-.244.565-.544.886-.9h-1.793c-.207,0-.3-.079-.3-.229v-9.525c0-.156.093-.228.3-.228h2.944v-3.763c0-.151.1-.228.306-.228C239.72,2195.143,240.192,2195.22,240.192,2195.371Zm3.1,6.8v-1.855h-6.727v1.855Zm0,2.871v-1.7h-6.727v1.7Zm0,1.176h-6.727v1.7h6.727Z" transform="translate(-188.6 -2194.864)" fill="#72adb6"/>
      <path id="Path_703" data-name="Path 703" d="M234.709,2200.74c.456.377.834.7,1.156.985,0,.035-.042.072-.093.149-.384.545-.57.809-.57.809a14.51,14.51,0,0,0-1.607-1.264,11.431,11.431,0,0,0-1.135-.664,4.154,4.154,0,0,1,.586-.83.243.243,0,0,1,.15-.109C233.8,2200.156,234.31,2200.46,234.709,2200.74Zm1.208,4.1a9.924,9.924,0,0,1,.456,1.1.548.548,0,0,1-.073.243c-.492,1.363-.964,2.5-1.379,3.443-.249.528-.549,1.092-.891,1.735a1.866,1.866,0,0,0-.078.627c0,.151-.057.223-.15.223-.114,0-.508-.393-1.208-1.187a.273.273,0,0,1-.135-.207.316.316,0,0,1,.078-.244,10.591,10.591,0,0,0,.943-1.271c.415-.7.85-1.492,1.265-2.378.363-.761.663-1.461.928-2.1.036-.088.078-.151.114-.151C235.844,2204.668,235.88,2204.731,235.917,2204.84Zm-.6-8.6q.653.511,1.135.907a.42.42,0,0,1-.1.149,6.878,6.878,0,0,1-.565.814,15.1,15.1,0,0,0-1.55-1.172,7.111,7.111,0,0,0-1.1-.6,3.915,3.915,0,0,1,.57-.835c.057-.077.114-.134.171-.134C234.445,2195.7,234.937,2195.977,235.316,2196.242Zm4.234,13.059c.093.094.15.172.15.245,0,.057-.036.1-.114.1a.469.469,0,0,0-.264.114,10.235,10.235,0,0,1-.928,1.209,9.285,9.285,0,0,1-1.492,1.243c-.15,0-.264-.051-.3-.146-.264-.212-.492-.377-.684-.533-.093-.03-.13-.093-.13-.129a.113.113,0,0,1,.057-.1,3.3,3.3,0,0,0,.72-.435,6.131,6.131,0,0,0,1.036-1.036c.244-.321.529-.715.834-1.209.016-.056.052-.1.093-.1Zm3.172-13.34c.192,0,.306.072.306.223V2208c0,.15-.114.223-.306.223h-5.006c-.207,0-.3-.072-.3-.223v-11.816c0-.151.093-.223.3-.223Zm-1.016,3.628v-2.44h-2.97v2.44Zm0,3.685v-2.519h-2.97v2.519Zm0,1.187h-2.97v2.571h2.97Zm1.208,5.635a7.44,7.44,0,0,0,1.264,1,.421.421,0,0,1,.1.228c0,.1-.285.415-.814.964a.225.225,0,0,1-.135-.057,11.646,11.646,0,0,1-2.286-2.648.372.372,0,0,1-.073-.187c0-.094.259-.379.809-.87A8.656,8.656,0,0,0,242.913,2210.1Zm3.648-12.946c0,.17-.057.264-.171.285-.13.021-.192.15-.192.377v10.563c0,.151-.109.207-.3.207h-.736c-.192,0-.285-.056-.285-.207v-11.225c0-.151.093-.228.285-.228C246.09,2196.921,246.562,2197,246.562,2197.149Zm3.12-1.8c.13.078.207.135.207.172,0,.113-.078.176-.207.176-.269.109-.383.393-.383.865v14.38c0,.893-.658,1.343-1.98,1.343h-.964c-.114,0-.171-.114-.171-.321a2.843,2.843,0,0,0-.358-.871c0-.109.036-.151.15-.151a5.381,5.381,0,0,0,1.187.151c.529,0,.814-.228.814-.664v-13.945a4.439,4.439,0,0,0-.073-.83.874.874,0,0,1-.078-.362c0-.095.114-.151.363-.151Z" transform="translate(-172.405 -2194.864)" fill="#72adb6"/>
      <path id="Path_704" data-name="Path 704" d="M242.29,2197.833c.13,0,.207.092.207.285v.586c0,.206-.078.3-.207.3H236.6c-.15,0-.223-.095-.223-.3v-.586c0-.193.073-.285.223-.285Zm-.757,8.11c.192,0,.306.072.306.223v4.954c0,.135-.114.208-.306.208H240.8c-.15,0-.207-.073-.207-.208v-.528h-2.513v.528c0,.135-.114.208-.306.208h-.736c-.15,0-.228-.073-.228-.208v-4.954a.2.2,0,0,1,.228-.223Zm.15-10.7c.155,0,.228.093.228.285v.6c0,.192-.073.279-.228.279h-4.5c-.15,0-.223-.086-.223-.279v-.6c0-.191.073-.285.223-.285Zm0,5.235c.155,0,.228.114.228.3v.585c0,.208-.073.307-.228.307h-4.5c-.15,0-.223-.1-.223-.307v-.585c0-.186.073-.3.223-.3Zm0,2.74c.155,0,.228.089.228.286v.6c0,.191-.073.279-.228.279h-4.5c-.15,0-.223-.088-.223-.279v-.6c0-.2.073-.286.223-.286Zm-1.094,6.2v-2.44h-2.513v2.44Zm12.018-14.174c.249,0,.378.093.378.285v14.21a1.528,1.528,0,0,1-.907,1.379,7.643,7.643,0,0,1-2.192.513.226.226,0,0,1-.249-.212,2.974,2.974,0,0,0-.415-1.113c0-.079.057-.109.192-.109a4.5,4.5,0,0,0,1.949-.229.776.776,0,0,0,.373-.7v-12.986h-7.028v5.39a42.558,42.558,0,0,1-.244,4.928,17.7,17.7,0,0,1-.606,3.064,8.456,8.456,0,0,1-.7,1.741.447.447,0,0,1-.187-.042,3.642,3.642,0,0,0-.679-.472.292.292,0,0,1-.078-.228,10.009,10.009,0,0,0,.684-2.115,28.435,28.435,0,0,0,.435-2.949c.073-1.079.13-2.379.13-3.928v-6.2a.2.2,0,0,1,.228-.229Zm-5.006,3.322v-1.337c0-.135.093-.208.285-.208.943,0,1.415.072,1.415.208,0,.171-.078.258-.192.28-.13.02-.187.155-.187.383v.674h2.006c.073,0,.13.078.13.207v.611c0,.15-.057.207-.13.207h-2.006v1.772h2.213c.093,0,.15.077.15.228v.586c0,.151-.057.229-.15.229h-5.82c-.114,0-.155-.078-.155-.229v-.586c0-.151.041-.228.155-.228H247.6v-1.772H245.6c-.114,0-.15-.057-.15-.207v-.611c0-.129.036-.207.15-.207Zm2.871,5.239c.187,0,.3.074.3.223v4.728c0,.155-.114.207-.3.207h-.586c-.207,0-.3-.052-.3-.207v-.607h-2.726v.607c0,.155-.114.207-.3.207h-.586c-.207,0-.3-.052-.3-.207v-4.728c0-.149.093-.223.3-.223Zm-.886,3.328v-2.291h-2.726v2.291Z" transform="translate(-156.022 -2194.433)" fill="#72adb6"/>
      <path id="Path_705" data-name="Path 705" d="M244.6,2195.719c.114.093.171.167.171.228,0,.151-.109.207-.3.207a.36.36,0,0,0-.321.167c-.15.3-.3.564-.435.792h4.9c.093,0,.15.079.15.228v.586c0,.212-.057.306-.15.306H245.9c.435.414.85.83,1.228,1.244,0,.176-.036.264-.114.264a1.849,1.849,0,0,1-.928.4,22.976,22.976,0,0,0-1.622-1.907H242.99l-.337.451c-.285.337-.57.622-.834.892a5.582,5.582,0,0,1-.679.565.285.285,0,0,1-.264-.171,2.886,2.886,0,0,0-.513-.6c-.13-.077-.187-.135-.187-.191,0-.017.021-.037.057-.058a6.883,6.883,0,0,0,.943-.7,8.434,8.434,0,0,0,1.042-1.209,5.9,5.9,0,0,0,.565-.907c.15-.32.306-.683.456-1.062.036-.073.073-.108.114-.108Zm3.783,5.156c.187,0,.3.079.3.228v5.312a.268.268,0,0,1-.3.3h-5.39v3.629c.264-.079.549-.15.819-.229,1.073-.3,2.094-.622,3.037-.958-.228-.4-.487-.8-.757-1.194,0-.076.321-.269.964-.583a23.3,23.3,0,0,1,1.363,2.3,16.069,16.069,0,0,1,.85,2.042,5.828,5.828,0,0,1-1.192.377,7.375,7.375,0,0,0-.622-1.741.726.726,0,0,1-.078-.17c-1.866.642-3.757,1.227-5.649,1.761-.187.338-.321.524-.435.524s-.358-.524-.736-1.55c.342-.072.72-.149,1.114-.248V2201.1c0-.149.093-.228.285-.228Zm-1.042,2.364V2202H242.99v1.244Zm0,2.364v-1.25H242.99v1.25Zm5.369-9.884c.114.093.171.167.171.228,0,.151-.1.207-.285.207a.308.308,0,0,0-.3.186c-.114.25-.228.458-.3.623h5.177c.093,0,.15.077.15.228v.584c0,.208-.057.306-.15.306h-2.69c.435.435.834.865,1.213,1.323,0,.185-.057.279-.13.3a1.863,1.863,0,0,1-.985.437,17.3,17.3,0,0,0-1.643-2.058H251.35c-.176.265-.342.509-.513.731a7.965,7.965,0,0,1-.793.948,4.689,4.689,0,0,1-.627.6.323.323,0,0,1-.28-.165,3.667,3.667,0,0,0-.513-.623c-.114-.062-.171-.119-.171-.17,0-.022,0-.037.042-.079a5.318,5.318,0,0,0,.907-.72,8.122,8.122,0,0,0,.979-1.286,8.372,8.372,0,0,0,.549-.957c.15-.343.285-.7.435-1.121.036-.073.078-.108.114-.108Zm-1.078,16.386c0,.146-.114.223-.3.223h-.741c-.187,0-.28-.078-.28-.223v-11.079c0-.151.093-.229.28-.229h5.255c.192,0,.285.078.285.229v7.9a2.037,2.037,0,0,1-.264,1.265c-.036.3-.777.586-2.171.87-.249,0-.363-.1-.363-.265-.057-.227-.15-.563-.3-1.058,1.151-.056,1.736-.326,1.772-.812v-7.013h-3.172Z" transform="translate(-140.132 -2194.906)" fill="#72adb6"/>
      <path id="Path_706" data-name="Path 706" d="M251.889,2207.276V2205.8c0-.155.093-.228.3-.228.928,0,1.4.073,1.4.228s-.073.26-.187.281-.171.155-.171.379v.814h5.307c.155,0,.228.109.228.3v.586c0,.212-.073.3-.228.3h-5.307v2.062h7.447c.15,0,.228.093.228.3v.59c0,.188-.078.282-.228.282H244.291c-.15,0-.228-.094-.228-.282v-.59c0-.207.078-.3.228-.3h7.6v-2.062h-5.462c-.15,0-.228-.089-.228-.3v-.586c0-.19.078-.3.228-.3Zm1.7-11.89c0,.172-.073.264-.187.286s-.171.149-.171.378v.73h7.012c.187,0,.285.079.285.228v3.686c0,.156-.1.228-.285.228H259.5c-.207,0-.3-.072-.3-.228v-2.716h-13.36v2.716c0,.156-.114.228-.3.228H244.8c-.192,0-.285-.072-.285-.228v-3.607a.268.268,0,0,1,.285-.307h7.085v-1.394c0-.155.093-.228.3-.228C253.117,2195.158,253.589,2195.231,253.589,2195.386Zm4.369,4.421c.13,0,.207.113.207.305v.581c0,.207-.078.305-.207.305h-6.333c-.985,1.358-1.721,2.343-2.192,2.949,2.192-.149,4.478-.341,6.877-.564a10.6,10.6,0,0,0-1.249-.912,3.89,3.89,0,0,1,.591-.83c.057-.077.109-.134.15-.134a23.5,23.5,0,0,1,2.192,1.813c.679.7,1.249,1.327,1.72,1.892a.652.652,0,0,1-.093.155,8.63,8.63,0,0,1-.57.793c-.529-.605-1.057-1.191-1.586-1.72q-5.527.561-10.381.85c-.109,0-.207.1-.259.285-.041.359-.155.524-.321.524s-.477-.643-.891-1.923c.342,0,.985-.02,1.928-.093.114,0,.207-.021.321-.021.114-.155.228-.285.321-.415.741-.948,1.4-1.835,1.964-2.648h-3.063c-.145,0-.207-.1-.207-.305v-.581c0-.192.062-.305.207-.305Z" transform="translate(-123.875 -2194.802)" fill="#72adb6"/>
      <path id="Path_707" data-name="Path 707" d="M255,2198.6a15.943,15.943,0,0,1-.192-2.213h-2.892c-.15,0-.228-.088-.228-.295v-.591c0-.191.078-.3.228-.3h3.763c.187,0,.3.073.3.228a17.955,17.955,0,0,0,.249,3.171h6.027c.228,0,.358.1.358.286v11.546a1.287,1.287,0,0,1-.814,1.114,7.607,7.607,0,0,1-1.985.415.218.218,0,0,1-.244-.223,3.24,3.24,0,0,0-.415-1.171c0-.077.057-.1.171-.1a4.508,4.508,0,0,0,1.664-.165.605.605,0,0,0,.3-.555v-3.38l-.078.042c-.223.208-.451.416-.663.639a.576.576,0,0,1-.373.114,5.123,5.123,0,0,1-1.684-1.23,8.5,8.5,0,0,1-1.964-2.569,9.634,9.634,0,0,1-.907-2.059,8.4,8.4,0,0,1-.477.851,18.83,18.83,0,0,1-1.394,2.208,18.433,18.433,0,0,1-1.835,1.929,6.4,6.4,0,0,1-1.4,1.025c-.114,0-.187-.079-.264-.269-.207-.223-.435-.493-.679-.756-.036-.033-.078-.053-.093-.095v5.691c0,.149-.114.228-.306.228h-.736c-.192,0-.285-.079-.285-.228v-13a.253.253,0,0,1,.285-.286Zm-3.312,5.9a14.085,14.085,0,0,0,1.892-2.192,27.53,27.53,0,0,0,1.322-2.53h-5.421v6.235A13.287,13.287,0,0,0,251.685,2204.5Zm5.825-1.908a7.323,7.323,0,0,0,1.829,2.229,7.751,7.751,0,0,0,1.835,1.191.28.28,0,0,0,.114.072v-6.308h-4.82A9.287,9.287,0,0,0,257.51,2202.593Z" transform="translate(-106.781 -2194.618)" fill="#72adb6"/>
      <path id="Path_708" data-name="Path 708" d="M266.234,2205.153c.15,0,.223.1.223.286v.6c0,.192-.072.285-.223.285h-5.39v4.142h7.24c.15,0,.228.093.228.3v.59c0,.188-.078.282-.228.282H252.059c-.155,0-.207-.094-.207-.282v-.59c0-.207.052-.3.207-.3h7.463v-4.142H254.21c-.15,0-.223-.093-.223-.285v-.6c0-.187.073-.286.223-.286Zm-5.162-9.752c0,.176-.073.264-.187.285-.135.02-.192.154-.192.377v.965h6.8c.186,0,.285.077.285.227v3.022c0,.151-.1.229-.285.229h-.736c-.207,0-.306-.078-.306-.229V2198.2h-4.063v3.472c0,.549.342.814,1.042.814h2.135a1.676,1.676,0,0,0,1-.208c.228-.094.363-.414.435-.984a.179.179,0,0,1,.192-.13,2.294,2.294,0,0,0,1.15.358c.156.021.249.1.249.227a3.107,3.107,0,0,1-.969,1.681,2.1,2.1,0,0,1-1.321.305h-3.535c-1.135,0-1.7-.414-1.7-1.249V2198.2h-3.027l.891.394a.333.333,0,0,1,.207.28c0,.078-.073.1-.228.1a.307.307,0,0,0-.28.186,13.707,13.707,0,0,1-1.078,1.856,8.394,8.394,0,0,1-1.664,1.813,12.674,12.674,0,0,1-1.907,1.223,10.48,10.48,0,0,1-1.119.492c-.187,0-.3-.035-.321-.128a6.374,6.374,0,0,0-.622-.965,11.227,11.227,0,0,0,1.7-.735,11.733,11.733,0,0,0,1.8-1.286,7.031,7.031,0,0,0,1.435-1.627,9.526,9.526,0,0,0,.814-1.6h-4.348v2.357c0,.151-.114.229-.3.229h-.741c-.187,0-.285-.079-.285-.229v-3.228a.268.268,0,0,1,.285-.306h7.09V2195.4c0-.151.093-.228.3-.228C260.6,2195.172,261.072,2195.25,261.072,2195.4Z" transform="translate(-91.297 -2194.742)" fill="#72adb6"/>
      <path id="Path_709" data-name="Path 709" d="M224.671,2200.7c.114.113.192.19.192.269a.206.206,0,0,1-.135.208.236.236,0,0,0-.249.167c-.036.114-.073.212-.093.284h12.153c.078,0,.135.072.135.228v.586c0,.186-.057.284-.135.284H223.971c-.073.188-.15.337-.207.457-.249.467-.492.9-.757,1.3a7.046,7.046,0,0,1-.871.985,1.173,1.173,0,0,1-.415-.062c-.244-.089-.492-.186-.715-.28-.1-.036-.135-.057-.135-.093a.152.152,0,0,1,.057-.128,6.89,6.89,0,0,0,1.265-1.649,8.73,8.73,0,0,0,.57-1.191,15.284,15.284,0,0,0,.508-1.716c.036-.077.078-.118.114-.118Zm.435,9.587c.187.394.378.808.529,1.227h1.228v-3.538c0-.089.073-.151.228-.151.865,0,1.322.077,1.322.228s-.057.227-.15.249c-.114.015-.15.128-.15.337v2.875h.829a11.558,11.558,0,0,0,1.135-1.348,6.631,6.631,0,0,0,.871-1.585c.057-.151.109-.244.187-.244l1.021.414c.15.072.249.172.249.265s-.078.17-.228.207c-.207,0-.342.077-.378.228a16.308,16.308,0,0,1-1.192,2.062h2.456c.093,0,.15.079.15.223v.586c0,.207-.057.306-.15.306h-4.685a11.258,11.258,0,0,0,1.322,1.188,8.583,8.583,0,0,0,1.964,1.211,8.37,8.37,0,0,0,1.912.695.2.2,0,0,1-.155.193,5.082,5.082,0,0,0-.643.7c-.073.1-.13.149-.15.149a12.6,12.6,0,0,1-2.4-1.208,9.229,9.229,0,0,1-1.814-1.457,1.885,1.885,0,0,1-.3-.306v3.633c0,.151-.093.223-.285.223h-.736c-.155,0-.228-.072-.228-.223v-3.743a10.8,10.8,0,0,1-.829.83,15.269,15.269,0,0,1-1.669,1.343,18.743,18.743,0,0,1-2.078,1.12.441.441,0,0,1-.337-.12c-.249-.242-.492-.451-.72-.642a.576.576,0,0,1-.057-.187,15.583,15.583,0,0,0,1.627-.72,10.844,10.844,0,0,0,1.928-1.286,16.779,16.779,0,0,0,1.436-1.395h-4.327c-.114,0-.15-.1-.15-.306v-.586c0-.144.036-.223.15-.223h2.529c-.073-.19-.166-.4-.259-.605a10.67,10.67,0,0,0-1.005-1.758c0-.076.3-.269.943-.583A13.572,13.572,0,0,1,225.106,2210.291Zm10.826-4.089a.863.863,0,0,1,.306.156,2.252,2.252,0,0,1,.3.662,8.976,8.976,0,0,0-.814,2.452,9.75,9.75,0,0,0-.228,2.046,8.406,8.406,0,0,0,.477,3.192c.28.643.549.944.772.944.15,0,.249-.079.306-.265a6.927,6.927,0,0,0,.337-1.606.185.185,0,0,1,.342,0,3.258,3.258,0,0,0,.606.492.278.278,0,0,1,.114.265,8.337,8.337,0,0,1-1.042,2.571.815.815,0,0,1-.663.393,1.62,1.62,0,0,1-1.187-.772,5.078,5.078,0,0,1-.964-2.171,13.253,13.253,0,0,1-.342-3.043,14.053,14.053,0,0,1,.777-4.125H222.65c-.156,0-.207-.093-.207-.3v-.586c0-.185.052-.3.207-.3Zm-.808-2.208c.093,0,.15.072.15.229v.584c0,.186-.057.286-.15.286H224.35c-.114,0-.15-.1-.15-.286v-.584c0-.156.036-.229.15-.229Z" transform="translate(-220.872 -2173.583)" fill="#72adb6"/>
      <path id="Path_710" data-name="Path 710" d="M228.016,2205.1a3.936,3.936,0,0,1-1.208,1.323l-.492-.551a2.938,2.938,0,0,0,1.265-2.156h-1.4v-2.264h2.27v2.079A3.267,3.267,0,0,1,228.016,2205.1Z" transform="translate(-198.667 -2168.473)" fill="#72adb6"/>
      <path id="Path_711" data-name="Path 711" d="M244.661,2203.885c.15,0,.228.114.228.3v.59c0,.187-.078.28-.228.28h-4.721v10.411h5.307c.15,0,.228.121.228.307v.586c0,.186-.078.3-.228.3H228.859c-.15,0-.228-.114-.228-.3v-.586c0-.186.078-.307.228-.307h5.39v-10.411h-4.654c-.15,0-.223-.093-.223-.28v-.59c0-.186.073-.3.223-.3Zm-12.246,6.612a25.577,25.577,0,0,1,.871,2.913,4.7,4.7,0,0,1-1.327.435,18.731,18.731,0,0,0-.643-2.534,28.352,28.352,0,0,0-1.415-3.44c0-.089.358-.316,1.094-.658Q231.849,2209,232.414,2210.5Zm1.736-8.556a7.773,7.773,0,0,1,.912,1.493,3.875,3.875,0,0,1-1.249.372,5.588,5.588,0,0,0-.684-1.208,10.227,10.227,0,0,0-1.472-1.664c0-.092.342-.321,1.042-.678A20.24,20.24,0,0,1,234.15,2201.941Zm4.462,13.526v-10.411H235.57v10.411Zm3.555-14.739c.187.079.28.172.28.286,0,.078-.073.128-.207.166a.318.318,0,0,0-.342.208,9.972,9.972,0,0,1-1.415,2.253.5.5,0,0,1-.264.165.613.613,0,0,1-.342-.128c-.259-.135-.529-.244-.757-.363-.109-.031-.145-.072-.145-.087a.2.2,0,0,1,.073-.141,7.656,7.656,0,0,0,1.057-1.244,5.249,5.249,0,0,0,.757-1.378c.036-.135.093-.207.171-.207Zm2.286,6.936c.187.076.285.17.285.284a.392.392,0,0,1-.249.377c-.207,0-.337.151-.378.416a27.636,27.636,0,0,1-1.664,4.668c-.13.244-.228.358-.3.358a.624.624,0,0,1-.342-.128c-.264-.116-.529-.245-.757-.363-.114-.037-.15-.058-.15-.089a.485.485,0,0,1,.1-.269,20.456,20.456,0,0,0,1.223-2.5,13.759,13.759,0,0,0,.891-2.794c.057-.265.135-.414.228-.414Z" transform="translate(-188.42 -2173.474)" fill="#72adb6"/>
      <path id="Path_712" data-name="Path 712" d="M234.764,2204.232V2201.8a4.485,4.485,0,0,0-.073-.834.992.992,0,0,1-.078-.358c0-.093.114-.15.358-.15l1.5.207c.129.079.207.13.207.17,0,.115-.078.167-.207.167-.264.1-.378.383-.378.871v2.363h1.85c.13,0,.207.1.207.286v.584c0,.208-.078.306-.207.306h-1.85v3.872a22.043,22.043,0,0,0,1.907-1.155.1.1,0,0,1,.093-.051.126.126,0,0,1,.135.128,3.818,3.818,0,0,1-.078,1.041c-.715.493-1.4.944-2.057,1.365v5.57c0,.89-.663,1.343-1.985,1.343h-.684c-.109,0-.15-.116-.15-.321a2.782,2.782,0,0,0-.358-.871c0-.11.036-.151.15-.151a3.083,3.083,0,0,0,.891.151c.529,0,.808-.229.808-.665v-4.27c-.414.228-.808.456-1.187.663-.192.342-.321.513-.435.513s-.358-.513-.736-1.55a17.067,17.067,0,0,0,2.358-1.041v-4.572h-1.85c-.15,0-.228-.1-.228-.306v-.584c0-.187.078-.286.228-.286Zm8.867-3.7a.2.2,0,0,1-.171.207.476.476,0,0,0-.207.45v7.467c0,.753-.057,1.593-.135,2.515a10.643,10.643,0,0,1-.606,2.643,8.542,8.542,0,0,1-1.109,2.1,9.376,9.376,0,0,1-1.627,1.679c-.078,0-.135-.052-.187-.165a4.041,4.041,0,0,0-.606-.53c-.114-.077-.155-.134-.155-.191a8.556,8.556,0,0,0,1.591-1.685,6.664,6.664,0,0,0,.829-1.6c.078-.229.171-.514.249-.814-.871.4-1.721.758-2.591,1.079-.192.335-.342.507-.451.507s-.363-.507-.741-1.55a15.225,15.225,0,0,0,2.1-.621q1.018-.342,1.928-.737a.965.965,0,0,1,.036-.186c.078-.721.135-1.462.156-2.213H239.19c-.156,0-.228-.1-.228-.305v-.586c0-.187.073-.307.228-.307h2.742v-2.657h-2.97c-.15,0-.207-.1-.207-.286v-.584c0-.186.057-.307.207-.307h2.97v-3.4c0-.135.016-.208.073-.208A9.1,9.1,0,0,1,243.631,2200.532Zm3.229-.079c0,.171-.052.263-.166.286-.135.014-.192.151-.192.377v2.736h3.1c.15,0,.228.121.228.307v.584c0,.187-.078.286-.228.286h-3.1v2.657h2.871c.15,0,.228.121.228.307v.586c0,.207-.078.305-.228.305H246.5v2.943h3.327c.13,0,.207.1.207.285v.607c0,.186-.078.285-.207.285H246.5v4.213c0,.151-.114.223-.3.223h-.741c-.187,0-.28-.072-.28-.223v-16.765c0-.135.093-.208.28-.208C246.389,2200.246,246.86,2200.318,246.86,2200.453Z" transform="translate(-172.631 -2173.519)" fill="#72adb6"/>
      <path id="Path_713" data-name="Path 713" d="M238.849,2201.957c0,.17-.078.265-.192.279-.13.022-.186.156-.186.384v4.291h4.877v-6.425c0-.156.093-.228.3-.228.928,0,1.4.072,1.4.228s-.078.258-.187.279c-.135.02-.192.151-.192.377v5.769h4.592v-4.881c0-.13.093-.207.285-.207.943,0,1.415.077,1.415.207,0,.176-.073.269-.187.285-.135.021-.186.151-.186.379v6.276c0,.149-.114.227-.306.227h-.736c-.192,0-.285-.077-.285-.227v-.871h-4.592v6.86h5.177v-4.5c0-.149.1-.228.306-.228.923,0,1.4.079,1.4.228,0,.167-.078.265-.192.265-.13.041-.192.17-.192.4v5.976c0,.144-.093.223-.28.223h-.736c-.207,0-.306-.079-.306-.223v-.969H237.885v.969c0,.144-.114.223-.306.223h-.736c-.187,0-.28-.079-.28-.223v-6.639c0-.149.093-.228.28-.228.943,0,1.42.079,1.42.228,0,.167-.078.265-.192.265-.13.041-.187.17-.187.4v3.834h5.462v-6.86H238.47v.871c0,.149-.093.227-.285.227h-.736c-.207,0-.3-.077-.3-.227v-7.013c0-.134.093-.207.3-.207C238.377,2201.75,238.849,2201.823,238.849,2201.957Z" transform="translate(-155.244 -2173.474)" fill="#72adb6"/>
      <path id="Path_714" data-name="Path 714" d="M243.353,2205.594a36.149,36.149,0,0,1-.342,5.6,15.142,15.142,0,0,1-.886,3.419,8.953,8.953,0,0,1-.985,1.985.364.364,0,0,1-.187-.041,4.895,4.895,0,0,0-.684-.513.323.323,0,0,1-.093-.26,8.959,8.959,0,0,0,1.021-2.379,22.358,22.358,0,0,0,.622-3.347,41.165,41.165,0,0,0,.207-4.462v-5.006c0-.15.1-.229.306-.229H255.77c.187,0,.28.079.28.229v3.607c0,.207-.093.305-.28.305H243.353Zm12.925.377c.093,0,.156.079.156.208v.607c0,.186-.062.285-.156.285H249c-.643,1.149-1.151,2-1.493,2.564q2.946-.216,6.183-.563c-.306-.452-.606-.888-.891-1.265,0-.114.264-.321.814-.591a.324.324,0,0,1,.228.079,32.009,32.009,0,0,1,2.514,3.556c0,.191-.057.279-.13.279a2.123,2.123,0,0,1-1.062.456c-.285-.523-.57-1.021-.829-1.472-1.249.151-2.441.284-3.592.393v1.951h4.649c.093,0,.15.076.15.227v.581c0,.211-.057.306-.15.306h-4.649v1.929h6.2c.093,0,.15.056.15.207v.605c0,.187-.057.285-.15.285H243.218c-.114,0-.15-.1-.15-.285v-.605c0-.151.036-.207.15-.207h6.2v-1.929h-4.592c-.093,0-.129-.094-.129-.306v-.581c0-.151.036-.227.129-.227h4.592v-1.82c-1.358.156-2.664.269-3.908.346-.135,0-.228.094-.285.265-.036.316-.135.472-.321.472-.15,0-.435-.606-.814-1.834.3,0,.871-.042,1.721-.109a.859.859,0,0,0,.228-.021c.052-.079.114-.177.166-.265.529-.872,1.005-1.685,1.42-2.42h-3.234c-.114,0-.15-.1-.15-.285v-.607c0-.13.036-.208.15-.208Zm-12.925-2.591h11.376v-1.927H243.353Z" transform="translate(-140.132 -2173.049)" fill="#72adb6"/>
      <path id="Path_715" data-name="Path 715" d="M251.134,2203.714a15.12,15.12,0,0,1-.187-2.208h-2.892c-.155,0-.228-.093-.228-.3v-.586c0-.193.073-.306.228-.306h3.757c.192,0,.306.078.306.227a17.923,17.923,0,0,0,.244,3.172h6.032c.223,0,.358.1.358.285v11.551a1.287,1.287,0,0,1-.814,1.111,7.647,7.647,0,0,1-1.985.419.221.221,0,0,1-.244-.223,3.508,3.508,0,0,0-.415-1.176c0-.079.052-.1.166-.1a4.395,4.395,0,0,0,1.664-.165.586.586,0,0,0,.306-.549v-3.384l-.078.041c-.228.208-.451.416-.663.638a.58.58,0,0,1-.378.118,5.187,5.187,0,0,1-1.679-1.232,8.523,8.523,0,0,1-1.969-2.572,9.606,9.606,0,0,1-.907-2.057,8.4,8.4,0,0,1-.472.851,19.8,19.8,0,0,1-1.394,2.213,19.54,19.54,0,0,1-1.835,1.929,6.389,6.389,0,0,1-1.4,1.02c-.109,0-.187-.078-.259-.269-.207-.223-.435-.487-.684-.751a.415.415,0,0,1-.093-.1V2217c0,.15-.114.229-.3.229h-.736c-.192,0-.285-.079-.285-.229v-13a.253.253,0,0,1,.285-.285Zm-3.307,5.9a14.077,14.077,0,0,0,1.886-2.19,26.864,26.864,0,0,0,1.327-2.53h-5.426v6.234A13.024,13.024,0,0,0,247.828,2209.611Zm5.82-1.906a7.4,7.4,0,0,0,1.835,2.234,7.57,7.57,0,0,0,1.835,1.185.3.3,0,0,0,.114.079v-6.312h-4.82A9.426,9.426,0,0,0,253.648,2207.705Z" transform="translate(-122.913 -2173.232)" fill="#72adb6"/>
      <path id="Path_716" data-name="Path 716" d="M250.452,2205.463c.57.356,1.062.674,1.456.958a.523.523,0,0,1-.073.17,9.445,9.445,0,0,1-.586.793,23.265,23.265,0,0,0-1.985-1.264,11.3,11.3,0,0,0-1.4-.643,3.456,3.456,0,0,1,.565-.835c.057-.072.114-.13.171-.13A19.053,19.053,0,0,1,250.452,2205.463Zm2.1,3.264c.306.679.471,1.063.471,1.094a.426.426,0,0,1-.114.307q-1.019,2.385-1.923,4.021c-.342.626-.757,1.307-1.233,2.046a1.593,1.593,0,0,0-.13.721c0,.144-.057.223-.13.223-.114,0-.513-.4-1.213-1.191a.278.278,0,0,1-.135-.208.4.4,0,0,1,.1-.307,8.9,8.9,0,0,0,1.208-1.471,29.268,29.268,0,0,0,1.643-2.78c.456-.87.855-1.7,1.192-2.456.042-.093.093-.15.15-.15S252.535,2208.635,252.551,2208.727Zm-.622-7.483c.529.358,1,.679,1.4.98,0,.025-.036.076-.1.153a9.466,9.466,0,0,1-.58.809,19.241,19.241,0,0,0-1.892-1.264,11.86,11.86,0,0,0-1.342-.658,3.853,3.853,0,0,1,.565-.835c.057-.077.114-.128.171-.128A18.347,18.347,0,0,1,251.929,2201.244Zm12.246-.13c.15,0,.228.109.228.295V2202c0,.207-.078.3-.228.3h-3.913v5.235h4.8c.13,0,.207.114.207.307v.583c0,.208-.078.3-.207.3h-4.8v7.013c0,.927-.772,1.4-2.285,1.4H256.5c-.093,0-.13-.135-.13-.363a3.028,3.028,0,0,0-.321-.958v-.078a15.309,15.309,0,0,0,1.85.129c.684,0,1.042-.229,1.042-.658v-6.483h-5.1c-.15,0-.223-.093-.223-.3v-.583c0-.193.073-.307.223-.307h5.1V2202.3H254.8c-.15,0-.223-.093-.223-.3v-.591c0-.186.073-.295.223-.295Z" transform="translate(-107.969 -2173.291)" fill="#72adb6"/>
      <path id="Path_717" data-name="Path 717" d="M254.135,2205.853c.487.317.928.6,1.306.831a.444.444,0,0,1-.1.17l-.565.787c-.57-.373-1.151-.73-1.778-1.071a9.381,9.381,0,0,0-1.265-.55,3.577,3.577,0,0,1,.586-.829c.057-.078.114-.135.166-.135Q253.481,2205.514,254.135,2205.853Zm.829,3.945c.306.684.477,1.058.477,1.1a.66.66,0,0,1-.078.265c-.415,1.383-.814,2.55-1.171,3.519-.212.544-.456,1.13-.757,1.777a2.014,2.014,0,0,0-.078.643c0,.144-.052.223-.13.223-.114,0-.513-.4-1.208-1.191a.264.264,0,0,1-.135-.207.432.432,0,0,1,.073-.265,8.477,8.477,0,0,0,.834-1.286q.567-1.08,1.135-2.439c.3-.772.586-1.494.829-2.157.021-.072.057-.128.093-.128S254.927,2209.7,254.964,2209.8Zm-.093-8.6c.415.377.777.7,1.078.984a.5.5,0,0,1-.093.151c-.378.544-.57.813-.57.813a15.573,15.573,0,0,0-1.472-1.269,10.348,10.348,0,0,0-1.042-.658,4.054,4.054,0,0,1,.586-.835c.057-.077.114-.128.155-.128A14.257,14.257,0,0,1,254.87,2201.2Zm12.739-.337c.187,0,.3.072.3.207v4.14c0,.151-.114.224-.3.224h-7.276c-.285.451-.529.814-.757,1.113h8.639a.191.191,0,0,1,.207.208q-.054,4.338-.228,6.239a14.834,14.834,0,0,1-.622,3.364,1.776,1.776,0,0,1-1.949,1.187c-.679,0-1.042-.128-1.057-.374a3.324,3.324,0,0,0-.415-.964v-.156c.529.042,1.021.079,1.472.079a.966.966,0,0,0,.964-.83,12.1,12.1,0,0,0,.415-2.569c.1-1.027.171-2.727.228-5.091h-5.291v1.478h3.234c.187,0,.3.077.3.228v3.4c0,.151-.114.207-.3.207H264.1c.394.359.715.681.985.979.321.416.6.779.829,1.1,0,.017-.041.059-.078.131a7.74,7.74,0,0,1-.586.757c-.187-.246-.358-.493-.529-.72-2.343.413-4.69.762-7.069,1.078-.187.341-.321.512-.435.512-.13,0-.378-.535-.757-1.551,1.083-.092,2.384-.269,3.913-.492a1.4,1.4,0,0,0,.3-.035v-1.758H257.5c-.192,0-.285-.056-.285-.207v-3.4c0-.151.093-.228.285-.228h3.172v-1.478h-2c-.171.193-.342.349-.487.5a13.588,13.588,0,0,1-1.42,1.057.339.339,0,0,1-.285-.114c-.228-.208-.435-.4-.622-.59a.458.458,0,0,1-.057-.186,6.034,6.034,0,0,0,1.094-.665,7.6,7.6,0,0,0,1.322-1.166,11.257,11.257,0,0,0,.8-1.041H257.14c-.207,0-.306-.073-.306-.224v-4.14c0-.135.1-.207.306-.207Zm-7.52,1.093h-1.928v2.364h1.928Zm.58,8.276h-2.208v1.628h2.208Zm2.669-8.276h-2.006v2.364h2.006Zm.886,8.276h-2.286v1.628h2.286Zm-.886,3.535a3.933,3.933,0,0,1,.508-.756l.042-.053h-1.949v1.551c.643-.1,1.265-.212,1.871-.321C263.624,2214.017,263.453,2213.881,263.339,2213.768Zm3.249-11.811h-2.006v2.364h2.006Z" transform="translate(-91.786 -2173.474)" fill="#72adb6"/>
      <path id="Path_718" data-name="Path 718" d="M235.371,2215.38c.15,0,.228.094.228.286v.6c0,.191-.078.284-.228.284h-5.385v4.136h7.235c.15,0,.228.1.228.306v.585c0,.186-.078.286-.228.286H221.2c-.156,0-.207-.1-.207-.286v-.585c0-.208.052-.306.207-.306h7.463v-4.136h-5.312c-.145,0-.223-.093-.223-.284v-.6c0-.191.078-.286.223-.286Zm-5.162-9.753c0,.172-.073.264-.187.286-.135.02-.192.149-.192.377v.965h6.8c.192,0,.285.072.285.227v3.017c0,.156-.093.228-.285.228H235.9c-.207,0-.3-.072-.3-.228v-2.074H231.53v3.478c0,.544.342.809,1.042.809h2.135a1.677,1.677,0,0,0,1.005-.207c.223-.089.358-.416.435-.979a.167.167,0,0,1,.187-.135,2.3,2.3,0,0,0,1.151.363c.155.02.249.093.249.227a3.147,3.147,0,0,1-.964,1.679,2.111,2.111,0,0,1-1.327.306h-3.529c-1.135,0-1.705-.419-1.705-1.253v-4.287h-3.021l.886.395a.34.34,0,0,1,.207.286c0,.076-.073.1-.228.1a.3.3,0,0,0-.28.186,13.8,13.8,0,0,1-1.078,1.85,8.24,8.24,0,0,1-1.664,1.818,12.377,12.377,0,0,1-1.907,1.225,11.615,11.615,0,0,1-1.12.492c-.186,0-.3-.037-.321-.135a6.416,6.416,0,0,0-.622-.958,9.591,9.591,0,0,0,3.5-2.027,6.876,6.876,0,0,0,1.436-1.622,9.2,9.2,0,0,0,.814-1.607h-4.348v2.358c0,.151-.114.229-.3.229h-.741c-.187,0-.28-.078-.28-.229v-3.229a.262.262,0,0,1,.28-.3h7.09v-1.628c0-.149.093-.228.3-.228C229.737,2205.4,230.209,2205.478,230.209,2205.627Z" transform="translate(-220.383 -2151.968)" fill="#72adb6"/>
      <path id="Path_719" data-name="Path 719" d="M228.529,2205.816c.114.118.187.19.187.269a.2.2,0,0,1-.13.207.236.236,0,0,0-.249.167c-.036.119-.073.212-.093.284H240.4c.078,0,.135.078.135.229v.586c0,.185-.057.284-.135.284H227.829c-.073.188-.15.337-.207.457a14.353,14.353,0,0,1-.757,1.3,7.065,7.065,0,0,1-.871.985,1.185,1.185,0,0,1-.415-.062c-.244-.089-.492-.187-.72-.279-.093-.037-.13-.058-.13-.095a.145.145,0,0,1,.057-.128,6.887,6.887,0,0,0,1.265-1.649,9.484,9.484,0,0,0,.57-1.191,16.105,16.105,0,0,0,.508-1.716c.036-.077.078-.118.114-.118Zm.435,9.586c.187.395.378.809.529,1.229h1.228V2213.1c0-.095.073-.156.228-.156.865,0,1.322.077,1.322.228s-.057.227-.15.249c-.114.015-.15.128-.15.337v2.875h.829a10.808,10.808,0,0,0,1.135-1.348,6.629,6.629,0,0,0,.871-1.58c.057-.156.109-.249.187-.249l1.021.414c.15.078.249.172.249.27s-.078.166-.228.208c-.207,0-.342.072-.378.228a16.364,16.364,0,0,1-1.192,2.057h2.457c.093,0,.15.079.15.223v.586c0,.207-.057.307-.15.307h-4.685a10.767,10.767,0,0,0,1.322,1.187,8.4,8.4,0,0,0,1.964,1.211,8.63,8.63,0,0,0,1.912.7c0,.093-.062.151-.155.193a5.084,5.084,0,0,0-.643.7c-.073.093-.13.149-.15.149a12.193,12.193,0,0,1-2.4-1.211,8.731,8.731,0,0,1-1.814-1.457,1.822,1.822,0,0,1-.3-.3v3.629c0,.15-.1.229-.285.229h-.736a.2.2,0,0,1-.228-.229V2218.8a9.918,9.918,0,0,1-.829.83,15.786,15.786,0,0,1-1.669,1.343,18.744,18.744,0,0,1-2.078,1.12.44.44,0,0,1-.337-.119c-.249-.239-.492-.451-.72-.643a.585.585,0,0,1-.057-.186,15.443,15.443,0,0,0,1.627-.716,11.2,11.2,0,0,0,1.928-1.285,18.322,18.322,0,0,0,1.436-1.4h-4.327c-.114,0-.15-.1-.15-.307v-.586c0-.144.036-.223.15-.223h2.529c-.073-.19-.166-.4-.259-.606a10.865,10.865,0,0,0-1.005-1.758c0-.072.306-.269.943-.585A13.687,13.687,0,0,1,228.964,2215.4Zm10.826-4.083a.854.854,0,0,1,.306.149,2.267,2.267,0,0,1,.3.663,8.953,8.953,0,0,0-.814,2.457,9.65,9.65,0,0,0-.223,2.042,8.419,8.419,0,0,0,.472,3.192c.28.643.544.944.772.944.15,0,.249-.079.306-.265a6.921,6.921,0,0,0,.337-1.6.182.182,0,0,1,.171-.119.187.187,0,0,1,.171.119,3.211,3.211,0,0,0,.606.486.282.282,0,0,1,.114.265,8.293,8.293,0,0,1-1.042,2.571.815.815,0,0,1-.663.393,1.6,1.6,0,0,1-1.187-.772,5.117,5.117,0,0,1-.969-2.172,13.238,13.238,0,0,1-.337-3.042,14.014,14.014,0,0,1,.772-4.125H226.508c-.155,0-.207-.088-.207-.3v-.59c0-.187.052-.3.207-.3Zm-.809-2.213c.093,0,.15.078.15.229v.584c0,.186-.057.286-.15.286H228.208c-.114,0-.15-.1-.15-.286v-.584c0-.151.036-.229.15-.229Z" transform="translate(-204.736 -2152.198)" fill="#72adb6"/>
      <path id="Path_720" data-name="Path 720" d="M231.874,2210.215a3.881,3.881,0,0,1-1.208,1.321l-.492-.544a2.948,2.948,0,0,0,1.264-2.157h-1.4v-2.27h2.27v2.08A3.251,3.251,0,0,1,231.874,2210.215Z" transform="translate(-182.531 -2147.087)" fill="#72adb6"/>
      <path id="Path_721" data-name="Path 721" d="M241.879,2205.627c0,.172-.078.264-.192.286s-.166.149-.166.377v1.321h7.442c.15,0,.228.109.228.3v.591c0,.208-.078.295-.228.295H232.732c-.15,0-.228-.087-.228-.295v-.591c0-.191.078-.3.228-.3h7.37v-1.985c0-.149.093-.228.3-.228C241.387,2205.4,241.879,2205.478,241.879,2205.627Zm3.55,8.282c0,.109-.093.166-.28.187s-.321.15-.378.395a18.032,18.032,0,0,1-1.664,2.876,10.035,10.035,0,0,1-1.379,1.549,6.846,6.846,0,0,0,1.151.564,16.93,16.93,0,0,0,3.457.979,11.468,11.468,0,0,0,2.778.307.645.645,0,0,1-.15.326,9.507,9.507,0,0,0-.378.922c-.036.151-.073.223-.13.223a30.891,30.891,0,0,1-3.234-.521,16.87,16.87,0,0,1-2.814-.97,12.984,12.984,0,0,1-1.8-.958c-.3.186-.622.377-.964.564-.752.358-1.643.717-2.679,1.1a23.584,23.584,0,0,1-3.27.866.3.3,0,0,1-.264-.208,5.684,5.684,0,0,0-.622-.865c-.1-.1-.156-.176-.156-.249a8.417,8.417,0,0,0,2.306-.358,22.207,22.207,0,0,0,2.57-.834,13.363,13.363,0,0,0,1.855-.923,10.587,10.587,0,0,1-1.57-1.627,14.855,14.855,0,0,1-1.835-3.5,6.191,6.191,0,0,1,1.249-.45,9.152,9.152,0,0,0,1.208,2.621,7.875,7.875,0,0,0,1.757,1.914,2.074,2.074,0,0,0,.363.279,4.642,4.642,0,0,0,.922-.907,9.506,9.506,0,0,0,1.265-1.736,17.3,17.3,0,0,0,1.062-2.383A10.171,10.171,0,0,1,245.429,2213.909Zm-6.727-3.54a.556.556,0,0,1,.155.286c0,.072-.078.092-.192.092a1.217,1.217,0,0,0-.472.188,13.213,13.213,0,0,1-1.607,1.669,14.944,14.944,0,0,1-2.607,1.741c-.171,0-.285-.062-.321-.176a4.65,4.65,0,0,1-.7-.566c-.109-.039-.145-.076-.145-.149,0-.035.036-.077.109-.135a3.987,3.987,0,0,0,1.228-.585,9.269,9.269,0,0,0,1.835-1.415,14.223,14.223,0,0,0,1.456-1.628c.036-.093.093-.149.171-.149Zm10.039,2.934a.425.425,0,0,1-.114.243,3.349,3.349,0,0,1-.622.865,28.49,28.49,0,0,1-5.24-3.835s.228-.265.7-.787c.078-.121.15-.173.192-.173A24.451,24.451,0,0,0,248.741,2213.3Z" transform="translate(-172.221 -2151.968)" fill="#72adb6"/>
      <path id="Path_722" data-name="Path 722" d="M238.868,2209.678v-2.8a4.41,4.41,0,0,0-.078-.834.842.842,0,0,1-.078-.358c0-.093.114-.149.383-.149l1.493.206c.13.079.207.131.207.172,0,.114-.078.171-.228.171-.249.114-.363.394-.363.865v2.726h1.835c.155,0,.228.114.228.3v.591c0,.207-.073.295-.228.295H240.2v3.991c.663-.3,1.285-.642,1.892-.984.036-.037.057-.056.1-.056a.136.136,0,0,1,.145.154,3.519,3.519,0,0,1-.073,1.016c-.7.419-1.379.792-2.063,1.141v5.213c0,.891-.679,1.337-2,1.337h-.663c-.114,0-.15-.109-.15-.316a3.416,3.416,0,0,0-.358-.871c0-.108.036-.15.13-.15a3.359,3.359,0,0,0,.891.15c.529,0,.814-.228.814-.663v-4.042c-.492.227-.948.455-1.4.643-.192.356-.321.528-.435.528-.135,0-.378-.509-.741-1.55a16.414,16.414,0,0,0,2.576-.963v-4.577h-2.063c-.15,0-.228-.088-.228-.295v-.591c0-.186.078-.3.228-.3Zm8.748-3.7c.114.092.192.17.192.248,0,.151-.135.207-.384.207a.449.449,0,0,0-.373.151l-.378.524h4.307a.542.542,0,0,1,.342.078c.264.227.4.4.4.511l-1.741,2.213h2.477c.187,0,.3.073.3.229v6.271h.814c.13,0,.207.094.207.285v.6c0,.191-.078.286-.207.286h-5.048a5.361,5.361,0,0,0,.606,1.136,5.521,5.521,0,0,0,1.285,1.362,6.33,6.33,0,0,0,1.964,1.094,8.373,8.373,0,0,0,1.021.3c.114.041.171.063.171.1a.3.3,0,0,1-.114.259c-.207.25-.4.476-.565.685-.062.114-.135.165-.207.165a3.785,3.785,0,0,1-.741-.223,9.749,9.749,0,0,1-2.57-1.513,6.75,6.75,0,0,1-1.3-1.507,4.854,4.854,0,0,1-.327-.572l-.036.1a6.378,6.378,0,0,1-1.757,2.222,8.621,8.621,0,0,1-2.871,1.493c-.15,0-.249-.031-.285-.088a3.907,3.907,0,0,0-.643-.476c-.13-.109-.187-.187-.187-.245s.093-.128.28-.17a8.813,8.813,0,0,0,2.4-1.265,4.721,4.721,0,0,0,1.441-1.548,5.1,5.1,0,0,0,.565-1.306h-4.612c-.15,0-.207-.094-.207-.286v-.6c0-.19.057-.285.207-.285h1.192v-6.2a.248.248,0,0,1,.036-.17.4.4,0,0,1-.187-.17,3.059,3.059,0,0,0-.549-.659c-.13-.078-.192-.135-.192-.191,0-.016.021-.037.062-.057a6.393,6.393,0,0,0,1.151-.644,6.8,6.8,0,0,0,1.285-1.093,6.041,6.041,0,0,0,.7-.835c.186-.284.378-.6.565-.942a.186.186,0,0,1,.15-.113Zm.793,3.932,1.327-1.627h-4.048a5.534,5.534,0,0,1-.472.435,9.8,9.8,0,0,1-1.021.809c-.244.172-.435.307-.565.383h4.778Zm-1.529,6.5c.036-.435.078-.886.078-1.357,0-.172.109-.27.337-.27l1.249.1c.244,0,.378.093.378.258,0,.229-.1.349-.264.384-.192.021-.264.13-.264.358-.021.186-.041.377-.057.528h3.079v-5.333h-6.862v5.333Zm1.964-4.54a.692.692,0,0,1,.135.249c0,.078-.042.1-.114.1a.529.529,0,0,0-.285.166,3.708,3.708,0,0,1-.228.416,13.531,13.531,0,0,1,1.208.776c.5.4.912.757,1.27,1.063a.622.622,0,0,1-.093.146c-.378.549-.57.814-.57.814a18.079,18.079,0,0,0-1.715-1.363c-.27-.172-.513-.316-.72-.451a.648.648,0,0,1-.114.17,12.921,12.921,0,0,1-1.586,1.644c-.15,0-.249-.042-.285-.15-.244-.187-.456-.379-.622-.53-.078-.036-.114-.072-.114-.134a.182.182,0,0,1,.057-.13,1.977,1.977,0,0,0,.736-.53,6.748,6.748,0,0,0,1.114-1.306c.264-.393.549-.906.871-1.513.021-.088.057-.151.093-.151Z" transform="translate(-156.377 -2152.256)" fill="#72adb6"/>
      <path id="Path_723" data-name="Path 723" d="M255.05,2206.644a26.857,26.857,0,0,1-4.571.83,55.7,55.7,0,0,1-5.934.306v1.929H255.77q.28,0,.28.227v6.856c0,.151-.093.229-.28.229h-.741c-.207,0-.3-.078-.3-.229v-1.036h-10.2a12.347,12.347,0,0,1-.508,3.021,7.446,7.446,0,0,1-1.363,2.534,6.914,6.914,0,0,1-1.513,1.451.366.366,0,0,1-.187-.032,4.571,4.571,0,0,0-.684-.512.339.339,0,0,1-.093-.264,6.433,6.433,0,0,0,1.664-1.7,9.042,9.042,0,0,0,1.042-2.4,13.071,13.071,0,0,0,.337-3.192v-7.748a.264.264,0,0,1,.285-.3h.15c2.612-.021,4.649-.115,6.126-.265a23.527,23.527,0,0,0,4.8-.886,1.5,1.5,0,0,1,.451-.1.528.528,0,0,1,.228.1c.627.523.948.85.948,1,0,.265-.078.374-.228.374l-.435-.223A3.59,3.59,0,0,0,255.05,2206.644Zm-10.505,7.934h10.184v-3.684H244.545Z" transform="translate(-140.132 -2152.135)" fill="#72adb6"/>
      <path id="Path_724" data-name="Path 724" d="M250.134,2205.83c.15.114.228.193.228.27a.264.264,0,0,1-.228.279.379.379,0,0,0-.415.344c-.207.621-.4,1.166-.565,1.664h3.928a.52.52,0,0,1,.342.114,1.874,1.874,0,0,1,.394.621,38.722,38.722,0,0,1-1.057,4.193,20.148,20.148,0,0,1-1.213,3.12,12.208,12.208,0,0,1-1.586,2.362,9.989,9.989,0,0,1-2.327,2.136,8.734,8.734,0,0,1-2.229,1.176.423.423,0,0,1-.394-.177c-.155-.227-.3-.45-.456-.662a.341.341,0,0,1-.114-.186c0-.109.042-.187.114-.208a11.183,11.183,0,0,0,1.684-.751,8.4,8.4,0,0,0,2.529-2.083,9.414,9.414,0,0,0,.964-1.285,16.657,16.657,0,0,0-2.456-1.851c-.073-.041-.093-.057-.093-.1a3.92,3.92,0,0,1,.643-.886c.078-.093.15-.15.228-.15a27.511,27.511,0,0,1,2.4,1.814l.057-.113a18.515,18.515,0,0,0,1.1-3.027,26.53,26.53,0,0,0,.679-2.887h-3.571c-.135.335-.249.623-.363.85-.451.907-.928,1.777-1.415,2.592a16.094,16.094,0,0,1-1.607,1.943.92.92,0,0,1-.435-.077c-.264-.109-.508-.208-.777-.3a.19.19,0,0,1-.114-.13.254.254,0,0,1,.1-.229,12.486,12.486,0,0,0,2.4-3.114,14.1,14.1,0,0,0,1.094-2.276,23.159,23.159,0,0,0,.985-3.249c.057-.13.135-.208.207-.208Zm7.826-.113c0,.176-.078.264-.186.285-.135.021-.192.151-.192.377v4.723a36.68,36.68,0,0,1,3.742,4.1.433.433,0,0,1,.171.341c0,.058-.041.095-.114.131a3.072,3.072,0,0,1-.834.678.308.308,0,0,1-.264-.146,33.251,33.251,0,0,0-2.7-3.161v9.354c0,.151-.1.228-.285.228h-.736c-.207,0-.3-.077-.3-.228v-16.687c0-.15.093-.228.3-.228C257.483,2205.489,257.959,2205.567,257.959,2205.717Z" transform="translate(-124.105 -2152.135)" fill="#72adb6"/>
      <path id="Path_725" data-name="Path 725" d="M251.822,2213.743c.228,0,.358.072.358.228v4.416c0,.228.021.535.057.892a3.572,3.572,0,0,0,.948,1.243,4.04,4.04,0,0,0,2.285.535h5.162c.451,0,1.208-.058,2.306-.172a19.963,19.963,0,0,0,2.3-.341c.078,0,.155-.022.228-.022a.147.147,0,0,1,.155.156c-.228.416-.435.814-.591,1.149-.036.265-.15.4-.373.4h-9.189a4.913,4.913,0,0,1-3.177-.984,5.064,5.064,0,0,1-1-1.529c-.643.622-1.192,1.171-1.679,1.7a.8.8,0,0,0-.477.642c0,.207-.057.321-.13.321-.057,0-.135-.056-.228-.165l-.943-1.385a10.135,10.135,0,0,0,2.627-1.777c.207-.089.321-.316.321-.664v-3.478H248.5c-.15,0-.228-.086-.228-.279v-.6c0-.2.078-.284.228-.284Zm-1.078-3.461c.492.357.928.683,1.285.943l-.073.156a9.091,9.091,0,0,1-.586.813c-.57-.435-1.156-.85-1.757-1.229a10.287,10.287,0,0,0-1.27-.621,3.75,3.75,0,0,1,.586-.84c.057-.072.114-.129.15-.129C249.76,2209.712,250.314,2210.017,250.744,2210.282Zm.627-4.059c.487.337.907.623,1.265.865a.408.408,0,0,1-.093.172c-.378.523-.57.792-.57.792a16.111,16.111,0,0,0-1.736-1.118,9.523,9.523,0,0,0-1.228-.581,3.594,3.594,0,0,1,.586-.835c.057-.077.114-.134.15-.134A17.629,17.629,0,0,1,251.371,2206.223Zm11.3-.534c.192,0,.306.077.306.228v5.69h1.4c.223,0,.358.073.358.208v7.369c0,.3-.244.549-.72.693a6.692,6.692,0,0,1-1.793.286c-.135,0-.207-.074-.228-.223a4.178,4.178,0,0,0-.435-1.193c0-.035.042-.056.156-.056a6.666,6.666,0,0,0,1.436-.078.332.332,0,0,0,.264-.316v-5.6h-8.561v6.936c0,.155-.114.228-.306.228h-.736c-.187,0-.28-.073-.28-.228v-7.82c0-.135.093-.208.28-.208h1.265v-5.69c0-.151.1-.228.285-.228Zm-4.571,5.918v-2.819c0-.151.093-.223.285-.223h3.249V2206.8H256.4v4.8Zm3.384,2.492c.187,0,.3.079.3.229v3.761c0,.151-.114.228-.3.228h-4.727c-.192,0-.285-.077-.285-.228v-3.761c0-.151.093-.229.285-.229Zm-1.021,1.116H257.8v1.985h2.664Zm1.171-3.608v-1.929H259.42v1.929Z" transform="translate(-108.09 -2152.031)" fill="#72adb6"/>
      <path id="Path_726" data-name="Path 726" d="M253.895,2211.051c.451.356.829.684,1.171.942a.3.3,0,0,1-.114.172c-.415.585-.622.871-.622.871a16.83,16.83,0,0,0-1.555-1.271c-.451-.3-.829-.507-1.109-.663a4,4,0,0,1,.58-.83c.062-.072.114-.128.156-.128C253,2210.479,253.5,2210.786,253.895,2211.051Zm1.721,3.249c.3.685.472,1.063.472,1.1a.486.486,0,0,1-.078.244c-.549,1.357-1.057,2.534-1.529,3.477-.264.551-.565,1.135-.948,1.778a1.5,1.5,0,0,0-.093.623c0,.155-.057.227-.15.227a6.13,6.13,0,0,1-1.208-1.187.207.207,0,0,1-.114-.212.437.437,0,0,1,.073-.265,8.9,8.9,0,0,0,1.005-1.285,26.956,26.956,0,0,0,1.337-2.379c.384-.776.72-1.491,1.005-2.134.036-.1.073-.151.114-.151C255.558,2214.133,255.594,2214.185,255.615,2214.3Zm.093-7.675c.451.346.85.662,1.192.947a.836.836,0,0,1-.1.173c-.415.564-.622.849-.643.849a12.519,12.519,0,0,0-1.586-1.249,7.879,7.879,0,0,0-1.135-.663,4.249,4.249,0,0,1,.57-.829c.052-.079.114-.135.166-.135C254.781,2206.058,255.294,2206.36,255.708,2206.624Zm7.541-1.058c0,.17-.078.263-.192.286s-.166.149-.166.377v.379h4.934c.093,0,.15.072.15.223v.435c0,.207-.057.3-.15.3h-4.934v.893h5.742c.192,0,.3.067.3.208v1.85c0,.146-.109.223-.3.223H267.9c-.15,0-.207-.078-.207-.223v-1.041H262v1.021l4.426-.488c.093,0,.15.072.15.207v.446c0,.2-.057.285-.15.285l-4.426.5c0,.373.285.544.814.544h3.327a1.082,1.082,0,0,0,.622-.129c.135-.057.228-.269.285-.606,0-.037.036-.079.114-.079a1.737,1.737,0,0,0,.907.27c.13.016.207.068.207.186a2.048,2.048,0,0,1-.663,1.115,1.369,1.369,0,0,1-.886.207h-4.441c-.891,0-1.327-.321-1.327-.964v-.435l-1.85.207c-.093,0-.13-.094-.13-.279v-.458c0-.134.036-.206.13-.206l1.85-.207v-1.136h-2.716v4.063a19.091,19.091,0,0,1-.4,4.384,9.6,9.6,0,0,1-.964,2.7,6.571,6.571,0,0,1-1.078,1.555.461.461,0,0,1-.207-.041,3.292,3.292,0,0,0-.684-.467.4.4,0,0,1-.073-.228,6.64,6.64,0,0,0,1.156-1.855,11.773,11.773,0,0,0,.736-2.592,22.123,22.123,0,0,0,.244-3.456v-4.872c0-.141.078-.208.228-.208h4.348v-2.9c0-.13.093-.208.3-.208C262.777,2205.359,263.249,2205.437,263.249,2205.567Zm-3.327,13.817c.15.077.228.135.228.207a.188.188,0,0,1-.114.188c-.114,0-.171.077-.187.191a12.9,12.9,0,0,1-.814,2.192c-.078.114-.114.17-.135.17a.706.706,0,0,1-.285-.093,6.064,6.064,0,0,0-.622-.285l-.13-.052a.186.186,0,0,1,.036-.135,11.288,11.288,0,0,0,.57-1.208,8.391,8.391,0,0,0,.394-1.362c.036-.114.073-.192.114-.192Zm7.769-5.69c.187,0,.285.076.285.227v4.068c0,.151-.1.207-.285.207h-7.976c-.207,0-.3-.056-.3-.207v-4.068c0-.15.093-.227.3-.227Zm-4.649,1.778v-.814h-2.363v.814Zm0,.963h-2.363v.792h2.363Zm-.814,2.492c0,.1-.073.191-.228.306v1.851c0,.134.036.207.156.207h3.379c.249,0,.492-.379.736-1.095l1.119.66c-.42,1.076-.948,1.627-1.555,1.627H261.7c-.643,0-.964-.286-.964-.809v-2.82a.2.2,0,0,1,.223-.211C261.793,2218.72,262.228,2218.818,262.228,2218.927Zm1.57-.395a8.823,8.823,0,0,1,1.378,1.021c.036.037.078.079.078.115a.182.182,0,0,1-.062.149l-.337.435a.439.439,0,0,1-.264.093.147.147,0,0,1-.135-.093,10.886,10.886,0,0,0-1.244-.833c-.078-.037-.114-.072-.114-.109a.468.468,0,0,1,.057-.193l.358-.563a.39.39,0,0,1,.187-.063Zm.492-3.061h2.436v-.814h-2.436Zm2.436.963h-2.436v.792h2.436Zm1.7,3.212c.342.337.622.644.891.913l-.1.13-.508.679a14.577,14.577,0,0,0-1.208-1.155,7.751,7.751,0,0,0-.85-.623,3.921,3.921,0,0,1,.508-.7.315.315,0,0,1,.15-.093A10.235,10.235,0,0,1,268.426,2219.647Z" transform="translate(-92.075 -2152.135)" fill="#72adb6"/>
      <path id="Path_727" data-name="Path 727" d="M239.337,2215.153c0,.114-.057.156-.135.156-.187.035-.321.086-.378.207a15.942,15.942,0,0,1-2.213,2.963v8.925c0,.145-.109.223-.3.223h-.736c-.207,0-.3-.079-.3-.223v-7.753c-.456.379-1.005.793-1.627,1.25a.488.488,0,0,1-.358-.172c-.171-.133-.358-.263-.549-.414a.27.27,0,0,1-.114-.228c.606-.436,1.207-.907,1.85-1.42a12.4,12.4,0,0,0,2.1-2.171,10.037,10.037,0,0,0,1.213-2.08c0-.1.036-.149.073-.149C238.845,2214.753,239.337,2215.06,239.337,2215.153Zm-.663-3.7c0,.109-.057.167-.13.167-.192.042-.321.093-.378.208a11.147,11.147,0,0,1-2.2,2.722,21.6,21.6,0,0,1-2.021,1.627.51.51,0,0,1-.358-.166c-.186-.136-.358-.27-.544-.42a.243.243,0,0,1-.135-.223c.492-.363,1-.741,1.513-1.156a11.267,11.267,0,0,0,1.721-1.778,9.432,9.432,0,0,0,.979-1.719c0-.1.041-.151.078-.151A5.625,5.625,0,0,1,238.674,2211.452Zm6.261-.133a1.778,1.778,0,0,0,.093.207c0,.114-.114.156-.321.156-.306,0-.492.067-.57.223-.72.921-1.379,1.755-2.021,2.492.415.416.814.871,1.208,1.325.3-.346.586-.641.855-.91.943-.98,1.752-1.887,2.394-2.7a7.784,7.784,0,0,1,1.327,1.192c0,.093-.093.129-.285.129-.415,0-.658.057-.736.155-1.456,1.565-2.892,3.022-4.291,4.348,1.192-.153,2.607-.3,4.27-.492-.223-.664-.451-1.25-.658-1.783,0-.128.264-.316.808-.58a.326.326,0,0,1,.228.072,44.861,44.861,0,0,1,1.777,4.5c0,.193-.057.279-.13.279a2.124,2.124,0,0,1-1.062.458c-.244-.772-.472-1.493-.679-2.157l-3.934.851c.114.1.192.156.192.191,0,.113-.036.17-.114.17-.171.037-.285.093-.321.207-.207.358-.415.679-.606.964h5.1a.412.412,0,0,1,.3.114,2.353,2.353,0,0,1,.363.628,15.5,15.5,0,0,1-1.078,2.057,8.861,8.861,0,0,1-1.265,1.509c-.155.133-.285.248-.42.363a8.72,8.72,0,0,0,1.757.734,18.272,18.272,0,0,0,2.871.7c.114.021.192.058.192.094a.26.26,0,0,1-.093.19,5.686,5.686,0,0,0-.663.679c-.093.095-.15.151-.187.151a1.965,1.965,0,0,1-.378-.093c-.57-.15-1.171-.321-1.855-.507a15.8,15.8,0,0,1-2.187-.907c-.192-.119-.383-.207-.529-.307a.263.263,0,0,0-.114.058,12.917,12.917,0,0,1-2.4,1.042,17.171,17.171,0,0,1-2.286.579.382.382,0,0,1-.358-.165c-.15-.208-.285-.414-.435-.626a.236.236,0,0,1-.093-.167c0-.058.036-.1.13-.12a17.1,17.1,0,0,0,1.721-.356,9.858,9.858,0,0,0,2.643-1l.042-.02a1.169,1.169,0,0,1-.135-.119,4.419,4.419,0,0,1-1.265-1.451,6.061,6.061,0,0,1-.777-1.385l-.052.042a21.372,21.372,0,0,1-1.928,1.585.406.406,0,0,1-.342-.149c-.171-.149-.342-.28-.508-.43a.277.277,0,0,1-.114-.229c.451-.342.922-.721,1.415-1.114a8.64,8.64,0,0,0,1.622-1.72,8.04,8.04,0,0,0,.534-.835l-2.249.486c-.306.363-.472.535-.513.535a7.2,7.2,0,0,1-.378-1.778,6.818,6.818,0,0,1,2.42-.528c.684-.643,1.285-1.25,1.814-1.778-.658-.586-1.151-1.016-1.492-1.285a11.121,11.121,0,0,0-1.627-.985c0-.109.249-.435.777-.98.057-.077.114-.134.187-.134.228.19.477.383.7.569.394-.456.751-.89,1.057-1.321.549-.781.943-1.362,1.187-1.762Zm-2.441,11.36a6.1,6.1,0,0,0,1.171,1.455,3.434,3.434,0,0,0,.549.432c.244-.187.472-.358.679-.549a5.686,5.686,0,0,0,1.135-1.452,6.159,6.159,0,0,0,.435-.777h-4.405A5.967,5.967,0,0,0,242.494,2222.678Z" transform="translate(-171.71 -2130.704)" fill="#72adb6"/>
      <path id="Path_728" data-name="Path 728" d="M241.261,2211.227c0,.109-.042.172-.093.172-.192.015-.306.072-.342.186a2.375,2.375,0,0,0-.156.229H244a.588.588,0,0,1,.321.077c.223.188.337.337.337.451l-1.985,2.649h1.985c.192,0,.306.072.306.227v7.975c0,.151-.114.208-.306.208h-7.012c-.207,0-.3-.058-.3-.208v-7.975a.185.185,0,0,1,.036-.135,1.425,1.425,0,0,0-.171.135.413.413,0,0,1-.337-.177c-.171-.128-.342-.279-.513-.435a.257.257,0,0,1-.114-.206c.42-.3.855-.623,1.29-.959a7.926,7.926,0,0,0,1.472-1.471,7.661,7.661,0,0,0,.85-1.4c0-.089.036-.15.073-.15A4.865,4.865,0,0,1,241.261,2211.227Zm-2.949,13.4c.15,0,.223.079.223.188a16.919,16.919,0,0,1-.943,3.326l-.093.129a1.215,1.215,0,0,1-.435-.056,3.639,3.639,0,0,0-.679-.26.214.214,0,0,1-.135-.2,9.912,9.912,0,0,0,1.135-3,.258.258,0,0,1,.264-.248Zm-.663-9.639H241.2l1.627-2.063h-2.949a7.8,7.8,0,0,1-.928.948c-.306.265-.793.644-1.456,1.135C237.539,2215.01,237.591,2214.991,237.648,2214.991Zm2.819,3.684V2216.1h-1.855v2.576Zm0,1.113h-1.855v2.515h1.855Zm0,4.723c.129,0,.2.056.2.156a31.687,31.687,0,0,1,.156,3.17c0,.1-.078.151-.207.151h-.7c-.228,0-.342-.051-.342-.151.078-.942.135-2,.135-3.17,0-.1.036-.156.15-.156Zm1.244-5.835H243.7V2216.1h-1.985Zm1.985,1.113h-1.985v2.515H243.7Zm-1.037,5.007a22.354,22.354,0,0,1,.6,2.9c0,.067-.093.13-.264.167l-.85.056c-.073,0-.13-.079-.13-.223a23.78,23.78,0,0,0-.306-2.8c0-.135.062-.208.171-.208l.565-.02A.3.3,0,0,1,242.66,2224.795Zm2.135-.037a20.231,20.231,0,0,1,1.265,2.934c0,.13-.093.207-.264.207l-.829.167c-.114,0-.192-.094-.207-.244a17.643,17.643,0,0,0-.912-2.929c0-.076.042-.135.156-.155l.58-.151C244.645,2224.588,244.717,2224.644,244.8,2224.758Zm8.733-9.923c.15,0,.228.12.228.3v.586c0,.208-.078.3-.228.3H250.2v2.592h3.172c.156,0,.228.092.228.285v.586c0,.207-.073.3-.228.3H250.2v2.873h3.555c.13,0,.207.119.207.306v.584c0,.208-.078.3-.207.3H250.2v3.84c0,.144-.1.223-.285.223h-.757c-.187,0-.285-.079-.285-.223v-3.84h-3.021c-.15,0-.228-.093-.228-.3v-.584c0-.187.078-.306.228-.306h3.021v-2.873H246.21c-.15,0-.228-.092-.228-.3v-.586c0-.193.078-.285.228-.285h2.664v-2.592h-2.892c-.15,0-.207-.093-.207-.3v-.586c0-.185.057-.3.207-.3ZM246.951,2211a24.661,24.661,0,0,1,1.7,2.74c0,.188-.041.286-.114.286a2.226,2.226,0,0,1-1.057.451,30.234,30.234,0,0,0-1.55-2.944c0-.134.259-.346.808-.611A.29.29,0,0,1,246.951,2211Zm6.292.326c.192.072.285.166.285.258s-.057.155-.171.191a.265.265,0,0,0-.285.2,10.347,10.347,0,0,1-1.192,2.311c-.093.128-.171.186-.207.186a.454.454,0,0,1-.3-.135c-.264-.11-.492-.2-.72-.3-.114-.037-.15-.058-.15-.094a.487.487,0,0,1,.057-.128,10.085,10.085,0,0,0,.829-1.286,6.824,6.824,0,0,0,.591-1.456c.036-.156.073-.228.15-.228Z" transform="translate(-156.557 -2130.992)" fill="#72adb6"/>
      <path id="Path_729" data-name="Path 729" d="M244.822,2210.975c.135.115.207.193.207.27a.206.206,0,0,1-.145.207c-.192,0-.285.053-.326.167a1.751,1.751,0,0,1-.093.208h11.06c.093,0,.15.079.15.228v.586c0,.186-.057.286-.15.286H243.9a5.928,5.928,0,0,1-.378.606,15.751,15.751,0,0,1-1.1,1.342,9.1,9.1,0,0,1-1.228,1.015.844.844,0,0,1-.415-.077c-.243-.089-.492-.186-.72-.26-.073-.035-.114-.077-.114-.114s.021-.072.078-.114a7.67,7.67,0,0,0,1.814-1.7,7.831,7.831,0,0,0,.814-1.233,11.468,11.468,0,0,0,.757-1.787c.036-.079.073-.121.15-.121Zm.207,7.962c.171.265.321.528.456.788h2.493a6.035,6.035,0,0,0,.663-.788,11.842,11.842,0,0,0,.565-1.12.213.213,0,0,1,.192-.088l1.037.622c.078.072.135.128.135.188,0,.077-.057.114-.171.114-.187.015-.285.057-.3.114-.192.3-.415.62-.679.958h2.7c.1,0,.15.077.15.206v.612c0,.186-.052.281-.15.281H247.47v1.342h3.913c.093,0,.15.078.15.207v.606c0,.186-.057.284-.15.284H247.47v1.343H252.7c.093,0,.15.072.15.208v.6c0,.192-.057.285-.15.285H247.47v1.85c0,.15-.114.229-.306.229h-.736c-.15,0-.207-.079-.207-.229v-1.85h-5.25c-.114,0-.156-.093-.156-.285v-.6c0-.136.041-.208.156-.208h5.25v-1.343h-3.985c-.114,0-.155-.1-.155-.284v-.606c0-.129.042-.207.155-.207h3.985v-1.342H241.5c-.114,0-.155-.095-.155-.281v-.612c0-.128.042-.206.155-.206h2.7a1.347,1.347,0,0,1-.135-.208,7.206,7.206,0,0,0-.943-1.186c0-.079.306-.287.943-.6A11.873,11.873,0,0,1,245.029,2218.937Zm10.339-2.611a.953.953,0,0,1,.306.149,2.089,2.089,0,0,1,.28.663,10.151,10.151,0,0,0-.928,2.627,9.8,9.8,0,0,0-.244,2.172,8.783,8.783,0,0,0,.378,2.969c.228.585.456.865.643.865a.317.317,0,0,0,.321-.244,5.118,5.118,0,0,0,.4-1.493.185.185,0,0,1,.171-.114.207.207,0,0,1,.166.137,3.4,3.4,0,0,0,.606.491c.078.037.114.129.114.265a7.589,7.589,0,0,1-1.078,2.435.916.916,0,0,1-.7.379,1.447,1.447,0,0,1-1.1-.737,5.3,5.3,0,0,1-.886-2.077,12.834,12.834,0,0,1-.3-2.876,14.262,14.262,0,0,1,.907-4.421H241.116c-.145,0-.223-.093-.223-.3v-.586c0-.185.078-.3.223-.3Zm-.663-2.213c.1,0,.155.078.155.228v.59c0,.186-.057.28-.155.28H243.936c-.114,0-.155-.094-.155-.28v-.59c0-.15.041-.228.155-.228Z" transform="translate(-141.098 -2130.704)" fill="#72adb6"/>
    </g>
  </g>
</svg>
