<svg id="section2_subtitle2" xmlns="http://www.w3.org/2000/svg" width="289.407" height="24.475" viewBox="0 0 289.407 24.475">
  <path id="Path_21407" data-name="Path 21407" d="M90.728,537.086a27.129,27.129,0,0,1-1.84,4.1c.087.239.179.478.271.69a20.2,20.2,0,0,1,1.044,5.394,10.713,10.713,0,0,0,2.525-3.463H90.816v-6.618H103.6V543.8H95.617c-.184.4-.34.768-.524,1.135h8.687v3.969c0,5.868-.276,9.285-.777,10.315a2.97,2.97,0,0,1-2.86,1.43h-.888l-.363-2.281c.271.028.5.055.681.055-.092-.235-.156-.423-.248-.63-2.842.63-5.684,1.164-8.508,1.609l-.451-2.911a35.909,35.909,0,0,0,4.364-.262v-1.692H91.34V550.1c-.138.129-.248.239-.34.313l-.681-1.237c.046.952.046,1.9.046,2.879q0,5.635-.957,7.064c-.635,1-2.138,1.536-4.456,1.536l-.455-3.518a16.025,16.025,0,0,0,1.867.211.99.99,0,0,0,.975-.768,13.771,13.771,0,0,0,.455-4.525v-1.347a18.253,18.253,0,0,1-2.658,3.729l-1.775-2.566a16.155,16.155,0,0,0,4.162-5.689c-.138-.846-.271-1.61-.432-2.249a23.113,23.113,0,0,1-2.322,2.644l-1.407-2.562a15.625,15.625,0,0,0,2.5-2.861,12.736,12.736,0,0,0-2.069-2.327l1.614-1.853a11.039,11.039,0,0,1,1.844,1.642,20.791,20.791,0,0,0,.814-2.065Zm4,10.343h-1.09a13.1,13.1,0,0,1-1.113,1.426h2.2Zm-.184-8.071H93.294v2.276h1.251Zm.184,11.373H93.386v1.959h1.343Zm3.09-11.373H96.412v2.276H97.82Zm3.274,17.908q.138-1.98.207-9.837H97.024v1.426h3.389v5.689H99.5A25.656,25.656,0,0,1,101.094,557.265Zm-2.727-6.535H97.024v1.959h1.343Zm-.819,3.812h-.524v1.375a9.872,9.872,0,0,0,1.251-.212C98.05,555.31,97.8,554.915,97.548,554.542Zm3.569-15.185h-1.43v2.276h1.43Z" transform="translate(-83.361 -536.363)" fill="#fff"/>
  <path id="Path_21408" data-name="Path 21408" d="M96.526,536.535a37.835,37.835,0,0,1,5.684,4.631l-1.315,2.06v8.89H92.686c-.046.373-.069.717-.115,1.03h8.843v7.464H98.844v-.929H94.755v.929H92.185v-5.16a28.723,28.723,0,0,1-1.435,4.843L88.271,557.8a20.976,20.976,0,0,0,1.959-9.712v-3.7c-.322.262-.658.5-.98.712l-.635-3.624a22.449,22.449,0,0,0,5.776-4.949h2.134Zm-1.752,6.4c-.156-.529-.34-1.03-.543-1.559l2.571-.607a15.151,15.151,0,0,1,.658,2.166h1.954a39.8,39.8,0,0,0-3.776-3.84,24.941,24.941,0,0,1-3.633,3.84Zm-1.909,6.719h5.528v-1.14h-5.5C92.888,548.915,92.865,549.283,92.865,549.655Zm.023-4.235v1.035h5.5V545.42ZM98.844,557.2v-1.564H94.755V557.2Zm6.116-18.814v16.643h-2.566V538.384Zm3.822,19.526c0,1.8-.727,2.7-2.138,2.7h-3.182l-.543-3.518c1.633.156,2.52.212,2.681.212.34,0,.52-.239.52-.745V536.825h2.663Z" transform="translate(-65.691 -536.425)" fill="#fff"/>
  <path id="Path_21409" data-name="Path 21409" d="M112.111,537.116v3.095h-7.275v13.332h8.618v3.095H93.375v-3.095h8.434V540.211H94.718v-3.095Z" transform="translate(-47.323 -534.334)" fill="#fff"/>
  <path id="Path_21410" data-name="Path 21410" d="M104.7,550.9a40.6,40.6,0,0,1-3.546,9.492l-2.939-1.959a29.043,29.043,0,0,0,3.822-8.673Zm-.276-4.659-2.134,2.672a32.86,32.86,0,0,0-3.822-3.808l1.862-2.276A28.272,28.272,0,0,1,104.419,546.243Zm1.251-6.112-2.046,2.594A31.13,31.13,0,0,0,99.9,539.1l1.771-2.166A29.363,29.363,0,0,1,105.67,540.131Zm4.341.106v-3.7h2.934v3.7h4.525v2.989h-4.525v3.941h6.047v2.994h-6.912a30.965,30.965,0,0,1-2.773,5.795c1.614-.11,3.3-.267,5.049-.478-.5-1.062-1.049-2.093-1.6-3.044l2.5-.924a51.439,51.439,0,0,1,3.983,7.859l-2.755,1.531c-.317-.924-.635-1.826-.952-2.672q-5.422.993-10.844,1.642l-.547-3.707c.589,0,1.228,0,1.862-.028a29.308,29.308,0,0,0,2.888-5.974h-4.3v-2.994h5.408v-3.941h-4.065v-2.989Z" transform="translate(-29.919 -536.425)" fill="#fff"/>
  <path id="Path_21411" data-name="Path 21411" d="M112.013,550.792v-2.276h3.118v2.276h6.843v2.883h-6.843v2.994h8.526v3.2H103.216v-3.2h8.8v-2.994h-7v-2.883Zm0-11.479v-2.778h3.118v2.778H121.7V542.2h-6.567v2.594H123.2v3.2H103.763v-3.2h8.25V542.2h-6.751v-2.884Z" transform="translate(-11.907 -536.425)" fill="#fff"/>
  <path id="Path_21412" data-name="Path 21412" d="M120.547,537.017a13.17,13.17,0,0,1-.865,1.352h7.073V550.56h-6.664v1.458h8.8v2.566H122.8a10.073,10.073,0,0,0,1.706,1.085,18.1,18.1,0,0,0,4.819,1.509l-1.5,2.989a17.57,17.57,0,0,1-5.293-2.672,12.281,12.281,0,0,1-2.437-2.571v6.061h-2.929v-5.923a13.785,13.785,0,0,1-2.686,2.561,20.818,20.818,0,0,1-5.137,2.543l-1.228-2.989a17.707,17.707,0,0,0,6.139-2.594H108.36v-2.566h8.8V550.56h-6.572V538.369h5.932a6.848,6.848,0,0,0,.819-1.858Zm3.274,4.976v-1.246h-10.3v1.246Zm0,3.095v-1.246h-10.3v1.246Zm0,1.849h-10.3v1.241h10.3Z" transform="translate(5.713 -536.511)" fill="#fff"/>
  <path id="Path_21413" data-name="Path 21413" d="M114.52,542.514v-3.73h3.205v3.73Z" transform="translate(28.774 -528.331)" fill="#fff"/>
  <path id="Path_21414" data-name="Path 21414" d="M125.875,551.839V550.6H128.8v1.242h7.275v2.888H128.8V556.7h8.8v2.883H117.077V556.7h8.8v-1.978h-7.183v-2.888Zm2.138-12.725h-2.934v1.458h2.566v5.583h-2.566v1.555h2.75V550.1h-9.938V536.759h10.122Zm-5.413,1.458v-1.458h-2.138v1.458Zm2.658,3.513v-1.453h-4.8v1.453Zm-2.658,2.07h-2.138v1.555H122.6Zm14.367-9.4v2.465a22.944,22.944,0,0,1-2.612,6.37,10.616,10.616,0,0,0,3.5,2.014l-1.5,3.2a11.937,11.937,0,0,1-3.914-2.911,16.394,16.394,0,0,1-3.178,2.382l-1.435-2.994a6.991,6.991,0,0,0,2.957-1.508,23.44,23.44,0,0,1-2.345-4.889l1.978-1.246h-1.886v-2.884Zm-4.364,6.852a15.873,15.873,0,0,0,1.55-3.969h-3.527A19.283,19.283,0,0,0,132.6,543.611Z" transform="translate(37.976 -535.618)" fill="#fff"/>
  <path id="Path_21415" data-name="Path 21415" d="M134.073,546.706V543.4h3.182v3.306h4.981v3.1h-4.981v7.855c0,1.8-.842,2.7-2.479,2.7h-4.093l-.524-3.523c2,.161,3.09.216,3.274.216.409,0,.639-.239.639-.74v-6.508h-7.027a36.523,36.523,0,0,1,4.185,3.835l-2.046,2.884a36.843,36.843,0,0,0-4.548-4.843l1.775-1.876h-4.346v-3.1Zm.087-7.432h7.528v5.794h-3v-2.805H125.612v2.805h-3v-5.794h7.823c-.184-.846-.363-1.586-.547-2.272l3.909-.428C133.936,537.476,134.05,538.373,134.161,539.274Z" transform="translate(55.931 -536.281)" fill="#fff"/>
  <path id="Path_21416" data-name="Path 21416" d="M134.125,537.961a47.923,47.923,0,0,1-2.7,7.041h2.888a36.9,36.9,0,0,1-1.977,10.554,1.389,1.389,0,0,0-.092.189c1.159,1.053,4.185,1.559,9.074,1.559.451,0,2.658-.055,6.664-.212l-.708,3.412c-4.18,0-6.273-.055-6.273-.11q-7.505,0-10.163-2.217a18.239,18.239,0,0,1-2.295,2.539l-1.6-3.017a7.7,7.7,0,0,0,2.047-2.038,24.738,24.738,0,0,1-1.794-5.61l2.318-.607a22.9,22.9,0,0,0,.865,3.229,31.527,31.527,0,0,0,.888-5.082h-3.891c1.09-2.244,2.069-4.415,2.934-6.535h-2.934v-3.095Zm4.617-.207v-1.219h2.75v1.219h4.98v3.73h1.067v2.7h-1.067v3.707h-4.98v1.03h5.344v2.594h-5.344v1.03h5.684v2.7h-5.684v1.642h-2.75v-1.642h-5.068v-2.7h5.068v-1.03h-4.162v-2.594h4.162v-1.03h-3.73v-2.566h3.73v-1.14h-5.068v-2.7h5.068v-1.141H135.1v-2.589Zm2.75,3.73h2.23v-1.141h-2.23Zm0,3.835h2.23v-1.14h-2.23Z" transform="translate(73.478 -536.425)" fill="#fff"/>
  <path id="Path_21417" data-name="Path 21417" d="M137.646,536.931c-.189.428-.345.8-.5,1.141h5.293v2a11.275,11.275,0,0,0,1.867-3.541l2.681.4c-.156.428-.317.8-.455,1.141h6.052v2.7h-3.21a14.265,14.265,0,0,1,.616,1.743l-2.842.317a11.187,11.187,0,0,0-.432-2.06h-1.481a18.506,18.506,0,0,1-1.269,2.06l-2.318-1.849c.064-.056.133-.138.2-.212h-2.364c.248.736.432,1.4.566,1.955l-2.658.318c-.092-.713-.207-1.481-.363-2.272h-1.251a17.5,17.5,0,0,1-1.591,2.378l-2.295-1.881a11.284,11.284,0,0,0,3.09-4.733Zm3.2,6.4v2.488h-2.837v2.272a25.96,25.96,0,0,0,2.837-.6l.138,1.136a7.079,7.079,0,0,0,.934-.451c-.271-.106-.5-.184-.708-.289l1.163-1.854c.34.106.7.239,1.113.4.069-.239.133-.473.184-.713h-2.207v-2.488h8.457v4.659c0,.372.115.529.34.529.294,0,.455-.322.455-.979v-.8l2.387.639c-.133,1.932-.455,3.013-.957,3.279a2.236,2.236,0,0,1-1.338.345h-1.251c-1.435,0-2.138-.74-2.138-2.276v-2.911h-1.343a9.346,9.346,0,0,1-.294,1.692c.432.212.888.451,1.366.685l-1.049,2.493c-.543-.35-1.067-.662-1.568-.98a6.658,6.658,0,0,1-1.476,1.187h.635v1.14h8.8V554.5h-6.208a9,9,0,0,0,1.752,1.086,19.116,19.116,0,0,0,4.976,1.508l-1.5,2.989a18.7,18.7,0,0,1-5.454-2.672,11.985,11.985,0,0,1-2.368-2.382V560.9h-2.842v-5.822a13.96,13.96,0,0,1-2.589,2.46,20.834,20.834,0,0,1-5.137,2.543l-1.228-2.989a17.722,17.722,0,0,0,6.135-2.594h-5.886v-2.566h8.705v-1.14h.934l-.658-1v.051a34.23,34.23,0,0,1-8.89,1.564l-.34-2.778c1.154,0,2.318-.055,3.454-.156V545.82H132.6v-2.488Z" transform="translate(91.296 -536.425)" fill="#fff"/>
  <path id="Path_21418" data-name="Path 21418" d="M145.863,559.721H143.02v-1.352h-3.182v1.352H137V547.2h8.867Zm8.365-22.939v8.784H139.2v-8.784ZM143.02,555.568v-5.477h-3.182v5.477Zm8.186-15.8h-8.982v2.778h8.982Zm5.229,19.95h-2.842v-1.352h-3.458v1.352h-2.842V547.2h9.142Zm-2.842-4.153v-5.477h-3.458v5.477Z" transform="translate(109.661 -535.536)" fill="#fff"/>
  <path id="Path_21419" data-name="Path 21419" d="M152.074,539.082a27.228,27.228,0,0,1-5.96.712v.74h5.868v2.382h-1.954v1.959h2.566l-1.067-1.035a3.719,3.719,0,0,0,1.159-2.884v-3.513a31.175,31.175,0,0,0,8.434-.934l.98,2.571a34.267,34.267,0,0,1-6.751.712v.74h6.93v2.382h-2.226v1.959h.363v11.98h-3.909c1.706.267,3.73.667,6.047,1.14l-.727,2.99a39.544,39.544,0,0,0-7.712-1.959l.731-2.17h-5.459l.819,2.17a17.988,17.988,0,0,1-7.455,1.959l-.819-2.99a24.875,24.875,0,0,0,6.705-1.14h-4.3V546.274c-.138.161-.253.322-.363.451l-2.207-2.171a5.463,5.463,0,0,0,1.683-4.231v-2.879a25.824,25.824,0,0,0,7.639-.934Zm-4.525,5.794v-1.959H145.82a8.978,8.978,0,0,1-.658,1.959Zm9.933,3.624v-1.136h-10.2V548.5Zm0,2.883v-1.035h-10.2v1.035Zm0,1.849h-10.2v1.141h10.2Zm0-8.356v-1.959h-2.341a6.911,6.911,0,0,1-.658,1.959Z" transform="translate(126.852 -536.511)" fill="#fff"/>
</svg>
