<svg xmlns="http://www.w3.org/2000/svg" width="244.932" height="244.932" viewBox="0 0 244.932 244.932">
  <g id="section7_imgicon4_lg" transform="translate(-13222.437 -8353.728)">
    <circle id="Ellipse_6" data-name="Ellipse 6" cx="122.466" cy="122.466" r="122.466" transform="translate(13222.437 8598.659) rotate(-90)" fill="#fff"/>
    <g id="Group_144" data-name="Group 144" transform="translate(13274.616 8394.443)">
      <g id="Group_143" data-name="Group 143">
        <path id="Path_764" data-name="Path 764" d="M292.774,2202.465c-1.949,1.892-4.7,2.8-8.287,2.8h-6.064v-24.048h6a11.331,11.331,0,0,1,8.225,2.95c2.161,2.146,3.275,5.2,3.275,9.131Q295.925,2199.412,292.774,2202.465Zm-8.66-17.02h-1.731v15.6h2.938c4.3,0,6.463-2.581,6.463-7.748C291.785,2188.063,289.214,2185.445,284.114,2185.445Z" transform="translate(-278.424 -2181.221)" fill="#72adb6"/>
        <path id="Path_765" data-name="Path 765" d="M294.71,2197.741a6.408,6.408,0,0,1-5.26,2.513,6.276,6.276,0,0,1-5.286-2.55,9.668,9.668,0,0,1-1.949-6.287,9.949,9.949,0,0,1,1.98-6.37,6.282,6.282,0,0,1,5.255-2.507,6.465,6.465,0,0,1,5.286,2.58,11.131,11.131,0,0,1-.026,12.62Zm-2.7-9.671a2.94,2.94,0,0,0-2.565-1.529,2.8,2.8,0,0,0-2.534,1.42,6.326,6.326,0,0,0-.9,3.457,6.028,6.028,0,0,0,.834,3.342,2.866,2.866,0,0,0,2.6,1.494,2.915,2.915,0,0,0,2.565-1.494,6.112,6.112,0,0,0,.866-3.342A6.3,6.3,0,0,0,292.015,2188.07Z" transform="translate(-262.568 -2175.699)" fill="#72adb6"/>
        <path id="Path_766" data-name="Path 766" d="M291.361,2186.5a1.616,1.616,0,0,0-1.518.986,4.041,4.041,0,0,0-.492,2.067v10.189H285.8V2187.49c0-.84-.124-2.369-.373-4.55h3.68v1.093a3.03,3.03,0,0,1,2.415-1.492,6.317,6.317,0,0,1,1.855.363v4.072A7.315,7.315,0,0,0,291.361,2186.5Z" transform="translate(-249.155 -2175.699)" fill="#72adb6"/>
        <path id="Path_767" data-name="Path 767" d="M303.7,2199.812V2189.08c0-1.711-.741-2.582-2.229-2.582-1.545,0-2.285,1.16-2.285,3.457v9.856h-3.555V2188.97c0-1.632-.741-2.471-2.2-2.471a1.958,1.958,0,0,0-1.793,1.057,4.636,4.636,0,0,0-.554,2.4v9.856h-3.524v-12.334c0-.907-.093-2.436-.28-4.544H290.9l.062.946a3.456,3.456,0,0,1,2.938-1.346,4.665,4.665,0,0,1,3.835,1.964,5.321,5.321,0,0,1,4.141-1.964,4.731,4.731,0,0,1,4.084,2.036,8.726,8.726,0,0,1,1.265,4.981v10.261Z" transform="translate(-241.375 -2175.729)" fill="#72adb6"/>
        <path id="Path_768" data-name="Path 768" d="M300.142,2199.849V2198.8a4.078,4.078,0,0,1-3.25,1.45,5.234,5.234,0,0,1-3.768-1.419,5.451,5.451,0,0,1-1.581-4.11,5.245,5.245,0,0,1,2.379-4.8,8.885,8.885,0,0,1,4.887-1.2h1.177c-.031-1.457-.71-2.218-2.042-2.218a2.055,2.055,0,0,0-2.223,2h-3.773a6.874,6.874,0,0,1,1.855-4.437,6.465,6.465,0,0,1,8.256-.077,6.247,6.247,0,0,1,1.576,4.586v6.732a32.566,32.566,0,0,0,.373,4.545Zm-1.3-7.42c-2.41,0-3.586.729-3.586,2.108a1.6,1.6,0,0,0,.586,1.311,1.981,1.981,0,0,0,1.332.472c1.762,0,2.721-1.275,2.845-3.891Z" transform="translate(-223.549 -2175.729)" fill="#72adb6"/>
        <path id="Path_769" data-name="Path 769" d="M303.363,2205.269l-5.26-6.147v6.147h-3.68v-24.048h3.68v11.9l4.208-4.689h5.379l-7.141,7.492,7.758,9.351Z" transform="translate(-211.508 -2181.221)" fill="#72adb6"/>
        <path id="Path_770" data-name="Path 770" d="M305.9,2199.849V2198.8a4.075,4.075,0,0,1-3.244,1.45,5.246,5.246,0,0,1-3.773-1.419,5.467,5.467,0,0,1-1.576-4.11,5.245,5.245,0,0,1,2.379-4.8,8.873,8.873,0,0,1,4.887-1.2h1.171c-.026-1.457-.71-2.218-2.037-2.218a2.06,2.06,0,0,0-2.228,2h-3.773a6.877,6.877,0,0,1,1.861-4.437,6.458,6.458,0,0,1,8.251-.077,6.227,6.227,0,0,1,1.581,4.586v6.732a33.3,33.3,0,0,0,.368,4.545Zm-1.3-7.42c-2.41,0-3.586.729-3.586,2.108a1.6,1.6,0,0,0,.586,1.311,1.973,1.973,0,0,0,1.332.472c1.762,0,2.721-1.275,2.84-3.891Z" transform="translate(-199.441 -2175.729)" fill="#72adb6"/>
        <path id="Path_771" data-name="Path 771" d="M312.739,2203.13a5.568,5.568,0,0,1-4.913,2.58,4.118,4.118,0,0,1-3.773-1.783c0,.291-.031.731-.031,1.348h-3.835c.244-2.513.4-4.073.4-4.691v-19.356h3.68v7.822a6.234,6.234,0,0,1,3.462-1.053,5.711,5.711,0,0,1,4.975,2.761,11.519,11.519,0,0,1,1.576,6.256A11.027,11.027,0,0,1,312.739,2203.13Zm-2.939-9.495a2.566,2.566,0,0,0-2.316-1.6,2.7,2.7,0,0,0-2.472,1.488,6.558,6.558,0,0,0-.741,3.275c0,3.275,1.14,4.872,3.431,4.872a2.321,2.321,0,0,0,2.161-1.6,8.26,8.26,0,0,0-.062-6.436Z" transform="translate(-187.4 -2181.191)" fill="#72adb6"/>
        <path id="Path_772" data-name="Path 772" d="M311.856,2199.849V2198.8a4.078,4.078,0,0,1-3.249,1.45,5.235,5.235,0,0,1-3.768-1.419,5.468,5.468,0,0,1-1.575-4.11,5.245,5.245,0,0,1,2.379-4.8,8.862,8.862,0,0,1,4.887-1.2H311.7c-.031-1.457-.71-2.218-2.037-2.218a2.06,2.06,0,0,0-2.228,2h-3.773a6.876,6.876,0,0,1,1.855-4.437,6.465,6.465,0,0,1,8.256-.077,6.225,6.225,0,0,1,1.576,4.586v6.732a32.563,32.563,0,0,0,.373,4.545Zm-1.3-7.42c-2.41,0-3.581.729-3.581,2.108a1.58,1.58,0,0,0,.586,1.311,1.968,1.968,0,0,0,1.327.472c1.767,0,2.721-1.275,2.85-3.891Z" transform="translate(-174.534 -2175.729)" fill="#72adb6"/>
        <path id="Path_773" data-name="Path 773" d="M305.379,2187.776v2.769h-7.945v.563h9.7v5.66h-2.659V2194h-7.043v5.757H294.6V2194H287.66v2.771H285v-5.66h9.6v-.563h-7.852v-2.769Zm-.4,22.478h-7.82c.047.586.2.881.451.881.125.12.477.151,1.052.151,2.757,0,4.136,0,4.136-.058a8.968,8.968,0,0,0,1.581-.151c.549-.03.9-.647,1.1-1.854l2.431,1.264a5.652,5.652,0,0,1-1.4,3.068,5.558,5.558,0,0,1-1.933.416c-1.98.113-3.959.207-5.913.207h-.954a4.339,4.339,0,0,1-1.653-.3c-1.176-.051-1.757-1.058-1.757-3.068v-.555h-5.084v1.264h-2.736v-10.825h18.5ZM294,2194.706v2.42h-5.965v-2.42Zm0,2.98v2.42h-5.965v-2.42Zm.3,6.576v-.829h-5.084v.829Zm0,3.218v-.8h-5.084v.8Zm2.835-3.218h5.115v-.829h-5.115Zm0,3.218h5.115v-.8h-5.115ZM304,2194.706v2.42h-6.167v-2.42Zm0,2.98v2.42h-6.167v-2.42Z" transform="translate(-250.916 -2153.805)" fill="#72adb6"/>
        <path id="Path_774" data-name="Path 774" d="M310.738,2187.952v3.125a33.58,33.58,0,0,1-8.52,6.7v.8h9.6v3.333h-9.6v7.728c0,1.6-.28,2.6-.777,3.068a3.852,3.852,0,0,1-2.835.856,15.188,15.188,0,0,1-2.757-.24l-.477-3.8a9.461,9.461,0,0,0,3.234.555.763.763,0,0,0,.523-.2,2.879,2.879,0,0,0,.156-1.15V2201.9h-9.4v-3.333h9.4v-3.924l1.451.177a27.548,27.548,0,0,0,5.338-3.508H292.039v-3.364Z" transform="translate(-230.496 -2153.069)" fill="#72adb6"/>
        <path id="Path_775" data-name="Path 775" d="M301.239,2188.646c-.073.182-.15.358-.228.533a25.435,25.435,0,0,1,3.664,2.68l-1.855,2.778a30.953,30.953,0,0,0-3.187-2.829c-.249.377-.471.73-.7,1.088a20.212,20.212,0,0,1-1.451,1.98h5.913v2.975h-2.254v2.187H304v3.006h-2.856v6.52c1-.15,1.954-.326,2.856-.533l.3,2.243a15.34,15.34,0,0,0,3.187-1.766h-2.332V2193.6h4.711v-5.892H312.7v5.892h4.312v15.907h-2.358a10.72,10.72,0,0,0,1.353,1.118,9.656,9.656,0,0,0,1.783,1.062l-1.959,2.888a19.744,19.744,0,0,1-1.8-1.416,14.287,14.287,0,0,1-1.9-2.15l1.55-1.5h-5.063l1.555,1.5a18.317,18.317,0,0,1-4.815,3.566l-1.2-2.6c-2.56.649-5.343,1.244-8.4,1.772l-.98-3.213c1.28-.175,2.483-.353,3.638-.533v-6.96h-2.933v-3.006h2.933v-2.187h-2.156V2196.2c-.15.151-.306.269-.4.388l-1.254-2.861a17.894,17.894,0,0,0,4.011-6.016Zm-3.032,19.59-2.26,1.145a30.8,30.8,0,0,0-1.078-4.156l2.161-1.151A34.047,34.047,0,0,1,298.207,2208.236Zm6.67-3.922c-.378,1.709-.726,3.124-1.078,4.275l-2.358-.824c.4-1.389.726-2.773.98-4.13Zm4.312-12.455-2.659,1.515a18.263,18.263,0,0,0-1.28-3.338l2.457-1.39A17.43,17.43,0,0,1,309.189,2191.859Zm5.089,5.992v-1.265h-6.369v1.265Zm0,4.28v-1.39h-6.369v1.39Zm0,4.365v-1.5h-6.369v1.5Zm2.83-17.051a22.072,22.072,0,0,1-1.477,3.929l-2.534-1.627a20.983,20.983,0,0,0,1.379-3.337Z" transform="translate(-210.788 -2154.089)" fill="#72adb6"/>
      </g>
    </g>
    <rect id="Rectangle_68" data-name="Rectangle 68" width="177.459" height="1.893" transform="translate(13256.173 8468.809)" fill="#72adb6"/>
    <g id="Group_145" data-name="Group 145" transform="translate(13255.975 8484.455)">
      <path id="Path_776" data-name="Path 776" d="M278.434,2202.437v-3.55c0-.155.1-.229.306-.229.922,0,1.394.074,1.394.229,0,.171-.073.265-.187.286s-.171.149-.171.379v2.886h2.493c.15,0,.228.1.228.284v.586c0,.208-.078.307-.228.307h-2.358a13.526,13.526,0,0,0,1.093,2.15,10.309,10.309,0,0,0,2.063,2.441.24.24,0,0,1,.166.208c0,.037-.052.094-.13.15a3.1,3.1,0,0,1-.549.565c-.073.114-.15.175-.207.175a.448.448,0,0,1-.3-.156,10.517,10.517,0,0,1-1.777-2.3,8.205,8.205,0,0,1-.492-.928v9.51c0,.15-.114.223-.3.223h-.736c-.207,0-.306-.072-.306-.223v-7.92c-.285.68-.586,1.323-.886,1.886a13.97,13.97,0,0,1-1.4,2.271.385.385,0,0,1-.321-.114,6.988,6.988,0,0,1-.834-.393c-.114,0-.166-.022-.166-.079a17.887,17.887,0,0,0,1.757-2.627,17.265,17.265,0,0,0,1.037-2.362,22.533,22.533,0,0,0,.7-2.473h-2.757c-.15,0-.228-.1-.228-.307v-.586c0-.185.078-.284.228-.284Zm13-3.171c.187,0,.285.079.285.207v15.953c0,.15-.1.223-.285.223H290.7c-.207,0-.3-.072-.3-.223v-.814h-5.54v.814c0,.15-.114.223-.3.223h-.736c-.192,0-.285-.072-.285-.223v-15.874a.251.251,0,0,1,.285-.286Zm-1.036,4.856v-3.686h-5.54v3.686Zm0,4.649v-3.458h-5.54v3.458Zm0,4.665v-3.472h-5.54v3.472Z" transform="translate(-274.827 -2198.301)" fill="#72adb6"/>
      <path id="Path_777" data-name="Path 777" d="M282.144,2200.876v-1.928c0-.155.093-.228.3-.228.928,0,1.4.073,1.4.228,0,.172-.057.265-.171.286-.129.016-.187.149-.187.379v1.264h2.949c.15,0,.223.093.223.285v.586c0,.207-.072.3-.223.3h-2.949v1.4h2.565c.192,0,.306.077.306.228v6.12c0,.151-.114.229-.306.229h-2.565v1.32h3.022c.15,0,.228.114.228.3v.584c0,.207-.078.306-.228.306h-3.022v3.021c0,.151-.114.229-.306.229h-.736c-.207,0-.3-.078-.3-.229v-3.021h-2.949c-.15,0-.228-.1-.228-.306v-.584c0-.187.078-.3.228-.3h2.949v-1.32h-2.57c-.207,0-.306-.079-.306-.229v-6.12c0-.151.1-.228.306-.228h2.57v-1.4h-2.876c-.15,0-.223-.095-.223-.3v-.586c0-.191.072-.285.223-.285Zm0,5.385v-1.7h-1.684v1.7Zm0,1.021h-1.684v1.627h1.684Zm1.342-1.021h1.7v-1.7h-1.7Zm1.7,1.021h-1.7v1.627h1.7Zm9.583.078a.318.318,0,0,1-.171.316.374.374,0,0,0-.186.342,14.861,14.861,0,0,1-.8,2.306,9.321,9.321,0,0,1-1.078,2.084,3.657,3.657,0,0,0,.663.586,7.515,7.515,0,0,0,1.757,1.057c.342.109.741.244,1.156.358.093.035.15.077.15.114a.269.269,0,0,1-.093.227,5.121,5.121,0,0,0-.643.716.365.365,0,0,1-.3.172,6.577,6.577,0,0,1-2.026-1.042,15.124,15.124,0,0,1-1.4-1.244,6.54,6.54,0,0,1-1.057.963,15.175,15.175,0,0,1-2.684,1.473.658.658,0,0,1-.394-.093c-.192-.264-.4-.509-.586-.735a.389.389,0,0,1-.135-.286,8.153,8.153,0,0,0,2.493-1.114,5.1,5.1,0,0,0,1.285-.963,1.657,1.657,0,0,0,.207-.285c-.207-.265-.373-.514-.529-.756a8.091,8.091,0,0,1-.865-1.793,15.287,15.287,0,0,1-.586-2.4,4.453,4.453,0,0,1,.964-.513c.036,0,.093.058.13.156a5.077,5.077,0,0,0,.306,1.751,5.677,5.677,0,0,0,.715,1.648,9.245,9.245,0,0,0,.57.892c.207-.347.415-.705.6-1.079a11.682,11.682,0,0,0,.7-1.778c.093-.492.192-1.02.285-1.59,0-.093.021-.151.072-.151A6.2,6.2,0,0,1,294.768,2207.359Zm-3.628-3.9c.109.077.171.151.171.212,0,.146-.114.223-.306.223a.364.364,0,0,0-.285.135,8.282,8.282,0,0,1-.736,1.093,7.062,7.062,0,0,1-.643.776c-.264.265-.508.508-.757.716a7.478,7.478,0,0,1-.6.456.283.283,0,0,1-.264-.17,3.767,3.767,0,0,0-.513-.623c-.13-.058-.192-.114-.192-.17,0-.016,0-.037.041-.058a5.389,5.389,0,0,0,.871-.549,6.571,6.571,0,0,0,.922-.979,3.679,3.679,0,0,0,.534-.741,4.988,4.988,0,0,0,.394-.829.187.187,0,0,1,.135-.095Zm1.643-4.593c0,.172-.078.265-.187.285-.135.022-.192.151-.192.379v1.342h3.4c.156,0,.228.093.228.285v.586c0,.207-.073.3-.228.3h-7.82c-.15,0-.228-.095-.228-.3v-.586c0-.191.078-.285.228-.285h3.1v-2.006c0-.15.093-.227.3-.227C292.312,2198.643,292.784,2198.719,292.784,2198.87Zm2.534,5.732c.472.524.886,1.016,1.228,1.432a.418.418,0,0,1-.1.149c-.373.555-.565.819-.565.819a17.123,17.123,0,0,0-1.684-1.856,9.247,9.247,0,0,0-1.187-.963,3.886,3.886,0,0,1,.565-.829.227.227,0,0,1,.171-.114A15.119,15.119,0,0,1,295.318,2204.6Z" transform="translate(-257.511 -2198.364)" fill="#72adb6"/>
      <path id="Path_778" data-name="Path 778" d="M289.188,2199.567a.147.147,0,0,1-.156.165.609.609,0,0,0-.435.208,24.93,24.93,0,0,1-1.472,3.383v12.269c0,.15-.114.223-.3.223h-.736c-.213,0-.306-.072-.306-.223v-10.174c-.456.607-1,1.306-1.684,2.125a.544.544,0,0,1-.394-.177l-.586-.465a.316.316,0,0,1-.135-.249c.529-.6,1.062-1.265,1.607-1.964a16.391,16.391,0,0,0,1.835-3.027,19.783,19.783,0,0,0,1.057-2.912c.036-.074.078-.131.15-.131A6.538,6.538,0,0,1,289.188,2199.567Zm7.463,11.448v-.072a3.961,3.961,0,0,0-.078-.83.893.893,0,0,1-.072-.362c0-.073.114-.135.358-.135l1.492.192c.135.076.207.128.207.166,0,.119-.073.17-.228.17-.244.114-.358.4-.358.87h2.513c.135,0,.207.1.207.285v.6c0,.191-.073.286-.207.286h-2.513v2.362c0,.892-.679,1.343-2,1.343H294.8c-.114,0-.156-.114-.156-.321a2.842,2.842,0,0,0-.358-.871c0-.109.036-.151.13-.151a7.563,7.563,0,0,0,1.42.151c.529,0,.814-.228.814-.664v-1.85h-7.39c-.15,0-.228-.095-.228-.286v-.6c0-.185.078-.285.228-.285Zm-2.441-11.147v-1.042c0-.128.1-.207.285-.207.949,0,1.42.079,1.42.207,0,.172-.078.265-.192.286-.129.016-.186.149-.186.377v.379h4.721c.155,0,.228.115.228.3v.586c0,.186-.073.285-.228.285h-4.721v1.037h3.985c.192,0,.3.079.3.229v4.953c0,.151-.109.207-.3.207h-.772c.244.265.451.493.643.679.358.472.679.892.943,1.25l-.093.128c-.378.514-.565.758-.565.758-.228-.342-.477-.663-.7-.965-.643.037-1.285.079-1.943.115-2.27.149-4.576.321-6.955.471-.114.344-.212.509-.306.528a.233.233,0,0,1-.187-.109l-.472-1.59c.679-.021,2.384-.093,5.1-.208v-1.058H290.3c-.207,0-.3-.056-.3-.207V2202.3c0-.15.093-.229.3-.229h3.913v-1.037h-4.571c-.15,0-.228-.1-.228-.285v-.586c0-.185.078-.3.228-.3Zm-1.793,13.754c.342.327.643.591.907.851a.533.533,0,0,1-.093.156c-.378.492-.565.736-.565.736a15.155,15.155,0,0,0-1.213-1.12,7.317,7.317,0,0,0-.871-.581,3.442,3.442,0,0,1,.529-.756c.042-.078.1-.114.135-.114A11.4,11.4,0,0,1,292.416,2213.621Zm1.793-9.411v-1.016h-2.887v1.016Zm0,1.12h-2.887v1.036h2.887Zm1.327-1.12h2.949v-1.016h-2.949Zm2.949,1.12h-2.949v1.036h2.949Zm-.964,2.508a1.252,1.252,0,0,1,.228-.374h-2.213v1c.606-.042,1.264-.058,1.943-.094.228,0,.42-.02.606-.037C297.863,2208.123,297.671,2207.958,297.521,2207.838Z" transform="translate(-240.71 -2198.468)" fill="#72adb6"/>
      <path id="Path_779" data-name="Path 779" d="M289.548,2210.323a.287.287,0,0,1-.129.227.514.514,0,0,0-.228.342,26.2,26.2,0,0,1-.394,2.722c-.114.393-.228.793-.363,1.229-.057.077-.093.133-.13.133a5.752,5.752,0,0,0-1.021-.263c-.114-.042-.156-.1-.156-.172a12.706,12.706,0,0,0,.549-1.741,16.781,16.781,0,0,0,.378-2.722c0-.128.057-.206.171-.206C289.1,2210.077,289.548,2210.234,289.548,2210.323ZM292.5,2199.4c.057.128.1.206.1.206,0,.109-.114.167-.322.167-.306,0-.492.076-.57.211-.6.963-1.192,1.834-1.721,2.607.456.413.891.829,1.342,1.285l.021-.021c.72-.979,1.342-1.886,1.83-2.7a8.311,8.311,0,0,1,1.327,1.188c0,.1-.078.135-.228.135-.3,0-.492.056-.565.149-1.177,1.664-2.306,3.176-3.421,4.556.752-.057,1.664-.135,2.721-.223-.156-.377-.321-.761-.492-1.139,0-.073.321-.286.964-.6.3.7.565,1.343.757,1.929.187.524.337,1.093.492,1.7a4.393,4.393,0,0,1-1.12.356,9.764,9.764,0,0,0-.337-1.434v-.021l-1.643.348v7.54c0,.146-.114.224-.306.224h-.736c-.192,0-.285-.079-.285-.224v-7.26l-2.228.472a2.76,2.76,0,0,1-.513.513,7.486,7.486,0,0,1-.373-1.778,6.458,6.458,0,0,1,1.472-.248c.829-1.016,1.529-1.929,2.1-2.685-.741-.606-1.285-1.058-1.643-1.318a12.221,12.221,0,0,0-1.783-.988c0-.109.27-.435.8-.979a.2.2,0,0,1,.171-.135c.264.186.508.379.772.59.342-.476.643-.948.907-1.4.492-.809.834-1.415,1.057-1.829Zm1.042,10.618a25,25,0,0,1,1.037,3.25c0,.135-.373.264-1.094.384-.15,0-.207-.042-.207-.156a28.027,28.027,0,0,0-.757-3.249c0-.116.321-.229.964-.379C293.5,2209.872,293.518,2209.929,293.539,2210.021Zm5.255-1.778c0,.135-.057.212-.171.212a.491.491,0,0,0-.207.472v.737a14.99,14.99,0,0,1-.135,1.755,5.947,5.947,0,0,1-.508,1.877,6.328,6.328,0,0,1-1.005,1.451,8.152,8.152,0,0,1-1.451,1.187c-.078,0-.135-.053-.213-.167a3.7,3.7,0,0,0-.58-.528c-.114-.078-.176-.135-.176-.193a7.965,7.965,0,0,0,1.42-1.108,4.068,4.068,0,0,0,.72-1.083,6.355,6.355,0,0,0,.472-1.565,11.087,11.087,0,0,0,.129-1.627v-1.478c0-.15.021-.229.078-.229A10.4,10.4,0,0,1,298.794,2208.243Zm1.829-9.374c0,.19-.052.285-.166.285-.135.02-.192.151-.192.4v1.606h4.141c.078,0,.129.074.129.229v.586c0,.207-.052.3-.129.3h-4.84c-.7,1.664-1.207,2.85-1.55,3.591,1.208-.114,2.477-.265,3.778-.414-.3-.685-.6-1.307-.865-1.856,0-.114.264-.321.814-.586a.319.319,0,0,1,.223.079,42.689,42.689,0,0,1,2.135,4.421c0,.186-.036.305-.114.305a2.094,2.094,0,0,1-1.057.43c-.244-.622-.472-1.213-.679-1.736-2.115.306-4.12.544-5.97.721-.135,0-.228.088-.285.258-.036.326-.129.472-.3.472s-.435-.6-.819-1.85c.213,0,.627-.016,1.234-.073a3.2,3.2,0,0,0,.435-.041c.057-.15.114-.279.186-.435.549-1.187,1.021-2.287,1.436-3.286h-3.213c-.109,0-.15-.094-.15-.3v-.586c0-.155.041-.229.15-.229h3.991v-2.289c0-.131.093-.208.28-.208C300.152,2198.661,300.623,2198.739,300.623,2198.869Zm1.042,9.447a.763.763,0,0,1-.15.383v5.386c0,.191.036.3.15.3h1.192c.228,0,.435-.644.663-1.928l1.171.741c-.4,1.623-.891,2.441-1.477,2.441h-2.063c-.643,0-.964-.306-.964-.89v-6.505c0-.128.041-.206.156-.206C301.214,2208.115,301.665,2208.208,301.665,2208.317Z" transform="translate(-223.378 -2198.589)" fill="#72adb6"/>
      <path id="Path_780" data-name="Path 780" d="M298.409,2198.716c.187,0,.3.077.3.228v6.048a.269.269,0,0,1-.3.3h-5.669v9.96c0,.151-.114.228-.3.228H291.7c-.207,0-.3-.077-.3-.228v-16.309c0-.151.093-.228.3-.228Zm-1.021,2.726v-1.613h-4.649v1.613Zm0,2.737v-1.623h-4.649v1.623Zm8.919-5.463c.249,0,.378.077.378.228v14.593a1.58,1.58,0,0,1-.85,1.416,6.528,6.528,0,0,1-2.1.528.222.222,0,0,1-.244-.228,3.539,3.539,0,0,0-.42-1.191c0-.072.062-.109.176-.109a3.936,3.936,0,0,0,1.793-.228.8.8,0,0,0,.322-.721v-7.71h-5.178c-.192,0-.285-.094-.285-.3v-6.048c0-.151.093-.228.285-.228Zm-.943,2.726v-1.613h-4.141v1.613Zm0,2.737v-1.623h-4.141v1.623Z" transform="translate(-205.522 -2198.058)" fill="#72adb6"/>
      <path id="Path_781" data-name="Path 781" d="M300.62,2199.293c.114.093.187.171.187.228,0,.151-.13.223-.373.223a.41.41,0,0,0-.342.151,9.755,9.755,0,0,0,3.229,3.026.278.278,0,0,1-.13.265c-.171.151-.4.357-.684.627a.286.286,0,0,1-.15-.063,6.286,6.286,0,0,1-1.285-1,17.348,17.348,0,0,1-1.565-1.929,8.071,8.071,0,0,1-.472.679,6.889,6.889,0,0,1-.855,1.079c-.358.377-.7.734-1.036,1.036a4.355,4.355,0,0,1-.85.626.339.339,0,0,1-.285-.17,3.052,3.052,0,0,0-.549-.658c-.13-.078-.187-.137-.187-.193,0-.02.016-.036.057-.072a8.114,8.114,0,0,0,1.187-.8,10.957,10.957,0,0,0,1.306-1.358,6.9,6.9,0,0,0,.72-1.041,9.461,9.461,0,0,0,.544-1.172c.062-.1.114-.149.171-.149Zm1.513,4.587c.093,0,.145.078.145.229v.59c0,.186-.052.279-.145.279h-1.99v2.364h2.5c.093,0,.15.077.15.228v.581c0,.212-.057.306-.15.306h-2.5v4.934c.855-.15,1.669-.3,2.456-.476a.527.527,0,0,1,.114-.033c.1,0,.155.073.155.224a3.307,3.307,0,0,1-.078.963q-3.009.513-6.121.969c-.192.338-.321.508-.435.508s-.342-.5-.679-1.478c.907-.088,2.021-.244,3.322-.471v-5.142h-2.586c-.1,0-.135-.093-.135-.306v-.581c0-.151.036-.228.135-.228h2.586v-2.364h-1.985c-.109,0-.15-.093-.15-.279v-.59c0-.151.041-.229.15-.229Zm-4.348,7.374c.187.493.358,1.016.508,1.551a3.636,3.636,0,0,1-1.187.377,9.941,9.941,0,0,0-.342-1.306,12.852,12.852,0,0,0-.757-1.792c0-.079.321-.265.964-.586C297.293,2210.14,297.558,2210.725,297.785,2211.253Zm5.084-1.4c.15.073.228.151.228.229a.17.17,0,0,1-.135.149c-.093,0-.15.056-.171.17a11.319,11.319,0,0,1-.814,1.886c-.073.12-.114.156-.15.156a.448.448,0,0,1-.264-.1,6.641,6.641,0,0,1-.622-.285l-.135-.051a.133.133,0,0,1,.041-.114,6.24,6.24,0,0,0,.544-1.057,5.434,5.434,0,0,0,.42-1.177c.015-.109.052-.166.093-.166Zm6.121-10.925c0,.172-.057.265-.166.285-.135.022-.192.15-.192.378v3.249h3.327c.187,0,.28.079.28.229v9.675c0,.156-.093.207-.28.207h-1.4a11.836,11.836,0,0,0,2.42,2.006.428.428,0,0,1-.114.207,4.085,4.085,0,0,1-.549.809,15.318,15.318,0,0,1-2.721-2.281s.207-.248.622-.72l.021-.021H306.29c.529.471.793.741.793.819s-.073.128-.207.128c-.249,0-.378.037-.378.089a13.473,13.473,0,0,1-2.664,1.985.264.264,0,0,1-.285-.165,1.64,1.64,0,0,0-.415-.478.38.38,0,0,1-.114-.223.145.145,0,0,1,.114-.151,13.446,13.446,0,0,0,1.322-.793,6.551,6.551,0,0,0,1.306-1.213h-1.415c-.192,0-.285-.051-.285-.207v-9.675c0-.151.093-.229.285-.229h2.944v-3.912c0-.151.093-.227.3-.227C308.519,2198.7,308.99,2198.779,308.99,2198.929Zm-3.7,1.212c.3.4.581.751.829,1.078a.426.426,0,0,1-.093.171c-.415.58-.643.867-.643.867a13.013,13.013,0,0,0-1.135-1.451,5.179,5.179,0,0,0-.793-.762,3.26,3.26,0,0,1,.586-.831c.057-.076.114-.134.15-.134C304.627,2199.464,304.984,2199.821,305.29,2200.142Zm5.706,5.727v-1.911h-5.69v1.911Zm0,2.964v-1.85h-5.69v1.85Zm0,1.095h-5.69v1.927H311Zm1.534-10.335c.145.079.244.151.244.229s-.078.129-.212.146c-.187,0-.3.062-.337.175a7.693,7.693,0,0,1-1.415,1.887.417.417,0,0,1-.269.151.424.424,0,0,1-.264-.088c-.228-.1-.451-.2-.643-.286-.073-.02-.114-.042-.114-.062,0-.037.021-.072.078-.109a7.75,7.75,0,0,0,1.042-1.058,3.853,3.853,0,0,0,.751-1.176c.062-.108.114-.165.192-.165Z" transform="translate(-189.315 -2198.423)" fill="#72adb6"/>
      <path id="Path_782" data-name="Path 782" d="M301.771,2203.474a3.94,3.94,0,0,1-1.208,1.321l-.492-.549a2.938,2.938,0,0,0,1.264-2.157h-1.4v-2.264h2.27v2.078A3.274,3.274,0,0,1,301.771,2203.474Z" transform="translate(-169.808 -2193.42)" fill="#72adb6"/>
      <path id="Path_783" data-name="Path 783" d="M317.634,2198.8c.135,0,.207.109.207.3v.581c0,.207-.073.305-.207.305h-7.085v.078l-.021,1.474h5.177c.187,0,.3.072.3.227v7.443c0,.156-.114.228-.3.228h-.736c-.207,0-.3-.072-.3-.228v-.5h-4.255a5.491,5.491,0,0,1-.186,1,4.3,4.3,0,0,1-.985,1.964,2.623,2.623,0,0,0-.192.228c.192.088.363.188.549.263a12.338,12.338,0,0,0,2.555.872,27.757,27.757,0,0,0,3.265.523,22.155,22.155,0,0,0,2.648.151.678.678,0,0,1-.15.327c-.135.3-.264.581-.378.865-.041.15-.078.228-.135.228-1.171-.093-2.192-.208-3.042-.321a21.733,21.733,0,0,1-2.684-.565,16.716,16.716,0,0,1-2.664-.979,5.493,5.493,0,0,1-.907-.514c-.207.167-.415.317-.643.472a14.245,14.245,0,0,1-3.234,1.551,7.828,7.828,0,0,1-1.586.356.246.246,0,0,1-.228-.186,5.978,5.978,0,0,0-.529-.907c-.093-.042-.129-.078-.129-.1,0-.072.036-.094.114-.094a14.225,14.225,0,0,0,2.529-.569,8,8,0,0,0,2.135-1,2.961,2.961,0,0,0,.513-.314,9.563,9.563,0,0,1-1.456-1.778,5.251,5.251,0,0,1,1.171-.456,4.266,4.266,0,0,0,1.156,1.4l.016.016a.357.357,0,0,0,.15-.167,2.626,2.626,0,0,0,.72-1.326,3.791,3.791,0,0,0,.244-.938h-4.042v.5c0,.156-.114.228-.3.228h-.741c-.207,0-.3-.072-.3-.228v-7.371a.267.267,0,0,1,.3-.3h5.219l.016-.965v-.586h-7.084c-.15,0-.207-.1-.207-.305v-.581c0-.191.057-.3.207-.3Zm-8.489,5.764.026-1.856h-4.161v1.856Zm-.016,2.943.016-1.756h-4.136v1.756Zm1.342,0h4.2v-1.756h-4.182Zm.016-2.943h4.182v-1.856h-4.162Z" transform="translate(-162.179 -2197.703)" fill="#72adb6"/>
      <path id="Path_784" data-name="Path 784" d="M319.42,2198.672c.192,0,.306.078.306.228v11.662h2.944c.156,0,.228.113.228.3v.586c0,.208-.073.3-.228.3H305.982c-.15,0-.223-.094-.223-.3v-.586c0-.191.073-.3.223-.3h3.177v-11.584a.272.272,0,0,1,.3-.306Zm-7.162,14.288c.093.12.15.193.15.27,0,.037-.072.079-.187.079a1.144,1.144,0,0,0-.456.109,14.752,14.752,0,0,1-1.586,1.134,25.638,25.638,0,0,1-2.571,1.193.3.3,0,0,1-.3-.156c-.269-.208-.492-.374-.663-.524-.114-.042-.15-.1-.15-.134s.036-.074.114-.093a6.745,6.745,0,0,0,1.228-.416,10.6,10.6,0,0,0,1.793-.984,13.738,13.738,0,0,0,1.456-1.15.194.194,0,0,1,.135-.1Zm6.126-11.333v-1.761h-7.9v1.761Zm0,2.964v-1.778h-7.9v1.778Zm0,3.1v-1.928h-7.9v1.928Zm0,2.871v-1.7h-7.9v1.7Zm1.208,3.01a15.145,15.145,0,0,0,2.363.979c.135.077.207.149.207.228a4.132,4.132,0,0,1-.814.965.867.867,0,0,1-.264-.058,20,20,0,0,1-4.327-2.591c-.093-.079-.135-.136-.135-.171,0-.116.27-.4.814-.886A14.119,14.119,0,0,0,319.591,2213.572Z" transform="translate(-145.453 -2198.242)" fill="#72adb6"/>
      <path id="Path_785" data-name="Path 785" d="M276.335,2220.6c0,.145-.114.223-.306.223h-.736c-.187,0-.28-.079-.28-.223v-16.108c0-.128.093-.207.28-.207h4.955a.865.865,0,0,1,.43.093c.306.249.456.421.456.493l-2.078,4.763a.872.872,0,0,0-.057.264.383.383,0,0,0,.114.244,8.176,8.176,0,0,1,1.4,2.078,6.547,6.547,0,0,1,.549,2.54,4.434,4.434,0,0,1-.383,1.887,2.37,2.37,0,0,1-1.187,1.172,3.148,3.148,0,0,1-1.685.341c-.3,0-.451-.1-.451-.3a2.479,2.479,0,0,0-.285-.944c0-.093.078-.156.228-.156l.808.079a1.4,1.4,0,0,0,1.306-.643,2.3,2.3,0,0,0,.4-1.432,5.392,5.392,0,0,0-.456-2.025,9.4,9.4,0,0,0-1.7-2.4.272.272,0,0,1-.15-.229,1.007,1.007,0,0,1,.057-.263l2.151-4.461h-3.379Zm10.925-16.616c0,.172-.078.259-.192.28s-.171.15-.171.378v2.151h4.5c.155,0,.228.1.228.284v.586c0,.212-.072.305-.228.305h-6.369a.169.169,0,0,0-.016.078c-.021,1.021-.057,1.928-.1,2.722h5.519c.156,0,.228.114.228.3-.036,2.613-.135,4.463-.264,5.6a12.613,12.613,0,0,1-.7,3.022c-.28.7-1.021,1.057-2.213,1.057-1.094,0-1.658-.167-1.7-.471a3.4,3.4,0,0,0-.663-1.229v-.156a7.023,7.023,0,0,0,2.363.457,1.141,1.141,0,0,0,1.192-.736,8.6,8.6,0,0,0,.492-2.322c.114-.87.207-2.327.264-4.328h-4.612c-.073.715-.15,1.336-.244,1.871a15.067,15.067,0,0,1-1.192,3.794,11.115,11.115,0,0,1-2.1,2.9,1.507,1.507,0,0,1-.4-.042c-.259-.149-.508-.32-.751-.471-.135-.021-.192-.073-.192-.15s.042-.129.135-.208a8.373,8.373,0,0,0,2.306-3.083,15.319,15.319,0,0,0,1.057-3.892,33.012,33.012,0,0,0,.244-4.706h-2.4c-.15,0-.223-.093-.223-.305v-.586c0-.186.073-.284.223-.284h4.271v-2.81c0-.155.093-.227.306-.227C286.788,2203.757,287.259,2203.83,287.259,2203.984Z" transform="translate(-274.049 -2176.974)" fill="#72adb6"/>
      <path id="Path_786" data-name="Path 786" d="M284.054,2209.931c.269.607.42.944.42.986s-.057.109-.135.145a22.817,22.817,0,0,1-2.363,2.177c-.415.341-.907.72-1.472,1.113a.54.54,0,0,0-.15.4c0,.156-.057.223-.15.223s-.456-.353-1.078-1.074c-.057-.02-.093-.072-.114-.191,0-.058.036-.108.114-.149a8.749,8.749,0,0,0,1.4-.809,20.156,20.156,0,0,0,1.886-1.513c.534-.492,1.005-.928,1.4-1.342a.2.2,0,0,1,.15-.1C284,2209.8,284.038,2209.854,284.054,2209.931Zm9.432,5.043c.192,0,.285.078.285.212v4.365h1.85c.156,0,.228.1.228.284v.606c0,.188-.073.284-.228.284H279.239c-.156,0-.228-.1-.228-.284v-.606c0-.187.073-.284.228-.284h1.985v-4.292c0-.186.093-.285.3-.285Zm-12.075-6.82c.472.342.886.641,1.228.911,0,.032-.036.074-.093.151a9.808,9.808,0,0,1-.586.808c-.534-.413-1.1-.808-1.664-1.169a9.132,9.132,0,0,0-1.213-.608,4.113,4.113,0,0,1,.591-.829c.052-.072.114-.128.145-.128A16.027,16.027,0,0,1,281.411,2208.155Zm1.684-3.022c.451.316.829.6,1.171.829a.416.416,0,0,1-.1.151,9.92,9.92,0,0,1-.58.819,16.082,16.082,0,0,0-1.591-1.083,7.492,7.492,0,0,0-1.135-.549,3.944,3.944,0,0,1,.586-.83c.042-.078.093-.13.156-.13C282.2,2204.64,282.7,2204.905,283.1,2205.133ZM285,2219.552v-3.4h-2.441v3.4Zm3.42-15.439c.114.092.187.17.187.227a.226.226,0,0,1-.15.223.211.211,0,0,0-.223.207c-.156.53-.269.985-.378,1.343h7.105a.526.526,0,0,1,.337.077c.269.229.4.394.4.514l-1.643,3.435c-.041.074-.078.114-.135.114-.679-.206-1.021-.377-1.021-.527l1.192-2.436h-2.949a7.98,7.98,0,0,0,.207,1.565,5.767,5.767,0,0,0,.586,1.476,4.617,4.617,0,0,0,.813,1.093,5.539,5.539,0,0,0,1.285,1.062,6.219,6.219,0,0,0,1.814.788.31.31,0,0,1-.187.269c-.249.245-.472.495-.684.732a.508.508,0,0,1-.244.175,8.273,8.273,0,0,1-1.814-.984,3.906,3.906,0,0,1-1.228-1.15,6.016,6.016,0,0,1-.907-1.321,5.724,5.724,0,0,1-.492-1.12,8.9,8.9,0,0,1-.586,1.363,5.147,5.147,0,0,1-1.171,1.394,8.726,8.726,0,0,1-1.607,1.229,12.49,12.49,0,0,1-1.415.59c-.228,0-.363-.056-.435-.175a6.224,6.224,0,0,0-.513-.695.189.189,0,0,1-.093-.155.158.158,0,0,1,.093-.167,5.771,5.771,0,0,0,1.736-.664,5.477,5.477,0,0,0,1.664-1.15,5.807,5.807,0,0,0,.871-1.17,5.312,5.312,0,0,0,.57-1.571,7.316,7.316,0,0,0,.223-1.415h-2.192c-.223.492-.43.957-.643,1.373a8.153,8.153,0,0,1-.85,1.213,1.174,1.174,0,0,1-.378-.058c-.228-.092-.451-.187-.679-.285-.078-.016-.114-.052-.114-.093a.212.212,0,0,1,.057-.149,8.9,8.9,0,0,0,1.249-1.986,7.837,7.837,0,0,0,.565-1.436,14.8,14.8,0,0,0,.529-2.062c.021-.072.057-.134.114-.134Zm.264,15.439v-3.4h-2.363v3.4Zm3.763,0v-3.4h-2.441v3.4Z" transform="translate(-257.327 -2177.33)" fill="#72adb6"/>
      <path id="Path_787" data-name="Path 787" d="M286.983,2209.821c-.394-.521-.943-1.206-1.664-2a21.414,21.414,0,0,0-1.964-1.907l.871-1a28.823,28.823,0,0,1,3.856,3.955Z" transform="translate(-239.158 -2172.156)" fill="#72adb6"/>
      <path id="Path_788" data-name="Path 788" d="M302.093,2203.874c.15,0,.223.072.223.207v.73c0,.212-.072.305-.223.305h-7c.529.379.8.586.8.664,0,.151-.114.228-.306.228-.244,0-.451.188-.643.523-.529.7-1.249,1.628-2.192,2.762a23.029,23.029,0,0,1-3.327,3.214,21.093,21.093,0,0,1-2.907,1.906.418.418,0,0,1-.4-.186c-.223-.229-.415-.451-.586-.665-.15-.036-.207-.092-.207-.166a.189.189,0,0,1,.15-.206,17.761,17.761,0,0,0,6.483-4.94,21.857,21.857,0,0,0,2.156-3.136h-8.411c-.15,0-.228-.093-.228-.305v-.73c0-.135.078-.207.228-.207Zm-7.162,5.534c0,.168-.078.265-.192.265-.114.042-.171.17-.171.4v10.039c0,.144-.13.223-.378.223h-.736c-.207,0-.3-.079-.3-.223v-10.7c0-.149.093-.228.3-.228C294.439,2209.18,294.931,2209.259,294.931,2209.408Zm4.892.679c1,1,1.85,1.908,2.571,2.7,0,.042-.036.1-.114.176-.415.586-.622.871-.622.871a35.883,35.883,0,0,0-3.441-3.5,17.053,17.053,0,0,0-2.477-1.82,3.855,3.855,0,0,1,.643-.907c.057-.072.114-.13.171-.13A33.6,33.6,0,0,1,299.824,2210.087Z" transform="translate(-230.906 -2176.485)" fill="#72adb6"/>
      <path id="Path_789" data-name="Path 789" d="M303.925,2203.786c.187,0,.3.079.3.229v6.856c0,.149-.114.229-.3.229h-7.276a9.463,9.463,0,0,1-1.114,1.476c-.114.114-.192.223-.264.3h10.583a.188.188,0,0,1,.207.208,28.047,28.047,0,0,1-.306,4.347,6.581,6.581,0,0,1-.808,2.364c-.321.544-1.171.829-2.571.829-.684,0-1.042-.144-1.057-.414a3.51,3.51,0,0,0-.42-1.057V2219a5.227,5.227,0,0,0,1.477.228c.772,0,1.264-.186,1.493-.565a3.534,3.534,0,0,0,.622-1.7,18.13,18.13,0,0,0,.342-2.985h-2.514a27.467,27.467,0,0,1-1.363,2.436,16.114,16.114,0,0,1-1.928,2.23,13.8,13.8,0,0,1-2.343,1.906.522.522,0,0,1-.358-.109c-.306-.156-.627-.307-.928-.457-.13,0-.187-.035-.187-.093a17.276,17.276,0,0,0,2.85-2.213,10.743,10.743,0,0,0,1.684-1.979,12.517,12.517,0,0,0,.985-1.721H298.2a22.152,22.152,0,0,1-1.55,2.058,16.187,16.187,0,0,1-2.249,1.908,15.712,15.712,0,0,1-2.721,1.646.484.484,0,0,1-.363-.113c-.321-.151-.643-.3-.943-.456-.114,0-.171-.021-.171-.093a19.1,19.1,0,0,0,3.291-1.892,10.6,10.6,0,0,0,1.943-1.7,7.806,7.806,0,0,0,1.078-1.358h-2.363c-.073.073-.129.109-.171.151a14.069,14.069,0,0,1-2.021,1.342,6.854,6.854,0,0,1-1.55.714c-.093,0-.171-.072-.244-.242-.187-.208-.4-.436-.627-.679-.114-.12-.15-.187-.15-.249a17.233,17.233,0,0,0,2.514-1.057,10.89,10.89,0,0,0,2.078-1.493,12.671,12.671,0,0,0,1.192-1.362h-2.607c-.207,0-.3-.079-.3-.229v-6.856c0-.151.093-.229.3-.229Zm-1.042,3.028v-1.84h-9.3v1.84Zm0,1.187h-9.3v1.908h9.3Z" transform="translate(-213.925 -2176.854)" fill="#72adb6"/>
      <path id="Path_790" data-name="Path 790" d="M300.578,2205.084c.15,0,.228.093.228.279v.607c0,.191-.078.285-.228.285h-3.27a.319.319,0,0,0-.036.186c-.114.928-.249,1.8-.4,2.629-.093.377-.187.762-.28,1.1h3.172c.192,0,.306.079.306.228v8.334c0,.156-.114.223-.306.223h-.736c-.15,0-.228-.067-.228-.223v-.87h-2.208v2.575c0,.151-.114.229-.306.229h-.736c-.15,0-.207-.079-.207-.229v-6.975a8.344,8.344,0,0,1-.534.871c-.109.146-.187.207-.223.207a.386.386,0,0,1-.358-.151c-.249-.155-.477-.285-.684-.4a.172.172,0,0,1-.13-.187.29.29,0,0,1,.057-.149,5.545,5.545,0,0,0,.871-1.171,12,12,0,0,0,.964-2.4,17.973,17.973,0,0,0,.606-2.741c.052-.337.093-.695.13-1.079h-1.892c-.15,0-.228-.093-.228-.285v-.607c0-.186.078-.279.228-.279Zm-1.778,11.588v-5.312h-2.208v5.313Zm10.847-5.312a.437.437,0,0,1,.306.113,2.4,2.4,0,0,1,.358.623,24.888,24.888,0,0,1-.886,2.872,13.073,13.073,0,0,1-1.042,2.12,8.886,8.886,0,0,1-.7.928,5.148,5.148,0,0,0,1.042.714,9.51,9.51,0,0,0,2.249.985c.093.037.15.089.15.13a.41.41,0,0,1-.078.207,5.784,5.784,0,0,0-.679.664c-.078.114-.15.171-.187.171a1.059,1.059,0,0,1-.306-.156c-.451-.187-.922-.416-1.456-.679a9.393,9.393,0,0,1-1.622-1.13,9.927,9.927,0,0,1-1.736,1.229,8.709,8.709,0,0,1-1.892.809.374.374,0,0,1-.342-.151l-.4-.565a.351.351,0,0,1-.073-.17c0-.073.021-.13.093-.151a9.1,9.1,0,0,0,1.4-.513,6.882,6.882,0,0,0,2.078-1.337,6.821,6.821,0,0,1-.7-.871,6.5,6.5,0,0,1-1-1.985,13.388,13.388,0,0,1-.814-2.685H303a27.862,27.862,0,0,1-.285,3.592,14.645,14.645,0,0,1-.777,3.057,8.082,8.082,0,0,1-.85,1.778.373.373,0,0,1-.187-.037,3.649,3.649,0,0,0-.679-.528.312.312,0,0,1-.1-.244,9.357,9.357,0,0,0,.85-2.119,20.337,20.337,0,0,0,.534-2.95c.109-1.078.171-2.4.171-3.949v-4.95c0-.187.093-.285.3-.285h3.55v-2c0-.095.062-.151.207-.151.891,0,1.348.079,1.348.227s-.057.25-.156.25-.15.128-.15.335v1.343h3.612a.688.688,0,0,1,.358.073c.249.228.378.4.378.513l-1.363,3.935c-.036.088-.072.128-.114.128-.679-.191-1.016-.356-1.016-.507l1.057-2.97h-2.913v4.291Zm-6.629,0h2.508v-4.291h-2.508Zm2.057,2.684a9.114,9.114,0,0,0,.907,2.043,6.421,6.421,0,0,0,.793,1.057c.249-.306.472-.606.684-.927a9.324,9.324,0,0,0,.922-2.078c.15-.416.321-.949.492-1.607h-4.2A10.32,10.32,0,0,0,305.077,2214.044Z" transform="translate(-197.078 -2177.037)" fill="#72adb6"/>
      <path id="Path_791" data-name="Path 791" d="M299.928,2208.894v-4.8c0-.155.093-.227.28-.227.928,0,1.4.072,1.4.227,0,.171-.057.259-.171.28-.13.02-.187.149-.187.378v4.141h1.778c.13,0,.207.114.207.3v.585c0,.208-.078.307-.207.307H301.25v5.384c.751-.228,1.493-.456,2.192-.7a.137.137,0,0,1,.093-.042.139.139,0,0,1,.15.139,3.52,3.52,0,0,1-.078,1.037c-1.607.586-3.229,1.1-4.872,1.549-.187.337-.321.509-.435.509-.135,0-.378-.509-.741-1.551a21.39,21.39,0,0,0,2.369-.564v-5.763H298c-.156,0-.228-.1-.228-.307v-.585c0-.186.072-.3.228-.3Zm13.946-1.928c.186,0,.285.079.285.223v3.4c0,.156-.1.223-.285.223h-4.141v2.917a16.649,16.649,0,0,0,1.213,2.322,6.56,6.56,0,0,0,.643.907,4.912,4.912,0,0,0,.886-.492,6.482,6.482,0,0,0,1.306-1.078.582.582,0,0,1,.171-.077,4.993,4.993,0,0,1,1.016,1.046c0,.072-.073.109-.187.109-.249,0-.378.042-.4.1a10.711,10.711,0,0,1-1.985,1.322l.078.073a8.547,8.547,0,0,0,2.55,1.854c.114.022.171.073.171.15a.394.394,0,0,1-.093.229,6.768,6.768,0,0,0-.757.658c-.073.093-.135.15-.187.15a8.089,8.089,0,0,1-1.855-1.358,9.792,9.792,0,0,1-1.907-2.25,17.376,17.376,0,0,1-1.27-2.248,20.168,20.168,0,0,1-2.415,1.57v2.213c.943-.228,1.85-.456,2.7-.705a.171.171,0,0,1,.1-.037.141.141,0,0,1,.15.156,3.871,3.871,0,0,1-.078,1.037c-1.679.456-3.384.869-5.084,1.248-.187.337-.342.509-.456.509s-.358-.528-.736-1.55c.627-.094,1.342-.228,2.156-.379v-1.871c-1.021.435-1.949.793-2.814,1.078-.1,0-.171-.062-.228-.207-.171-.229-.342-.476-.513-.757a.5.5,0,0,1-.072-.284,21.268,21.268,0,0,0,3.4-1.079,19.153,19.153,0,0,0,3.244-1.985v-3.291H304.5c-.207,0-.3-.067-.3-.223v-3.4c0-.144.093-.223.3-.223Zm-3.913-3.026c0,.17-.073.264-.187.285-.135.021-.192.15-.192.377v.6h5.177c.1,0,.156.078.156.207v.457c0,.186-.057.284-.156.284H303.235c-.093,0-.135-.1-.135-.284v-.457c0-.129.042-.207.135-.207h5.027v-1.264c0-.13.093-.208.3-.208C309.49,2203.731,309.962,2203.81,309.962,2203.939Zm-2.441,7.748c.1,0,.156.078.156.227v.456c0,.188-.057.285-.156.285h-3.55c-.093,0-.135-.1-.135-.285v-.456c0-.149.041-.227.135-.227Zm0,2.082c.1,0,.156.072.156.228v.436c0,.207-.057.3-.156.3h-3.55c-.093,0-.135-.089-.135-.3V2214c0-.156.041-.228.135-.228Zm-.451-5.841h-1.684v1.929h1.684Zm2.969,0h-1.855v1.929h1.855Zm4.063,3.759c.072,0,.129.078.129.227v.456c0,.188-.057.285-.129.285h-3.177c-.114,0-.15-.1-.15-.285v-.456c0-.149.036-.227.15-.227Zm0,2.082c.072,0,.129.072.129.228v.436c0,.207-.057.3-.129.3h-3.177c-.114,0-.15-.089-.15-.3V2214c0-.156.036-.228.15-.228Zm-1.114-5.841h-1.855v1.929h1.855Z" transform="translate(-179.745 -2177.083)" fill="#72adb6"/>
      <path id="Path_792" data-name="Path 792" d="M306.476,2204.55c0,.109-.062.17-.135.17a.428.428,0,0,0-.378.186,2.366,2.366,0,0,1-.228.452H310.1c.093,0,.15.078.15.227v.586c0,.186-.057.285-.15.285H307.42c.342.493.679.979.979,1.493,0,.186-.057.285-.129.285a1.969,1.969,0,0,1-.985.456c-.451-.892-.871-1.627-1.244-2.234h-.948a6.412,6.412,0,0,1-.814,1,15.143,15.143,0,0,1-1.565,1.513.494.494,0,0,1-.363-.171c-.187-.13-.358-.264-.544-.415a.249.249,0,0,1-.135-.228c.378-.337.777-.7,1.171-1.078a8.827,8.827,0,0,0,1.322-1.679,8.517,8.517,0,0,0,.757-1.59c0-.089.041-.151.078-.151A5.873,5.873,0,0,1,306.476,2204.55Zm2.964,5.384v-.964c0-.129.1-.207.285-.207.922,0,1.4.078,1.4.207,0,.171-.057.264-.171.285-.135.021-.192.151-.192.374v.306h5.39c.15,0,.223.114.223.3v.591c0,.207-.073.295-.223.295h-5.39v1.69h7.676c.15,0,.228.109.228.3v.581c0,.207-.078.306-.228.306h-4.271v1.472h2.8c.15,0,.223.119.223.306v.584c0,.208-.072.307-.223.307h-2.8v3.3c0,.949-.777,1.421-2.306,1.421h-1.1c-.093,0-.129-.137-.129-.363a3.129,3.129,0,0,0-.321-.979v-.079a7.836,7.836,0,0,0,1.493.155c.679,0,1.021-.227,1.021-.662v-2.794h-9.3c-.145,0-.223-.1-.223-.307v-.584c0-.187.078-.306.223-.306h9.3V2214H302.05c-.15,0-.228-.1-.228-.306v-.581c0-.191.078-.3.228-.3h7.39v-1.69h-5.177c-.15,0-.228-.088-.228-.295v-.591c0-.186.078-.3.228-.3Zm-1.985,8.075c.529.316,1,.6,1.379.865a.521.521,0,0,1-.093.151c-.358.528-.549.813-.565.813a17.624,17.624,0,0,0-1.891-1.134,9.882,9.882,0,0,0-1.363-.566,3.308,3.308,0,0,1,.591-.829c.052-.077.114-.14.145-.14A18.085,18.085,0,0,1,307.456,2218.009Zm6.634-13.459c0,.109-.057.17-.135.17-.207.016-.337.072-.394.186-.073.188-.15.344-.187.452h5.291c.093,0,.15.078.15.227v.586c0,.186-.057.285-.15.285h-2.949a15.176,15.176,0,0,1,1.021,1.493c0,.186-.041.285-.114.285a1.969,1.969,0,0,1-.985.456,23.344,23.344,0,0,0-1.322-2.234H312.8a5.366,5.366,0,0,1-.415.586,13.368,13.368,0,0,1-1.114,1.264.462.462,0,0,1-.358-.17c-.192-.128-.363-.284-.549-.43a.22.22,0,0,1-.114-.212c.264-.285.529-.581.813-.928a7.515,7.515,0,0,0,.922-1.415,9.551,9.551,0,0,0,.549-1.341c0-.089.036-.151.078-.151A5.763,5.763,0,0,1,314.089,2204.55Z" transform="translate(-162.547 -2177.388)" fill="#72adb6"/>
      <path id="Path_793" data-name="Path 793" d="M310.836,2204.68c0,.151-.057.207-.135.207a.573.573,0,0,0-.451.244c-.306,1.041-.586,1.948-.892,2.7v12.879c0,.145-.093.223-.28.223h-.736c-.212,0-.306-.079-.306-.223v-10.158c-.321.549-.715,1.176-1.192,1.9a.481.481,0,0,1-.394-.208q-.311-.232-.622-.513a.282.282,0,0,1-.156-.248c.4-.6.793-1.23,1.213-1.909a16.791,16.791,0,0,0,1.379-2.907,24.258,24.258,0,0,0,.813-2.8c0-.079.036-.136.073-.136A7.16,7.16,0,0,1,310.836,2204.68Zm4.633,7.955c.109.02.166.057.166.093,0,.114-.036.17-.093.191-.073.021-.114.073-.114.188v1.02c0,.456.249.679.736.679h1.985c.415,0,.663-.058.736-.187a3.275,3.275,0,0,0,.378-1.156,1.789,1.789,0,0,0,.606.555c.129.031.207.109.207.186a3.634,3.634,0,0,1-.492,1.286.765.765,0,0,1-.7.265h-2.793a3.868,3.868,0,0,1-.513-.021,9.338,9.338,0,0,1-.643.678h6.084a.428.428,0,0,1,.285.1c.207.223.321.372.321.43a8.632,8.632,0,0,1-1.228,1.306,6.927,6.927,0,0,1-1.4.963c-.207.095-.414.191-.643.3l1.021.229a22.405,22.405,0,0,0,3.877.227,1.053,1.053,0,0,1-.135.321,2.492,2.492,0,0,0-.223.628c-.021.109-.078.167-.171.167a18.784,18.784,0,0,1-3.628-.374,15.564,15.564,0,0,1-2.177-.665,22.892,22.892,0,0,1-2.457.586c-.663.13-1.529.265-2.586.374a.326.326,0,0,1-.306-.15c-.114-.187-.244-.374-.358-.565a.324.324,0,0,1-.078-.17c0-.042.036-.073.15-.073.663-.057,1.306-.134,1.949-.206a24.237,24.237,0,0,0,2.42-.456,3.749,3.749,0,0,1-.7-.53,4.456,4.456,0,0,1-1.264-1.378,1.44,1.44,0,0,1-.269.2c-.415.284-.829.548-1.223.776a9.784,9.784,0,0,1-.985.477.251.251,0,0,1-.228-.14,4.484,4.484,0,0,0-.435-.524c-.114-.056-.15-.118-.15-.149l.078-.056a11.863,11.863,0,0,0,1.4-.586,10.324,10.324,0,0,0,1.545-1.042,5.544,5.544,0,0,0,.85-.792,3.379,3.379,0,0,0,.306-.358.787.787,0,0,1-.192-.555v-2.074c0-.1.021-.149.078-.149Zm7.105-8.241c.093,0,.15.079.15.207v.452c0,.149-.057.227-.15.227h-5.1c-.186.342-.4.663-.586.948h3.928c.192,0,.285.073.285.229v4.793h1.7c.192,0,.306.079.306.229v1.906c0,.156-.114.228-.306.228h-.736a.2.2,0,0,1-.228-.228v-1.316h-9.811v1.394c0,.151-.114.228-.3.228h-.736a.2.2,0,0,1-.228-.228v-2.057c0-.093.078-.156.228-.156h1.7v-4.872c0-.1.078-.151.228-.151h2.513a3.949,3.949,0,0,0,.472-.589,1.615,1.615,0,0,0,.244-.359h-4.7c-.114,0-.156-.078-.156-.227v-.452c0-.128.042-.207.156-.207Zm-8.852,9.148c.135.072.213.149.213.227s-.057.109-.135.131c-.15,0-.223.057-.244.149a8.667,8.667,0,0,1-1.057,1.8c-.078.092-.135.128-.171.128a.387.387,0,0,1-.264-.093c-.207-.092-.4-.186-.586-.285-.078-.016-.114-.037-.114-.058a.266.266,0,0,1,.057-.109,8.1,8.1,0,0,0,.736-.983,3.993,3.993,0,0,0,.549-1.116c.036-.1.073-.154.13-.154Zm6.126-5.614v-.885h-5.913v.885Zm0,1.623v-.809h-5.913v.809Zm0,1.7v-.886h-5.913v.886Zm-4.457,6.867a5.833,5.833,0,0,0,1.508.9c.492-.167.949-.358,1.363-.544a4.809,4.809,0,0,0,1.285-.871c.114-.1.223-.186.337-.305h-5.25A4.6,4.6,0,0,0,315.391,2218.118Zm2.493-5.068c.264.207.508.4.715.565l-.073.1c-.3.378-.456.565-.456.565-.3-.26-.622-.486-.943-.716a4.311,4.311,0,0,0-.679-.383,2.658,2.658,0,0,1,.415-.586c.036-.058.078-.087.114-.087C317.335,2212.713,317.635,2212.9,317.884,2213.05Zm4.177,1.135a7.672,7.672,0,0,1,.513.829,2.986,2.986,0,0,1-.948.3,3.275,3.275,0,0,0-.378-.653,4.715,4.715,0,0,0-.814-.893c0-.078.264-.248.814-.534A8.464,8.464,0,0,1,322.061,2214.185Z" transform="translate(-145.808 -2177.083)" fill="#72adb6"/>
      <path id="Path_794" data-name="Path 794" d="M282.68,2220.79a3.067,3.067,0,0,0,.15-.958.266.266,0,0,1,.269-.208l1.3.218c.114.042.171.077.171.139s-.057.13-.171.207a.443.443,0,0,0-.264.317,2.354,2.354,0,0,1-.093.284h6.52c.13,0,.207.079.207.229a16.381,16.381,0,0,1-.244,2.892,4.1,4.1,0,0,1-.663,1.565c-.264.383-.985.57-2.115.57-.834,0-1.249-.135-1.27-.363a3.224,3.224,0,0,0-.508-.979v-.131c.643.037,1.244.074,1.778.074.565,0,.922-.109,1.094-.337a2.144,2.144,0,0,0,.472-1.042,8.6,8.6,0,0,0,.207-1.357h-5.949a1.446,1.446,0,0,1-.1.146,6.761,6.761,0,0,1-1.073,1.306,6.632,6.632,0,0,1-1.8,1.1,21.033,21.033,0,0,1-2.493.963c-.57.13-1.285.279-2.176.467-.223,0-.358-.051-.415-.165a5.535,5.535,0,0,0-.529-.7.236.236,0,0,1-.093-.17c0-.058.036-.095.129-.131a17.28,17.28,0,0,0,2.685-.492,11.064,11.064,0,0,0,2.57-.907,5.8,5.8,0,0,0,1.342-.923,3.122,3.122,0,0,0,.456-.492h-4.955c-.15,0-.228-.1-.228-.307v-.584a.2.2,0,0,1,.228-.229Zm-3.265-10.847v-.962c0-.079.052-.136.207-.136.886,0,1.337.077,1.337.208,0,.155-.052.248-.15.248-.114.016-.15.135-.15.363v.279h2.814c.078,0,.135.079.135.224v.435c0,.206-.057.3-.135.3h-2.814v.965h3.327c.093,0,.15.079.15.208v.451c0,.207-.057.306-.15.306h-2.135v1.021c0,.156.021.229.052.229h1.633c.093,0,.187-.285.3-.892l.964.591c-.306.85-.643,1.264-1.042,1.264H281.55c-.5,0-.741-.207-.741-.663v-1.55h-1.778v.058a2.378,2.378,0,0,1-1.379,1.968,6.875,6.875,0,0,1-1.643.545c-.114,0-.207-.021-.244-.079-.155-.109-.342-.248-.57-.377a.266.266,0,0,1-.15-.207c0-.021.057-.036.171-.058a5.258,5.258,0,0,0,1.394-.507,1.98,1.98,0,0,0,.834-.591,1.56,1.56,0,0,0,.414-.751h-2.436c-.114,0-.15-.1-.15-.306v-.451c0-.128.036-.208.15-.208h3.991v-.965h-3.177c-.114,0-.15-.1-.15-.3v-.435c0-.146.036-.224.15-.224Zm-.078,6.272v-1.167c0-.1.057-.156.207-.156.886,0,1.342.077,1.342.228s-.057.229-.15.244c-.114.021-.15.14-.15.348v.5h2.742c.093,0,.145.077.145.228v.435c0,.208-.052.3-.145.3h-2.742v1.246c.508-.058,1.057-.109,1.638-.187s1.042-.128,1.384-.17a.089.089,0,0,1,.078.072c-.041.228-.078.435-.1.665,0,.118-.016.153-.052.153-.534.032-1.062.109-1.633.188-1.793.265-3.628.549-5.514.834-.114.28-.207.435-.3.452a.146.146,0,0,1-.156-.094l-.358-1.379c.529-.035,1.777-.176,3.762-.4v-1.379h-3.026c-.109,0-.15-.1-.15-.3v-.435c0-.151.041-.228.15-.228Zm7.541-5.158c.016-.564.016-1.171.016-1.85,0-.155.062-.227.192-.227l1.171.113c.093,0,.15.077.15.186a.343.343,0,0,1-.207.307c-.13,0-.187.078-.187.208-.021.451-.042.886-.042,1.264h2.591a.688.688,0,0,1,.244.156,2,2,0,0,1,.27.586,7.99,7.99,0,0,0-.814,2.322,8.961,8.961,0,0,0-.228,1.948,3.569,3.569,0,0,0,.244,1.492c.156.3.306.437.415.437a.4.4,0,0,0,.383-.249,4.305,4.305,0,0,0,.451-1.415.215.215,0,0,1,.207-.119.193.193,0,0,1,.15.1,2.109,2.109,0,0,0,.549.416.239.239,0,0,1,.114.228,6.7,6.7,0,0,1-1.135,2.306.932.932,0,0,1-.72.363,1.176,1.176,0,0,1-.85-.477,2.662,2.662,0,0,1-.679-1.265,7.06,7.06,0,0,1-.228-1.813,12.771,12.771,0,0,1,.814-3.991H287.92c-.057.833-.135,1.528-.228,2.1a16.3,16.3,0,0,1-.415,1.741c.43.544.809,1.037,1.13,1.493,0,.016-.036.057-.072.128-.342.458-.513.681-.513.681-.321-.453-.643-.865-.943-1.265l-.036.093a8.539,8.539,0,0,1-1.534,2.192.739.739,0,0,1-.321-.036,3.279,3.279,0,0,1-.643-.359c-.093,0-.13-.039-.13-.112a.231.231,0,0,1,.073-.156,6.347,6.347,0,0,0,1.664-2.362.819.819,0,0,0,.078-.224,7.39,7.39,0,0,0-1.228-1.1,3.275,3.275,0,0,1,.508-.694c.057-.077.114-.114.156-.114.337.3.643.57.922.829a12.276,12.276,0,0,0,.342-1.663c.036-.338.073-.721.114-1.172H284.95c-.15,0-.228-.057-.228-.208v-.605c0-.131.078-.208.228-.208Z" transform="translate(-274.538 -2155.698)" fill="#72adb6"/>
      <path id="Path_795" data-name="Path 795" d="M280.907,2213.7a3.882,3.882,0,0,1-1.213,1.316l-.487-.544a2.941,2.941,0,0,0,1.265-2.157h-1.4v-2.264h2.27v2.077A3.361,3.361,0,0,1,280.907,2213.7Z" transform="translate(-257.072 -2150.645)" fill="#72adb6"/>
      <path id="Path_796" data-name="Path 796" d="M283.583,2214.643a29.622,29.622,0,0,1-.373,5.277,12.991,12.991,0,0,1-.912,3.249,7.74,7.74,0,0,1-1.016,1.871.459.459,0,0,1-.192-.041,4.6,4.6,0,0,0-.679-.507.388.388,0,0,1-.078-.265,9.167,9.167,0,0,0,1.042-2.25,18.356,18.356,0,0,0,.663-3.136,38.05,38.05,0,0,0,.207-4.2v-5.405c0-.186.093-.279.3-.279H296.42c.187,0,.3.072.3.228v4.042a.273.273,0,0,1-.3.307H283.583Zm0-2.285H295.4v-2.232H283.583Zm6.483,3.97v-1.913c0-.149.093-.227.3-.227.928,0,1.4.078,1.4.227,0,.177-.078.265-.192.286s-.171.149-.171.378v1.249h5.6c.15,0,.223.116.223.3v.591c0,.2-.073.3-.223.3h-5.6v2.285h4.426c.187,0,.3.072.3.223v5.317a.274.274,0,0,1-.3.295H295.1a.266.266,0,0,1-.306-.295v-.514h-8.105v.658c0,.15-.114.228-.306.228h-.736c-.207,0-.3-.078-.3-.228V2220.1a.268.268,0,0,1,.3-.3h4.421v-2.285H284.91c-.15,0-.228-.1-.228-.3v-.591c0-.185.078-.3.228-.3Zm4.726,7.313V2221h-8.105v2.643Z" transform="translate(-251.794 -2155.221)" fill="#72adb6"/>
      <path id="Path_797" data-name="Path 797" d="M293.2,2209.052c0,.175-.057.263-.171.284-.135.021-.192.151-.192.378v1.042h7.24c.187,0,.285.074.285.228v3.607c0,.151-.1.228-.285.228h-.741c-.207,0-.3-.077-.3-.228v-2.642H285.375v2.642c0,.151-.093.228-.285.228h-.736c-.212,0-.306-.077-.306-.228v-3.535a.27.27,0,0,1,.306-.3h7.162v-1.7c0-.131.093-.208.28-.208C292.723,2208.844,293.2,2208.921,293.2,2209.052Zm4.436,4.524c.135,0,.207.086.207.279v.586c0,.212-.072.3-.207.3h-4.721c-.358.305-.684.548-.964.761.549.674,1,1.243,1.378,1.715.264.453.513.871.7,1.25a28.8,28.8,0,0,0,3.1-2.4.91.91,0,0,1,.508-.208.637.637,0,0,1,.285.129c.793.529,1.192.851,1.192.965,0,.207-.078.3-.228.3l-.435-.074a1.357,1.357,0,0,0-.679.265c-.829.528-1.793,1.208-2.913,2.042a10.388,10.388,0,0,0,1.078,1.451,8.608,8.608,0,0,0,1.762,1.592,9.977,9.977,0,0,0,2.908,1.528c.135.041.207.076.207.128a.259.259,0,0,1-.114.229,5.145,5.145,0,0,0-.736.662c-.072.1-.135.156-.186.156a9.566,9.566,0,0,1-2.14-1.135,9.216,9.216,0,0,1-2.172-1.9,5.622,5.622,0,0,1-.586-.675c0,.109.021.208.021.3a7.58,7.58,0,0,1-.207,1.7,5.648,5.648,0,0,1-.607,1.379,3.04,3.04,0,0,1-1.1.834,5.419,5.419,0,0,1-1.928.374c-.207,0-.3-.109-.3-.316a3.349,3.349,0,0,0-.508-1.1c0-.151.036-.207.15-.207l.43.076a3.162,3.162,0,0,0,1.933-.435,1.743,1.743,0,0,0,.586-.946,3.957,3.957,0,0,0,.223-1.358,7.466,7.466,0,0,0-.072-.892,9.3,9.3,0,0,1-.928.756,16.774,16.774,0,0,1-2.228,1.592,22.988,22.988,0,0,1-2.876,1.357,13.332,13.332,0,0,1-2.228.741c-.093,0-.187-.1-.264-.27-.192-.222-.4-.45-.622-.678-.114-.109-.15-.187-.15-.25a31.882,31.882,0,0,0,3.643-1.072,17.393,17.393,0,0,0,2.985-1.514,20.01,20.01,0,0,0,2.327-1.948c-.187-.465-.414-.942-.658-1.415a9.563,9.563,0,0,1-.912.751,13,13,0,0,1-1.907,1.348,22.008,22.008,0,0,1-2.477,1.172,12.115,12.115,0,0,1-1.907.622c-.078,0-.171-.078-.244-.244-.192-.228-.4-.456-.627-.7-.109-.114-.15-.192-.15-.249a31.565,31.565,0,0,0,3.1-.881,16.645,16.645,0,0,0,2.591-1.253,14.956,14.956,0,0,0,1.871-1.53c-.264-.342-.549-.7-.85-1.079a2.55,2.55,0,0,1-.228.156,17.778,17.778,0,0,1-2.384,1.318,22.792,22.792,0,0,1-2.928,1.135.431.431,0,0,1-.321-.109c-.244-.229-.487-.458-.715-.665a.389.389,0,0,1-.057-.186c.928-.25,1.679-.492,2.286-.721a17.463,17.463,0,0,0,2.721-1.264c.415-.249.964-.628,1.648-1.119h-4.162c-.15,0-.207-.088-.207-.3v-.586c0-.192.057-.279.207-.279Z" transform="translate(-236.26 -2155.698)" fill="#72adb6"/>
      <path id="Path_798" data-name="Path 798" d="M297.218,2213.931a1.633,1.633,0,0,1,.093.208c0,.135-.078.207-.228.227-.358.022-.549.1-.586.208-.358.607-.757,1.249-1.171,1.927h8.919c.155,0,.228.078.228.208v.741c0,.208-.073.3-.228.3h-3.7a12.764,12.764,0,0,1-.793,1.834,8.832,8.832,0,0,1-1.363,2.115c-.114.135-.228.249-.321.363.207.093.4.186.565.26,1.949.984,3.592,1.876,4.955,2.668,0,0-.036.058-.093.167-.42.565-.643.87-.643.87a55.569,55.569,0,0,0-5.825-3.078c-.186.135-.358.244-.544.358a14.385,14.385,0,0,1-2.477,1.322,35.692,35.692,0,0,1-4.291,1.4c-.15,0-.228-.058-.244-.129a9.2,9.2,0,0,1-.57-.885c-.114-.1-.15-.173-.15-.249a5.755,5.755,0,0,0,1.322-.25,21.1,21.1,0,0,0,2.327-.579,20.465,20.465,0,0,0,2.835-1.249c.171-.115.342-.229.492-.343-1.441-.6-2.664-1.078-3.685-1.394-.285.337-.57.674-.855,1.016a.3.3,0,0,1-.259-.114c-.249-.109-.492-.207-.762-.3-.072-.02-.093-.078-.093-.187,1.135-1.362,2.005-2.519,2.648-3.419a1.1,1.1,0,0,1,.135-.193h-4.991c-.156,0-.228-.093-.228-.3v-.741c0-.131.072-.208.228-.208H293.7a21.4,21.4,0,0,0,1.187-2.015,10.071,10.071,0,0,0,.643-1.385c.041-.1.1-.151.156-.151Zm.015-4.819c0,.176-.073.265-.187.285-.135.022-.187.151-.187.379v.963h6.5c.192,0,.3.079.3.228v3.686c0,.149-.109.228-.3.228h-.736c-.192,0-.285-.079-.285-.228v-2.741H289.485v2.741c0,.149-.114.228-.3.228h-.736c-.192,0-.285-.079-.285-.228v-3.607c0-.192.093-.307.285-.307h7.012v-1.627c0-.151.093-.227.3-.227C296.746,2208.885,297.233,2208.96,297.233,2209.111Zm-2.742,8.64-.031.057c-.456.644-.985,1.363-1.607,2.151,1.492.554,2.814,1.063,3.949,1.534a.2.2,0,0,0,.073-.058,8.108,8.108,0,0,0,1.42-1.85,8.687,8.687,0,0,0,.866-1.834Z" transform="translate(-221.257 -2155.531)" fill="#72adb6"/>
      <path id="Path_799" data-name="Path 799" d="M296.039,2210.2c-.145,0-.223-.094-.223-.285v-.731a.2.2,0,0,1,.223-.228h4.276a.612.612,0,0,1,.435.186,10.194,10.194,0,0,0,2.55,3.54,9.594,9.594,0,0,0,5.1,2.224c.264.042.394.135.394.249,0,.077-.036.128-.114.207-.264.228-.472.435-.658.622a.381.381,0,0,1-.321.207,15.161,15.161,0,0,1-1.85-.622v.549c0,.191-.078.281-.228.281h-4.934v2.964h4.8a.192.192,0,0,1,.207.218v.73c0,.207-.073.305-.207.305h-4.8v3.25h6.934a.2.2,0,0,1,.228.227v.737c0,.186-.073.284-.228.284H292.188c-.155,0-.207-.1-.207-.284v-.737c0-.153.052-.227.207-.227h7.084v-3.25h-4.934c-.145,0-.223-.1-.223-.305v-.73a.2.2,0,0,1,.223-.218h4.934V2216.4h-5.157c-.15,0-.228-.089-.228-.281v-.419a7.146,7.146,0,0,1-1.7.777c-.078,0-.171-.077-.249-.244-.186-.208-.394-.436-.622-.7-.114-.089-.15-.167-.15-.223a21.389,21.389,0,0,0,3.135-1.342,14.968,14.968,0,0,0,2.591-1.892,17.687,17.687,0,0,0,1.565-1.871Zm8.81,4.955a9.73,9.73,0,0,1-2.57-1.571,12.579,12.579,0,0,1-2.4-3.27,10.145,10.145,0,0,1-1.342,1.7,14.514,14.514,0,0,1-1.928,1.908,14.773,14.773,0,0,1-1.757,1.229Z" transform="translate(-206.484 -2155.221)" fill="#72adb6"/>
      <path id="Path_800" data-name="Path 800" d="M310.8,2209.027c.129,0,.207.114.207.306v.581c0,.207-.078.306-.207.306h-7.09v.072l-.021,1.473h5.182c.187,0,.3.077.3.228v7.446c0,.151-.114.229-.3.229h-.741c-.208,0-.3-.079-.3-.229v-.507h-4.25a5.5,5.5,0,0,1-.192,1.006,4.282,4.282,0,0,1-.985,1.958c-.072.077-.129.156-.186.228a5.846,5.846,0,0,0,.549.265,12.169,12.169,0,0,0,2.55.87,29.084,29.084,0,0,0,3.27.528,23.235,23.235,0,0,0,2.643.151.662.662,0,0,1-.15.321c-.13.3-.264.586-.378.865-.036.156-.073.228-.13.228-1.171-.089-2.192-.207-3.047-.316a21.818,21.818,0,0,1-2.679-.565,16.308,16.308,0,0,1-2.664-.986,5.066,5.066,0,0,1-.912-.513,7,7,0,0,1-.643.472,14.248,14.248,0,0,1-3.229,1.549,7.728,7.728,0,0,1-1.586.358.235.235,0,0,1-.228-.186,7.273,7.273,0,0,0-.529-.907c-.093-.037-.135-.073-.135-.093,0-.077.042-.1.114-.1a14.36,14.36,0,0,0,2.529-.563,8.22,8.22,0,0,0,2.14-1,3.288,3.288,0,0,0,.508-.321,9.178,9.178,0,0,1-1.451-1.778,5.588,5.588,0,0,1,1.171-.455,4.219,4.219,0,0,0,1.151,1.4l.021.016a.433.433,0,0,0,.15-.167,2.666,2.666,0,0,0,.72-1.325,4.1,4.1,0,0,0,.244-.944h-4.048v.507c0,.151-.109.229-.3.229h-.736c-.213,0-.306-.079-.306-.229v-7.369a.273.273,0,0,1,.306-.305h5.214l.021-.958v-.586h-7.084c-.156,0-.207-.1-.207-.306v-.581c0-.191.052-.306.207-.306Zm-8.489,5.762.021-1.85h-4.162v1.85Zm-.016,2.95.016-1.758h-4.141v1.758Zm1.337,0h4.2v-1.758h-4.177Zm.021-2.95h4.177v-1.85h-4.156Z" transform="translate(-190.766 -2154.932)" fill="#72adb6"/>
      <path id="Path_801" data-name="Path 801" d="M304.4,2211.156a19.273,19.273,0,0,0,.736-2.058c.078-.155.171-.227.285-.227l1.472.548c.155.114.228.187.228.265a.3.3,0,0,1-.207.305.559.559,0,0,0-.606.353c-.13.305-.244.569-.358.814h9.069c.156,0,.228.113.228.306v.584c0,.207-.073.3-.228.3h-9.634a20.667,20.667,0,0,1-1.042,1.85c-.073.118-.135.207-.187.285h8.805c.228,0,.358.115.358.3v9.962c0,.413-.321.739-.922.969a11.463,11.463,0,0,1-2.327.373c-.135,0-.207-.078-.228-.229a4.034,4.034,0,0,0-.435-1.187c0-.058.062-.077.207-.077a9.288,9.288,0,0,0,2.026-.131c.228-.1.358-.227.358-.455v-1.323h-7.976v3.1c0,.156-.093.228-.28.228h-.757c-.192,0-.285-.072-.285-.228v-9.292c-.114.149-.249.3-.358.451a18.3,18.3,0,0,1-2.306,2.063,1.024,1.024,0,0,1-.456-.077c-.264-.109-.549-.227-.814-.321-.093-.037-.13-.079-.13-.135a.245.245,0,0,1,.15-.228,15.4,15.4,0,0,0,3.4-3.28,14.326,14.326,0,0,0,1.555-2.4c.036-.079.072-.135.109-.207H298.71c-.15,0-.228-.095-.228-.3v-.584c0-.193.078-.306.228-.306Zm7.6,6.8v-2.208h-7.976v2.208Zm0,3.533v-2.362h-7.976v2.362Z" transform="translate(-175.889 -2155.589)" fill="#72adb6"/>
      <path id="Path_802" data-name="Path 802" d="M308.349,2209.833c0,.114-.057.172-.15.172a.494.494,0,0,0-.435.207,21.608,21.608,0,0,1-1.7,3.4v12.241c0,.151-.114.229-.3.229h-.741c-.207,0-.3-.078-.3-.229V2215.41c-.435.528-.985,1.13-1.627,1.813a.5.5,0,0,1-.378-.17c-.186-.151-.394-.321-.586-.493a.243.243,0,0,1-.13-.227c.544-.566,1.094-1.188,1.664-1.83a14.513,14.513,0,0,0,1.886-2.8,16.325,16.325,0,0,0,1.1-2.685.16.16,0,0,1,.15-.148A5.855,5.855,0,0,1,308.349,2209.833Zm9.811-.149c.186,0,.3.077.3.228v6.348c0,.15-.114.228-.3.228h-.736c-.192,0-.285-.078-.285-.228v-.814h-2.819v2.743h5.032c.15,0,.228.093.228.279v.591c0,.207-.078.3-.228.3h-4.763a13.4,13.4,0,0,0,1.493,1.835,9.5,9.5,0,0,0,1.985,1.664,7.534,7.534,0,0,0,1.943.927c0,.109-.073.167-.187.208a5.87,5.87,0,0,0-.663.752c-.078.1-.15.153-.187.153a12.66,12.66,0,0,1-2.4-1.548,10.14,10.14,0,0,1-1.793-1.908c-.15-.2-.3-.384-.456-.591v5.007c0,.151-.093.229-.28.229H313.3c-.207,0-.306-.078-.306-.229v-4.7c-.207.263-.394.492-.544.679a15.5,15.5,0,0,1-1.7,1.741,17.587,17.587,0,0,1-2.12,1.471.416.416,0,0,1-.321-.134c-.249-.228-.492-.452-.72-.643a.512.512,0,0,1-.057-.192,10.562,10.562,0,0,0,1.648-.958,10.245,10.245,0,0,0,1.943-1.7,21.738,21.738,0,0,0,1.607-2.062h-4.462c-.145,0-.223-.093-.223-.3v-.591c0-.186.078-.279.223-.279H313v-2.743h-2.736v.888c0,.155-.1.227-.285.227h-.741c-.207,0-.3-.072-.3-.227v-6.344a.27.27,0,0,1,.3-.305Zm-1.021,4.591v-3.4h-6.877v3.4Z" transform="translate(-161.175 -2155.589)" fill="#72adb6"/>
      <path id="Path_803" data-name="Path 803" d="M310.194,2209.493a.947.947,0,0,1,.6.128,1.092,1.092,0,0,1,.435.68l-1.829,4.876a.8.8,0,0,0-.021.207.169.169,0,0,0,.093.156,9.206,9.206,0,0,1,1.492,2.078,5.186,5.186,0,0,1,.415,1.908,4.159,4.159,0,0,1-.565,2.456,2.165,2.165,0,0,1-2.021,1.021c-.565,0-.85-.109-.871-.378a9.158,9.158,0,0,0-.244-.965c0-.19.021-.279.073-.279l1.042.151a.872.872,0,0,0,.928-.565,5.516,5.516,0,0,0,.187-1.592,3.779,3.779,0,0,0-.492-1.7,6.624,6.624,0,0,0-1.55-1.985c-.073-.056-.114-.114-.114-.15a1.008,1.008,0,0,1,.078-.285l1.907-4.67h-2.643V2225.8c0,.146-.1.223-.285.223h-.757c-.187,0-.28-.077-.28-.223v-16.081c0-.156.093-.228.28-.228Zm4.685,3.457c.135.244.249.486.363.735h2.622a7.236,7.236,0,0,0,.477-.716,5.7,5.7,0,0,0,.451-1.041c.036-.095.078-.151.114-.151l1,.416c.171.076.264.149.264.243s-.057.119-.129.135a.229.229,0,0,0-.228.151,7.051,7.051,0,0,1-.456.963h2.721c.1,0,.156.078.156.229v.586c0,.212-.057.3-.156.3H310.852c-.093,0-.129-.088-.129-.3v-.586c0-.151.036-.229.129-.229h3.141a.774.774,0,0,1-.1-.171,7.05,7.05,0,0,0-.751-1.155c0-.067.321-.259.964-.581A11.467,11.467,0,0,1,314.879,2212.95Zm5.955,3.1c.187,0,.28.079.28.224v5.109c0,.151-.093.207-.28.207h-3.555v1.343h4.955c.093,0,.15.072.15.208v.605c0,.187-.057.279-.15.279h-4.955v1.856c0,.144-.093.223-.28.223h-.741c-.207,0-.3-.079-.3-.223v-1.856h-5.1c-.093,0-.129-.093-.129-.279v-.605c0-.136.036-.208.129-.208h5.1v-1.343h-3.4c-.192,0-.285-.056-.285-.207v-5.109c0-.146.093-.224.285-.224Zm-3.177-7.01c0,.19-.073.285-.187.285-.135.014-.192.151-.192.4v.731h4.369c.073,0,.13.076.13.207v.611c0,.186-.057.279-.13.279h-9.982c-.093,0-.13-.093-.13-.279v-.611c0-.131.036-.207.13-.207h4.291v-1.415c0-.136.093-.208.3-.208C317.185,2208.83,317.657,2208.9,317.657,2209.038Zm2.135,9.24v-1.188h-6.2v1.188Zm0,1.02h-6.2v1.265h6.2Z" transform="translate(-145.394 -2155.756)" fill="#72adb6"/>
    </g>
  </g>
</svg>
