<svg id="section3_subtitle" xmlns="http://www.w3.org/2000/svg" width="289.407" height="24.475" viewBox="0 0 289.407 24.475">
  <g id="Group_4667" data-name="Group 4667">
    <path id="Path_21928" data-name="Path 21928" d="M78.795,588.679v-2.06h3.113v2.06h7v2.989h-7v1.748h8.618v3.123h-3.84a15.577,15.577,0,0,1-1.3,2.566h4.07v3.017H81.908v1.959h8.076v2.985H81.908v3.918H78.795v-3.918H70.632v-2.985h8.163v-1.959H71.156V599.1H75.2a27.26,27.26,0,0,0-1.3-2.566H70v-3.123h8.8v-1.748H71.611v-2.989ZM82.207,599.1a15.222,15.222,0,0,0,1.3-2.566H77.134c.432.846.842,1.72,1.228,2.566Z" transform="translate(-69.997 -586.509)" fill="#fff"/>
    <path id="Path_21929" data-name="Path 21929" d="M81.084,590.835h1.591V593a20.166,20.166,0,0,1-1.752,4.391,25.714,25.714,0,0,1,2,2.281v-1.191H95.635v11.98H92.793v-.842H85.766v.842H82.924v-9.28l-1.136,2.143c-.363-.879-.8-1.72-1.251-2.571v9.607H77.879V602c-.547.717-1.113,1.4-1.706,2.069l-1.32-3.523a15.479,15.479,0,0,0,4.866-7.036H75.557v-2.672h2.732c-.207-1.113-.455-2.249-.773-3.412l2.75-.74A39.289,39.289,0,0,1,81.084,590.835Zm14.735-3.518v2.566H82.768v-2.566Zm-.8,3.6v6.324H83.563v-6.324ZM88,602.819v-1.775h-2.23v1.775Zm0,4.231v-1.771h-2.23v1.771ZM92.246,593.4H86.313v1.347h5.932Zm-1.679,9.418h2.226v-1.775H90.567Zm2.226,4.231v-1.771H90.567v1.771Z" transform="translate(-52.521 -586.282)" fill="#fff"/>
    <path id="Path_21930" data-name="Path 21930" d="M85.15,586.765c-.092,1.375-.207,2.75-.345,4.153h4.162q.069,7.857-1.817,12.462c.906.791,1.7,1.559,2.428,2.3l-1.863,3.307a23.289,23.289,0,0,0-2.069-2.594,20.39,20.39,0,0,1-3.615,4.263l-2.134-2.81a12.082,12.082,0,0,0,3.587-3.624c-1.021-.9-2.134-1.77-3.316-2.672.635-2.617,1.113-5.155,1.476-7.643H80.077v-2.989h1.932c.138-1.458.253-2.884.294-4.259Zm1,7.142H84.442q-.476,3.173-1.159,6.508c.543.372,1.044.74,1.522,1.085A26.655,26.655,0,0,0,86.148,593.906Zm13.64-6.213v2.8a24.873,24.873,0,0,1-3.362,5.316V596.9h4.088v3.2H96.426v7.749c-.051,1.8-1.366,2.7-3.914,2.7H90.558l-.432-3.307c1.476.083,2.364.106,2.663.106.451,0,.7-.368.7-1.136V600.1H88.967v-3.2h4.525v-2.879a15.628,15.628,0,0,0,2.456-3.1H89.4v-3.224Z" transform="translate(-34.365 -586.364)" fill="#fff"/>
    <path id="Path_21931" data-name="Path 21931" d="M100.422,609.242H97.309v-2.166H88.6v2.166H85.485V587.021h14.937Zm-3.113-13.967v-4.948H88.6v4.948Zm0,8.6v-5.394H88.6v5.394Z" transform="translate(-14.259 -585.062)" fill="#fff"/>
    <path id="Path_21932" data-name="Path 21932" d="M108.32,586.929v2.911l-5.794,5.767h7.57v3.307h-8v7.354a3.237,3.237,0,0,1-.842,2.437,3.578,3.578,0,0,1-2.433.768H94.633l-.428-3.624c1.817.156,2.929.211,3.362.211.819,0,1.251-.478,1.251-1.458v-5.689H89.837v-3.307h8.981v-.823l4.613-4.76H92.155v-3.095Z" transform="translate(1.403 -585.393)" fill="#fff"/>
    <path id="Path_21933" data-name="Path 21933" d="M96.062,593.456v-4.709h4.029v4.709Z" transform="translate(23.806 -578.85)" fill="#fff"/>
    <path id="Path_21934" data-name="Path 21934" d="M114.257,599.191a20.2,20.2,0,0,1-2.911,5,23.749,23.749,0,0,0,7.984,3.072l-1.614,3.514a26.083,26.083,0,0,1-8.549-4.282c-.046,0-.069-.027-.069-.055a26.135,26.135,0,0,1-8.954,4.337l-1.435-3.412a20.644,20.644,0,0,0,8-2.985c.023,0,.046-.028.069-.055a27.9,27.9,0,0,1-3.523-4.815l2.295-1.454A21.041,21.041,0,0,0,109,602.364a16.529,16.529,0,0,0,2.778-4.815Zm-7.275-4.553a21.056,21.056,0,0,1-6.139,6.323l-1.587-2.906a22.1,22.1,0,0,0,5.5-5.16Zm3.845-5.05H118.6v2.99H99.343v-2.99h8.025c-.179-.717-.409-1.43-.658-2.17l3.366-.823A23.518,23.518,0,0,1,110.826,589.589Zm8.14,8.885-2.571,2.276a32.914,32.914,0,0,0-5.592-6.112l2.387-1.849A38.349,38.349,0,0,1,118.966,598.474Z" transform="translate(33.328 -586.595)" fill="#fff"/>
    <path id="Path_21935" data-name="Path 21935" d="M109.961,587.591a37.756,37.756,0,0,1-2.5,5.606l-.023.055c.658-.1,1.274-.211,1.863-.34q.89-1.593,1.637-3.256l2.3,1.637a48.188,48.188,0,0,1-5.275,8.177c.865-.106,1.729-.262,2.635-.451-.179-.717-.363-1.4-.543-2.037l1.95-.607a45.692,45.692,0,0,1,1.6,5.261l-2.322.929c-.064-.4-.133-.791-.2-1.191q-3.449.91-6.889,1.508l-.455-3.1c.409,0,.8,0,1.2-.027.911-1.219,1.775-2.488,2.571-3.757-1.067.189-2.207.345-3.412.478l-.455-2.911c.317,0,.616-.027.911-.05a23.124,23.124,0,0,0,2.566-6.884Zm-3.21,16.11a61.76,61.76,0,0,1-.428,6.617L103.73,610a43.475,43.475,0,0,0,.819-6.5Zm3.389,5.689-2.5.4c-.023-1.9-.133-3.973-.34-6.194l2.115-.211C109.69,605.076,109.938,607.063,110.141,609.39Zm3.458-1.242-2.322.924a40.949,40.949,0,0,0-1.315-5.689l1.954-.607A45.815,45.815,0,0,1,113.6,608.148Zm6.48-21.3a27.56,27.56,0,0,0,4.976,8.388l-1.522,3.412c-.635-.8-1.228-1.619-1.77-2.437V597.8h-6.756v-1.241c-.455.634-.929,1.214-1.407,1.77l-1.5-3.412a20.546,20.546,0,0,0,4.8-8.066h3.187Zm3.454,23.781h-2.75v-1.454h-4.254v1.352h-2.75V599.682h9.754Zm-2.594-15.714a31.934,31.934,0,0,1-2.451-4.971,26.089,26.089,0,0,1-2.368,4.971Zm-.156,11.378v-3.73h-4.254v3.73Z" transform="translate(51.07 -586.451)" fill="#fff"/>
    <path id="Path_21936" data-name="Path 21936" d="M127.429,586.843V591.4h2.23v2.883h-2.23v4.654h-10.2a11.45,11.45,0,0,1-.8,1.32,2.785,2.785,0,0,0-.23.322h11.938v9.418H125.2v-1.136h-8.958v1.136h-2.929V603.67a14.255,14.255,0,0,1-3.118,2.06l-1.683-3.1a10.615,10.615,0,0,0,5-3.7h-3.049v-2.805h4.755a18.406,18.406,0,0,0,.681-1.849H109.13V591.4h7.5c.092-.557.207-1.14.3-1.775h-5.937v-2.778Zm-2.226,19.2v-2.672h-8.958v2.672Zm-6.705-9.919h6v-1.849h-5.39C118.907,594.937,118.7,595.549,118.5,596.128Zm1.292-4.732H124.5V589.62h-4.387C120.02,590.255,119.905,590.839,119.79,591.4Z" transform="translate(68.618 -585.702)" fill="#fff"/>
    <path id="Path_21937" data-name="Path 21937" d="M132.016,595.323v8.282H116.739v2.456c0,.584.317.846.98.846h11.819c.363,0,.639-.418.773-1.324,0,0,.069-.58.207-1.766l3.366.814c-.455,2.465-.98,3.973-1.522,4.576a3.2,3.2,0,0,1-2.391.694H117.194c-2.318,0-3.458-1.09-3.458-3.2V595.323Zm-1.159-8.572v7.22H114.876v-7.22Zm-9.5,11.373h-4.617V600.8h4.617Zm6.5-8.6H117.9v1.665h9.961Zm1.136,8.6h-4.617V600.8h4.617Z" transform="translate(87.411 -586.033)" fill="#fff"/>
    <path id="Path_21938" data-name="Path 21938" d="M136.639,589.952a92.322,92.322,0,0,1-11.824,1.536v3.546h12.348v2.99H133.7v8.466h4.433v2.984H118.607v-2.984h3.118V588.5a74.716,74.716,0,0,0,13.571-1.748Zm-5.955,16.537v-8.466h-5.868v8.466Z" transform="translate(104.941 -586.033)" fill="#fff"/>
    <path id="Path_21939" data-name="Path 21939" d="M128.619,604.148a36.658,36.658,0,0,0,4.7-1.43l.184,3.311a73.141,73.141,0,0,1-9.777,2.911l-.271-3.734c.773-.106,1.545-.239,2.318-.4V586.82h2.842v6.825h4.433v2.989h-4.433ZM143.445,592.4a20.775,20.775,0,0,1-6.576,6.029v5.211a3.578,3.578,0,0,0,.3,1.8,2.194,2.194,0,0,0,1.66.474H139.9a.932.932,0,0,0,.911-.5,33.333,33.333,0,0,0,.432-6.006l2.934,1.559a24.786,24.786,0,0,1-1.117,6.618,2.924,2.924,0,0,1-2.8,1.637h-2.364c-1.706,0-2.773-.368-3.182-1.081a7.3,7.3,0,0,1-.681-3.651V586.82h2.837v7.855a17.084,17.084,0,0,0,4.369-4.76Z" transform="translate(122.402 -585.785)" fill="#fff"/>
    <path id="Path_21940" data-name="Path 21940" d="M132.268,588.468c-.046,1.164-.115,2.249-.184,3.307h.888v-4.865h2.75v4.865h1.6v2.888h-1.6v4.2c.616-.211,1.232-.423,1.867-.685v1.242h6.843v-1.849H137.5v-3.021h4.272V592.2h-3.656v-2.911h3.656v-2.672h2.847v2.672h3.978V592.2h-3.978v2.35h4.774v3.021h-2.115v1.849h2.115v2.989h-2.115v5.795c0,1.715-.75,2.594-2.23,2.594h-3.021l-.524-3.417c1.458.161,2.253.212,2.387.212.363,0,.547-.234.547-.741v-4.442h-7.114v-.9c-.547.267-1.094.5-1.6.713v8.761h-2.75v-7.62c-1.315.529-2.594.952-3.817,1.32l-.8-3.808a44.647,44.647,0,0,0,4.617-1.113v-5.1h-1.159c-.156,1.292-.34,2.511-.52,3.624l-2.778-.929a54.713,54.713,0,0,0,1.163-9.312Zm10.209,18.175-2.594,1.458a21.642,21.642,0,0,0-2.115-4.341l2.3-.924A23.481,23.481,0,0,1,142.477,606.642Z" transform="translate(140.018 -586.509)" fill="#fff"/>
  </g>
</svg>
