<svg id="section4_title4" xmlns="http://www.w3.org/2000/svg" width="344.271" height="38.137" viewBox="0 0 344.271 38.137">
  <path id="Path_31634" data-name="Path 31634" d="M85.1,1121.738c-.129,2.138-.29,4.272-.478,6.442H90.5q.1,12.2-2.571,19.338c1.288,1.232,2.41,2.423,3.44,3.573l-2.635,5.128a35.494,35.494,0,0,0-2.925-4.02,30.875,30.875,0,0,1-5.109,6.6l-3.021-4.351a18.2,18.2,0,0,0,5.077-5.619c-1.444-1.4-3.021-2.75-4.691-4.149.9-4.065,1.573-8,2.088-11.865H77.937v-4.64h2.732c.193-2.253.354-4.47.414-6.6Zm1.416,11.082h-2.41q-.676,4.933-1.642,10.1c.773.575,1.481,1.15,2.157,1.688A45.021,45.021,0,0,0,86.518,1132.82Zm19.283-9.643v4.35a39.67,39.67,0,0,1-4.755,8.251v1.683h5.785v4.966h-5.785v12.026c-.064,2.8-1.932,4.19-5.528,4.19H92.754l-.612-5.132c2.088.124,3.339.165,3.762.165.639,0,.993-.574.993-1.766v-9.483H90.5v-4.966h6.4v-4.474a23.519,23.519,0,0,0,3.472-4.806H91.112v-5Z" transform="translate(-77.679 -1121.122)" fill="gold"/>
  <path id="Path_31635" data-name="Path 31635" d="M94.391,1122.726a75.09,75.09,0,0,1-2.253,8.743v27.625H88.252v-18.267c-.708,1.4-1.481,2.75-2.249,4.024l-1.384-5.624a55.837,55.837,0,0,0,6.011-17.65Zm19.218,0v4.475h-8.163v2.419h7.294v16.666h-7.487a23.223,23.223,0,0,1-1,5.381c-.129.327-.225.616-.322.86a17.728,17.728,0,0,0,6.783,1.149h3.408l-1.03,4.8c-4.787,0-8.453-.74-11.023-2.212-.193-.128-.386-.207-.515-.289-.322.244-.612.45-.9.657a12.7,12.7,0,0,1-7.133,2.01l-.869-4.677a12.748,12.748,0,0,0,5.206-.989,23.069,23.069,0,0,1-3.467-4.594l2.088-2.1H94.391V1129.62h7.036V1127.2h-6.65v-4.475Zm-13.176,27.5a17.119,17.119,0,0,0,.768-3.941H97.542A17.888,17.888,0,0,0,100.434,1150.227Zm.993-14.205V1133.6H98.149v2.419Zm0,3.531H98.149v2.714h3.279Zm4.019-3.531h3.5V1133.6h-3.5Zm3.5,3.531h-3.5v2.714h3.5Z" transform="translate(-52.703 -1121.122)" fill="gold"/>
  <path id="Path_31636" data-name="Path 31636" d="M94.964,1129.092v-7.224h3.762v7.224h2.635v4.641H98.726v5.375c.708-.326,1.38-.694,2.023-1.062v-2.382h7.137v-1.932h-5.532v-3.983h5.532v-1.6H101.1v-4.185h6.783v-2.424h3.886v2.424h8.678v4.185h-8.678v1.6h7.685v5.583h1.38v4.515h-1.38v5.625h-7.685v2.051h7.685v3.7h-7.685v2.3a46.921,46.921,0,0,0,5.785.285,31.623,31.623,0,0,0,3.279-.327l-.644,4.8h-3.307a30.689,30.689,0,0,1-9.322-1.233,10.014,10.014,0,0,1-3.376-2.419,23.467,23.467,0,0,1-2.313,4.3l-3.021-3.362a15.768,15.768,0,0,0,3.5-9.156l3.665.658a33.554,33.554,0,0,1-.612,3.615,6.178,6.178,0,0,0,2.318,1.844c.06.046.1.082.161.082v-7.142h-5.753v-4.024h5.753v-1.927h-6.815l.161,3.2c-.837.492-1.669.984-2.506,1.439v10.421c0,2.548-1.03,3.859-3.021,3.859H92.586l-.773-5.128a24,24,0,0,0,2.378.327c.515,0,.773-.367.773-1.15v-6.567c-.961.41-1.927.823-2.893,1.15l-.386-5.459a24.97,24.97,0,0,0,3.279-.942v-6.94h-3.15v-4.641Zm16.809,6.572h3.891v-1.932h-3.891Zm0,5.785h3.891v-1.927h-3.891Z" transform="translate(-27.274 -1121.251)" fill="gold"/>
  <path id="Path_31637" data-name="Path 31637" d="M100.506,1132.124v-7.307h5.689v7.307Z" transform="translate(4.471 -1109.462)" fill="gold"/>
  <path id="Path_31638" data-name="Path 31638" d="M107.895,1128.7v-6.732h3.279v6.732h1.862v1.564a2.73,2.73,0,0,0,.639-.088,42.316,42.316,0,0,0,1.61-8.208l3.021,1.149a62.577,62.577,0,0,1-1.83,6.406,1.374,1.374,0,0,1-.129.285c.51-.078,1.026-.161,1.541-.285.451-1.315.837-2.709,1.191-4.19l2.184,1.15c-.032-1.559-.064-3.242-.064-4.966h3.279c.032,2.874.1,5.459.161,7.8h.322a34.061,34.061,0,0,0,2.023-7.353l2.989,1.149a60.738,60.738,0,0,1-2.028,5.79,11.125,11.125,0,0,0,1.191-.29c.451-1.15.837-2.336,1.223-3.569l2.893,1.435c-.869,2.134-1.738,4.066-2.6,5.707l1.734-.574a39.165,39.165,0,0,1,1.862,7.183l-2.759.984c-.069-.529-.133-1.062-.193-1.559a27.606,27.606,0,0,1-6.172,1.15c.06.9.156,1.683.225,2.341h2.695c-.193-.74-.386-1.439-.575-2.092l3.661-.327c.129.814.262,1.6.386,2.419h2.378v3.859h-7.937a26.2,26.2,0,0,0,1,3.9,17.5,17.5,0,0,0,2.281-3.615l2.764,1.6a29.72,29.72,0,0,1-3.311,5.583c.515.777,1,1.15,1.416,1.15.579,0,.9-.782,1.026-2.341,0,0,.032-.492.129-1.476l2.86,1.926c-.193,2.667-.639,4.429-1.315,5.377a3.2,3.2,0,0,1-2.7,1.352c-1.288,0-2.571-1.068-3.858-3.113a1.22,1.22,0,0,0-.129-.208,25.237,25.237,0,0,1-5.174,3.321l-2.378-3.688a20.537,20.537,0,0,0,5.785-3.288,28.538,28.538,0,0,1-1.508-5.5,9.633,9.633,0,0,1-.166-.988h-4.047c-.032.413-.064.818-.064,1.191a27.1,27.1,0,0,1,4.4,2.791l-1.895,3.859a25.649,25.649,0,0,0-2.925-2.667,21.586,21.586,0,0,1-.451,2.134,17.389,17.389,0,0,1-3.15,5.992l-2.635-3.693a10.3,10.3,0,0,0,2.608-4.313,23.674,23.674,0,0,0,.8-5.293h-2.152v-3.118l-.515,1.026c-.451-1.274-.934-2.507-1.476-3.739v19.131h-3.279v-16.505a64.508,64.508,0,0,1-2.378,8.457l-1.384-5.909a48.315,48.315,0,0,0,3.021-12.026H105V1128.7Zm5.27,7.722a11.719,11.719,0,0,0,1.669-.083,24.84,24.84,0,0,0,1.706-3.33c-1.223.331-2.479.575-3.762.824l-.064-.943h-1.541v1.766c.8.984,1.508,1.844,2.12,2.668Zm8.742,2.833-1.83.694c-.069-.491-.166-.942-.23-1.434-1.83.574-3.628,1.025-5.427,1.434l-.869,1.766h1.863v-1.766h3.279v1.766h3.472C122.068,1140.93,121.972,1140.106,121.907,1139.251Zm-3.054-4.966c-.322.616-.612,1.145-.869,1.637q.628-.117,1.255-.248C119.111,1135.227,118.983,1134.772,118.854,1134.285Zm2.474-6c-.644,1.807-1.251,3.408-1.9,4.8l1.03-.367c.515,1.476.934,2.833,1.255,4.1C121.521,1134.285,121.392,1131.41,121.328,1128.288Zm3.569,7.592h.478a30.956,30.956,0,0,0,2.221-3.734,16.311,16.311,0,0,1-2.86.492C124.768,1133.829,124.832,1134.9,124.9,1135.88Zm5.27-2.792c-.547.948-1.062,1.812-1.545,2.548a17.544,17.544,0,0,0,2.12-.331C130.553,1134.57,130.36,1133.829,130.167,1133.088Z" transform="translate(17.524 -1121.348)" fill="gold"/>
  <path id="Path_31639" data-name="Path 31639" d="M114.534,1129.092v-7.224H118.3v7.224h2.635v4.641H118.3v5.375c.7-.326,1.38-.694,2.023-1.062v-2.382h7.133v-1.932h-5.528v-3.983h5.528v-1.6h-6.779v-4.185h6.779v-2.424h3.891v2.424h8.678v4.185h-8.678v1.6h7.68v5.583h1.384v4.515h-1.384v5.625h-7.68v2.051h7.68v3.7h-7.68v2.3a46.921,46.921,0,0,0,5.785.285,31.621,31.621,0,0,0,3.279-.327l-.644,4.8h-3.311a30.735,30.735,0,0,1-9.322-1.233,10,10,0,0,1-3.371-2.419,23.464,23.464,0,0,1-2.313,4.3l-3.026-3.362a15.773,15.773,0,0,0,3.5-9.156l3.665.658a34.726,34.726,0,0,1-.612,3.615,6.178,6.178,0,0,0,2.318,1.844c.06.046.092.082.156.082v-7.142H121.7v-4.024h5.753v-1.927h-6.811l.161,3.2c-.837.492-1.674.984-2.506,1.439v10.421c0,2.548-1.03,3.859-3.021,3.859h-3.118l-.773-5.128a23.807,23.807,0,0,0,2.378.327c.515,0,.773-.367.773-1.15v-6.567c-.966.41-1.927.823-2.893,1.15l-.386-5.459a25.177,25.177,0,0,0,3.279-.942v-6.94h-3.15v-4.641Zm16.809,6.572h3.891v-1.932h-3.891Zm0,5.785h3.891v-1.927h-3.891Z" transform="translate(43.154 -1121.251)" fill="gold"/>
  <path id="Path_31640" data-name="Path 31640" d="M145.407,1157.873h-3.891v-1.6H122.331v1.6H118.44v-36.082h26.967Zm-3.891-5.786v-5.049a9.457,9.457,0,0,1-1.384,3.284,1.947,1.947,0,0,1-1.6.984c-.966,0-1.959-.657-2.989-2.056a4.172,4.172,0,0,1-.451-.653,18.984,18.984,0,0,1-2.6,2.833l-2.056-3.122a42.781,42.781,0,0,1-7.105,1.517l-.51-4.144a32.351,32.351,0,0,0,9.285-1.766v1.807c.386-.409.8-.906,1.191-1.4a8.529,8.529,0,0,1-.354-1.518,57.86,57.86,0,0,1-1.03-9.809h-8.839v-3.822h8.71c-.032-1.062-.032-2.134-.032-3.242h-9.414v26.153Zm-10.03-17.323v8.824h-7.905v-8.824Zm-3.017,3.2H126.6v2.424h1.867Zm6.843-8.788h2.313c-.515-.616-1-1.191-1.508-1.766l1.062-1.476h-1.931C135.249,1127.084,135.249,1128.192,135.313,1129.176Zm5.077-1.31-.929,1.31h1.315V1133h-5.335a61.131,61.131,0,0,0,.579,6.567,35.352,35.352,0,0,0,1.862-5.748l2.893,1.605a43.966,43.966,0,0,1-3.279,9.437c.354.782.708,1.149,1.03,1.149.129,0,.258-.409.354-1.31,0,0,.064-.657.258-2.051l2.378,1.678v-18.391h-2.925A23.48,23.48,0,0,1,140.39,1127.866Z" transform="translate(69.012 -1120.352)" fill="gold"/>
  <path id="Path_31641" data-name="Path 31641" d="M133.674,1132.027a70.368,70.368,0,0,1-2.184,8.664h3.435a43.982,43.982,0,0,1-2.41,10.8l-.064.165a6.98,6.98,0,0,0,2.028,1.476c1.347.658,4.433,1.026,9.188,1.063,1.255,0,4.948-.2,11.088-.653l-.612,4.967c-3.274.078-5.109.161-5.56.161-7.97,0-12.982-.529-15.07-1.517a9.882,9.882,0,0,1-2.6-2.092,38.215,38.215,0,0,1-2.989,4.557l-2.764-4.143a21.112,21.112,0,0,0,3.6-5.256,21.974,21.974,0,0,0,1.674-5.339h-3.794a73.231,73.231,0,0,0,2.506-8.66h-3.757v-4.189Zm-.129-4.3-3.376,3.361a34.476,34.476,0,0,0-4.277-6.4l3.15-2.75A37.2,37.2,0,0,1,133.545,1127.723Zm9.478-2.1h2.828a16.355,16.355,0,0,0,1.255-3.983l4.4.777a24.777,24.777,0,0,1-1.412,3.206h4.433v4.351H145.98c-.129.7-.225,1.356-.317,1.931h7.712V1152.1H135.44v-20.193h5.85c.1-.616.193-1.274.29-1.931h-7.137v-4.351h4.245a23.433,23.433,0,0,0-1.481-3.04l4.116-1.108A19.927,19.927,0,0,1,143.023,1125.626Zm6.236,12.191v-2.258h-9.676v2.258Zm0,5.294v-2.092h-9.676v2.092Zm0,3.2h-9.676v2.092h9.676Z" transform="translate(93.185 -1121.478)" fill="gold"/>
  <path id="Path_31642" data-name="Path 31642" d="M139.336,1122.456c-.193.823-.419,1.605-.612,2.263h2.184c-.258-.782-.515-1.518-.8-2.263l3.376-.942a21.3,21.3,0,0,1,.961,3.206h2.543v3.2h-3.247v1.766h2.506v3.2h-2.506v1.927H146.5v3.2h-2.764v1.931h3.371v3.367h-12.4v-9.561c-.418.652-.832,1.269-1.251,1.844l-1.288-4.8a25.77,25.77,0,0,0,3.918-9.28Zm18.961,22.13v3.2a22.823,22.823,0,0,1-5.817,5.3,51.74,51.74,0,0,0,9.188.818l-1.38,5.128a50.727,50.727,0,0,1-12.665-3.242,47.187,47.187,0,0,1-13.944,3.242l-1.513-5.294a52.485,52.485,0,0,0,10.347-.823,30.472,30.472,0,0,1-5.238-4.47h-2.957v-3.859Zm-17.839-16.666H138.21v1.766h2.249Zm0,4.967H138.21v1.927h2.249Zm-2.249,7.059h2.249v-1.931H138.21Zm9.161,11.493a19.759,19.759,0,0,0,4.916-2.994h-9.612A24.066,24.066,0,0,0,147.371,1151.438Zm5.657-28.982c-.193.823-.359,1.559-.547,2.263h2.056c-.258-.7-.579-1.4-.9-2.093l3.536-.989a20.647,20.647,0,0,1,1.03,3.082h2.985v3.2h-3.4v1.766h2.764v3.2h-2.764v1.927h2.764v3.2h-2.764v1.931h3.536v3.367H148.364v-9.027c-.258.409-.51.814-.74,1.145l-1.122-4.475a27.723,27.723,0,0,0,3.5-9.441Zm1.38,5.463H151.9v1.766h2.506Zm0,4.967H151.9v1.927h2.506Zm-2.506,7.059h2.506v-1.931H151.9Z" transform="translate(118.413 -1121.348)" fill="gold"/>
  <path id="Path_31643" data-name="Path 31643" d="M142.491,1129.092v-7.224h3.762v7.224h2.635v4.641h-2.635v5.375c.7-.326,1.38-.694,2.023-1.062v-2.382h7.133v-1.932h-5.528v-3.983h5.528v-1.6H148.63v-4.185h6.779v-2.424H159.3v2.424h8.678v4.185H159.3v1.6h7.68v5.583h1.384v4.515H166.98v5.625H159.3v2.051h7.68v3.7H159.3v2.3a46.921,46.921,0,0,0,5.785.285,31.622,31.622,0,0,0,3.279-.327l-.644,4.8h-3.311a30.678,30.678,0,0,1-9.317-1.233,9.97,9.97,0,0,1-3.375-2.419,23.467,23.467,0,0,1-2.313,4.3l-3.026-3.362a15.773,15.773,0,0,0,3.5-9.156l3.665.658a34.7,34.7,0,0,1-.612,3.615,6.178,6.178,0,0,0,2.318,1.844c.06.046.092.082.156.082v-7.142h-5.753v-4.024h5.753v-1.927H148.6l.161,3.2c-.837.492-1.674.984-2.506,1.439v10.421c0,2.548-1.03,3.859-3.021,3.859h-3.118l-.773-5.128a23.8,23.8,0,0,0,2.378.327c.515,0,.773-.367.773-1.15v-6.567c-.966.41-1.927.823-2.893,1.15l-.386-5.459a25.182,25.182,0,0,0,3.279-.942v-6.94h-3.15v-4.641Zm16.809,6.572h3.891v-1.932H159.3Zm0,5.785h3.891v-1.927H159.3Z" transform="translate(143.766 -1121.251)" fill="gold"/>
  <path id="Path_31644" data-name="Path 31644" d="M156.412,1134.39a40.454,40.454,0,0,0,2.732-6.733l3.757,1.274a49.563,49.563,0,0,1-3.017,6.733c.961,1.843,2.024,4.106,3.15,6.732l-3.633,1.766a83.172,83.172,0,0,0-3.343-7.882,53.927,53.927,0,0,1-2.571,4.76v18.184h-3.762V1146.5c-.708.906-1.38,1.724-2.024,2.465l-1.6-5.417a36.663,36.663,0,0,0,7.648-11.746Zm-.676-10.264a36.311,36.311,0,0,1-7,11.7l-2.414-4.641a36.076,36.076,0,0,0,6.429-9.644ZM174.7,1144.65v4.314h-7.133v5h8.163v4.314H155.253v-4.314h8.034v-5H156.38v-4.314Zm.386-21.794v4.3h-19.09v-4.3Zm-6.264,6.236a56.841,56.841,0,0,1-2.768,6.572c.966,1.807,2,4.019,3.118,6.567l-3.628,1.761a75.9,75.9,0,0,0-3.633-8.328,39.434,39.434,0,0,0,3.15-7.842Zm6.264,0a48.343,48.343,0,0,1-2.893,6.572q1.545,2.648,3.279,6.406l-3.665,1.761a68.385,68.385,0,0,0-3.757-8.167,35.867,35.867,0,0,0,3.274-7.842Z" transform="translate(168.544 -1121.251)" fill="gold"/>
</svg>
