<svg id="section4_subtitle5" xmlns="http://www.w3.org/2000/svg" width="312.967" height="24.682" viewBox="0 0 312.967 24.682">
  <path id="Path_31726" data-name="Path 31726" d="M83.663,1366.506v-4.341h2.318v4.341H87.3v1a2.745,2.745,0,0,0,.451-.05,25.086,25.086,0,0,0,1.136-5.294l2.138.74a36.891,36.891,0,0,1-1.3,4.13.781.781,0,0,1-.092.184c.368-.055.731-.11,1.095-.184a27.748,27.748,0,0,0,.842-2.7l1.545.74c-.023-1.007-.046-2.093-.046-3.2H95.39c.023,1.848.069,3.513.115,5.022h.23a20.27,20.27,0,0,0,1.43-4.733l2.115.74a38.281,38.281,0,0,1-1.43,3.73c.271-.051.566-.106.837-.184.322-.741.593-1.509.865-2.3l2.046.925a40.186,40.186,0,0,1-1.839,3.679l1.228-.372a23.431,23.431,0,0,1,1.315,4.631l-1.954.63c-.046-.341-.087-.685-.138-1a21.145,21.145,0,0,1-4.364.74c.046.584.115,1.086.161,1.508h1.909c-.138-.478-.271-.924-.409-1.347l2.594-.212c.087.524.179,1.03.271,1.559h1.683v2.488H96.438a15.816,15.816,0,0,0,.7,2.515,11.474,11.474,0,0,0,1.614-2.332l1.954,1.03a19.02,19.02,0,0,1-2.341,3.6c.363.5.7.74,1,.74.4,0,.635-.506.727-1.509,0,0,.023-.317.087-.952l2.028,1.242a6.8,6.8,0,0,1-.934,3.467,2.359,2.359,0,0,1-1.908.874c-.911,0-1.821-.69-2.732-2.015a.579.579,0,0,0-.092-.128,18.045,18.045,0,0,1-3.661,2.143l-1.679-2.382a14.955,14.955,0,0,0,4.093-2.115,17.421,17.421,0,0,1-1.072-3.546,6.133,6.133,0,0,1-.115-.635h-2.86c-.023.262-.046.529-.046.768a20.176,20.176,0,0,1,3.113,1.794l-1.343,2.488a16.989,16.989,0,0,0-2.069-1.72,11.391,11.391,0,0,1-.317,1.375,10.985,10.985,0,0,1-2.226,3.868l-1.867-2.387a6.527,6.527,0,0,0,1.844-2.773,13.847,13.847,0,0,0,.566-3.412H87.388v-2.014l-.363.667c-.317-.823-.658-1.619-1.044-2.415v12.335H83.663v-10.637a38.324,38.324,0,0,1-1.688,5.45L81,1376.954a29.191,29.191,0,0,0,2.138-7.754H81.612v-2.695Zm3.725,4.971a9.59,9.59,0,0,0,1.182-.051,15.559,15.559,0,0,0,1.2-2.148c-.865.216-1.748.373-2.658.529l-.046-.607h-1.09v1.136c.566.635,1.067,1.191,1.5,1.725Zm6.185,1.826-1.3.451c-.046-.322-.115-.612-.161-.925-1.292.368-2.566.658-3.84.925l-.612,1.135h1.315v-1.135H91.3v1.135h2.451C93.688,1374.384,93.619,1373.854,93.573,1373.3Zm-2.161-3.2c-.225.4-.432.74-.612,1.058l.888-.161C91.6,1370.714,91.5,1370.419,91.412,1370.1Zm1.752-3.863c-.455,1.163-.888,2.2-1.343,3.094l.727-.239c.363.952.662,1.826.888,2.645C93.3,1370.1,93.21,1368.249,93.164,1366.239Zm2.525,4.893h.34a20.245,20.245,0,0,0,1.568-2.4,12.915,12.915,0,0,1-2.023.313C95.6,1369.808,95.643,1370.5,95.689,1371.132Zm3.725-1.8c-.386.612-.75,1.164-1.09,1.638a12.646,12.646,0,0,0,1.5-.211C99.69,1370.286,99.552,1369.808,99.414,1369.333Z" transform="translate(-81 -1361.553)" fill="#fff"/>
  <path id="Path_31727" data-name="Path 31727" d="M88.362,1366.762V1362.1h2.663v4.659h1.863v2.985H91.024v3.467c.5-.212.975-.446,1.43-.685v-1.536H97.5v-1.246H93.591v-2.562H97.5v-1.035h-4.8v-2.7h4.8v-1.559h2.75v1.559h6.139v2.7h-6.139v1.035h5.431v3.6h.98v2.911h-.98v3.624h-5.431v1.32h5.431v2.387h-5.431v1.481a36.8,36.8,0,0,0,4.093.184c.271,0,1.049-.055,2.318-.211l-.455,3.1h-2.341a23.836,23.836,0,0,1-6.595-.8,7.1,7.1,0,0,1-2.387-1.559,14.884,14.884,0,0,1-1.637,2.778l-2.138-2.17a9.64,9.64,0,0,0,2.479-5.9l2.594.423a20.2,20.2,0,0,1-.432,2.327,4.367,4.367,0,0,0,1.637,1.191c.046.027.069.055.115.055v-4.6h-4.07v-2.594H97.5v-1.241h-4.82l.11,2.06c-.589.317-1.182.64-1.771.925v6.723c0,1.642-.727,2.484-2.138,2.484h-2.2l-.547-3.306c1.021.161,1.591.212,1.683.212.363,0,.543-.235.543-.74v-4.232c-.681.267-1.361.534-2.042.741l-.276-3.519a17.826,17.826,0,0,0,2.318-.607v-4.474H86.136v-2.985Zm11.893,4.231H103v-1.246h-2.75Zm0,3.729H103v-1.241h-2.75Z" transform="translate(-62.848 -1361.492)" fill="#fff"/>
  <path id="Path_31728" data-name="Path 31728" d="M111.252,1378.109v3.624H90.994v-3.624Zm-1.771-15.609v3.519H92.861V1362.5Zm-1.251,7.432v3.412H94.2v-3.412Z" transform="translate(-45.034 -1359.296)" fill="#fff"/>
  <path id="Path_31729" data-name="Path 31729" d="M104.664,1369.706c-.041,3.224-.2,6.563-.474,9.97.451-.133.86-.289,1.269-.45v3.2a65.44,65.44,0,0,1-9.046,2.782l-.524-3.412a40.425,40.425,0,0,0,5.5-1.191,110.336,110.336,0,0,0,.888-11.088Zm-2.2-3.812h3.274v2.883h-9.6v-2.883h3.3a36.905,36.905,0,0,0-.7-3.624l3.182-.318C102.121,1363.273,102.3,1364.575,102.462,1365.894Zm-1.775,13.332-2.842.4a59.931,59.931,0,0,0-.98-9.179l2.483-.216A85.483,85.483,0,0,1,100.687,1379.226Zm11-17.351v3.913h5.137v2.99h-5.137v4.236h4.249v13.221h-2.75v-1.849h-4.7v1.849h-2.75v-13.221h3.113v-11.138Zm1.5,19.627v-5.583h-4.7v5.583Z" transform="translate(-27.414 -1361.553)" fill="#fff"/>
  <path id="Path_31730" data-name="Path 31730" d="M113.039,1364.192h8.3v2.773H117.4a15.855,15.855,0,0,1-1,1.959h3.868v14.684c0,1.72-.685,2.594-2.046,2.594h-3.205l-.322-2.277h-8.729v-6.479l-1.159-1.564v10.32h-2.934v-17.278h4.254c-.345-.658-.731-1.325-1.136-1.959h-4.1v-2.773h8.687c-.225-.529-.455-1.035-.681-1.563l3.274-.823A13.689,13.689,0,0,1,113.039,1364.192Zm-5.436,7.538h-2.8v3.812A5.685,5.685,0,0,0,107.6,1371.729Zm8.48,5.16v6.268c.294.027.455.027.455.027.524,0,.8-.184.8-.612v-6.608H114.4c-1.725,0-2.571-.8-2.571-2.383v-1.853h-1.679a9.735,9.735,0,0,1-1.159,3.624,6.732,6.732,0,0,1-1.32,1.536Zm-2.888-7.965a16.7,16.7,0,0,0,1-1.959H108.22c.317.634.612,1.3.883,1.959Zm.138,10.453h-4.617v2.06h4.617Zm1.251-6.719c0,.63.156.924.52.924h2.23v-1.853h-2.75Z" transform="translate(-9.405 -1361.806)" fill="#fff"/>
  <path id="Path_31731" data-name="Path 31731" d="M125.151,1385.309H122.4v-.93H108.733v.93h-2.75v-23.256h19.168Zm-14.279-12.729h-1.794v-2.272h3.569c.179-.29.34-.612.52-.93h-3.546v-2.06h1.545c-.225-.634-.474-1.246-.75-1.849l2.322-.533a13.719,13.719,0,0,1,.814,2.382h.5a15.107,15.107,0,0,0,.708-2.782h-6.029v9.924A14.351,14.351,0,0,0,110.871,1372.579ZM122.4,1381.9v-6.59l-.888,1.614a6.424,6.424,0,0,1-2.23-1.669,3.886,3.886,0,0,1-.819,2.543,3.812,3.812,0,0,1-2.451.58h-.98l-.363-2.061a5.815,5.815,0,0,0,1.343.211,1.215,1.215,0,0,0,.635-.106.428.428,0,0,0,.271-.4l.069-.418h-3.73v2.773c0,.372.23.529.708.529h3.817c.934,0,1.458-.289,1.568-.9,0,0,.069-.344.207-1.085l2.226.741c-.271,1.664-.7,2.7-1.3,3.067a5.4,5.4,0,0,1-2.612.428h-4.889a2.056,2.056,0,0,1-2.207-2.253v-2.538c-.451.428-.888.818-1.338,1.2l-.708-1.514v5.85Zm-4.525-8.282a6.863,6.863,0,0,1-.685-1.035h-3.224c-.253.372-.5.717-.754,1.035Zm4.525.634v-9.712h-5.3a20.012,20.012,0,0,1-.639,2.782h.911a13.482,13.482,0,0,0,1.3-2.382l2.23.635a13.943,13.943,0,0,1-.934,1.747h1.453v2.06h-5.707c-.133.317-.294.64-.432.93h6.595v2.272h-2.024A7.89,7.89,0,0,0,122.4,1374.248Z" transform="translate(8.909 -1360.913)" fill="#fff"/>
  <path id="Path_31732" data-name="Path 31732" d="M115.091,1369.578a7.67,7.67,0,0,1-2.019,1.8l-1-1.747a3.758,3.758,0,0,0,1.886-1.931h-1.384v-3.734h3.224v2.883A4.89,4.89,0,0,1,115.091,1369.578Z" transform="translate(30.815 -1354.021)" fill="#fff"/>
  <path id="Path_31733" data-name="Path 31733" d="M133.529,1362.456v3.094h-7.275v13.332h8.618v3.1H114.794v-3.1h8.439v-13.332h-7.1v-3.094Z" transform="translate(40.618 -1359.462)" fill="#fff"/>
  <path id="Path_31734" data-name="Path 31734" d="M127.5,1362.738a42.012,42.012,0,0,1-1.683,5.238v17.913h-2.842v-12.224c-.727,1.163-1.481,2.276-2.295,3.334l-1.072-3.942a29.588,29.588,0,0,0,4.981-11.166Zm6.047-.211c-.276,1.108-.593,2.142-.934,3.094h8.117v3.1h-7.547v2.911H139.6v3.094h-6.411v3.307h6.751v3.094h-6.751v4.765h-2.911v-14.84a28.213,28.213,0,0,1-2.318,3.674l-1.775-3.094a24.56,24.56,0,0,0,4.162-9.736Z" transform="translate(57.953 -1361.492)" fill="#fff"/>
  <path id="Path_31735" data-name="Path 31735" d="M129.524,1362.044q-.138,2.062-.345,4.125h3.182q0,8.574-1.228,12.463c.593.579,1.117,1.108,1.591,1.614l-1.679,2.99c-.363-.529-.773-1.085-1.2-1.619a18.017,18.017,0,0,1-3.159,4.213l-2.046-2.493a16.7,16.7,0,0,0,3.136-3.937c-.934-.846-1.954-1.72-3.049-2.566.593-2.621,1.072-5.159,1.412-7.648h-1.412v-3.017H126.5c.138-1.453.225-2.855.271-4.231Zm.317,7.142h-1.026c-.317,2.17-.7,4.369-1.159,6.617.432.313.842.63,1.251.952A30.347,30.347,0,0,0,129.842,1369.185Zm5.909-5.473v7.009h8.434v5.182h1.072v2.884H141a8.549,8.549,0,0,0,1.274,1.747,8.66,8.66,0,0,0,3.136,2.088l-1.679,3.2a11.7,11.7,0,0,1-3.638-3.334,16.9,16.9,0,0,1-1.688-3.256,10.013,10.013,0,0,1-.612,1.693,12.236,12.236,0,0,1-4.456,4.9l-1.867-2.911a8.874,8.874,0,0,0,3.822-3.6,2.576,2.576,0,0,0,.23-.529h-3.412V1375.9h4.093c.092-.74.156-1.559.207-2.488H133.07v-9.7Zm8.687-1.351v7.119h-7.616v-7.119ZM138.98,1375.9h2.548v-2.488h-2.364C139.118,1374.345,139.072,1375.164,138.98,1375.9Zm2.888-10.954h-2.479v1.959h2.479Z" transform="translate(76.037 -1361.326)" fill="#fff"/>
  <path id="Path_31736" data-name="Path 31736" d="M141.26,1362.315c-.133.583-.271,1.08-.432,1.563h2.115V1368a2.489,2.489,0,0,0,.409-.023,26.34,26.34,0,0,0,1.384-5.873l2.575.846a39.24,39.24,0,0,1-1.573,4.709,8.251,8.251,0,0,0,1.072-.262q.545-1.428,1.021-3.022l2.41,1.141a49.2,49.2,0,0,1-2.433,5.211l1.453-.451a34.92,34.92,0,0,1,1.228,5.477l-2.2.713c-.046-.423-.115-.869-.161-1.348a45.115,45.115,0,0,1-4.911,1.136l-.271-1.743v1.03h-1.591V1377h8.8v2.566h-6.59a10.071,10.071,0,0,0,2.023,1.348,18.462,18.462,0,0,0,5.183,1.665l-1.591,3.094a18.4,18.4,0,0,1-5.689-2.883,11.949,11.949,0,0,1-2.134-2.144v5.243h-2.842v-5.132a13.81,13.81,0,0,1-2.318,2.166,22.294,22.294,0,0,1-5.413,2.75l-1.228-3.094a17.447,17.447,0,0,0,6.641-3.013h-6.3V1377h8.618v-1.458h-1.453a1.127,1.127,0,0,0,.041.317l-1.95.607c-.051-.474-.115-.98-.161-1.5a38.133,38.133,0,0,1-4.548,1.293l-.455-2.773a9.017,9.017,0,0,0,1.2-.055,22.809,22.809,0,0,0,1.977-3.569c-.906.289-1.817.529-2.727.74l-.455-2.805a6.65,6.65,0,0,0,.75-.028,23.622,23.622,0,0,0,1.568-5.661l2.387.846a31.615,31.615,0,0,1-1.656,4.47.364.364,0,0,1-.046.083,10.89,10.89,0,0,0,1.182-.239c.271-.8.543-1.67.8-2.567l1.683.768v-1.587h1.614c.133-.638.248-1.3.34-1.987Zm-6.774,9.5c-.225.418-.478.814-.7,1.186a5.246,5.246,0,0,0,.888-.211C134.623,1372.474,134.555,1372.129,134.485,1371.817Zm1.545-1.329c.23.9.432,1.775.616,2.593v-5.923c-.547,1.347-1.072,2.562-1.614,3.624Zm4.433-1.982v-2.249h-1.343v2.249Zm0,2.194h-1.343v2.46h1.343Zm3.072,2.755a23.022,23.022,0,0,0,2.134-3.467c-.86.266-1.706.5-2.548.713l-.179-1.426v4.208A4.492,4.492,0,0,0,143.536,1373.453Zm3.886-2.037c-.386.662-.75,1.242-1.113,1.771a14.464,14.464,0,0,0,1.453-.234C147.647,1372.446,147.537,1371.945,147.422,1371.416Z" transform="translate(93.725 -1361.492)" fill="#fff"/>
  <path id="Path_31737" data-name="Path 31737" d="M152.492,1363.939v3.808H134.828v-3.808Z" transform="translate(112.716 -1354.121)" fill="#fff"/>
  <path id="Path_31738" data-name="Path 31738" d="M142.492,1366.6v-4.659h2.75v4.659H147.2v2.985h-1.955v3.334a14.044,14.044,0,0,0,1.863-.952v3.523c-.589.289-1.223.575-1.863.841v6.8c0,1.637-.75,2.488-2.2,2.488h-2.663l-.547-3.307c1.3.156,2,.211,2.138.211.34,0,.524-.239.524-.74v-4.42c-.727.262-1.453.5-2.207.713l-.819-3.307a26.8,26.8,0,0,0,3.026-.818v-4.369h-2.571V1366.6Zm8.094,14.974c0,.579.248.842.8.842h3.73a4.04,4.04,0,0,0,1.748-.317c.368-.285.57-1.348.639-3.2l2.934.814q-.414,5.793-3.55,5.794h-6.2c-1.32,0-2.115-.34-2.437-1.025a4.64,4.64,0,0,1-.5-2.281v-19.228h11.548v13.116h-8.706Zm0-15.687v7.321h1.591v-7.321Zm4.254,0v7.321h1.614v-7.321Z" transform="translate(129.408 -1361.326)" fill="#fff"/>
  <path id="Path_31739" data-name="Path 31739" d="M146.958,1366.6v-4.659h2.75v4.659h1.954v2.985h-1.954v3.624c.593-.211,1.182-.446,1.775-.712l.179,3.094c-.635.317-1.292.612-1.954.873v6.563c0,1.642-.75,2.484-2.226,2.484h-2.23l-.432-3.2c.956.156,1.5.211,1.591.211.363,0,.547-.239.547-.74V1377.5c-.75.262-1.5.479-2.226.685l-.276-3.519c.842-.156,1.683-.34,2.5-.552v-4.529H144.64V1366.6Zm17.485-1.646a17.647,17.647,0,0,1-1.936.505c.092,7.565,1.141,13.3,3.1,17.168l-2.23,3.1q-3.2-7.381-3.523-19.711c-.363.056-.727.106-1.09.156v18.813h-2.571v-18.519a12.19,12.19,0,0,1-1.343.078v6.986a35.987,35.987,0,0,1-.589,6.558,25.04,25.04,0,0,1-1.8,5.744l-2.318-2.7c1.389-2.354,2.093-5.555,2.138-9.6V1363.5a43.016,43.016,0,0,0,10.936-1.559Z" transform="translate(147.366 -1361.326)" fill="#fff"/>
</svg>
