<svg xmlns="http://www.w3.org/2000/svg" width="340.951" height="35.323" viewBox="0 0 340.951 35.323">
  <g id="section10_title" transform="translate(-71.205 -9653.841)">
    <g id="Group_7538" data-name="Group 7538" transform="translate(158.373 9653.841)">
      <path id="Path_48926" data-name="Path 48926" d="M127.356,2164.375a98.385,98.385,0,0,1-5.164,17.948h10.766v4.25H97.252v-4.25h19.936a113.665,113.665,0,0,0,5.206-19Zm-9.929-11.879v5.8h13.98v4.24H98.958v-4.24h13.507v-5.8Zm-5.877,27.262-5.123,1.633a87.1,87.1,0,0,0-3.417-16.124l4.649-1.361A96.53,96.53,0,0,1,111.55,2179.757Z" transform="translate(-97.252 -2152.495)" fill="#c9dcb7"/>
      <path id="Path_48927" data-name="Path 48927" d="M124.589,2172.412H112.632v7.945c2.465-.349,4.769-.74,6.99-1.209a35.408,35.408,0,0,0-1.55-3.541l4.171-1.835a56.22,56.22,0,0,1,3.734,9.428l-4.525,1.83c-.2-.74-.4-1.4-.556-2.022-3.891,1.011-8.1,1.944-12.633,2.763l-1.545-4.557c.474-.036.952-.115,1.426-.2v-28.383h16.445Zm-4.525-11.879v-3.661h-7.432v3.661Zm0,7.6v-3.467h-7.432v3.467Zm10.881-11.258v30.3h-4.53v-34.537h14.9v24.649c0,3.348-1.472,5.022-4.327,5.022a30.118,30.118,0,0,1-3.1-.151l-1.072-4.562a12.031,12.031,0,0,0,3.095.432c.717,0,1.076-.432,1.076-1.367v-19.784Z" transform="translate(-63.186 -2152.007)" fill="#c9dcb7"/>
      <path id="Path_48928" data-name="Path 48928" d="M123.079,2165.127a43.979,43.979,0,0,0-5.56-4.088l2.98-3.04c1.03.584,1.982,1.169,2.939,1.794a24.317,24.317,0,0,0,2.939-3.041h-9.612v-4.088h15.213v3.776a32.375,32.375,0,0,1-4.967,5.959c.4.349.832.7,1.232,1.048l-1.352,1.679h5.84v3.04a26.9,26.9,0,0,1-3.261,6.112l-3.095-1.986a26.161,26.161,0,0,0,1.587-3.349H125.9v12.307c0,2.138-.317,3.546-.874,4.323-.713.86-1.945,1.323-3.771,1.323a15.285,15.285,0,0,1-3.854-.463l-.8-4.4a14.664,14.664,0,0,0,4.052.579.621.621,0,0,0,.6-.465,10.4,10.4,0,0,0,.156-1.949v-11.254h-5.123v-3.817Zm28.439-12.463v4.088h-7.547l-.317,1.83h7.229v22.668h-3.141a12.671,12.671,0,0,0,1.628.782,14.634,14.634,0,0,0,2.9,1.049l-2.3,4.129a23.479,23.479,0,0,1-3.3-1.637,30.157,30.157,0,0,1-3.536-2.493l2.3-1.831h-6.59l2.1,1.674a30.631,30.631,0,0,1-8.062,4.286l-2.3-4.129a27,27,0,0,0,5.284-1.831h-2.5v-22.668h5.8l.317-1.83h-6.912v-4.088Zm-5.128,12.15v-2.1h-8.535v2.1Zm0,6.232v-2.415h-8.535v2.415Zm0,6.116v-2.3h-8.535v2.3Z" transform="translate(-28.749 -2151.887)" fill="#c9dcb7"/>
      <path id="Path_48929" data-name="Path 48929" d="M131.637,2176.286c-.6,3.739-1.154,6.894-1.706,9.428l-4.212-1.21c.676-3.118,1.191-6.227,1.55-9.3Zm5.44-21.927c-1.508,2.769-2.9,5.146-4.213,7.128.478.428.915.819,1.315,1.126,1.311-1.9,2.46-3.812,3.5-5.683l4.369,1.83c-2.543,3.895-4.925,7.248-7.151,10.131,1.03-.082,1.987-.2,2.939-.317-.239-.464-.437-.892-.635-1.283l3.734-1.674a38.2,38.2,0,0,1,2.939,6.54l-4.171,1.678c-.156-.543-.317-1.09-.478-1.6-.832.156-1.665.318-2.46.432v14.874h-4.369v-14.211c-1.83.23-3.693.464-5.56.662l-.8-4.4c1.072-.083,2.106-.156,3.136-.234.837-1.016,1.591-1.986,2.3-2.958-1.826-1.6-3.693-3.237-5.6-4.87l2.824-3.348a4.327,4.327,0,0,0,.713.542,51.171,51.171,0,0,0,3.3-6.194Zm6.792,28.471-4.488,1.367a47.151,47.151,0,0,0-1.867-8.531l4.212-1.209A48.983,48.983,0,0,1,143.869,2182.829Zm6.075-29.363a35.127,35.127,0,0,1-1.191,4.245h12.352c0,12.739-.28,20.717-.832,23.992-.359,2.336-.956,3.853-1.789,4.636a5.711,5.711,0,0,1-3.734,1.2,42.274,42.274,0,0,1-4.962-.309l-.952-4.869a31.285,31.285,0,0,0,5.914.583,1.073,1.073,0,0,0,1.035-.814,18.859,18.859,0,0,0,.4-3.7c.161-3.66.281-9.152.281-16.472h-9.5a21.628,21.628,0,0,1-2.934,4.594l-3.422-3.2a31.493,31.493,0,0,0,2.865-4.709,32.778,32.778,0,0,0,2.1-6.116Zm3.256,21.3-4.484,2.572a41.4,41.4,0,0,0-4.369-8.683l4.208-2.575A41.736,41.736,0,0,1,153.2,2174.768Z" transform="translate(5.192 -2152.377)" fill="#c9dcb7"/>
    </g>
    <rect id="Rectangle_94" data-name="Rectangle 94" width="73.132" height="0.916" transform="translate(71.205 9673.928)" fill="#c9dcb7"/>
    <rect id="Rectangle_95" data-name="Rectangle 95" width="73.132" height="0.916" transform="translate(339.024 9673.865)" fill="#c9dcb7"/>
  </g>
</svg>
