<svg id="section6_title" xmlns="http://www.w3.org/2000/svg" width="344.496" height="38.464" viewBox="0 0 344.496 38.464">
  <path id="Path_37673" data-name="Path 37673" d="M82.746,1637.053v-13.792h3.532v13.792h3.633v4.641H86.278v1.15a38.433,38.433,0,0,1,4.373,5.417l-2.12,4.309a47.837,47.837,0,0,0-2.253-4.429v12.927H82.746v-13.01a34.4,34.4,0,0,1-3.021,7.266l-1.734-5.629a22.5,22.5,0,0,0,3.693-8H78.341v-4.641Zm-.258-2.258-3.376.616c-.064-2.668-.225-5.542-.515-8.618l2.893-.327C81.877,1628.766,82.231,1631.553,82.489,1634.8Zm7.809-8.167c-.129,3.527-.285,6.567-.515,9.114l-3.274-.947a75.027,75.027,0,0,0,.9-8.5Zm6.526-1.6v-1.766H101.1v1.766h6.139v3.978H101.1v1.439h5.5v3.527h-5.5v1.771h6.654v4.019H90.04v-4.019h6.783v-1.771h-5.27v-3.527h5.27v-1.439H90.909v-3.978Zm10.025,16.174v16.05c0,2.341-1.186,3.532-3.5,3.532H99.812l-.483-4.355c1.541.129,2.442.165,2.635.165.579,0,.869-.367.869-1.108v-.327H95.31v5.909H91.424V1641.2h15.424Zm-4.015,5.624v-1.6H95.31v1.6Zm0,5.132v-1.931H95.31v1.931Z" transform="translate(-77.991 -1622.77)" fill="#fff"/>
  <path id="Path_37674" data-name="Path 37674" d="M88.8,1648.856c-.037,3.362-.2,6.811-.515,10.425l-3.247-.451a80.569,80.569,0,0,0,.993-10.14Zm3.628-24.181a66.721,66.721,0,0,1-2.635,8.209.388.388,0,0,0-.032.124,12.382,12.382,0,0,0,1.766-.409q.869-2.16,1.642-4.434l2.893,2.258a78.21,78.21,0,0,1-5.753,12.274c.837-.124,1.7-.284,2.6-.455-.129-.979-.225-1.844-.354-2.667l2.378-.818c.354,1.559.74,3.527,1.127,5.992v-1.315h2.635v-3.284c-.966.208-1.931.368-2.86.539l-.644-4.641c.451,0,.934,0,1.38-.042a50.929,50.929,0,0,0,1.61-7.354h-2.6v-4.3h10.154v4.3h-4.111a69.088,69.088,0,0,1-1.288,7.064,17.9,17.9,0,0,0,2.088-.244c-.193-1.233-.446-2.465-.7-3.781l2.635-.942c.29,1.15.547,2.258.8,3.325.221-.657.446-1.31.639-2.009a53.1,53.1,0,0,0,1.449-8.706l3.376.493q-.29,3.2-.773,5.789h4.562v4.475h-.676q-.193,9.975-2.023,15.64a2.627,2.627,0,0,1-.1.29,22.218,22.218,0,0,0,2.8,4.594l-1.508,5.624a49.736,49.736,0,0,1-3.247-5.624,40.494,40.494,0,0,1-4.3,5.956l-1.738-4.521c.258-.239.483-.529.708-.777a40.912,40.912,0,0,1-8.485,2.709l-.193-1.559-1.7.777c-.386-3.321-.869-6.158-1.384-8.535l2.378-.782c.418,1.4.869,3.122,1.32,5.173.832-.082,1.637-.207,2.442-.367v-5.133H96.059v-.984l-2.635,1.15c-.064-.575-.1-1.15-.129-1.725-2.479.736-4.953,1.393-7.39,1.886l-.648-4.8c.455,0,.869,0,1.32-.042q1.593-2.835,2.989-5.91a37.99,37.99,0,0,1-3.794.658l-.515-4.355a10.093,10.093,0,0,0,1.095-.079,45.344,45.344,0,0,0,2.447-10.021Zm.386,33.167-3.15.491c-.032-2.874-.161-5.988-.386-9.317l2.635-.326C92.265,1651.238,92.555,1654.31,92.813,1657.842Zm15.01-7.593a3.343,3.343,0,0,1-.129-.41,43.305,43.305,0,0,1-1.674-8.664c-.258.575-.547,1.108-.8,1.6l-1.058-2.3-1.062.368c-.064-.533-.1-1.067-.161-1.642a5.57,5.57,0,0,1-.708.161v4.066h2.768v4.148h-2.768v4.149a26.375,26.375,0,0,0,3.123-1.4v3.739A23.8,23.8,0,0,0,107.823,1650.249Zm1.83-5.624a69.058,69.058,0,0,0,.837-10.508h-1.674c-.064.248-.129.492-.189.7A60.036,60.036,0,0,0,109.653,1644.625Z" transform="translate(-52.637 -1622.417)" fill="#fff"/>
  <path id="Path_37675" data-name="Path 37675" d="M118.643,1624.164v4.8H108.355v20.69h12.182v4.805H92.158v-4.805h11.925v-20.69H94.053v-4.8Z" transform="translate(-27.007 -1619.524)" fill="#fff"/>
  <path id="Path_37676" data-name="Path 37676" d="M106.735,1624.665v-1.44h3.5v1.44h3.15v3.527h-3.15v1.279h-.993v.487h4.53v2.714h-4.53v1.1h5.523v2.755h-2.378v.161c0,.533.1.781.354.781h2.023v2.093h-3.5c-1.191,0-1.771-.736-1.771-2.258v-.777h-4.015a7.031,7.031,0,0,1-1.062,3.2,2.72,2.72,0,0,1-.414.493h1.734v-2.258h3.371v2.258h4.406v2.382h-4.406v1.233c1.738-.042,3.472-.128,5.146-.248l.032.206a9.477,9.477,0,0,0,2.764-2.667c-.773-.7-1.481-1.315-2.152-1.89l1.637-2.709c.515.367,1.095.777,1.7,1.227,0-.244.032-.491.032-.74v-1.6h-2.989v-3.7h2.989V1629.8h-.736v-1.605h-3.15v-3.527h3.15v-1.44h3.5v1.44h7.3v3.527h-7.3v1.44h.386v2.092h4.659c-.092,4.1-.124,7.105-.124,8.95,0,1.4.064,2.092.221,2.092.419,0,.648-1.149.648-3.527l2.115,1.435q-.331,4.311-1.444,5.909c-.386.657-.8.989-1.32.989a2.618,2.618,0,0,1-2.184-1.6,7.41,7.41,0,0,1-.929-3.987c0-1.43-.1-3.61-.258-6.562h-1.384v1.6a15.1,15.1,0,0,1-.419,3.288c.579.575,1.159,1.191,1.8,1.844l-1.513,3.656c-.607-.74-1.186-1.393-1.7-2.051a15.023,15.023,0,0,1-2.828,3.367l-2.41-2.589.161,1.766c-4.245.533-8.935.86-14.045.988l-.386-3.242c1.927,0,3.789,0,5.656-.088V1642.6h-3.665v-.947a9.33,9.33,0,0,1-1.38.662l-1.738-3.081a7.054,7.054,0,0,0,3.086-1.4,2.3,2.3,0,0,0,.74-1.31H99.827v-2.755h5.785v-1.1h-4.787v-2.714h4.787v-.823h1.122v-.943H99.441v-3.527Zm21.729,26.926v3.37H124.09a32.1,32.1,0,0,1,3.73,4.185l-3.021,1.932c-.322-.5-.612-.989-.934-1.4a209.275,209.275,0,0,1-22.654,1.233l-.612-4.19c1.541.083,2.8.17,3.822.208a13.02,13.02,0,0,0,1.835-1.969H99.312v-3.37Zm-3.665-4.144v2.874H102.977v-2.874Zm-4.691,7.514H110.85a16.513,16.513,0,0,1-1.669,2.093c4.562-.042,8.71-.207,12.371-.5C121.037,1655.983,120.559,1655.455,120.108,1654.962Z" transform="translate(-2.535 -1622.899)" fill="#fff"/>
  <path id="Path_37677" data-name="Path 37677" d="M107.912,1633.873v-7.308H113.6v7.308Z" transform="translate(29.689 -1610.884)" fill="#fff"/>
  <path id="Path_37678" data-name="Path 37678" d="M117.292,1627.079v-3.817h3.789v3.817h4.148v4.516h-4.148v3.7h3.376l-.258-.331a10.059,10.059,0,0,0,3.923-2.874,7.474,7.474,0,0,0,1.187-3.242H126.1v-4.309H140.53v3.569q0,7.885-1.255,9.239c-.869.9-2.41,1.315-4.631,1.315h-1.637l-.644-4.516c1.352.12,2.088.165,2.281.165a2.191,2.191,0,0,0,1.416-.336c.193-.239.354-1.927.451-5.128h-3.472a15.787,15.787,0,0,1-1.219,5.128,13.954,13.954,0,0,1-4.341,4.971l-2.023-2.465v3.449h-3.247v4.313h3.247v4.512h-3.247v5.624a26.574,26.574,0,0,0,9.29,1.274q1.393,0,10.025-.492l-.74,5.128H130.629c-5.013,0-8.581-.736-10.766-2.212a14.116,14.116,0,0,1-3.633-4.107,60.082,60.082,0,0,1-1.444,7.266l-3.247-4.144a51.2,51.2,0,0,0,1.734-14.615l3.665.493c0,2.01-.064,3.942-.193,5.748a14.313,14.313,0,0,0,1.83,2.994v-11.782h-6.3v-4.636h5.013v-3.7h-4.245v-4.516Zm22.626,13.015v13.3H126.706v-13.3Zm-3.794,4.148H130.5v4.967h5.624Z" transform="translate(42.742 -1622.77)" fill="#fff"/>
  <path id="Path_37679" data-name="Path 37679" d="M123.927,1627.079v-3.817h3.891v3.817h3.5v4.516h-3.5v3.817h3.762v4.516h-2.9v4.64h2.253v3.118a14.76,14.76,0,0,0,1.637-.86v-18.148H138c-.032-1.724-.032-3.531-.032-5.417h3.762c0,1.973,0,3.78.032,5.417h2.12a25.244,25.244,0,0,0-1.895-3.978l2.635-1.15a22.34,22.34,0,0,1,2.506,3.859l-1.959,1.269h2.6v4.024h-5.914c.1,3.449.258,6.241.478,8.458a51.391,51.391,0,0,0,1.931-7.188l3.118,1.6a49.028,49.028,0,0,1-3.955,11.534c.483,1.724.934,2.584,1.32,2.584.129,0,.258-.652.382-2.051,0,0,.069-1.063.262-3.242l2.985,2.092c-.51,3.532-1.186,5.914-1.959,7.105a1.964,1.964,0,0,1-1.669,1.232c-.966,0-1.959-.781-2.957-2.34a7.058,7.058,0,0,1-.837-1.518,26.194,26.194,0,0,1-4.787,4.594,20.913,20.913,0,0,0,2.313.083q1.4,0,10.025-.492l-.736,5.128H137.618c-5.013,0-8.581-.695-10.766-2.006a12.782,12.782,0,0,1-3.789-3.9,63.116,63.116,0,0,1-1.288,6.692l-3.247-4.144a52.994,52.994,0,0,0,1.642-14.45l3.628.493c0,2.134-.064,4.144-.193,6.075a13.806,13.806,0,0,0,1.449,2.34v-11.455H119.14v-4.516h4.787v-3.817h-4.015v-4.516Zm10.03,24.879a17.127,17.127,0,0,0,5.592-5.132,10.1,10.1,0,0,1-.354-1.766A81.679,81.679,0,0,1,138.1,1632.7h-1.991v11.658a23.073,23.073,0,0,0,2.249-2.17v4.636a37.084,37.084,0,0,1-7.294,5.744l-.773-3.527h-1.61v5.214a20.821,20.821,0,0,0,6.59,1.27Z" transform="translate(67.894 -1622.77)" fill="#fff"/>
  <path id="Path_37680" data-name="Path 37680" d="M143.416,1625.533h11.86v3.7H125.545v-3.7H138.79c-.161-.694-.322-1.31-.451-1.885l4.787-.492C143.223,1623.978,143.319,1624.76,143.416,1625.533Zm6.236,16.873v3.04h-7.524c-.736.451-1.476.86-2.184,1.274a12.912,12.912,0,0,1,2.442,1.807,19.814,19.814,0,0,0,8-2.916l2.764,3.2a19.944,19.944,0,0,1-3.854,1.724,8.861,8.861,0,0,0,1.09,1.476,16.777,16.777,0,0,0,4.792,3.859l-2.543,4.474a23.051,23.051,0,0,1-4.787-4.8,12.53,12.53,0,0,1-2.184-3.983c-.419.082-.8.165-1.186.206a11.12,11.12,0,0,1,.639,3.776c0,2.134-.349,3.61-.993,4.433a4.709,4.709,0,0,1-3.762,1.357h-2.41l-.74-3.7H140.1c.74,0,1.127-.695,1.127-2.092,0-.248-.032-.5-.032-.736a34.626,34.626,0,0,1-14.27,5.536l-1.384-3.858a28.472,28.472,0,0,0,14.592-4.64.979.979,0,0,1-.161-.244c-.193-.331-.419-.616-.612-.906a28.47,28.47,0,0,1-11.952,4.52l-1.127-3.2a24.766,24.766,0,0,0,11.217-3.2c-.258-.208-.483-.41-.708-.575a37.157,37.157,0,0,1-8.485,2.507l-1.38-3.532a52.032,52.032,0,0,0,9.7-1.766h-5.459v-3.04Zm5.013,3.2h-3.891v-4.355h-20.6v4.355h-3.891v-7.556h28.379Zm-2.378-15.231v6.568H128.663v-6.568Zm-4.406,2.709H133.069v1.109h14.813Z" transform="translate(93.146 -1623.155)" fill="#fff"/>
  <path id="Path_37681" data-name="Path 37681" d="M149.294,1627.313h10.862v10.1h-4.015v-5.463H136.826v4.066a89.965,89.965,0,0,0,17.324-3.081l1.734,4.313a75.088,75.088,0,0,1-9.386,2.341v4.516l13.658-2.18.258,4.971-13.916,2.217v3.076a4.655,4.655,0,0,0,.451,2.507,3.316,3.316,0,0,0,2.539.695h3.891a3.706,3.706,0,0,0,2.184-.493c.483-.491.8-2.382.966-5.624l4.53,2.589c-.483,3.408-1.154,5.579-1.991,6.65-1.03,1.1-2.732,1.678-5.049,1.678h-5.238c-2.952,0-4.787-.529-5.523-1.6q-1.159-1.6-1.159-5.293v-3.49l-8.935,1.4-.225-4.966,9.161-1.44v-4.392q-2.6.5-5.4.865l-1.03-4.189h-2.86v-9.768h11.377c-.225-1.232-.451-2.382-.708-3.37l5.4-.654C149.036,1624.646,149.165,1626,149.294,1627.313Z" transform="translate(119.281 -1622.673)" fill="#fff"/>
  <path id="Path_37682" data-name="Path 37682" d="M150.371,1632.045v3.531a55.934,55.934,0,0,1-2.893,12.357,45.936,45.936,0,0,1-5.013,9.318l-2.893-5.128a24.452,24.452,0,0,0,4.337-7.266,34.336,34.336,0,0,0,2.092-7.97h-5.528v-4.843Zm5.785-1.968a60.164,60.164,0,0,0,2.571,7.344,44.8,44.8,0,0,0,4.852-7.427l3.891,3.036a40.411,40.411,0,0,1-6.751,8.586c.1.2.193.368.29.529a35.41,35.41,0,0,0,8.066,9.648l-3.5,4.971a41.63,41.63,0,0,1-7.427-11.295c-.773-1.725-1.412-3.449-1.991-5.091v14.946c0,3.284-1.095,4.962-3.247,4.962h-4.916l-.869-6.4c2.506.327,3.886.446,4.148.446.483,0,.736-.534.736-1.6v-29.478h4.148Z" transform="translate(143.631 -1622.77)" fill="#fff"/>
  <path id="Path_37683" data-name="Path 37683" d="M153.144,1633.912l-2.768,4.309a47.8,47.8,0,0,0-3.757-5.79l2.764-3.2A40.809,40.809,0,0,1,153.144,1633.912Zm9.188-9.322a35.125,35.125,0,0,1-1.122,3.7h4.272c-.193-1.357-.418-2.585-.639-3.7l4.626-.493.29,4.19h5.109v3.858h-5.882v1.766h4.755v3.527h-4.755v1.89h4.755v3.531h-4.755v1.927H175v3.859H163.073v2.258h12.44v4.313h-12.44v6.237h-4.015v-6.237H146.747V1650.9h12.311v-2.258h-1.9v-12.109c-.671,1.026-1.38,2.015-2.12,2.958l-1.384-5.3a27.759,27.759,0,0,0,5.017-10.716Zm-8.034,14.739a46.483,46.483,0,0,1-1.895,10.752l-4.144-1.927a31.869,31.869,0,0,0,2.631-9.6Zm1.734-12.03-2.764,4.355a41.678,41.678,0,0,0-4.369-5.3l2.764-3.2A38.28,38.28,0,0,1,156.032,1627.3Zm9.29,4.847h-4.369v1.766h4.369Zm0,5.293h-4.369v1.89h4.369Zm0,5.422h-4.369v1.927h4.369Z" transform="translate(168.984 -1623.155)" fill="#fff"/>
</svg>
