<svg xmlns="http://www.w3.org/2000/svg" width="194" height="54" viewBox="0 0 194 54">
  <g id="section2_title2_lg" transform="translate(-338.533 -491.949)">
    <path id="Path_567" data-name="Path 567" d="M357.791,495.086c.148-1.046.3-2.092.4-3.138l6.773,1.1c-.148.755-.3,1.456-.4,2.038h16.571v5.925H363.12c-.249.814-.45,1.575-.645,2.27h13.983V530.54h5.826v5.871h-8.762c2.587.874,5.476,1.919,8.561,3.2l-2.735,6.341a85.478,85.478,0,0,0-14.386-6.341l2.09-3.2H353.464l2.19,2.965a48.2,48.2,0,0,1-13.788,6.4l-2.741-6.4a41.177,41.177,0,0,0,9.857-2.965H338.533V530.54h5.82V503.281H356c.2-.755.4-1.515.6-2.27H340.273v-5.925Zm12.048,15.926v-2.27H350.971v2.27Zm0,6.335v-2.27H350.971v2.27Zm0,6.626v-2.5H350.971v2.5Zm0,6.566v-2.5H350.971v2.5Z" transform="translate(0 0)" fill="#c9dcb7"/>
    <path id="Path_568" data-name="Path 568" d="M387.958,493.015v6.8H372.032v29.3H390.9v6.8H346.948v-6.8h18.465v-29.3H349.885v-6.8Z" transform="translate(41.404 5.269)" fill="#c9dcb7"/>
    <path id="Path_569" data-name="Path 569" d="M374.367,498.362h8.01a31.691,31.691,0,0,0,4.032-6.335l6.625,1.8a31.055,31.055,0,0,1-2.99,4.534h8.608v5.461H381.133V507.2h15.582v5.461H381.133V516.5H400.4v5.693H381.086c-.053,1.4-.154,2.734-.3,3.9H400.2v5.64H384.621A21.093,21.093,0,0,0,389.5,534.8a46.63,46.63,0,0,0,12.444,3.72l-3.682,7.042a46.267,46.267,0,0,1-13.439-6.454,33.751,33.751,0,0,1-6.276-6.335,15.8,15.8,0,0,1-2.984,3.946c-3.635,3.607-9.212,6.572-16.778,8.842l-3.682-7.042c6.773-1.45,11.7-3.423,14.783-5.984a10.991,10.991,0,0,0,.894-.808H356.843v-5.64h17.074a19.138,19.138,0,0,0,.551-3.9h-17.82V516.5h17.867V512.66H360.33V507.2h14.185v-3.375H358.388v-5.461h8.957a41.871,41.871,0,0,0-3.682-4.534l6.619-1.628A26.028,26.028,0,0,1,374.367,498.362Z" transform="translate(81.523 0.385)" fill="#c9dcb7"/>
    <path id="Path_570" data-name="Path 570" d="M400.331,522.512v4.071a49.5,49.5,0,0,1-8.863,4.534h17.02v5.931H389.823v3.833c-.249,2.734-1.936,4.124-5.074,4.124h-8.365l-.793-5.687c3.682.172,5.772.226,6.222.226a1.245,1.245,0,0,0,1.391-1.4v-1.1h-19.46v-5.931H383.2v-1.105a33.728,33.728,0,0,0,6.423-2.5H372.11v-5ZM379.32,497.756a47.351,47.351,0,0,1-7.311,1.569l.047,1.623h6.269v5H372.3l.1,2.264h5.92v2.615a19.927,19.927,0,0,0,4.286-1.854c-1.2-.874-2.291-1.688-3.292-2.383l2.445-2.448c-.4.178-.8.291-1.1.41l-1.936-4.766a19.645,19.645,0,0,0,4.18-1.622c-1.2-1.052-2.291-2.038-3.386-2.912l3.09-3.2c1.593,1.218,3.084,2.389,4.375,3.435a21.334,21.334,0,0,0,3.037-3.2l2.889,2.793v-1.628h13.64l-1.593,21.8h2.534v12.961h-6.021v-7.494H370.363v7.494h-6.021V515.25h2.386l-.847-20.46a39.831,39.831,0,0,0,11.3-2.5Zm.355,17.495-1.35-3.316v1.284h-5.672l.1,2.032Zm9.952,0c-1.143-1.105-2.191-2.092-3.185-3.025a28.438,28.438,0,0,1-5.423,3.025Zm-3.084-9.068a16.266,16.266,0,0,0,2.19-2.151q-1.2-1.221-2.244-2.436a21.218,21.218,0,0,1-3.682,2.086C384.1,504.554,385.347,505.374,386.543,506.182Zm6.767,1.8h6.074l.148-2.032H393.31v-4.772h6.571l.2-2.258h-7.164v-2.965a24.891,24.891,0,0,1-2.439,2.555c.894.874,1.693,1.688,2.439,2.436l-2.043,2.852,2.244,2.151a24.334,24.334,0,0,1-2.788,3.025c1.089.927,2.09,1.741,2.984,2.5Zm5.429,7.268.2-2.264H393.31V512.4l-2.037,2.852Z" transform="translate(124.044 0.528)" fill="#c9dcb7"/>
  </g>
</svg>
