<svg xmlns="http://www.w3.org/2000/svg" width="244.932" height="244.932" viewBox="0 0 244.932 244.932">
  <g id="section7_imgicon5_lg" transform="translate(-13502.34 -8353.728)">
    <circle id="Ellipse_5" data-name="Ellipse 5" cx="122.466" cy="122.466" r="122.466" transform="translate(13502.34 8598.659) rotate(-90)" fill="#fff"/>
    <g id="Group_140" data-name="Group 140" transform="translate(13542.922 8410.682)">
      <g id="Group_139" data-name="Group 139">
        <path id="Path_730" data-name="Path 730" d="M334.03,2188.96v5.24H345.5v4.29H334.03v10.22H330.2v-24.042h15.677v4.292Z" transform="translate(-330.195 -2183.041)" fill="#72adb6"/>
        <path id="Path_731" data-name="Path 731" d="M343.9,2188.96v19.75h-3.9v-19.75h-6.432v-4.292H350.3v4.292Z" transform="translate(-316.062 -2183.041)" fill="#72adb6"/>
        <path id="Path_732" data-name="Path 732" d="M347.362,2188.96v19.75H343.47v-19.75h-6.432v-4.292h16.729v4.292Z" transform="translate(-301.574 -2183.041)" fill="#72adb6"/>
        <path id="Path_733" data-name="Path 733" d="M352.981,2208.709v-10.256h-8.344v10.256h-3.9v-24.042h3.9v9.5h8.344v-9.5h3.928v24.042Z" transform="translate(-286.09 -2183.041)" fill="#72adb6"/>
        <path id="Path_734" data-name="Path 734" d="M357.195,2184.377v10.147h9.5v3.333h-7.043v7.846c0,.679.171,1.062.524,1.176a3.342,3.342,0,0,0,1.627.326,4.857,4.857,0,0,0,1.353-.118.994.994,0,0,0,.653-.44,11.242,11.242,0,0,0,.425-3.25l2.861,1.514a26.853,26.853,0,0,1-.653,3.828,1.95,1.95,0,0,1-1.3,1.416,15.244,15.244,0,0,1-3.338.265,6.764,6.764,0,0,1-2.959-.349c-1.425-.124-2.13-1.211-2.13-3.217v-9h-3.384a23.282,23.282,0,0,1-2.2,8.406,10.53,10.53,0,0,1-5.39,4.747l-1.28-3.359a8.32,8.32,0,0,0,4.286-3.865,16.946,16.946,0,0,0,1.508-5.93h-5.39v-3.333h9.4v-10.147Zm-4.69,7.608-2.861,1.976a26.1,26.1,0,0,0-2.928-5.665l2.653-1.943A26.894,26.894,0,0,1,352.5,2191.985Zm12.531-3.452a24.584,24.584,0,0,1-3.633,5.52l-2.358-2.419a21.869,21.869,0,0,0,3.338-4.954Z" transform="translate(-270.548 -2184.259)" fill="#72adb6"/>
        <path id="Path_735" data-name="Path 735" d="M354.99,2185.528c-.8,1.8-1.529,3.364-2.228,4.66.2.207.4.383.6.558.4-1,.8-2,1.156-3.006l2.431,1.265c-1.13,2.659-2.208,4.986-3.208,6.992.425-.058.824-.088,1.176-.145-.078-.472-.15-.912-.228-1.328l1.985-.678a46.886,46.886,0,0,1,.876,4.953l-2.156.8c-.052-.351-.078-.684-.1-1.03a4.134,4.134,0,0,1-.6.114V2210.9h-2.332v-11.743c-.876.176-1.752.325-2.653.444l-.477-3.125c.549-.03,1.052-.092,1.555-.149.523-1.005,1-1.974,1.451-2.98-.974-1-1.98-2.006-3.006-3.069l1.353-1.979a1.1,1.1,0,0,0,.3.27,34.647,34.647,0,0,0,1.757-4.188Zm-2.731,15.9c-.275,2.771-.529,5.068-.778,6.929l-2.156-.706c.326-2.274.575-4.545.777-6.789Zm5.39,4.389-2.156.8c-.15-2.011-.347-3.872-.6-5.52l1.954-.71C357.172,2202.045,357.446,2203.843,357.649,2205.818Zm3.312-21.088c-.1.825-.2,1.6-.3,2.243a1.387,1.387,0,0,0,.274.53,4.176,4.176,0,0,0,1.1,1.15l-1.456,2.188a4.114,4.114,0,0,1-.726-.918,11.269,11.269,0,0,1-1.078,2.3h3.732l-1.249-1.146a13.806,13.806,0,0,0,.974-2.922,22.829,22.829,0,0,0,.5-3.654l2.332.115c-.078.766-.15,1.506-.254,2.154a7.274,7.274,0,0,0,.627,1.591,5.065,5.065,0,0,0,.98,1.473c-.047-1.71-.073-3.535-.073-5.453H368.9c0,2.95.026,5.545.078,7.841h2.954V2195h-2.881c.047,1.685.124,3.156.2,4.426a28.668,28.668,0,0,0,.523-3.042l2.156.564a30.189,30.189,0,0,1-2.057,8.081l-.1.237c.026.2.052.379.078.5.1.969.249,1.44.425,1.44.026,0,.078-.088.124-.263a10.474,10.474,0,0,0,.254-2.031l1.954.792c-.176,2.42-.5,3.891-.979,4.54a1.652,1.652,0,0,1-1.353.653c-.7,0-1.3-.534-1.752-1.565a6.741,6.741,0,0,1-.326-.948,27.5,27.5,0,0,1-1.959,2.834l-1.752-1.949a8.575,8.575,0,0,1,.6-.792c-2.384.353-4.939.648-7.65.911l-.4-2.766,2.254-.182v-1.527h-1.55v-2.66h1.55v-.586h-1.55v-2.658h1.55v-.44h-1.55v-2.659h1.55V2195H357.25v-2.778h1.125l-1.529-1.378a11.687,11.687,0,0,0,1.182-2.747,18.5,18.5,0,0,0,.6-3.482Zm1.275,21.446V2195h-.575v11.235A3.526,3.526,0,0,0,362.235,2206.176Zm2.861-13.957a9.245,9.245,0,0,1-1.078-1.824c-.026,0-.026-.032,0-.032a14.1,14.1,0,0,1-.757,1.855Zm2.358,12.392c-.13-.793-.228-1.679-.326-2.653-.228-1.918-.4-4.245-.529-6.96h-2.006v.8h1.757v2.648h-1.757v.565h1.757v2.658h-1.757v.586h1.757v2.66h-1.757v1c.575-.062,1.13-.124,1.653-.208l.1.886C366.749,2205.942,367.128,2205.263,367.454,2204.61Zm-1.006-13.719-.85,1.327h.9C366.475,2191.778,366.448,2191.337,366.448,2190.891Zm5.887-.854-2.254,1.155a34.117,34.117,0,0,0-.876-3.928l1.954-1.03A31.692,31.692,0,0,1,372.336,2190.037Z" transform="translate(-250.593 -2184.259)" fill="#72adb6"/>
        <path id="Path_736" data-name="Path 736" d="M362.073,2185.505a58.173,58.173,0,0,1-1.855,5.577v19.91h-2.856v-13.806c-.555.942-1.1,1.824-1.658,2.627l-1.581-3.452a40.879,40.879,0,0,0,5.115-11.888Zm9.1,1.742-1.28,1.854h6.468v3.213h-6.069v5.318h5.193v3.212h-5.193v6.34h6.468v3.217H361v-3.217h6.468v-6.34H362.27v-3.212h5.193v-5.318H361.3V2189.1h6.768a22.868,22.868,0,0,0-2.482-2.213l2.052-2.534A19.078,19.078,0,0,1,371.174,2187.247Z" transform="translate(-230.115 -2184.354)" fill="#72adb6"/>
        <path id="Path_737" data-name="Path 737" d="M371.4,2184.377v2.208h9.3v6.55h-2.933v-3.326H362v2.975h-2.933v-6.2h9.3v-2.208Zm6.167,9.791c-2.358.5-4.835.948-7.447,1.326v3.188l9.9-.825.3,3.363-10.2.856v3.98c0,.767.5,1.149,1.508,1.181a14.164,14.164,0,0,0,1.83.083,13.433,13.433,0,0,0,3.006-.17,1.594,1.594,0,0,0,.653-1.063,14.618,14.618,0,0,0,.249-2.688l2.861,1.955c-.2,2.356-.575,3.8-1.182,4.388a4.109,4.109,0,0,1-1.653.591,21.968,21.968,0,0,1-3.934.212,26.056,26.056,0,0,1-2.809-.15q-3.46-.093-3.462-3.187v-4.893l-7.541.618-.482-3.333,8.023-.684v-3c-1.6.207-3.229.388-4.887.563l-.98-3.217a146.353,146.353,0,0,0,14.967-1.943Z" transform="translate(-209.454 -2184.259)" fill="#72adb6"/>
      </g>
    </g>
    <rect id="Rectangle_67" data-name="Rectangle 67" width="177.461" height="1.893" transform="translate(13536.075 8453.717)" fill="#72adb6"/>
    <g id="Group_141" data-name="Group 141" transform="translate(13543.518 8472.073)">
      <path id="Path_738" data-name="Path 738" d="M334.814,2197.214c0,.17-.078.271-.192.285-.129.016-.192.151-.192.379v10.795c1.57-.574,3.047-1.2,4.447-1.855a.207.207,0,0,1,.15-.073c.073,0,.135.073.135.224a4.09,4.09,0,0,1-.078,1.093q-3.685,1.732-7.447,3.1c-.228.379-.4.586-.513.586-.13,0-.394-.586-.814-1.75a27.478,27.478,0,0,0,2.726-.835v-11.946c0-.15.093-.223.3-.223C334.321,2196.992,334.814,2197.064,334.814,2197.214Zm10.542-.586c0,.095-.073.188-.208.265a.368.368,0,0,0-.223.393,56.335,56.335,0,0,1-.513,7.376,15.5,15.5,0,0,1-.964,3.291,4.209,4.209,0,0,1-.171.394c.907.57,1.684,1.078,2.291,1.535.829.7,1.55,1.32,2.151,1.864a.8.8,0,0,1-.093.176c-.415.566-.622.87-.643.87a24.365,24.365,0,0,0-2.907-2.418c-.57-.378-1.042-.7-1.456-.928a5.752,5.752,0,0,1-.964,1.037,9.193,9.193,0,0,1-3.462,1.948,10.572,10.572,0,0,1-1.472.362.274.274,0,0,1-.285-.2,6.825,6.825,0,0,0-.565-.83.426.426,0,0,1-.093-.3,11.28,11.28,0,0,0,3.4-1.058,7.049,7.049,0,0,0,2.228-1.736,9.615,9.615,0,0,0,1.322-2.917,26.375,26.375,0,0,0,.648-5.079c.036-1.342.073-2.726.073-4.12,0-.155.021-.229.078-.229A5.615,5.615,0,0,1,345.355,2196.628Zm-5.727,3.914c.643.735,1.213,1.4,1.685,1.985a.278.278,0,0,1-.114.165c-.415.591-.622.872-.622.872a24.274,24.274,0,0,0-2.285-2.571,12.774,12.774,0,0,0-1.627-1.343,4.023,4.023,0,0,1,.622-.9c.078-.078.135-.134.171-.134A23.554,23.554,0,0,1,339.628,2200.542Z" transform="translate(-330.31 -2195.665)" fill="#72adb6"/>
      <path id="Path_739" data-name="Path 739" d="M343.624,2196.54c0,.167-.062.265-.171.265-.135.042-.192.17-.192.4v5.69h7.3c.15,0,.223.072.223.207v.752c0,.186-.072.285-.223.285h-5.234v6.5c0,.6.358.888,1.114.888H348.8c.472,0,.757-.265.85-.829a12.236,12.236,0,0,0,.321-1.913,2.741,2.741,0,0,0,1.036.584.277.277,0,0,1,.228.3,8.956,8.956,0,0,1-.565,2.192,1.322,1.322,0,0,1-1.435.913H345.7c-1.135,0-1.705-.416-1.705-1.25v-7.39h-2.814c-.015.979-.057,1.82-.093,2.492a9.947,9.947,0,0,1-.549,2.27,5.378,5.378,0,0,1-1.151,1.892,6.624,6.624,0,0,1-1.928,1.474c-.663.285-1.379.549-2.177.808-.13,0-.207-.073-.228-.219a7.061,7.061,0,0,1-.529-.818.5.5,0,0,1-.052-.228,10.915,10.915,0,0,0,2.679-.829,3.318,3.318,0,0,0,1.306-1.078,3.963,3.963,0,0,0,.757-1.265,8.485,8.485,0,0,0,.508-1.892,25.56,25.56,0,0,0,.135-2.606h-5.084c-.15,0-.228-.1-.228-.285v-.752c0-.135.078-.207.228-.207h7.084v-6.354c0-.149.1-.227.285-.227C343.132,2196.313,343.624,2196.391,343.624,2196.54Zm-6.862.809a31.162,31.162,0,0,1,3.1,3.768c0,.207-.057.321-.135.321a2.389,2.389,0,0,1-1.187.488,36.735,36.735,0,0,0-2.949-3.986c0-.156.3-.363.943-.663A.363.363,0,0,1,336.763,2197.349Zm12.982.286c.187.1.3.191.3.305,0,.13-.114.228-.3.26a.48.48,0,0,0-.492.305,14.962,14.962,0,0,1-2.135,3.312c-.171.186-.3.265-.394.265a.593.593,0,0,1-.363-.156c-.28-.109-.544-.243-.793-.358-.114-.036-.171-.058-.171-.078a.514.514,0,0,1,.114-.207,11.149,11.149,0,0,0,1.57-1.813,8.444,8.444,0,0,0,1.151-2.043c.078-.187.155-.3.269-.3Z" transform="translate(-312.881 -2195.727)" fill="#72adb6"/>
      <path id="Path_740" data-name="Path 740" d="M340.658,2207.388a.166.166,0,0,1,.15.166c0,.1-.13.228-.378.379-.187,1.233-.316,2.14-.43,2.7-.135.535-.285,1.057-.456,1.57a.465.465,0,0,1-.342-.114,1.748,1.748,0,0,0-.658-.228.194.194,0,0,1-.1-.172c.041-.149.1-.32.171-.513a10.3,10.3,0,0,0,.378-1.315c.078-.458.171-1.007.249-1.649a10.288,10.288,0,0,0,.073-1.093.067.067,0,0,1,.078-.073Zm2.493-10.359a1.766,1.766,0,0,0,.078.19c0,.114-.093.167-.285.167a.546.546,0,0,0-.508.207c-.643.928-1.228,1.764-1.777,2.5.358.379.72.756,1.078,1.171.529-.871.98-1.664,1.363-2.342a7.157,7.157,0,0,1,1.171,1.113c0,.079-.057.119-.171.119-.228,0-.358.052-.415.13-.855,1.471-1.684,2.794-2.477,3.991.529-.025,1.151-.062,1.85-.1-.171-.457-.358-.892-.565-1.343,0-.077.264-.249.814-.507a18.877,18.877,0,0,1,.814,1.871c.187.523.373,1.078.529,1.657a3.732,3.732,0,0,1-1.042.307,6.04,6.04,0,0,0-.285-1.172l-.964.167v7.944c0,.146-.109.219-.3.219h-.736a.2.2,0,0,1-.228-.219v-7.736l-1.7.284a1.946,1.946,0,0,1-.513.436,6.2,6.2,0,0,1-.378-1.622,9.85,9.85,0,0,1,1.249-.114c.606-.892,1.114-1.663,1.534-2.327-.591-.528-1.026-.927-1.306-1.171a10.184,10.184,0,0,0-1.477-.892c0-.109.249-.416.741-.923a.171.171,0,0,1,.15-.113c.15.134.3.264.472.394.321-.436.6-.871.87-1.3.472-.777.809-1.358,1.016-1.758Zm.606,10.095c.15.851.363,2.208.586,4.058,0,.119-.358.218-1.036.285-.078,0-.1-.057-.1-.166-.093-1.264-.223-2.611-.415-4.026,0-.093.285-.193.891-.3C343.721,2206.973,343.742,2207.03,343.757,2207.124Zm7.976-5.84c.041-1.55.135-3.121.285-4.727,0-.186.078-.3.223-.3l1.177.115c.093.035.15.077.15.114a.348.348,0,0,1-.207.3.457.457,0,0,0-.264.452c-.1,1.4-.15,2.74-.171,4.047h2.57c.093,0,.15.077.15.223v.591c0,.207-.057.3-.15.3H352.9v.377a35.906,35.906,0,0,0,.156,3.743,14.093,14.093,0,0,0,.166,1.457c.156-.488.285-1.021.415-1.586a19.711,19.711,0,0,0,.513-2.82c.016-.15.078-.223.15-.223.943.337,1.42.565,1.42.679a.218.218,0,0,1-.156.207c-.129,0-.223.093-.264.279a27.923,27.923,0,0,1-.865,3.541c-.249.771-.492,1.471-.757,2.071a4.978,4.978,0,0,0,.508,1.214c.228.435.472.663.721.663a8.119,8.119,0,0,0,.378-2.171c0-.119.016-.193.057-.193a.24.24,0,0,1,.15.074c.171.119.358.248.549.383a.352.352,0,0,1,.187.28,10.7,10.7,0,0,1-.778,2.7c-.186.265-.358.394-.544.394a1.125,1.125,0,0,1-.741-.265,1.993,1.993,0,0,1-.715-.75,8.26,8.26,0,0,1-.508-.949,14.747,14.747,0,0,1-1.4,1.886.457.457,0,0,1-.192.078.352.352,0,0,1-.3-.206,3.414,3.414,0,0,0-.435-.472.2.2,0,0,1-.15-.208.152.152,0,0,1,.093-.15,2.65,2.65,0,0,0,.72-.72c-1.928.335-3.856.642-5.825.946-.166.282-.3.436-.373.436-.114,0-.321-.475-.664-1.4.6-.056,1.306-.128,2.057-.243v-1.97h-1.549c-.093,0-.13-.072-.13-.223v-.586c0-.148.036-.227.13-.227h1.549v-1.25h-1.549c-.093,0-.13-.072-.13-.223v-.584c0-.156.036-.228.13-.228h1.549v-1.244h-1.472c-.114,0-.15-.079-.15-.229v-.59c0-.151.036-.228.15-.228h1.472V2202.4h-1.985c-.114,0-.15-.093-.15-.3v-.591c0-.146.036-.223.15-.223Zm-4.079-4.4c.109.067.166.146.166.188a.236.236,0,0,1-.15.227.166.166,0,0,0-.171.13c-.114.377-.207.679-.28.927a3.876,3.876,0,0,0,.394.6,3.322,3.322,0,0,0,.793.777.24.24,0,0,1-.093.223c-.171.135-.378.306-.643.514-.036,0-.057,0-.057-.022a2.223,2.223,0,0,1-.472-.507,4.229,4.229,0,0,1-.342-.528c-.109.265-.244.513-.358.741-.207.295-.415.581-.622.83a.7.7,0,0,1-.322-.042c-.207-.078-.414-.145-.606-.223-.078-.042-.093-.062-.093-.1a.208.208,0,0,1,.016-.093,5.793,5.793,0,0,0,.928-1.436,8.694,8.694,0,0,0,.435-1.021c.114-.379.244-.89.378-1.494.021-.056.036-.091.072-.091Zm-.021,14.4c.28-.037.565-.1.85-.131V2202.4h-.891v8.883Zm3.115-14.4c.114.067.171.146.171.188a.236.236,0,0,1-.15.227.165.165,0,0,0-.171.13,10.681,10.681,0,0,1-.321,1.036,5.293,5.293,0,0,0,1.306,1.649.217.217,0,0,1-.093.207c-.171.151-.378.321-.643.528-.036,0-.057,0-.057-.042a2.311,2.311,0,0,1-.513-.565,3.43,3.43,0,0,1-.415-.7c-.114.25-.228.472-.321.665a8.64,8.64,0,0,1-.622.85.859.859,0,0,1-.321-.052c-.207-.077-.415-.139-.607-.206-.078-.042-.093-.062-.093-.1a.137.137,0,0,1,.036-.113,5.818,5.818,0,0,0,.907-1.437,6.023,6.023,0,0,0,.435-1.058c.114-.377.244-.89.378-1.513.021-.056.036-.091.078-.091Zm1.684,13.055a19.872,19.872,0,0,1-.472-2.743,38.249,38.249,0,0,1-.249-4.421v-.377h-2.135v1.472h1.493c.078,0,.135.077.135.228v.59c0,.15-.057.229-.135.229h-1.493v1.244h1.493c.078,0,.135.072.135.228v.584c0,.151-.057.223-.135.223h-1.493v1.25h1.493c.078,0,.135.079.135.227v.586c0,.151-.057.223-.135.223h-1.493v1.478c.549-.074,1.078-.17,1.591-.279.036,0,.078-.021.114-.021a.139.139,0,0,1,.15.151,5.378,5.378,0,0,1-.041.756A9.781,9.781,0,0,0,352.433,2209.938Zm2.8-10.982a11.716,11.716,0,0,1,.492,1.229,4.088,4.088,0,0,1-1.042.286,8.484,8.484,0,0,0-.321-1,7.875,7.875,0,0,0-.72-1.362c0-.079.269-.244.813-.514A11.412,11.412,0,0,1,355.231,2198.956Z" transform="translate(-296.285 -2195.971)" fill="#72adb6"/>
      <path id="Path_741" data-name="Path 741" d="M351.287,2196.372c.15,0,.223.088.223.285v.6c0,.193-.073.279-.223.279h-1.1v15.07c0,.146-.114.219-.306.219h-.736c-.187,0-.28-.073-.28-.219v-2.854c-.306.072-.591.129-.85.206-1.441.416-2.892.872-4.405,1.323-.135.3-.249.478-.358.507a.32.32,0,0,1-.249-.108l-.492-1.741c.228-.02.643-.1,1.249-.207v-12.2h-.814c-.15,0-.228-.086-.228-.279v-.6c0-.2.078-.285.228-.285Zm-2.42,4.121v-2.955h-3.783v2.955Zm0,4.212v-3.026h-3.783v3.026Zm-.627,4.063a4.585,4.585,0,0,0,.627-.15v-2.72h-3.783v3.57C345.954,2209.277,346.991,2209.054,348.24,2208.768Zm10.66-10.639a.8.8,0,0,1,.378.109c.228.192.358.326.358.419-.186,1.472-.358,2.664-.549,3.608a27.661,27.661,0,0,1-.9,3.011,13.886,13.886,0,0,1-.928,2.149,10.682,10.682,0,0,1-.72,1.251,6.571,6.571,0,0,0,1.135,1.227,8.1,8.1,0,0,0,2.555,1.607c0,.109-.078.188-.192.26a9.7,9.7,0,0,0-.664.8c-.129.113-.223.185-.264.185a12.413,12.413,0,0,1-2.57-1.87,5.178,5.178,0,0,1-.928-.963,10.357,10.357,0,0,1-1.244,1.269,17.544,17.544,0,0,1-2.114,1.492.357.357,0,0,1-.306-.191c-.264-.208-.549-.414-.829-.6-.078-.078-.114-.128-.114-.17a.175.175,0,0,1,.114-.17,10.57,10.57,0,0,0,2.379-1.479,7.678,7.678,0,0,0,1.342-1.3l-.021-.02a12.049,12.049,0,0,1-1.28-2.515,16.352,16.352,0,0,1-.964-3.456,18.762,18.762,0,0,1-.306-3.462h-1.114c-.15,0-.228-.092-.228-.295v-.59c0-.192.078-.3.228-.3Zm-5.011,4.379a16.8,16.8,0,0,0,.834,3.006,10.733,10.733,0,0,0,1,2.027,10.605,10.605,0,0,0,.871-1.549,23.721,23.721,0,0,0,.985-2.763c.228-.979.471-2.286.7-3.913h-4.669A16.4,16.4,0,0,0,353.889,2202.508Z" transform="translate(-279.271 -2195.48)" fill="#72adb6"/>
      <path id="Path_742" data-name="Path 742" d="M353.684,2197.164c0,.114-.052.156-.15.156-.228.031-.378.089-.435.207a22.382,22.382,0,0,1-1.928,3.55V2213.4c0,.146-.114.223-.3.223h-.736c-.186,0-.285-.077-.285-.223v-10.639c-.529.605-1.265,1.378-2.213,2.3a.509.509,0,0,1-.394-.19c-.192-.156-.4-.3-.586-.472a.25.25,0,0,1-.135-.228c.643-.6,1.306-1.264,1.949-1.964a16.154,16.154,0,0,0,2.229-2.986,15.548,15.548,0,0,0,1.285-2.875c.021-.094.078-.15.15-.15A5.838,5.838,0,0,1,353.684,2197.164Zm10.111,4.349v.735c0,.208-.073.307-.223.307l-5.918,1.055a15.407,15.407,0,0,0,.72,2.966,12.155,12.155,0,0,0,1.207,2.82,7.44,7.44,0,0,0,1.57,2.036,2.174,2.174,0,0,0,.943.342c.135,0,.306-.207.492-.623a10.782,10.782,0,0,0,.7-2.041c.057,0,.114.079.187.188a3.533,3.533,0,0,0,.549.605.462.462,0,0,1,.207.4,20.429,20.429,0,0,1-.886,2.155c-.415.717-.814,1.09-1.171,1.09a2.076,2.076,0,0,1-.679-.13,5.126,5.126,0,0,1-1.306-.907,9.046,9.046,0,0,1-1.627-2.057,16.425,16.425,0,0,1-1.379-3.213,33.119,33.119,0,0,1-.736-3.4l-3.949.695c-.156,0-.207-.093-.207-.281v-.741c0-.146.052-.223.207-.223l3.778-.685c-.15-1.394-.264-3.249-.3-5.514,0-.154.036-.228.15-.228l1.208.11c.228,0,.342.076.342.19a.259.259,0,0,1-.15.265c-.114.057-.15.208-.15.472,0,1.778.036,3.27.15,4.477l6.048-1.093A.2.2,0,0,1,363.8,2201.512Zm-2.021-3.27c.606.45,1.135.85,1.586,1.211a.391.391,0,0,1-.093.146,8.156,8.156,0,0,1-.58.814,22.062,22.062,0,0,0-2.14-1.565,9.311,9.311,0,0,0-1.55-.8,3.571,3.571,0,0,1,.586-.829c.057-.072.114-.13.15-.13A20.824,20.824,0,0,1,361.774,2198.243Z" transform="translate(-262.503 -2196.2)" fill="#72adb6"/>
      <path id="Path_743" data-name="Path 743" d="M356.788,2197.192c0,.109-.057.167-.15.167-.228.037-.363.093-.435.207a25.981,25.981,0,0,1-1.477,3.385v12.266c0,.146-.109.223-.3.223h-.736c-.212,0-.306-.078-.306-.223v-10.173c-.451.612-1,1.307-1.679,2.125a.531.531,0,0,1-.4-.177l-.586-.471a.294.294,0,0,1-.129-.244c.529-.605,1.057-1.264,1.607-1.964a16.3,16.3,0,0,0,1.83-3.026,18.533,18.533,0,0,0,1.057-2.913c.041-.073.078-.129.156-.129A6.583,6.583,0,0,1,356.788,2197.192Zm7.468,11.449v-.072a4.317,4.317,0,0,0-.078-.83.917.917,0,0,1-.078-.363c0-.072.114-.135.363-.135l1.493.193c.129.077.207.128.207.165,0,.12-.078.172-.228.172-.249.113-.363.4-.363.871h2.519c.129,0,.207.093.207.284v.6c0,.193-.078.286-.207.286h-2.519v2.364c0,.892-.674,1.341-2,1.341H362.4c-.114,0-.15-.114-.15-.321a3.012,3.012,0,0,0-.363-.87c0-.109.042-.15.135-.15a7.639,7.639,0,0,0,1.42.15c.529,0,.813-.229.813-.664v-1.85h-7.4c-.15,0-.223-.093-.223-.286v-.6c0-.191.073-.284.223-.284Zm-2.441-11.148v-1.042c0-.134.093-.207.28-.207.948,0,1.42.073,1.42.207,0,.17-.073.265-.187.286-.135.016-.192.149-.192.379v.377h4.727c.15,0,.228.114.228.3v.586c0,.187-.078.285-.228.285h-4.727v1.036h3.991c.186,0,.3.079.3.229v4.953c0,.151-.114.208-.3.208h-.777c.249.263.456.492.643.679.363.477.684.89.943,1.248l-.093.13c-.378.514-.565.756-.565.756-.228-.342-.472-.664-.7-.964-.643.037-1.285.078-1.948.114-2.265.149-4.571.321-6.955.477-.114.337-.207.5-.3.523a.232.232,0,0,1-.192-.109l-.472-1.59q1.026-.034,5.1-.208v-1.057H357.9c-.207,0-.3-.058-.3-.208v-4.953c0-.151.093-.229.3-.229h3.913v-1.036h-4.576c-.15,0-.223-.1-.223-.285v-.586c0-.186.073-.3.223-.3Zm-1.793,13.754c.337.327.643.59.9.85a.5.5,0,0,1-.093.156c-.378.488-.565.737-.565.737a14.724,14.724,0,0,0-1.208-1.12,7.549,7.549,0,0,0-.871-.581,3.274,3.274,0,0,1,.529-.758.173.173,0,0,1,.135-.112A12.62,12.62,0,0,1,360.022,2211.248Zm1.793-9.412v-1.016h-2.892v1.016Zm0,1.12h-2.892v1.037h2.892Zm1.321-1.12h2.949v-1.016h-2.949Zm2.949,1.12h-2.949v1.037h2.949Zm-.964,2.508a1.417,1.417,0,0,1,.228-.372h-2.213v1c.606-.042,1.265-.056,1.949-.093.228,0,.415-.021.6-.037C365.464,2205.748,365.272,2205.583,365.122,2205.463Z" transform="translate(-245.488 -2196.017)" fill="#72adb6"/>
      <path id="Path_744" data-name="Path 744" d="M357.135,2207.948a.292.292,0,0,1-.13.228.51.51,0,0,0-.228.342c-.114,1.114-.249,2.021-.394,2.72-.114.394-.228.793-.363,1.229-.057.078-.093.135-.135.135a5.514,5.514,0,0,0-1.016-.265c-.114-.041-.156-.1-.156-.17a12.811,12.811,0,0,0,.549-1.741,16.86,16.86,0,0,0,.378-2.722c0-.13.057-.208.171-.208C356.684,2207.7,357.135,2207.86,357.135,2207.948Zm2.949-10.919c.057.13.093.208.093.208,0,.109-.109.165-.321.165-.3,0-.487.077-.565.212-.606.963-1.192,1.835-1.721,2.606.451.416.886.829,1.342,1.286l.021-.022c.715-.979,1.342-1.887,1.83-2.7a8.354,8.354,0,0,1,1.327,1.187c0,.1-.078.135-.228.135a.772.772,0,0,0-.57.151c-1.171,1.663-2.3,3.177-3.415,4.556.751-.058,1.658-.136,2.721-.223-.155-.379-.321-.762-.492-1.141,0-.073.321-.286.964-.6.3.7.565,1.341.757,1.927.186.523.337,1.092.492,1.7a4.455,4.455,0,0,1-1.119.357,9.79,9.79,0,0,0-.337-1.436v-.021l-1.648.347v7.54c0,.146-.114.219-.3.219h-.736c-.192,0-.285-.073-.285-.219v-7.259l-2.228.472a2.8,2.8,0,0,1-.513.513,7.5,7.5,0,0,1-.373-1.778,6.533,6.533,0,0,1,1.472-.249c.829-1.016,1.529-1.927,2.094-2.685-.736-.606-1.285-1.057-1.638-1.315a12.1,12.1,0,0,0-1.783-.991c0-.109.269-.436.8-.979a.2.2,0,0,1,.166-.134c.269.186.513.383.777.591.342-.477.643-.949.907-1.405.492-.808.834-1.416,1.057-1.829Zm1.042,10.625a24.194,24.194,0,0,1,1.036,3.25c0,.128-.373.258-1.094.373-.15,0-.207-.037-.207-.151a28.053,28.053,0,0,0-.757-3.249c0-.114.321-.223.964-.379C361.084,2207.5,361.105,2207.555,361.126,2207.653Zm5.255-1.784c0,.136-.057.213-.171.213a.489.489,0,0,0-.207.472v.735a15.022,15.022,0,0,1-.135,1.757,6,6,0,0,1-.508,1.871,6.173,6.173,0,0,1-1.005,1.457,8.128,8.128,0,0,1-1.456,1.186c-.073,0-.13-.051-.207-.165a3.952,3.952,0,0,0-.58-.534c-.114-.072-.176-.129-.176-.186a8.063,8.063,0,0,0,1.42-1.11,4.187,4.187,0,0,0,.715-1.083,6.081,6.081,0,0,0,.477-1.565,11.8,11.8,0,0,0,.13-1.627v-1.478c0-.149.021-.228.078-.228A9.583,9.583,0,0,1,366.381,2205.869Zm1.829-9.374c0,.191-.052.285-.166.285-.135.021-.192.15-.192.4v1.607h4.141c.072,0,.13.073.13.228v.584c0,.208-.057.3-.13.3h-4.841c-.7,1.664-1.208,2.85-1.55,3.591,1.208-.114,2.477-.264,3.778-.414-.3-.685-.6-1.306-.871-1.855,0-.114.269-.321.819-.584a.319.319,0,0,1,.223.077,43.417,43.417,0,0,1,2.135,4.421c0,.186-.036.306-.114.306a2.171,2.171,0,0,1-1.057.429c-.244-.62-.472-1.211-.679-1.736-2.114.307-4.12.544-5.975.721-.13,0-.223.088-.28.258-.041.328-.135.472-.3.472s-.435-.6-.819-1.85c.213,0,.627-.015,1.233-.072a3.127,3.127,0,0,0,.435-.042,4.508,4.508,0,0,1,.187-.435c.549-1.187,1.021-2.285,1.436-3.286h-3.213c-.109,0-.15-.093-.15-.3v-.584c0-.155.041-.228.15-.228h3.991v-2.291c0-.13.093-.207.28-.207C367.739,2196.288,368.21,2196.365,368.21,2196.495Zm1.042,9.447a.776.776,0,0,1-.15.384v5.384c0,.191.036.3.15.3h1.187c.228,0,.435-.643.664-1.927l1.171.741c-.394,1.622-.886,2.44-1.472,2.44h-2.063c-.643,0-.964-.3-.964-.89v-6.505c0-.134.042-.206.156-.206C368.8,2205.735,369.252,2205.833,369.252,2205.942Z" transform="translate(-228.235 -2196.137)" fill="#72adb6"/>
      <path id="Path_745" data-name="Path 745" d="M364.538,2196.858c.114.092.192.17.192.243,0,.156-.135.212-.363.212a.409.409,0,0,0-.378.167,9.394,9.394,0,0,0,2.949,2.8.309.309,0,0,1-.114.264c-.187.15-.415.358-.7.607a.122.122,0,0,1-.109-.042,5.082,5.082,0,0,1-1.177-.928,17.386,17.386,0,0,1-1.415-1.715c-.228.372-.415.7-.607.963a12.828,12.828,0,0,1-.964,1.306c-.264.3-.508.565-.736.793h4.649c.15,0,.228.109.228.3v.59c0,.207-.078.3-.228.3h-1.627V2205h2.441c.15,0,.228.089.228.286v.58c0,.213-.078.3-.228.3h-2.441v4.97c.777-.186,1.534-.374,2.249-.581.041,0,.078-.02.114-.02.1,0,.15.076.15.207a4.5,4.5,0,0,1-.073,1.113c-1.949.477-3.913.913-5.913,1.328-.212.335-.378.523-.513.523-.114,0-.358-.544-.736-1.622.907-.151,2.021-.338,3.322-.623.021,0,.041-.02.078-.02v-5.277H360c-.15,0-.228-.088-.228-.3v-.58c0-.2.078-.286.228-.286h2.814v-2.291h-1.7c-.15,0-.228-.093-.228-.3v-.664l-.187.193a7.521,7.521,0,0,1-.928.771.311.311,0,0,1-.285-.191,2.943,2.943,0,0,0-.549-.658c-.13-.072-.187-.13-.187-.191,0-.037.021-.051.057-.088a8.822,8.822,0,0,0,1.322-.928,12.536,12.536,0,0,0,1.456-1.627,9.77,9.77,0,0,0,.8-1.248,11.844,11.844,0,0,0,.622-1.4c.052-.119.114-.17.166-.17Zm-3.5,10.716a10.27,10.27,0,0,1,.964,1.758,4.234,4.234,0,0,1,.363,1.264c0,.077-.093.128-.27.15a2.86,2.86,0,0,1-.979.3,8.042,8.042,0,0,0-.565-1.983c-.228-.5-.477-.949-.7-1.348a3.665,3.665,0,0,1,.964-.279A.236.236,0,0,1,361.04,2207.574Zm5.576-.249c.15.079.249.171.249.249a.213.213,0,0,1-.1.188c-.093,0-.15.058-.166.17a15.167,15.167,0,0,1-.7,2.136c-.078.113-.114.17-.135.17a.527.527,0,0,1-.3-.114c-.228-.114-.456-.228-.664-.321-.114-.035-.15-.058-.15-.077a.193.193,0,0,1,.036-.128,11.309,11.309,0,0,0,.492-1.172,10.33,10.33,0,0,0,.358-1.327c.021-.109.042-.186.078-.186Zm9.038-10.013c.244,0,.373.072.373.223v14.138a1.646,1.646,0,0,1-.757,1.384,5.414,5.414,0,0,1-1.829.5.227.227,0,0,1-.249-.223,3.252,3.252,0,0,0-.415-1.171c0-.077.036-.114.15-.114.834,0,1.342-.072,1.493-.228a.778.778,0,0,0,.285-.7v-12.7h-6.292v14.841c0,.146-.093.219-.285.219h-.736c-.207,0-.306-.073-.306-.219v-15.729c0-.151.1-.223.306-.223Zm-1.99,3.173c.155,0,.228.114.228.3v.59c0,.208-.072.3-.228.3h-4.058c-.156,0-.228-.088-.228-.3v-.59c0-.186.072-.3.228-.3Zm-.3,3.4c.192,0,.3.078.3.228v5.9c0,.15-.109.228-.3.228h-.736a.2.2,0,0,1-.228-.228v-.964h-1.757v.964c0,.15-.114.228-.3.228h-.736a.2.2,0,0,1-.228-.228v-5.9a.2.2,0,0,1,.228-.228Zm-.964,4.063V2205h-1.757v2.944Z" transform="translate(-211.342 -2196.137)" fill="#72adb6"/>
      <path id="Path_746" data-name="Path 746" d="M335.021,2202.284a1.168,1.168,0,0,0,.073.212c0,.115-.093.151-.28.151-.269,0-.435.073-.513.228-.606,1.058-1.15,2-1.684,2.831.342.3.663.632.985.969.529-.851.985-1.622,1.363-2.322a9.168,9.168,0,0,1,1.171,1.093c0,.093-.078.129-.192.129a.579.579,0,0,0-.435.131c-.865,1.513-1.736,2.9-2.571,4.161.664-.042,1.441-.094,2.327-.17-.15-.493-.337-.959-.529-1.432,0-.077.264-.248.814-.534.3.679.529,1.285.715,1.834a11.482,11.482,0,0,1,.456,1.644,3.392,3.392,0,0,1-1.021.3c-.036-.284-.114-.625-.207-1.025l-1.192.249v7.41c0,.146-.114.223-.3.223h-.741a.2.2,0,0,1-.223-.223v-7.166l-1.855.379a2.047,2.047,0,0,1-.508.436,6.532,6.532,0,0,1-.363-1.623,4.2,4.2,0,0,1,1.135-.172c.684-1,1.249-1.875,1.705-2.591-.606-.47-1.042-.814-1.342-1.02a10.086,10.086,0,0,0-1.5-.793c0-.1.228-.393.72-.928a.172.172,0,0,1,.15-.109c.192.145.4.285.586.415.306-.493.607-.985.871-1.476.456-.867.8-1.529.985-1.964Zm-2.342,10.547c0,.1-.078.2-.228.27a.379.379,0,0,0-.228.321,19.764,19.764,0,0,1-.321,2.228,20.047,20.047,0,0,1-.492,1.986,1.637,1.637,0,0,1-.264-.073,2.515,2.515,0,0,0-.72-.135.269.269,0,0,1-.114-.249c.114-.377.228-.73.326-1.093.13-.528.244-1.171.358-1.948a15.578,15.578,0,0,0,.13-1.6c0-.1.042-.149.135-.149C332.2,2212.572,332.678,2212.722,332.678,2212.831Zm3.607-.3c.228.789.508,2.038.814,3.759,0,.113-.358.222-1.042.3-.114,0-.15-.037-.15-.146-.13-1.176-.321-2.44-.586-3.768,0-.072.285-.186.891-.295C336.249,2212.385,336.265,2212.438,336.286,2212.535Zm9.6-2.512c.186,0,.285.072.285.221v5.463c0,.155-.1.227-.285.227h-2.006v1.116c0,.128.036.207.15.207h1.778c.415,0,.793-.514,1.171-1.549l1.036.662c-.529,1.323-1.15,2-1.907,2H343.6c-.6,0-.886-.285-.886-.808v-1.628H341.5a3.474,3.474,0,0,0-.155.323,3.475,3.475,0,0,1-.529.716,4.985,4.985,0,0,1-1.643,1.113c-.358.141-.7.249-1.021.363-.3.072-.643.13-.985.207a.35.35,0,0,1-.264-.113c-.187-.265-.394-.493-.586-.722a.339.339,0,0,1-.109-.185c0-.022.016-.042.052-.042a8.582,8.582,0,0,0,1.021-.15c.306-.072.57-.13.834-.208a9.089,9.089,0,0,0,.943-.372,4.821,4.821,0,0,0,.7-.437,1.907,1.907,0,0,0,.435-.4l.057-.095h-2.12c-.207,0-.3-.072-.3-.227v-5.463c0-.149.093-.221.3-.221Zm-4.955-5.9c.187,0,.3.052.3.149v2.515c0,.151-.114.207-.3.207H339.9v1.4h1.264c.093,0,.15.077.15.223v.457c0,.188-.057.286-.15.286h-4.441c-.15,0-.207-.059-.207-.207v-7.034a.181.181,0,0,1,.207-.207h4.441c.093,0,.15.077.15.207v.451c0,.212-.057.305-.15.305H339.9v1.25Zm-3.327,0H338.8v-1.25h-1.192Zm2.519,1.985v-1.1h-2.519v1.1Zm-1.327,2.285V2207h-1.192v1.4Zm6.126,3.25v-.742h-5.841v.742Zm0,1.7v-.809h-5.841v.809Zm0,.891h-5.841v.809h5.841Zm-.892-12.474c.15.072.228.151.228.228s-.057.13-.171.167a.271.271,0,0,0-.28.191,3.321,3.321,0,0,1-.171.374h3.643c.1,0,.156.078.156.206v.612c0,.149-.057.208-.156.208h-4.136a7.1,7.1,0,0,1-.529.792c-.1.109-.171.166-.213.166a.408.408,0,0,1-.259-.087c-.228-.1-.456-.2-.643-.286-.078-.021-.114-.041-.114-.058a.258.258,0,0,1,.052-.134,6.9,6.9,0,0,0,.855-1.214,5.578,5.578,0,0,0,.643-1.341c.036-.13.072-.2.129-.2Zm3.026,4.721c.15,0,.223.063.223.15v2.52c0,.092-.072.128-.223.128h-4.934c-.155,0-.228-.037-.228-.128v-2.52c0-.088.073-.15.228-.15Zm-3.462.665h-.658v1.471h.658Zm3.177-2.364c.073,0,.135.072.135.228v.435c0,.151-.062.229-.135.229h-3.628c-.114,0-.15-.078-.15-.229v-.435c0-.156.036-.228.15-.228Zm-1.85,2.364h-.586v1.471h.586Zm1.321,0h-.586v1.471h.586Z" transform="translate(-330.31 -2174.522)" fill="#72adb6"/>
      <path id="Path_747" data-name="Path 747" d="M336.482,2206.213a3.883,3.883,0,0,1-1.208,1.321l-.492-.544a2.95,2.95,0,0,0,1.265-2.157h-1.4v-2.27h2.27v2.084A3.249,3.249,0,0,1,336.482,2206.213Z" transform="translate(-312.17 -2169.583)" fill="#72adb6"/>
      <path id="Path_748" data-name="Path 748" d="M343.8,2206.5c.036-.223.057-.472.072-.7a28.185,28.185,0,0,0,0-4.405l2.006.228a.284.284,0,0,1-.171.264.484.484,0,0,0-.28.4c-.042,1.778-.135,3.171-.249,4.213h7.483c.156,0,.228.093.228.279v.762c0,.187-.073.281-.228.281H345.6a13.672,13.672,0,0,0,.793,2.378,12.227,12.227,0,0,0,1.135,2.292,10.748,10.748,0,0,0,2.394,2.663,8,8,0,0,0,2.84,1.586.212.212,0,0,1,.129.172c0,.114-.073.206-.207.326a6.713,6.713,0,0,0-.715.829.385.385,0,0,1-.342.243,2.822,2.822,0,0,1-.757-.471,14.055,14.055,0,0,1-3.457-2.985,11.244,11.244,0,0,1-1.664-2.778,16.287,16.287,0,0,1-1.021-2.875c-.1.377-.192.762-.306,1.1a15.851,15.851,0,0,1-1.322,2.876,10.33,10.33,0,0,1-1.757,2.378,22.477,22.477,0,0,1-3.949,2.757c-.114,0-.192-.078-.264-.223a7.146,7.146,0,0,0-.736-.739.41.41,0,0,1-.192-.3c.4-.17.928-.393,1.57-.737a11.283,11.283,0,0,0,1.793-1.206,6.975,6.975,0,0,0,1.55-1.612,11.276,11.276,0,0,0,1.378-2.249,15.554,15.554,0,0,0,.912-2.513c.073-.3.13-.6.187-.907h-7.24c-.15,0-.228-.094-.228-.281v-.762c0-.186.078-.279.228-.279Z" transform="translate(-305.976 -2174.464)" fill="#72adb6"/>
      <path id="Path_749" data-name="Path 749" d="M342.614,2204.42v-2.808c0-.156.093-.228.3-.228.928,0,1.4.072,1.4.228s-.078.258-.192.279c-.129.021-.186.15-.186.377v2.151H346.3c.244,0,.378.1.378.285v9.055a1.022,1.022,0,0,1-.456.892,2.691,2.691,0,0,1-1.094.32.226.226,0,0,1-.249-.228,3.508,3.508,0,0,0-.415-1.169c0-.042.021-.079.057-.079a1.323,1.323,0,0,0,.7-.108.637.637,0,0,0,.114-.421V2205.6h-1.4v12.629c0,.144-.093.223-.285.223h-.736c-.207,0-.3-.079-.3-.223V2205.6h-1.4v8.938c0,.151-.114.208-.306.208h-.736c-.207,0-.3-.057-.3-.208V2204.7c0-.187.093-.285.3-.285Zm13.8-2.508c.15,0,.223.093.223.284v.6c0,.192-.072.284-.223.284h-9.074c-.15,0-.223-.092-.223-.284v-.6c0-.191.072-.284.223-.284Zm-.135,7.676c.192,0,.285.072.285.222V2218c0,.148-.093.227-.285.227h-.736c-.207,0-.3-.079-.3-.227v-.591h-6.654V2218c0,.148-.093.227-.285.227h-.736c-.207,0-.3-.079-.3-.227v-8.113a.266.266,0,0,1,.3-.3Zm-.959-5.386c.187,0,.28.072.28.218v3.845c0,.146-.093.207-.28.207h-6.732c-.187,0-.285-.062-.285-.207v-3.845c0-.146.1-.218.285-.218Zm-3.991,8.707v-2.156h-2.742v2.156Zm0,3.328v-2.15h-2.742v2.15Zm2.949-10.867H349.62v1.927h4.654Zm-1.627,7.54h2.591v-2.156h-2.591Zm2.591,3.328v-2.15h-2.591v2.15Z" transform="translate(-290.317 -2174.522)" fill="#72adb6"/>
      <path id="Path_750" data-name="Path 750" d="M346.387,2205.348v-2.669a4.457,4.457,0,0,0-.078-.83.854.854,0,0,1-.078-.356c0-.079.114-.135.378-.135l1.477.186c.15.078.223.141.223.177,0,.109-.073.17-.223.17-.265.109-.379.393-.379.865v2.592h1.928c.15,0,.228.093.228.279v.591c0,.207-.078.3-.228.3h-1.928v3.8c.6-.3,1.192-.62,1.757-.946.036-.037.057-.058.093-.058a.139.139,0,0,1,.15.156,3.948,3.948,0,0,1-.073,1.041q-.964.56-1.928,1.074v5.5c0,.87-.663,1.32-1.985,1.32h-.663c-.114,0-.166-.108-.166-.316a3.656,3.656,0,0,0-.363-.87c0-.093.042-.134.15-.134a3.993,3.993,0,0,0,.891.134c.529,0,.814-.229.814-.658v-4.291c-.529.259-1.063.523-1.555.751-.187.338-.321.514-.435.514-.129,0-.373-.514-.752-1.55a22.847,22.847,0,0,0,2.742-1.042v-4.421h-2.213c-.15,0-.228-.093-.228-.3v-.591c0-.186.078-.279.228-.279Zm14.324,4.349c.15,0,.228.109.228.3v.581c0,.2-.078.284-.228.284h-4.5v2.235H359.9c.15,0,.228.092.228.285v.605c0,.188-.078.281-.228.281h-3.685v2.627c.492.016,1.114.037,1.907.037.472,0,1.384-.079,2.742-.228a.412.412,0,0,1-.114.27,5.456,5.456,0,0,0-.321,1.015c-.021.172-.073.269-.166.269h-1.855a16.334,16.334,0,0,1-3.5-.269,7.474,7.474,0,0,1-1.472-.493,3.649,3.649,0,0,1-.85-.62,2.809,2.809,0,0,1-.72-.851l-.036-.053a2.516,2.516,0,0,1-.114.281,6.453,6.453,0,0,1-2.078,2.306.335.335,0,0,1-.285-.135c-.207-.186-.4-.374-.565-.523a.434.434,0,0,1-.114-.228c0-.119.036-.177.15-.191a5.594,5.594,0,0,0,1.156-.944,5.669,5.669,0,0,0,.772-1.119,12.647,12.647,0,0,0,.415-1.358,13.15,13.15,0,0,0,.207-2.2.22.22,0,0,1,.249-.24l1.207.282c.135.077.207.154.207.227a.264.264,0,0,1-.244.286.52.52,0,0,0-.207.373,11.536,11.536,0,0,1-.249,1.592,4.158,4.158,0,0,0,.513.979,1.964,1.964,0,0,0,.7.7,3.4,3.4,0,0,0,.964.513,1.4,1.4,0,0,0,.358.114v-5.826H350.6c-.156,0-.228-.086-.228-.284V2210c0-.19.073-.3.228-.3Zm-1.264-7.755c.187,0,.3.079.3.229v6.047c0,.156-.114.225-.3.225h-7.753c-.187,0-.28-.068-.28-.225v-6.047c0-.149.093-.229.28-.229Zm-1.021,2.648v-1.476h-5.69v1.476Zm0,1.193h-5.69v1.473h5.69Z" transform="translate(-274.536 -2174.631)" fill="#72adb6"/>
      <path id="Path_751" data-name="Path 751" d="M353.766,2203.679v3.54c0,.451-.021.87-.036,1.285h4.991v-6.711c0-.149.093-.228.28-.228.985,0,1.493.079,1.493.228,0,.172-.073.264-.186.286-.135.02-.192.149-.192.377v6.048h3.913c.15,0,.228.114.228.3v.737c0,.207-.078.305-.228.305h-3.913v8.489c0,.145-.129.223-.358.223H359c-.187,0-.28-.079-.28-.223v-8.489h-5.084a21.8,21.8,0,0,1-.4,2.343,8.385,8.385,0,0,1-1.871,3.514,11.744,11.744,0,0,1-2.4,2.042.453.453,0,0,1-.358-.151,6.134,6.134,0,0,0-.549-.684.425.425,0,0,1-.114-.286,9.145,9.145,0,0,0,3.892-4.7,16.1,16.1,0,0,0,.4-2.078h-4.519c-.15,0-.228-.1-.228-.305v-.737c0-.187.078-.3.228-.3h4.612c.021-.342.036-.7.036-1.057v-3.42a18.063,18.063,0,0,1-3.607.356.3.3,0,0,1-.342-.248,5.758,5.758,0,0,0-.415-.716c0-.191.073-.305.223-.305a19.989,19.989,0,0,0,4.063-.285,6.985,6.985,0,0,0,3.348-1.374.77.77,0,0,1,.342-.1c.078,0,.15.056.264.135a9.12,9.12,0,0,1,.772.963c0,.149-.057.223-.15.223l-.508-.073A10.351,10.351,0,0,1,353.766,2203.679Z" transform="translate(-258.454 -2174.631)" fill="#72adb6"/>
      <path id="Path_752" data-name="Path 752" d="M357.354,2202.3a.148.148,0,0,1-.156.167.629.629,0,0,0-.435.207,24.634,24.634,0,0,1-1.472,3.384v12.272c0,.145-.114.223-.3.223h-.741c-.207,0-.3-.079-.3-.223v-10.173c-.456.607-1,1.307-1.684,2.12a.526.526,0,0,1-.394-.172l-.586-.471a.308.308,0,0,1-.135-.249c.529-.6,1.057-1.264,1.607-1.964a16.358,16.358,0,0,0,1.835-3.026,19.689,19.689,0,0,0,1.057-2.908c.036-.079.078-.135.15-.135A6.77,6.77,0,0,1,357.354,2202.3Zm7.463,11.455v-.078a3.96,3.96,0,0,0-.078-.83.88.88,0,0,1-.073-.358c0-.078.114-.14.358-.14l1.493.192c.135.078.207.134.207.17,0,.114-.073.172-.228.172-.244.109-.358.394-.358.871h2.514c.135,0,.207.088.207.279v.605c0,.193-.072.281-.207.281h-2.514v2.362c0,.893-.679,1.343-2,1.343h-1.171c-.114,0-.156-.109-.156-.316a2.725,2.725,0,0,0-.358-.871c0-.114.036-.156.13-.156a7.6,7.6,0,0,0,1.42.156c.529,0,.814-.228.814-.664v-1.855h-7.39c-.15,0-.228-.088-.228-.281v-.605c0-.191.078-.279.228-.279Zm-2.441-11.154v-1.041c0-.13.1-.207.285-.207.948,0,1.415.077,1.415.207,0,.17-.073.265-.187.285-.135.021-.187.151-.187.379v.377h4.721c.155,0,.228.115.228.3v.586c0,.186-.073.284-.228.284H363.7v1.036h3.985c.192,0,.3.079.3.229V2210c0,.151-.109.208-.3.208h-.772c.244.264.451.492.643.679.358.477.679.89.943,1.248l-.093.135c-.378.508-.565.751-.565.751-.228-.337-.477-.663-.705-.958-.643.032-1.285.072-1.943.109-2.27.149-4.576.327-6.955.476-.114.338-.213.509-.306.524a.22.22,0,0,1-.186-.109l-.472-1.59q1.018-.033,5.1-.208V2210.2h-3.913c-.207,0-.3-.058-.3-.208v-4.953c0-.15.093-.229.3-.229h3.913v-1.036H357.8c-.15,0-.228-.1-.228-.284v-.586c0-.187.078-.3.228-.3Zm-1.793,13.761c.342.321.643.584.907.85a.522.522,0,0,1-.093.15c-.378.492-.565.742-.565.742a13.321,13.321,0,0,0-1.213-1.121,6.83,6.83,0,0,0-.871-.584,3.562,3.562,0,0,1,.529-.758.189.189,0,0,1,.135-.113A10.189,10.189,0,0,1,360.582,2216.366Zm1.793-9.417v-1.016h-2.887v1.016Zm0,1.12h-2.887v1.037h2.887Zm1.327-1.12h2.949v-1.016H363.7Zm2.949,1.12H363.7v1.037h2.949Zm-.964,2.508a1.374,1.374,0,0,1,.223-.373H363.7v1.006c.6-.042,1.265-.062,1.943-.1.228,0,.42-.021.606-.037C366.024,2210.861,365.837,2210.7,365.687,2210.576Z" transform="translate(-243.146 -2174.631)" fill="#72adb6"/>
      <path id="Path_753" data-name="Path 753" d="M358.08,2203.4v-1.778c0-.094.057-.151.207-.151.886,0,1.342.079,1.342.229s-.057.248-.15.248c-.114.014-.15.129-.15.337v1.114H362.2c.1,0,.15.077.15.228v.585c0,.208-.052.307-.15.307h-2.871v1.622h2.363c.187,0,.3.078.3.208v6.5c0,.151-.114.228-.3.228h-2.363v1.7h3.021c.1,0,.155.078.155.208v.607c0,.19-.057.284-.155.284h-3.021v2.519c0,.145-.093.223-.285.223h-.757c-.15,0-.207-.079-.207-.223v-2.519h-2.965c-.1,0-.135-.094-.135-.284v-.607c0-.13.036-.208.135-.208h2.965v-1.7h-2.363c-.207,0-.3-.077-.3-.228v-6.5c0-.131.093-.208.3-.208h2.363v-1.622h-2.814c-.114,0-.15-.1-.15-.307v-.585c0-.151.036-.228.15-.228Zm0,5.612v-1.778h-1.394v1.778Zm0,1.12h-1.394v1.831h1.394Zm1.249-1.12h1.4v-1.778h-1.4Zm1.4,1.12h-1.4v1.831h1.4Zm7.8-8.2c.114.094.171.171.171.228,0,.151-.1.207-.285.207a.71.71,0,0,0-.322.072,9.829,9.829,0,0,0,.985,1.457,7.376,7.376,0,0,0,1.358,1.306,7.008,7.008,0,0,0,2.249,1.265c.093.042.15.072.15.114a.29.29,0,0,1-.073.186,7.96,7.96,0,0,0-.663.57c-.057.094-.114.13-.15.13a5.958,5.958,0,0,1-1.643-.928,7.529,7.529,0,0,1-1.664-1.543,11.14,11.14,0,0,1-1.192-1.649,8.068,8.068,0,0,1-.757,1.037,9.6,9.6,0,0,1-1.078,1.253,15.93,15.93,0,0,1-1.265,1.167,8.962,8.962,0,0,1-1.042.742.273.273,0,0,1-.259-.172,4.576,4.576,0,0,0-.513-.626c-.13-.053-.192-.109-.192-.167,0-.02.021-.042.078-.072a10.716,10.716,0,0,0,1.477-.913,11.409,11.409,0,0,0,1.622-1.569,7.173,7.173,0,0,0,.886-1.172,13.9,13.9,0,0,0,.7-1.358c.078-.1.135-.155.192-.155Zm-1.379,7.67a.279.279,0,0,1,.3.306v7.748a.857.857,0,0,1-.549.751,5.039,5.039,0,0,1-1.3.284.186.186,0,0,1-.207-.207,3.352,3.352,0,0,0-.383-1.057c0-.037.021-.056.1-.056a2.423,2.423,0,0,0,.979-.114.378.378,0,0,0,.171-.343v-1.32h-2.057v2.8c0,.145-.114.223-.3.223h-.591c-.207,0-.3-.079-.3-.223v-8.566c0-.151.093-.229.3-.229Zm-.892,2.519v-1.482h-2.057v1.482Zm0,2.431v-1.394h-2.057v1.394Zm4.063-7.385c.093,0,.155.072.155.223v.591c0,.207-.062.3-.155.3h-5.613c-.114,0-.15-.092-.15-.3v-.591c0-.151.036-.223.15-.223Zm-.435,2.891c0,.151-.052.229-.15.245s-.15.128-.15.336v5.089c0,.15-.114.229-.3.229H368.7c-.192,0-.285-.079-.285-.229v-5.67c0-.092.093-.149.285-.149C369.5,2209.909,369.891,2209.966,369.891,2210.058Zm2.457-.7c.114.073.192.135.192.172,0,.114-.078.149-.192.149-.223.079-.321.316-.321.735v7.013c0,.793-.6,1.192-1.772,1.192h-.891c-.073,0-.114-.114-.114-.3a3.685,3.685,0,0,0-.321-.812c0-.058.041-.078.155-.078a9.5,9.5,0,0,0,1.016.078c.5,0,.757-.176.757-.513v-6.649a3.959,3.959,0,0,0-.073-.778.847.847,0,0,1-.078-.321c0-.036.1-.078.285-.078Z" transform="translate(-227.123 -2174.693)" fill="#72adb6"/>
      <path id="Path_754" data-name="Path 754" d="M362.572,2210.476c.192,0,.285.077.285.223v4.349a2.076,2.076,0,0,0,.192.97.879.879,0,0,0,.435.507,2.168,2.168,0,0,0,.886.341,8.974,8.974,0,0,0,1.513.109h4.2a37.146,37.146,0,0,0,5.779-.521.7.7,0,0,1,.285-.064c.093,0,.15.042.15.079a10.753,10.753,0,0,0-.342,1.534c-.036.188-.13.3-.322.3h-9.748a8.924,8.924,0,0,1-1.213-.094c-.394-.078-.772-.17-1.151-.285a2.512,2.512,0,0,1-1.57-1.457l-.036-.079c-.093,0-.15.022-.15.042a7.871,7.871,0,0,0-1.985,2.115.2.2,0,0,1-.171.135c-.078,0-.321-.321-.72-.963a.655.655,0,0,1-.093-.379,12.733,12.733,0,0,0,2.648-1.855.681.681,0,0,0,.093-.436v-3.378H359.25c-.156,0-.228-.1-.228-.307v-.586c0-.187.072-.3.228-.3Zm-.959-3.854c.508.413.943.8,1.322,1.134a.557.557,0,0,1-.093.149,8.452,8.452,0,0,1-.57.8,16.393,16.393,0,0,0-1.814-1.46,10.92,10.92,0,0,0-1.285-.753,3.815,3.815,0,0,1,.586-.833c.057-.078.114-.135.15-.135A20.24,20.24,0,0,1,361.613,2206.621Zm.471-4.106c.472.384.886.721,1.228,1.027a.524.524,0,0,1-.1.151c-.373.544-.565.813-.565.813a18.067,18.067,0,0,0-1.679-1.325c-.492-.3-.891-.524-1.213-.681a4.313,4.313,0,0,1,.585-.833c.057-.074.114-.13.156-.13A17.327,17.327,0,0,1,362.085,2202.515Zm7.276.514v-1.493c0-.134.093-.207.3-.207.928,0,1.4.073,1.4.207,0,.192-.078.28-.192.28-.13.041-.186.176-.186.4v.809h5.027c.15,0,.228.1.228.285v.586c0,.207-.078.305-.228.305h-5.027v1.473H374.6c.187,0,.3.072.3.228v4.212c0,.15-.114.208-.3.208h-3.343a8.1,8.1,0,0,0,.808,1.092,6.474,6.474,0,0,0,1.4,1.271,7.482,7.482,0,0,0,2.306,1.229c.114.036.171.072.171.113a.322.322,0,0,1-.114.229,5.825,5.825,0,0,0-.736.658c-.078.093-.135.13-.192.13a6.6,6.6,0,0,1-1.679-.9,8.461,8.461,0,0,1-1.741-1.529,7.066,7.066,0,0,1-.793-1.005v4.406c0,.148-.093.227-.285.227h-.736c-.207,0-.3-.079-.3-.227v-4.463a2.122,2.122,0,0,1-.15.17,12.327,12.327,0,0,1-1.327,1.436,13.566,13.566,0,0,1-1.7,1.228,5.544,5.544,0,0,1-1.322.658c-.093,0-.171-.073-.249-.244-.186-.207-.415-.436-.643-.678-.114-.116-.15-.193-.15-.244a13.047,13.047,0,0,0,2.135-.97,10,10,0,0,0,1.778-1.342,12.362,12.362,0,0,0,1-1.243H365.6c-.207,0-.3-.058-.3-.208v-4.212c0-.156.093-.228.3-.228h3.763V2204.2h-4.8c-.155,0-.228-.1-.228-.305v-.586c0-.187.073-.285.228-.285Zm0,3.835h-2.721v2.29h2.721Zm4.213,0h-2.892v2.29h2.892Z" transform="translate(-211.175 -2174.753)" fill="#72adb6"/>
      <path id="Path_755" data-name="Path 755" d="M338.04,2218.913v-1.192c0-.151.093-.224.3-.224.928,0,1.4.073,1.4.224,0,.172-.057.27-.166.281-.135.02-.192.155-.192.383v.528h7.6c.15,0,.228.093.228.286v.6c0,.193-.078.285-.228.285h-7.6v3.322c0,.156-.114.228-.306.228h-.736c-.207,0-.3-.072-.3-.228v-3.322h-7.447c-.15,0-.228-.092-.228-.285v-.6c0-.193.078-.286.228-.286Zm-3.291-4.969a10.528,10.528,0,0,1,.415.983c0,.052-.036.087-.093.129-.643.757-1.223,1.4-1.772,1.929a12.486,12.486,0,0,1-1.119.983.544.544,0,0,0-.114.337c0,.15-.052.229-.145.229a4.925,4.925,0,0,1-1.063-1.058.2.2,0,0,1-.114-.186.159.159,0,0,1,.078-.151,7.638,7.638,0,0,0,1.114-.721,13.887,13.887,0,0,0,1.493-1.341,14.426,14.426,0,0,0,1.094-1.191c.041-.037.078-.079.135-.079C334.7,2213.808,334.734,2213.871,334.749,2213.944Zm5.146-7.22c0,.17-.078.263-.192.279s-.171.156-.171.383v.959h6.862c.15,0,.223.119.223.306v.584c0,.208-.073.3-.223.3H331.179c-.15,0-.228-.093-.228-.3v-.584c0-.187.078-.306.228-.306h7.012v-1.622c0-.156.1-.229.306-.229C339.419,2206.5,339.9,2206.568,339.9,2206.725Zm-6.447,4.156c.435.379.814.714,1.135,1.021a.628.628,0,0,1-.1.15c-.378.532-.565.792-.565.792a19.624,19.624,0,0,0-1.549-1.306,6.833,6.833,0,0,0-1.114-.674,3.268,3.268,0,0,1,.586-.835c.057-.072.114-.133.15-.133A14.436,14.436,0,0,1,333.449,2210.88Zm6.292-.528a2.052,2.052,0,0,0,.078.207c0,.114-.1.17-.285.17a.585.585,0,0,0-.529.207c-.508.758-1,1.42-1.456,2.022.321.305.643.626.964.949.171-.193.321-.363.472-.514.736-.792,1.363-1.529,1.871-2.171a8.418,8.418,0,0,1,1.321,1.187c0,.079-.073.1-.223.1a.908.908,0,0,0-.565.109c-1.1,1.177-2.177,2.234-3.234,3.213.871-.074,1.871-.149,3.042-.258-.192-.344-.415-.685-.643-1.021,0-.079.322-.265.964-.591.451.7.834,1.343,1.135,1.906a14.275,14.275,0,0,1,.715,1.706,3.424,3.424,0,0,1-1.192.379,6.57,6.57,0,0,0-.508-1.44.759.759,0,0,1-.072-.146l-5.918,1.207c-.3.362-.472.53-.513.53a8.5,8.5,0,0,1-.358-1.778,5.067,5.067,0,0,1,1.648-.3c.565-.569,1.057-1.058,1.472-1.493-.586-.492-1.021-.834-1.321-1.041a13.934,13.934,0,0,0-1.513-.772c0-.113.249-.414.736-.927a.186.186,0,0,1,.156-.114c.244.191.487.357.736.549.264-.379.508-.737.736-1.1.415-.678.7-1.187.886-1.529Zm6.369,0c.186.093.285.185.285.285,0,.073-.078.108-.228.15-.187,0-.321.057-.358.149a8.169,8.169,0,0,1-1.57,1.835.53.53,0,0,1-.285.151.682.682,0,0,1-.321-.109c-.264-.121-.487-.212-.715-.326-.114-.037-.15-.058-.15-.079s.016-.072.093-.109a9.49,9.49,0,0,0,1.114-1.057,3.83,3.83,0,0,0,.814-1.177c.057-.109.129-.17.207-.17Zm-.321,5.727a11.574,11.574,0,0,1,.891,1.792,4.732,4.732,0,0,1-1.249.358,7.921,7.921,0,0,0-.679-1.493,11.26,11.26,0,0,0-1.456-2.035c0-.079.337-.307,1.021-.665A18.069,18.069,0,0,1,345.788,2216.079Z" transform="translate(-330.08 -2153.136)" fill="#72adb6"/>
      <path id="Path_756" data-name="Path 756" d="M336.53,2211.331a3.889,3.889,0,0,1-1.213,1.316l-.487-.544a2.94,2.94,0,0,0,1.264-2.156h-1.4v-2.271h2.27v2.084A3.346,3.346,0,0,1,336.53,2211.331Z" transform="translate(-311.97 -2148.197)" fill="#72adb6"/>
      <path id="Path_757" data-name="Path 757" d="M340.86,2207.227c.042.114.078.193.078.193,0,.113-.093.165-.285.165a.542.542,0,0,0-.508.207c-.721,1.176-1.42,2.234-2.063,3.182a14.883,14.883,0,0,1,1.234,1.208c.093-.151.186-.327.28-.478.643-1.016,1.192-1.964,1.643-2.813A8.112,8.112,0,0,1,342.43,2210c0,.1-.072.134-.207.134-.264,0-.435.058-.492.172-.985,1.7-1.964,3.286-2.913,4.726.684-.077,1.493-.17,2.441-.269-.15-.581-.342-1.172-.529-1.736,0-.079.264-.249.814-.514.3.87.565,1.669.757,2.383.187.679.337,1.379.492,2.121a4.25,4.25,0,0,1-1.042.3,13.017,13.017,0,0,0-.3-1.72l-1.384.337v7.509c0,.145-.109.223-.3.223h-.736a.2.2,0,0,1-.228-.223v-7.2l-1.7.416a1.97,1.97,0,0,1-.513.436,6.023,6.023,0,0,1-.378-1.623c0-.062.363-.135,1.1-.249.565-.849,1.078-1.627,1.529-2.3-.565-.458-.985-.8-1.265-1.007a11.109,11.109,0,0,0-1.42-.793c0-.118.228-.413.72-.927a.181.181,0,0,1,.15-.114c.078.056.156.114.228.17a16.519,16.519,0,0,0,1.057-1.678c.529-.928.928-1.632,1.15-2.1Zm-2.415,11.111a.221.221,0,0,1-.156.228.45.45,0,0,0-.187.327,24.092,24.092,0,0,1-.342,2.55c-.114.373-.207.735-.321,1.134-.036.073-.073.131-.114.131a5.842,5.842,0,0,0-1.016-.265c-.114-.037-.156-.093-.156-.17.171-.488.321-1.037.477-1.622a17.762,17.762,0,0,0,.321-2.55c0-.121.036-.192.15-.192C337.989,2218.1,338.445,2218.25,338.445,2218.337Zm3.249-.43c.207.833.451,2.171.736,3.985,0,.1-.358.191-1.036.305-.114,0-.156-.058-.156-.175q-.163-1.866-.508-3.965c0-.079.285-.187.886-.3C341.658,2217.757,341.673,2217.814,341.694,2217.908Zm11.054-10.775c.249,0,.378.094.378.287v14.4a1.6,1.6,0,0,1-.793,1.405,5.543,5.543,0,0,1-1.949.523.208.208,0,0,1-.223-.207,3.634,3.634,0,0,0-.435-1.13c0-.078.057-.114.171-.114a3.33,3.33,0,0,0,1.658-.227.794.794,0,0,0,.321-.716v-13.2h-7.463v15.294c0,.145-.114.223-.3.223h-.586c-.192,0-.285-.079-.285-.223v-16.107c0-.13.093-.208.285-.208Zm-5.685,3.706c.187.394.337.809.487,1.229h.969a6.49,6.49,0,0,0,.715-1.229,6.809,6.809,0,0,0,.585-1.493c.036-.149.078-.227.13-.227l.948.378c.15.079.244.135.244.207a.2.2,0,0,1-.166.208.223.223,0,0,0-.249.212,14.238,14.238,0,0,1-.829,1.943h1.094c.1,0,.15.072.15.223v.591c0,.151-.052.228-.15.228h-2.213v2.865h2.291c.072,0,.129.079.129.228v.591c0,.151-.057.229-.129.229h-3.991v2.207c0,.551.456.814,1.4.814h.736a8,8,0,0,0,1.928-.286c.042,0,.057.062.057.151a1.932,1.932,0,0,0-.378.814c-.016.191-.114.285-.28.285H348.1c-1.472,0-2.208-.357-2.208-1.1v-2.886h-.663c-.114,0-.15-.079-.15-.229v-.591c0-.149.036-.228.15-.228h2.363v-2.865h-2.363c-.114,0-.15-.077-.15-.228v-.591c0-.15.036-.223.15-.223h1.244c-.072-.212-.166-.435-.259-.679a8.588,8.588,0,0,0-.912-1.741c0-.072.269-.244.813-.528C346.493,2209.761,346.815,2210.331,347.063,2210.838Z" transform="translate(-305.867 -2153.245)" fill="#72adb6"/>
      <path id="Path_758" data-name="Path 758" d="M346.156,2207.5c.187,0,.285.072.285.229v5.308c0,.149-.1.227-.285.227h-1.57v3.172h2.156c.135,0,.207.114.207.3v.586c0,.188-.073.285-.207.285h-2.156v3.422c.855-.193,1.684-.419,2.477-.643a.236.236,0,0,1,.114-.042c.093,0,.15.079.15.228a4.348,4.348,0,0,1-.073,1.1c-2.042.507-4.12.979-6.2,1.4-.223.341-.394.527-.508.527-.135,0-.378-.544-.736-1.622a8.432,8.432,0,0,0,.943-.156v-6.5c0-.072.078-.13.228-.13.871,0,1.321.078,1.321.207,0,.15-.057.244-.129.244-.114.02-.156.128-.156.335v5.6c.4-.072.814-.151,1.249-.26v-8.053h-2.213c-.207,0-.3-.078-.3-.227v-5.308c0-.156.093-.229.3-.229Zm-.964,1.188h-3.177v3.384h3.177Zm6.141-1.741c.135.118.207.19.207.269a.213.213,0,0,1-.15.208.22.22,0,0,0-.244.227,5.173,5.173,0,0,0-.171.581h4.478a.532.532,0,0,1,.321.139c.264.337.42.524.42.6a19.708,19.708,0,0,1-1.005,2.513,12.375,12.375,0,0,1-1.171,1.855,3.931,3.931,0,0,1-.378.416,5.993,5.993,0,0,0,1.435.907,8.758,8.758,0,0,0,2.291.85c.093.036.15.072.15.114a.246.246,0,0,1-.093.207,7.7,7.7,0,0,0-.72.716c-.093.134-.171.19-.228.19a.835.835,0,0,1-.28-.128,14.705,14.705,0,0,1-1.456-.611,8.949,8.949,0,0,1-1.757-1.078,3.425,3.425,0,0,1-.321-.282,1.463,1.463,0,0,1-.156.116,9.949,9.949,0,0,1-2.228,1.264,10.694,10.694,0,0,1-2.135.72.413.413,0,0,1-.4-.19c-.15-.208-.3-.43-.451-.658-.078-.079-.114-.135-.114-.193s.036-.093.129-.134a15.022,15.022,0,0,0,1.591-.416,8.469,8.469,0,0,0,2.42-1.229c.13-.093.244-.186.357-.284-.057-.057-.093-.109-.135-.146a5.766,5.766,0,0,1-1-1.741,6.183,6.183,0,0,1-.456-1.156c-.187.4-.373.779-.565,1.114a8.031,8.031,0,0,1-.943,1.25,1.514,1.514,0,0,1-.4-.052c-.244-.1-.487-.19-.736-.269-.073-.035-.114-.072-.114-.114a.236.236,0,0,1,.057-.151,8.481,8.481,0,0,0,1.363-2.078,8.6,8.6,0,0,0,.622-1.508,21.954,21.954,0,0,0,.57-2.176c.036-.079.073-.135.13-.135Zm4.333,10.081c.187,0,.3.072.3.227v6.12c0,.146-.114.223-.3.223h-.741c-.187,0-.285-.078-.285-.223v-.813h-4.514v.813c0,.146-.093.223-.285.223H349.1c-.207,0-.306-.078-.306-.223v-6.048a.27.27,0,0,1,.306-.3Zm-1.026,4.435v-3.249h-4.514v3.249Zm-3.25-10.826a7.2,7.2,0,0,0,.928,1.757,2.012,2.012,0,0,0,.3.379c.114-.114.228-.249.342-.358a11.286,11.286,0,0,0,1.534-2.985H351A7.177,7.177,0,0,0,351.39,2210.631Z" transform="translate(-290.588 -2153.245)" fill="#72adb6"/>
      <path id="Path_759" data-name="Path 759" d="M349.648,2208.917c.15,0,.228.114.228.307v.58c0,.207-.078.307-.228.307h-5.991c-.15,0-.212-.1-.212-.307v-.58c0-.193.062-.307.212-.307Zm-.306,8.2c.192,0,.306.077.306.212v5.769c0,.144-.114.223-.306.223h-.736c-.207,0-.3-.079-.3-.223v-.892H345v.958c0,.156-.114.228-.306.228h-.736c-.207,0-.3-.072-.3-.228v-5.758c0-.19.093-.29.3-.29Zm-.15-5.535c.15,0,.228.1.228.286v.606c0,.186-.078.286-.228.286h-4.856c-.15,0-.228-.1-.228-.286v-.606c0-.187.078-.286.228-.286Zm0,2.648c.15,0,.228.114.228.3v.59c0,.208-.078.295-.228.295h-4.856c-.15,0-.228-.086-.228-.295v-.59c0-.187.078-.3.228-.3Zm-.073-7.6c.15,0,.223.113.223.3v.581c0,.193-.073.285-.223.285H344.47c-.155,0-.207-.092-.207-.285v-.581c0-.191.052-.3.207-.3Zm-.814,14.4v-2.735H345v2.735Zm2.586-13.282c-.15,0-.228-.093-.228-.305v-.581c0-.191.078-.305.228-.305h7.618a1.123,1.123,0,0,1,.285.154,2.277,2.277,0,0,1,.3.664,21.774,21.774,0,0,0-.7,3.587,23.547,23.547,0,0,0-.187,2.985,41.082,41.082,0,0,0,.316,5.939c.212,1.167.4,1.736.57,1.736a.412.412,0,0,0,.394-.341,8.472,8.472,0,0,0,.477-2.023.267.267,0,0,1,.228-.149.174.174,0,0,1,.166.114,2.52,2.52,0,0,0,.606.488c.078.042.114.134.114.285a9.632,9.632,0,0,1-1.207,3.026.981.981,0,0,1-.777.452c-.358,0-.7-.416-1.021-1.246a11.548,11.548,0,0,1-.829-3.461,38.827,38.827,0,0,1-.285-4.819,31.13,31.13,0,0,1,.777-6.2h-3.9v5.742h2.083c.15,0,.223.12.223.306v.586c0,.207-.072.306-.223.306H353.84v8.479c0,.156-.093.228-.285.228h-.736a.2.2,0,0,1-.228-.228v-8.479h-1.928c-.145,0-.207-.1-.207-.306v-.586c0-.186.062-.306.207-.306h1.928v-5.742Z" transform="translate(-275.377 -2152.894)" fill="#72adb6"/>
      <path id="Path_760" data-name="Path 760" d="M353.563,2213.726c.093,0,.15.068.15.224v.585c0,.207-.057.3-.15.3h-3.255c-.223.626-.466,1.211-.715,1.777h3.156c.15,0,.228.076.228.208a28.006,28.006,0,0,1-.264,3.933,5.358,5.358,0,0,1-.684,2.114c-.264.492-.979.757-2.151.757-.834,0-1.249-.135-1.27-.378a3.138,3.138,0,0,0-.508-1.021v-.151a9.148,9.148,0,0,0,1.778.207,1.29,1.29,0,0,0,1.187-.472,4.086,4.086,0,0,0,.492-1.55,19.641,19.641,0,0,0,.264-2.55H349.1c-.15.343-.3.638-.451.944-.042.072-.057.093-.093.093-.85-.187-1.27-.3-1.27-.379a14.454,14.454,0,0,0,1.114-1.964,7.717,7.717,0,0,0,.622-1.569h-1.736c-.114,0-.15-.095-.15-.3v-.585c0-.156.036-.224.15-.224Zm-.736-6.352c.187,0,.3.076.3.227v4.572c0,.149-.114.228-.3.228h-4.5c-.207,0-.3-.079-.3-.228V2207.6c0-.151.093-.227.3-.227Zm-.964,1.113h-2.571v2.8h2.571Zm7.463-1.778c0,.172-.073.265-.187.286-.135.02-.192.149-.192.379v.45H363.6c.093,0,.156.077.156.228v.586c0,.186-.062.285-.156.285h-4.649v1.342H363.9c.187,0,.3.073.3.207v2.742c0,.15-.114.228-.3.228h-.741a.2.2,0,0,1-.228-.228v-1.854h-7.292v2.59l2.063-.377v-1.551a.194.194,0,0,1,.223-.212c.834.077,1.249.176,1.249.285s-.078.192-.228.307v.942l3.1-.565c.1,0,.15.078.15.208v.586c0,.206-.052.3-.15.3l-3.1.586v.814c0,.155.036.227.15.227h3.327c.249,0,.492-.419.736-1.248l1.119.664c-.435,1.192-.949,1.776-1.555,1.776h-4.063c-.637,0-.959-.264-.959-.813v-1.191l-2.063.377a24.271,24.271,0,0,1-.285,4.2,12.406,12.406,0,0,1-.715,2.627,7.01,7.01,0,0,1-.777,1.513.362.362,0,0,1-.187-.042,4.367,4.367,0,0,0-.7-.472.355.355,0,0,1-.078-.227,7.141,7.141,0,0,0,.814-1.793,14.933,14.933,0,0,0,.492-2.534,27.521,27.521,0,0,0,.171-3.343v-4.519c0-.134.073-.207.228-.207h3.021v-3.556c0-.149.093-.228.3-.228C358.855,2206.481,359.326,2206.56,359.326,2206.709Zm-.378,11.153c0,.134-.057.2-.15.223a.6.6,0,0,0-.207.514v.585a7.479,7.479,0,0,1-.135,1.234,2.9,2.9,0,0,1-.487,1.279,4.5,4.5,0,0,1-.948,1.021,7.605,7.605,0,0,1-1.379.829c-.073,0-.135-.057-.186-.145a5.434,5.434,0,0,0-.57-.5c-.093-.072-.135-.128-.135-.165a8.033,8.033,0,0,0,1.327-.741,3.586,3.586,0,0,0,.679-.695,3.078,3.078,0,0,0,.456-1.042,5.176,5.176,0,0,0,.109-1.078v-1.322c0-.15.021-.228.078-.228A8.683,8.683,0,0,1,358.948,2217.862Zm2.669-.077c0,.077-.078.191-.228.3v3.763c0,.151.036.228.15.228h1.187c.306,0,.591-.564.871-1.7l1.114.664q-.707,2.206-1.7,2.208H361.1c-.643,0-.964-.28-.964-.814v-4.722a.2.2,0,0,1,.228-.212C361.2,2217.578,361.617,2217.67,361.617,2217.785Z" transform="translate(-259.93 -2153.2)" fill="#72adb6"/>
      <path id="Path_761" data-name="Path 761" d="M366.751,2206.654c.135,0,.207.113.207.3v.581c0,.208-.073.307-.207.307h-7.085v.072l-.021,1.471h5.177c.187,0,.3.079.3.229v7.446c0,.149-.114.229-.3.229h-.736c-.207,0-.3-.079-.3-.229v-.508h-4.255a5.567,5.567,0,0,1-.187,1.007,4.285,4.285,0,0,1-.985,1.958,2.132,2.132,0,0,0-.187.227c.187.094.358.187.544.265a12.026,12.026,0,0,0,2.555.871,28.455,28.455,0,0,0,3.27.528,22.946,22.946,0,0,0,2.643.151.662.662,0,0,1-.15.321c-.135.3-.264.586-.378.865-.036.156-.078.229-.135.229-1.171-.088-2.187-.208-3.042-.316a22.125,22.125,0,0,1-2.685-.565,16.437,16.437,0,0,1-2.664-.983,4.845,4.845,0,0,1-.907-.514,7.557,7.557,0,0,1-.643.472,14.2,14.2,0,0,1-3.234,1.548,7.591,7.591,0,0,1-1.586.358.24.24,0,0,1-.228-.187,6.3,6.3,0,0,0-.529-.907c-.093-.037-.129-.073-.129-.093,0-.078.036-.1.114-.1a14.347,14.347,0,0,0,2.529-.565,8.131,8.131,0,0,0,2.135-1,3.115,3.115,0,0,0,.513-.321,9.372,9.372,0,0,1-1.456-1.778,5.8,5.8,0,0,1,1.171-.457,4.252,4.252,0,0,0,1.156,1.406l.016.014a.464.464,0,0,0,.155-.165,2.654,2.654,0,0,0,.715-1.327,4.054,4.054,0,0,0,.249-.944h-4.047v.508c0,.149-.114.229-.3.229h-.736c-.207,0-.306-.079-.306-.229V2209.7a.277.277,0,0,1,.306-.307H358.3l.015-.958v-.584h-7.084c-.15,0-.207-.1-.207-.307v-.581c0-.191.057-.3.207-.3Zm-8.484,5.762.021-1.85h-4.161v1.85Zm-.021,2.949.021-1.755h-4.141v1.755Zm1.342,0h4.2v-1.755H359.6Zm.016-2.949h4.182v-1.85h-4.162Z" transform="translate(-244.288 -2152.48)" fill="#72adb6"/>
      <path id="Path_762" data-name="Path 762" d="M358.4,2209.012v2.515h2.14c.093,0,.15.076.15.227v.586c0,.206-.057.3-.15.3h-2.026a13.279,13.279,0,0,0,.72,1.9,10.132,10.132,0,0,0,1.472,2.264.225.225,0,0,1,.114.188.246.246,0,0,1-.114.156,4.307,4.307,0,0,1-.508.522.292.292,0,0,1-.187.135.28.28,0,0,1-.207-.135,9.906,9.906,0,0,1-1.27-2.15,3.134,3.134,0,0,1-.135-.342v8.462c0,.156-.109.228-.3.228h-.736a.2.2,0,0,1-.228-.228v-7.478c-.187.581-.378,1.114-.565,1.586a14,14,0,0,1-.985,2.057.343.343,0,0,1-.285-.088c-.259-.12-.508-.228-.752-.342-.1,0-.135-.021-.135-.093a14.383,14.383,0,0,0,1.249-2.385,14.869,14.869,0,0,0,.757-2.135c.129-.45.3-1.15.487-2.119h-2.135c-.114,0-.15-.095-.15-.3v-.586c0-.151.036-.227.15-.227h2.363v-2.079a7.217,7.217,0,0,1-1.907.249.309.309,0,0,1-.342-.249,5,5,0,0,0-.414-.715c0-.156.042-.228.15-.228a8.919,8.919,0,0,0,2.778-.3,4.168,4.168,0,0,0,2.306-1.436.335.335,0,0,1,.249-.12.793.793,0,0,1,.223.135,5.822,5.822,0,0,1,.72.833c0,.208-.057.3-.13.3l-.529-.068A5.946,5.946,0,0,1,358.4,2209.012Zm4.048,11.453a.283.283,0,0,1-.135.228c-.166.057-.259.13-.28.208a7.553,7.553,0,0,1-.508,1.741c-.135.224-.29.493-.456.757a.461.461,0,0,1-.171.093,6.742,6.742,0,0,0-.964-.227c-.093-.021-.13-.053-.13-.13.259-.363.508-.741.736-1.134a6.147,6.147,0,0,0,.508-1.777c0-.074.078-.137.228-.137C362.055,2220.258,362.449,2220.393,362.449,2220.465Zm7.9-6.427c.192,0,.306.079.306.229v1.829h1.036c.078,0,.135.079.135.228v.591c0,.151-.057.229-.135.229h-1.036v1.771c0,.154-.114.228-.306.228h-8.106c-.114,0-.15-.074-.15-.228v-.585c0-.151.036-.229.15-.229H369.4v-.957H361.35c-.114,0-.145-.079-.145-.229v-.591c0-.149.031-.228.145-.228H369.4v-1.015h-7.162c-.114,0-.15-.077-.15-.228v-.586c0-.149.036-.229.15-.229Zm-6.556-4.875c.13.227.244.44.358.662,0,.058-.28.156-.829.3h2.949c-.057-.129-.135-.3-.228-.493a5.668,5.668,0,0,0-.549-.751c0-.077.3-.286.943-.607.228.3.435.586.606.835.135.228.244.472.358.714,0,.058-.28.156-.85.3h2.985l-.736-.43a5.18,5.18,0,0,0,.684-.762,5.059,5.059,0,0,0,.435-.809c.015-.042.072-.058.145-.058l1.042.607a.357.357,0,0,1,.135.207c0,.036-.057.053-.135.053-.15.025-.223.056-.244.1a7.919,7.919,0,0,1-.943,1.094h1.244c.093,0,.15.078.15.229v.586c0,.155-.057.227-.15.227H367.1v.886h4.441c.093,0,.15.079.15.208v.607c0,.155-.057.207-.15.207H361.428c-.114,0-.15-.052-.15-.207v-.607c0-.129.036-.208.15-.208h4.426v-.886h-4.068c-.114,0-.15-.072-.15-.227v-.586c0-.151.036-.229.15-.229h1.233a4.22,4.22,0,0,0-.228-.414,5.97,5.97,0,0,0-.549-.7c0-.077.3-.265.943-.586C363.413,2208.7,363.62,2208.935,363.791,2209.163Zm2.742-1a39.977,39.977,0,0,1-4.084.188.227.227,0,0,1-.249-.187,3.74,3.74,0,0,0-.337-.62c0-.131.036-.208.15-.208a44.108,44.108,0,0,0,4.519-.151,14.95,14.95,0,0,0,3.742-.685,1.194,1.194,0,0,1,.378-.056.458.458,0,0,1,.207.121,5.408,5.408,0,0,1,.607.771c0,.151-.057.208-.156.208l-.43-.079A24.8,24.8,0,0,1,366.533,2208.161Zm-2.063,11.532c.135.021.207.052.207.109,0,.139-.036.208-.114.228s-.114.1-.114.207v1.627c0,.493.327.737.969.737h2.208c.606,0,.964-.052,1.078-.172.15-.072.321-.393.549-1a2.107,2.107,0,0,0,.715.644c.156.035.249.128.249.242-.321.679-.57,1.078-.736,1.151a1.607,1.607,0,0,1-1.042.243h-3.177c-1.342,0-2-.394-2-1.187v-2.8c0-.092.036-.149.15-.149Zm2.742.644c.264.3.508.564.7.792,0,.021-.036.056-.078.135-.337.451-.508.673-.508.673-.3-.373-.622-.729-.943-1.071a5.043,5.043,0,0,0-.684-.551,3.21,3.21,0,0,1,.477-.642c.036-.058.073-.093.109-.093A11.5,11.5,0,0,1,367.212,2220.337Zm4.1.335c.306.342.591.644.814.907l-.073.114c-.342.451-.513.7-.513.7a12.72,12.72,0,0,0-1.135-1.172,4.558,4.558,0,0,0-.793-.6,3.024,3.024,0,0,1,.529-.7.19.19,0,0,1,.135-.119A12.552,12.552,0,0,1,371.311,2220.672Z" transform="translate(-229.486 -2153.367)" fill="#72adb6"/>
      <path id="Path_763" data-name="Path 763" d="M372.132,2212.022c.156,0,.228.114.228.3v.586c0,.207-.073.306-.228.306h-4.721v3.4h4.364c.15,0,.228.1.228.285v.6c0,.192-.078.286-.228.286h-4.364v3.727c.15.036.3.051.451.072.7.076,1.892.113,3.555.113.679,0,1.949-.072,3.835-.222a.346.346,0,0,1-.114.264,5.264,5.264,0,0,0-.321,1.021c-.016.165-.073.259-.166.259h-2.819a25.756,25.756,0,0,1-4.8-.321,9.188,9.188,0,0,1-2.005-.644,3.959,3.959,0,0,1-1.15-.751,4.178,4.178,0,0,1-1-1.1,1.879,1.879,0,0,1-.265-.362,6.188,6.188,0,0,1-.363.74,8.15,8.15,0,0,1-3.021,2.741.435.435,0,0,1-.342-.149l-.622-.622c-.114-.119-.156-.192-.156-.27,0-.114.078-.165.228-.207a7.124,7.124,0,0,0,1.721-1.114,6.428,6.428,0,0,0,1.114-1.306,10.248,10.248,0,0,0,.627-1.571,13.7,13.7,0,0,0,.3-2.57c0-.207.114-.316.378-.316l1.342.336c.129.077.207.171.207.265,0,.151-.093.248-.285.27a.585.585,0,0,0-.244.394,12.927,12.927,0,0,1-.342,1.829,5.186,5.186,0,0,0,.741,1.306,2.623,2.623,0,0,0,1,.949,3.549,3.549,0,0,0,1.187.6v-7.936h-4.721c-.156,0-.228-.1-.228-.306v-.586c0-.187.073-.3.228-.3Zm-4.271-5.312c0,.172-.072.265-.186.286-.135.02-.192.149-.192.379v1.418h6.882c.187,0,.285.072.285.2v3.84c0,.151-.1.228-.285.228h-.741c-.207,0-.3-.077-.3-.228v-2.876H360.036v2.876c0,.151-.114.228-.3.228H359c-.187,0-.285-.077-.285-.228v-3.763a.251.251,0,0,1,.285-.28h7.085v-2.083c0-.149.1-.228.306-.228C367.369,2206.481,367.861,2206.56,367.861,2206.709Z" transform="translate(-214.044 -2153.2)" fill="#72adb6"/>
    </g>
  </g>
</svg>
