<?xml version="1.0" encoding="utf-8"?>
<!-- Generator: Adobe Illustrator 22.1.0, SVG Export Plug-In . SVG Version: 6.00 Build 0)  -->
<svg version="1.1" id="圖層_1" xmlns="http://www.w3.org/2000/svg" xmlns:xlink="http://www.w3.org/1999/xlink" x="0px" y="0px"
	 viewBox="0 0 240 240" style="enable-background:new 0 0 240 240;" xml:space="preserve">
<style type="text/css">
	.st0{fill:#FFFFFF;}
	.st1{fill:#72ADB6;}
</style>
<g id="section7_imgicon1" transform="translate(-4084 -13178.877)">
	<g id="字" transform="translate(4084.34 13021.427)">
		<circle id="Ellipse_343" class="st0" cx="119.7" cy="277.5" r="119"/>
		<g id="Group_6276" transform="translate(261.01 187.682)">
			<path id="Path_41525" class="st1" d="M-187.6,23.2c-1.9,1.8-4.6,2.7-8,2.7h-5.9V2.5h5.8c2.9-0.2,5.8,0.9,8,2.9
				c2.1,2.1,3.2,5.1,3.2,8.9C-184.5,18.2-185.6,21.2-187.6,23.2z M-196,6.6h-1.7v15.2h2.8c4.2,0,6.3-2.5,6.3-7.5
				C-188.6,9.2-191,6.6-196,6.6L-196,6.6z"/>
			<path id="Path_41526" class="st1" d="M-173.5,26l0-1.1c-0.8,0.9-1.9,1.4-3.1,1.4c-1.6,0.1-3.2-0.6-4.1-1.9
				c-1-1.5-1.4-3.2-1.3-4.9V9.7h3.6v10.5c0,1.6,0.7,2.4,2.2,2.4c0.8,0,1.5-0.3,1.9-1c0.5-0.7,0.7-1.5,0.7-2.4V9.7h3.6v11.9
				c0,1.5,0.2,3,0.4,4.4L-173.5,26z"/>
			<path id="Path_41527" class="st1" d="M-161.6,13c-0.6,0-1.2,0.4-1.5,1c-0.3,0.6-0.5,1.3-0.5,2v9.9h-3.5V14c0-0.8-0.1-2.3-0.4-4.4
				h3.6v1.1c0.5-0.8,1.4-1.4,2.3-1.4c0.6,0,1.2,0.1,1.8,0.4v4C-160.2,13.2-160.9,13.1-161.6,13z"/>
			<path id="Path_41528" class="st1" d="M-144.9,14.1v7c0.1,1.6-0.1,3.3-0.4,4.9c-0.4,1.4-1.3,2.5-2.5,3.3c-1.1,0.7-2.4,1.1-3.7,1.1
				c-3.9,0-5.9-1.8-6.1-5.2h3.5c0.2,0.9,1.1,1.4,2.7,1.4c0.8,0,1.5-0.3,2-0.8c0.6-0.6,0.9-1.4,1-2.2c-0.9,0.8-2,1.2-3.2,1.2
				c-1.8,0.1-3.6-0.7-4.7-2.1c-1.3-1.5-1.9-3.5-1.8-5.4c-0.1-2.1,0.5-4.1,1.7-5.8c1.1-1.5,2.9-2.3,4.8-2.2c1.3,0,2.5,0.6,3.3,1.6
				l0-1.1h3.7C-144.9,12-144.9,13.5-144.9,14.1z M-149.3,14.1c-0.5-0.7-1.4-1.2-2.3-1.1c-0.9,0-1.8,0.4-2.3,1.2
				c-0.6,0.9-0.8,1.9-0.8,2.9c0,1,0.2,2,0.8,2.8c0.5,0.7,1.4,1.1,2.3,1c2,0,3.1-1.3,3.1-3.9C-148.5,16-148.8,15-149.3,14.1
				L-149.3,14.1z"/>
			<path id="Path_41529" class="st1" d="M-130.5,24c-1.2,1.6-3.1,2.5-5.1,2.4c-2,0.1-3.9-0.9-5.1-2.5c-1.3-1.8-2-3.9-1.9-6.1
				c-0.1-2.2,0.6-4.4,1.9-6.2c1.2-1.6,3.1-2.5,5.1-2.4c2,0,3.9,0.9,5.1,2.5C-127.9,15.4-127.9,20.3-130.5,24z M-133.1,14.6
				c-0.5-0.9-1.4-1.5-2.5-1.5c-1,0-2,0.5-2.5,1.4c-0.6,1-0.9,2.2-0.9,3.4c0,1.1,0.2,2.3,0.8,3.3c0.5,0.9,1.5,1.5,2.5,1.4
				c1,0,2-0.5,2.5-1.4c0.6-1,0.9-2.1,0.8-3.3C-132.2,16.7-132.5,15.5-133.1,14.6L-133.1,14.6z"/>
			<path id="Path_41530" class="st1" d="M-124.1,5.3V1h2.7v4.3h1.8v3.1h-1.8v4.4c0.5-0.2,1-0.5,1.5-0.7l0.4,2.7
				c-0.6,0.4-1.3,0.8-1.9,1.2v6.9c0.1,1.1-0.1,2.1-0.6,3.1c-0.6,0.7-1.5,1-2.4,0.9c-0.6,0-1.2-0.1-1.8-0.2l-0.5-3.2
				c0.6,0.2,1.3,0.3,1.9,0.3c0.2,0,0.5-0.1,0.5-0.3c0.1-0.5,0.1-1,0.1-1.4v-4.8c-0.5,0.3-1.1,0.5-1.6,0.7l-1-3.2
				c0.9-0.3,1.8-0.6,2.6-0.9V8.4h-2.4V5.3L-124.1,5.3z M-112.8,1v11.4c0,2.9-0.4,5.9-1.1,8.7c-0.5,2.1-1.4,4.1-2.6,5.9l-2.4-2.2
				c1.1-1.6,1.9-3.4,2.5-5.3c-0.9,0.4-1.9,0.8-2.9,1.1l-1-3.2c1.6-0.4,3.1-0.8,4.6-1.4c0.1-0.7,0.2-1.4,0.2-2.1h-3.4v-3.2h3.4V8.1
				h-3.5V4.9h3.5V1L-112.8,1z M-108.6,1v3.9h3.7v3.1h-3.7v2.7h3.7v3.2h-3.7v3.1h4.1v3.1h-4.1V27h-2.8V1L-108.6,1z"/>
			<path id="Path_41531" class="st1" d="M-93.5,6.8v2.5c-0.5,3.4-1.4,6.7-2.7,9.9c-0.9,2.3-2.5,4.3-4.5,5.8l-1.4-3.1
				c1.7-1.2,3-2.9,3.8-4.9c0.9-2.2,1.6-4.6,1.9-6.9h-5V6.8L-93.5,6.8z M-89.6,1v5.5c0.4,1.1,0.8,2.2,1.3,3.3
				c0.6-0.5,1.3-1.1,1.9-1.7c1.1-1.1,2-2.2,2.8-3.5l2.3,2.2c-0.9,1.4-2,2.7-3.1,3.9c-0.8,0.7-1.6,1.4-2.4,2.1
				c0.3,0.6,0.6,1.2,0.9,1.8c1.5,2.7,3.5,5.1,5.9,7l-1.6,3.6c-1.9-1.6-3.6-3.6-4.9-5.7c-1.2-1.9-2.2-3.9-3.1-6v9
				c0.1,1.2-0.1,2.3-0.6,3.4c-0.6,0.7-1.6,1.1-2.6,1c-1.2,0-2.4-0.2-3.5-0.5l-0.5-3.4c1.2,0.4,2.4,0.6,3.6,0.5
				c0.2,0,0.5-0.1,0.5-0.4c0.1-0.5,0.2-1,0.1-1.5V1L-89.6,1z"/>
			<path id="Path_41532" class="st1" d="M-183.1,46.7V56c0.9,1,2.2,1.6,3.5,1.8c2.5,0.3,4.9,0.4,7.4,0.3c1.9,0,3.9-0.1,5.8-0.6
				c-0.5,1.2-1,2.4-1.2,3.7h-7.1c-2.1,0.1-4.2-0.2-6.2-0.7c-1.3-0.5-2.4-1.3-3.3-2.3c-0.9,1-1.8,2-2.8,3c-0.6-1.1-1.2-2.2-1.8-3.3
				c1-0.5,2-0.9,3-1.4v-6.8h-2.6v-3.1H-183.1z M-182.9,43.7l-1.8,2.6c-0.9-1.2-2-2.4-3.2-3.4l1.8-2.2
				C-185,41.5-183.9,42.5-182.9,43.7L-182.9,43.7z M-182.8,38.1l-1.8,2.6c-1-1.2-2-2.3-3.2-3.3l1.8-2.3
				C-184.9,36-183.8,37-182.8,38.1L-182.8,38.1z M-167.6,35.7v2.2c-1.2,1.3-2.6,2.4-4.1,3.4h4.2v11.9c0,2.3-1,3.5-3,3.5
				c-0.5,0-1.1,0-1.8-0.1l-0.5-3c0.7,0.2,1.5,0.3,2.3,0.3c0.3,0,0.5-0.4,0.5-1.3v-0.1h-3.2v4.1h-2.6v-4.1h-3.1v4.4h-2.6V41.3h4.4
				c-0.6-0.6-1.1-1.2-1.8-1.8l1.3-1h-3.7v-2.8L-167.6,35.7z M-175.9,45.6v-1.4h-3.1v1.4H-175.9z M-175.9,49.7v-1.4h-3.1v1.4H-175.9z
				 M-174.8,40.4c1-0.6,1.9-1.2,2.8-1.9h-4.4C-175.8,39.2-175.3,39.8-174.8,40.4L-174.8,40.4z M-170.1,45.6v-1.4h-3.2v1.4H-170.1z
				 M-170.1,49.7v-1.4h-3.2v1.4H-170.1z"/>
			<path id="Path_41533" class="st1" d="M-157.9,49.7l-1.6,1.5h2.2v-4.1h2.8v4.1h2.6l-1.6-1c0.6-0.9,1.2-1.8,1.6-2.8l2.4,0.9
				c-0.4,1-0.9,2-1.4,2.9h2.6V54h-4.8c1.9,1.1,3.6,2.2,5.2,3.2l-2,2.9c-1.5-1.3-3-2.5-4.6-3.8v4.8h-2.8v-5.3
				c-0.4,0.4-0.8,0.8-1.2,1.2c-1.4,1.1-2.8,2.1-4.4,2.9l-1.2-2.7c1.3-0.6,2.5-1.3,3.6-2.1c0.5-0.4,1-0.8,1.5-1.3h-4.4v-2.8h2.7
				c-0.4-0.6-0.9-1.3-1.4-1.9l2.3-1.9C-159.2,48.1-158.5,48.9-157.9,49.7z M-158.4,36.1c-0.1,0.3-0.2,0.7-0.3,1h15.2v2.8h-16.3
				c-0.1,0.3-0.2,0.6-0.4,0.8h14.7v2.6h-14.8v-2.4c-0.4,0.8-0.8,1.6-1.3,2.3l-2.3-2c0.7-0.9,1.2-1.9,1.7-2.9c0.5-1,0.9-2,1.2-3.1
				L-158.4,36.1z M-145.5,43.9c0,5.6,0.1,9.7,0.2,12.2c0.1,1.2,0.2,1.8,0.3,1.8c0,0,0.1-0.1,0.1-0.3c0.1-1,0.2-2,0.3-3l2.4,1.1
				c-0.4,2.4-0.9,3.9-1.5,4.6c-0.3,0.4-0.7,0.6-1.2,0.7c-0.9,0-1.6-0.8-2.1-2.4c-0.7-2.3-1-6.3-1.1-11.9h-14v-2.8H-145.5z"/>
			<path id="Path_41534" class="st1" d="M-132,56.1c-1.8,1.7-3.9,3-6.2,4.1l-1.3-3c2.1-0.9,4.1-2.2,5.8-3.7L-132,56.1z M-120.4,38.4
				c-3,0.5-6,0.9-9.1,1.1c-1,1.7-1.9,3.2-2.7,4.5c0.7,0.5,1.3,0.9,1.9,1.3c1.5-1.8,2.8-3.6,4.1-5.6l3,1.6c-2,2.8-4,5.2-5.8,7.3
				c2.1-0.1,4-0.2,5.8-0.3c-0.4-0.7-0.8-1.4-1.3-2l2.5-1.8c1.4,2.1,2.7,4.3,3.6,6.6l-2.6,1.8c-0.2-0.6-0.5-1.3-0.8-1.9
				c-1.9,0.2-3.8,0.4-5.8,0.5v9.7h-2.8v-9.4c-2.6,0.2-5.4,0.4-8.2,0.5l-0.5-3.3c2-0.1,3.9-0.1,5.7-0.3c0.3-0.3,0.6-0.6,0.9-0.9
				c-1.7-1.2-3.5-2.5-5.3-3.7l1.7-2.5c0.5,0.3,0.9,0.6,1.4,0.8c0.6-0.9,1.1-1.8,1.6-2.7c-1.5,0.1-3,0.1-4.6,0.2l-0.9-3.1
				c5.6,0,11.3-0.4,16.8-1.3L-120.4,38.4z M-121.3,55.5c0.9,0.6,1.9,1.1,3,1.5l-1.6,3.3c-1-0.5-2-1.1-3-1.8
				c-1.2-0.9-2.2-1.8-3.2-2.9l1.8-2.4C-123.4,54.1-122.4,54.8-121.3,55.5L-121.3,55.5z"/>
			<path id="Path_41535" class="st1" d="M-112.3,52.3c-0.3,2.7-0.7,5-1,6.8l-2.5-0.9c0.4-2.2,0.7-4.5,0.9-6.7L-112.3,52.3z
				 M-109,36.5c-0.9,2-1.8,3.8-2.5,5.3c0.2,0.2,0.5,0.3,0.7,0.5c0.6-1.2,1.1-2.4,1.5-3.5l2.6,1.4c-1.2,2.6-2.4,4.9-3.5,6.9
				c0.4-0.1,0.9-0.1,1.3-0.1c-0.1-0.5-0.2-1-0.3-1.4l2.3-0.7c0.5,1.7,0.9,3.5,1.1,5.3l-2.5,0.8c-0.1-0.4-0.1-0.8-0.1-1.2
				c-0.3,0.1-0.6,0.1-0.9,0.1v11.5h-2.7V50.1c-1,0.1-2,0.2-3,0.3l-0.5-3c0.7,0,1.4-0.1,2-0.1c0.4-0.7,0.9-1.5,1.2-2.2
				c-1.1-0.9-2.3-1.9-3.4-2.9l1.5-2.2c0.1,0.1,0.2,0.2,0.3,0.3c0.9-1.6,1.6-3.3,2.2-5L-109,36.5z M-105.8,56.7l-2.6,0.8
				c-0.1-1.9-0.4-3.8-0.8-5.7l2.4-0.7C-106.3,52.9-106,54.8-105.8,56.7L-105.8,56.7z M-98.5,35.4v2.8h4.7v3h-6.2
				c-0.2,0.7-0.4,1.5-0.7,2.3c-0.3,0.7-0.5,1.4-0.8,2c1.4-0.1,2.8-0.3,4-0.5c-0.3-0.8-0.5-1.4-0.8-2.1l2.6-0.9
				c1,2.2,1.8,4.5,2.3,6.8l-2.8,1c-0.1-0.7-0.3-1.4-0.4-2.1c-0.2,0-0.3,0.1-0.5,0.1v8.9c0,0.6,0.1,0.9,0.1,1
				c0.1,0.1,0.2,0.1,0.4,0.1c0.4,0,0.7-0.1,0.8-0.3c0.1-0.4,0.2-0.8,0.2-1.3c0.1-0.4,0.1-1.1,0.2-2l2.3,1.6c-0.2,2.5-0.6,3.9-1,4.4
				c-0.1,0.3-0.4,0.4-0.9,0.5c-0.5,0.1-1,0.2-1.5,0.1c-0.6,0-1.2-0.1-1.7-0.3c-1-0.2-1.5-1.3-1.5-3.3v-9.1c-0.5,0.1-0.9,0.1-1.4,0.2
				c-0.1,4.4-0.4,7.3-1.1,8.7c-0.7,1.6-1.7,3-3.1,4.1l-1.5-2.8c1-0.9,1.7-2,2.2-3.3c0.6-2.1,0.8-4.2,0.8-6.4
				c-0.6,0.1-1.1,0.1-1.7,0.2l-0.5-3.2c0.5,0,1.1-0.1,1.6-0.1c0.3-0.7,0.7-1.5,1-2.5c0.3-0.8,0.5-1.4,0.7-2.1h-3.4v-3h4.8v-2.8
				L-98.5,35.4z"/>
		</g>
		<rect id="Rectangle_77" x="33.4" y="260.3" class="st1" width="172.5" height="1.8"/>
		<g id="Group_6277" transform="translate(235.095 274.338)">
			<path id="Path_41536" class="st1" d="M-197.9,10.1c0.2,0,0.3,0.1,0.3,0.2v4.1c0,0.3,0.1,0.6,0.2,0.9c0.1,0.2,0.2,0.4,0.4,0.5
				c0.3,0.2,0.6,0.3,0.9,0.3c0.5,0.1,1,0.1,1.5,0.1h4.1c1.9,0,3.8-0.2,5.7-0.5c0.1,0,0.2-0.1,0.3-0.1c0.1,0,0.2,0,0.2,0.1
				c-0.2,0.5-0.3,1-0.3,1.5c0,0.2-0.1,0.3-0.3,0.3h-9.6c-0.4,0-0.8,0-1.2-0.1c-0.4-0.1-0.8-0.2-1.1-0.3c-0.3-0.1-0.6-0.3-0.9-0.5
				c-0.3-0.3-0.5-0.6-0.6-0.9l0-0.1c-0.1,0-0.1,0-0.1,0c-0.7,0.5-1.4,1.2-1.9,2c0,0.1-0.1,0.1-0.1,0.1c-0.1,0-0.3-0.3-0.7-0.9
				c-0.1-0.1-0.1-0.2-0.1-0.4c0.9-0.5,1.8-1.1,2.5-1.8c0.1-0.1,0.1-0.3,0.1-0.4v-3.2h-2.2c-0.1,0-0.2-0.1-0.2-0.3v-0.6
				c0-0.2,0.1-0.3,0.2-0.3L-197.9,10.1z M-199,6.2c0.5,0.4,0.9,0.7,1.2,1c0,0.1-0.1,0.1-0.1,0.1c-0.4,0.5-0.6,0.8-0.6,0.8
				c-0.5-0.5-1.1-0.9-1.7-1.3c-0.4-0.3-0.8-0.5-1.2-0.7c0.2-0.3,0.3-0.6,0.6-0.8c0.1-0.1,0.1-0.1,0.1-0.1
				C-199.9,5.6-199.4,5.9-199,6.2L-199,6.2z M-198.4,2.2c0.4,0.3,0.8,0.6,1.2,0.9c0,0,0,0.1-0.1,0.1l-0.6,0.8
				c-0.5-0.4-1-0.8-1.6-1.1c-0.4-0.2-0.7-0.4-1.1-0.6c0.2-0.3,0.3-0.6,0.6-0.8c0.1-0.1,0.1-0.1,0.1-0.1
				C-199.2,1.7-198.8,1.9-198.4,2.2L-198.4,2.2z M-187.6,2.4c-0.7,0.2-1.4,0.3-2.1,0.4c-0.3,0-0.5,0.1-0.8,0.1v1.4h4.3
				c0.1,0,0.2,0.1,0.2,0.3v0.6c0,0.2-0.1,0.3-0.2,0.3h-3.8c0.2,0.2,0.5,0.4,0.7,0.6c0.5,0.4,1,0.7,1.5,0.9c0.8,0.4,1.7,0.7,2.5,0.9
				c0.1,0,0.2,0.1,0.2,0.1c0,0.1,0,0.2-0.1,0.2c-0.3,0.2-0.5,0.4-0.7,0.6c-0.1,0.1-0.1,0.1-0.2,0.1c-1.4-0.3-2.7-1-3.8-1.8
				c-0.3-0.2-0.5-0.4-0.8-0.6V9h2.3c0.1,0,0.2,0,0.3,0.1c0.2,0.2,0.3,0.3,0.3,0.4l-1.4,1.6h2.9c0.1,0,0.1,0.1,0.1,0.3
				c0,0.8-0.1,1.6-0.3,2.4c-0.1,0.5-0.4,0.9-0.7,1.3c-0.3,0.3-1.1,0.5-2.3,0.5c-0.6,0-1-0.1-1-0.3c-0.1-0.3-0.2-0.6-0.4-0.8v-0.1
				c0.5,0,0.9,0.1,1.4,0.1c0.5,0.1,1,0,1.4-0.3c0.3-0.2,0.5-0.5,0.6-0.9c0.1-0.3,0.2-0.7,0.3-1h-2.9l-0.4,0.5
				c-0.1,0.1-0.1,0.1-0.2,0.1c-0.7-0.1-1-0.3-1-0.4l2-2.3h-3c0,0.7-0.1,1.4-0.2,2.1c-0.1,0.6-0.3,1.2-0.6,1.7
				c-0.3,0.4-0.6,0.7-0.9,0.9c-0.4,0.3-0.8,0.5-1.2,0.7c-0.3-0.3-0.6-0.6-0.8-0.9c0.3-0.1,0.6-0.3,0.8-0.5c0.3-0.2,0.7-0.5,0.9-0.8
				c0.3-0.4,0.5-0.9,0.6-1.4c0.1-0.6,0.2-1.2,0.2-1.8h-1.3c-0.1,0-0.2-0.1-0.2-0.3V9.2c0-0.2,0.1-0.2,0.2-0.2h3.2V6.4
				c-0.1,0.1-0.1,0.1-0.2,0.1c-0.4,0.4-0.9,0.8-1.4,1.1c-0.6,0.4-1.2,0.7-1.8,1c-0.4,0.2-0.9,0.4-1.4,0.5c-0.1,0-0.2-0.1-0.2-0.2
				c-0.2-0.2-0.4-0.4-0.6-0.6c-0.1-0.1-0.1-0.1-0.1-0.2c0.8-0.2,1.5-0.4,2.2-0.7c0.6-0.3,1.3-0.6,1.8-1c0.3-0.3,0.7-0.5,1-0.8h-3.8
				c-0.1,0-0.2-0.1-0.2-0.3V4.6c0-0.2,0.1-0.3,0.2-0.3h4.3V3c-0.2,0-0.4,0.1-0.6,0.1c-1,0.1-1.8,0.1-2.6,0.1c-0.2,0-0.3-0.1-0.3-0.2
				c-0.2-0.2-0.3-0.4-0.5-0.7c0-0.1,0.1-0.2,0.2-0.2c0,0,0,0,0,0l1,0.1c1,0,1.9,0,2.6-0.1c0.7,0,1.3-0.1,2-0.2
				c0.7-0.1,1.3-0.3,1.9-0.5c0.1,0,0.1,0,0.2,0c0.1,0,0.2,0,0.3,0.1c0.7,0.6,1,0.9,1,1.1c0,0.1-0.1,0.2-0.2,0.2c0,0,0,0,0,0
				l-0.5-0.1C-187.3,2.4-187.5,2.4-187.6,2.4L-187.6,2.4z"/>
			<path id="Path_41537" class="st1" d="M-178.5,9.5c0.2,0,0.4,0.1,0.4,0.2V14c0,0.2,0,0.5,0.1,0.9c0.2,0.5,0.5,0.9,0.9,1.2
				c0.7,0.4,1.4,0.6,2.2,0.5h5c0.4,0,1.2-0.1,2.3-0.2c0.8-0.1,1.5-0.2,2.2-0.3c0.1,0,0.1,0,0.2,0c0.1,0,0.1,0,0.1,0.1c0,0,0,0,0,0
				c-0.2,0.4-0.4,0.8-0.6,1.1c0,0.3-0.1,0.4-0.4,0.4h-9c-1.1,0.1-2.2-0.3-3.1-1c-0.4-0.4-0.7-0.9-1-1.5c-0.6,0.6-1.2,1.1-1.6,1.7
				c-0.3,0.1-0.4,0.3-0.5,0.6c0,0.2-0.1,0.3-0.1,0.3s-0.1-0.1-0.2-0.2l-0.9-1.3c0.9-0.4,1.8-1,2.6-1.7c0.2-0.1,0.4-0.4,0.3-0.6v-3.4
				h-2.2c-0.1,0-0.2-0.1-0.2-0.3V9.8c0-0.2,0.1-0.3,0.2-0.3L-178.5,9.5z M-179.5,6.1c0.5,0.3,0.9,0.7,1.3,0.9l-0.1,0.1
				c-0.2,0.3-0.4,0.5-0.6,0.8c-0.5-0.4-1.1-0.8-1.7-1.2c-0.4-0.2-0.8-0.4-1.2-0.6c0.2-0.3,0.3-0.6,0.6-0.8c0.1-0.1,0.1-0.1,0.1-0.1
				C-180.5,5.6-179.9,5.9-179.5,6.1z M-178.9,2.2c0.5,0.3,0.9,0.6,1.2,0.8c0,0.1,0,0.1-0.1,0.2c-0.4,0.5-0.6,0.8-0.6,0.8
				c-0.5-0.4-1.1-0.8-1.7-1.1c-0.4-0.2-0.8-0.4-1.2-0.6c0.2-0.3,0.3-0.6,0.6-0.8c0.1-0.1,0.1-0.1,0.1-0.1
				C-180,1.6-179.4,1.9-178.9,2.2L-178.9,2.2z M-167.9,1.6c0.2,0,0.3,0.1,0.3,0.2v5.5h1.4c0.2,0,0.4,0.1,0.4,0.2v7.2
				c0,0.3-0.2,0.5-0.7,0.7c-0.6,0.2-1.2,0.3-1.8,0.3c-0.1,0-0.2-0.1-0.2-0.2c-0.1-0.4-0.2-0.8-0.4-1.2c0,0,0-0.1,0.1-0.1
				c0.5,0,0.9,0,1.4-0.1c0.2,0,0.3-0.2,0.3-0.3V8.5h-8.3v6.8c0,0.2-0.1,0.2-0.3,0.2h-0.7c-0.2,0-0.3-0.1-0.3-0.2V7.6
				c0-0.1,0.1-0.2,0.3-0.2h1.2V1.9c0-0.2,0.1-0.2,0.3-0.2L-167.9,1.6z M-172.4,7.4V4.7c0-0.1,0.1-0.2,0.3-0.2h3.2V2.7h-5.1v4.7
				H-172.4z M-169.1,9.8c0.2,0,0.3,0.1,0.3,0.2v3.7c0,0.1-0.1,0.2-0.3,0.2h-4.6c-0.2,0-0.3-0.1-0.3-0.2v-3.7c0-0.1,0.1-0.2,0.3-0.2
				H-169.1z M-170.1,10.9h-2.6v1.9h2.6V10.9z M-168.9,7.4V5.5h-2.2v1.9H-168.9z"/>
			<path id="Path_41538" class="st1" d="M-147,2.3c0.1,0,0.2,0.1,0.2,0.2c0,0,0,0,0,0v0.7c0,0.2-0.1,0.3-0.2,0.3h-6.3v5h5.5
				c0.1,0,0.2,0.1,0.2,0.2c0,0,0,0,0,0v0.7c0,0.2-0.1,0.3-0.2,0.3h-5.5v6.1h7c0.1,0,0.2,0.1,0.2,0.2v0.7c0,0.2-0.1,0.3-0.2,0.3h-16
				c-0.1,0-0.2-0.1-0.2-0.3V16c0-0.1,0.1-0.2,0.2-0.2h2.8V7.1c0-0.1,0.1-0.2,0.3-0.2c1,0,1.4,0.1,1.4,0.2c0,0.2-0.1,0.3-0.2,0.3
				s-0.2,0.1-0.2,0.4v8.1h3.5V3.5h-6.9c-0.1,0-0.2-0.1-0.2-0.3V2.5c0-0.1,0.1-0.2,0.2-0.2c0,0,0,0,0,0L-147,2.3z"/>
			<path id="Path_41539" class="st1" d="M-135.8,1.9c0,0.1-0.1,0.2-0.1,0.2c-0.2,0-0.3,0.1-0.3,0.1h5.8c0.1,0,0.2,0,0.3,0.1
				c0.3,0.2,0.4,0.3,0.4,0.4l-2.8,2.6h3.6c0.2,0,0.3,0.1,0.3,0.2V15c0,0.1-0.1,0.2-0.3,0.2h-2.2c0.5,0.3,1,0.6,1.5,0.8
				c0.9,0.4,1.9,0.7,2.8,0.9c0.1,0.1,0.2,0.1,0.2,0.2c0,0.1-0.3,0.4-0.8,1c-0.1,0-0.2,0-0.3,0c-1.8-0.6-3.6-1.4-5.2-2.4
				c-0.1-0.1-0.2-0.1-0.2-0.2s0.1-0.1,0.2-0.3h-3.7c0.3,0.2,0.5,0.4,0.7,0.7c0,0.1-0.1,0.1-0.2,0.1c-0.3,0-0.4,0-0.4,0.1
				c-1.7,0.8-3.5,1.5-5.4,2c-0.1,0-0.3,0-0.3-0.2c-0.1-0.2-0.2-0.4-0.4-0.5c-0.1-0.1-0.1-0.1-0.1-0.2c0-0.1,0.1-0.1,0.2-0.2
				c1-0.3,1.8-0.5,2.5-0.8c0.8-0.3,1.5-0.7,2.3-1.1h-2.4c-0.2,0-0.3-0.1-0.3-0.2V5.5c0-0.2,0.1-0.2,0.3-0.2h5.9l2.3-2.1h-5.4
				c-0.6,0.5-1.2,0.9-1.9,1.2c-0.6,0.3-1.5,0.8-2.8,1.3c-0.1,0-0.3-0.1-0.4-0.2c-0.2-0.1-0.3-0.3-0.5-0.4c-0.1,0-0.1-0.1-0.1-0.2
				c0.7-0.3,1.4-0.6,2.1-0.9c0.8-0.4,1.6-0.9,2.4-1.5c0.5-0.4,1-0.9,1.4-1.4c0-0.1,0-0.2,0.1-0.2C-136.3,1.5-135.8,1.8-135.8,1.9z
				 M-130,8.3V6.5h-9.2v1.8H-130z M-130,11.2V9.4h-9.2v1.8H-130z M-130,12.4h-9.2v1.7h9.2V12.4z"/>
			<path id="Path_41540" class="st1" d="M-121.6,8c0,1.4-0.1,2.8-0.2,4.1c-0.1,0.9-0.3,1.7-0.6,2.5c-0.2,0.5-0.4,1-0.7,1.5
				c-0.1,0-0.1,0-0.2,0c-0.2-0.2-0.4-0.3-0.7-0.5c-0.1-0.1-0.1-0.1-0.1-0.2c0.3-0.6,0.5-1.1,0.7-1.8c0.2-0.8,0.3-1.6,0.4-2.4
				c0.1-0.9,0.1-2,0.1-3.2V2.1c0-0.1,0.1-0.2,0.2-0.2c0,0,0,0,0.1,0h14.5c0.1,0,0.1,0.1,0.1,0.2v0.6c0,0.2-0.1,0.3-0.1,0.3h-13.5V8z
				 M-114.4,8.4c0.2,0,0.3,0.1,0.3,0.1V13c0,0.2-0.2,0.3-0.6,0.4c0,0-0.1,0-0.1,0h0.1c0.9,0,1.4,0.1,1.4,0.2c0,0.2-0.1,0.3-0.2,0.3
				c-0.1,0-0.2,0.2-0.2,0.4h5.3c0.1,0,0.1,0.1,0.1,0.2v0.6c0,0.1-0.1,0.2-0.1,0.2h-5.3v1.2h6.6c0.1,0,0.1,0.1,0.1,0.2v0.6
				c0,0.2-0.1,0.3-0.1,0.3h-14.8c-0.1,0-0.1-0.1-0.1-0.3v-0.6c0-0.1,0-0.2,0.1-0.2h7v-1.2h-5c-0.1,0-0.1-0.1-0.1-0.2v-0.6
				c0-0.1,0-0.2,0.1-0.2h5v-0.7c0-0.1,0-0.1,0.1-0.2c-0.4,0.1-0.9,0.1-1.3,0.1c-0.1,0-0.2-0.1-0.2-0.2c-0.1-0.3-0.2-0.6-0.3-0.9
				c0,0,0,0,0.1,0c0.4,0,0.8,0,1.2-0.1c0.1,0,0.2-0.1,0.2-0.2v-0.5h-4.3v1.5c0,0.2-0.1,0.2-0.3,0.2h-0.6c-0.2,0-0.3-0.1-0.3-0.2V8.6
				c0-0.1,0.1-0.1,0.3-0.1L-114.4,8.4z M-114.8,3.8c0.2,0,0.3,0.1,0.3,0.2v3.4c0,0.1-0.1,0.2-0.3,0.2h-5.2c-0.2,0-0.3-0.1-0.3-0.2V4
				c0-0.2,0.1-0.2,0.3-0.2H-114.8z M-115.2,9.8V9.2h-4.3v0.6H-115.2z M-115.2,11.1v-0.7h-4.3v0.7H-115.2z M-115.6,5.4V4.6h-3.5v0.8
				H-115.6z M-115.6,6h-3.5v0.8h3.5V6z M-111.5,6.4c0-0.7,0.1-1.6,0.1-2.5c0-0.2,0-0.4,0.1-0.4l1,0.1c0.2,0,0.3,0.1,0.3,0.2
				c0,0.2-0.1,0.3-0.2,0.3s-0.2,0.1-0.2,0.3c0,0.7-0.1,1.3-0.1,1.9h2.5c0.1,0,0.1,0.1,0.1,0.2v0.6c0,0.2-0.1,0.3-0.1,0.3h-2.4
				c0.2,0.7,0.5,1.4,0.8,2c0.3,0.6,0.6,1.2,1,1.8c0.3,0.4,0.6,0.7,1,1c0,0.1-0.1,0.1-0.2,0.2c-0.2,0.2-0.4,0.4-0.6,0.6
				c-0.1,0.1-0.1,0.1-0.2,0.1c-0.5-0.5-0.9-1-1.3-1.6c-0.4-0.6-0.7-1.3-0.9-2c-0.1-0.2-0.1-0.3-0.2-0.5c-0.1,0.7-0.4,1.4-0.6,2
				c-0.3,0.7-0.7,1.4-1.3,1.9c-0.1,0-0.2,0-0.3-0.1c-0.2-0.2-0.4-0.3-0.6-0.4c-0.1-0.1-0.2-0.1-0.2-0.2c0-0.1,0-0.2,0.1-0.2
				c0.5-0.5,0.8-1,1.1-1.6c0.3-0.6,0.5-1.3,0.7-1.9c0.1-0.3,0.1-0.8,0.2-1.2h-2c-0.1,0-0.1-0.1-0.1-0.3V6.6c0-0.1,0-0.2,0.1-0.2
				L-111.5,6.4z M-108.1,4.5c0.3,0.3,0.5,0.5,0.7,0.7c0,0,0,0-0.1,0.1C-107.8,5.8-108,6-108,6c-0.3-0.4-0.6-0.7-0.9-1
				c-0.3-0.2-0.5-0.4-0.6-0.5c0.1-0.2,0.3-0.4,0.4-0.6c0-0.1,0.1-0.1,0.1-0.1C-108.6,4.1-108.3,4.3-108.1,4.5L-108.1,4.5z"/>
			<path id="Path_41541" class="st1" d="M-101.5,5V2.5c0-0.3,0-0.5-0.1-0.8c0-0.1-0.1-0.2-0.1-0.4c0-0.1,0.1-0.1,0.4-0.1l1.5,0.2
				c0.1,0.1,0.2,0.1,0.2,0.2c0,0.1-0.1,0.2-0.2,0.2c-0.3,0.1-0.4,0.4-0.4,0.8V5h2.3c0.1,0,0.2,0.1,0.2,0.3v0.6
				c0,0.2-0.1,0.3-0.2,0.3h-2.3v4.1c0.8-0.4,1.5-0.8,2.3-1.2c0,0,0.1,0,0.1-0.1c0.1,0,0.1,0.1,0.1,0.1c0,0.3,0,0.7-0.1,1
				c-0.8,0.5-1.6,0.9-2.4,1.3v5.1c0,0.8-0.6,1.3-1.9,1.3h-1.1c-0.1,0-0.1-0.1-0.1-0.3c-0.1-0.3-0.2-0.6-0.3-0.8c0-0.1,0-0.1,0.1-0.1
				c0.4,0.1,0.9,0.1,1.3,0.1c0.5,0,0.8-0.2,0.8-0.7V12c-0.6,0.3-1.3,0.6-1.9,0.9c-0.2,0.3-0.3,0.5-0.4,0.5s-0.4-0.5-0.7-1.5
				c1-0.3,2-0.7,3-1.2V6.1h-2.4c-0.1,0-0.2-0.1-0.2-0.3V5.2c0-0.2,0.1-0.3,0.2-0.3L-101.5,5z M-93.1,4.1V1.5c0-0.2,0.1-0.2,0.3-0.2
				c0.9,0,1.4,0.1,1.4,0.2s-0.1,0.3-0.2,0.3s-0.2,0.1-0.2,0.4v1.9h3.8c0.1,0,0.2,0.1,0.2,0.3V5c0,0.2-0.1,0.3-0.2,0.3h-3.8v3h2.9
				c0.1,0,0.3,0,0.4,0.1c0.2,0.2,0.3,0.3,0.3,0.4c-0.2,0.8-0.4,1.6-0.6,2.3c-0.3,0.7-0.6,1.4-1.1,2c-0.3,0.5-0.7,1-1.1,1.4
				c-0.1,0.1-0.1,0.1-0.2,0.2c0.6,0.6,1.4,1,2.1,1.4c0.5,0.2,0.9,0.4,1.4,0.5c0.1,0.1,0.2,0.1,0.2,0.1c0,0.1,0,0.2-0.1,0.3
				c-0.2,0.2-0.4,0.4-0.5,0.7c0,0.1-0.1,0.1-0.2,0.1c-0.3-0.1-0.7-0.2-1-0.4c-1-0.5-2-1.1-2.9-1.9c-0.2,0.1-0.3,0.2-0.5,0.3
				c-0.6,0.4-1.2,0.7-1.8,1c-0.8,0.4-1.6,0.7-2.5,1c-0.1,0-0.3-0.1-0.3-0.2c-0.3-0.2-0.5-0.4-0.8-0.6c0,0-0.1-0.1-0.1-0.2
				c0-0.1,0-0.1,0.1-0.1c1-0.2,1.9-0.6,2.8-1c0.7-0.3,1.4-0.7,2.1-1.2l0.1-0.1c-0.6-0.7-1.1-1.4-1.5-2.2c-0.5-1-0.9-2-1.2-3.1h-0.9
				c-0.2,0-0.2-0.1-0.2-0.3V8.6c0-0.2,0.1-0.3,0.2-0.3h3.6v-3h-3.7C-96.9,5.2-97,5.1-97,5V4.4c0-0.2,0.1-0.3,0.2-0.3H-93.1z
				 M-93.6,11.8c0.4,0.8,0.9,1.5,1.5,2.1c0.2-0.2,0.4-0.4,0.5-0.6c0.4-0.5,0.8-1.1,1.2-1.8c0.3-0.7,0.5-1.4,0.7-2.1h-4.8
				C-94.3,10.2-94,11-93.6,11.8z"/>
			<path id="Path_41542" class="st1" d="M-80.2,6.7c0,0.2-0.1,0.3-0.3,0.4c-0.1,0.1-0.2,0.1-0.3,0.2c-0.4,0.6-0.7,1.2-1,1.7v8.8
				c0,0.1-0.1,0.2-0.3,0.2h-0.7c-0.2,0-0.3-0.1-0.3-0.2v-7.1c-0.3,0.4-0.7,0.8-1.2,1.2c-0.3-0.3-0.5-0.6-0.8-0.8
				c-0.1-0.1-0.1-0.2-0.1-0.2l0.1-0.1c0.9-0.7,1.6-1.5,2.2-2.4c0.6-0.8,1-1.6,1.4-2.5c0-0.1,0.1-0.1,0.1-0.1
				C-80.9,6-80.5,6.3-80.2,6.7z M-80.4,2.3c0.2,0.1,0.3,0.2,0.3,0.4s-0.1,0.2-0.2,0.2c-0.2,0-0.4,0.1-0.5,0.3
				c-0.9,1.3-2.1,2.5-3.3,3.4c-0.1,0-0.2-0.1-0.3-0.2C-84.6,6.2-84.8,6-85,5.8c-0.1-0.1-0.1-0.1-0.1-0.2c0-0.1,0-0.1,0.1-0.1
				c0.4-0.2,0.7-0.5,1-0.8c0.5-0.4,0.9-0.9,1.3-1.4c0.4-0.5,0.7-1,1-1.6c0.1-0.1,0.1-0.2,0.2-0.2L-80.4,2.3z M-78.1,8.2
				c0.1,0,0.2,0.1,0.2,0.2c0,0.1-0.1,0.2-0.1,0.3c-0.1,0.1-0.2,0.3-0.3,0.6c0.1,1.5,0,3-0.3,4.5c-0.2,0.7-0.4,1.4-0.7,2.1
				c0,0.1-0.1,0.2-0.4,0.2c-0.7-0.2-1-0.3-1-0.4c0.4-0.8,0.7-1.5,0.8-2.4c0.2-1.7,0.4-3.4,0.4-5.2c0-0.1,0.1-0.2,0.2-0.2L-78.1,8.2z
				 M-77.3,5V1.4c0-0.1,0.1-0.2,0.3-0.2c0.9,0,1.4,0.1,1.4,0.2c0,0.2-0.1,0.3-0.2,0.3c-0.1,0-0.2,0.1-0.2,0.4v3h2.4
				c0.1,0,0.2,0.1,0.2,0.3v0.6c0,0.2-0.1,0.3-0.2,0.3H-76v11.5c0,0.1-0.1,0.2-0.3,0.2H-77c-0.2,0-0.3-0.1-0.3-0.2V6.2h-2.2
				c-0.1,0-0.2-0.1-0.2-0.3V5.3c0-0.2,0.1-0.3,0.2-0.3H-77.3z M-74.3,2.1c0.4,0.6,0.8,1.1,1.1,1.7c0,0.2,0,0.3-0.1,0.3
				c-0.3,0.2-0.6,0.4-1,0.4c-0.3-0.7-0.6-1.3-1-1.9c0-0.1,0.3-0.3,0.8-0.6C-74.4,2.1-74.4,2.1-74.3,2.1L-74.3,2.1z M-73.5,8.3
				c0,0.1-0.1,0.2-0.2,0.3v5.6c0,0.1,0,0.2,0.1,0.2h0.4c0.2,0,0.3-0.6,0.5-1.7l1.1,0.6c-0.4,1.5-0.8,2.2-1.3,2.2h-1.1
				c-0.6,0-0.9-0.3-0.9-0.8V8.2c0-0.1,0.1-0.2,0.2-0.2C-74,8.1-73.5,8.2-73.5,8.3L-73.5,8.3z M-68.2,6.5c0.1,0,0.2,0.1,0.2,0.3v0.6
				c0,0.2-0.1,0.3-0.2,0.3h-1.2v9c0,0.9-0.8,1.4-2.2,1.4h-0.8c-0.1,0-0.1-0.1-0.1-0.4c-0.1-0.3-0.1-0.7-0.3-1v-0.1
				c0.4,0.1,0.8,0.1,1.1,0.1c0.7,0,1-0.2,1-0.6V7.6h-2c-0.1,0-0.2-0.1-0.2-0.3V6.8c0-0.2,0.1-0.3,0.2-0.3L-68.2,6.5z M-68.4,2.6
				c0.1,0,0.2,0.1,0.2,0.3v0.6c0,0.2-0.1,0.3-0.2,0.3h-3.9c-0.1,0-0.2-0.1-0.2-0.3V2.9c0-0.2,0.1-0.3,0.2-0.3H-68.4z"/>
			<path id="Path_41543" class="st1" d="M-56.5,10.9c-0.3,0.5-0.7,1-1.2,1.3l-0.5-0.5c0.7-0.5,1.2-1.3,1.2-2.1h-1.4V7.3h2.2v2
				C-56,9.9-56.2,10.4-56.5,10.9z"/>
			<path id="Path_41544" class="st1" d="M-44.2,17.8c0,0.1-0.1,0.2-0.3,0.2h-0.7c-0.2,0-0.3-0.1-0.3-0.2V2.1c0-0.1,0.1-0.2,0.3-0.2
				h4.8c0.1,0,0.3,0,0.4,0.1c0.3,0.2,0.4,0.4,0.4,0.5l-2,4.6c0,0.1-0.1,0.2-0.1,0.3c0,0.1,0.1,0.2,0.1,0.2c0.6,0.6,1,1.3,1.4,2
				c0.3,0.8,0.5,1.6,0.5,2.5c0,0.6-0.1,1.3-0.4,1.8c-0.2,0.5-0.7,0.9-1.2,1.1c-0.5,0.3-1.1,0.4-1.6,0.3c-0.3,0-0.4-0.1-0.4-0.3
				c0-0.3-0.1-0.6-0.3-0.9c0-0.1,0.1-0.1,0.2-0.1l0.8,0.1c0.5,0,1-0.2,1.3-0.6c0.3-0.4,0.4-0.9,0.4-1.4c0-0.7-0.2-1.3-0.4-2
				c-0.4-0.9-1-1.7-1.7-2.3C-43,7.7-43,7.6-43,7.5c0-0.1,0-0.2,0.1-0.3l2.1-4.3h-3.3L-44.2,17.8z M-33.5,1.6c0,0.2-0.1,0.3-0.2,0.3
				s-0.2,0.1-0.2,0.4v2.1h4.4c0.1,0,0.2,0.1,0.2,0.3v0.6c0,0.2-0.1,0.3-0.2,0.3h-6.2l0,0.1c0,1-0.1,1.9-0.1,2.6h5.4
				c0.1,0,0.2,0.1,0.2,0.3c0,2.5-0.1,4.3-0.3,5.4c-0.1,1-0.3,2-0.7,2.9c-0.3,0.7-1,1-2.2,1c-1.1,0-1.6-0.2-1.7-0.5
				c-0.1-0.4-0.4-0.8-0.6-1.2v-0.1c0.7,0.3,1.5,0.4,2.3,0.4c0.5,0.1,1-0.2,1.2-0.7c0.3-0.7,0.4-1.5,0.5-2.3c0.1-0.8,0.2-2.3,0.3-4.2
				h-4.5c-0.1,0.7-0.1,1.3-0.2,1.8c-0.2,1.3-0.6,2.5-1.2,3.7c-0.5,1-1.2,2-2,2.8c-0.1,0-0.3,0-0.4,0c-0.3-0.1-0.5-0.3-0.7-0.5
				c-0.1,0-0.2-0.1-0.2-0.2s0-0.1,0.1-0.2c1-0.8,1.7-1.8,2.2-3c0.5-1.2,0.9-2.5,1-3.8C-37.1,8.5-37,7-37,5.5h-2.3
				c-0.1,0-0.2-0.1-0.2-0.3V4.6c0-0.2,0.1-0.3,0.2-0.3h4.2V1.6c0-0.2,0.1-0.2,0.3-0.2C-34,1.4-33.5,1.4-33.5,1.6z"/>
			<path id="Path_41545" class="st1" d="M-191.6,27.3c0,0.2-0.1,0.3-0.2,0.3c-0.1,0-0.2,0.1-0.2,0.4v5.6h5.9c0.1,0,0.2,0.1,0.2,0.2
				v0.7c0,0.2-0.1,0.3-0.2,0.3h-5.9v6.9h6.8c0.1,0,0.2,0.1,0.2,0.2c0,0,0,0,0,0v0.7c0,0.2-0.1,0.3-0.2,0.3h-16
				c-0.1,0-0.2-0.1-0.2-0.3v-0.7c0-0.1,0.1-0.2,0.2-0.2h2.4V31c0-0.1,0.1-0.2,0.3-0.2c1,0,1.4,0.1,1.4,0.2c0,0.2-0.1,0.3-0.2,0.3
				s-0.2,0.1-0.2,0.4v10h4V27.3c0-0.2,0.1-0.2,0.3-0.2C-192.1,27-191.6,27.1-191.6,27.3z"/>
			<path id="Path_41546" class="st1" d="M-171.4,27.3c0,0.2-0.1,0.3-0.2,0.3c-0.1,0-0.2,0.1-0.2,0.4v0.8h6.2c0.1,0,0.2,0.1,0.2,0.3
				v0.6c0,0.2-0.1,0.3-0.2,0.3h-12.8V34c0,1.7-0.1,3.4-0.4,5c-0.2,1.1-0.6,2.1-1.1,3.1c-0.3,0.7-0.7,1.3-1.2,1.8c-0.1,0-0.1,0-0.2,0
				c-0.2-0.2-0.4-0.3-0.6-0.4c-0.1-0.1-0.1-0.1-0.1-0.2c0.6-0.6,1-1.4,1.3-2.2c0.4-1,0.7-2,0.8-3c0-0.2,0.1-0.4,0.1-0.6
				c-0.2,0.2-0.4,0.4-0.5,0.5c-0.3,0.2-0.5,0.5-0.9,0.7c-0.1,0.1-0.1,0.2-0.1,0.3c0,0.1,0,0.1-0.1,0.1c-0.4-0.3-0.7-0.6-1-1
				c-0.1,0-0.1-0.1-0.1-0.2c0,0,0-0.1,0.1-0.1c0.3-0.1,0.6-0.3,0.9-0.5c0.4-0.3,0.8-0.6,1.2-1c0.3-0.3,0.5-0.5,0.7-0.7
				c0-0.5,0-1.1,0-1.6v-0.4c-0.4-0.4-0.9-0.8-1.4-1.2c-0.4-0.3-0.7-0.5-1.1-0.8c0.2-0.3,0.4-0.5,0.6-0.8c0.1-0.1,0.1-0.1,0.1-0.1
				c0.5,0.3,1,0.7,1.5,1c0.1,0.1,0.2,0.2,0.3,0.2v-3c0-0.1,0.1-0.3,0.2-0.3c0,0,0,0,0.1,0h6.2v-1.4c0-0.2,0.1-0.2,0.3-0.2
				C-171.9,27-171.4,27.1-171.4,27.3z M-166.1,31.5c0.1,0,0.2,0.1,0.2,0.3v0.6c0,0.2-0.1,0.3-0.2,0.3h-5.1c0,0.6,0,1.2-0.1,1.7h4.4
				c0.2,0,0.4,0.1,0.4,0.3v8.2c0,0.3-0.3,0.6-0.8,0.8c-0.7,0.2-1.4,0.3-2.1,0.3c-0.1,0-0.2-0.1-0.2-0.2c-0.1-0.4-0.2-0.8-0.4-1.2
				c0,0,0.1-0.1,0.2-0.1c0.6,0,1.2,0,1.8-0.1c0.2-0.1,0.3-0.2,0.3-0.3v-1.8l-0.1,0.1c-0.2,0.2-0.4,0.4-0.5,0.6
				c-0.1,0.1-0.1,0.2-0.2,0.2c-0.1-0.1-0.3-0.1-0.4-0.3c-0.7-0.5-1.3-1-1.7-1.7c-0.4-0.5-0.6-1-0.8-1.5c-0.1-0.1-0.1-0.2-0.2-0.4
				c-0.1,0.5-0.3,0.9-0.6,1.4c-0.3,0.5-0.7,1-1.2,1.4c-0.5,0.4-1,0.8-1.6,1.1c-0.3-0.3-0.6-0.6-0.8-0.9v3.2c0,0.1-0.1,0.2-0.3,0.2
				h-0.7c-0.2,0-0.3-0.1-0.3-0.2v-8.9c0-0.1,0.1-0.3,0.2-0.3c0,0,0.1,0,0.1,0h4.3c0-0.5,0.1-1,0.1-1.7h-4.6c-0.1,0-0.2-0.1-0.2-0.3
				v-0.6c0-0.2,0.1-0.3,0.2-0.3L-166.1,31.5z M-174.8,39.5c0.5-0.4,0.9-0.8,1.2-1.4c0.4-0.7,0.7-1.5,0.8-2.4l0.1-0.3h-3.2v4.8
				C-175.5,40.1-175.1,39.8-174.8,39.5z M-171,36.5c0.2,0.4,0.4,0.8,0.6,1.2c0.3,0.5,0.7,1,1.2,1.4c0.4,0.4,0.9,0.7,1.4,0.8v-4.5
				h-3.5C-171.2,35.8-171.1,36.2-171,36.5L-171,36.5z"/>
			<path id="Path_41547" class="st1" d="M-154.8,28.5v-1.2c0-0.1,0.1-0.2,0.3-0.2c0.9,0,1.4,0.1,1.4,0.2s-0.1,0.3-0.1,0.3
				c-0.2,0-0.2,0.2-0.2,0.4v0.5h6.3c0.1,0,0.2,0.1,0.2,0.2v0.6c0,0.1-0.1,0.2-0.2,0.2c0,0,0,0-0.1,0h-6.3v1.2h5.6
				c0.1,0,0.2,0.1,0.2,0.2v0.6c0,0.1-0.1,0.2-0.2,0.2h-5.6v1.2h7.2c0.1,0,0.2,0.1,0.2,0.2v0.6c0,0.1-0.1,0.2-0.2,0.2h-16
				c-0.1,0-0.2-0.1-0.2-0.2v-0.6c0-0.1,0.1-0.2,0.2-0.2h7.5v-1.2h-5.9c-0.1,0-0.2-0.1-0.2-0.2V31c0-0.1,0.1-0.2,0.2-0.2h5.9v-1.2
				h-6.6c-0.1,0-0.2-0.1-0.2-0.2v-0.6c0-0.1,0.1-0.2,0.2-0.2L-154.8,28.5z M-148.5,35c0.2,0,0.3,0.1,0.3,0.3c0,1,0,1.9,0,2.7h2
				c0.1,0,0.2,0.1,0.2,0.2c0,0,0,0,0,0v0.7c0,0.1-0.1,0.2-0.2,0.2h-2c0,0.2-0.1,0.5-0.1,0.7c-0.1,0.4-0.1,0.8-0.1,1.2h1.8
				c0.1,0,0.2,0.1,0.2,0.2v0.6c0,0.1-0.1,0.2-0.2,0.2h-2c0,0.1-0.1,0.2-0.1,0.3c-0.1,0.5-0.3,0.9-0.7,1.2c-0.4,0.3-0.9,0.4-1.4,0.3
				c-0.5,0-0.9,0-1.4-0.1c-0.2,0-0.3-0.1-0.3-0.2c-0.1-0.3-0.2-0.7-0.3-1c0-0.1,0-0.2,0.1-0.2c0.6,0.1,1.3,0.2,1.9,0.2
				c0.2,0,0.5-0.1,0.7-0.2c0.1-0.1,0.2-0.3,0.2-0.4h-9.4c-0.1,0.3-0.1,0.5-0.2,0.8c0,0.1-0.1,0.2-0.2,0.2c-0.3-0.1-0.7-0.1-1-0.1
				c-0.2,0-0.3-0.1-0.3-0.1c0.2-0.5,0.3-1,0.5-1.5c0.2-0.7,0.4-1.5,0.5-2.2h-2.1c-0.1,0-0.2-0.1-0.2-0.2v-0.7c0-0.1,0.1-0.2,0.2-0.2
				h2.2c0.1-0.9,0.1-1.8,0.1-2.7c0-0.1,0.1-0.2,0.3-0.2L-148.5,35z M-149.7,39.8c0-0.2,0-0.5,0.1-0.8h-9.2c0,0.2-0.1,0.3-0.1,0.5
				c-0.1,0.5-0.2,1-0.3,1.4h5.6c-0.5-0.1-1-0.3-1.6-0.4c-0.6-0.2-1.1-0.2-1.5-0.3c0.2-0.3,0.4-0.6,0.6-0.8c0.1-0.1,0.1-0.1,0.2-0.1
				c0.9,0.2,1.5,0.3,2,0.5c0.6,0.2,1.1,0.3,1.5,0.5l-0.1,0.2c-0.2,0.3-0.4,0.5-0.4,0.6h3.1C-149.8,40.5-149.7,40.2-149.7,39.8
				L-149.7,39.8z M-153.5,38c-0.5-0.1-1-0.3-1.5-0.4c-0.6-0.1-1-0.2-1.4-0.3c0.2-0.3,0.4-0.6,0.6-0.8c0.1-0.1,0.1-0.1,0.2-0.1
				c0.8,0.2,1.4,0.3,1.9,0.4c0.6,0.2,1,0.3,1.4,0.5l-0.1,0.2c-0.2,0.3-0.4,0.5-0.4,0.6h3.3c0-0.5,0-1.2,0-1.9h-9.1
				c0,0.7-0.1,1.3-0.1,1.9L-153.5,38z"/>
			<path id="Path_41548" class="st1" d="M-133.6,37.7c-0.4-0.5-0.9-1.2-1.6-2c-0.6-0.7-1.2-1.3-1.9-1.9l0.8-1
				c1.4,1.2,2.6,2.4,3.8,3.8L-133.6,37.7z"/>
			<path id="Path_41549" class="st1" d="M-121.5,38c0,0.1-0.1,0.2-0.2,0.3c-0.1,0.1-0.2,0.2-0.2,0.4c-0.1,1.1-0.2,2.1-0.4,2.8
				c-0.1,0.4-0.2,0.8-0.4,1.2c-0.1,0.1-0.1,0.1-0.1,0.1c-0.3-0.1-0.7-0.2-1.1-0.3c-0.1,0-0.1-0.1-0.1-0.2c0.2-0.6,0.4-1.2,0.6-1.8
				c0.2-0.9,0.3-1.9,0.4-2.8c0-0.1,0.1-0.2,0.2-0.2C-121.9,37.7-121.5,37.9-121.5,38z M-118.7,27.6l0.1,0.2c0,0.1-0.1,0.2-0.3,0.2
				c-0.3,0-0.5,0.1-0.6,0.2c-0.7,1.1-1.3,2-1.9,2.9c0.4,0.4,0.8,0.8,1.3,1.2l0.1-0.1c0.7-0.9,1.3-1.8,1.7-2.5
				c0.5,0.3,0.9,0.7,1.3,1.2c0,0.1-0.1,0.1-0.2,0.1c-0.3,0-0.5,0.1-0.5,0.1c-1.1,1.5-2.1,2.9-3.1,4.1c0.8-0.1,1.8-0.2,2.9-0.3
				c-0.2-0.4-0.4-0.9-0.6-1.3c0-0.1,0.3-0.3,0.9-0.6c0.3,0.6,0.6,1.3,0.8,1.9c0.2,0.5,0.4,1.1,0.5,1.7c-0.3,0.2-0.7,0.3-1.1,0.4
				c-0.1-0.4-0.2-0.9-0.3-1.3l-1.9,0.4v7.3c0,0.1-0.1,0.2-0.3,0.2h-0.7c-0.2,0-0.3-0.1-0.3-0.2v-7l-2,0.4c-0.1,0.2-0.3,0.4-0.5,0.5
				c-0.2-0.6-0.3-1.1-0.4-1.7c0.4-0.1,0.8-0.2,1.3-0.2c0.7-0.9,1.3-1.6,1.8-2.3c-0.7-0.6-1.2-1-1.6-1.2c-0.5-0.3-1.1-0.6-1.7-0.9
				c0.2-0.4,0.5-0.7,0.8-1c0-0.1,0.1-0.1,0.2-0.1c0.2,0.1,0.4,0.3,0.6,0.5c0.4-0.5,0.7-1,1.1-1.5c0.5-0.8,0.9-1.5,1.1-1.9
				L-118.7,27.6z M-117.2,39.5c0.1,0.6,0.3,1.2,0.4,1.9c-0.4,0.2-0.7,0.3-1.1,0.3c-0.1-0.4-0.1-1-0.3-1.6c-0.2-0.7-0.4-1.5-0.6-2.2
				c0-0.1,0.3-0.3,0.9-0.6C-117.6,38.2-117.4,38.9-117.2,39.5L-117.2,39.5z M-107.7,27.8c0.2,0,0.3,0.1,0.3,0.2v15.4
				c0,0.1-0.1,0.2-0.3,0.2h-0.7c-0.2,0-0.3-0.1-0.3-0.2v-1.1h-5.9v1.1c0,0.1-0.1,0.2-0.3,0.2h-0.7c-0.2,0-0.3-0.1-0.3-0.2V28.1
				c0-0.2,0.1-0.3,0.3-0.3L-107.7,27.8z M-112.3,34.3v-5.4h-2.3v5.4H-112.3z M-112.3,41.1v-5.6h-2.3v5.6L-112.3,41.1z M-111,34.3
				h2.3v-5.4h-2.3L-111,34.3z M-108.7,41.1v-5.6h-2.3v5.6L-108.7,41.1z"/>
			<path id="Path_41550" class="st1" d="M-99.4,28.4v-1.2c0-0.1,0.1-0.2,0.3-0.2c0.9,0,1.4,0.1,1.4,0.2c0,0.2-0.1,0.3-0.2,0.3
				c-0.1,0-0.2,0.1-0.2,0.4v0.6h4.3v-1.2c0-0.1,0.1-0.2,0.3-0.2c0.9,0,1.4,0.1,1.4,0.2c0,0.2-0.1,0.3-0.2,0.3
				c-0.1,0-0.2,0.1-0.2,0.4v0.6h4.5c0.1,0,0.2,0.1,0.2,0.3v0.6c0,0.2-0.1,0.3-0.2,0.3h-4.5v1c0,0.1-0.1,0.2-0.3,0.2h-0.7
				c-0.2,0-0.3-0.1-0.3-0.2v-1h-4.3v1c0,0.1-0.1,0.2-0.3,0.2h-0.7c-0.2,0-0.3-0.1-0.3-0.2v-1h-4.6c-0.1,0-0.2-0.1-0.2-0.3v-0.6
				c0-0.2,0.1-0.3,0.2-0.3H-99.4z M-89.2,31.4c0.2,0,0.3,0.1,0.3,0.2v11.9c0,0.1-0.1,0.2-0.3,0.2H-90c-0.2,0-0.3-0.1-0.3-0.2v-0.6
				h-11.5v0.6c0,0.1-0.1,0.2-0.3,0.2h-0.7c-0.2,0-0.3-0.1-0.3-0.2V31.6c0-0.2,0.1-0.2,0.3-0.2H-89.2z M-90.2,41.7v-9.3h-11.5v9.3
				H-90.2z M-92.4,34.2c-0.7,0.2-1.4,0.3-2.1,0.4c-0.3,0.1-0.6,0.1-0.9,0.1v1.1h4.1c0.1,0,0.1,0.1,0.1,0.2v0.6
				c0,0.2-0.1,0.3-0.1,0.3h-3.5c0.3,0.4,0.7,0.8,1.1,1.2c0.5,0.5,1,0.9,1.6,1.2c0.5,0.3,1,0.5,1.6,0.7c0,0.1-0.1,0.2-0.2,0.2
				c-0.2,0.2-0.4,0.4-0.6,0.7c-0.1,0.1-0.1,0.1-0.1,0.1c-0.7-0.3-1.4-0.7-2-1.2c-0.6-0.4-1.1-0.9-1.5-1.4c-0.2-0.2-0.3-0.4-0.5-0.6
				v3.3c0,0.1-0.1,0.2-0.3,0.2h-0.7c-0.1,0-0.2-0.1-0.2-0.2c0,0,0,0,0-0.1v-3c-0.2,0.3-0.4,0.5-0.5,0.6c-0.4,0.5-0.9,0.9-1.4,1.3
				c-0.5,0.4-1.1,0.8-1.7,1.1c-0.1,0-0.2,0-0.3-0.1c-0.2-0.2-0.4-0.4-0.6-0.6c0-0.1-0.1-0.1-0.1-0.2c0.5-0.2,0.9-0.4,1.3-0.7
				c0.6-0.3,1.1-0.7,1.6-1.2c0.4-0.4,0.8-0.9,1.2-1.3h-3.7c-0.1,0-0.1-0.1-0.1-0.3V36c0-0.1,0-0.2,0.1-0.2h4.2v-1
				c-0.2,0-0.4,0.1-0.6,0.1c-1,0.1-1.9,0.1-2.7,0.1c-0.2,0-0.3-0.1-0.4-0.3c-0.2-0.2-0.4-0.5-0.6-0.8c0-0.1,0.1-0.2,0.1-0.2
				c0,0,0,0,0.1,0h1.1c1,0,1.9,0,2.6-0.1c0.7,0,1.3-0.1,2-0.2c0.7-0.1,1.3-0.3,1.9-0.5c0.1,0,0.1,0,0.2,0c0.1,0,0.2,0,0.3,0.1
				c0.7,0.6,1.1,1,1.1,1.1s-0.1,0.2-0.2,0.2l-0.5-0.2C-92.2,34.2-92.3,34.2-92.4,34.2L-92.4,34.2z"/>
			<path id="Path_41551" class="st1" d="M-75.3,37.7c-0.4-0.5-0.9-1.2-1.6-2c-0.6-0.7-1.2-1.3-1.9-1.9l0.9-1
				c1.4,1.2,2.6,2.5,3.8,3.8L-75.3,37.7z"/>
			<path id="Path_41552" class="st1" d="M-56.1,27.4c0,0.1-0.1,0.1-0.2,0.2c-0.1,0-0.3,0.1-0.4,0.2c-0.1,0.2-0.3,0.4-0.4,0.5h5.1
				c0.2,0,0.3,0.1,0.3,0.2v8.3c0,0.2-0.1,0.2-0.3,0.2h-1.2c0.3,0.2,0.5,0.4,0.8,0.6c0.3,0.3,0.6,0.5,0.8,0.7c0,0.1-0.1,0.1-0.1,0.1
				c-0.1,0.1-0.1,0.2-0.1,0.2h2.4c0.1,0,0.2,0.1,0.2,0.3v0.6c0,0.2-0.1,0.3-0.2,0.3h-6.6c0.2,0.2,0.4,0.4,0.6,0.5
				c0.5,0.4,1,0.7,1.6,1c0.8,0.4,1.6,0.7,2.4,0.8c0.6,0.1,1.4,0.3,2.4,0.4c0.2,0,0.3,0,0.3,0.1c0,0.1-0.1,0.2-0.1,0.3
				c-0.2,0.2-0.4,0.5-0.5,0.8c0,0.1-0.1,0.2-0.3,0.2c-1-0.2-1.9-0.4-2.9-0.7c-0.7-0.2-1.3-0.5-1.9-0.8c-0.6-0.3-1.1-0.6-1.6-1
				c-0.5-0.4-1-0.9-1.4-1.4c-0.1,0.2-0.3,0.5-0.5,0.7c-0.5,0.6-1.1,1-1.8,1.4c-0.8,0.5-1.6,0.9-2.4,1.2c-0.6,0.2-1.3,0.4-2.1,0.6
				c-0.2,0-0.3-0.1-0.4-0.2c-0.2-0.2-0.3-0.5-0.5-0.7c-0.1-0.1-0.1-0.1-0.1-0.2c0-0.1,0.1-0.1,0.1-0.2c0.9-0.1,1.8-0.3,2.6-0.6
				c0.9-0.3,1.7-0.6,2.5-1.1c0.4-0.3,0.8-0.6,1.2-1h-5.7c-0.1,0-0.2-0.1-0.2-0.3V39c0-0.2,0.1-0.3,0.2-0.3h6.5l0.2-0.6
				c0.2-0.3,0.2-0.7,0.3-1.1h-4.7c-0.2,0-0.3-0.1-0.3-0.2v-8.3c0-0.1,0.1-0.2,0.3-0.2h3.7c0.1-0.1,0.2-0.2,0.3-0.3
				c0.3-0.3,0.5-0.7,0.7-1.1c0-0.1,0.1-0.1,0.1-0.1C-57.1,26.9-56.6,27.1-56.1,27.4z M-53.1,30.9v-1.5h-8.4v1.5H-53.1z M-53.1,33.4
				V32h-8.4v1.4H-53.1z M-53.1,34.6h-8.4v1.3h8.4V34.6z M-53.4,38.3c-0.3-0.2-0.6-0.4-0.8-0.5c0.1-0.3,0.3-0.6,0.5-0.8h-2.7l0,0.1
				c-0.1,0.5-0.3,1.1-0.5,1.6h3.9C-53.1,38.6-53.3,38.4-53.4,38.3L-53.4,38.3z"/>
			<path id="Path_41553" class="st1" d="M-40.8,28.4c0.2,0,0.3,0.1,0.3,0.2v11c0,0.1-0.1,0.2-0.3,0.2h-0.7c-0.2,0-0.3-0.1-0.3-0.2
				v-0.9h-2.7v2.4c0,0.1-0.1,0.2-0.3,0.2h-0.7c-0.2,0-0.3-0.1-0.3-0.2V28.7c0-0.2,0.1-0.3,0.3-0.3L-40.8,28.4z M-41.8,37.6v-8.1
				h-2.7v8.1H-41.8z M-35.4,29.7v-2.5c0-0.1,0.1-0.2,0.3-0.2c0.9,0,1.4,0.1,1.4,0.2c0,0.2-0.1,0.3-0.2,0.3s-0.2,0.1-0.2,0.4v1.9h3.5
				c0.1,0,0.2,0.1,0.2,0.3v0.6c0,0.2-0.1,0.3-0.2,0.3h-3.5V34h4.3c0.1,0,0.2,0.1,0.2,0.3v0.6c0,0.2-0.1,0.3-0.2,0.3h-3.9
				c0.4,0.9,0.8,1.8,1.3,2.7c0.4,0.8,1,1.6,1.6,2.2c0.5,0.5,1,0.9,1.6,1.3c0,0.1-0.1,0.2-0.1,0.2c-0.3,0.3-0.5,0.5-0.6,0.7
				c-0.1,0.1-0.1,0.1-0.1,0.1c-0.8-0.6-1.5-1.2-2-2c-0.6-0.7-1.1-1.5-1.5-2.4c-0.2-0.3-0.4-0.6-0.5-1v6.6c0,0.1-0.1,0.2-0.3,0.2
				h-0.7c-0.2,0-0.3-0.1-0.3-0.2v-6.4c-0.3,0.5-0.6,0.9-0.8,1.3c-0.5,0.8-1.1,1.5-1.8,2.2c-0.7,0.7-1.4,1.3-2.2,1.9
				c-0.1,0-0.2,0-0.3-0.1c-0.2-0.2-0.4-0.4-0.6-0.6c0-0.1-0.1-0.1-0.1-0.2c0.6-0.4,1.1-0.8,1.7-1.3c0.7-0.7,1.4-1.4,2-2.3
				c0.6-0.9,1.2-1.9,1.7-2.9h-3.8c-0.1,0-0.2-0.1-0.2-0.3v-0.6c0-0.2,0.1-0.3,0.2-0.3h4.2v-3.1h-3.5c-0.1,0-0.2-0.1-0.2-0.3V30
				c0-0.2,0.1-0.3,0.2-0.3H-35.4z"/>
			<path id="Path_41554" class="st1" d="M-196.8,53.2c0,0.1-0.1,0.2-0.1,0.2c-0.2,0-0.3,0.1-0.4,0.2c-0.1,0.2-0.1,0.3-0.2,0.4h4.3
				c0.1,0,0.1,0.1,0.1,0.2v0.6c0,0.2-0.1,0.3-0.1,0.3h-2.6c0.3,0.5,0.7,1,1,1.5c0,0.2-0.1,0.3-0.1,0.3c-0.3,0.2-0.6,0.4-1,0.4
				c-0.4-0.9-0.9-1.6-1.2-2.2h-0.9c-0.2,0.4-0.5,0.7-0.8,1c-0.5,0.5-1,1-1.5,1.5c-0.1,0-0.3-0.1-0.4-0.2c-0.2-0.1-0.3-0.3-0.5-0.4
				c-0.1,0-0.1-0.1-0.1-0.2c0.4-0.3,0.8-0.7,1.1-1.1c0.5-0.5,0.9-1,1.3-1.6c0.3-0.5,0.5-1,0.7-1.6c0-0.1,0-0.1,0.1-0.1
				C-197.7,52.6-197.3,52.9-196.8,53.2z M-193.9,58.5v-0.9c0-0.1,0.1-0.2,0.3-0.2c0.9,0,1.4,0.1,1.4,0.2c0,0.2-0.1,0.3-0.2,0.3
				c-0.1,0-0.2,0.2-0.2,0.4v0.3h5.2c0.1,0,0.2,0.1,0.2,0.3v0.6c0,0.2-0.1,0.3-0.2,0.3h-5.2v1.6h7.5c0.1,0,0.2,0.1,0.2,0.3v0.6
				c0,0.2-0.1,0.3-0.2,0.3h-4.2v1.4h2.7c0.1,0,0.2,0.1,0.2,0.3v0.6c0,0.2-0.1,0.3-0.2,0.3h-2.7v3.2c0,0.9-0.8,1.4-2.2,1.4h-1.1
				c-0.1,0-0.1-0.1-0.1-0.4c-0.1-0.3-0.2-0.7-0.3-1v-0.1c0.5,0.1,1,0.1,1.5,0.2c0.7,0,1-0.2,1-0.6V65h-9.1c-0.1,0-0.2-0.1-0.2-0.3
				v-0.6c0-0.2,0.1-0.3,0.2-0.3h9.1v-1.4h-10.5c-0.1,0-0.2-0.1-0.2-0.3v-0.6c0-0.2,0.1-0.3,0.2-0.3h7.2v-1.6h-5
				c-0.1,0-0.2-0.1-0.2-0.3v-0.6c0-0.2,0.1-0.3,0.2-0.3L-193.9,58.5z M-195.9,66.3c0.5,0.3,1,0.6,1.3,0.8c0,0.1-0.1,0.1-0.1,0.1
				c-0.2,0.3-0.4,0.5-0.6,0.8c-0.6-0.4-1.2-0.8-1.8-1.1c-0.4-0.2-0.9-0.4-1.3-0.6c0.1-0.3,0.3-0.6,0.6-0.8c0.1-0.1,0.1-0.1,0.1-0.1
				C-197,65.8-196.4,66-195.9,66.3L-195.9,66.3z M-189.4,53.2c0,0.1-0.1,0.2-0.1,0.2c-0.2,0-0.3,0.1-0.4,0.2
				c-0.1,0.2-0.1,0.3-0.2,0.4h5.2c0.1,0,0.1,0.1,0.1,0.2v0.6c0,0.2-0.1,0.3-0.1,0.3h-2.9c0.4,0.5,0.7,1,1,1.5c0,0.2,0,0.3-0.1,0.3
				c-0.3,0.2-0.6,0.4-1,0.4c-0.4-0.7-0.8-1.5-1.3-2.2h-1.5c-0.1,0.2-0.3,0.4-0.4,0.6c-0.3,0.4-0.7,0.8-1.1,1.2
				c-0.1,0-0.3-0.1-0.3-0.2c-0.2-0.1-0.4-0.3-0.5-0.4c-0.1,0-0.1-0.1-0.1-0.2c0.3-0.3,0.5-0.6,0.8-0.9c0.4-0.4,0.7-0.9,0.9-1.4
				c0.2-0.4,0.4-0.9,0.5-1.3c0-0.1,0-0.1,0.1-0.1C-190.3,52.6-189.8,52.9-189.4,53.2L-189.4,53.2z"/>
			<path id="Path_41555" class="st1" d="M-177.9,53.2c0.1,0.1,0.2,0.2,0.2,0.3c0,0.1-0.1,0.3-0.2,0.3c-0.1,0-0.2,0.1-0.3,0.3
				c-0.2,1-0.5,2-0.9,2.9v12.3c0,0.1-0.1,0.2-0.3,0.2h-0.7c-0.2,0-0.3-0.1-0.3-0.2v-9.6c-0.2,0.3-0.4,0.6-0.6,0.9
				c-0.1,0-0.3,0-0.4-0.1c-0.3-0.1-0.5-0.2-0.8-0.3c-0.1,0-0.1-0.1-0.1-0.1c0-0.1,0-0.1,0.1-0.2c0.6-0.8,1.2-1.6,1.6-2.5
				c0.3-0.6,0.5-1.2,0.7-1.8c0.3-0.9,0.5-1.7,0.6-2.6c0-0.1,0.1-0.2,0.1-0.2L-177.9,53.2z M-171.1,53.9c0.2,0,0.2,0.1,0.2,0.3v0.6
				c0,0.2-0.1,0.3-0.2,0.3h-2.8c-0.6,1.8-1.1,3-1.4,3.8c0.9-0.1,1.9-0.3,2.9-0.5c-0.2-0.6-0.4-1.1-0.7-1.7c0-0.1,0.3-0.3,0.9-0.6
				c0.4,0.8,0.7,1.6,1,2.2c0.2,0.7,0.4,1.3,0.6,2c-0.4,0.2-0.7,0.3-1.1,0.3c-0.1-0.5-0.2-0.9-0.3-1.4c-1.7,0.4-3.3,0.7-4.8,0.9
				c-0.1,0-0.2,0.1-0.2,0.2c0,0.3-0.1,0.4-0.3,0.4s-0.4-0.5-0.8-1.7c0.3,0,0.7-0.1,1-0.1c0.2,0,0.3,0,0.5-0.1
				c0.1-0.2,0.1-0.3,0.2-0.5c0.5-1.3,0.9-2.4,1.3-3.5h-2.1c-0.1,0-0.2-0.1-0.2-0.3v-0.6c0-0.2,0.1-0.3,0.2-0.3L-171.1,53.9z
				 M-174.8,62.9V61c0-0.2,0.1-0.2,0.3-0.2c0.9,0,1.4,0.1,1.4,0.2s-0.1,0.3-0.2,0.3c-0.1,0-0.2,0.2-0.2,0.4v1.3h2.5
				c0.1,0,0.2,0.1,0.2,0.3v0.6c0,0.2-0.1,0.3-0.2,0.3h-2.5v2.7c1.1-0.2,2.1-0.3,3-0.6l0.1,0c0.1,0,0.1,0,0.1,0.1c0,0,0,0,0,0
				c0,0.3,0,0.7-0.1,1c-2.2,0.4-4.5,0.8-6.8,1.1c-0.2,0.3-0.3,0.5-0.4,0.5s-0.4-0.5-0.7-1.5c1-0.1,2.1-0.2,3.4-0.4v-2.9h-2.6
				c-0.2,0-0.2-0.1-0.2-0.3v-0.6c0-0.2,0.1-0.3,0.2-0.3L-174.8,62.9z M-168,55c0,0.2-0.1,0.3-0.2,0.3c-0.1,0-0.2,0.2-0.2,0.4v10.4
				c0,0.1-0.1,0.2-0.3,0.2h-0.7c-0.2,0-0.3-0.1-0.3-0.2V55c0-0.1,0.1-0.2,0.3-0.2C-168.5,54.8-168,54.9-168,55L-168,55z
				 M-165.2,53.1c0.1,0.1,0.2,0.1,0.2,0.2c0,0.1-0.1,0.2-0.2,0.2c-0.2,0.1-0.3,0.4-0.3,0.9v13.9c0,0.9-0.7,1.3-2,1.3h-1
				c-0.1,0-0.2-0.1-0.2-0.3c-0.1-0.3-0.2-0.6-0.4-0.8c0-0.1,0-0.2,0.1-0.2c0.4,0.1,0.8,0.1,1.2,0.2c0.5,0,0.8-0.2,0.8-0.6V54.2
				c0-0.3,0-0.5-0.1-0.8c0-0.1-0.1-0.2-0.1-0.3c0-0.1,0.1-0.2,0.3-0.2L-165.2,53.1z"/>
			<path id="Path_41556" class="st1" d="M-160.2,58.7c0.5,0.3,1,0.6,1.3,0.9c0,0.1-0.1,0.1-0.1,0.1c-0.2,0.3-0.4,0.6-0.6,0.8
				c-0.6-0.4-1.1-0.8-1.8-1.2c-0.4-0.2-0.8-0.4-1.3-0.6c0.1-0.3,0.3-0.6,0.6-0.8c0.1-0.1,0.1-0.1,0.1-0.1
				C-161.2,58.2-160.7,58.4-160.2,58.7z M-158.5,61.9c0.3,0.7,0.5,1,0.5,1.1c0,0.1,0,0.2-0.1,0.3c-0.6,1.4-1.2,2.6-1.8,3.6
				c-0.3,0.6-0.7,1.2-1.1,1.8c-0.1,0.2-0.1,0.4-0.1,0.6c0,0.1-0.1,0.2-0.1,0.2c-0.1,0-0.5-0.4-1.2-1.2c-0.1,0-0.1-0.1-0.1-0.2
				c0-0.1,0-0.2,0.1-0.3c0.4-0.4,0.8-0.9,1.1-1.3c0.5-0.8,1.1-1.6,1.5-2.5c0.4-0.8,0.8-1.5,1.1-2.2c0-0.1,0.1-0.1,0.1-0.1
				S-158.5,61.8-158.5,61.9L-158.5,61.9z M-159.3,53.9c0.4,0.3,0.9,0.6,1.3,0.9l-0.1,0.2c-0.4,0.6-0.6,0.9-0.6,0.9
				c-0.5-0.4-1.1-0.9-1.7-1.2c-0.4-0.2-0.8-0.5-1.2-0.6c0.2-0.3,0.3-0.6,0.6-0.8c0.1-0.1,0.1-0.1,0.1-0.1
				C-160.3,53.3-159.8,53.6-159.3,53.9L-159.3,53.9z M-154.5,62c0,0.1-0.1,0.2-0.2,0.2c-0.1,0.1-0.2,0.3-0.2,0.5v1.2
				c0,0.5,0,1-0.1,1.6c-0.1,0.6-0.2,1.2-0.4,1.7c-0.2,0.5-0.5,0.9-0.8,1.3c-0.3,0.4-0.7,0.8-1.2,1.1c-0.1,0-0.2-0.1-0.2-0.2
				c-0.2-0.2-0.4-0.4-0.6-0.5c-0.1-0.1-0.1-0.1-0.1-0.2c0.4-0.3,0.8-0.6,1.1-1c0.2-0.3,0.4-0.6,0.6-1c0.2-0.5,0.3-0.9,0.4-1.4
				c0.1-0.5,0.1-1,0.1-1.5v-1.9c0-0.1,0-0.2,0.1-0.2C-155.6,61.8-155,61.9-154.5,62L-154.5,62z M-150.8,53c0,0.1-0.1,0.2-0.2,0.3
				c-0.1,0-0.2,0.1-0.2,0.4V55h4.9c0.1,0,0.2,0.1,0.2,0.3v0.6c0,0.2-0.1,0.3-0.2,0.3h-6.7c0.7,0.3,1.1,0.4,1.1,0.5
				c0,0.1-0.1,0.2-0.2,0.2c-0.2,0-0.3,0.1-0.3,0.2c-0.3,0.5-0.7,1.1-1.3,1.8c-0.2,0.2-0.3,0.4-0.5,0.6c1.8-0.2,3.5-0.4,5.3-0.6
				c-0.3-0.5-0.6-1-0.9-1.4c0-0.1,0.3-0.3,0.8-0.6c0.1,0,0.2,0,0.2,0.1c1,1.3,1.9,2.6,2.7,4c0,0.2-0.1,0.3-0.1,0.3
				c-0.3,0.2-0.7,0.4-1,0.4c-0.4-0.6-0.7-1.3-1-1.8c-2.3,0.3-4.8,0.6-7.6,0.8c-0.1,0-0.3,0.1-0.3,0.2c0,0.1-0.2,0.2-0.3,0.2
				c-0.1,0-0.4-0.5-0.8-1.5c0.6,0,1.2-0.1,1.9-0.1c0.5-0.7,1-1.5,1.4-2.3c0.2-0.4,0.3-0.8,0.5-1.1h-3.5c-0.1,0-0.2-0.1-0.2-0.3v-0.6
				c0-0.2,0.1-0.3,0.2-0.3h4.6V53c0-0.2,0.1-0.2,0.3-0.2C-151.3,52.8-150.8,52.9-150.8,53z M-151.5,62c0,0.2-0.1,0.3-0.2,0.3
				c-0.1,0-0.2,0.2-0.2,0.4v6.5c0,0.1-0.1,0.2-0.3,0.2h-0.7c-0.2,0-0.3-0.1-0.3-0.2V62c0-0.1,0.1-0.2,0.3-0.2
				C-152,61.8-151.5,61.9-151.5,62L-151.5,62z M-148.5,62c0,0.1-0.1,0.3-0.2,0.4v5.3c0,0.2,0,0.3,0.2,0.3h1.2c0.2,0,0.5-0.6,0.7-1.7
				l1.1,0.7c-0.4,1.4-0.9,2.2-1.5,2.2h-2c-0.6,0-0.9-0.3-0.9-0.9v-6.3c0-0.1,0-0.2,0.1-0.2C-149,61.8-148.5,61.9-148.5,62L-148.5,62
				z"/>
			<path id="Path_41557" class="st1" d="M-134.2,62.4c-0.3,0.5-0.7,1-1.2,1.3l-0.5-0.5c0.7-0.5,1.2-1.3,1.2-2.1h-1.4v-2.2h2.2v2
				C-133.8,61.4-133.9,61.9-134.2,62.4z"/>
			<path id="Path_41558" class="st1" d="M-118.2,54c0.1,0,0.2,0.1,0.2,0.3v0.6c0,0.2-0.1,0.3-0.2,0.3h-2c-0.4,1.3-0.6,2.3-0.9,3.1
				c-0.1,0.3-0.2,0.6-0.3,0.9h3.1c0.2,0,0.3,0.1,0.3,0.2v8.1c0,0.1-0.1,0.2-0.3,0.2h-0.7c-0.1,0-0.2-0.1-0.2-0.2c0,0,0,0,0,0v-0.9
				h-1.8v2.2c0,0.1-0.1,0.2-0.3,0.2h-0.7c-0.1,0-0.2-0.1-0.2-0.2v-7.6c-0.3,0.5-0.5,1-0.9,1.5c-0.1,0-0.2,0-0.3-0.1
				c-0.2-0.2-0.5-0.4-0.7-0.6c0-0.1-0.1-0.1-0.1-0.2c0.3-0.4,0.6-0.9,0.9-1.3c0.4-0.8,0.7-1.6,1-2.4c0.2-0.6,0.5-1.5,0.8-2.8h-1.7
				c-0.1,0-0.2-0.1-0.2-0.3v-0.6c0-0.2,0.1-0.3,0.2-0.3L-118.2,54z M-119.2,65.4v-5.1h-1.8v5.1H-119.2z M-114,54.6L-114,54.6
				c0.2-0.6,0.3-1.2,0.3-1.8c0-0.1,0-0.1,0.1-0.1c0,0,0,0,0,0c0.5,0.1,1,0.2,1.5,0.4c0,0.2-0.1,0.3-0.2,0.3c-0.2,0-0.3,0.1-0.3,0.3
				c-0.1,0.3-0.1,0.6-0.2,0.9h5c0.2,0,0.3,0.1,0.3,0.2v3c0,0.1-0.1,0.2-0.3,0.2h-0.7c-0.1,0-0.2-0.1-0.2-0.2v-2.2h-4.4
				c-0.1,0.2-0.1,0.4-0.1,0.5c-0.3,1-0.8,1.9-1.3,2.8h2.4c0.2-0.3,0.3-0.6,0.5-0.9c0.2-0.4,0.3-0.9,0.4-1.4c0-0.1,0.1-0.1,0.1-0.1
				l1.1,0.6c0.1,0,0.1,0.1,0.1,0.2c0,0.1-0.1,0.1-0.1,0.2c0,0,0,0,0,0c-0.1,0-0.2,0.1-0.3,0.2c-0.2,0.4-0.4,0.9-0.6,1.3h2.7
				c0.1,0,0.1,0.1,0.1,0.2v0.6c0,0.2-0.1,0.3-0.1,0.3h-2.6v1.8h2.5c0.1,0,0.1,0.1,0.1,0.2v0.6c0,0.2-0.1,0.3-0.1,0.3h-2.4v1.9h2.4
				c0.1,0,0.1,0.1,0.1,0.2v0.6c0,0.2-0.1,0.3-0.1,0.3h-2.4v1.7h3.2c0.1,0,0.1,0.1,0.1,0.2v0.6c0,0.2-0.1,0.3-0.1,0.3h-7v0.6
				c0,0.1-0.1,0.2-0.3,0.2h-0.7c-0.1,0-0.2-0.1-0.2-0.2c0,0,0,0,0,0v-8.7c-0.2,0.2-0.4,0.4-0.6,0.6c-0.1,0.1-0.2,0.2-0.4,0.2
				c-0.2,0-0.3,0-0.3-0.1c-0.2-0.2-0.5-0.3-0.7-0.4c-0.1,0-0.1-0.1-0.1-0.2c0,0,0-0.1,0.1-0.1c0.5-0.3,1-0.7,1.4-1.1
				c0.6-0.7,1.1-1.5,1.5-2.3c0.2-0.5,0.4-0.9,0.6-1.4h-1.8v2.2c0,0.1-0.1,0.2-0.3,0.2h-0.7c-0.1,0-0.2-0.1-0.2-0.2c0,0,0,0,0,0v-3
				c0-0.2,0.1-0.2,0.2-0.2L-114,54.6z M-111.9,60.1h-2.6v1.8h2.6V60.1z M-111.9,62.9h-2.6v1.9h2.6V62.9z M-111.9,67.6v-1.7h-2.6v1.7
				H-111.9z"/>
			<path id="Path_41559" class="st1" d="M-98.5,53.8c0,0.1-0.1,0.2-0.1,0.2c-0.2,0-0.3,0.1-0.4,0.2c-0.5,1.2-1,2.3-1.7,3.3v11.9
				c0,0.1-0.1,0.2-0.3,0.2h-0.7c-0.2,0-0.3-0.1-0.3-0.2V59.2c-0.4,0.5-1,1.1-1.6,1.8c-0.1,0-0.3-0.1-0.4-0.2
				c-0.2-0.1-0.4-0.3-0.6-0.5c-0.1,0-0.1-0.1-0.1-0.2c0.5-0.6,1.1-1.2,1.6-1.8c0.7-0.8,1.3-1.8,1.8-2.7c0.4-0.8,0.8-1.7,1.1-2.6
				c0-0.1,0.1-0.2,0.2-0.2C-99.5,53.1-99,53.4-98.5,53.8z M-89,53.7c0.2,0,0.3,0.1,0.3,0.2v6.2c0,0.1-0.1,0.2-0.3,0.2h-0.7
				c-0.2,0-0.3-0.1-0.3-0.2v-0.8h-2.7v2.7h4.9c0.1,0,0.2,0.1,0.2,0.3v0.6c0,0.2-0.1,0.3-0.2,0.3h-4.6c0.4,0.6,0.9,1.2,1.4,1.8
				c0.6,0.6,1.2,1.2,1.9,1.6c0.6,0.4,1.2,0.7,1.9,0.9c0,0.1-0.1,0.2-0.2,0.2c-0.2,0.2-0.5,0.5-0.6,0.7c-0.1,0.1-0.1,0.1-0.2,0.1
				c-0.8-0.4-1.6-0.9-2.3-1.5c-0.7-0.5-1.2-1.2-1.7-1.9c-0.1-0.2-0.3-0.4-0.4-0.6v4.9c0,0.1-0.1,0.2-0.3,0.2h-0.7
				c-0.2,0-0.3-0.1-0.3-0.2v-4.6c-0.2,0.3-0.4,0.5-0.5,0.7c-0.5,0.6-1.1,1.2-1.7,1.7c-0.7,0.5-1.3,1-2.1,1.4c-0.1,0-0.2,0-0.3-0.1
				c-0.2-0.2-0.5-0.4-0.7-0.6c0-0.1,0-0.1-0.1-0.2c1.3-0.6,2.5-1.5,3.5-2.6c0.6-0.6,1.1-1.3,1.6-2h-4.3c-0.1,0-0.2-0.1-0.2-0.3v-0.6
				c0-0.2,0.1-0.3,0.2-0.3h4.6v-2.7h-2.7v0.9c0,0.1-0.1,0.2-0.3,0.2h-0.7c-0.2,0-0.3-0.1-0.3-0.2v-6.2c0-0.1,0.1-0.3,0.2-0.3
				c0,0,0,0,0.1,0L-89,53.7z M-90,58.1v-3.3h-6.7v3.3H-90z"/>
			<path id="Path_41560" class="st1" d="M-82,58.8c0,1.7-0.1,3.4-0.4,5.1c-0.2,1.1-0.5,2.2-0.9,3.2c-0.2,0.6-0.6,1.3-1,1.8
				c-0.1,0-0.1,0-0.2,0c-0.2-0.2-0.4-0.4-0.7-0.5c-0.1-0.1-0.1-0.2-0.1-0.3c0.4-0.7,0.8-1.4,1-2.2c0.3-1,0.5-2,0.6-3.1
				c0.1-1.4,0.2-2.7,0.2-4.1v-5.3c0-0.2,0.1-0.3,0.3-0.3h13.5c0.2,0,0.3,0.1,0.3,0.2v3.9c0,0.1-0.1,0.3-0.2,0.3c0,0,0,0-0.1,0H-82
				L-82,58.8z M-82,56.6h11.5v-2.2H-82V56.6z M-75.6,60.5v-1.9c0-0.1,0.1-0.2,0.3-0.2c0.9,0,1.4,0.1,1.4,0.2c0,0.2-0.1,0.3-0.2,0.3
				s-0.2,0.1-0.2,0.4v1.2h5.5c0.1,0,0.2,0.1,0.2,0.3v0.6c0,0.2-0.1,0.3-0.2,0.3h-5.5v2.2h4.3c0.2,0,0.3,0.1,0.3,0.2v5.2
				c0,0.1-0.1,0.3-0.2,0.3c0,0,0,0,0,0h-0.7c-0.1,0-0.3-0.1-0.3-0.2c0,0,0,0,0-0.1v-0.5h-7.9v0.6c0,0.1-0.1,0.2-0.3,0.2h-0.7
				c-0.2,0-0.3-0.1-0.3-0.2v-5.2c0-0.1,0.1-0.3,0.2-0.3c0,0,0,0,0.1,0h4.3v-2.2h-5c-0.1,0-0.2-0.1-0.2-0.3v-0.6
				c0-0.2,0.1-0.3,0.2-0.3L-75.6,60.5z M-71,67.6V65h-7.9v2.6H-71z"/>
			<path id="Path_41561" class="st1" d="M-56.3,52.9c0,0.2-0.1,0.3-0.2,0.3s-0.2,0.1-0.2,0.4v1h7.1c0.2,0,0.3,0.1,0.3,0.2v3.5
				c0,0.2-0.1,0.2-0.3,0.2h-0.7c-0.2,0-0.3-0.1-0.3-0.2v-2.6h-13.3v2.6c0,0.2-0.1,0.2-0.3,0.2h-0.7c-0.2,0-0.3-0.1-0.3-0.2v-3.4
				c0-0.1,0.1-0.3,0.2-0.3c0,0,0.1,0,0.1,0h7v-1.7c0-0.1,0.1-0.2,0.3-0.2C-56.8,52.7-56.3,52.8-56.3,52.9z M-52,57.3
				c0.1,0,0.2,0.1,0.2,0.3v0.6c0,0.2-0.1,0.3-0.2,0.3h-4.6c-0.3,0.3-0.7,0.5-0.9,0.7c0.5,0.7,1,1.2,1.3,1.7c0.3,0.4,0.5,0.8,0.7,1.2
				c1.1-0.7,2.1-1.5,3-2.3c0.1-0.1,0.3-0.2,0.5-0.2c0.1,0,0.2,0.1,0.3,0.1c0.8,0.5,1.2,0.8,1.2,0.9c0,0.2-0.1,0.3-0.2,0.3l-0.4-0.1
				c-0.2,0-0.5,0.1-0.7,0.3c-0.8,0.5-1.7,1.2-2.8,2c0.3,0.5,0.7,1,1.1,1.4c0.5,0.6,1.1,1.1,1.7,1.5c0.9,0.7,1.8,1.2,2.8,1.5
				c0.1,0,0.2,0.1,0.2,0.1c0,0.1,0,0.2-0.1,0.2c-0.3,0.2-0.5,0.4-0.7,0.6c-0.1,0.1-0.1,0.2-0.2,0.2c-1.6-0.7-3-1.7-4.2-3
				c-0.2-0.2-0.4-0.4-0.6-0.7c0,0.1,0,0.2,0,0.3c0,0.6-0.1,1.1-0.2,1.7c-0.1,0.5-0.3,0.9-0.6,1.3c-0.3,0.3-0.7,0.6-1.1,0.8
				c-0.6,0.2-1.2,0.4-1.9,0.4c-0.2,0-0.3-0.1-0.3-0.3c-0.1-0.4-0.3-0.7-0.5-1.1c0-0.1,0-0.2,0.1-0.2l0.4,0.1
				c0.7,0.1,1.3-0.1,1.9-0.4c0.3-0.2,0.5-0.6,0.6-0.9c0.2-0.4,0.2-0.9,0.2-1.3c0-0.3,0-0.6-0.1-0.9c-0.3,0.3-0.6,0.5-0.9,0.7
				c-0.7,0.6-1.4,1.1-2.2,1.5c-0.9,0.5-1.8,0.9-2.8,1.3c-0.7,0.3-1.4,0.5-2.2,0.7c-0.1,0-0.2-0.1-0.3-0.3c-0.2-0.2-0.4-0.4-0.6-0.7
				c-0.1-0.1-0.1-0.2-0.1-0.2c1.2-0.3,2.4-0.6,3.6-1.1c1-0.4,2-0.9,2.9-1.5c0.8-0.6,1.6-1.2,2.3-1.9c-0.2-0.5-0.4-0.9-0.6-1.4
				c-0.3,0.3-0.6,0.5-0.9,0.7c-0.6,0.5-1.2,0.9-1.9,1.3c-0.8,0.4-1.6,0.8-2.4,1.1c-0.6,0.3-1.2,0.5-1.9,0.6c-0.1,0-0.2-0.1-0.2-0.2
				c-0.2-0.2-0.4-0.4-0.6-0.7c-0.1-0.1-0.1-0.2-0.1-0.2c1-0.2,2-0.5,3-0.9c0.9-0.3,1.7-0.7,2.5-1.2c0.6-0.4,1.3-0.9,1.8-1.5
				c-0.3-0.3-0.5-0.7-0.8-1.1c-0.1,0.1-0.2,0.1-0.2,0.2c-0.7,0.5-1.5,0.9-2.3,1.3c-0.9,0.4-1.9,0.8-2.9,1.1c-0.1,0-0.2,0-0.3-0.1
				c-0.2-0.2-0.5-0.4-0.7-0.6c0-0.1,0-0.1-0.1-0.2c0.8-0.2,1.5-0.4,2.2-0.7c0.9-0.3,1.8-0.7,2.6-1.2c0.4-0.2,0.9-0.6,1.6-1.1h-4.1
				c-0.1,0-0.2-0.1-0.2-0.3v-0.6c0-0.2,0.1-0.3,0.2-0.3L-52,57.3z"/>
			<path id="Path_41562" class="st1" d="M-41.5,58.1c0,0.1,0,0.1-0.1,0.1c-0.2,0-0.3,0.1-0.4,0.2c-0.3,0.7-0.7,1.3-1.1,2v8.8
				c0,0.1-0.1,0.2-0.3,0.2H-44c-0.1,0-0.2-0.1-0.2-0.2c0,0,0,0,0-0.1v-7.3c-0.3,0.4-0.7,0.8-1.2,1.2c-0.1,0-0.3-0.1-0.4-0.2
				c-0.2-0.1-0.4-0.3-0.5-0.4c-0.1,0-0.1-0.1-0.1-0.2c0.4-0.4,0.8-0.8,1.3-1.2c0.6-0.6,1-1.2,1.4-1.9c0.3-0.6,0.6-1.2,0.8-1.8
				c0-0.1,0-0.2,0.1-0.2C-42.4,57.4-41.9,57.7-41.5,58.1z M-41.5,53.6c0,0.1,0,0.2-0.1,0.2c-0.2,0-0.3,0.1-0.4,0.2
				c-0.4,0.7-0.9,1.4-1.5,2c-0.4,0.4-0.9,0.8-1.4,1.2c-0.1,0-0.3-0.1-0.4-0.2c-0.2-0.1-0.3-0.3-0.5-0.4c-0.1,0-0.1-0.1-0.1-0.2
				c0.3-0.3,0.7-0.6,1-0.9c0.4-0.4,0.8-0.9,1.2-1.4c0.3-0.4,0.5-0.8,0.7-1.3c0-0.1,0-0.1,0.1-0.1C-42.5,52.9-42,53.2-41.5,53.6
				L-41.5,53.6z M-36.3,66.5h2.2c0.1,0,0.1,0.1,0.1,0.2v0.6c0,0.2-0.1,0.3-0.1,0.3h-2.2v1.7c0,0.1-0.1,0.2-0.3,0.2h-0.7
				c-0.1,0-0.2-0.1-0.2-0.2c0,0,0,0,0,0v-1.7h-4.7c-0.1,0-0.1-0.1-0.1-0.3v-0.6c0-0.1,0-0.2,0.1-0.2h1.2v-2.3c0-0.1,0.1-0.2,0.2-0.2
				h3.2v-1c0-0.1,0.1-0.1,0.2-0.1c0.8,0,1.3,0.1,1.3,0.2c0,0.2-0.1,0.2-0.1,0.2c-0.1,0-0.1,0.1-0.1,0.3V64h1.9
				c0.1,0,0.1,0.1,0.1,0.2v0.6c0,0.2-0.1,0.3-0.1,0.3h-1.9L-36.3,66.5z M-39,54.3c0.1-0.5,0.2-1,0.2-1.5c0-0.1,0.1-0.1,0.2-0.1
				l1,0.2c0.1,0,0.2,0.1,0.2,0.3c0,0.2-0.1,0.3-0.2,0.3c-0.1,0-0.2,0.1-0.2,0.2c0,0.3-0.1,0.5-0.1,0.7h2.5c0.2,0,0.3,0.1,0.3,0.2V57
				h0.6c0.1,0,0.1,0.1,0.1,0.2v0.6c0,0.1-0.1,0.2-0.1,0.2h-6.9c-0.1,0-0.1-0.1-0.1-0.2v-0.6c0-0.1,0-0.2,0.1-0.2h1.9
				c0.1-0.5,0.2-1.1,0.3-1.7h-1.8c-0.1,0-0.1-0.1-0.1-0.2v-0.6c0-0.1,0-0.2,0.1-0.2H-39z M-35.1,59.1c0.2,0,0.3,0.1,0.3,0.2v2.9
				c0,0.1-0.1,0.2-0.3,0.2h-5.5c-0.2,0-0.3-0.1-0.3-0.2v-2.9c0-0.1,0.1-0.2,0.3-0.2H-35.1z M-39.7,66.5h2.2V65h-2.2L-39.7,66.5z
				 M-36,60.1h-3.6v1.3h3.6V60.1z M-36.2,57v-1.7H-38c-0.1,0.6-0.2,1.2-0.3,1.7H-36.2z M-29.3,57.9c0.1,0,0.2,0.1,0.2,0.3v0.6
				c0,0.2-0.1,0.3-0.2,0.3h-1.3v9.2c0,0.9-0.7,1.3-2.1,1.3h-0.6c-0.1,0-0.1-0.1-0.1-0.3c0-0.3-0.1-0.6-0.3-0.9v-0.1
				c0.3,0.1,0.6,0.1,0.9,0.2c0.6,0,0.9-0.2,0.9-0.6v-8.7h-2c-0.1,0-0.2-0.1-0.2-0.3v-0.6c0-0.2,0.1-0.3,0.2-0.3L-29.3,57.9z
				 M-29.8,54c0.1,0,0.2,0.1,0.2,0.3v0.6c0,0.2-0.1,0.3-0.2,0.3h-3.3c-0.1,0-0.2-0.1-0.2-0.3v-0.6c0-0.2,0.1-0.3,0.2-0.3H-29.8z"/>
			<path id="Path_41563" class="st1" d="M-137.6,79.4c0.1,0.1,0.2,0.2,0.2,0.3c0,0.1-0.1,0.3-0.2,0.3c-0.1,0-0.3,0.1-0.3,0.2
				c-0.2,0.8-0.4,1.4-0.6,1.9h4.4v-3.2c0-0.2,0.1-0.2,0.3-0.2c0.9,0,1.4,0.1,1.4,0.2s-0.1,0.3-0.2,0.3s-0.2,0.1-0.2,0.4v2.6h6
				c0.1,0,0.2,0.1,0.2,0.2c0,0,0,0,0,0V83c0,0.2-0.1,0.3-0.2,0.3h-6v4.1h5.2c0.1,0,0.2,0.1,0.2,0.3v0.6c0,0.2-0.1,0.3-0.2,0.3h-5.2
				v4.9h6.9c0.1,0,0.2,0.1,0.2,0.2v0.7c0,0.2-0.1,0.3-0.2,0.3h-16c-0.1,0-0.2-0.1-0.2-0.3v-0.7c0-0.1,0.1-0.2,0.2-0.2c0,0,0,0,0,0
				h7.8v-4.9h-5.6c-0.1,0-0.2-0.1-0.2-0.3v-0.6c0-0.2,0.1-0.3,0.2-0.3h5.6v-4.1h-4.8c-0.3,0.6-0.5,1.2-0.8,1.7c-0.3,0.5-0.7,1-1,1.5
				c-0.1,0-0.3,0-0.4-0.1c-0.3-0.1-0.5-0.2-0.8-0.3c-0.1,0-0.1-0.1-0.1-0.1c0-0.1,0-0.1,0.1-0.2c0.6-0.7,1.2-1.6,1.6-2.4
				c0.3-0.6,0.5-1.2,0.7-1.8c0.3-0.8,0.5-1.7,0.6-2.5c0-0.1,0.1-0.2,0.1-0.2L-137.6,79.4z"/>
			<path id="Path_41564" class="st1" d="M-119.8,92.1c0.1,0.1,0.1,0.2,0.1,0.2c0,0.1,0,0.1-0.1,0.1c0,0,0,0,0,0
				c-0.1,0-0.2,0.1-0.3,0.1c-0.3,0.4-0.6,0.9-1,1.2c-0.5,0.5-1,0.9-1.6,1.3c-0.1,0-0.2,0-0.3-0.1c-0.3-0.2-0.5-0.4-0.6-0.5
				c-0.1,0-0.1-0.1-0.1-0.1c0,0,0-0.1,0.1-0.1c0.3-0.1,0.5-0.3,0.7-0.4c0.4-0.3,0.8-0.7,1.1-1.1c0.3-0.3,0.6-0.7,0.9-1.2
				c0-0.1,0.1-0.1,0.1-0.1L-119.8,92.1z M-118.4,79.1c0,0.1,0,0.2-0.1,0.2c-0.2,0-0.3,0.1-0.4,0.2c-0.2,0.3-0.4,0.6-0.5,0.9h11.1
				c0.1,0,0.2,0.1,0.2,0.3v0.6c0,0.2-0.1,0.3-0.2,0.3h-1.5v3.4h2.3c0.1,0,0.2,0.1,0.2,0.3v0.6c0,0.2-0.1,0.3-0.2,0.3h-2.3v3.5h1.8
				c0.1,0,0.2,0.1,0.2,0.3v0.6c0,0.2-0.1,0.3-0.2,0.3h-14.8c-0.1,0-0.2-0.1-0.2-0.3v-0.6c0-0.2,0.1-0.3,0.2-0.3h1.9V86h-2.5
				c-0.1,0-0.2-0.1-0.2-0.3v-0.6c0-0.2,0.1-0.3,0.2-0.3h2.5v-2.6c-0.4,0.4-0.9,0.8-1.6,1.4c-0.1,0-0.3-0.1-0.4-0.2
				c-0.2-0.1-0.4-0.3-0.5-0.4c-0.1,0-0.1-0.1-0.1-0.2c0.4-0.4,0.8-0.7,1.3-1.1c0.6-0.5,1-1.1,1.5-1.7c0.3-0.5,0.6-1.1,0.8-1.7
				c0-0.1,0-0.2,0.1-0.2C-118.9,78.7-118.4,79-118.4,79.1L-118.4,79.1z M-117.7,81.5h-1.9v3.4h1.9V81.5z M-117.7,89.6V86h-1.9v3.5
				H-117.7z M-116.9,91.5c0.5,0.9,1,1.8,1.5,2.8c0,0.1,0,0.2-0.1,0.3c-0.3,0.2-0.7,0.4-1,0.4c-0.5-1.2-0.9-2.2-1.3-3
				c0-0.1,0.3-0.3,0.8-0.6C-117,91.4-116.9,91.5-116.9,91.5L-116.9,91.5z M-114.4,81.5h-2v3.4h2L-114.4,81.5z M-114.4,89.6V86h-2
				v3.5H-114.4z M-113.3,91.5c0.7,0.9,1.3,1.9,1.8,2.9c0,0.2,0,0.3-0.1,0.3c-0.3,0.2-0.6,0.4-1,0.4c-0.5-1.1-1-2.1-1.7-3.1
				c0-0.1,0.3-0.3,0.8-0.6C-113.4,91.4-113.3,91.5-113.3,91.5L-113.3,91.5z M-111,81.5h-2v3.4h2V81.5z M-111,89.6V86h-2v3.5H-111z
				 M-108.3,92.7c0.5,0.5,0.9,1,1.3,1.4l-0.1,0.1l-0.6,0.8c-0.5-0.7-1.1-1.3-1.7-1.8c-0.4-0.4-0.8-0.7-1.3-0.9
				c0.1-0.3,0.3-0.6,0.6-0.8c0.1-0.1,0.1-0.1,0.2-0.1C-109.3,91.9-108.8,92.3-108.3,92.7L-108.3,92.7z"/>
			<path id="Path_41565" class="st1" d="M-96.7,78.6c0,0.2-0.1,0.3-0.2,0.3S-97,79-97,79.3v0.2h6.5c0.1,0,0.1,0.1,0.1,0.2v0.4
				c0,0.2-0.1,0.3-0.1,0.3H-97v0.6h7.7c0.2,0,0.3,0.1,0.3,0.2v2.9c0,0.2-0.1,0.2-0.3,0.2H-90c-0.2,0-0.3-0.1-0.3-0.2v-2.1h-7.5V83
				l5.5-0.3c0.1,0,0.1,0.1,0.1,0.2v0.4c0,0.2-0.1,0.3-0.1,0.3l-5.5,0.3v0.3c0,0.1,0,0.2,0.1,0.2h5.2c0.4,0,0.8-0.3,1.1-0.9l0.9,0.6
				c-0.3,0.7-1,1.2-1.8,1.3h-5.8c-0.5,0-0.8-0.2-0.8-0.7V84l-2.9,0.2c-0.1,0-0.1-0.1-0.1-0.3v-0.4c0-0.2,0-0.2,0.1-0.2l2.9-0.2v-1
				h-4.1v4.3c0,1.5-0.1,3-0.3,4.5c-0.1,1-0.4,1.9-0.8,2.8c-0.2,0.6-0.5,1.1-0.9,1.6c-0.1,0-0.1,0-0.2,0c-0.2-0.2-0.4-0.4-0.7-0.5
				c-0.1-0.1-0.1-0.1-0.1-0.2c0.4-0.6,0.7-1.2,0.9-1.9c0.3-0.9,0.5-1.7,0.6-2.6c0.1-1.2,0.2-2.4,0.2-3.5v-5.1c0-0.2,0.1-0.2,0.3-0.2
				h5.7v-2.4c0-0.1,0.1-0.2,0.3-0.2C-97.1,78.4-96.7,78.5-96.7,78.6z M-100.1,86.5c0,0.1-0.1,0.2-0.1,0.2c-0.1,0-0.1,0.1-0.1,0.3
				v2.5h9.1c0.2,0,0.3,0.1,0.3,0.2v1.7h1.6c0.1,0,0.1,0.1,0.1,0.2v0.6c0,0.1-0.1,0.2-0.1,0.2h-5.7c0.3,0.3,0.7,0.5,1.1,0.7
				c0.5,0.2,1,0.5,1.6,0.6c0.5,0.1,1.1,0.3,1.7,0.4c0.5,0.1,1.1,0.2,1.7,0.3c0,0.1-0.1,0.2-0.2,0.2c-0.2,0.2-0.4,0.5-0.5,0.7
				c-0.1,0.1-0.2,0.1-0.3,0.1c-0.8-0.1-1.5-0.3-2.3-0.5c-0.6-0.2-1.2-0.4-1.7-0.7c-0.5-0.2-1-0.5-1.5-0.8c-0.3-0.2-0.6-0.5-0.9-0.8
				c-0.3,0.4-0.7,0.8-1.1,1.1c-0.6,0.4-1.2,0.6-1.8,0.8c-0.8,0.3-1.7,0.5-2.5,0.6c-0.4-0.4-0.7-0.7-0.9-1c0.5-0.1,1.2-0.2,1.9-0.4
				c0.7-0.2,1.4-0.4,2-0.7c0.4-0.2,0.7-0.5,1.1-0.8h-4.5c-0.1,0-0.1-0.1-0.1-0.2v-0.6c0-0.1,0-0.2,0.1-0.2h5.1
				c0.1-0.3,0.2-0.6,0.2-0.9h-4.3c-0.1,0-0.2-0.1-0.2-0.2c0,0,0,0,0,0v-3.9c0-0.1,0.1-0.2,0.2-0.2
				C-100.5,86.3-100.1,86.4-100.1,86.5z M-92,86.2c0.2,0,0.3,0.1,0.3,0.2v2.2c0,0.1-0.1,0.2-0.3,0.2h-7c-0.2,0-0.3-0.1-0.3-0.2v-2.2
				c0-0.2,0.1-0.2,0.3-0.2H-92z M-92.9,87.2H-98V88h5.1V87.2z M-95.8,91.5h3.5v-0.9h-3.4C-95.7,90.9-95.8,91.2-95.8,91.5L-95.8,91.5
				z"/>
		</g>
	</g>
</g>
</svg>
