<svg id="section4_title1" xmlns="http://www.w3.org/2000/svg" width="344.013" height="37.968" viewBox="0 0 344.013 37.968">
  <path id="Path_31419" data-name="Path 31419" d="M85.1,696.685c-.129,2.138-.29,4.272-.478,6.447H90.5q.1,12.189-2.571,19.338c1.288,1.228,2.41,2.419,3.44,3.568l-2.635,5.128a35.437,35.437,0,0,0-2.925-4.019,30.9,30.9,0,0,1-5.109,6.609L77.679,729.4a18.2,18.2,0,0,0,5.077-5.62c-1.444-1.4-3.021-2.75-4.691-4.143.9-4.065,1.573-8.007,2.088-11.87H77.937v-4.636h2.732c.193-2.258.354-4.475.414-6.609Zm1.416,11.083h-2.41q-.676,4.932-1.642,10.1c.773.575,1.481,1.15,2.157,1.683A44.983,44.983,0,0,0,86.518,707.768Zm19.283-9.644v4.351a39.55,39.55,0,0,1-4.755,8.25v1.683h5.785v4.966h-5.785V729.4c-.064,2.8-1.932,4.194-5.528,4.194H92.754l-.612-5.137c2.088.128,3.339.17,3.762.17.639,0,.993-.575.993-1.766v-9.487H90.5v-4.966h6.4v-4.47a23.652,23.652,0,0,0,3.472-4.806H91.112v-5.008Z" transform="translate(-77.679 -696.239)" fill="gold"/>
  <path id="Path_31420" data-name="Path 31420" d="M97.108,699.662v-3.2h4.4v3.2h9.9v4.64h-9.9v2.709h12.182v4.843H108.26a24.7,24.7,0,0,1-1.835,3.983h5.753v4.677H101.509v3.04h11.41v4.636h-11.41v6.075h-4.4v-6.075H85.569v-4.636H97.108v-3.04h-10.8v-4.677h5.725c-.579-1.44-1.191-2.75-1.835-3.983H84.668v-4.843h12.44V704.3H86.954v-4.64Zm4.82,16.174a24.3,24.3,0,0,0,1.83-3.983h-9c.607,1.311,1.186,2.667,1.734,3.983Z" transform="translate(-52.527 -696.461)" fill="gold"/>
  <path id="Path_31421" data-name="Path 31421" d="M120.6,704.733h-2.506v1.6h-5.657v1.435h7.036v12.646h-7.036v1.766h8.549V726.2h-8.549v2.626c1.991-.078,4.981-.285,8.9-.529l-.612,4.8c-3.5.083-5.5.161-5.978.161q-12.051,0-15.231-1.72a10.013,10.013,0,0,1-2.253-1.8,39.016,39.016,0,0,1-2.893,4.47l-2.764-4.144a18.905,18.905,0,0,0,3.5-5.215,21.239,21.239,0,0,0,1.61-5.045h-3.73a76.735,76.735,0,0,0,2.539-8.83h-3.7V706.5h8.292a71.688,71.688,0,0,1-2.249,8.784h3.376a45.9,45.9,0,0,1-2.378,10.8,1.114,1.114,0,0,1-.1.207,8.767,8.767,0,0,0,1.734,1.4c1.288.694,3.955,1.1,8.039,1.187V726.2h-8.039v-4.019h8.039v-1.766H101.9V707.768h6.654v-1.435h-5.532v-1.6h-2.635v-7.717H120.6ZM100,702.314l-3.247,3.2a34.482,34.482,0,0,0-4.534-6.4l3.021-2.589A38.837,38.837,0,0,1,100,702.314Zm8.549.658V701.04h-4.406v1.932Zm0,9.767v-1.927h-3.026v1.927Zm0,2.709h-3.026v1.927h3.026Zm3.886-12.476h4.4V701.04h-4.4Zm0,9.767h3.376v-1.927h-3.376Zm3.376,2.709h-3.376v1.927h3.376Z" transform="translate(-27.551 -696.239)" fill="gold"/>
  <path id="Path_31422" data-name="Path 31422" d="M100.506,707.071v-7.308h5.689v7.308Z" transform="translate(4.471 -684.578)" fill="gold"/>
  <path id="Path_31423" data-name="Path 31423" d="M111.379,697.4c-.193.818-.418,1.6-.612,2.258h2.184c-.258-.782-.515-1.518-.8-2.258l3.376-.943a21.273,21.273,0,0,1,.961,3.2h2.543v3.2h-3.247v1.766h2.506v3.2h-2.506v1.927h2.764v3.2h-2.764v1.927h3.371v3.366h-12.4v-9.561c-.419.653-.832,1.27-1.251,1.844l-1.288-4.8a25.782,25.782,0,0,0,3.918-9.276Zm18.961,22.125v3.205a22.894,22.894,0,0,1-5.817,5.293,51.7,51.7,0,0,0,9.188.823l-1.38,5.128a50.9,50.9,0,0,1-12.665-3.242,47.167,47.167,0,0,1-13.944,3.242l-1.513-5.3a52.52,52.52,0,0,0,10.347-.819,30.267,30.267,0,0,1-5.238-4.474h-2.957v-3.858ZM112.5,702.863h-2.249v1.766H112.5Zm0,4.967h-2.249v1.927H112.5Zm-2.249,7.059H112.5v-1.927h-2.249Zm9.161,11.492a19.749,19.749,0,0,0,4.916-2.994h-9.611A23.838,23.838,0,0,0,119.414,726.381ZM125.07,697.4c-.193.818-.359,1.559-.547,2.258h2.056c-.258-.7-.579-1.4-.9-2.092l3.536-.989a20.661,20.661,0,0,1,1.03,3.081h2.985v3.2h-3.4v1.766h2.764v3.2h-2.764v1.927h2.764v3.2h-2.764v1.927h3.537v3.366H120.407v-9.027c-.258.41-.51.819-.74,1.145l-1.122-4.475a27.7,27.7,0,0,0,3.5-9.437Zm1.38,5.459h-2.506v1.766h2.506Zm0,4.967h-2.506v1.927h2.506Zm-2.506,7.059h2.506v-1.927h-2.506Z" transform="translate(17.801 -696.461)" fill="gold"/>
  <path id="Path_31424" data-name="Path 31424" d="M119.566,700.548h3.891v4.346H111.178v-4.346h4.052c-.193-1.315-.418-2.465-.676-3.532l4.659-.492C119.345,697.876,119.437,699.233,119.566,700.548Zm2.635,6.241v4.185h-9.768v-4.185Zm0,6.116v4.144h-9.768V712.9Zm.129,20.354H118.7V731.5h-2.631V733.6h-3.633V719.141h9.9Zm-3.633-5.62v-4.309h-2.631v4.309Zm21.6-29.966v4.309h-7.62l-.382,2.75h6.618v7.841h2.12v4.475H123.1v-4.475h4.111l.483-3.527h-3.6v-4.314h4.176l.386-2.75h-4.82v-4.309Zm-1,36.082h-4.015v-1.927H128.5v1.927h-4.015V719.467H139.3Zm-4.015-6.117v-3.978H128.5v3.978Zm-.129-15.066v-3.527h-3.44l-.483,3.527Z" transform="translate(42.877 -696.239)" fill="gold"/>
  <path id="Path_31425" data-name="Path 31425" d="M141.9,718v2.874a31.379,31.379,0,0,1-5.721,3.2h10.991v4.185H135.117v2.709c-.166,1.931-1.255,2.916-3.279,2.916h-5.4l-.515-4.019c2.382.119,3.734.161,4.019.161.579,0,.9-.327.9-.984v-.782H118.272v-4.185H130.84v-.782a20.538,20.538,0,0,0,4.144-1.766H123.671V718Zm-13.562-17.489a28.568,28.568,0,0,1-4.723,1.108l.028,1.15h4.052V706.3H123.8l.06,1.6h3.826v1.853a12.245,12.245,0,0,0,2.764-1.315c-.773-.616-1.476-1.191-2.12-1.688l1.573-1.725c-.253.129-.515.207-.708.29l-1.251-3.362a12.278,12.278,0,0,0,2.7-1.15c-.773-.745-1.476-1.44-2.184-2.056l1.991-2.258c1.026.865,1.991,1.683,2.828,2.424a14.51,14.51,0,0,0,1.959-2.258l1.867,1.973v-1.15h8.807l-1.03,15.392h1.637v9.156h-3.886v-5.3H122.549v5.3h-3.891v-9.156H120.2l-.547-14.449a23.961,23.961,0,0,0,7.294-1.766Zm.225,12.357-.869-2.34v.9h-3.665l.064,1.439Zm6.424,0c-.736-.777-1.412-1.48-2.056-2.134a17.967,17.967,0,0,1-3.5,2.134Zm-1.991-6.406a10.917,10.917,0,0,0,1.416-1.517q-.773-.862-1.449-1.725a13.5,13.5,0,0,1-2.378,1.476C131.42,705.313,132.22,705.888,132.993,706.463Zm4.369,1.274h3.923l.1-1.435h-4.019v-3.371h4.245l.129-1.6h-4.626v-2.093a17.514,17.514,0,0,1-1.577,1.8c.579.616,1.095,1.191,1.577,1.725l-1.32,2.014,1.444,1.518a16.086,16.086,0,0,1-1.8,2.134c.708.653,1.352,1.228,1.927,1.761Zm3.5,5.132.129-1.6h-3.633v-.414l-1.315,2.014Z" transform="translate(68.407 -696.368)" fill="gold"/>
  <path id="Path_31426" data-name="Path 31426" d="M152.911,701.338H129.448v26.149h24.328v4.475H129.448V733.4h-4.019V696.7h27.482Zm-12.182,13.181v11.373H130.7V714.519Zm9.418-11.746v10.269H132.824V702.773ZM137.225,718.5H134.2v3.371h3.021Zm9.161-11.7h-9.8v2.258h9.8Zm5.914,7.722v11.373H142.113V714.519Zm-3.536,3.978h-3.118v3.371h3.118Z" transform="translate(94.164 -695.595)" fill="gold"/>
  <path id="Path_31427" data-name="Path 31427" d="M148.532,696.461v4.8H151.1a17.691,17.691,0,0,0,1.573-4.355l4.5.823a21.218,21.218,0,0,1-1.738,3.532h4.76V711.2H156.18v-5.79H136.35v5.79h-4.015v-9.933h4.723c-.483-1.113-1.062-2.216-1.7-3.366l4.144-1.15a19.952,19.952,0,0,1,1.927,4.516h2.7v-4.8Zm10.03,37.8h-3.891v-1.6H138.249v1.6h-3.923V717.6h24.236Zm-3.633-27.091V716H137.605v-8.829Zm-10.54,16.381v-2.1h-6.139v2.1Zm0,5.3v-2.092h-6.139v2.092Zm6.779-18.312h-9.8v2.093h9.8Zm-2.893,13.015h6.4v-2.1h-6.4Zm6.4,5.3v-2.092h-6.4v2.092Z" transform="translate(119.017 -696.461)" fill="gold"/>
  <path id="Path_31428" data-name="Path 31428" d="M146.631,701.428l-2.571,1.6h3.307v-6.562H150.9v6.563h2.6l-1.6-1.761a21.931,21.931,0,0,0,2.635-4.189l2.764,2.1a24.6,24.6,0,0,1-2,3.853h2.511v3.987h-4.341a34.056,34.056,0,0,1,5.206,2.746l-1.508,3.7a35.635,35.635,0,0,0-6.011-4.024l1.444-2.419h-1.7V714.4h-3.536v-4.879a17.863,17.863,0,0,1-4.755,3.647l2.893.455c-.064.575-.161,1.1-.225,1.6h3.858c.064,5.045-.612,9.032-2,11.906a18.388,18.388,0,0,1-5.394,6.692l-2.414-3.532a11.407,11.407,0,0,0,4.373-3.9,22.8,22.8,0,0,0-1.513-2.538c-.386.653-.773,1.269-1.219,1.927l-1.867-3.817a15.22,15.22,0,0,0,2.157-3.739,21.773,21.773,0,0,0,1.186-4.967c-.515.29-1.062.575-1.6.823l-1.61-3.983a13.713,13.713,0,0,0,6.075-3.076h-5.335v-3.987h3.182a26.887,26.887,0,0,0-2.184-4.35l2.893-1.269A23.809,23.809,0,0,1,146.631,701.428Zm-1.32,21.136a25.31,25.31,0,0,0,.58-3.527h-1.513c-.193.616-.386,1.15-.575,1.642a.148.148,0,0,0-.032.083C144.317,721.337,144.832,721.953,145.311,722.564Zm12.854-3.035h-1.605v5.3h1.991v4.024h-1.991v5.128h-3.15v-5.128h-4.659l.9-13.346h3.762v-2.217h3.15v2.217h1.605Zm-4.755,0h-.9l-.446,5.3h1.347Zm15.2-18.432c-.386,3.284-1,7.51-1.9,12.642a24.171,24.171,0,0,1,2.028,8.825c0,2.755-.418,4.723-1.255,5.873-.639,1.067-2.313,1.642-5.045,1.683v4.143h-3.5V698.057h9.676Zm-5.528,24.673c1.095-.042,1.669-1.113,1.734-3.206a23.479,23.479,0,0,0-2.12-8.825,91.24,91.24,0,0,0,2.023-11.042h-2.281v22.99A2.325,2.325,0,0,0,163.085,725.77Z" transform="translate(143.388 -696.461)" fill="gold"/>
  <path id="Path_31429" data-name="Path 31429" d="M166,711.348h9.676v4.516H166v3.2h8.554V732.7H170.4V731.09H158.576V732.7h-4.111V719.064h7.262v-3.2h-8.292a55.855,55.855,0,0,1-3.371,16.993L146.04,728.5q3.235-6.643,3.251-17.154V696.774h25.358v11.7H166Zm-12.435-10.1v2.745H170.4v-2.745Zm0,10.1h8.163v-2.874h-8.163ZM170.4,726.905v-3.532H158.576v3.532Z" transform="translate(168.339 -695.339)" fill="gold"/>
</svg>
