<?xml version="1.0" encoding="utf-8"?>
<!-- Generator: Adobe Illustrator 22.1.0, SVG Export Plug-In . SVG Version: 6.00 Build 0)  -->
<svg version="1.1" id="圖層_1" xmlns="http://www.w3.org/2000/svg" xmlns:xlink="http://www.w3.org/1999/xlink" x="0px" y="0px"
	 viewBox="0 0 240 240" style="enable-background:new 0 0 240 240;" xml:space="preserve">
<style type="text/css">
	.st0{fill:#FFFFFF;}
	.st1{fill:#72ADB6;}
</style>
<g id="section7_imgicon2" transform="translate(-4084 -13179)">
	<g id="字" transform="translate(4084.34 13021.427)">
		<circle id="Ellipse_345" class="st0" cx="119.7" cy="277.6" r="119"/>
		<g id="Group_6282" transform="translate(37.214 353.652)">
			<g id="Group_6281">
				<path id="Path_41599" class="st1" d="M6.5-144.2c-0.8,1.7-1.6,3.1-2.2,4.2c0.2,0.3,0.5,0.6,0.7,0.8c0.4-0.9,0.9-1.9,1.2-2.8
					l2.1,1.1v-2.3h1.8c0.2-0.7,0.4-1.4,0.5-2.2l2.6,0.7c-0.1,0.5-0.3,1-0.4,1.5h2.5v2.5l0.6-0.8c0.1,0.1,0.3,0.2,0.4,0.3
					c0.7-1.4,1.3-2.7,1.9-4.2l2.3,1.1c-0.8,1.8-1.6,3.4-2.3,4.7c0.2,0.2,0.4,0.4,0.6,0.6c0.6-1.1,1.2-2.2,1.7-3.3l2.4,1.2
					c-0.9,1.8-1.9,3.4-2.8,4.8l1.4-0.8c0.7,1.8,1.3,3.7,1.7,5.6l-2,1c-0.1-0.5-0.2-1-0.3-1.5c-1.8,0.4-3.7,0.7-5.6,1v0.3H8.3v-0.9
					l-1.6,0.8c0-0.3-0.1-0.5-0.1-0.8c-1.8,0.6-3.6,1.1-5.4,1.5l-0.5-3c0.4-0.1,0.8-0.1,1.1-0.2c0.6-1,1.2-2.1,1.8-3.1
					c-0.9-1.1-1.8-2.2-2.8-3.3l1.6-2.4c0.1,0.1,0.1,0.1,0.2,0.2c0.6-1.1,1.2-2.3,1.6-3.5L6.5-144.2z M10.1-128.9v-1.2h2.8v1.2h9.1
					v2.7h-6.7c0.7,0.5,1.5,0.9,2.2,1.3c1.6,0.8,3.4,1.4,5.1,1.8l-1.5,3.4c-2-0.7-3.9-1.8-5.6-3c-1-0.7-1.9-1.5-2.7-2.3v5.8h-2.8
					v-5.3c-0.7,0.6-1.4,1.2-2.1,1.7c-1.9,1.2-3.8,2.2-5.9,3l-1.3-2.7c1.7-0.5,3.4-1.2,5-2.1c0.8-0.4,1.6-0.9,2.3-1.5H1.4v-2.7
					L10.1-128.9z M5.7-135.3c-0.3,0.6-0.6,1.1-0.9,1.6c0.4-0.1,0.8-0.2,1.2-0.3C5.9-134.5,5.8-134.9,5.7-135.3L5.7-135.3z
					 M8.3-140.1c-0.8,1.5-1.5,2.9-2.2,4.1l1.2-0.6c0.4,1.3,0.7,2.6,0.9,4L8.3-140.1z M12.7-138.1v-2.2h-2v2.2H12.7z M12.7-133.4v-2
					h-2v2H12.7z M15.6-133.9c0.6-0.8,1.1-1.6,1.6-2.4c-0.6-0.6-1.3-1.2-1.9-1.8v4.2C15.3-133.9,15.4-133.9,15.6-133.9L15.6-133.9z
					 M19.7-135.7c-0.3,0.5-0.6,1-0.9,1.5c0.5,0,0.9-0.1,1.4-0.1C20-134.8,19.8-135.3,19.7-135.7L19.7-135.7z"/>
				<path id="Path_41600" class="st1" d="M46.9-135.2v3.1H44v8.7c0,1.6-0.3,2.7-0.7,3.2c-0.7,0.7-1.6,1-2.5,0.9
					c-1.1,0-2.2-0.2-3.2-0.5l-0.4-3.3h-7.2v1.2h-2.8v-9H38v7.8h-0.6c1.1,0.4,2.2,0.6,3.3,0.6c0.2,0,0.3-0.5,0.3-1.5v-8.1H25.3v-3.1
					L46.9-135.2z M34.4-143.5c0-0.4,0-1,0-1.9h2.6v1.9h9.1v3.1h-6.8l0,0c0.9,0.6,1.8,1,2.8,1.2c1.2,0.3,2.4,0.5,3.6,0.5l-1.3,3.1
					c-1.2-0.2-2.5-0.4-3.6-0.8c-1.9-0.6-3.5-1.7-4.6-3.3c-0.5,0.7-1,1.2-1.7,1.7c-2.1,1.2-4.4,2.1-6.9,2.5l-1.1-2.9
					c2.1-0.3,4.1-0.9,5.9-1.8c0.1-0.1,0.2-0.1,0.3-0.2H26v-3.1L34.4-143.5z M35.2-126v-1.9h-5.3v1.9H35.2z"/>
				<path id="Path_41601" class="st1" d="M61.1-145.2c2.9,3.6,6.5,6.4,10.6,8.3l-1.4,3.5c-1-0.4-1.9-0.9-2.8-1.4v1.9h-5.7v3.5h6.4
					v3.1h-6.4v3.5h8.8v3.1H50.4v-3.1H59v-3.5h-5.9v-3.1H59v-3.5h-5.7v-1.4c-0.7,0.4-1.4,0.8-2.2,1.2l-1.6-3.2c2-0.9,3.8-2,5.6-3.3
					c0.9-0.7,1.8-1.4,2.7-2.2h-3v-3.2L61.1-145.2z M65.7-136.1c-1.8-1.3-3.4-2.7-4.9-4.3c-1.2,1.2-2.4,2.4-3.7,3.5
					c-0.4,0.3-0.8,0.6-1.2,0.9H65.7z"/>
				<path id="Path_41602" class="st1" d="M81.1-145.3v1.6h3.8v2.9h-3.8v1h4.5v2.9h-1.3l1.4,0.9c-0.2,1.3-0.4,2-0.8,2.2
					c-0.2,0.2-0.4,0.2-0.6,0.2c-0.4,0.1-0.7,0.1-1.1,0.1c-0.6,0-1.1,0-1.6-0.2c-0.2,0-0.4-0.1-0.6-0.2v1.1h3.8v2.9H81v1
					c1.3-0.1,2.5-0.2,3.6-0.3l0.1,0.7c0.8-1.1,1.5-2.3,1.9-3.6c0.1-0.3,0.2-0.6,0.3-1c-0.5-0.4-1-0.8-1.5-1.2l1.7-2.1
					c0.1,0.1,0.2,0.2,0.3,0.3c0.1-0.9,0.2-1.9,0.2-3h-1.8v-2.9h1.8v-3.4h2.6v3.4h3.3v8.7c0,1.8,0,3.1,0.1,3.8c0,0.4,0.1,0.5,0.1,0.5
					s0.1-0.2,0.2-0.7c0.1-0.7,0.1-1.8,0.2-3.5l2,1c-0.2,2.6-0.5,4.4-1,5.2c-0.3,0.5-0.8,0.9-1.4,1c-0.7,0-1.4-0.4-1.8-1.1
					c-0.6-1.2-0.9-2.5-0.8-3.8l-0.9,1.3c-0.4-0.5-0.8-0.9-1.2-1.3c-0.1,0.2-0.1,0.5-0.2,0.6c-0.6,1.9-1.7,3.6-3.2,5l-1-1.2
					c-3.1,0.5-6.4,0.8-10,1.1l-0.5-3.2c1.4-0.1,2.8-0.1,4.1-0.2v-1.2h-3.5v-2.9h3.5v-1.4h2.4c-0.5-0.6-0.7-1.4-0.6-2.2v-0.6h-1
					c-0.1,0.3-0.2,0.5-0.3,0.8c-0.4,0.7-0.9,1.4-1.5,1.9c-0.6,0.5-1.3,0.9-2,1.2l-1.3-2.5c0.5-0.2,1-0.4,1.5-0.7
					c0.3-0.2,0.6-0.5,0.8-0.8h-2.1v-2.9h4.3v-1h-3.6v-2.9h3.6v-1.6L81.1-145.3z M78.2-124.2c-0.2,1.7-0.7,3.3-1.5,4.8l-2.8-1.7
					c0.7-1.2,1.2-2.5,1.4-3.9L78.2-124.2z M84.1-120.5l-3,0.9c-0.2-1.6-0.5-3.1-1-4.6l2.8-0.8C83.5-123.5,83.9-122,84.1-120.5
					L84.1-120.5z M82.7-136.8c0,0.5,0,0.8,0.1,0.8c0,0.1,0.1,0.1,0.3,0.1s0.3,0,0.4-0.1c0.1-0.2,0.1-0.3,0.1-0.5
					c0-0.1,0-0.3,0.1-0.4h-1V-136.8z M89.8-121l-2.9,1.5c-0.4-1.6-0.9-3.1-1.5-4.6l2.5-1.3C88.7-124.1,89.3-122.6,89.8-121L89.8-121
					z M91.1-133.3v-5.7h-0.9c0,1.6-0.2,3.3-0.4,4.9c0.4,0.4,0.9,0.8,1.3,1.2V-133.3z M95.9-121.4l-2.8,1.9c-0.6-1.6-1.3-3.1-2.3-4.5
					l2.4-1.8C94.3-124.4,95.2-122.9,95.9-121.4L95.9-121.4z"/>
				<path id="Path_41603" class="st1" d="M115.8-132.7c-1,2.3-2.4,4.4-4,6.2c2.7,1.7,5.6,2.9,8.6,3.7l-1.6,3.3
					c-3.3-1.1-6.5-2.8-9.3-4.8c-2.9,2.2-6.2,3.8-9.7,4.8l-1.4-3.4c3-0.7,5.8-1.9,8.4-3.6c-1.7-1.6-3.2-3.3-4.5-5.3l2.3-2
					c1.3,2,2.8,3.8,4.7,5.3c1.6-1.6,2.9-3.5,3.9-5.5L115.8-132.7z M110.7-145.5v2.8h8.9v3.2h-4.9c0.7,0.8,1.5,1.6,2.4,2.3
					c0.8,0.6,1.7,1.2,2.6,1.6l-1.6,3.4c-1-0.6-1.9-1.3-2.8-2.1c-1.1-1-2.1-2.1-3-3.2l1.9-1.9h-9.7l1.8,1.8c-0.8,1.2-1.7,2.2-2.8,3.2
					c-1,0.9-2.1,1.7-3.3,2.4l-1.5-3.1c1-0.5,2-1.2,2.9-2c0.8-0.7,1.6-1.4,2.3-2.3h-5.1v-3.2h8.8v-2.8L110.7-145.5z"/>
				<path id="Path_41604" class="st1" d="M125.4-140.8v-4.5h2.7v4.5h1.8v1.7c0.7-0.8,1.3-1.8,1.7-2.8c0.6-1.1,1.1-2.2,1.5-3.4
					l2.6,0.9c-0.1,0.3-0.2,0.5-0.3,0.8h6.1v2.9c-0.3,0.6-0.6,1.1-0.9,1.5h3.2v10.8h0.9v2.9h-4.9c0.1,0.3,0.3,0.5,0.5,0.7
					c0.5,0.6,1.1,1.1,1.8,1.5c0.8,0.5,1.7,0.9,2.6,1.2l-1.3,2.9c-1.2-0.5-2.4-1.2-3.4-2c-0.8-0.7-1.5-1.5-2.1-2.4
					c-0.1-0.2-0.2-0.4-0.3-0.6c-0.7,1.2-1.6,2.3-2.6,3.2c-1.2,0.9-2.6,1.5-4.1,1.8l-1.2-2.8c1.3-0.2,2.5-0.7,3.6-1.5
					c0.8-0.5,1.4-1.2,1.9-2h-5.1v-2.9h1.2v-8.7l-1.2-1.1v0.7h-1.8v4.3c0.6-0.2,1.2-0.5,1.8-0.8l0.4,2.7c-0.7,0.5-1.5,0.9-2.2,1.3
					v6.4c0.1,1.2-0.1,2.3-0.6,3.4c-0.6,0.7-1.6,1.1-2.6,1c-0.6,0-1.2-0.1-1.8-0.3l-0.5-3.4c0.6,0.3,1.2,0.4,1.9,0.4
					c0.3,0,0.5-0.1,0.6-0.4c0.1-0.5,0.2-1,0.2-1.5v-4.3c-0.6,0.3-1.2,0.5-1.7,0.7l-1-3.4c0.9-0.3,1.8-0.5,2.7-0.9v-5.3H123v-3.1
					L125.4-140.8z M137.5-139.2c0.3-0.5,0.6-1,0.8-1.6h-4.1c-0.1,0.2-0.2,0.4-0.3,0.6c-0.2,0.4-0.4,0.7-0.5,1H137.5z M136.8-136.3
					h-3.1v4.6C134.9-133.1,136-134.6,136.8-136.3L136.8-136.3z M136.1-128.4c0.1-0.6,0.2-1.2,0.2-1.8l2.6,0.3c0,0.5-0.1,1-0.1,1.5
					h2.6v-2.8l-1.3,1.9c-0.8-1-1.7-1.9-2.7-2.7c-0.5,0.9-1.2,1.8-1.9,2.6l-1.6-1.6v2.6L136.1-128.4z M141.3-132v-4.3h-3.5l1.3,0.9
					c-0.2,0.4-0.4,0.8-0.6,1.1C139.5-133.6,140.4-132.8,141.3-132L141.3-132z"/>
				<path id="Path_41605" class="st1" d="M157-144.9v7.5l2.2,1.4c-0.3,0.6-0.7,1.1-1,1.7h5.1c-0.7-0.5-1.3-1-1.9-1.5l0.7-0.9h-3.3
					v-8.2h8.8v8.2h-2.8c0.6,0.4,1.2,0.9,1.7,1.4l-0.7,1h2.9v2.9h-4.3c0.3,0.1,0.6,0.3,0.9,0.4c1.3,0.6,2.7,1,4.2,1.3l-1.4,3.2
					c-0.1-0.1-0.3-0.1-0.4-0.1v7.2H165v-0.5h-3.5v0.5h-2.7v-8.8h5.5c-0.4-0.2-0.8-0.5-1.2-0.8c-1.1-0.7-2-1.5-2.9-2.4h-4.3
					c-0.5,0.5-1,1-1.5,1.5c-0.8,0.6-1.6,1.2-2.5,1.7h5.3v8.8h-2.7v-0.5H151v0.5h-2.7v-7c-0.2,0.1-0.3,0.1-0.5,0.2l-1.2-2.7
					c1.6-0.6,3.1-1.4,4.6-2.4h-3.9v-2.9h7.1c0.6-0.7,1.2-1.5,1.7-2.4h-7.8v-8.2L157-144.9z M154.3-139.8v-2.2H151v2.2H154.3z
					 M154.5-122.8v-2.7H151v2.7H154.5z M164.9-139.8v-2.2h-3.5v2.2H164.9z M165-122.8v-2.7h-3.5v2.7H165z"/>
			</g>
		</g>
		<rect id="Rectangle_79" x="33.4" y="250.1" class="st1" width="172.5" height="1.8"/>
		<g id="Group_6283" transform="translate(32.866 413.45)">
			<path id="Path_41606" class="st1" d="M4.1-145.1c0.2,0.1,0.3,0.2,0.3,0.3c0,0.1-0.1,0.2-0.2,0.3c-0.2,0-0.3,0.1-0.4,0.3
				c-0.1,0.2-0.1,0.4-0.2,0.5h5.2c0.1,0,0.2,0.1,0.2,0.3v0.6c0,0.2-0.1,0.3-0.2,0.3H6.5c-0.1,0.9-0.1,1.6-0.2,2.2h3.2
				c0.1,0,0.2,0.1,0.2,0.3v0.6c0,0.2-0.1,0.3-0.2,0.3H6.3c0.3,0.3,0.6,0.6,0.9,0.8c0.5,0.4,1.1,0.7,1.8,1c0,0.2-0.1,0.3-0.1,0.3
				c-0.2,0.2-0.4,0.4-0.7,0.7c0,0-0.1,0-0.1,0c-0.4-0.2-0.8-0.4-1.1-0.7c-0.5-0.4-0.9-0.8-1.3-1.2c-0.2,0.3-0.3,0.7-0.6,1
				c-0.4,0.5-0.9,0.9-1.4,1.2c-0.6,0.4-1.3,0.7-1.9,1c-0.3-0.3-0.6-0.6-0.9-0.9c1.1-0.4,2.1-1,2.9-1.8c0.3-0.4,0.6-0.8,0.8-1.3H1.1
				c-0.1,0-0.2-0.1-0.2-0.3v-0.6c0-0.2,0.1-0.3,0.2-0.3h3.8c0.1-0.7,0.2-1.4,0.3-2.2H3c-0.2,0.4-0.5,0.9-0.8,1.3
				c-0.1,0.2-0.2,0.2-0.3,0.2c-0.1,0-0.2,0-0.3-0.1c-0.3-0.1-0.5-0.2-0.7-0.3c-0.1,0-0.1-0.1-0.1-0.1c0-0.1,0-0.1,0.1-0.2
				c0.4-0.5,0.8-1.1,1.1-1.6c0.4-0.6,0.6-1.2,0.8-1.8c0.1-0.2,0.1-0.3,0.2-0.3L4.1-145.1z M14-136.2c0.2,0,0.3,0.1,0.3,0.2v7.3
				c0,0.1-0.1,0.2-0.3,0.2h-0.7c-0.2,0-0.3-0.1-0.3-0.2v-0.6H5.3v0.6c0,0.1-0.1,0.2-0.3,0.2H4.3c-0.2,0-0.3-0.1-0.3-0.2v-7.3
				c0-0.2,0.1-0.3,0.3-0.3L14-136.2z M13-133.4v-1.7H5.3v1.7H13z M13-130.5v-1.7H5.3v1.7H13z M16.6-144.1c0.2,0,0.3,0.1,0.3,0.2v6.5
				c0,0.1-0.1,0.2-0.3,0.2h-0.7c-0.2,0-0.3-0.1-0.3-0.2v-0.5h-3.8v0.6c0,0.2-0.1,0.2-0.3,0.2h-0.7c-0.2,0-0.3-0.1-0.3-0.2v-6.6
				c0-0.1,0.1-0.3,0.2-0.3c0,0,0,0,0.1,0L16.6-144.1z M15.5-139v-4h-3.8v4H15.5z"/>
			<path id="Path_41607" class="st1" d="M23.8-144.4v-0.8c0-0.1,0.1-0.1,0.2-0.1c0.9,0,1.3,0.1,1.3,0.2c0,0.2-0.1,0.3-0.1,0.3
				c-0.1,0-0.2,0.1-0.2,0.3v0.1h2.8c0.1,0,0.1,0.1,0.1,0.2v0.6c0,0.2-0.1,0.3-0.1,0.3H25v0.9h2.6c0.1,0,0.1,0.1,0.1,0.2v0.6
				c0,0.2-0.1,0.3-0.1,0.3H25v1.1c0.9-0.1,1.8-0.2,2.7-0.2l0.1,0c0.1,0,0.1,0.1,0.1,0.1c0,0,0,0,0,0c0,0.3,0,0.6-0.1,0.9
				c-1,0.1-1.9,0.2-2.9,0.2v0.4c0,0.1-0.1,0.2-0.3,0.2H24c-0.1,0-0.2-0.1-0.2-0.2v-0.3c-0.8,0.1-1.6,0.1-2.4,0.2
				c-0.1,0.3-0.3,0.4-0.4,0.4c-0.1,0-0.3-0.5-0.6-1.4c0.9,0,2.1-0.1,3.4-0.2v-1.2h-2.6c-0.1,0-0.1-0.1-0.1-0.3v-0.6
				c0-0.1,0-0.2,0.1-0.2h2.6v-0.9h-2.8c-0.1,0-0.1-0.1-0.1-0.3v-0.6c0-0.1,0-0.2,0.1-0.2L23.8-144.4z M23.3-131.7
				c0.2,0.1,0.3,0.2,0.3,0.3s-0.1,0.1-0.2,0.2c-0.1,0-0.3,0.1-0.3,0.2c-0.4,0.8-0.8,1.5-1.3,2.2c-0.1,0.1-0.1,0.1-0.2,0.2
				c-0.1,0-0.2-0.1-0.3-0.1c-0.2-0.1-0.5-0.2-0.7-0.3c-0.1,0-0.1,0-0.1-0.1c0-0.1,0-0.1,0.1-0.1c0.3-0.4,0.7-0.8,0.9-1.2
				c0.3-0.4,0.5-0.9,0.7-1.4c0-0.1,0.1-0.2,0.2-0.2L23.3-131.7z M34.1-138c0.2,0,0.3,0.1,0.3,0.2v1.6h1.8c0.1,0,0.1,0.1,0.1,0.2v0.6
				c0,0.2-0.1,0.3-0.1,0.3h-1.8v1.6c0,0.2-0.1,0.3-0.3,0.3H22.6c-0.1,0-0.2-0.1-0.2-0.3v-0.6c0-0.1,0-0.2,0.2-0.2h10.5v-0.9H21
				c-0.1,0-0.1-0.1-0.1-0.3v-0.6c0-0.1,0-0.2,0.1-0.2h12.1v-0.8H22.6c-0.1,0-0.2-0.1-0.2-0.3v-0.6c0-0.2,0-0.2,0.2-0.2L34.1-138z
				 M25.8-132.3c0.1,0,0.2,0,0.2,0.1c0,0.1,0,0.2-0.1,0.2c-0.1,0-0.1,0.1-0.1,0.2v1.1c0,0.5,0.3,0.8,0.9,0.8h3.5
				c0.7,0,1-0.1,1.2-0.2c0.3-0.4,0.5-0.9,0.6-1.4c0.2,0.3,0.4,0.5,0.7,0.6c0.1,0.1,0.2,0.1,0.2,0.2c-0.1,0.6-0.4,1.1-0.8,1.6
				c-0.3,0.3-0.7,0.4-1.1,0.3h-4.5c-1.3,0-2-0.4-2-1.2v-2.4c0-0.1,0-0.2,0.1-0.2L25.8-132.3z M28.6-132.4c0.6,0.4,1.1,0.8,1.6,1.3
				c0,0.2,0,0.3-0.1,0.3c-0.3,0.2-0.6,0.4-1,0.4c-0.4-0.5-0.9-1-1.4-1.5c0-0.1,0.3-0.3,0.8-0.6C28.6-132.5,28.6-132.5,28.6-132.4
				L28.6-132.4z M32-144.4v-0.8c0-0.1,0.1-0.1,0.2-0.1c0.8,0,1.3,0.1,1.3,0.2c0,0.2-0.1,0.3-0.1,0.3s-0.1,0.1-0.1,0.3v0.1h2.9
				c0.1,0,0.1,0.1,0.1,0.2v0.6c0,0.2-0.1,0.3-0.1,0.3h-2.9v0.9h2.5c0.1,0,0.1,0.1,0.1,0.2v0.6c0,0.2-0.1,0.3-0.1,0.3h-2.5v0.9h3.2
				c0.1,0,0.1,0.1,0.1,0.2v0.6c0,0.2-0.1,0.3-0.1,0.3h-3.2v0.5c0,0.1-0.1,0.2-0.3,0.2h-0.7c-0.1,0-0.2-0.1-0.2-0.2c0,0,0,0,0,0v-0.5
				h-2.9c-0.1,0-0.1-0.1-0.1-0.3v-0.6c0-0.1,0-0.2,0.1-0.2H32v-0.9h-2.6c-0.1,0-0.1-0.1-0.1-0.3v-0.6c0-0.1,0-0.2,0.1-0.2H32v-0.9
				h-2.9c-0.1,0-0.1-0.1-0.1-0.3v-0.6c0-0.1,0-0.2,0.1-0.2L32-144.4z M34.3-132.3c0.8,0.7,1.6,1.5,2.2,2.4c0,0.2,0,0.3-0.1,0.3
				c-0.3,0.2-0.6,0.4-1,0.4c-0.6-0.9-1.3-1.8-2.1-2.6c0-0.1,0.3-0.3,0.8-0.6C34.2-132.3,34.2-132.3,34.3-132.3L34.3-132.3z"/>
			<path id="Path_41608" class="st1" d="M45.8-144.2c0,0.1-0.1,0.2-0.1,0.2c-0.2,0-0.3,0.1-0.4,0.2c-0.4,1.1-1,2.2-1.6,3.3v12.1
				c0,0.1-0.1,0.2-0.3,0.2h-0.7c-0.2,0-0.3-0.1-0.3-0.2v-10.2c-0.4,0.6-1,1.2-1.7,2c-0.1,0-0.3-0.1-0.4-0.2
				c-0.2-0.2-0.4-0.3-0.6-0.5c-0.1,0-0.1-0.1-0.1-0.2c0.6-0.6,1.1-1.2,1.7-1.8c0.7-0.9,1.4-1.8,1.9-2.8c0.4-0.9,0.8-1.8,1.1-2.7
				c0-0.1,0.1-0.1,0.1-0.1C44.8-144.9,45.3-144.6,45.8-144.2z M50.8-145c0,0.2-0.1,0.3-0.2,0.3s-0.2,0.2-0.2,0.4v0.4H56
				c0.1,0,0.2,0.1,0.2,0.3v0.6c0,0.2-0.1,0.3-0.2,0.3h-5.5v1.5h4.4c0.2,0,0.3,0.1,0.3,0.2v9.3c0,0.1-0.1,0.2-0.3,0.2H53
				c0.4,0.4,0.8,0.8,1.3,1.1c0.5,0.4,1.1,0.7,1.7,0.9c0.1,0.1,0.2,0.1,0.2,0.2c-0.2,0.4-0.5,0.7-0.8,0.9c-0.1,0-0.1,0-0.2-0.1
				c-1.2-0.6-2.2-1.4-3.1-2.4c-0.1,0-0.1-0.1-0.1-0.2c0-0.1,0.1-0.3,0.5-0.6h-3.6l0.5,0.4c0.1,0.1,0.1,0.2,0.1,0.3
				c0,0-0.1,0.1-0.1,0.1c-0.1,0-0.2,0.1-0.4,0.1c-0.4,0.4-0.8,0.8-1.2,1.1c-0.6,0.4-1.3,0.8-1.9,1.2c-0.2,0-0.3-0.1-0.3-0.1
				c-0.3-0.2-0.5-0.4-0.6-0.5c-0.1,0-0.1-0.1-0.1-0.1c0,0,0-0.1,0.1-0.1c0.3-0.1,0.6-0.2,0.9-0.4c0.5-0.3,0.9-0.6,1.3-1
				c0.3-0.3,0.6-0.6,0.9-0.9h-1.8c-0.2,0-0.3-0.1-0.3-0.2v-9.3c0-0.1,0.1-0.2,0.3-0.2h2.9v-3.7c0-0.1,0.1-0.2,0.3-0.2
				C50.4-145.2,50.8-145.2,50.8-145L50.8-145z M53.8-138.4v-1.8h-6.5v1.8H53.8z M53.8-135.6v-1.7h-6.5v1.7H53.8z M53.8-134.4h-6.5
				v1.6h6.6L53.8-134.4z"/>
			<path id="Path_41609" class="st1" d="M61.2-139.8c0.4,0.4,0.8,0.7,1.1,1c0,0,0,0.1-0.1,0.1c-0.4,0.5-0.6,0.8-0.6,0.8
				c-0.5-0.4-1-0.9-1.6-1.2c-0.4-0.2-0.7-0.5-1.1-0.6c0.2-0.3,0.3-0.6,0.6-0.8c0-0.1,0.1-0.1,0.1-0.1
				C60.3-140.4,60.8-140.1,61.2-139.8z M62.4-135.8c0.2,0.4,0.3,0.7,0.4,1.1c0,0.1,0,0.2-0.1,0.2c-0.5,1.3-0.9,2.4-1.3,3.4
				c-0.2,0.5-0.5,1.1-0.9,1.7c-0.1,0.2-0.1,0.4-0.1,0.6c0,0.2-0.1,0.2-0.1,0.2c-0.1,0-0.5-0.4-1.2-1.2c-0.1,0-0.1-0.1-0.1-0.2
				c0-0.1,0-0.2,0.1-0.2c0.3-0.4,0.6-0.8,0.9-1.2c0.4-0.7,0.8-1.5,1.2-2.3c0.3-0.7,0.6-1.4,0.9-2c0-0.1,0.1-0.1,0.1-0.1
				S62.3-135.9,62.4-135.8L62.4-135.8z M61.8-144.2c0.4,0.3,0.8,0.6,1.1,0.9c0,0.1-0.1,0.1-0.1,0.1c-0.2,0.3-0.4,0.5-0.6,0.8
				c-0.5-0.4-1-0.8-1.5-1.1c-0.3-0.2-0.7-0.4-1.1-0.6c0.2-0.3,0.3-0.6,0.6-0.8c0.1-0.1,0.1-0.1,0.2-0.1
				C60.9-144.7,61.4-144.4,61.8-144.2L61.8-144.2z M65.9-131.4c0.1,0.1,0.1,0.2,0.1,0.2c0,0.1,0,0.1-0.1,0.1c0,0,0,0,0,0
				c-0.1,0-0.2,0-0.3,0.1c-0.3,0.4-0.6,0.8-0.9,1.2c-0.4,0.5-0.9,0.9-1.5,1.2c-0.1,0-0.2,0-0.3-0.2c-0.3-0.2-0.5-0.4-0.7-0.5
				c-0.1,0-0.1-0.1-0.1-0.1c0,0,0-0.1,0.1-0.1c0.2-0.1,0.5-0.3,0.7-0.4c0.4-0.3,0.7-0.6,1-1c0.2-0.3,0.5-0.7,0.8-1.2
				c0-0.1,0.1-0.1,0.1-0.1L65.9-131.4z M69-144.4c0.2,0,0.3,0.1,0.3,0.2v11.5c0,0.1-0.1,0.2-0.3,0.2h-4.9c-0.2,0-0.3-0.1-0.3-0.2
				v-11.5c0-0.1,0.1-0.2,0.3-0.2L69-144.4z M68-140.9v-2.4h-2.9v2.4H68z M68-137.3v-2.4h-2.9v2.4H68z M68-136.2h-2.9v2.5H68
				L68-136.2z M69.2-130.7c0.4,0.4,0.8,0.7,1.2,1c0,0.1,0.1,0.1,0.1,0.2c0,0.1-0.3,0.4-0.8,0.9c0,0-0.1,0-0.1-0.1
				c-0.9-0.7-1.6-1.6-2.2-2.6c0-0.1-0.1-0.1-0.1-0.2c0-0.1,0.3-0.4,0.8-0.9C68.4-131.7,68.8-131.1,69.2-130.7z M72.7-143.3
				c0,0.2-0.1,0.3-0.2,0.3c-0.1,0-0.2,0.1-0.2,0.4v10.3c0,0.1-0.1,0.2-0.3,0.2h-0.7c-0.2,0-0.3-0.1-0.3-0.2v-10.9
				c0-0.1,0.1-0.2,0.3-0.2C72.3-143.5,72.8-143.4,72.7-143.3L72.7-143.3z M75.8-145c0.1,0.1,0.2,0.1,0.2,0.2c0,0.1-0.1,0.2-0.2,0.2
				c-0.3,0.1-0.4,0.4-0.4,0.8v14c0,0.9-0.6,1.3-1.9,1.3h-0.9c-0.1,0-0.2-0.1-0.2-0.3c-0.1-0.3-0.2-0.6-0.4-0.8c0-0.1,0-0.1,0.1-0.1
				c0.4,0.1,0.8,0.1,1.2,0.1c0.5,0,0.8-0.2,0.8-0.6v-13.6c0-0.3,0-0.5-0.1-0.8c-0.1-0.1-0.1-0.2-0.1-0.4c0-0.1,0.1-0.1,0.4-0.1
				L75.8-145z"/>
			<path id="Path_41610" class="st1" d="M84.5-142.2c0.1,0,0.2,0.1,0.2,0.3v0.6c0,0.2-0.1,0.3-0.2,0.3H79c-0.1,0-0.2-0.1-0.2-0.3
				v-0.6c0-0.2,0.1-0.3,0.2-0.3H84.5z M83.8-134.3c0.2,0,0.3,0.1,0.3,0.2v4.8c0,0.1-0.1,0.2-0.3,0.2H83c-0.1,0-0.2-0.1-0.2-0.2v-0.5
				h-2.4v0.5c0,0.1-0.1,0.2-0.3,0.2h-0.7c-0.1,0-0.2-0.1-0.2-0.2v-4.8c0-0.1,0.1-0.2,0.2-0.2H83.8z M83.9-144.7
				c0.1,0,0.2,0.1,0.2,0.3v0.6c0,0.2-0.1,0.3-0.2,0.3h-4.4c-0.1,0-0.2-0.1-0.2-0.3v-0.6c0-0.2,0.1-0.3,0.2-0.3H83.9z M83.9-139.6
				c0.1,0,0.2,0.1,0.2,0.3v0.6c0,0.2-0.1,0.3-0.2,0.3h-4.4c-0.1,0-0.2-0.1-0.2-0.3v-0.6c0-0.2,0.1-0.3,0.2-0.3H83.9z M83.9-136.9
				c0.1,0,0.2,0.1,0.2,0.3v0.6c0,0.2-0.1,0.3-0.2,0.3h-4.4c-0.1,0-0.2-0.1-0.2-0.3v-0.6c0-0.2,0.1-0.3,0.2-0.3H83.9z M82.8-130.9
				v-2.4h-2.4v2.4L82.8-130.9z M94.6-144.7c0.2,0,0.4,0.1,0.4,0.3v13.8c0,0.6-0.4,1.1-0.9,1.3c-0.7,0.3-1.4,0.4-2.1,0.5
				c-0.1,0-0.2-0.1-0.2-0.2c0,0,0,0,0,0c-0.1-0.4-0.2-0.8-0.4-1.1c0-0.1,0.1-0.1,0.2-0.1c0.6,0.1,1.3,0,1.9-0.2
				c0.2-0.1,0.4-0.4,0.4-0.7v-12.6h-6.8v5.2c0,1.6-0.1,3.2-0.2,4.8c-0.1,1-0.3,2-0.6,3c-0.2,0.6-0.4,1.2-0.7,1.7c-0.1,0-0.1,0-0.2,0
				c-0.2-0.2-0.4-0.3-0.7-0.5c-0.1-0.1-0.1-0.1-0.1-0.2c0.3-0.7,0.5-1.4,0.7-2.1c0.2-1,0.3-1.9,0.4-2.9c0.1-1,0.1-2.3,0.1-3.8v-6
				c0-0.1,0.1-0.2,0.2-0.2c0,0,0,0,0.1,0L94.6-144.7z M89.7-141.5v-1.3c0-0.1,0.1-0.2,0.3-0.2c0.9,0,1.4,0.1,1.4,0.2
				c0,0.2-0.1,0.3-0.2,0.3c-0.1,0-0.2,0.1-0.2,0.4v0.7h1.9c0.1,0,0.1,0.1,0.1,0.2v0.6c0,0.1-0.1,0.2-0.1,0.2H91v1.7h2.1
				c0.1,0,0.1,0.1,0.1,0.2v0.6c0,0.2-0.1,0.2-0.1,0.2h-5.7c-0.1,0-0.1-0.1-0.1-0.2v-0.6c0-0.2,0-0.2,0.1-0.2h2.2v-1.7h-1.9
				c-0.1,0-0.1-0.1-0.1-0.2v-0.6c0-0.1,0-0.2,0.1-0.2L89.7-141.5z M92.5-136.4c0.2,0,0.3,0.1,0.3,0.2v4.6c0,0.1-0.1,0.2-0.3,0.2
				h-0.6c-0.2,0-0.3-0.1-0.3-0.2v-0.6H89v0.6c0,0.1-0.1,0.2-0.3,0.2h-0.6c-0.2,0-0.3-0.1-0.3-0.2v-4.6c0-0.1,0.1-0.2,0.3-0.2H92.5z
				 M91.6-133.1v-2.2H89v2.2H91.6z"/>
			<path id="Path_41611" class="st1" d="M102.2-144.7c0.1,0.1,0.2,0.2,0.2,0.2c0,0.2-0.1,0.2-0.3,0.2c-0.1,0-0.2,0.1-0.3,0.2
				c-0.1,0.3-0.3,0.5-0.4,0.8h4.8c0.1,0,0.1,0.1,0.1,0.2v0.6c0,0.2-0.1,0.3-0.1,0.3h-2.6c0.4,0.4,0.8,0.8,1.2,1.2
				c0,0.2,0,0.3-0.1,0.3c-0.3,0.2-0.6,0.3-0.9,0.4c-0.5-0.6-1-1.3-1.6-1.9h-1.4c-0.1,0.2-0.2,0.3-0.3,0.4c-0.3,0.3-0.5,0.6-0.8,0.9
				c-0.2,0.2-0.4,0.4-0.7,0.6c-0.1,0-0.2-0.1-0.3-0.2c-0.1-0.2-0.3-0.4-0.5-0.6c-0.1-0.1-0.2-0.1-0.2-0.2c0,0,0,0,0.1-0.1
				c0.3-0.2,0.6-0.4,0.9-0.7c0.4-0.4,0.7-0.8,1-1.2c0.2-0.3,0.4-0.6,0.6-0.9c0.1-0.3,0.3-0.7,0.4-1c0-0.1,0.1-0.1,0.1-0.1
				L102.2-144.7z M105.9-139.7c0.2,0,0.3,0.1,0.3,0.2v5.2c0,0.1-0.1,0.3-0.2,0.3c0,0,0,0-0.1,0h-5.3v3.5l0.8-0.2
				c1.1-0.3,2-0.6,3-0.9c-0.2-0.4-0.5-0.8-0.7-1.2c0-0.1,0.3-0.3,0.9-0.6c0.5,0.7,0.9,1.5,1.3,2.2c0.3,0.6,0.6,1.3,0.8,2
				c-0.4,0.2-0.8,0.3-1.2,0.4c-0.1-0.6-0.3-1.2-0.6-1.7c0-0.1-0.1-0.1-0.1-0.2c-1.8,0.6-3.7,1.2-5.5,1.7c-0.2,0.3-0.3,0.5-0.4,0.5
				s-0.3-0.5-0.7-1.5c0.3-0.1,0.7-0.1,1.1-0.2v-9.3c0-0.2,0.1-0.2,0.3-0.2L105.9-139.7z M104.9-137.4v-1.2h-4.2v1.2H104.9z
				 M104.9-135.1v-1.2h-4.2v1.2H104.9z M110.1-144.7c0.1,0.1,0.2,0.2,0.2,0.2c0,0.2-0.1,0.2-0.3,0.2c-0.1,0-0.2,0.1-0.3,0.2
				c-0.1,0.2-0.2,0.4-0.3,0.6h5c0.1,0,0.1,0.1,0.1,0.2v0.6c0,0.2-0.1,0.3-0.1,0.3h-2.6c0.4,0.4,0.8,0.8,1.2,1.3
				c0,0.2-0.1,0.3-0.1,0.3c-0.3,0.2-0.6,0.4-1,0.4c-0.5-0.7-1-1.4-1.6-2h-1.5c-0.2,0.3-0.3,0.5-0.5,0.7c-0.2,0.3-0.5,0.6-0.8,0.9
				c-0.2,0.2-0.4,0.4-0.6,0.6c-0.1,0-0.2-0.1-0.3-0.2c-0.1-0.2-0.3-0.4-0.5-0.6c-0.1-0.1-0.2-0.1-0.2-0.2c0,0,0,0,0-0.1
				c0.3-0.2,0.6-0.4,0.9-0.7c0.4-0.4,0.7-0.8,1-1.3c0.2-0.3,0.4-0.6,0.5-0.9c0.1-0.3,0.3-0.7,0.4-1.1c0-0.1,0.1-0.1,0.1-0.1
				L110.1-144.7z M109-128.8c0,0.2-0.1,0.2-0.3,0.2H108c-0.2,0-0.3-0.1-0.3-0.2v-10.8c0-0.1,0.1-0.2,0.3-0.2h5.1
				c0.2,0,0.3,0.1,0.3,0.2v7.7c0,0.4,0,0.9-0.3,1.2c0,0.3-0.8,0.6-2.1,0.8c-0.2,0-0.4-0.1-0.4-0.3c-0.1-0.2-0.1-0.5-0.3-1
				c1.1-0.1,1.7-0.3,1.7-0.8v-6.8H109L109-128.8z"/>
			<path id="Path_41612" class="st1" d="M125.1-133.4v-1.4c0-0.2,0.1-0.2,0.3-0.2c0.9,0,1.4,0.1,1.4,0.2s-0.1,0.3-0.2,0.3
				s-0.2,0.1-0.2,0.4v0.8h5.2c0.1,0,0.2,0.1,0.2,0.3v0.6c0,0.2-0.1,0.3-0.2,0.3h-5.2v2h7.3c0.1,0,0.2,0.1,0.2,0.3v0.6
				c0,0.2-0.1,0.3-0.2,0.3h-16c-0.1,0-0.2-0.1-0.2-0.3v-0.6c0-0.2,0.1-0.3,0.2-0.3h7.4v-2h-5.3c-0.1,0-0.2-0.1-0.2-0.3v-0.6
				c0-0.2,0.1-0.3,0.2-0.3L125.1-133.4z M126.7-144.9c0,0.2-0.1,0.3-0.2,0.3s-0.2,0.1-0.2,0.4v0.7h6.8c0.2,0,0.3,0.1,0.3,0.2v3.6
				c0,0.1-0.1,0.2-0.3,0.2h-0.7c-0.2,0-0.3-0.1-0.3-0.2v-2.6h-13v2.6c0,0.1-0.1,0.2-0.3,0.2h-0.7c-0.2,0-0.3-0.1-0.3-0.2v-3.5
				c0-0.2,0.1-0.3,0.3-0.3h6.9v-1.4c0-0.2,0.1-0.2,0.3-0.2C126.3-145.2,126.7-145.1,126.7-144.9L126.7-144.9z M131-140.6
				c0.1,0,0.2,0.1,0.2,0.3v0.6c0,0.2-0.1,0.3-0.2,0.3h-6.2c-1,1.3-1.7,2.3-2.1,2.9c2.1-0.2,4.4-0.3,6.7-0.6
				c-0.4-0.3-0.8-0.6-1.2-0.9c0.2-0.3,0.3-0.6,0.6-0.8c0.1-0.1,0.1-0.1,0.1-0.1c0.7,0.5,1.5,1.1,2.1,1.8c0.7,0.7,1.2,1.3,1.7,1.8
				c0,0.1-0.1,0.1-0.1,0.1c-0.4,0.5-0.5,0.8-0.6,0.8c-0.5-0.6-1-1.2-1.6-1.7c-3.6,0.4-7,0.7-10.1,0.8c-0.1,0-0.2,0.1-0.3,0.3
				c0,0.4-0.1,0.5-0.3,0.5s-0.5-0.6-0.9-1.9c0.3,0,1,0,1.9-0.1c0.1,0,0.2,0,0.3,0c0.1-0.1,0.2-0.3,0.3-0.4c0.7-0.9,1.4-1.8,1.9-2.6
				h-3c-0.1,0-0.2-0.1-0.2-0.3v-0.6c0-0.2,0.1-0.3,0.2-0.3L131-140.6z"/>
			<path id="Path_41613" class="st1" d="M144.7-141.6c-0.1-0.7-0.2-1.4-0.2-2.2h-2.8c-0.2,0-0.2-0.1-0.2-0.3v-0.6
				c0-0.2,0.1-0.3,0.2-0.3h3.7c0.2,0,0.3,0.1,0.3,0.2c0,1,0.1,2.1,0.2,3.1h5.9c0.2,0,0.4,0.1,0.4,0.3v11.2c0,0.5-0.3,0.9-0.8,1.1
				c-0.6,0.2-1.3,0.4-1.9,0.4c-0.1,0-0.2-0.1-0.2-0.2c-0.1-0.4-0.2-0.8-0.4-1.1c0-0.1,0.1-0.1,0.2-0.1c0.5,0.1,1.1,0,1.6-0.2
				c0.2-0.1,0.3-0.3,0.3-0.5v-3.3l-0.1,0c-0.2,0.2-0.4,0.4-0.6,0.6c-0.1,0.1-0.2,0.1-0.4,0.1c-0.6-0.3-1.2-0.7-1.6-1.2
				c-0.8-0.7-1.4-1.6-1.9-2.5c-0.4-0.6-0.7-1.3-0.9-2c-0.1,0.3-0.3,0.6-0.5,0.8c-0.4,0.7-0.9,1.5-1.4,2.2c-0.6,0.7-1.1,1.3-1.8,1.9
				c-0.4,0.4-0.9,0.7-1.4,1c-0.1,0-0.2-0.1-0.3-0.3c-0.2-0.2-0.4-0.5-0.7-0.7c0,0-0.1-0.1-0.1-0.1v5.5c0,0.1-0.1,0.2-0.3,0.2h-0.7
				c-0.2,0-0.3-0.1-0.3-0.2v-12.7c0-0.1,0.1-0.3,0.2-0.3c0,0,0,0,0.1,0L144.7-141.6z M141.5-135.9c0.7-0.6,1.3-1.4,1.8-2.1
				c0.5-0.8,0.9-1.6,1.3-2.5h-5.3v6.1C140.1-134.8,140.8-135.3,141.5-135.9z M147.2-137.7c0.4,0.8,1,1.6,1.8,2.2
				c0.5,0.5,1.1,0.9,1.8,1.2c0,0,0.1,0.1,0.1,0.1v-6.2h-4.7C146.3-139.5,146.7-138.6,147.2-137.7L147.2-137.7z"/>
			<path id="Path_41614" class="st1" d="M170.7-135.4c0.2,0,0.2,0.1,0.2,0.3v0.6c0,0.2-0.1,0.3-0.2,0.3h-5.2v4h7
				c0.1,0,0.2,0.1,0.2,0.3v0.6c0,0.2-0.1,0.3-0.2,0.3h-15.6c-0.1,0-0.2-0.1-0.2-0.3v-0.6c0-0.2,0.1-0.3,0.2-0.3h7.3v-4H159
				c-0.1,0-0.2-0.1-0.2-0.3v-0.6c0-0.2,0.1-0.3,0.2-0.3H170.7z M165.7-144.9c0,0.2-0.1,0.3-0.2,0.3c-0.1,0-0.2,0.1-0.2,0.4v0.9h6.6
				c0.2,0,0.3,0.1,0.3,0.2v2.9c0,0.2-0.1,0.2-0.3,0.2h-0.7c-0.2,0-0.3-0.1-0.3-0.2v-2h-4v3.4c0,0.5,0.3,0.8,1,0.8h2.1
				c0.3,0,0.7,0,1-0.2c0.2-0.1,0.3-0.4,0.4-1c0-0.1,0.1-0.1,0.2-0.1c0.3,0.2,0.7,0.3,1.1,0.3c0.1,0,0.2,0.1,0.2,0.2
				c-0.1,0.6-0.5,1.2-0.9,1.6c-0.4,0.2-0.8,0.3-1.3,0.3h-3.4c-1.1,0-1.7-0.4-1.7-1.2v-4.2h-2.9l0.9,0.4c0.1,0.1,0.2,0.2,0.2,0.3
				c0,0.1-0.1,0.1-0.2,0.1c-0.1,0-0.2,0.1-0.3,0.2c-0.3,0.6-0.7,1.2-1.1,1.8c-0.4,0.7-1,1.3-1.6,1.8c-0.6,0.5-1.2,0.9-1.9,1.2
				c-0.4,0.2-0.7,0.3-1.1,0.5c-0.2,0-0.3,0-0.3-0.1c-0.2-0.3-0.4-0.6-0.6-0.9c0.6-0.2,1.1-0.4,1.7-0.7c0.6-0.4,1.2-0.8,1.7-1.3
				c0.5-0.4,1-1,1.4-1.6c0.3-0.5,0.6-1,0.8-1.6h-4.2v2.3c0,0.1-0.1,0.2-0.3,0.2h-0.7c-0.2,0-0.3-0.1-0.3-0.2v-3.1
				c0-0.1,0.1-0.3,0.2-0.3c0,0,0,0,0.1,0h6.9v-1.6c0-0.1,0.1-0.2,0.3-0.2C165.2-145.1,165.7-145,165.7-144.9L165.7-144.9z"/>
			<path id="Path_41615" class="st1" d="M4.3-119.1c0.1,0.1,0.2,0.2,0.2,0.3c0,0.1,0,0.2-0.1,0.2c-0.1,0-0.2,0.1-0.2,0.2
				c0,0.1-0.1,0.2-0.1,0.3h11.8c0.1,0,0.1,0.1,0.1,0.2v0.6c0,0.2-0.1,0.3-0.1,0.3H3.7c-0.1,0.2-0.1,0.3-0.2,0.4
				c-0.2,0.4-0.5,0.9-0.7,1.3c-0.3,0.3-0.5,0.7-0.8,1c-0.1,0-0.3,0-0.4-0.1l-0.7-0.3c-0.1,0-0.1-0.1-0.1-0.1c0-0.1,0-0.1,0.1-0.1
				c0.5-0.5,0.9-1,1.2-1.6c0.2-0.4,0.4-0.8,0.6-1.2c0.2-0.5,0.4-1.1,0.5-1.7c0-0.1,0.1-0.1,0.1-0.1L4.3-119.1z M4.8-109.8
				c0.2,0.4,0.4,0.8,0.5,1.2h1.2v-3.4c0-0.1,0.1-0.2,0.2-0.2c0.9,0,1.3,0.1,1.3,0.2s-0.1,0.2-0.1,0.2c-0.1,0-0.1,0.1-0.1,0.3v2.8
				h0.8c0.4-0.4,0.8-0.8,1.1-1.3c0.3-0.5,0.6-1,0.8-1.5c0.1-0.2,0.1-0.3,0.2-0.3l1,0.4c0.1,0.1,0.2,0.2,0.2,0.3s-0.1,0.2-0.2,0.2
				c-0.2,0-0.3,0.1-0.4,0.2c-0.3,0.7-0.7,1.4-1.2,2h2.4c0.1,0,0.1,0.1,0.1,0.2v0.6c0,0.2-0.1,0.3-0.1,0.3H8c0.4,0.4,0.8,0.8,1.3,1.2
				c1.1,0.9,2.4,1.5,3.8,1.9c0,0.1-0.1,0.2-0.1,0.2c-0.2,0.2-0.4,0.4-0.6,0.7c0,0.1-0.1,0.1-0.1,0.1c-0.8-0.3-1.6-0.7-2.3-1.2
				c-0.6-0.4-1.2-0.9-1.8-1.4c-0.1-0.1-0.2-0.2-0.3-0.3v3.5c0,0.1-0.1,0.2-0.3,0.2H6.7c-0.1,0-0.2-0.1-0.2-0.2c0,0,0,0,0-0.1v-3.7
				c-0.3,0.3-0.5,0.6-0.8,0.8c-0.5,0.5-1,0.9-1.6,1.3c-0.7,0.4-1.3,0.8-2,1.1c-0.1,0-0.2,0-0.3-0.1c-0.2-0.2-0.5-0.4-0.7-0.6
				c0-0.1,0-0.1-0.1-0.2c0.5-0.2,1.1-0.4,1.6-0.7c0.7-0.3,1.3-0.8,1.9-1.3c0.5-0.4,1-0.9,1.4-1.4H1.6c-0.1,0-0.1-0.1-0.1-0.3v-0.6
				c0-0.1,0-0.2,0.1-0.2h2.5c-0.1-0.2-0.2-0.4-0.3-0.6c-0.3-0.6-0.6-1.2-1-1.7c0-0.1,0.3-0.3,0.9-0.6C4.1-111,4.5-110.4,4.8-109.8
				L4.8-109.8z M15.3-113.8c0.1,0,0.2,0.1,0.3,0.1c0.1,0.2,0.2,0.4,0.3,0.6c-0.4,0.8-0.6,1.6-0.8,2.4c-0.1,0.7-0.2,1.3-0.2,2
				c0,1.1,0.1,2.1,0.5,3.1c0.3,0.6,0.5,0.9,0.8,0.9c0.1,0,0.2-0.1,0.3-0.3c0.2-0.5,0.3-1,0.3-1.6c0-0.1,0.2-0.1,0.3-0.1
				c0,0,0.1,0,0.1,0.1c0.2,0.2,0.4,0.3,0.6,0.5c0.1,0,0.1,0.1,0.1,0.3c-0.2,0.9-0.5,1.7-1,2.5c-0.1,0.2-0.4,0.4-0.6,0.4
				c-0.5-0.1-0.9-0.3-1.2-0.8c-0.5-0.6-0.8-1.3-0.9-2.1c-0.2-1-0.3-2-0.3-3c0-1.4,0.3-2.7,0.8-4H2.4c-0.1,0-0.2-0.1-0.2-0.3v-0.6
				c0-0.2,0.1-0.3,0.2-0.3L15.3-113.8z M14.5-115.9c0.1,0,0.1,0.1,0.1,0.2v0.6c0,0.2-0.1,0.3-0.1,0.3H4c-0.1,0-0.1-0.1-0.1-0.3v-0.6
				c0-0.2,0-0.2,0.1-0.2H14.5z"/>
			<path id="Path_41616" class="st1" d="M29.2-109.9c-0.3,0.5-0.7,1-1.2,1.3l-0.5-0.5c0.7-0.5,1.2-1.2,1.2-2.1h-1.4v-2.2h2.2v2
				C29.6-110.9,29.5-110.4,29.2-109.9z"/>
			<path id="Path_41617" class="st1" d="M55.3-115.9c0.1,0,0.2,0.1,0.2,0.3v0.6c0,0.2-0.1,0.3-0.2,0.3h-4.6v10.1h5.2
				c0.1,0,0.2,0.1,0.2,0.3v0.6c0,0.2-0.1,0.3-0.2,0.3h-16c-0.1,0-0.2-0.1-0.2-0.3v-0.6c0-0.2,0.1-0.3,0.2-0.3h5.3v-10.1h-4.5
				c-0.1,0-0.2-0.1-0.2-0.3v-0.6c0-0.2,0.1-0.3,0.2-0.3H55.3z M43.4-109.5c0.3,0.9,0.6,1.9,0.8,2.8c-0.4,0.2-0.8,0.4-1.3,0.4
				c-0.1-0.8-0.4-1.7-0.6-2.5c-0.4-1.1-0.8-2.3-1.4-3.3c0-0.1,0.4-0.3,1.1-0.6C42.6-111.5,43-110.5,43.4-109.5L43.4-109.5z
				 M45.1-117.8c0.3,0.5,0.6,0.9,0.9,1.5c-0.4,0.2-0.8,0.3-1.2,0.4c-0.2-0.4-0.4-0.8-0.7-1.2c-0.4-0.6-0.9-1.1-1.4-1.6
				c0-0.1,0.3-0.3,1-0.7C44.2-119,44.7-118.4,45.1-117.8L45.1-117.8z M49.5-104.7v-10.1h-3v10.1H49.5z M52.9-119
				c0.2,0.1,0.3,0.2,0.3,0.3c0,0.1-0.1,0.1-0.2,0.2c-0.1,0-0.3,0.1-0.3,0.2c-0.4,0.8-0.8,1.5-1.4,2.2c-0.1,0.1-0.2,0.2-0.3,0.2
				c-0.1,0-0.2-0.1-0.3-0.1c-0.3-0.1-0.5-0.2-0.7-0.4c-0.1,0-0.1-0.1-0.1-0.1c0,0,0-0.1,0.1-0.1c0.4-0.4,0.7-0.8,1-1.2
				c0.3-0.4,0.6-0.9,0.7-1.3c0-0.1,0.1-0.2,0.2-0.2L52.9-119z M55.1-112.3c0.2,0.1,0.3,0.2,0.3,0.3c0,0.2-0.1,0.3-0.2,0.4
				c-0.2,0-0.3,0.2-0.4,0.4c-0.4,1.6-0.9,3.1-1.6,4.5c-0.1,0.2-0.2,0.4-0.3,0.4c-0.1,0-0.2-0.1-0.3-0.1c-0.3-0.1-0.5-0.2-0.7-0.4
				c-0.1,0-0.1,0-0.1-0.1c0-0.1,0-0.2,0.1-0.3c0.5-0.8,0.9-1.6,1.2-2.4c0.4-0.9,0.7-1.8,0.9-2.7c0.1-0.3,0.1-0.4,0.2-0.4L55.1-112.3
				z"/>
			<path id="Path_41618" class="st1" d="M61-115.7v-2.4c0-0.3,0-0.5-0.1-0.8c0-0.1-0.1-0.2-0.1-0.4c0-0.1,0.1-0.2,0.4-0.2l1.5,0.2
				c0.1,0.1,0.2,0.1,0.2,0.2c0,0.1-0.1,0.2-0.2,0.2c-0.3,0.1-0.4,0.4-0.4,0.8v2.3h1.8c0.1,0,0.2,0.1,0.2,0.3v0.6
				c0,0.2-0.1,0.3-0.2,0.3h-1.8v3.8c0.6-0.3,1.3-0.7,1.9-1.1c0,0,0.1-0.1,0.1-0.1c0.1,0,0.1,0.1,0.1,0.1c0,0,0,0,0,0
				c0,0.3,0,0.7-0.1,1c-0.7,0.5-1.4,0.9-2,1.3v5.4c0,0.9-0.6,1.3-1.9,1.3h-0.7c-0.1,0-0.1-0.1-0.1-0.3c-0.1-0.3-0.2-0.6-0.4-0.8
				c0-0.1,0-0.2,0.1-0.2c0.3,0.1,0.6,0.1,0.9,0.2c0.5,0,0.8-0.2,0.8-0.6v-4.2c-0.4,0.2-0.8,0.4-1.2,0.6c-0.2,0.3-0.3,0.5-0.4,0.5
				s-0.4-0.5-0.7-1.5c0.8-0.3,1.6-0.6,2.3-1v-4.5h-1.8c-0.1,0-0.2-0.1-0.2-0.3v-0.6c0-0.2,0.1-0.3,0.2-0.3L61-115.7z M69.7-119.3
				c0,0.1-0.1,0.2-0.2,0.2c0,0,0,0,0,0c-0.1,0.1-0.2,0.3-0.2,0.4v7.3c0,0.7-0.1,1.6-0.1,2.4c-0.1,0.9-0.3,1.7-0.6,2.6
				c-0.3,0.7-0.6,1.4-1.1,2c-0.5,0.6-1,1.2-1.6,1.6c-0.1,0-0.1-0.1-0.2-0.2c-0.2-0.2-0.4-0.4-0.6-0.5c-0.1-0.1-0.1-0.1-0.1-0.2
				c0.6-0.5,1.1-1,1.6-1.6c0.3-0.5,0.6-1,0.8-1.6c0.1-0.2,0.2-0.5,0.2-0.8c-0.8,0.4-1.7,0.7-2.5,1c-0.2,0.3-0.3,0.5-0.4,0.5
				s-0.3-0.5-0.7-1.5c0.7-0.2,1.4-0.4,2-0.6c0.7-0.2,1.3-0.5,1.9-0.7c0-0.1,0-0.1,0-0.2c0.1-0.7,0.1-1.4,0.1-2.2h-2.7
				c-0.1,0-0.2-0.1-0.2-0.3v-0.6c0-0.2,0.1-0.3,0.2-0.3H68v-2.6h-2.9c-0.1,0-0.2-0.1-0.2-0.3v-0.6c0-0.2,0.1-0.3,0.2-0.3H68v-3.3
				c0-0.1,0-0.2,0.1-0.2C68.6-119.5,69.2-119.4,69.7-119.3L69.7-119.3z M72.8-119.3c0,0.2-0.1,0.3-0.2,0.3s-0.2,0.1-0.2,0.4v2.7h3
				c0.1,0,0.2,0.1,0.2,0.3v0.6c0,0.2-0.1,0.3-0.2,0.3h-3v2.6h2.8c0.1,0,0.2,0.1,0.2,0.3v0.6c0,0.2-0.1,0.3-0.2,0.3h-2.8v2.9h3.2
				c0.1,0,0.2,0.1,0.2,0.3v0.6c0,0.2-0.1,0.3-0.2,0.3h-3.2v4.1c0,0.2-0.1,0.2-0.3,0.2h-0.7c-0.2,0-0.3-0.1-0.3-0.2v-16.3
				c0-0.1,0.1-0.2,0.3-0.2C72.4-119.5,72.8-119.5,72.8-119.3z"/>
			<path id="Path_41619" class="st1" d="M81.9-117.8c0,0.2-0.1,0.3-0.2,0.3s-0.2,0.1-0.2,0.4v4.2h4.8v-6.3c0-0.1,0.1-0.2,0.3-0.2
				c0.9,0,1.4,0.1,1.4,0.2c0,0.2-0.1,0.3-0.2,0.3c-0.1,0-0.2,0.2-0.2,0.4v5.6h4.5v-4.8c0-0.1,0.1-0.2,0.3-0.2c0.9,0,1.4,0.1,1.4,0.2
				c0,0.2-0.1,0.3-0.2,0.3s-0.2,0.2-0.2,0.4v6.1c0,0.2-0.1,0.2-0.3,0.2h-0.7c-0.2,0-0.3-0.1-0.3-0.2v-0.8h-4.5v6.7h5v-4.4
				c0-0.1,0.1-0.2,0.3-0.2c0.9,0,1.4,0.1,1.4,0.2c0,0.2-0.1,0.3-0.2,0.3c-0.1,0-0.2,0.2-0.2,0.4v5.8c0,0.2-0.1,0.2-0.3,0.2h-0.7
				c-0.2,0-0.3-0.1-0.3-0.2v-0.9H81v0.9c0,0.2-0.1,0.2-0.3,0.2H80c-0.2,0-0.3-0.1-0.3-0.2v-6.5c0-0.1,0.1-0.2,0.3-0.2
				c0.9,0,1.4,0.1,1.4,0.2c0,0.2-0.1,0.3-0.2,0.3c-0.1,0-0.2,0.2-0.2,0.4v3.7h5.3v-6.7h-4.8v0.8c0,0.2-0.1,0.2-0.3,0.2h-0.7
				c-0.2,0-0.3-0.1-0.3-0.2v-6.8c0-0.1,0.1-0.2,0.3-0.2C81.4-118,81.9-117.9,81.9-117.8z"/>
			<path id="Path_41620" class="st1" d="M101-113.9c0,1.8-0.1,3.7-0.3,5.5c-0.2,1.1-0.4,2.3-0.9,3.3c-0.2,0.7-0.6,1.3-1,1.9
				c-0.1,0-0.1,0-0.2,0c-0.2-0.2-0.4-0.4-0.7-0.5c-0.1-0.1-0.1-0.2-0.1-0.3c0.4-0.7,0.8-1.5,1-2.3c0.3-1.1,0.5-2.2,0.6-3.3
				c0.1-1.4,0.2-2.9,0.2-4.3v-4.9c0-0.1,0.1-0.2,0.3-0.2h13.1c0.2,0,0.3,0.1,0.3,0.2v3.5c0,0.2-0.1,0.3-0.3,0.3H101V-113.9z
				 M113.6-113.5c0.1,0,0.1,0.1,0.1,0.2v0.6c0,0.2-0.1,0.3-0.1,0.3h-7.1c-0.6,1.1-1.1,1.9-1.5,2.5c1.9-0.2,3.9-0.3,6-0.6
				c-0.3-0.4-0.6-0.9-0.9-1.2c0-0.1,0.3-0.3,0.8-0.6c0.1,0,0.2,0,0.2,0.1c0.9,1.1,1.7,2.3,2.4,3.5c0,0.2-0.1,0.3-0.1,0.3
				c-0.3,0.2-0.7,0.4-1,0.4c-0.3-0.5-0.6-1-0.8-1.4c-1.2,0.1-2.4,0.3-3.5,0.4v1.9h4.5c0.1,0,0.1,0.1,0.1,0.2v0.6
				c0,0.2-0.1,0.3-0.1,0.3h-4.5v1.9h6c0.1,0,0.1,0.1,0.1,0.2v0.6c0,0.2-0.1,0.3-0.1,0.3h-13.4c-0.1,0-0.1-0.1-0.1-0.3v-0.6
				c0-0.1,0-0.2,0.1-0.2h6v-1.9h-4.5c-0.1,0-0.1-0.1-0.1-0.3v-0.6c0-0.1,0-0.2,0.1-0.2h4.5v-1.8c-1.3,0.1-2.6,0.3-3.8,0.3
				c-0.1,0-0.2,0.1-0.3,0.3c0,0.3-0.1,0.5-0.3,0.5c-0.1,0-0.4-0.6-0.8-1.8c0.3,0,0.8,0,1.7-0.1c0.1,0,0.1,0,0.2,0
				c0.1-0.1,0.1-0.2,0.2-0.3c0.5-0.8,1-1.6,1.4-2.4H102c-0.1,0-0.1-0.1-0.1-0.3v-0.6c0-0.1,0-0.2,0.1-0.2L113.6-113.5z M101-116H112
				v-1.9H101V-116z"/>
			<path id="Path_41621" class="st1" d="M125.3-115.9c-0.1-0.7-0.2-1.4-0.2-2.2h-2.8c-0.2,0-0.2-0.1-0.2-0.3v-0.6
				c0-0.2,0.1-0.3,0.2-0.3h3.7c0.2,0,0.3,0.1,0.3,0.2c0,1,0.1,2.1,0.2,3.1h5.9c0.2,0,0.3,0.1,0.3,0.3v11.2c0,0.5-0.3,0.9-0.8,1.1
				c-0.6,0.2-1.3,0.4-1.9,0.4c-0.1,0-0.2-0.1-0.2-0.2c-0.1-0.4-0.2-0.8-0.4-1.1c0-0.1,0.1-0.1,0.2-0.1c0.5,0.1,1.1,0,1.6-0.2
				c0.2-0.1,0.3-0.3,0.3-0.5v-3.3l-0.1,0c-0.2,0.2-0.4,0.4-0.6,0.6c-0.1,0.1-0.2,0.1-0.4,0.1c-0.6-0.3-1.2-0.7-1.6-1.2
				c-0.8-0.7-1.4-1.6-1.9-2.5c-0.4-0.6-0.7-1.3-0.9-2c-0.1,0.3-0.3,0.6-0.5,0.8c-0.4,0.7-0.9,1.5-1.4,2.2c-0.6,0.7-1.2,1.3-1.8,1.9
				c-0.4,0.4-0.9,0.7-1.4,1c-0.1,0-0.2-0.1-0.3-0.3c-0.2-0.2-0.4-0.5-0.7-0.7c0,0-0.1-0.1-0.1-0.1v5.5c0,0.1-0.1,0.2-0.3,0.2h-0.7
				c-0.2,0-0.3-0.1-0.3-0.2v-12.7c0-0.1,0.1-0.3,0.2-0.3c0,0,0,0,0.1,0L125.3-115.9z M122.1-110.1c0.7-0.6,1.3-1.4,1.8-2.1
				c0.5-0.8,0.9-1.6,1.3-2.5h-5.3v6.1C120.7-109.1,121.4-109.6,122.1-110.1L122.1-110.1z M127.7-112c0.4,0.8,1.1,1.6,1.8,2.2
				c0.5,0.5,1.1,0.9,1.8,1.2c0,0,0.1,0.1,0.1,0.1v-6.2h-4.7C126.9-113.8,127.2-112.8,127.7-112L127.7-112z"/>
			<path id="Path_41622" class="st1" d="M139.1-114.2c0.6,0.4,1,0.7,1.4,0.9c0,0.1,0,0.1-0.1,0.2c-0.4,0.5-0.6,0.8-0.6,0.8
				c-0.6-0.4-1.3-0.9-1.9-1.2c-0.4-0.2-0.9-0.4-1.4-0.6c0.1-0.3,0.3-0.6,0.6-0.8c0.1-0.1,0.1-0.1,0.2-0.1
				C137.9-114.9,138.5-114.6,139.1-114.2z M141.2-111c0.3,0.7,0.5,1,0.5,1.1c0,0.1,0,0.2-0.1,0.3c-0.7,1.5-1.3,2.8-1.9,3.9
				c-0.3,0.6-0.7,1.3-1.2,2c-0.1,0.2-0.1,0.5-0.1,0.7c0,0.2-0.1,0.2-0.1,0.2c-0.1,0-0.5-0.4-1.2-1.2c-0.1,0-0.1-0.1-0.1-0.2
				c0-0.1,0-0.2,0.1-0.3c0.4-0.4,0.8-0.9,1.2-1.4c0.6-0.9,1.1-1.8,1.6-2.7c0.4-0.8,0.8-1.7,1.2-2.4c0-0.1,0.1-0.1,0.1-0.1
				S141.2-111.1,141.2-111L141.2-111z M140.6-118.3c0.5,0.3,1,0.7,1.4,1c0,0.1-0.1,0.1-0.1,0.1c-0.2,0.3-0.4,0.5-0.6,0.8
				c-0.6-0.5-1.2-0.9-1.8-1.2c-0.4-0.2-0.9-0.5-1.3-0.6c0.2-0.3,0.3-0.6,0.6-0.8c0.1-0.1,0.1-0.1,0.2-0.1
				C139.4-119,140-118.7,140.6-118.3L140.6-118.3z M152.5-118.5c0.1,0,0.2,0.1,0.2,0.3v0.6c0,0.2-0.1,0.3-0.2,0.3h-3.8v5.1h4.7
				c0.1,0,0.2,0.1,0.2,0.3v0.6c0,0.2-0.1,0.3-0.2,0.3h-4.7v6.8c0,0.9-0.8,1.4-2.2,1.4H145c-0.1,0-0.1-0.1-0.1-0.4
				c0-0.3-0.2-0.6-0.3-0.9v-0.1c0.6,0.1,1.2,0.1,1.8,0.1c0.7,0,1-0.2,1-0.6v-6.3h-5c-0.1,0-0.2-0.1-0.2-0.3v-0.6
				c0-0.2,0.1-0.3,0.2-0.3h5v-5.1h-4c-0.1,0-0.2-0.1-0.2-0.3v-0.6c0-0.2,0.1-0.3,0.2-0.3L152.5-118.5z"/>
			<path id="Path_41623" class="st1" d="M158.4-114c0.5,0.3,0.9,0.6,1.3,0.8c0,0.1-0.1,0.1-0.1,0.2l-0.6,0.8c-0.6-0.4-1.1-0.7-1.7-1
				c-0.4-0.2-0.8-0.4-1.2-0.5c0.2-0.3,0.4-0.6,0.6-0.8c0.1-0.1,0.1-0.1,0.2-0.1C157.5-114.5,158-114.2,158.4-114z M159.2-110.2
				c0.3,0.7,0.5,1,0.5,1.1c0,0.1,0,0.2-0.1,0.3c-0.4,1.4-0.8,2.5-1.1,3.4c-0.2,0.5-0.4,1.1-0.7,1.7c-0.1,0.2-0.1,0.4-0.1,0.6
				c0,0.2-0.1,0.2-0.1,0.2c-0.1,0-0.5-0.4-1.2-1.2c-0.1,0-0.1-0.1-0.1-0.2c0-0.1,0-0.2,0.1-0.3c0.3-0.4,0.6-0.8,0.8-1.3
				c0.4-0.7,0.7-1.5,1.1-2.4c0.3-0.8,0.6-1.5,0.8-2.1c0-0.1,0.1-0.1,0.1-0.1C159.2-110.3,159.2-110.3,159.2-110.2z M159.1-118.6
				c0.4,0.4,0.8,0.7,1,1c0,0.1-0.1,0.1-0.1,0.1l-0.6,0.8c-0.5-0.4-0.9-0.9-1.4-1.2c-0.3-0.2-0.7-0.4-1-0.6c0.2-0.3,0.3-0.6,0.6-0.8
				c0.1-0.1,0.1-0.1,0.1-0.1C158.3-119.2,158.7-118.9,159.1-118.6z M171.6-118.9c0.2,0,0.3,0.1,0.3,0.2v4c0,0.1-0.1,0.2-0.3,0.2
				h-7.1c-0.3,0.4-0.5,0.8-0.7,1.1h8.4c0.1,0,0.2,0.1,0.2,0.2c0,0,0,0,0,0c0,2.8-0.1,4.8-0.2,6.1c-0.1,1.1-0.3,2.2-0.6,3.3
				c-0.3,0.8-1.1,1.3-1.9,1.2c-0.7,0-1-0.1-1-0.4c-0.1-0.3-0.2-0.6-0.4-0.9v-0.1c0.5,0,1,0.1,1.4,0.1c0.5,0,0.9-0.3,0.9-0.8
				c0.2-0.8,0.4-1.7,0.4-2.5c0.1-1,0.2-2.6,0.2-5H166v1.4h3.1c0.2,0,0.3,0.1,0.3,0.2v3.3c0,0.1-0.1,0.2-0.3,0.2h-1
				c0.3,0.3,0.7,0.6,1,1c0.3,0.4,0.6,0.8,0.8,1.1l-0.1,0.1c-0.2,0.3-0.4,0.5-0.6,0.7c-0.2-0.2-0.4-0.5-0.5-0.7
				c-2.3,0.4-4.6,0.7-6.9,1.1c-0.2,0.3-0.3,0.5-0.4,0.5s-0.4-0.5-0.7-1.5c1.1-0.1,2.3-0.3,3.8-0.5c0.1,0,0.2,0,0.3,0v-1.7h-3.1
				c-0.2,0-0.3-0.1-0.3-0.2v-3.3c0-0.1,0.1-0.2,0.3-0.2h3.1v-1.4h-1.9c-0.2,0.2-0.3,0.3-0.5,0.5c-0.4,0.4-0.9,0.7-1.4,1
				c-0.1,0-0.2,0-0.3-0.1c-0.2-0.2-0.4-0.4-0.6-0.6c0-0.1-0.1-0.1-0.1-0.2c0.4-0.2,0.7-0.4,1.1-0.6c0.5-0.3,0.9-0.7,1.3-1.1
				c0.3-0.3,0.5-0.7,0.8-1h-1.8c-0.2,0-0.3-0.1-0.3-0.2v-4c0-0.1,0.1-0.2,0.3-0.2L171.6-118.9z M164.2-117.8h-1.9v2.3h1.9V-117.8z
				 M164.8-109.8h-2.2v1.6h2.2V-109.8z M167.4-117.8h-1.9v2.3h1.9V-117.8z M168.3-109.8H166v1.6h2.2V-109.8z M167.4-106.3
				c0.1-0.3,0.3-0.5,0.5-0.7l0-0.1H166v1.5c0.6-0.1,1.2-0.2,1.8-0.3C167.7-106.1,167.5-106.2,167.4-106.3L167.4-106.3z M170.6-117.8
				h-1.9v2.3h1.9V-117.8z"/>
			<path id="Path_41624" class="st1" d="M15.2-83.9c0.2,0,0.2,0.1,0.2,0.3v0.6c0,0.2-0.1,0.3-0.2,0.3H10v4h7c0.1,0,0.2,0.1,0.2,0.3
				v0.6c0,0.2-0.1,0.3-0.2,0.3H1.4c-0.1,0-0.2-0.1-0.2-0.3v-0.6c0-0.2,0.1-0.3,0.2-0.3h7.3v-4H3.5c-0.1,0-0.2-0.1-0.2-0.3v-0.6
				c0-0.2,0.1-0.3,0.2-0.3H15.2z M10.2-93.4c0,0.2-0.1,0.3-0.2,0.3c-0.1,0-0.2,0.1-0.2,0.4v0.9h6.6c0.2,0,0.3,0.1,0.3,0.2v2.9
				c0,0.2-0.1,0.2-0.3,0.2h-0.7c-0.2,0-0.3-0.1-0.3-0.2v-2h-4v3.4c0,0.5,0.3,0.8,1,0.8h2.1c0.3,0,0.7,0,1-0.2c0.2-0.1,0.3-0.4,0.4-1
				c0-0.1,0.1-0.1,0.2-0.1c0.3,0.2,0.7,0.3,1.1,0.3c0.1,0,0.2,0.1,0.2,0.2c-0.1,0.6-0.5,1.2-0.9,1.6c-0.4,0.2-0.8,0.3-1.3,0.3h-3.4
				c-1.1,0-1.7-0.4-1.7-1.2v-4.2H7.3l0.9,0.4c0.1,0.1,0.2,0.2,0.2,0.3c0,0.1-0.1,0.1-0.2,0.1c-0.1,0-0.2,0.1-0.3,0.2
				c-0.3,0.6-0.7,1.2-1.1,1.8c-0.4,0.7-1,1.3-1.6,1.8c-0.6,0.5-1.2,0.9-1.9,1.2c-0.4,0.2-0.7,0.3-1.1,0.5c-0.2,0-0.3,0-0.3-0.1
				c-0.2-0.3-0.4-0.6-0.6-0.9C1.9-85.7,2.4-86,3-86.2c0.6-0.4,1.2-0.8,1.7-1.3c0.5-0.4,1-1,1.4-1.6c0.3-0.5,0.6-1,0.8-1.6H2.7v2.3
				c0,0.1-0.1,0.2-0.3,0.2H1.7c-0.2,0-0.3-0.1-0.3-0.2v-3.1c0-0.1,0.1-0.3,0.2-0.3c0,0,0,0,0.1,0h6.9v-1.6c0-0.1,0.1-0.2,0.3-0.2
				C9.8-93.6,10.2-93.5,10.2-93.4z"/>
			<path id="Path_41625" class="st1" d="M23.8-93.4c0.1,0.1,0.2,0.2,0.2,0.3c0,0.1,0,0.2-0.1,0.2c-0.1,0-0.2,0.1-0.2,0.2
				c0,0.1-0.1,0.2-0.1,0.3h11.9c0.1,0,0.1,0.1,0.1,0.2v0.6c0,0.2-0.1,0.3-0.1,0.3H23.1C23-91.2,23-91.1,22.9-91
				c-0.2,0.4-0.5,0.9-0.7,1.3c-0.3,0.3-0.5,0.7-0.8,1c-0.1,0-0.3,0-0.4-0.1l-0.7-0.3c-0.1,0-0.1-0.1-0.1-0.1c0-0.1,0-0.1,0.1-0.1
				c0.5-0.5,0.9-1,1.2-1.6c0.2-0.4,0.4-0.8,0.6-1.2c0.2-0.5,0.4-1.1,0.5-1.7c0-0.1,0.1-0.1,0.1-0.1L23.8-93.4z M24.2-84.1
				c0.2,0.4,0.4,0.8,0.5,1.2h1.2v-3.4c0-0.1,0.1-0.2,0.2-0.2c0.8,0,1.3,0.1,1.3,0.2S27.4-86,27.3-86c-0.1,0-0.1,0.1-0.1,0.3v2.8H28
				c0.4-0.4,0.8-0.8,1.1-1.3c0.4-0.5,0.6-1,0.9-1.5C30-85.9,30-86,30.1-86l1,0.4c0.1,0.1,0.2,0.2,0.2,0.3s-0.1,0.2-0.2,0.2
				c-0.2,0-0.3,0.1-0.4,0.2c-0.3,0.7-0.7,1.4-1.2,2H32c0.1,0,0.1,0.1,0.1,0.2v0.6c0,0.2-0.1,0.3-0.1,0.3h-4.6
				c0.4,0.4,0.8,0.8,1.3,1.2c0.6,0.5,1.2,0.9,1.9,1.2c0.6,0.3,1.2,0.5,1.9,0.7c0,0.1-0.1,0.2-0.1,0.2c-0.2,0.2-0.4,0.4-0.6,0.7
				c-0.1,0.1-0.1,0.1-0.1,0.1c-0.8-0.3-1.6-0.7-2.3-1.2c-0.7-0.4-1.2-0.9-1.8-1.4c-0.1-0.1-0.2-0.2-0.3-0.3v3.5
				c0,0.1-0.1,0.2-0.3,0.2h-0.7c-0.1,0-0.2-0.1-0.2-0.2c0,0,0,0,0,0v-3.7c-0.3,0.3-0.5,0.6-0.8,0.8c-0.5,0.5-1.1,0.9-1.6,1.3
				c-0.7,0.4-1.3,0.8-2,1.1c-0.1,0-0.2,0-0.3-0.1c-0.2-0.2-0.5-0.4-0.7-0.6c0-0.1-0.1-0.1-0.1-0.2c0.5-0.2,1.1-0.4,1.6-0.7
				c0.7-0.3,1.3-0.8,1.9-1.3c0.3-0.3,0.8-0.7,1.4-1.4H21c-0.1,0-0.1-0.1-0.1-0.3v-0.6c0-0.1,0-0.2,0.1-0.2h2.5
				c-0.1-0.2-0.2-0.4-0.3-0.6c-0.3-0.6-0.6-1.2-1-1.7c0-0.1,0.3-0.3,0.9-0.6C23.6-85.2,23.9-84.6,24.2-84.1L24.2-84.1z M34.8-88
				c0.1,0,0.2,0.1,0.3,0.1c0.1,0.2,0.2,0.4,0.3,0.6c-0.4,0.8-0.7,1.6-0.8,2.4c-0.1,0.7-0.2,1.3-0.2,2c0,1.1,0.1,2.1,0.5,3.1
				c0.3,0.6,0.5,0.9,0.8,0.9c0.1,0,0.2-0.1,0.3-0.3c0.2-0.5,0.3-1,0.3-1.6c0-0.1,0.1-0.1,0.2-0.1c0.1,0,0.1,0,0.2,0.1
				c0.2,0.2,0.4,0.3,0.6,0.5c0.1,0,0.1,0.1,0.1,0.3c-0.2,0.9-0.5,1.7-1,2.5c-0.1,0.2-0.4,0.4-0.6,0.4c-0.5-0.1-0.9-0.3-1.2-0.8
				c-0.5-0.6-0.8-1.3-0.9-2.1c-0.2-1-0.3-2-0.3-3c0-1.4,0.3-2.7,0.8-4H21.8c-0.1,0-0.2-0.1-0.2-0.3v-0.6c0-0.2,0.1-0.3,0.2-0.3
				L34.8-88z M34-90.2c0.1,0,0.1,0.1,0.1,0.2v0.6c0,0.2-0.1,0.3-0.1,0.3H23.5c-0.1,0-0.1-0.1-0.1-0.3V-90c0-0.2,0-0.2,0.1-0.2H34z"
				/>
			<path id="Path_41626" class="st1" d="M48.6-84.1c-0.3,0.5-0.7,1-1.2,1.3L47-83.4c0.7-0.5,1.2-1.3,1.2-2.1h-1.4v-2.2H49v2
				C49-85.1,48.9-84.6,48.6-84.1z"/>
			<path id="Path_41627" class="st1" d="M68.4-93.4c0,0.2-0.1,0.3-0.2,0.3S68-92.9,68-92.7v1.3h7.3c0.1,0,0.2,0.1,0.2,0.3v0.6
				c0,0.2-0.1,0.3-0.2,0.3H59.5c-0.1,0-0.2-0.1-0.2-0.3v-0.6c0-0.2,0.1-0.3,0.2-0.3h7.2v-1.9c0-0.1,0.1-0.2,0.3-0.2
				C67.9-93.6,68.4-93.5,68.4-93.4z M71.8-85.3c0,0.1-0.1,0.2-0.3,0.2c-0.2,0-0.3,0.2-0.4,0.4c-0.5,1-1,1.9-1.6,2.8
				c-0.4,0.6-0.8,1.1-1.3,1.5c0.4,0.2,0.7,0.4,1.1,0.6c1.1,0.4,2.2,0.8,3.4,1c0.9,0.2,1.8,0.3,2.7,0.3c0,0.1-0.1,0.2-0.1,0.3
				c-0.1,0.3-0.3,0.6-0.4,0.9c0,0.1-0.1,0.2-0.1,0.2c-1.2-0.2-2.3-0.3-3.1-0.5c-0.9-0.2-1.9-0.6-2.7-0.9c-0.6-0.3-1.2-0.6-1.8-0.9
				c-0.3,0.2-0.6,0.4-0.9,0.6c-0.7,0.4-1.6,0.7-2.6,1.1c-1,0.4-2.1,0.6-3.2,0.9c-0.1,0-0.2-0.1-0.3-0.2c-0.2-0.3-0.4-0.6-0.6-0.8
				c-0.1-0.1-0.1-0.2-0.1-0.2c0.8,0,1.5-0.1,2.3-0.3c0.8-0.2,1.7-0.5,2.5-0.8c0.6-0.3,1.2-0.6,1.8-0.9c-0.6-0.5-1.1-1-1.5-1.6
				c-0.7-1.1-1.3-2.2-1.8-3.4c0.4-0.2,0.8-0.3,1.2-0.4c0.3,0.9,0.7,1.8,1.2,2.6c0.5,0.7,1,1.3,1.7,1.9c0.1,0.1,0.2,0.2,0.3,0.3
				c0.3-0.3,0.6-0.5,0.9-0.9c0.5-0.5,0.9-1.1,1.2-1.7c0.4-0.7,0.7-1.5,1-2.3C70.8-85.9,71.3-85.6,71.8-85.3L71.8-85.3z M65.3-88.7
				c0.1,0.1,0.1,0.2,0.1,0.3c0,0.1-0.1,0.1-0.2,0.1c-0.2,0-0.3,0.1-0.5,0.2c-0.5,0.6-1,1.1-1.6,1.6c-0.8,0.7-1.6,1.2-2.5,1.7
				c-0.2,0-0.3-0.1-0.3-0.2c-0.2-0.2-0.5-0.3-0.7-0.6c-0.1,0-0.1-0.1-0.1-0.1c0,0,0-0.1,0.1-0.1c0.4-0.1,0.8-0.3,1.2-0.6
				c0.6-0.4,1.2-0.8,1.8-1.4c0.5-0.5,1-1,1.4-1.6c0-0.1,0.1-0.1,0.2-0.1L65.3-88.7z M75.1-85.9c0,0.1,0,0.2-0.1,0.2
				c-0.3,0.6-0.6,0.9-0.6,0.9c-1.8-1.1-3.5-2.3-5.1-3.7l0.7-0.8c0.1-0.1,0.1-0.2,0.2-0.2C71.6-88.1,73.3-86.9,75.1-85.9L75.1-85.9z"
				/>
			<path id="Path_41628" class="st1" d="M80.8-89.7v-2.7c0-0.3,0-0.5-0.1-0.8c0-0.1-0.1-0.2-0.1-0.4c0-0.1,0.1-0.1,0.4-0.1l1.4,0.2
				c0.1,0.1,0.2,0.1,0.2,0.2c0,0.1-0.1,0.2-0.2,0.2c-0.2,0.1-0.4,0.4-0.4,0.8v2.7h1.8c0.1,0,0.2,0.1,0.2,0.3v0.6
				c0,0.2-0.1,0.3-0.2,0.3h-1.8v3.9c0.6-0.3,1.3-0.6,1.8-1c0,0,0.1-0.1,0.1-0.1c0.1,0,0.1,0.1,0.1,0.1c0,0,0,0,0,0
				c0,0.3,0,0.7-0.1,1c-0.7,0.4-1.3,0.8-2,1.1v5.1c0,0.9-0.7,1.3-1.9,1.3h-0.6c-0.1,0-0.1-0.1-0.1-0.3c-0.1-0.3-0.2-0.6-0.3-0.8
				c0-0.1,0-0.1,0.1-0.1c0.3,0.1,0.6,0.1,0.9,0.1c0.5,0,0.8-0.2,0.8-0.6v-3.9c-0.5,0.2-0.9,0.4-1.4,0.6c-0.2,0.3-0.3,0.5-0.4,0.5
				c-0.1,0-0.4-0.5-0.7-1.5c0.9-0.2,1.7-0.5,2.5-0.9v-4.5h-2c-0.1,0-0.2-0.1-0.2-0.3v-0.6c0-0.2,0.1-0.3,0.2-0.3L80.8-89.7z
				 M89.3-93.3c0.1,0.1,0.2,0.2,0.2,0.2c0,0.1-0.1,0.2-0.4,0.2c-0.1,0-0.3,0-0.4,0.1c-0.1,0.2-0.3,0.4-0.4,0.5h4.2
				c0.1,0,0.2,0,0.3,0.1c0.3,0.2,0.4,0.4,0.4,0.5l-1.7,2.2h2.4c0.2,0,0.3,0.1,0.3,0.2v6.1h0.8c0.1,0,0.2,0.1,0.2,0.3v0.6
				c0,0.2-0.1,0.3-0.2,0.3h-4.9c0.1,0.4,0.3,0.8,0.6,1.1c0.3,0.5,0.8,1,1.3,1.3c0.6,0.5,1.2,0.8,1.9,1.1c0.3,0.1,0.7,0.2,1,0.3
				c0.1,0,0.2,0.1,0.2,0.1c0,0.1,0,0.2-0.1,0.3c-0.2,0.2-0.4,0.5-0.5,0.7c-0.1,0.1-0.1,0.2-0.2,0.2c-0.2,0-0.5-0.1-0.7-0.2
				c-0.9-0.4-1.7-0.9-2.5-1.5c-0.5-0.4-0.9-0.9-1.3-1.5c-0.1-0.2-0.2-0.4-0.3-0.6l0,0.1c-0.4,0.8-1,1.6-1.7,2.2
				c-0.8,0.7-1.8,1.1-2.8,1.4c-0.1,0-0.2,0-0.3-0.1c-0.2-0.2-0.4-0.3-0.6-0.5c-0.1-0.1-0.2-0.2-0.2-0.2c0-0.1,0.1-0.1,0.3-0.2
				c0.8-0.3,1.6-0.7,2.3-1.2c0.6-0.4,1.1-0.9,1.4-1.5c0.2-0.4,0.4-0.8,0.5-1.3h-4.5c-0.1,0-0.2-0.1-0.2-0.3v-0.6
				c0-0.2,0.1-0.3,0.2-0.3h1.2v-6c0-0.1,0-0.1,0-0.2c-0.1,0-0.1-0.1-0.2-0.2c-0.1-0.2-0.3-0.5-0.5-0.6c-0.1-0.1-0.2-0.1-0.2-0.2
				l0.1-0.1c0.4-0.2,0.8-0.4,1.1-0.6c0.5-0.3,0.9-0.7,1.3-1.1c0.3-0.2,0.5-0.5,0.7-0.8c0.2-0.3,0.4-0.6,0.6-0.9
				c0-0.1,0.1-0.1,0.1-0.1L89.3-93.3z M90.1-89.5l1.3-1.6h-3.9c-0.1,0.2-0.3,0.3-0.5,0.4c-0.3,0.3-0.6,0.6-1,0.8
				c-0.2,0.2-0.4,0.3-0.6,0.4H90.1L90.1-89.5z M88.6-83.1c0-0.4,0.1-0.9,0.1-1.3c0-0.2,0.1-0.3,0.3-0.3l1.2,0.1
				c0.2,0,0.4,0.1,0.4,0.3c0,0.2-0.1,0.3-0.3,0.4c-0.2,0-0.3,0.1-0.3,0.4c0,0.2,0,0.4-0.1,0.5h3v-5.2h-6.7v5.2L88.6-83.1z
				 M90.5-87.6c0.1,0.1,0.1,0.2,0.1,0.2c0,0.1,0,0.1-0.1,0.1c-0.1,0-0.2,0.1-0.3,0.2c-0.1,0.1-0.1,0.3-0.2,0.4
				c0.4,0.2,0.8,0.5,1.2,0.8c0.5,0.4,0.9,0.7,1.2,1c0,0.1-0.1,0.1-0.1,0.1c-0.4,0.5-0.6,0.8-0.6,0.8c-0.5-0.5-1.1-0.9-1.7-1.3
				c-0.3-0.2-0.5-0.3-0.7-0.4c0,0.1-0.1,0.1-0.1,0.2c-0.5,0.6-1,1.1-1.5,1.6c-0.1,0-0.2,0-0.3-0.1c-0.2-0.2-0.4-0.4-0.6-0.5
				c-0.1,0-0.1-0.1-0.1-0.1c0,0,0-0.1,0.1-0.1c0.3-0.1,0.5-0.3,0.7-0.5c0.4-0.4,0.8-0.8,1.1-1.3c0.3-0.4,0.5-0.9,0.8-1.5
				c0-0.1,0.1-0.1,0.1-0.1L90.5-87.6z"/>
			<path id="Path_41629" class="st1" d="M112.4-92.5c-1.5,0.4-3,0.7-4.5,0.8c-1.9,0.2-3.8,0.3-5.8,0.3v1.9h10.9
				c0.2,0,0.3,0.1,0.3,0.2v6.7c0,0.1-0.1,0.2-0.3,0.2h-0.7c-0.2,0-0.3-0.1-0.3-0.2v-1h-9.9c0,1-0.2,2-0.5,2.9
				c-0.3,0.9-0.7,1.7-1.3,2.5c-0.4,0.5-0.9,1-1.5,1.4c-0.1,0-0.1,0-0.2,0c-0.2-0.2-0.4-0.4-0.7-0.5c-0.1-0.1-0.1-0.2-0.1-0.3
				c0.6-0.4,1.2-1,1.6-1.7c0.4-0.7,0.8-1.5,1-2.3c0.2-1,0.4-2.1,0.3-3.1v-7.5c0-0.1,0.1-0.3,0.2-0.3c0,0,0,0,0.1,0h0.1
				c2.5,0,4.5-0.1,6-0.3c1.6-0.1,3.2-0.4,4.7-0.9c0.1-0.1,0.3-0.1,0.4-0.1c0.1,0,0.2,0,0.2,0.1c0.6,0.5,0.9,0.8,0.9,1
				c0,0.3-0.1,0.4-0.2,0.4l-0.4-0.2C112.7-92.6,112.5-92.6,112.4-92.5z M102.1-84.8h9.9v-3.6h-9.9L102.1-84.8z"/>
			<path id="Path_41630" class="st1" d="M123.1-93.3c0.1,0.1,0.2,0.2,0.2,0.3c0,0.1-0.1,0.3-0.2,0.3c-0.2,0-0.4,0.1-0.4,0.3
				c0,0,0,0,0,0c-0.2,0.6-0.4,1.1-0.6,1.6h3.8c0.1,0,0.2,0,0.3,0.1c0.2,0.2,0.3,0.4,0.4,0.6c-0.3,1.4-0.6,2.7-1,4.1
				c-0.3,1-0.7,2.1-1.2,3c-0.4,0.8-0.9,1.6-1.5,2.3c-0.6,0.8-1.4,1.5-2.3,2.1c-0.7,0.5-1.4,0.9-2.2,1.1c-0.2,0-0.3,0-0.4-0.2
				c-0.1-0.2-0.3-0.4-0.4-0.6c-0.1,0-0.1-0.1-0.1-0.2c0-0.1,0-0.2,0.1-0.2c0.6-0.2,1.1-0.5,1.6-0.7c0.9-0.5,1.8-1.2,2.5-2
				c0.3-0.4,0.7-0.8,0.9-1.3c-0.7-0.7-1.5-1.3-2.4-1.8c-0.1,0-0.1-0.1-0.1-0.1c0.2-0.3,0.4-0.6,0.6-0.9c0.1-0.1,0.1-0.2,0.2-0.2
				c0.8,0.5,1.6,1.1,2.3,1.8l0.1-0.1c0.4-0.9,0.8-1.9,1.1-2.9c0.3-0.9,0.5-1.9,0.7-2.8h-3.5c-0.1,0.3-0.2,0.6-0.4,0.8
				c-0.4,0.9-0.9,1.7-1.4,2.5c-0.5,0.7-1,1.3-1.6,1.9c-0.1,0-0.3,0-0.4-0.1c-0.3-0.1-0.5-0.2-0.8-0.3c-0.1,0-0.1-0.1-0.1-0.1
				c0-0.1,0-0.2,0.1-0.2c0.9-0.9,1.7-1.9,2.3-3c0.4-0.7,0.8-1.4,1.1-2.2c0.4-1,0.7-2.1,1-3.2c0.1-0.1,0.1-0.2,0.2-0.2L123.1-93.3z
				 M130.8-93.4c0,0.2-0.1,0.3-0.2,0.3s-0.2,0.1-0.2,0.4v4.6c1.3,1.2,2.5,2.6,3.6,4c0.1,0.1,0.2,0.2,0.2,0.3c0,0.1,0,0.1-0.1,0.1
				c-0.2,0.3-0.5,0.5-0.8,0.7c-0.1,0-0.2-0.1-0.3-0.1c-0.8-1.1-1.7-2.1-2.6-3.1v9.1c0,0.1-0.1,0.2-0.3,0.2h-0.7
				c-0.2,0-0.3-0.1-0.3-0.2v-16.3c0-0.2,0.1-0.2,0.3-0.2C130.3-93.7,130.8-93.6,130.8-93.4z"/>
			<path id="Path_41631" class="st1" d="M140.3-85.5c0.2,0,0.4,0.1,0.4,0.2v4.3c0,0.3,0,0.6,0.1,0.9c0.2,0.5,0.5,0.9,0.9,1.2
				c0.7,0.4,1.5,0.6,2.2,0.5h5c0.4,0,1.2-0.1,2.3-0.2c0.8-0.1,1.5-0.2,2.2-0.3c0.1,0,0.1,0,0.2,0c0.1,0,0.1,0,0.1,0.1c0,0,0,0,0,0
				c-0.2,0.4-0.4,0.8-0.6,1.1c0,0.3-0.1,0.4-0.4,0.4h-8.9c-1.1,0.1-2.2-0.3-3.1-1c-0.4-0.4-0.7-0.9-1-1.5c-0.6,0.6-1.2,1.1-1.6,1.7
				c-0.3,0.1-0.4,0.3-0.5,0.6c0,0.2-0.1,0.3-0.1,0.3c-0.1,0-0.1-0.1-0.2-0.2l-0.9-1.3c0.9-0.4,1.8-1,2.6-1.7
				c0.2-0.1,0.3-0.4,0.3-0.6v-3.4h-2.2c-0.1,0-0.2-0.1-0.2-0.3v-0.6c0-0.2,0.1-0.3,0.2-0.3L140.3-85.5z M139.3-88.9
				c0.5,0.3,0.9,0.7,1.3,0.9l-0.1,0.1c-0.2,0.3-0.4,0.5-0.6,0.8c-0.6-0.4-1.1-0.8-1.7-1.2c-0.4-0.2-0.8-0.4-1.2-0.6
				c0.2-0.3,0.3-0.6,0.6-0.8c0.1-0.1,0.1-0.1,0.1-0.1C138.3-89.4,138.9-89.1,139.3-88.9L139.3-88.9z M139.9-92.8
				c0.5,0.3,0.9,0.6,1.2,0.8c0,0.1-0.1,0.1-0.1,0.2c-0.4,0.5-0.6,0.8-0.6,0.8c-0.5-0.4-1.1-0.8-1.7-1.1c-0.4-0.2-0.8-0.4-1.2-0.6
				c0.2-0.3,0.3-0.6,0.6-0.8c0.1-0.1,0.1-0.1,0.1-0.1C139-93.4,139.5-93.1,139.9-92.8L139.9-92.8z M150.9-93.4
				c0.2,0,0.3,0.1,0.3,0.2v5.5h1.4c0.2,0,0.3,0.1,0.3,0.2v7.2c0,0.3-0.2,0.5-0.7,0.7c-0.6,0.2-1.2,0.3-1.7,0.3
				c-0.1,0-0.2-0.1-0.2-0.2c-0.1-0.4-0.2-0.8-0.4-1.2c0,0,0-0.1,0.1-0.1c0.5,0,0.9,0,1.4-0.1c0.1,0,0.3-0.2,0.3-0.3v-5.4h-8.3v6.8
				c0,0.2-0.1,0.2-0.3,0.2h-0.7c-0.2,0-0.3-0.1-0.3-0.2v-7.6c0-0.1,0.1-0.2,0.3-0.2h1.2v-5.5c0-0.2,0.1-0.2,0.3-0.2H150.9z
				 M146.5-87.6v-2.7c0-0.1,0.1-0.2,0.3-0.2h3.2v-1.7h-5.1v4.7H146.5z M149.8-85.2c0.2,0,0.3,0.1,0.3,0.2v3.7c0,0.2-0.1,0.2-0.3,0.2
				h-4.6c-0.2,0-0.3-0.1-0.3-0.2v-3.7c0-0.1,0.1-0.2,0.3-0.2H149.8z M148.8-84.1h-2.6v1.9h2.6V-84.1z M149.9-87.6v-1.9h-2.2v1.9
				H149.9z"/>
			<path id="Path_41632" class="st1" d="M157.9-88.2c0.4,0.3,0.8,0.7,1.1,0.9c0,0,0,0.1-0.1,0.2l-0.6,0.9c-0.5-0.4-1-0.9-1.5-1.2
				c-0.3-0.2-0.7-0.5-1.1-0.6c0.2-0.3,0.3-0.6,0.6-0.8c0.1-0.1,0.1-0.1,0.2-0.1C157.1-88.8,157.5-88.5,157.9-88.2z M159.6-85.1
				c0.3,0.7,0.5,1,0.5,1.1c0,0.1,0,0.2-0.1,0.2c-0.5,1.3-1,2.5-1.5,3.4c-0.3,0.5-0.6,1.1-0.9,1.7c-0.1,0.2-0.1,0.4-0.1,0.6
				c0,0.1-0.1,0.2-0.1,0.2c-0.1,0-0.5-0.4-1.2-1.2c-0.1,0-0.1-0.1-0.1-0.2c0-0.1,0-0.2,0.1-0.3c0.4-0.4,0.7-0.8,1-1.3
				c0.5-0.7,0.9-1.5,1.3-2.3c0.4-0.8,0.7-1.4,1-2.1c0-0.1,0.1-0.2,0.1-0.2C159.5-85.2,159.6-85.2,159.6-85.1L159.6-85.1z
				 M159.7-92.5c0.4,0.3,0.8,0.6,1.2,0.9l-0.1,0.2c-0.4,0.6-0.6,0.8-0.6,0.8c-0.5-0.4-1-0.8-1.6-1.2c-0.3-0.2-0.7-0.5-1.1-0.6
				c0.1-0.3,0.3-0.6,0.6-0.8c0.1-0.1,0.1-0.1,0.2-0.1C158.8-93.1,159.3-92.8,159.7-92.5L159.7-92.5z M167-93.6
				c0,0.2-0.1,0.3-0.2,0.3s-0.2,0.1-0.2,0.4v0.4h4.8c0.1,0,0.2,0.1,0.2,0.2v0.4c0,0.2-0.1,0.3-0.2,0.3h-4.8v0.9h5.6
				c0.2,0,0.3,0.1,0.3,0.2v1.8c0,0.1-0.1,0.2-0.3,0.2h-0.7c-0.1,0-0.2-0.1-0.2-0.2v-1h-5.5v1l4.3-0.5c0.1,0,0.1,0.1,0.1,0.2v0.4
				c0,0.2-0.1,0.3-0.1,0.3l-4.3,0.5c0,0.4,0.3,0.5,0.8,0.5h3.2c0.2,0,0.4,0,0.6-0.1c0.1-0.1,0.2-0.3,0.3-0.6c0,0,0-0.1,0.1-0.1
				c0.3,0.2,0.6,0.3,0.9,0.3c0.1,0,0.2,0.1,0.2,0.2c-0.1,0.4-0.3,0.8-0.6,1.1c-0.3,0.2-0.6,0.2-0.9,0.2h-4.3c-0.9,0-1.3-0.3-1.3-0.9
				v-0.4l-1.8,0.2c-0.1,0-0.1-0.1-0.1-0.3v-0.4c0-0.1,0-0.2,0.1-0.2l1.8-0.2v-1.1h-2.7v4c0,1.4-0.1,2.9-0.4,4.3
				c-0.2,0.9-0.5,1.8-0.9,2.6c-0.3,0.6-0.6,1.1-1,1.5c-0.1,0-0.1,0-0.2,0c-0.2-0.2-0.4-0.3-0.7-0.5c0-0.1-0.1-0.1-0.1-0.2
				c0.5-0.5,0.9-1.1,1.1-1.8c0.3-0.8,0.6-1.7,0.7-2.5c0.2-1.1,0.3-2.2,0.2-3.4v-4.8c0-0.1,0.1-0.2,0.2-0.2c0,0,0,0,0,0h4.2v-2.8
				c0-0.1,0.1-0.2,0.3-0.2C166.6-93.8,167-93.7,167-93.6L167-93.6z M163.8-80.1c0.1,0.1,0.2,0.1,0.2,0.2c0,0.1,0,0.1-0.1,0.2
				c-0.1,0-0.2,0.1-0.2,0.2c-0.2,0.7-0.5,1.5-0.8,2.1c-0.1,0.1-0.1,0.2-0.1,0.2c-0.1,0-0.2,0-0.3-0.1c-0.2-0.1-0.4-0.2-0.6-0.3
				l-0.1-0.1c0,0,0-0.1,0-0.1c0.2-0.4,0.4-0.8,0.6-1.2c0.2-0.4,0.3-0.9,0.4-1.3c0-0.1,0.1-0.2,0.1-0.2L163.8-80.1z M171.4-85.7
				c0.2,0,0.3,0.1,0.3,0.2v4c0,0.1-0.1,0.2-0.3,0.2h-7.8c-0.2,0-0.3-0.1-0.3-0.2v-4c0-0.2,0.1-0.2,0.3-0.2H171.4z M166.8-83.9v-0.8
				h-2.3v0.8H166.8z M166.8-83h-2.3v0.8h2.3V-83z M166-80.6c0,0.1-0.1,0.2-0.2,0.3v1.8c0,0.1,0,0.2,0.1,0.2h3.3
				c0.2,0,0.5-0.4,0.7-1.1l1.1,0.6c-0.4,1.1-0.9,1.6-1.5,1.6h-4c-0.6,0-0.9-0.3-0.9-0.8v-2.7c0-0.1,0.1-0.2,0.2-0.2
				C165.6-80.8,166-80.7,166-80.6L166-80.6z M167.6-81c0.5,0.3,0.9,0.6,1.3,1c0,0,0.1,0.1,0.1,0.1c0,0.1,0,0.1-0.1,0.1l-0.3,0.4
				c-0.1,0.1-0.2,0.1-0.3,0.1c-0.1,0-0.1,0-0.1-0.1c-0.4-0.3-0.8-0.6-1.2-0.8c-0.1,0-0.1-0.1-0.1-0.1c0-0.1,0-0.1,0.1-0.2l0.4-0.6
				C167.3-81,167.4-81,167.6-81L167.6-81z M168-83.9h2.4v-0.8H168V-83.9z M170.4-83H168v0.8h2.4V-83z M172.1-79.9
				c0.3,0.3,0.6,0.6,0.9,0.9l-0.1,0.1l-0.5,0.7c-0.4-0.4-0.8-0.8-1.2-1.1c-0.3-0.2-0.5-0.4-0.8-0.6c0.1-0.2,0.3-0.5,0.5-0.7
				c0-0.1,0.1-0.1,0.1-0.1C171.4-80.4,171.7-80.2,172.1-79.9L172.1-79.9z"/>
			<path id="Path_41633" class="st1" d="M66.4-63.4c0,0.1-0.1,0.1-0.1,0.1c-0.1,0-0.3,0.1-0.4,0.2c-0.6,1-1.3,2-2.2,2.9v8.7
				c0,0.2-0.1,0.2-0.3,0.2h-0.7c-0.2,0-0.3-0.1-0.3-0.2V-59c-0.4,0.4-1,0.8-1.6,1.2c-0.1,0-0.3-0.1-0.3-0.2
				c-0.2-0.1-0.4-0.3-0.5-0.4c-0.1,0-0.1-0.1-0.1-0.2c0.6-0.4,1.2-0.9,1.8-1.4c0.8-0.6,1.4-1.3,2-2.1c0.5-0.6,0.9-1.3,1.2-2
				c0-0.1,0-0.1,0.1-0.1C65.9-63.8,66.4-63.5,66.4-63.4z M65.7-67c0,0.1-0.1,0.2-0.1,0.2c-0.2,0-0.3,0.1-0.4,0.2
				c-0.6,1-1.3,1.9-2.1,2.6c-0.6,0.6-1.3,1.1-2,1.6c-0.1,0-0.3-0.1-0.3-0.2c-0.2-0.1-0.4-0.3-0.5-0.4c-0.1,0-0.1-0.1-0.1-0.2
				c0.5-0.4,1-0.7,1.5-1.1c0.6-0.5,1.2-1.1,1.7-1.7c0.4-0.5,0.7-1.1,1-1.7c0-0.1,0-0.1,0.1-0.1C64.8-67.7,65.3-67.4,65.7-67L65.7-67
				z M71.8-67.2l0.1,0.2c0,0.1-0.1,0.1-0.3,0.1c-0.3,0-0.5,0.1-0.6,0.2c-0.7,0.9-1.3,1.7-2,2.4c0.4,0.4,0.8,0.9,1.2,1.3
				c0.3-0.3,0.6-0.6,0.8-0.9c0.9-1,1.7-1.8,2.3-2.6c0.5,0.3,0.9,0.7,1.3,1.2c0,0.1-0.1,0.1-0.3,0.1c-0.4,0-0.6,0.1-0.7,0.1
				c-1.4,1.5-2.8,2.9-4.2,4.2c1.2-0.1,2.5-0.3,4.2-0.5c-0.2-0.6-0.4-1.2-0.6-1.7c0-0.1,0.3-0.3,0.8-0.6c0.1,0,0.2,0,0.2,0.1
				c0.7,1.4,1.2,2.9,1.7,4.4c0,0.2-0.1,0.3-0.1,0.3c-0.3,0.2-0.7,0.4-1,0.4c-0.2-0.8-0.5-1.5-0.7-2.1l-3.8,0.8
				c0.1,0.1,0.2,0.1,0.2,0.2c0,0.1,0,0.2-0.1,0.2c-0.2,0-0.3,0.1-0.3,0.2c-0.2,0.3-0.4,0.7-0.6,0.9h5c0.1,0,0.2,0,0.3,0.1
				c0.1,0.2,0.3,0.4,0.3,0.6c-0.3,0.7-0.6,1.4-1,2c-0.4,0.5-0.8,1-1.2,1.5c-0.1,0.1-0.3,0.2-0.4,0.3c0.5,0.3,1.1,0.5,1.7,0.7
				c0.9,0.3,1.8,0.5,2.8,0.7c0.1,0,0.2,0.1,0.2,0.1c0,0.1,0,0.1-0.1,0.2c-0.2,0.2-0.5,0.4-0.6,0.7c-0.1,0.1-0.1,0.1-0.2,0.1
				c-0.1,0-0.2-0.1-0.4-0.1c-0.6-0.1-1.1-0.3-1.8-0.5c-0.7-0.2-1.4-0.5-2.1-0.9c-0.2-0.1-0.4-0.2-0.5-0.3l-0.1,0.1
				c-0.7,0.4-1.5,0.8-2.3,1c-0.7,0.2-1.5,0.4-2.2,0.6c-0.1,0-0.3,0-0.4-0.2c-0.1-0.2-0.3-0.4-0.4-0.6c0,0-0.1-0.1-0.1-0.2
				c0-0.1,0-0.1,0.1-0.1c0.5-0.1,1.1-0.2,1.7-0.3c0.9-0.2,1.8-0.5,2.6-1l0,0c0,0-0.1-0.1-0.1-0.1c-0.5-0.4-0.9-0.9-1.2-1.4
				c-0.3-0.4-0.6-0.9-0.8-1.3l-0.1,0c-0.6,0.6-1.2,1.1-1.9,1.5c-0.1,0-0.2,0-0.3-0.1c-0.2-0.1-0.3-0.3-0.5-0.4
				c-0.1,0-0.1-0.1-0.1-0.2c0.4-0.3,0.9-0.7,1.4-1.1c0.6-0.5,1.1-1,1.6-1.7c0.2-0.3,0.4-0.5,0.5-0.8l-2.2,0.5
				c-0.1,0.2-0.3,0.4-0.5,0.5c-0.2-0.6-0.3-1.1-0.4-1.7c0.7-0.3,1.5-0.5,2.4-0.5c0.7-0.6,1.3-1.2,1.8-1.7c-0.6-0.6-1.1-1-1.5-1.3
				c-0.5-0.4-1-0.7-1.6-1c0-0.1,0.2-0.4,0.8-1c0.1-0.1,0.1-0.1,0.2-0.1c0.2,0.2,0.5,0.4,0.7,0.6c0.4-0.4,0.7-0.8,1-1.3
				c0.5-0.8,0.9-1.3,1.2-1.7L71.8-67.2z M69.5-56.1c0.3,0.5,0.7,1,1.1,1.4c0.2,0.2,0.3,0.3,0.5,0.4c0.2-0.2,0.5-0.4,0.7-0.5
				c0.4-0.4,0.8-0.9,1.1-1.4c0.2-0.2,0.3-0.5,0.4-0.8H69C69.2-56.7,69.3-56.4,69.5-56.1L69.5-56.1z"/>
			<path id="Path_41634" class="st1" d="M83-67.5c0,0.1,0,0.2-0.1,0.2c-0.2,0-0.3,0.1-0.3,0.2c-0.1,0.1-0.1,0.1-0.1,0.2h3.2
				c0.1,0,0.2,0,0.3,0.1c0.2,0.2,0.3,0.3,0.3,0.4l-1.9,2.6h1.9c0.2,0,0.3,0.1,0.3,0.2v7.8c0,0.2-0.1,0.2-0.3,0.2h-6.8
				c-0.2,0-0.3-0.1-0.3-0.2v-7.8c0,0,0-0.1,0-0.1c-0.1,0-0.1,0.1-0.2,0.1c-0.1,0-0.3-0.1-0.3-0.2c-0.2-0.1-0.3-0.3-0.5-0.4
				c-0.1,0-0.1-0.1-0.1-0.2c0.4-0.3,0.8-0.6,1.3-0.9c0.5-0.4,1-0.9,1.4-1.4c0.3-0.4,0.6-0.9,0.8-1.4c0-0.1,0-0.1,0.1-0.1
				C82.2-68.1,82.6-67.9,83-67.5z M80.1-54.5c0.1,0,0.2,0.1,0.2,0.2c-0.2,1.1-0.5,2.2-0.9,3.2l-0.1,0.1c-0.1,0-0.3,0-0.4-0.1
				c-0.2-0.1-0.4-0.2-0.7-0.3c-0.1,0-0.1-0.1-0.1-0.2c0.5-0.9,0.9-1.9,1.1-2.9c0-0.1,0.1-0.2,0.3-0.2c0,0,0,0,0,0L80.1-54.5z
				 M79.5-63.9h3.5l1.6-2h-2.9c-0.3,0.3-0.6,0.6-0.9,0.9c-0.3,0.3-0.8,0.6-1.4,1.1C79.3-63.9,79.4-63.9,79.5-63.9L79.5-63.9z
				 M82.2-60.3v-2.5h-1.8v2.5H82.2z M82.2-59.2h-1.8v2.4h1.8V-59.2z M82.2-54.6c0.1,0,0.2,0.1,0.2,0.1c0.1,1,0.1,2,0.1,3.1
				c0,0.1-0.1,0.1-0.2,0.1h-0.7c-0.2,0-0.3-0.1-0.3-0.1c0.1-0.9,0.1-2,0.1-3.1c0-0.1,0-0.1,0.1-0.1H82.2z M83.4-60.3h1.9v-2.5h-1.9
				L83.4-60.3z M85.3-59.2h-1.9v2.4h1.9L85.3-59.2z M84.3-54.3c0.3,0.9,0.5,1.9,0.6,2.8c0,0.1-0.1,0.1-0.3,0.2l-0.8,0.1
				c-0.1,0-0.1-0.1-0.1-0.2c0-0.9-0.2-1.8-0.3-2.7c0-0.1,0.1-0.2,0.2-0.2l0.6,0C84.2-54.4,84.3-54.4,84.3-54.3L84.3-54.3z
				 M86.4-54.4c0.5,0.9,0.9,1.9,1.2,2.9c0,0.1-0.1,0.2-0.3,0.2l-0.8,0.2c-0.1,0-0.2-0.1-0.2-0.2c-0.2-1-0.5-1.9-0.9-2.9
				c0-0.1,0-0.1,0.1-0.1l0.6-0.1C86.3-54.5,86.3-54.5,86.4-54.4L86.4-54.4z M94.9-64c0.1,0,0.2,0.1,0.2,0.3v0.6
				c0,0.2-0.1,0.3-0.2,0.3h-3.2v2.5h3.1c0.1,0,0.2,0.1,0.2,0.3v0.6c0,0.2-0.1,0.3-0.2,0.3h-3.1v2.8h3.5c0.1,0,0.2,0.1,0.2,0.3v0.6
				c0,0.2-0.1,0.3-0.2,0.3h-3.5v3.7c0,0.2-0.1,0.2-0.3,0.2h-0.7c-0.2,0-0.3-0.1-0.3-0.2v-3.7h-2.9c-0.1,0-0.2-0.1-0.2-0.3v-0.6
				c0-0.2,0.1-0.3,0.2-0.3h3v-2.8h-2.6c-0.1,0-0.2-0.1-0.2-0.3v-0.6c0-0.2,0.1-0.3,0.2-0.3h2.6v-2.5h-2.8c-0.1,0-0.2-0.1-0.2-0.3
				v-0.6c0-0.2,0.1-0.3,0.2-0.3H94.9z M88.5-67.8c0.6,0.9,1.2,1.7,1.7,2.7c0,0.2,0,0.3-0.1,0.3c-0.3,0.2-0.7,0.4-1,0.4
				c-0.5-1-1-1.9-1.5-2.9c0-0.1,0.3-0.3,0.8-0.6C88.4-67.8,88.5-67.8,88.5-67.8L88.5-67.8z M94.6-67.4c0.2,0.1,0.3,0.2,0.3,0.3
				S94.9-67,94.8-67c-0.1,0-0.2,0.1-0.3,0.2c-0.3,0.8-0.7,1.5-1.2,2.2c-0.1,0.1-0.2,0.2-0.2,0.2c-0.1,0-0.2-0.1-0.3-0.1l-0.7-0.3
				c-0.1,0-0.1-0.1-0.1-0.1L92-65c0.3-0.4,0.6-0.8,0.8-1.3c0.2-0.4,0.4-0.9,0.6-1.4c0-0.2,0.1-0.2,0.1-0.2L94.6-67.4z"/>
			<path id="Path_41635" class="st1" d="M101.5-67.5c0.1,0.1,0.2,0.2,0.2,0.3c0,0.1-0.1,0.2-0.1,0.2c-0.2,0-0.3,0.1-0.3,0.2
				l-0.1,0.2h10.8c0.1,0,0.1,0.1,0.1,0.2v0.6c0,0.2-0.1,0.3-0.1,0.3h-11.3c-0.1,0.2-0.2,0.4-0.4,0.6c-0.3,0.5-0.7,0.9-1.1,1.3
				c-0.4,0.4-0.8,0.7-1.2,1c-0.1,0-0.3,0-0.4-0.1C97.3-62.9,97-63,96.8-63c-0.1,0-0.1-0.1-0.1-0.1c0,0,0-0.1,0.1-0.1
				c0.7-0.5,1.3-1,1.8-1.7c0.3-0.4,0.6-0.8,0.8-1.2c0.3-0.6,0.5-1.2,0.7-1.8c0-0.1,0.1-0.1,0.1-0.1L101.5-67.5z M101.7-59.7
				c0.2,0.2,0.3,0.5,0.4,0.8h2.4c0.2-0.2,0.4-0.5,0.6-0.8c0.2-0.4,0.4-0.7,0.6-1.1c0-0.1,0.1-0.1,0.2-0.1l1,0.6
				c0.1,0.1,0.1,0.1,0.1,0.2S107-60,106.9-60c-0.2,0-0.3,0.1-0.3,0.1c-0.2,0.3-0.4,0.6-0.7,0.9h2.6c0.1,0,0.1,0.1,0.1,0.2v0.6
				c0,0.2-0.1,0.3-0.1,0.3H104v1.3h3.8c0.1,0,0.2,0.1,0.2,0.2v0.6c0,0.2-0.1,0.3-0.2,0.3H104v1.3h5.1c0.1,0,0.1,0.1,0.1,0.2v0.6
				c0,0.2-0.1,0.3-0.1,0.3H104v1.8c0,0.1-0.1,0.2-0.3,0.2H103c-0.1,0-0.2-0.1-0.2-0.2v-1.8h-5.1c-0.1,0-0.1-0.1-0.1-0.3V-54
				c0-0.1,0-0.2,0.1-0.2h5.1v-1.3h-3.9c-0.1,0-0.1-0.1-0.1-0.3v-0.6c0-0.1,0-0.2,0.1-0.2h3.9v-1.3h-4.6c-0.1,0-0.1-0.1-0.1-0.3v-0.6
				c0-0.1,0-0.2,0.1-0.2h2.6c0-0.1-0.1-0.1-0.1-0.2c-0.3-0.4-0.6-0.8-0.9-1.2c0-0.1,0.3-0.3,0.9-0.6
				C101.1-60.6,101.4-60.2,101.7-59.7z M111.7-62.3c0.1,0,0.2,0.1,0.3,0.1c0.1,0.2,0.2,0.4,0.3,0.6c-0.4,0.8-0.7,1.7-0.9,2.6
				c-0.2,0.7-0.2,1.4-0.2,2.1c0,1,0.1,2,0.4,2.9c0.2,0.6,0.4,0.8,0.6,0.8c0.1,0,0.3-0.1,0.3-0.2c0.2-0.5,0.3-1,0.4-1.5
				c0-0.1,0.1-0.1,0.2-0.1c0.1,0,0.1,0.1,0.2,0.1c0.2,0.2,0.4,0.3,0.6,0.5c0.1,0.1,0.1,0.2,0.1,0.3c-0.2,0.8-0.6,1.7-1.1,2.4
				c-0.2,0.2-0.4,0.4-0.7,0.4c-0.5-0.1-0.9-0.3-1.1-0.7c-0.4-0.6-0.7-1.3-0.9-2c-0.2-0.9-0.3-1.9-0.3-2.8c0.1-1.5,0.4-2.9,0.9-4.3
				h-13c-0.1,0-0.2-0.1-0.2-0.3V-62c0-0.2,0.1-0.3,0.2-0.3L111.7-62.3z M111.1-64.4c0.1,0,0.2,0.1,0.2,0.2v0.6
				c0,0.2-0.1,0.3-0.2,0.3h-10.5c-0.1,0-0.1-0.1-0.1-0.3v-0.6c0-0.2,0-0.2,0.1-0.2H111.1z"/>
		</g>
	</g>
</g>
</svg>
