<svg id="section7_subtitle" xmlns="http://www.w3.org/2000/svg" width="244.399" height="24.576" viewBox="0 0 244.399 24.576">
  <path id="Path_41491" data-name="Path 41491" d="M76.706,1831.7v-8.89h2.5v8.89h2.571v2.989H79.207v.74a25.422,25.422,0,0,1,3.095,3.491l-1.5,2.778a29.508,29.508,0,0,0-1.591-2.851v8.328h-2.5V1838.8a20.815,20.815,0,0,1-2.134,4.677l-1.228-3.624a13.868,13.868,0,0,0,2.612-5.156H73.592V1831.7Zm-.179-1.458-2.387.395c-.046-1.715-.161-3.569-.363-5.555l2.046-.212C76.094,1826.361,76.342,1828.159,76.526,1830.247Zm5.523-5.261c-.092,2.272-.2,4.231-.363,5.872l-2.318-.611a43.233,43.233,0,0,0,.635-5.473Zm4.617-1.035v-1.136h3.021v1.136h4.346v2.566H89.688v.929h3.891v2.272H89.688v1.14H94.4v2.594H81.87v-2.594h4.8v-1.14h-3.73v-2.272h3.73v-.929H82.482v-2.566Zm7.091,10.425v10.343c0,1.508-.837,2.277-2.479,2.277h-2.5l-.34-2.805c1.09.078,1.725.106,1.863.106.409,0,.612-.239.612-.713v-.211H85.6v3.807h-2.75v-12.8H93.758ZM90.916,1838v-1.035H85.6V1838Zm0,3.307v-1.247H85.6v1.247Z" transform="translate(-73.344 -1822.603)" fill="#c9dcb7"/>
  <path id="Path_41492" data-name="Path 41492" d="M87.353,1846H84.511v-1.348H81.329V1846H78.487v-12.514h8.867Zm8.365-22.939v8.784H80.69v-8.784Zm-11.207,18.781v-5.472H81.329v5.472Zm8.186-15.787H83.716v2.773H92.7ZM97.926,1846H95.084v-1.348H91.626V1846H88.784v-12.514h9.142Zm-2.842-4.158v-5.472H91.626v5.472Z" transform="translate(-54.835 -1821.715)" fill="#c9dcb7"/>
  <path id="Path_41493" data-name="Path 41493" d="M90.467,1824.245a48.1,48.1,0,0,1-2.7,7.037h2.883a36.942,36.942,0,0,1-1.977,10.554,1.683,1.683,0,0,0-.092.184c1.164,1.058,4.185,1.564,9.073,1.564.455,0,2.658-.056,6.659-.211l-.7,3.412c-4.185,0-6.277-.055-6.277-.106q-7.5,0-10.163-2.226A17.772,17.772,0,0,1,84.875,1847l-1.591-3.017a7.836,7.836,0,0,0,2.046-2.037,24.75,24.75,0,0,1-1.8-5.606l2.318-.612a22.717,22.717,0,0,0,.865,3.228,31.734,31.734,0,0,0,.888-5.081H83.712c1.095-2.249,2.074-4.415,2.934-6.535H83.712v-3.091Zm4.617-.211v-1.219h2.75v1.219h4.976v3.725h1.072v2.7H102.81v3.707H97.835v1.035h5.339v2.589H97.835v1.035h5.684v2.695H97.835v1.642h-2.75v-1.642H90.012v-2.695h5.072v-1.035H90.923V1835.2h4.162v-1.035h-3.73v-2.571h3.73v-1.136H90.012v-2.7h5.072v-1.136H91.447v-2.589Zm2.75,3.725h2.226v-1.136H97.835Zm0,3.835h2.226v-1.136H97.835Z" transform="translate(-37.572 -1822.603)" fill="#c9dcb7"/>
  <path id="Path_41494" data-name="Path 41494" d="M92.356,1827.446v-4.337h2.686v4.337h2.75v3.012h-2.75v2.143a23.013,23.013,0,0,1,3.09,3.123l-1.591,2.884a27.707,27.707,0,0,0-1.5-2.484v10.766H92.356v-9.952a27.388,27.388,0,0,1-2.842,6.112l-1.32-3.914a21.687,21.687,0,0,0,3.909-8.678H88.99v-3.012Zm11.824.1v-4.733h2.934v4.733h1.954v3.021h-1.954V1844.3c0,1.638-.773,2.488-2.322,2.488H101.7l-.455-3.2c1.458.156,2.249.211,2.387.211.363,0,.547-.239.547-.745v-12.481h-.23a28.147,28.147,0,0,1-1.725,6.824,24.359,24.359,0,0,1-3.909,6.9l-2.391-2.594a22.028,22.028,0,0,0,3.8-5.717,19.537,19.537,0,0,0,1.545-5.417H98.679v-3.021Z" transform="translate(-19.902 -1822.603)" fill="#c9dcb7"/>
  <path id="Path_41495" data-name="Path 41495" d="M94.533,1829.652v-4.709h4.024v4.709Z" transform="translate(2.911 -1814.945)" fill="#c9dcb7"/>
  <path id="Path_41496" data-name="Path 41496" d="M105.886,1825.7h3.661a14.516,14.516,0,0,0,1.84-2.884l3.026.819a13.877,13.877,0,0,1-1.366,2.065h3.937v2.488h-8.007v1.531H116.1v2.488h-7.119v1.747h8.8v2.593h-8.816c-.028.63-.074,1.242-.138,1.771h8.867v2.566h-7.114a9.459,9.459,0,0,0,2.226,1.4,21.3,21.3,0,0,0,5.684,1.7l-1.683,3.2a21.01,21.01,0,0,1-6.139-2.939,15.05,15.05,0,0,1-2.865-2.883,7.145,7.145,0,0,1-1.361,1.8,18.292,18.292,0,0,1-7.662,4.019l-1.688-3.2a16.02,16.02,0,0,0,6.756-2.723,5.017,5.017,0,0,0,.409-.372H97.884v-2.566h7.8a8.937,8.937,0,0,0,.248-1.771h-8.14v-2.593h8.163v-1.747h-6.48v-2.488h6.48v-1.531H98.588V1825.7h4.093a19.914,19.914,0,0,0-1.683-2.065l3.026-.74A11.866,11.866,0,0,1,105.886,1825.7Z" transform="translate(12.092 -1822.603)" fill="#c9dcb7"/>
  <path id="Path_41497" data-name="Path 41497" d="M107.381,1822.965c-.092,1.37-.2,2.745-.34,4.148H111.2c.041,5.243-.575,9.4-1.821,12.463.911.8,1.706,1.559,2.433,2.3l-1.863,3.312a22.874,22.874,0,0,0-2.074-2.6,20.107,20.107,0,0,1-3.61,4.263l-2.138-2.805a12.262,12.262,0,0,0,3.592-3.624c-1.026-.9-2.138-1.771-3.32-2.677.639-2.617,1.113-5.155,1.476-7.643h-1.568v-2.99h1.931c.138-1.453.253-2.883.3-4.258Zm1,7.137h-1.7q-.483,3.172-1.164,6.507c.547.372,1.049.745,1.527,1.09A26.57,26.57,0,0,0,108.379,1830.1Zm13.645-6.213v2.8a24.72,24.72,0,0,1-3.366,5.317v1.09h4.093v3.2h-4.093v7.754c-.046,1.8-1.366,2.7-3.909,2.7h-1.959l-.432-3.307c1.481.078,2.368.106,2.663.106.455,0,.7-.372.7-1.141v-6.111H111.2v-3.2h4.521v-2.884a15.447,15.447,0,0,0,2.456-3.1H111.63v-3.224Z" transform="translate(30.248 -1822.459)" fill="#c9dcb7"/>
  <path id="Path_41498" data-name="Path 41498" d="M113.981,1824.664c-.34,1.4-.7,2.7-1.09,3.918h3.845v-5.767h3.113v5.767h6.572v3.123h-6.572v4.125h5.776v3.094h-5.776v4.448H127.4v3.094H107.754v-3.094h8.981v-4.448h-6.392v-3.094h6.392V1831.7h-5.026a30.812,30.812,0,0,1-2.8,5.16l-1.775-3.1a26.371,26.371,0,0,0,3.638-9.736Z" transform="translate(48.274 -1822.603)" fill="#c9dcb7"/>
  <path id="Path_41499" data-name="Path 41499" d="M118.562,1837.2a41.112,41.112,0,0,1-3.569,9.63l-3-2.065a29.787,29.787,0,0,0,3.817-8.784Zm-.455-4.732-2.134,2.672a31.889,31.889,0,0,0-3.914-3.818l1.89-2.272A28.59,28.59,0,0,1,118.107,1832.466Zm1.072-6.223-2.046,2.593a32.179,32.179,0,0,0-4.093-3.812l1.794-2.193A34.623,34.623,0,0,1,119.178,1826.244Zm12.867-.29c-1.453.317-3.182.635-5.137.9v3.228h6.024v2.985h-6.024v3.2h4.7v10.844h-2.842v-1.43h-6.48v1.43H119.45v-10.844h4.525v-3.2h-5.5v-2.985h5.5v-2.861c-1.343.161-2.773.317-4.277.474l-.888-3.3a97.841,97.841,0,0,0,12.007-1.246Zm-3.274,17.034v-4.02h-6.48v4.02Z" transform="translate(65.753 -1822.542)" fill="#c9dcb7"/>
  <path id="Path_41500" data-name="Path 41500" d="M119.645,1827.215v-4.337h2.663v4.337h2.134v3.012h-2.134v3.123c.635-.267,1.251-.529,1.863-.846l.179,3.1c-.681.367-1.366.69-2.042.98v7.381c0,1.641-.731,2.488-2.138,2.488H117.69l-.547-3.306c1.182.156,1.84.211,1.954.211.363,0,.547-.239.547-.74v-4.953a25.325,25.325,0,0,1-2.41.823l-.276-3.513a24.737,24.737,0,0,0,2.686-.667v-4.075h-2.41v-3.012Zm17.848,6.82v2.7h-4.981v1.642h4.433v2.593h-4.433v2.272a25.649,25.649,0,0,0,2.658.11c.322,0,1.141-.056,2.5-.211l-.451,3.306H135.06a18.258,18.258,0,0,1-6.139-.952,6.483,6.483,0,0,1-2.249-1.9,16.307,16.307,0,0,1-1.89,3.173l-2.295-2.382a11,11,0,0,0,2.934-6.724l2.75.428a23.523,23.523,0,0,1-.547,2.805,4.172,4.172,0,0,0,1.458,1.481,3.237,3.237,0,0,0,.589.29v-5.928h-5.229v-2.7Zm-.98-10.739v9.713H125.237V1823.3Zm-2.75,3.73v-1.136h-5.776v1.136Zm0,2.249h-5.776v1.136h5.776Z" transform="translate(83.618 -1822.373)" fill="#c9dcb7"/>
  <path id="Path_41501" data-name="Path 41501" d="M131.089,1838.271v-1.241h2.837v1.241h8.526v2.461h-6.365a22.351,22.351,0,0,0,7.073,2.906l-1.5,2.783a16.829,16.829,0,0,1-5.233-2.728,18.606,18.606,0,0,1-2.5-2.087v5.555h-2.837v-5.5a10.029,10.029,0,0,1-1.8,1.716,22.389,22.389,0,0,1-5.569,2.933l-1.867-2.772a21.564,21.564,0,0,0,5.183-1.831,6.87,6.87,0,0,0,1.527-.974h-6v-2.461Zm3.205-13.649h7.979v3.624h-2.842v-1.035h-8.071l1.591.29c-.294.505-.589.98-.911,1.458h9.8v2.488H138.5a12.033,12.033,0,0,1-1.66,2.249c1.752.424,3.527.9,5.344,1.375l-1.5,2.46c-1.954-.713-4.07-1.38-6.3-2.01-.23.129-.437.235-.616.317a28.412,28.412,0,0,1-9.956,2.005l-.888-2.672a34.98,34.98,0,0,0,7.478-.657c-1.729-.367-3.477-.74-5.275-1.108.662-.64,1.3-1.274,1.885-1.959h-3.927v-2.488h5.863c.386-.583.75-1.163,1.113-1.747h-4.387v1.035h-2.842v-3.624h8.025c-.133-.533-.248-1.007-.386-1.458l3.546-.4C134.111,1823.4,134.2,1824.015,134.295,1824.622Zm-4.116,6.825c-.207.267-.409.5-.593.713,1.412.267,2.865.533,4.323.846a7.945,7.945,0,0,0,1.614-1.559Z" transform="translate(101.238 -1822.769)" fill="#c9dcb7"/>
</svg>
