<svg id="section1_icon" xmlns="http://www.w3.org/2000/svg" xmlns:xlink="http://www.w3.org/1999/xlink" width="122.969" height="97.656" viewBox="0 0 122.969 97.656">
  <defs>
    <clipPath id="clip-path">
      <rect id="Rectangle_10" data-name="Rectangle 10" width="122.969" height="97.656" transform="translate(122.969 97.656) rotate(180)" fill="none"/>
    </clipPath>
  </defs>
  <g id="Group_4059" data-name="Group 4059" transform="translate(0 0)">
    <g id="Group_4058" data-name="Group 4058" clip-path="url(#clip-path)">
      <path id="Path_17653" data-name="Path 17653" d="M127.278,219.675s67.083,25.23,87.527,6.573c0,0,29.64-21.317,6.123-45.564,0,0-15.2-15.814-31.6-3.941,0,0-10.67-26.268-37.241-21.762,0,0-28.854,5.121-13.692,46.226C138.4,201.206,151.824,225.9,127.278,219.675Z" transform="translate(-125.978 -145.204)" fill="#fff"/>
    </g>
  </g>
  <g id="Group_4060" data-name="Group 4060" transform="translate(24.128 27.566)">
    <path id="Path_17654" data-name="Path 17654" d="M142.566,160.431l.473-1.327,1.9.68-.473,1.327,5.576,2-.712,1.975-5.576-2-1.19,3.325a5.958,5.958,0,0,0,.138.671,10.667,10.667,0,0,0,3-2.885l1.722.969c-.427.542-.836,1.052-1.272,1.516a16.825,16.825,0,0,1,1.539,2.793L146,170.927a15.514,15.514,0,0,0-1.066-3.1A13.38,13.38,0,0,1,143.343,169a18.778,18.778,0,0,0,3.064,4.786l-1.695,1.8a15.843,15.843,0,0,1-2.935-6.068,4.655,4.655,0,0,1-.129-.574l-1.97,5.493-1.9-.68,1.883-5.25a17.347,17.347,0,0,1-1.764,1.079,22.253,22.253,0,0,1-4.483,1.892l-.317-2.393a14.481,14.481,0,0,0,5.039-1.644l.51-.266a18.193,18.193,0,0,0-.808-2.1,14.342,14.342,0,0,1-2.751,1.934l-.4-1.984a10.446,10.446,0,0,0,3.835-3.482l1.663.965a16.157,16.157,0,0,1-1.162,1.392,24.243,24.243,0,0,1,1.286,2.2c.1-.078.207-.152.3-.225l1.245-3.472-5.516-1.98.707-1.975Z" transform="translate(-129.187 -158.447)" fill="#72adb6"/>
    <path id="Path_17655" data-name="Path 17655" d="M145.2,159.939l2.26.808-.115,14.519-2.324-.831.037-2.986-4.786-1.718-1.9,2.315-2.324-.831Zm-.083,3.831-3.165,3.863,3.137,1.125Z" transform="translate(-118.619 -153.086)" fill="#72adb6"/>
    <path id="Path_17656" data-name="Path 17656" d="M142.564,160.479l7.689,2.756-.459,1.291-9.577,10.036-1.52-1.681,7.955-8.332-4.919-1.764Z" transform="translate(-109.076 -151.146)" fill="#72adb6"/>
    <path id="Path_17657" data-name="Path 17657" d="M144.512,167.285l-.831,2.329-11.432-4.1.836-2.329Z" transform="translate(-132.248 -141.43)" fill="#72adb6"/>
    <path id="Path_17658" data-name="Path 17658" d="M151.042,166.7l-3.348,9.342-2.356-.845-.818,2.278c-.124.39-.009.634.312.753l1.429.51a.419.419,0,0,0,.427-.087,8.294,8.294,0,0,0,.919-2.007l1.718,1.134a7.758,7.758,0,0,1-1.741,2.875,1.676,1.676,0,0,1-1.566.06l-2.885-1.033c-.955-.344-1.208-1.125-.772-2.338l1.02-2.848-1.4-.5a5.16,5.16,0,0,1-2.127,2.5,9,9,0,0,1-4.354.813l-.68-2.453a9.036,9.036,0,0,0,3.647-.17,2.909,2.909,0,0,0,1.5-1.415l-1.943-.694,3.353-9.343Zm-4.354,5.989-5.755-2.067-.317.891,5.751,2.062Zm.569-1.589.312-.868-5.755-2.062-.312.868Zm.877-2.453.322-.891L142.7,165.7l-.322.891Z" transform="translate(-123.01 -141.247)" fill="#72adb6"/>
    <path id="Path_17659" data-name="Path 17659" d="M148.072,169.63l-1.58,4.409-2.016-.721-1.695,4.736c-.381,1.052-.988,1.433-1.782,1.153l-1.663-.6.381-1.709c-.1.1-.175.174-.257.253l-1.415-1.286a9.956,9.956,0,0,0,2.59-3.413l1.47.946a14.96,14.96,0,0,1-2.177,3.3c.524.23.831.354.923.386.23.083.395,0,.487-.262l1.474-4.106-2.411-.864,1.58-4.414Zm-1.033-3.091,2.471.886-.588,1.649-7.138-2.558.593-1.649,2.632.946c.073-.519.124-1,.152-1.442l2.182.583C147.25,165.487,147.144,166.015,147.038,166.539Zm-1.263,4.037-2.636-.946-.459,1.277,2.636.946Zm.3,5.907a16.151,16.151,0,0,0,3.05-4.7l-1.281-.464.68-1.888,1.323.473,1.245-3.472,1.722.615-1.245,3.477,3.224,1.158-.68,1.888-3.28-1.176c-.152.331-.285.648-.423.928l1.341.478-2.081,5.8c-.11.308-.1.473.014.519l.221.078c.207.074.436-.188.671-.8,0,0,.179-.464.583-1.4l1.461,1.162c-.767,1.768-1.4,2.77-1.842,3a1.426,1.426,0,0,1-1.176-.018l-1.089-.39a1.545,1.545,0,0,1-.983-.772,2.092,2.092,0,0,1,.11-1.332l1.373-3.826a17.583,17.583,0,0,1-4.446,4.8l-1.079-2.026a12.377,12.377,0,0,0,1.8-1.346l-1.079.037a17.4,17.4,0,0,0,.248-3.05L146,174.3A16.018,16.018,0,0,1,146.078,176.483Zm9.251-6.114-1.874.68a11.576,11.576,0,0,0-.739-2.6l1.732-.528A14.306,14.306,0,0,1,155.329,170.37Z" transform="translate(-111.418 -137.161)" fill="#72adb6"/>
    <path id="Path_17660" data-name="Path 17660" d="M157.9,170.513c-.694-.106-1.41-.234-2.154-.39l1.369.965a9.083,9.083,0,0,1-1.176,1l1.695.611-1.02,2.843-1.272-.455c.257.638.468,1.3.666,1.952l-1.791.634a15.243,15.243,0,0,0-.772-2.613,2.5,2.5,0,0,1-1.268,1.318,2.752,2.752,0,0,1-1.672-.234l-1.961-.7c-.188.115-.377.211-.537.3l5.842,2.095-.455,1.259a8.95,8.95,0,0,1-2.8,1.061,23.851,23.851,0,0,0,4.028,1.879l-1.033,1.764a27.084,27.084,0,0,1-5.319-3.041c-.156-.129-.308-.253-.432-.372a35.754,35.754,0,0,1-6.4-.873l-.11-2.044a31.741,31.741,0,0,0,4.644,1.079,16.942,16.942,0,0,1-1.231-1.571,9.361,9.361,0,0,1-2.071.184l-.188-1.984a8.632,8.632,0,0,0,4.285-.611,1.561,1.561,0,0,1-.032-1.488l.639-1.778,1.727.62-.473,1.323a.424.424,0,0,0,.289.616l1.773.638a2.057,2.057,0,0,0,.716.147c.156.018.367-.234.62-.749l1.277.827c-.092-.2-.188-.4-.266-.606l1.663-.464c.11.243.211.478.331.7l.28-.776-4.226-1.516c.363.427.689.85,1,1.291l-1.548.868a16.552,16.552,0,0,0-1.249-1.947l.932-.524-4.161-1.493-.225.634,1.024.932a11.432,11.432,0,0,1-2.471,2.545l-1.02-1.644a9.043,9.043,0,0,0,1.713-1.318l-1.277-.459,1.02-2.848,2.044.735c-.087-.322-.188-.671-.317-1.024l1.548.174c-.675-.225-1.355-.469-2.058-.721l.092-1.755a81.376,81.376,0,0,0,11.694,3.408Zm-9.379,8.217a8.008,8.008,0,0,0,2.306-.34l-4.12-1.479A10.959,10.959,0,0,0,148.518,178.73Zm2.2-8.516c-.046-.381-.11-.785-.2-1.2l1.447.175c-1.047-.308-2.173-.657-3.33-1.034a6.667,6.667,0,0,1,.257,1.406Zm3.091,1.111a8.733,8.733,0,0,0,1.52-1.281c-.877-.188-1.791-.423-2.738-.689a8.836,8.836,0,0,1,.115,1.576Z" transform="translate(-99.633 -133.083)" fill="#72adb6"/>
  </g>
</svg>
