<svg id="section4_title1_lg" xmlns="http://www.w3.org/2000/svg" width="349" height="123" viewBox="0 0 349 123">
  <g id="Group_51" data-name="Group 51">
    <path id="Path_52" data-name="Path 52" d="M124.963,895.787c-.2,3.04-.456,6.093-.757,9.206h9.236c.1,11.611-1.261,20.823-4.036,27.624,2.018,1.763,3.783,3.46,5.4,5.109l-4.138,7.329a51.254,51.254,0,0,0-4.594-5.751,44.64,44.64,0,0,1-8.029,9.446l-4.744-6.214a27.13,27.13,0,0,0,7.975-8.036c-2.27-2-4.744-3.934-7.368-5.932,1.411-5.8,2.474-11.437,3.279-16.949H113.7v-6.627H118c.3-3.226.552-6.4.655-9.446Zm2.222,15.833H123.4q-1.054,7.035-2.57,14.43c1.207.822,2.318,1.644,3.381,2.4A58.807,58.807,0,0,0,127.185,911.62Zm30.29-13.788v6.219a55.276,55.276,0,0,1-7.471,11.791v2.411h9.086v7.089h-9.086v17.194c-.1,3.982-3.027,5.98-8.684,5.98H136.98l-.961-7.329c3.285.174,5.249.234,5.909.234,1.009,0,1.567-.822,1.567-2.525V925.342H133.443v-7.089H143.5v-6.4a34.407,34.407,0,0,0,5.453-6.862H134.4v-7.161Z" transform="translate(-113.097 -895.133)" fill="gold"/>
    <path id="Path_53" data-name="Path 53" d="M141.257,900.062V895.48h6.918v4.582h15.548v6.621H148.175v3.874h19.133v6.921h-8.533a33.911,33.911,0,0,1-2.877,5.692h9.038v6.693H148.175V934.2h17.92v6.627h-17.92v8.684h-6.918v-8.684h-18.13V934.2h18.13v-4.336H124.293V923.17h8.984a61.393,61.393,0,0,0-2.876-5.692h-8.684v-6.921h19.541v-3.874H125.3v-6.621Zm7.573,23.108a33.464,33.464,0,0,0,2.876-5.692H137.57c.961,1.883,1.868,3.815,2.726,5.692Z" transform="translate(-70.978 -895.48)" fill="gold"/>
    <path id="Path_54" data-name="Path 54" d="M175.615,907.284h-3.939v2.279h-8.888v2.057h11.056v18.07H162.788v2.519h13.428v5.752H162.788v3.754c3.135-.12,7.825-.413,13.986-.761l-.955,6.855c-5.507.12-8.636.24-9.392.24q-18.944,0-23.937-2.465A15.44,15.44,0,0,1,138.959,943a56.573,56.573,0,0,1-4.546,6.393l-4.342-5.925a26.923,26.923,0,0,0,5.5-7.449A28.4,28.4,0,0,0,138.1,928.8h-5.855a102.827,102.827,0,0,0,3.988-12.607h-5.807V909.8h13.025a94.269,94.269,0,0,1-3.537,12.553h5.3a60.175,60.175,0,0,1-3.735,15.425,1.016,1.016,0,0,1-.15.294,13.153,13.153,0,0,0,2.726,1.991c2.018,1,6.209,1.589,12.623,1.709v-3.814H144.058v-5.752h12.623V929.69H146.232V911.62h10.449v-2.057H148v-2.279h-4.144V896.255h31.762Zm-32.362-3.466-5.1,4.576a48.97,48.97,0,0,0-7.116-9.146l4.744-3.7A57.365,57.365,0,0,1,143.253,903.818Zm13.428.941V902h-6.918v2.758Zm0,13.962v-2.759h-4.75v2.759Zm0,3.868h-4.75v2.753h4.75Zm6.107-17.83h6.918V902h-6.918Zm0,13.962h5.3v-2.759h-5.3Zm5.3,3.868h-5.3v2.753h5.3Z" transform="translate(-29.154 -895.133)" fill="gold"/>
    <path id="Path_55" data-name="Path 55" d="M124.527,908.332c-.3,1.169-.655,2.285-.961,3.22H127c-.4-1.115-.811-2.165-1.261-3.22l5.3-1.356a29.218,29.218,0,0,1,1.513,4.576h3.987v4.582h-5.1v2.519h3.939v4.576h-3.939v2.753h4.342v4.576h-4.342v2.758h5.3v4.8H117.255V924.459c-.655.942-1.309,1.817-1.964,2.645l-2.024-6.867a35.129,35.129,0,0,0,6.161-13.26Zm29.786,31.612v4.576a34.638,34.638,0,0,1-9.134,7.569,89.975,89.975,0,0,0,14.437,1.176l-2.168,7.328a86.181,86.181,0,0,1-19.9-4.636c-5.651,2.231-12.923,3.814-21.913,4.636l-2.372-7.569a91.1,91.1,0,0,0,16.262-1.17,46.419,46.419,0,0,1-8.233-6.4h-4.642v-5.512Zm-28.02-23.81h-3.531v2.519h3.531Zm0,7.095h-3.531v2.753h3.531Zm-3.531,10.087h3.531v-2.758h-3.531Zm14.388,16.427a31.831,31.831,0,0,0,7.723-4.288H129.781A38.29,38.29,0,0,0,137.15,949.744Zm8.888-41.411c-.306,1.169-.558,2.225-.859,3.22h3.231c-.4-1-.913-1.991-1.417-2.987l5.555-1.41a27.226,27.226,0,0,1,1.615,4.4h4.7v4.582h-5.351v2.519h4.342v4.576h-4.342v2.753h4.342v4.576h-4.342v2.758h5.555v4.8H138.711v-12.9c-.4.588-.8,1.17-1.159,1.643l-1.766-6.393a37.359,37.359,0,0,0,5.507-13.494Zm2.168,7.8h-3.939v2.519h3.939Zm0,7.095h-3.939v2.753h3.939Zm-3.939,10.087h3.939v-2.758h-3.939Z" transform="translate(-113.267 -838.007)" fill="gold"/>
    <path id="Path_56" data-name="Path 56" d="M134.838,912.8h6.107v6.213H121.657V912.8h6.36a51.394,51.394,0,0,0-1.057-5.05l7.32-.707C134.478,908.99,134.634,910.921,134.838,912.8Zm4.138,8.912V927.7H123.626v-5.986Zm0,8.744v5.919H123.626v-5.919Zm.2,29.093h-5.7v-2.519h-4.138v2.987h-5.7V939.373h15.548Zm-5.7-8.037v-6.165h-4.138v6.165ZM167.4,908.7v6.153H155.436l-.606,3.934h10.4v11.2h3.333v6.393H140.387v-6.393h6.462l.763-5.044h-5.657v-6.159h6.564l.607-3.934h-7.573V908.7Zm-1.561,51.559h-6.312V957.5H148.872v2.753h-6.311V939.841h23.276Zm-6.312-8.738v-5.692H148.872v5.692Zm-.2-21.53v-5.044h-5.4l-.757,5.044Z" transform="translate(-71.273 -837.669)" fill="gold"/>
    <path id="Path_57" data-name="Path 57" d="M167.31,937.744v4.1a50.685,50.685,0,0,1-8.99,4.582h17.265v5.979H156.657v3.868c-.258,2.759-1.97,4.168-5.153,4.168h-8.485l-.8-5.745c3.735.174,5.855.234,6.311.234a1.259,1.259,0,0,0,1.411-1.409v-1.116H130.2v-5.979h19.739v-1.121a33.741,33.741,0,0,0,6.516-2.519h-17.77v-5.044ZM146,912.753a48.475,48.475,0,0,1-7.423,1.583l.048,1.649h6.365v5.038h-6.113l.1,2.291h6.011v2.639a20.357,20.357,0,0,0,4.342-1.878c-1.213-.875-2.324-1.7-3.333-2.4l2.474-2.465c-.408.18-.811.294-1.111.414L145.4,914.8a20.006,20.006,0,0,0,4.24-1.637c-1.213-1.056-2.324-2.057-3.435-2.933l3.135-3.227c1.615,1.236,3.129,2.4,4.438,3.46a20.955,20.955,0,0,0,3.081-3.232l2.931,2.819v-1.637h13.836l-1.615,21.992h2.57v13.08h-6.107v-7.562H136.912v7.562H130.8V930.41h2.426l-.859-20.649a40.369,40.369,0,0,0,11.458-2.525Zm.354,17.657-1.363-3.341v1.289h-5.759l.1,2.052Zm10.095,0c-1.159-1.116-2.222-2.111-3.231-3.047a29.238,29.238,0,0,1-5.5,3.047Zm-3.129-9.152a16.126,16.126,0,0,0,2.222-2.171c-.811-.822-1.567-1.637-2.27-2.459a22.311,22.311,0,0,1-3.741,2.112C150.85,919.62,152.111,920.442,153.324,921.258Zm6.864,1.823h6.161l.15-2.057h-6.312v-4.8h6.666l.2-2.291h-7.266v-2.993a24.577,24.577,0,0,1-2.474,2.579c.907.882,1.717,1.7,2.474,2.471l-2.072,2.867,2.276,2.171a24.145,24.145,0,0,1-2.828,3.052c1.111.936,2.12,1.758,3.027,2.519Zm5.507,7.329.2-2.285h-5.7v-.588l-2.066,2.873Z" transform="translate(-28.523 -837.858)" fill="gold"/>
    <path id="Path_58" data-name="Path 58" d="M181.981,913.867H145.126v37.369h38.217v6.393H145.126v2.057h-6.311V907.246h43.166ZM162.848,932.7v16.253H147.1V932.7Zm14.791-16.774v14.664H150.423V915.924Zm-20.3,22.466H152.6v4.81h4.744Zm14.395-16.721h-15.4V924.9h15.4Zm9.29,11.029v16.253h-16V932.7Zm-5.555,5.692h-4.894v4.81h4.894Z" transform="translate(14.607 -836.687)" fill="gold"/>
    <path id="Path_59" data-name="Path 59" d="M172.579,906.977v6.867h4.036a23.907,23.907,0,0,0,2.474-6.22l7.068,1.176a29.4,29.4,0,0,1-2.726,5.044H190.9v14.2H184.6v-8.271H153.44v8.271h-6.311v-14.2h7.423a51.96,51.96,0,0,0-2.678-4.81l6.516-1.649a27.589,27.589,0,0,1,3.027,6.459h4.246v-6.867Zm15.752,54.03h-6.113v-2.291h-25.8v2.291h-6.161V937.185h38.073Zm-5.705-38.719V934.9H155.41V922.288Zm-16.562,23.4V942.7h-9.644v2.987Zm0,7.575v-2.993h-9.644v2.993ZM176.717,927.1h-15.4v2.987h15.4Zm-4.546,18.586h10.047V942.7H172.171Zm10.047,7.575v-2.993H172.171v2.993Z" transform="translate(56.22 -838.007)" fill="gold"/>
    <path id="Path_60" data-name="Path 60" d="M167.1,914.078l-4.041,2.291h5.2v-9.392h5.555v9.392h4.09l-2.522-2.525a30.717,30.717,0,0,0,4.138-5.986l4.342,2.993a34.572,34.572,0,0,1-3.129,5.518h3.94v5.685h-6.816a55.9,55.9,0,0,1,8.179,3.929l-2.372,5.284a56.856,56.856,0,0,0-9.446-5.751l2.276-3.461h-2.678v10.562h-5.555v-6.981a27.737,27.737,0,0,1-7.471,5.223l4.546.642c-.1.822-.252,1.583-.354,2.285h6.059c.1,7.215-.961,12.906-3.135,17.015a26.772,26.772,0,0,1-8.479,9.56l-3.789-5.044a17.448,17.448,0,0,0,6.87-5.572,33.1,33.1,0,0,0-2.372-3.634c-.607.935-1.213,1.811-1.922,2.753l-2.925-5.458a21.44,21.44,0,0,0,3.381-5.337,28.806,28.806,0,0,0,1.868-7.1c-.811.408-1.669.822-2.528,1.176l-2.522-5.7q6.738-1.754,9.542-4.4h-8.377v-5.685h5a36.011,36.011,0,0,0-3.435-6.219l4.546-1.817A33.9,33.9,0,0,1,167.1,914.078Zm-2.072,30.208a33.16,33.16,0,0,0,.913-5.044h-2.372c-.306.881-.612,1.643-.913,2.345a.175.175,0,0,0-.054.114C163.456,942.529,164.267,943.4,165.024,944.286Zm20.2-4.342H182.7v7.569h3.129v5.752H182.7v7.328h-4.948v-7.328h-7.32l1.411-19.072h5.909v-3.161H182.7v3.161h2.522Zm-7.471,0h-1.411l-.709,7.569h2.12Zm23.883-26.334c-.607,4.69-1.567,10.735-2.979,18.064,2.12,4.81,3.177,8.972,3.177,12.612,0,3.928-.655,6.747-1.964,8.385-1.015,1.529-3.639,2.351-7.933,2.411v5.925h-5.5V909.268h15.2Zm-8.684,35.252q2.567-.09,2.726-4.576c0-3.58-1.111-7.8-3.333-12.612a120.627,120.627,0,0,0,3.177-15.779h-3.585v32.848A3.966,3.966,0,0,0,192.948,948.863Z" transform="translate(97.039 -838.007)" fill="gold"/>
    <path id="Path_61" data-name="Path 61" d="M194.984,928.143h15.2V934.6h-15.2v4.576h13.434v19.474H201.9v-2.285h-18.58v2.285H176.86V939.172h11.41V934.6H175.245a73.379,73.379,0,0,1-5.3,24.283l-6.312-6.213c3.387-6.339,5.1-14.5,5.1-24.523V907.32h39.839v16.715H194.984Zm-19.535-14.435v3.934H201.9v-3.934Zm0,14.435H188.27v-4.108H175.449ZM201.9,950.375v-5.044h-18.58v5.044Z" transform="translate(138.817 -836.293)" fill="gold"/>
  </g>
</svg>
