<svg xmlns="http://www.w3.org/2000/svg" xmlns:xlink="http://www.w3.org/1999/xlink" width="362.414" height="144.709" viewBox="0 0 362.414 144.709">
  <defs>
    <filter id="Path_37776" x="66.367" y="-0.001" width="296.047" height="144.71" filterUnits="userSpaceOnUse">
      <feOffset input="SourceAlpha"/>
      <feGaussianBlur stdDeviation="0.511" result="blur"/>
      <feFlood flood-opacity="0.4"/>
      <feComposite operator="in" in2="blur"/>
      <feComposite in="SourceGraphic"/>
    </filter>
    <linearGradient id="linear-gradient" x1="101.51" y1="-272.649" x2="100.805" y2="-272.189" gradientUnits="objectBoundingBox">
      <stop offset="0" stop-color="#c9cdcd"/>
      <stop offset="1" stop-color="#9fa0a0"/>
    </linearGradient>
  </defs>
  <g id="section6_imgicon3" transform="translate(-50.627 -7658.779)">
    <rect id="Rectangle_120" data-name="Rectangle 120" width="309" height="50.552" transform="translate(76.627 7659)" fill="#72adb6"/>
    <g id="Group_6132" data-name="Group 6132" transform="translate(50.627 7659.47)">
      <g id="Group_6126" data-name="Group 6126" transform="translate(67.902 0.843)">
        <g transform="matrix(1, 0, 0, 1, -67.9, -1.53)" filter="url(#Path_37776)">
          <path id="Path_37776-2" data-name="Path 37776" d="M376.05,1773.084l-38.322-47.056c-3.923-4.824-9.184-7.045-14.357-6.718a15.228,15.228,0,0,0-3.339-.391H106.321c-9.754,0-17.733,9.8-17.733,21.78v98.083c0,11.98,7.979,21.78,17.733,21.78H320.032a15.532,15.532,0,0,0,4.9-.823,17.338,17.338,0,0,0,12.8-6.743l38.322-47.059C383.408,1796.9,383.408,1782.121,376.05,1773.084Z" transform="translate(-20.69 -1717.39)" fill="#fff"/>
        </g>
      </g>
      <g id="Group_6131" data-name="Group 6131">
        <g id="Group_6128" data-name="Group 6128">
          <g id="Group_6127" data-name="Group 6127" opacity="0.6" style="mix-blend-mode: multiply;isolation: isolate">
            <circle id="Ellipse_180" data-name="Ellipse 180" cx="49.469" cy="49.469" r="49.469" transform="translate(11.521 57.291) rotate(-34.898)" fill="#fff"/>
            <circle id="Ellipse_181" data-name="Ellipse 181" cx="49.47" cy="49.47" r="49.47" transform="translate(13.9 47.58) rotate(-26.668)" fill="#fefefe"/>
            <path id="Path_37777" data-name="Path 37777" d="M177.146,1787.548a49.47,49.47,0,1,1-32.2-62.107,49.47,49.47,0,0,1,32.2,62.107Z" transform="translate(-49.767 -1702.984)" fill="#fdfdfd"/>
            <circle id="Ellipse_182" data-name="Ellipse 182" cx="49.47" cy="49.47" r="49.47" transform="matrix(0.636, -0.771, 0.771, 0.636, 10.495, 76.326)" fill="#fcfcfc"/>
            <path id="Path_37778" data-name="Path 37778" d="M177.109,1787.561a49.47,49.47,0,1,1-32.2-62.106,49.47,49.47,0,0,1,32.2,62.106Z" transform="translate(-49.905 -1702.938)" fill="#fbfbfb"/>
            <path id="Path_37779" data-name="Path 37779" d="M177.09,1787.568a49.47,49.47,0,1,1-32.2-62.107,49.47,49.47,0,0,1,32.2,62.107Z" transform="translate(-49.974 -1702.916)" fill="#fafafa"/>
            <path id="Path_37780" data-name="Path 37780" d="M177.071,1787.576a49.47,49.47,0,1,1-32.2-62.111,49.47,49.47,0,0,1,32.2,62.111Z" transform="translate(-50.042 -1702.893)" fill="#f9f9f9"/>
            <circle id="Ellipse_183" data-name="Ellipse 183" cx="49.469" cy="49.469" r="49.469" transform="translate(10.841 57.874) rotate(-35.219)" fill="#f8f8f8"/>
            <circle id="Ellipse_184" data-name="Ellipse 184" cx="49.47" cy="49.47" r="49.47" transform="translate(10.056 76.473) rotate(-50.483)" fill="#f7f7f7"/>
            <path id="Path_37781" data-name="Path 37781" d="M177.009,1787.593a49.468,49.468,0,1,1-32.2-62.106A49.468,49.468,0,0,1,177.009,1787.593Z" transform="translate(-50.247 -1702.823)" fill="#f6f6f6"/>
            <path id="Path_37782" data-name="Path 37782" d="M176.99,1787.6a49.469,49.469,0,1,1-32.2-62.111,49.469,49.469,0,0,1,32.2,62.111Z" transform="translate(-50.316 -1702.801)" fill="#f5f5f5"/>
            <path id="Path_37783" data-name="Path 37783" d="M176.971,1787.607a49.468,49.468,0,1,1-32.2-62.107,49.468,49.468,0,0,1,32.2,62.107Z" transform="translate(-50.384 -1702.776)" fill="#f4f4f4"/>
            <circle id="Ellipse_185" data-name="Ellipse 185" cx="49.469" cy="49.469" r="49.469" transform="translate(10.402 58.02) rotate(-35.231)" fill="#f3f3f3"/>
            <path id="Path_37784" data-name="Path 37784" d="M176.935,1787.622a49.47,49.47,0,1,1-32.2-62.112,49.47,49.47,0,0,1,32.2,62.112Z" transform="translate(-50.523 -1702.732)" fill="#f2f2f2"/>
            <circle id="Ellipse_186" data-name="Ellipse 186" cx="49.47" cy="49.47" r="49.47" transform="translate(10.516 83.424) rotate(-56.087)" fill="#f1f1f1"/>
            <path id="Path_37785" data-name="Path 37785" d="M176.9,1787.635a49.471,49.471,0,1,1-32.2-62.111A49.471,49.471,0,0,1,176.9,1787.635Z" transform="translate(-50.659 -1702.685)" fill="#f0f0f0"/>
            <path id="Path_37786" data-name="Path 37786" d="M176.88,1787.639a49.47,49.47,0,1,1-32.2-62.107,49.47,49.47,0,0,1,32.2,62.107Z" transform="translate(-50.729 -1702.662)" fill="#efefef"/>
            <circle id="Ellipse_187" data-name="Ellipse 187" cx="49.47" cy="49.47" r="49.47" transform="translate(12.497 48.052) rotate(-26.669)" fill="#eee"/>
            <circle id="Ellipse_188" data-name="Ellipse 188" cx="49.47" cy="49.47" r="49.47" transform="matrix(0.615, -0.788, 0.788, 0.615, 9.384, 78.64)" fill="#ededed"/>
            <path id="Path_37787" data-name="Path 37787" d="M176.823,1787.658a49.47,49.47,0,1,1-32.2-62.106,49.47,49.47,0,0,1,32.2,62.106Z" transform="translate(-50.935 -1702.593)" fill="#ececec"/>
            <circle id="Ellipse_189" data-name="Ellipse 189" cx="49.47" cy="49.47" r="49.47" transform="translate(9.003 76.826) rotate(-50.482)" fill="#ebebeb"/>
            <path id="Path_37788" data-name="Path 37788" d="M176.785,1787.67a49.47,49.47,0,1,1-32.205-62.107,49.47,49.47,0,0,1,32.205,62.107Z" transform="translate(-51.071 -1702.546)" fill="#eaeaea"/>
            <circle id="Ellipse_190" data-name="Ellipse 190" cx="49.47" cy="49.47" r="49.47" transform="translate(9.957 84.365) rotate(-56.68)" fill="#e9e9e9"/>
            <path id="Path_37789" data-name="Path 37789" d="M176.742,1787.683a49.468,49.468,0,1,1-32.2-62.107,49.468,49.468,0,0,1,32.2,62.107Z" transform="translate(-51.208 -1702.498)" fill="#e8e8e8"/>
            <circle id="Ellipse_191" data-name="Ellipse 191" cx="49.469" cy="49.469" r="49.469" transform="translate(9.35 58.373) rotate(-35.231)" fill="#e7e7e7"/>
            <path id="Path_37790" data-name="Path 37790" d="M176.7,1787.7a49.468,49.468,0,1,1-32.2-62.111,49.468,49.468,0,0,1,32.2,62.111Z" transform="translate(-51.345 -1702.454)" fill="#e6e6e6"/>
            <path id="Path_37791" data-name="Path 37791" d="M176.685,1787.7a49.468,49.468,0,1,1-32.2-62.107,49.468,49.468,0,0,1,32.2,62.107Z" transform="translate(-51.413 -1702.43)" fill="#e5e5e5"/>
            <path id="Path_37792" data-name="Path 37792" d="M176.666,1787.713a49.468,49.468,0,1,1-32.2-62.111,49.468,49.468,0,0,1,32.2,62.111Z" transform="translate(-51.482 -1702.409)" fill="#e4e4e4"/>
            <path id="Path_37793" data-name="Path 37793" d="M176.649,1787.715a49.47,49.47,0,1,1-32.2-62.107,49.47,49.47,0,0,1,32.2,62.107Z" transform="translate(-51.552 -1702.384)" fill="#e3e3e3"/>
            <circle id="Ellipse_192" data-name="Ellipse 192" cx="49.47" cy="49.47" r="49.47" transform="translate(8.39 78.721) rotate(-51.823)" fill="#e2e2e2"/>
            <circle id="Ellipse_193" data-name="Ellipse 193" cx="49.469" cy="49.469" r="49.469" transform="matrix(0.753, -0.658, 0.658, 0.753, 7.965, 65.726)" fill="#e1e1e1"/>
            <circle id="Ellipse_194" data-name="Ellipse 194" cx="49.469" cy="49.469" r="49.469" transform="matrix(0.753, -0.658, 0.658, 0.753, 7.877, 65.755)" fill="#e0e0e0"/>
            <path id="Path_37794" data-name="Path 37794" d="M176.575,1787.743a49.47,49.47,0,1,1-32.2-62.111,49.47,49.47,0,0,1,32.2,62.111Z" transform="translate(-51.827 -1702.292)" fill="#dfdfdf"/>
            <path id="Path_37795" data-name="Path 37795" d="M176.556,1787.747a49.47,49.47,0,1,1-32.205-62.107A49.47,49.47,0,0,1,176.556,1787.747Z" transform="translate(-51.895 -1702.269)" fill="#dedede"/>
            <path id="Path_37796" data-name="Path 37796" d="M176.537,1787.752a49.47,49.47,0,1,1-32.205-62.107,49.47,49.47,0,0,1,32.205,62.107Z" transform="translate(-51.964 -1702.246)" fill="#ddd"/>
            <circle id="Ellipse_195" data-name="Ellipse 195" cx="49.47" cy="49.47" r="49.47" transform="translate(7.497 74.839) rotate(-48.485)" fill="#dcdcdc"/>
            <circle id="Ellipse_196" data-name="Ellipse 196" cx="49.469" cy="49.469" r="49.469" transform="translate(8.298 58.725) rotate(-35.231)" fill="#dbdbdb"/>
            <circle id="Ellipse_197" data-name="Ellipse 197" cx="49.469" cy="49.469" r="49.469" transform="translate(9.525 88.557) rotate(-59.871)" fill="#dadada"/>
            <path id="Path_37797" data-name="Path 37797" d="M176.456,1787.779a49.468,49.468,0,1,1-32.2-62.107,49.468,49.468,0,0,1,32.2,62.107Z" transform="translate(-52.237 -1702.153)" fill="#d9d9d9"/>
            <circle id="Ellipse_198" data-name="Ellipse 198" cx="49.47" cy="49.47" r="49.47" transform="translate(8.291 83.993) rotate(-55.95)" fill="#d8d8d8"/>
            <path id="Path_37798" data-name="Path 37798" d="M176.42,1787.793a49.47,49.47,0,1,1-32.2-62.107,49.47,49.47,0,0,1,32.2,62.107Z" transform="translate(-52.376 -1702.107)" fill="#d7d7d7"/>
            <circle id="Ellipse_199" data-name="Ellipse 199" cx="49.469" cy="49.469" r="49.469" transform="translate(10.961 94.414) rotate(-64.76)" fill="#d6d6d6"/>
            <circle id="Ellipse_200" data-name="Ellipse 200" cx="49.469" cy="49.469" r="49.469" transform="matrix(0.756, -0.654, 0.654, 0.756, 6.936, 65.748)" fill="#d5d5d5"/>
            <circle id="Ellipse_201" data-name="Ellipse 201" cx="49.469" cy="49.469" r="49.469" transform="matrix(0.753, -0.658, 0.658, 0.753, 6.825, 66.108)" fill="#d4d4d4"/>
            <path id="Path_37799" data-name="Path 37799" d="M176.345,1787.821a49.47,49.47,0,1,1-32.2-62.112,49.47,49.47,0,0,1,32.2,62.112Z" transform="translate(-52.65 -1702.015)" fill="#d3d3d3"/>
            <path id="Path_37800" data-name="Path 37800" d="M176.327,1787.824a49.47,49.47,0,1,1-32.2-62.107,49.47,49.47,0,0,1,32.2,62.107Z" transform="translate(-52.72 -1701.991)" fill="#d2d2d2"/>
            <circle id="Ellipse_202" data-name="Ellipse 202" cx="49.47" cy="49.47" r="49.47" transform="translate(6.532 75.16) rotate(-48.485)" fill="#d1d1d1"/>
            <circle id="Ellipse_203" data-name="Ellipse 203" cx="49.47" cy="49.47" r="49.47" transform="matrix(0.663, -0.749, 0.749, 0.663, 6.444, 75.189)" fill="#d0d0d0"/>
            <circle id="Ellipse_204" data-name="Ellipse 204" cx="49.469" cy="49.469" r="49.469" transform="translate(8.559 88.88) rotate(-59.834)" fill="#cfcfcf"/>
            <path id="Path_37801" data-name="Path 37801" d="M176.246,1787.852a49.468,49.468,0,1,1-32.2-62.112A49.468,49.468,0,0,1,176.246,1787.852Z" transform="translate(-52.993 -1701.899)" fill="#cecece"/>
            <path id="Path_37802" data-name="Path 37802" d="M176.227,1787.857a49.468,49.468,0,1,1-32.2-62.107,49.468,49.468,0,0,1,32.2,62.107Z" transform="translate(-53.062 -1701.876)" fill="#cdcdcd"/>
            <path id="Path_37803" data-name="Path 37803" d="M176.208,1787.865a49.468,49.468,0,1,1-32.2-62.111,49.468,49.468,0,0,1,32.2,62.111Z" transform="translate(-53.13 -1701.854)" fill="#ccc"/>
            <path id="Path_37804" data-name="Path 37804" d="M176.189,1787.869a49.468,49.468,0,1,1-32.2-62.107,49.468,49.468,0,0,1,32.2,62.107Z" transform="translate(-53.198 -1701.829)" fill="#cbcbcb"/>
            <circle id="Ellipse_205" data-name="Ellipse 205" cx="49.469" cy="49.469" r="49.469" transform="translate(9.564 93.788) rotate(-63.909)" fill="#cacaca"/>
            <circle id="Ellipse_206" data-name="Ellipse 206" cx="49.47" cy="49.47" r="49.47" transform="translate(5.83 75.394) rotate(-48.485)" fill="#c9c9c9"/>
            <circle id="Ellipse_207" data-name="Ellipse 207" cx="49.469" cy="49.469" r="49.469" transform="matrix(0.864, -0.503, 0.503, 0.864, 7.942, 53.278)" fill="#c8c8c8"/>
            <circle id="Ellipse_208" data-name="Ellipse 208" cx="49.469" cy="49.469" r="49.469" transform="translate(7.054 56.662) rotate(-33.007)" fill="#c7c7c7"/>
            <path id="Path_37805" data-name="Path 37805" d="M176.1,1787.9a49.47,49.47,0,1,1-32.2-62.107,49.47,49.47,0,0,1,32.2,62.107Z" transform="translate(-53.544 -1701.714)" fill="#c6c6c6"/>
            <circle id="Ellipse_209" data-name="Ellipse 209" cx="49.47" cy="49.47" r="49.47" transform="translate(5.479 75.511) rotate(-48.485)" fill="#c5c5c5"/>
            <path id="Path_37806" data-name="Path 37806" d="M176.06,1787.915a49.47,49.47,0,1,1-32.2-62.107A49.47,49.47,0,0,1,176.06,1787.915Z" transform="translate(-53.68 -1701.668)" fill="#c4c4c4"/>
            <path id="Path_37807" data-name="Path 37807" d="M176.041,1787.92a49.47,49.47,0,1,1-32.2-62.107,49.47,49.47,0,0,1,32.2,62.107Z" transform="translate(-53.749 -1701.646)" fill="#c3c3c3"/>
            <path id="Path_37808" data-name="Path 37808" d="M176.017,1787.93a49.468,49.468,0,1,1-32.2-62.111A49.468,49.468,0,0,1,176.017,1787.93Z" transform="translate(-53.817 -1701.623)" fill="#c2c2c2"/>
            <path id="Path_37809" data-name="Path 37809" d="M176,1787.934a49.468,49.468,0,1,1-32.2-62.107,49.468,49.468,0,0,1,32.2,62.107Z" transform="translate(-53.886 -1701.6)" fill="#c1c1c1"/>
            <path id="Path_37810" data-name="Path 37810" d="M175.979,1787.944a49.468,49.468,0,1,1-32.2-62.111,49.468,49.468,0,0,1,32.2,62.111Z" transform="translate(-53.954 -1701.578)" fill="silver"/>
            <path id="Path_37811" data-name="Path 37811" d="M175.96,1787.946a49.468,49.468,0,1,1-32.2-62.106A49.468,49.468,0,0,1,175.96,1787.946Z" transform="translate(-54.022 -1701.552)" fill="silver"/>
            <circle id="Ellipse_210" data-name="Ellipse 210" cx="49.469" cy="49.469" r="49.469" transform="translate(9.013 95.555) rotate(-65.137)" fill="#bfbfbf"/>
            <circle id="Ellipse_211" data-name="Ellipse 211" cx="49.469" cy="49.469" r="49.469" transform="translate(8.051 49.95) rotate(-27.052)" fill="#bebebe"/>
            <circle id="Ellipse_212" data-name="Ellipse 212" cx="49.469" cy="49.469" r="49.469" transform="translate(7.233 52.38) rotate(-29.127)" fill="#bdbdbd"/>
            <path id="Path_37812" data-name="Path 37812" d="M175.884,1787.974a49.468,49.468,0,1,1-32.2-62.111,49.468,49.468,0,0,1,32.2,62.111Z" transform="translate(-54.296 -1701.461)" fill="#bcbcbc"/>
            <path id="Path_37813" data-name="Path 37813" d="M175.867,1787.978a49.47,49.47,0,1,1-32.2-62.106,49.47,49.47,0,0,1,32.2,62.106Z" transform="translate(-54.366 -1701.437)" fill="#bbb"/>
            <path id="Path_37814" data-name="Path 37814" d="M175.848,1787.989a49.471,49.471,0,1,1-32.2-62.111,49.471,49.471,0,0,1,32.2,62.111Z" transform="translate(-54.435 -1701.415)" fill="#bababa"/>
            <path id="Path_37815" data-name="Path 37815" d="M175.831,1787.991a49.47,49.47,0,1,1-32.2-62.107,49.47,49.47,0,0,1,32.2,62.107Z" transform="translate(-54.505 -1701.391)" fill="#b9b9b9"/>
            <circle id="Ellipse_213" data-name="Ellipse 213" cx="49.469" cy="49.469" r="49.469" transform="translate(16.024 32.644) rotate(-11.087)" fill="#b8b8b8"/>
            <path id="Path_37816" data-name="Path 37816" d="M175.793,1788.007a49.47,49.47,0,1,1-32.2-62.112,49.47,49.47,0,0,1,32.2,62.112Z" transform="translate(-54.641 -1701.346)" fill="#b7b7b7"/>
            <path id="Path_37817" data-name="Path 37817" d="M175.774,1788.01a49.47,49.47,0,1,1-32.205-62.107,49.47,49.47,0,0,1,32.205,62.107Z" transform="translate(-54.71 -1701.322)" fill="#b6b6b6"/>
            <circle id="Ellipse_214" data-name="Ellipse 214" cx="49.469" cy="49.469" r="49.469" transform="translate(24.35 22.296)" fill="#b5b5b5"/>
            <circle id="Ellipse_215" data-name="Ellipse 215" cx="49.469" cy="49.469" r="49.469" transform="translate(7.488 94.295) rotate(-63.761)" fill="#b4b4b4"/>
            <circle id="Ellipse_216" data-name="Ellipse 216" cx="49.469" cy="49.469" r="49.469" transform="translate(7.959 95.905) rotate(-65.101)" fill="#b3b3b3"/>
            <path id="Path_37818" data-name="Path 37818" d="M175.693,1788.036a49.468,49.468,0,1,1-32.2-62.107,49.468,49.468,0,0,1,32.2,62.107Z" transform="translate(-54.983 -1701.228)" fill="#b2b2b2"/>
            <circle id="Ellipse_217" data-name="Ellipse 217" cx="49.469" cy="49.469" r="49.469" transform="translate(23.306 120.65) rotate(-89.192)" fill="#b1b1b1"/>
            <path id="Path_37819" data-name="Path 37819" d="M175.655,1788.052a49.468,49.468,0,1,1-32.2-62.111A49.468,49.468,0,0,1,175.655,1788.052Z" transform="translate(-55.12 -1701.184)" fill="#b0b0b0"/>
            <path id="Path_37820" data-name="Path 37820" d="M175.636,1788.055a49.468,49.468,0,1,1-32.2-62.107A49.468,49.468,0,0,1,175.636,1788.055Z" transform="translate(-55.188 -1701.159)" fill="#afafaf"/>
            <path id="Path_37821" data-name="Path 37821" d="M175.619,1788.066a49.471,49.471,0,1,1-32.2-62.111,49.471,49.471,0,0,1,32.2,62.111Z" transform="translate(-55.259 -1701.139)" fill="#aeaeae"/>
            <circle id="Ellipse_218" data-name="Ellipse 218" cx="49.469" cy="49.469" r="49.469" transform="translate(15.048 32.986) rotate(-11.104)" fill="#adadad"/>
            <circle id="Ellipse_219" data-name="Ellipse 219" cx="49.469" cy="49.469" r="49.469" transform="translate(14.96 33.015) rotate(-11.104)" fill="#acacac"/>
            <path id="Path_37822" data-name="Path 37822" d="M175.563,1788.084a49.47,49.47,0,1,1-32.2-62.111,49.47,49.47,0,0,1,32.2,62.111Z" transform="translate(-55.464 -1701.069)" fill="#ababab"/>
            <path id="Path_37823" data-name="Path 37823" d="M175.545,1788.087a49.47,49.47,0,1,1-32.2-62.106,49.47,49.47,0,0,1,32.2,62.106Z" transform="translate(-55.534 -1701.045)" fill="#aaa"/>
            <circle id="Ellipse_220" data-name="Ellipse 220" cx="49.469" cy="49.469" r="49.469" transform="translate(23.298 22.651)" fill="#a9a9a9"/>
            <circle id="Ellipse_221" data-name="Ellipse 221" cx="49.469" cy="49.469" r="49.469" transform="translate(23.21 22.68)" fill="#a8a8a8"/>
            <path id="Path_37824" data-name="Path 37824" d="M175.483,1788.112a49.469,49.469,0,1,1-32.2-62.112,49.469,49.469,0,0,1,32.2,62.112Z" transform="translate(-55.739 -1700.977)" fill="#a7a7a7"/>
            <circle id="Ellipse_222" data-name="Ellipse 222" cx="49.469" cy="49.469" r="49.469" transform="translate(5.816 51.061) rotate(-27.385)" fill="#a6a6a6"/>
            <path id="Path_37825" data-name="Path 37825" d="M175.445,1788.119a49.468,49.468,0,1,1-32.2-62.107,49.468,49.468,0,0,1,32.2,62.107Z" transform="translate(-55.876 -1700.929)" fill="#a5a5a5"/>
            <circle id="Ellipse_223" data-name="Ellipse 223" cx="49.469" cy="49.469" r="49.469" transform="translate(22.859 22.798)" fill="#a4a4a4"/>
            <path id="Path_37826" data-name="Path 37826" d="M175.407,1788.132a49.468,49.468,0,1,1-32.2-62.107A49.468,49.468,0,0,1,175.407,1788.132Z" transform="translate(-56.013 -1700.883)" fill="#a3a3a3"/>
            <circle id="Ellipse_224" data-name="Ellipse 224" cx="49.469" cy="49.469" r="49.469" transform="translate(22.684 22.857)" fill="#a2a2a2"/>
            <circle id="Ellipse_225" data-name="Ellipse 225" cx="49.469" cy="49.469" r="49.469" transform="matrix(0.981, -0.193, 0.193, 0.981, 13.996, 33.339)" fill="#a1a1a1"/>
            <circle id="Ellipse_226" data-name="Ellipse 226" cx="49.469" cy="49.469" r="49.469" transform="translate(22.225 23.201) rotate(-0.344)" fill="#a0a0a0"/>
            <path id="Path_37827" data-name="Path 37827" d="M175.333,1788.158a49.47,49.47,0,1,1-32.2-62.107,49.47,49.47,0,0,1,32.2,62.107Z" transform="translate(-56.288 -1700.79)" fill="#9f9f9f"/>
            <circle id="Ellipse_227" data-name="Ellipse 227" cx="49.469" cy="49.469" r="49.469" transform="translate(5.583 49.873) rotate(-26.178)" fill="#9e9e9e"/>
            <circle id="Ellipse_228" data-name="Ellipse 228" cx="49.469" cy="49.469" r="49.469" transform="translate(22.245 23.005)" fill="#9d9d9d"/>
            <path id="Path_37828" data-name="Path 37828" d="M175.278,1788.178a49.47,49.47,0,1,1-32.205-62.107A49.47,49.47,0,0,1,175.278,1788.178Z" transform="translate(-56.495 -1700.721)" fill="#9c9c9c"/>
            <path id="Path_37829" data-name="Path 37829" d="M175.254,1788.184a49.468,49.468,0,1,1-32.2-62.107,49.468,49.468,0,0,1,32.2,62.107Z" transform="translate(-56.563 -1700.7)" fill="#9b9b9b"/>
            <circle id="Ellipse_229" data-name="Ellipse 229" cx="49.469" cy="49.469" r="49.469" transform="translate(21.7 23.377) rotate(-0.328)" fill="#9a9a9a"/>
            <path id="Path_37830" data-name="Path 37830" d="M175.216,1788.2a49.468,49.468,0,1,1-32.2-62.107,49.468,49.468,0,0,1,32.2,62.107Z" transform="translate(-56.7 -1700.652)" fill="#999"/>
            <path id="Path_37831" data-name="Path 37831" d="M175.2,1788.2a49.468,49.468,0,1,1-32.2-62.111,49.468,49.468,0,0,1,32.2,62.111Z" transform="translate(-56.768 -1700.629)" fill="#989898"/>
            <circle id="Ellipse_230" data-name="Ellipse 230" cx="49.469" cy="49.469" r="49.469" transform="translate(7.115 44.56) rotate(-21.326)" fill="#979797"/>
            <path id="Path_37832" data-name="Path 37832" d="M175.159,1788.22a49.469,49.469,0,1,1-32.2-62.111,49.469,49.469,0,0,1,32.2,62.111Z" transform="translate(-56.905 -1700.585)" fill="#969696"/>
            <circle id="Ellipse_231" data-name="Ellipse 231" cx="49.469" cy="49.469" r="49.469" transform="translate(12.944 33.691) rotate(-11.101)" fill="#959595"/>
            <path id="Path_37833" data-name="Path 37833" d="M175.121,1788.229a49.468,49.468,0,1,1-32.2-62.107,49.468,49.468,0,0,1,32.2,62.107Z" transform="translate(-57.042 -1700.538)" fill="#949494"/>
            <path id="Path_37834" data-name="Path 37834" d="M175.1,1788.237a49.47,49.47,0,1,1-32.2-62.111,49.47,49.47,0,0,1,32.2,62.111Z" transform="translate(-57.112 -1700.514)" fill="#939393"/>
            <path id="Path_37835" data-name="Path 37835" d="M175.085,1788.242a49.47,49.47,0,1,1-32.2-62.107,49.47,49.47,0,0,1,32.2,62.107Z" transform="translate(-57.181 -1700.492)" fill="#929292"/>
            <circle id="Ellipse_232" data-name="Ellipse 232" cx="49.469" cy="49.469" r="49.469" transform="translate(21.192 23.359)" fill="#919191"/>
            <path id="Path_37836" data-name="Path 37836" d="M175.049,1788.254a49.47,49.47,0,1,1-32.2-62.107,49.47,49.47,0,0,1,32.2,62.107Z" transform="translate(-57.319 -1700.443)" fill="#909090"/>
            <path id="Path_37837" data-name="Path 37837" d="M175.03,1788.265a49.471,49.471,0,1,1-32.2-62.111,49.471,49.471,0,0,1,32.2,62.111Z" transform="translate(-57.387 -1700.423)" fill="#8f8f8f"/>
            <path id="Path_37838" data-name="Path 37838" d="M175.011,1788.267a49.47,49.47,0,1,1-32.2-62.106,49.47,49.47,0,0,1,32.2,62.106Z" transform="translate(-57.456 -1700.397)" fill="#8e8e8e"/>
            <circle id="Ellipse_233" data-name="Ellipse 233" cx="49.469" cy="49.469" r="49.469" transform="translate(4.092 50.375) rotate(-26.178)" fill="#8d8d8d"/>
            <path id="Path_37839" data-name="Path 37839" d="M174.968,1788.283a49.468,49.468,0,1,1-32.2-62.112,49.468,49.468,0,0,1,32.2,62.112Z" transform="translate(-57.592 -1700.353)" fill="#8c8c8c"/>
            <path id="Path_37840" data-name="Path 37840" d="M174.949,1788.286a49.468,49.468,0,1,1-32.2-62.107,49.468,49.468,0,0,1,32.2,62.107Z" transform="translate(-57.661 -1700.329)" fill="#8b8b8b"/>
            <path id="Path_37841" data-name="Path 37841" d="M174.93,1788.3a49.469,49.469,0,1,1-32.2-62.111,49.469,49.469,0,0,1,32.2,62.111Z" transform="translate(-57.729 -1700.307)" fill="#8a8a8a"/>
            <circle id="Ellipse_234" data-name="Ellipse 234" cx="49.469" cy="49.469" r="49.469" transform="translate(0 73.064) rotate(-45)" fill="#898989"/>
            <path id="Path_37842" data-name="Path 37842" d="M174.892,1788.3a49.468,49.468,0,1,1-32.2-62.106,49.468,49.468,0,0,1,32.2,62.106Z" transform="translate(-57.866 -1700.26)" fill="#888"/>
            <circle id="Ellipse_235" data-name="Ellipse 235" cx="49.469" cy="49.469" r="49.469" transform="translate(13.852 31.101) rotate(-8.082)" fill="#878787"/>
            <path id="Path_37843" data-name="Path 37843" d="M174.854,1788.319a49.468,49.468,0,1,1-32.2-62.107,49.468,49.468,0,0,1,32.2,62.107Z" transform="translate(-58.003 -1700.214)" fill="#868686"/>
            <path id="Path_37844" data-name="Path 37844" d="M174.837,1788.329a49.471,49.471,0,1,1-32.2-62.111,49.471,49.471,0,0,1,32.2,62.111Z" transform="translate(-58.073 -1700.192)" fill="#858585"/>
            <path id="Path_37845" data-name="Path 37845" d="M174.819,1788.331a49.47,49.47,0,1,1-32.2-62.106,49.47,49.47,0,0,1,32.2,62.106Z" transform="translate(-58.142 -1700.166)" fill="#848484"/>
            <circle id="Ellipse_236" data-name="Ellipse 236" cx="49.469" cy="49.469" r="49.469" transform="translate(2.946 51.476) rotate(-26.874)" fill="#838383"/>
            <path id="Path_37846" data-name="Path 37846" d="M174.782,1788.345a49.47,49.47,0,1,1-32.2-62.107,49.47,49.47,0,0,1,32.2,62.107Z" transform="translate(-58.28 -1700.121)" fill="#828282"/>
            <path id="Path_37847" data-name="Path 37847" d="M174.763,1788.351a49.47,49.47,0,1,1-32.2-62.107,49.47,49.47,0,0,1,32.2,62.107Z" transform="translate(-58.348 -1700.099)" fill="#818181"/>
            <circle id="Ellipse_237" data-name="Ellipse 237" cx="49.469" cy="49.469" r="49.469" transform="translate(0.022 83.954) rotate(-53.703)" fill="gray"/>
          </g>
          <path id="Path_37848" data-name="Path 37848" d="M174.734,1788.455a49.47,49.47,0,1,1-32.205-62.107A49.47,49.47,0,0,1,174.734,1788.455Z" transform="translate(-58.453 -1699.725)" fill="#ddbbba"/>
        </g>
        <g id="Group_6130" data-name="Group 6130" transform="translate(23.968 28.781)">
          <g id="Group_6129" data-name="Group 6129" style="mix-blend-mode: multiply;isolation: isolate">
            <path id="Path_37849" data-name="Path 37849" d="M155.97,1801.947a45.083,45.083,0,1,1,.014-63.762,45.083,45.083,0,0,1-.014,63.762Zm-59.03-59.058a38.416,38.416,0,1,0,54.33.014,38.416,38.416,0,0,0-54.33-.014Z" transform="translate(-79.035 -1724.995)" fill="url(#linear-gradient)"/>
          </g>
        </g>
      </g>
    </g>
    <g id="Group_6144" data-name="Group 6144" transform="translate(188.62 7720.244)">
      <path id="Path_37948" data-name="Path 37948" d="M108.6,1732.29c0,.143-.064.216-.156.235-.11.013-.156.124-.156.313v2.143h2.442c.124,0,.189.1.189.253v.483c0,.156-.064.234-.189.234h-3.541v2.019h3.054c.124,0,.189.092.189.248a44.092,44.092,0,0,1-.235,4.586,9,9,0,0,1-.612,2.488c-.248.579-.906.878-1.968.878-.428,0-.644-.1-.658-.286a2.761,2.761,0,0,0-.267-.763v-.11h.924a1.057,1.057,0,0,0,1.095-.612,6.038,6.038,0,0,0,.451-1.909,27.085,27.085,0,0,0,.253-3.532h-2.253a16.163,16.163,0,0,1-.377,2.921,9.006,9.006,0,0,1-1.03,2.645,5.8,5.8,0,0,1-1.127,1.517.406.406,0,0,1-.175-.027,2.745,2.745,0,0,0-.561-.391.294.294,0,0,1-.064-.189,6.332,6.332,0,0,0,1.269-1.831,10.323,10.323,0,0,0,.8-2.566,21.023,21.023,0,0,0,.253-3.426v-1.66h-1.83c-.129,0-.189-.078-.189-.234v-.483c0-.157.06-.253.189-.253h2.874v-2.69c0-.124.083-.189.239-.189C108.212,1732.1,108.6,1732.166,108.6,1732.29Zm7,.235c.092.078.156.137.156.189,0,.124-.11.184-.313.184a.326.326,0,0,0-.313.189,14.191,14.191,0,0,0,.717,1.724,7.918,7.918,0,0,0,.957,1.458,5.188,5.188,0,0,0,1.582,1.4c.06.032.11.064.11.129a.326.326,0,0,1-.083.189,7.587,7.587,0,0,0-.625.547c-.046.073-.092.106-.138.106a4.3,4.3,0,0,1-1.159-1.03,7.048,7.048,0,0,1-1.173-1.72,16.5,16.5,0,0,1-.7-1.536c-.143.313-.285.593-.409.846a11.763,11.763,0,0,1-.768,1.407c-.308.5-.625.938-.92,1.329a6.31,6.31,0,0,1-.736.828.234.234,0,0,1-.235-.137,2.719,2.719,0,0,0-.469-.547c-.11-.065-.156-.125-.156-.175a.1.1,0,0,1,.046-.087,6.837,6.837,0,0,0,1.062-1.021,11.017,11.017,0,0,0,1.159-1.752,13.129,13.129,0,0,0,.639-1.348c.175-.455.331-.97.487-1.531.064-.11.11-.175.156-.175Zm-.671,11.207c.75.588,1.389,1.108,1.922,1.577l-.078.142-.533.718a21.062,21.062,0,0,0-2.562-2.078,13.535,13.535,0,0,0-1.835-1.1,3,3,0,0,1,.469-.685c.051-.065.1-.11.143-.11a27.026,27.026,0,0,1,2.476,1.537Zm.515-3.822c.593.437,1.113.846,1.531,1.187,0,.018-.028.063-.092.128-.345.483-.515.718-.515.718a18.241,18.241,0,0,0-2.037-1.564,10.7,10.7,0,0,0-1.453-.814,3.286,3.286,0,0,1,.483-.69c.051-.06.1-.11.129-.11a21.373,21.373,0,0,1,1.956,1.146Z" transform="translate(-103.829 -1731.808)" fill="#3d93ab"/>
      <path id="Path_37949" data-name="Path 37949" d="M110.2,1735.519v-3.367c0-.059.06-.11.189-.11.717,0,1.09.065,1.09.175s-.046.2-.12.2c-.1.014-.129.106-.129.294v2.806h1.536c.078,0,.124.06.124.188v.483c0,.17-.046.248-.124.248h-1.485a9.382,9.382,0,0,0,.653,1.471,7.753,7.753,0,0,0,1.334,1.739.23.23,0,0,1,.11.156c0,.032-.051.078-.11.11a3.157,3.157,0,0,1-.409.442.239.239,0,0,1-.156.12.292.292,0,0,1-.2-.111,7.185,7.185,0,0,1-1.127-1.655,1.263,1.263,0,0,1-.143-.3v7.68q0,.193-.235.193h-.607c-.129,0-.189-.064-.189-.193v-6.429c-.189.473-.359.892-.547,1.269a13.555,13.555,0,0,1-1.053,1.8.33.33,0,0,1-.248-.073,7.2,7.2,0,0,1-.658-.331c-.092,0-.124-.018-.124-.078a11.739,11.739,0,0,0,1.269-2.07,10.565,10.565,0,0,0,.763-1.876,16.658,16.658,0,0,0,.487-1.862H108.3c-.092,0-.124-.078-.124-.248v-.483c0-.128.032-.188.124-.188Zm6.774-2.447v-.979c0-.065.06-.115.189-.115.722,0,1.1.064,1.1.175,0,.129-.046.2-.11.221-.092.014-.124.11-.124.281v.418h2.755q.235,0,.235.193v1.453h1.049c.06,0,.11.064.11.189v.483c0,.129-.051.189-.11.189h-1.049v1.472c0,.125-.078.188-.235.188h-2.755v.842h2.925c.156,0,.253.064.253.188v2.272c0,.125-.1.175-.253.175h-3.173c-.253.341-.5.639-.722.92h5.008c.06,0,.11.059.11.189v.483c0,.129-.051.189-.11.189h-1.674a3.993,3.993,0,0,1-.423.75,3.893,3.893,0,0,1-.8,1,.825.825,0,0,1-.156.142c1,.437,1.849.814,2.552,1.154l-.078.115c-.3.4-.455.625-.469.625-.924-.469-1.876-.91-2.879-1.3-.032,0-.064.013-.064.032a14.556,14.556,0,0,1-1.453.612,22.489,22.489,0,0,1-2.506.657c-.11,0-.17-.046-.17-.11a5.777,5.777,0,0,1-.455-.689.238.238,0,0,1-.106-.184,4.184,4.184,0,0,0,.763-.1c.4-.065.846-.157,1.329-.248a13.923,13.923,0,0,0,1.444-.442c-.708-.248-1.32-.455-1.817-.593-.2.222-.391.41-.566.58-.612-.285-.906-.474-.906-.547a13.046,13.046,0,0,0,1.485-1.458h-2.221c-.092,0-.124-.06-.124-.189v-.483c0-.129.032-.189.124-.189h2.943c.235-.3.451-.612.671-.92h-2.52c-.17,0-.248-.051-.248-.175v-2.272c0-.124.078-.188.248-.188h2.989v-.842h-2.8c-.175,0-.253-.063-.253-.188v-1.472h-.906c-.1,0-.124-.06-.124-.189v-.483c0-.125.028-.189.124-.189h.906v-1.453c0-.129.078-.193.253-.193Zm0,5.873h-2.189v.924h2.189Zm0-4.226v-.782h-2v.782Zm0,.86h-2v.8h2Zm1.081,8.324a3.484,3.484,0,0,0,.814-.764,4.321,4.321,0,0,0,.437-.644h-2.957c-.221.285-.437.533-.625.75.842.267,1.6.506,2.221.722a.343.343,0,0,0,.106-.067Zm-.032-9.184h1.954v-.782h-1.954Zm1.954.86h-1.954v.8h1.954Zm.189,3.366h-2.143v.924h2.143Z" transform="translate(-90.38 -1731.858)" fill="#3d93ab"/>
      <path id="Path_37950" data-name="Path 37950" d="M114.352,1735.143v-3c0-.115.078-.175.253-.175.763,0,1.154.06,1.154.175,0,.156-.06.229-.152.229-.11.032-.156.143-.156.331v2.442h1.909c.11,0,.17.1.17.253v.483c0,.152-.06.234-.17.234h-1.771a9.363,9.363,0,0,0,.671,1.486,8.164,8.164,0,0,0,1.407,1.785c.064.046.11.092.11.156,0,.032-.046.078-.11.124a2.9,2.9,0,0,1-.451.488c-.078.092-.138.124-.17.124a.348.348,0,0,1-.207-.092,7.765,7.765,0,0,1-1.191-1.724,3.7,3.7,0,0,1-.2-.4v8.085c0,.129-.083.193-.239.193H114.6c-.175,0-.253-.064-.253-.193v-7.275a16.8,16.8,0,0,1-.809,1.771,12.183,12.183,0,0,1-1.145,1.785.322.322,0,0,1-.267-.1,5.627,5.627,0,0,1-.69-.327c-.092,0-.138-.018-.138-.073a12.529,12.529,0,0,0,1.421-2.07,13.057,13.057,0,0,0,.846-1.862,17.007,17.007,0,0,0,.547-1.877h-2.2c-.124,0-.189-.082-.189-.234v-.483c0-.156.064-.253.189-.253Zm5.072,1.223h5.256a.513.513,0,0,1,.281.087c.175.156.267.272.267.331-.124,1-.267,1.83-.4,2.456a15.262,15.262,0,0,1-.658,2.051c-.175.422-.409.905-.69,1.453a3.63,3.63,0,0,1-.253.391,5.13,5.13,0,0,0,1.049,1.113,6.5,6.5,0,0,0,1.692,1.081c.078.05.129.092.129.138a.268.268,0,0,1-.083.175,4.393,4.393,0,0,0-.547.547c-.078.1-.138.142-.17.142s-.11-.064-.221-.161a11.953,11.953,0,0,1-1.108-.717,10.634,10.634,0,0,1-1.32-1.3.53.53,0,0,1-.06-.1c-.06.079-.11.143-.138.175a7.982,7.982,0,0,1-1.145,1.081,10.32,10.32,0,0,1-1.564,1.016.32.32,0,0,1-.253-.161c-.2-.156-.419-.308-.639-.45-.064-.065-.1-.11-.1-.129,0-.059.032-.092.1-.106a7.856,7.856,0,0,0,1.784-1.021,6.541,6.541,0,0,0,1.3-1.246.175.175,0,0,0,.046-.064,6.33,6.33,0,0,1-.4-.75,7.834,7.834,0,0,1-.768-2.115,20.8,20.8,0,0,1-.625-2.943h-.75v.97a19.849,19.849,0,0,1-.313,3.914,8.677,8.677,0,0,1-.8,2.391,5.257,5.257,0,0,1-.906,1.393.324.324,0,0,1-.156-.033,3.749,3.749,0,0,0-.566-.418.34.34,0,0,1-.06-.216,6.247,6.247,0,0,0,.924-1.647,11.2,11.2,0,0,0,.593-2.318,21.078,21.078,0,0,0,.189-3.068v-5.132a.221.221,0,0,1,.248-.248h6.9c.124,0,.184.092.184.248v.488c0,.175-.06.248-.184.248h-6.057Zm2.1,2.764a13.057,13.057,0,0,0,.7,2.226,5.987,5.987,0,0,0,.418.86c.11-.189.207-.359.285-.515a17.512,17.512,0,0,0,.736-1.881c.156-.625.326-1.439.5-2.474H121.2a17.825,17.825,0,0,0,.322,1.784Z" transform="translate(-76.932 -1731.905)" fill="#3d93ab"/>
      <path id="Path_37951" data-name="Path 37951" d="M121.146,1734.835V1732.2c0-.124.078-.189.248-.189.814,0,1.219.065,1.219.189,0,.143-.06.216-.152.235-.11.013-.156.124-.156.313v2.083h5.256c.2,0,.313.06.313.189v7.087c0,.125-.11.189-.313.189h-.612c-.156,0-.235-.064-.235-.189v-1.159H122.3v5.068c0,.128-.11.189-.3.189h-.612c-.17,0-.248-.06-.248-.189v-5.068h-4.709v1.095c0,.124-.11.189-.3.189h-.612c-.17,0-.248-.065-.248-.189v-6.963a.221.221,0,0,1,.248-.248Zm0,5v-3.909h-4.709v3.909Zm1.159,0h4.41v-3.909H122.3Z" transform="translate(-62.626 -1731.721)" fill="#3d93ab"/>
      <path id="Path_37952" data-name="Path 37952" d="M131.947,1732.084c.156,0,.253.06.253.189v2.989c0,.125-.1.189-.253.189h-5.431v.847h5.321c.064,0,.11.059.11.189v.483c0,.17-.046.248-.11.248h-5.321v.86h3.973c.161,0,.239.065.239.175v6.494h2.207c.074,0,.124.046.124.175v.483c0,.151-.051.248-.124.248H118.927c-.078,0-.11-.1-.11-.248v-.483c0-.129.032-.175.11-.175h2.456v-6.494a.154.154,0,0,1,.175-.175h3.914v-.86h-5.307c-.1,0-.129-.078-.129-.248v-.483c0-.129.032-.189.129-.189h5.307v-.847h-5.307c-.175,0-.248-.064-.248-.189v-2.989c0-.129.074-.189.248-.189Zm-8.434.924h-2.506v1.518h2.506Zm6.181,6.779v-.8h-7.275v.8Zm0,1.655v-.8h-7.275v.8Zm0,1.641v-.8h-7.275v.8Zm0,1.661v-.8h-7.275v.8Zm-2.332-11.736h-2.736v1.518h2.736Zm3.739,0h-2.626v1.518H131.1Z" transform="translate(-49.89 -1731.477)" fill="#3d93ab"/>
      <path id="Path_37953" data-name="Path 37953" d="M129.6,1733.242h-3.316c-.124,0-.189-.082-.189-.253v-.612a.168.168,0,0,1,.189-.189h4.208c.156,0,.248.115.248.317-.092.938-.12,1.656-.12,2.139a13.045,13.045,0,0,0,.248,2.644,7.535,7.535,0,0,0,.97,2.258,10.894,10.894,0,0,0,1.89,2.534,9.858,9.858,0,0,0,3.431,2.221.5.5,0,0,1-.078.239,3.615,3.615,0,0,0-.612.667.333.333,0,0,1-.281.124,15.4,15.4,0,0,1-3.21-2.373,12.284,12.284,0,0,1-2.157-2.878,12.014,12.014,0,0,1-1-2.663,10.153,10.153,0,0,1-.547,1.568,18.285,18.285,0,0,1-1.14,2.235,8.418,8.418,0,0,1-1.522,1.973,9.492,9.492,0,0,1-1.628,1.379,15.032,15.032,0,0,1-1.577.824.289.289,0,0,1-.221-.106c-.189-.234-.359-.455-.529-.644a.271.271,0,0,1-.1-.17.222.222,0,0,1,.1-.175,6.644,6.644,0,0,0,1.669-.75,9.464,9.464,0,0,0,1.347-1.108,9.941,9.941,0,0,0,1.564-2.023,10.41,10.41,0,0,0,1.127-2.253,13.118,13.118,0,0,0,.722-2.06c.17-.695.327-1.431.469-2.245a5.07,5.07,0,0,1,.045-.62Z" transform="translate(-36.441 -1731.1)" fill="#3d93ab"/>
      <path id="Path_37954" data-name="Path 37954" d="M127.519,1745.955c0,.129-.092.193-.248.193h-.612q-.235,0-.235-.193v-13.327c0-.11.078-.175.235-.175h4.1a.676.676,0,0,1,.359.083c.248.2.373.34.373.4l-1.72,3.946a.654.654,0,0,0-.046.22.334.334,0,0,0,.1.2,6.737,6.737,0,0,1,1.154,1.725,5.336,5.336,0,0,1,.455,2.1,3.737,3.737,0,0,1-.313,1.564,1.96,1.96,0,0,1-.989.966,2.507,2.507,0,0,1-1.389.285c-.253,0-.377-.083-.377-.253a1.99,1.99,0,0,0-.235-.781c0-.079.064-.125.189-.125l.671.064a1.157,1.157,0,0,0,1.081-.533,1.908,1.908,0,0,0,.331-1.187,4.461,4.461,0,0,0-.382-1.674,7.614,7.614,0,0,0-1.407-1.992.236.236,0,0,1-.124-.188.752.752,0,0,1,.046-.216l1.784-3.7h-2.8Zm9.046-13.751c0,.143-.064.216-.156.235s-.143.124-.143.313v1.784h3.725c.124,0,.189.079.189.235v.483c0,.175-.064.253-.189.253h-5.275a.133.133,0,0,0-.014.064c-.014.842-.046,1.592-.078,2.249h4.571c.124,0,.189.092.189.253-.032,2.156-.11,3.688-.221,4.631a10.4,10.4,0,0,1-.579,2.5c-.235.579-.846.878-1.83.878-.906,0-1.375-.138-1.407-.391a2.892,2.892,0,0,0-.547-1.016v-.125a5.871,5.871,0,0,0,1.955.373.942.942,0,0,0,.984-.612,7,7,0,0,0,.409-1.923c.092-.717.17-1.926.216-3.582h-3.817c-.064.593-.124,1.108-.2,1.55a12.536,12.536,0,0,1-.984,3.141,9.244,9.244,0,0,1-1.738,2.4,1.274,1.274,0,0,1-.331-.032c-.216-.12-.419-.267-.625-.391-.11-.014-.156-.065-.156-.124s.032-.11.11-.17a6.839,6.839,0,0,0,1.909-2.552,12.527,12.527,0,0,0,.878-3.224,27.848,27.848,0,0,0,.2-3.9h-1.987c-.129,0-.189-.078-.189-.253v-.483c0-.156.06-.235.189-.235h3.536V1732.2c0-.124.078-.189.248-.189.766.005,1.157.069,1.157.189Z" transform="translate(-22.514 -1731.721)" fill="#3d93ab"/>
      <path id="Path_37955" data-name="Path 37955" d="M137.764,1732.107c.124.018.2.078.2.17,0,.175-.06.267-.17.267-.1.046-.129.138-.129.28a38.434,38.434,0,0,1-.216,4.365,12.734,12.734,0,0,0,1.016,2.792,8.52,8.52,0,0,0,1.642,2.327,8.02,8.02,0,0,0,2.552,1.895,5.509,5.509,0,0,0,1.329.515c.143.06.221.11.221.156a.275.275,0,0,1-.11.221c-.189.22-.345.423-.5.612a.206.206,0,0,1-.189.138,4.776,4.776,0,0,1-.938-.358,10.657,10.657,0,0,1-4.912-4.852,9.462,9.462,0,0,1-.52-1.2,8.694,8.694,0,0,1-1.2,2.892,8.388,8.388,0,0,1-2.125,2.162,16.922,16.922,0,0,1-2.709,1.55.354.354,0,0,1-.3-.138c-.189-.148-.372-.285-.561-.442a.11.11,0,0,1-.064-.1.209.209,0,0,1,.143-.184,15.879,15.879,0,0,0,3.725-2.318,6.535,6.535,0,0,0,1.844-3.035,21.863,21.863,0,0,0,.708-6.572,4.512,4.512,0,0,0-.11-1.035c0-.12.078-.184.23-.184Zm-3.582,2.221c.124.1.189.156.189.2a.244.244,0,0,1-.189.253.2.2,0,0,0-.221.17,17.7,17.7,0,0,1-.69,1.9c-.235.464-.469.92-.717,1.329a8.072,8.072,0,0,1-.814,1,.729.729,0,0,1-.359-.064c-.221-.092-.423-.17-.644-.253-.078-.032-.11-.073-.11-.106a.121.121,0,0,1,.064-.11,7.309,7.309,0,0,0,1.219-1.674,6.992,6.992,0,0,0,.566-1.21,11.461,11.461,0,0,0,.5-1.734c.028-.059.06-.11.106-.11Zm8.963.455a.4.4,0,0,1,.143.248.115.115,0,0,1-.11.129.32.32,0,0,0-.248.184,16.922,16.922,0,0,1-.892,1.895,11.58,11.58,0,0,1-1.439,1.941c-.156,0-.253-.046-.281-.143-.253-.189-.455-.358-.63-.515-.092-.032-.124-.078-.124-.124a.179.179,0,0,1,.064-.143,3.361,3.361,0,0,0,.671-.658,8.413,8.413,0,0,0,1-1.563c.235-.483.5-1.095.8-1.817.032-.11.064-.175.1-.175Z" transform="translate(-9.36 -1731.671)" fill="#3d93ab"/>
      <path id="Path_37956" data-name="Path 37956" d="M137.911,1737.161c-.327-.437-.777-1-1.375-1.66a18.656,18.656,0,0,0-1.628-1.582l.722-.828a23.475,23.475,0,0,1,3.192,3.27Z" transform="translate(8.018 -1727.853)" fill="#3d93ab"/>
      <path id="Path_37957" data-name="Path 37957" d="M141.651,1732.782c.156,0,.253.065.253.189v8.752c0,.125-.1.17-.253.17h-.612c-.17,0-.248-.045-.248-.17v-.676h-2.129v2.024c0,.12-.092.17-.248.17H137.8c-.17,0-.248-.051-.248-.17v-10.035a.225.225,0,0,1,.248-.253Zm-.86,7.28v-6.292h-2.129v6.292Zm2.019-6.9c-.124,0-.189-.073-.189-.248v-.488c0-.156.064-.248.189-.248h6.852a.39.39,0,0,1,.285.078c.216.189.327.327.327.423l-1.439,4.272h2.051a.332.332,0,0,1,.248.092,2.069,2.069,0,0,1,.3.515,19.368,19.368,0,0,1-.86,2.552,11.229,11.229,0,0,1-.989,1.876,5.81,5.81,0,0,1-1.016,1.191,5.781,5.781,0,0,0,.754.455,10.123,10.123,0,0,0,2.2.906c.1.032.156.065.156.11a.28.28,0,0,1-.078.175,4.762,4.762,0,0,0-.561.547c-.06.092-.124.138-.156.138a1,1,0,0,1-.3-.129c-.437-.17-.906-.373-1.407-.621a11.5,11.5,0,0,1-1.426-.879,12.406,12.406,0,0,1-1.343.847,8.869,8.869,0,0,1-1.83.718.286.286,0,0,1-.285-.139c-.124-.17-.248-.344-.359-.515a.239.239,0,0,1-.078-.142.12.12,0,0,1,.1-.125c.451-.124.906-.271,1.361-.441a7.323,7.323,0,0,0,1.642-.906,6.64,6.64,0,0,1-.878-1,5.338,5.338,0,0,1-.97-1.779c-.124-.267-.248-.566-.359-.879a14.629,14.629,0,0,1-.69,2.377,7.315,7.315,0,0,1-1.251,2.02,7.647,7.647,0,0,1-1.706,1.531c-.28-.3-.533-.562-.736-.8a5.155,5.155,0,0,0,1.269-1.113,8.015,8.015,0,0,0,1.343-2.033,15.729,15.729,0,0,0,.9-3.491,41.241,41.241,0,0,0,.34-4.852Zm4.962,3.79,1.3-3.79h-3.753c-.051,1.55-.11,2.82-.189,3.79Zm-2.019,2.391a7.972,7.972,0,0,0,.906,1.863,5.747,5.747,0,0,0,1.094,1.287,8.819,8.819,0,0,0,1.067-1.241,8.51,8.51,0,0,0,.906-1.844,11.775,11.775,0,0,0,.488-1.486h-4.865a7.609,7.609,0,0,0,.4,1.419Z" transform="translate(17.537 -1731.146)" fill="#3d93ab"/>
      <path id="Path_37958" data-name="Path 37958" d="M149.334,1732.135c0,.143-.06.222-.156.222-.11.032-.156.137-.156.326v.847h5.151c.11,0,.17.092.17.248v.488c0,.175-.06.248-.17.248h-2.585l.644.267c.138.065.216.143.216.221a.2.2,0,0,1-.152.189.233.233,0,0,0-.239.2,13.069,13.069,0,0,1-.75,1.752h3.9c.124,0,.189.092.189.248v.487c0,.157-.064.235-.189.235h-13.76c-.124,0-.184-.078-.184-.235v-.487c0-.157.06-.248.184-.248h4.18c-.064-.184-.143-.4-.235-.626a9.81,9.81,0,0,0-.892-1.706c0-.046.124-.139.391-.3h-2.456c-.129,0-.189-.073-.189-.248v-.488c0-.156.06-.248.189-.248h5.491v-1.394c0-.124.078-.184.253-.184C148.943,1731.951,149.334,1732.011,149.334,1732.135Zm3.6,7.216c.156,0,.248.064.248.17v6.664c0,.129-.092.193-.248.193h-.612q-.235,0-.235-.193v-.418h-7.34v.418c0,.129-.092.193-.248.193h-.612q-.234,0-.235-.193v-6.6a.207.207,0,0,1,.235-.234Zm-.846,2.736v-1.766h-7.34v1.766Zm0,2.694v-1.706h-7.34v1.706Zm-2.189-7.638a7.886,7.886,0,0,0,.7-1.141,6.619,6.619,0,0,0,.547-1.412c0-.032.014-.046.032-.078H145.5c.308.533.561,1,.768,1.444.17.391.327.782.469,1.187Z" transform="translate(30.889 -1731.951)" fill="#3d93ab"/>
      <path id="Path_37959" data-name="Path 37959" d="M109.09,1737.811c0,.1-.051.143-.129.143a.4.4,0,0,0-.359.175,17.5,17.5,0,0,1-1.412,2.814v10.14c0,.125-.092.189-.248.189h-.612c-.17,0-.248-.064-.248-.189v-8.655c-.359.441-.814.938-1.347,1.5a.431.431,0,0,1-.313-.143c-.156-.119-.326-.266-.483-.4a.211.211,0,0,1-.11-.189c.455-.464.906-.984,1.375-1.517a11.769,11.769,0,0,0,1.568-2.318,13.422,13.422,0,0,0,.906-2.217c.014-.082.064-.128.124-.128a4.931,4.931,0,0,1,1.288.8Zm8.117-.12c.156,0,.253.06.253.184v5.256c0,.129-.1.189-.253.189H116.6c-.156,0-.235-.06-.235-.189v-.672h-2.332v2.272H118.2c.124,0,.189.079.189.234v.483c0,.17-.064.253-.189.253h-3.95a11.568,11.568,0,0,0,1.237,1.517,8.058,8.058,0,0,0,1.646,1.376,6.019,6.019,0,0,0,1.61.768c0,.092-.06.137-.156.17a4.342,4.342,0,0,0-.547.63c-.064.074-.124.12-.156.12A10.331,10.331,0,0,1,115.9,1749a8.427,8.427,0,0,1-1.49-1.582c-.124-.156-.248-.312-.373-.488v4.148c0,.125-.078.189-.235.189h-.612c-.17,0-.248-.064-.248-.189v-3.9c-.175.216-.331.4-.455.561a12.68,12.68,0,0,1-1.407,1.443,14.2,14.2,0,0,1-1.757,1.215.332.332,0,0,1-.262-.106c-.207-.189-.409-.377-.6-.534a.477.477,0,0,1-.046-.151,9.448,9.448,0,0,0,1.361-.8,8.638,8.638,0,0,0,1.614-1.412,18.676,18.676,0,0,0,1.329-1.7h-3.693c-.124,0-.189-.083-.189-.253v-.483c0-.156.064-.234.189-.234h3.914v-2.272h-2.272v.736c0,.125-.078.189-.235.189h-.612c-.17,0-.248-.064-.248-.189v-5.261a.218.218,0,0,1,.248-.244Zm-.842,3.8v-2.815h-5.7v2.815Z" transform="translate(-103.829 -1713.727)" fill="#3d93ab"/>
      <path id="Path_37960" data-name="Path 37960" d="M115.876,1741.3c0,.143-.064.221-.156.221-.1.032-.143.138-.143.327v.487h6.043c.078,0,.124.06.124.189V1743c0,.125-.046.189-.124.189h-4.272v1.095h3.426c.156,0,.235.064.235.189v2.377c0,.124-.078.189-.235.189h-3.366v1.315c.455-.079.878-.157,1.251-.253a8.013,8.013,0,0,0,1.439-.436,5.4,5.4,0,0,0,.911-.437c.014,0,.032-.018.06-.018.051,0,.1.051.143.124a8.812,8.812,0,0,1,.6.8.113.113,0,0,1-.129.129l-.294-.065a.627.627,0,0,0-.078.014,7.722,7.722,0,0,1-1.049.377,12.1,12.1,0,0,1-1.536.377c-.359.073-.8.151-1.315.216v.175c0,.437.267.671.8.671H119.6a1.887,1.887,0,0,0,1.062-.175,2.4,2.4,0,0,0,.533-1.044,1.54,1.54,0,0,0,.593.529c.124.064.2.125.2.207a3.177,3.177,0,0,1-.671,1.214,1.4,1.4,0,0,1-.984.253h-2.258c-1.154,0-1.72-.359-1.72-1.044v-2.929h-4.332v.8h3.238c.078,0,.129.065.129.17v.378c0,.156-.051.234-.129.234h-3.238v1.265a3.922,3.922,0,0,1,.391-.065c1.062-.138,2.065-.276,3-.45.032,0,.064-.014.092-.014.064,0,.11.065.11.189a3.314,3.314,0,0,1-.046.8c-1.628.221-3.284.418-4.962.612-.156.281-.262.419-.359.419s-.281-.4-.547-1.219c.377-.032.782-.079,1.219-.125v-2.989h-1.044a8.9,8.9,0,0,1-.189,1.191,6.157,6.157,0,0,1-.625,1.8,4.978,4.978,0,0,1-.7,1.049.4.4,0,0,1-.175-.032,3.241,3.241,0,0,0-.561-.442.274.274,0,0,1-.064-.2,4.861,4.861,0,0,0,.69-1.2,7.869,7.869,0,0,0,.451-1.66,14.386,14.386,0,0,0,.143-2.221v-2.8c0-.128.078-.189.248-.189h5.367v-1.04c0-.124.078-.189.253-.189C115.485,1741.107,115.876,1741.172,115.876,1741.3Zm-1.283-4.227c.078,0,.124.065.124.189v.483c0,.129-.046.194-.124.194h-6.121c-.078,0-.106-.065-.106-.194v-.483c0-.124.028-.189.106-.189Zm-.676,1.771c.156,0,.253.06.253.189v2.318c0,.124-.1.189-.253.189h-.607c-.175,0-.253-.065-.253-.189v-1.706h-2.989v1.706c0,.124-.092.189-.248.189h-.612c-.156,0-.235-.065-.235-.189v-2.318c0-.128.078-.189.235-.189Zm-1.283,7.34v-1.035h-2.69v.175c0,.308-.014.612-.014.86Zm0-2.99h-2.69v1.095h2.69Zm-.529-2.865q.331.38.593.662c0,.014-.032.042-.064.106l-.418.562a9.027,9.027,0,0,0-.832-.842,4.14,4.14,0,0,0-.579-.437,2.573,2.573,0,0,1,.423-.58c.051-.063.1-.1.129-.1a9.374,9.374,0,0,1,.748.626Zm4.148,2.865h-2.52v1.095h2.52Zm0,2.99v-1.035h-2.52v1.035Zm5.555-9.111c.078,0,.12.065.12.189v.483c0,.129-.041.194-.12.194H116c-.092,0-.124-.065-.124-.194v-.483c0-.124.032-.189.124-.189Zm-.865,1.771c.156,0,.253.06.253.189v2.318c0,.124-.1.189-.253.189h-.607c-.129,0-.175-.065-.175-.189v-1.771h-2.943v1.771c0,.124-.092.189-.248.189h-.612c-.124,0-.17-.065-.17-.189v-2.318c0-.128.046-.189.17-.189Zm-1.03,7.34v-1.035h-2.566v1.035Zm-.736-5.887c.221.253.423.488.612.695,0,.014-.032.042-.064.106l-.423.562c-.281-.308-.561-.607-.86-.887a4.5,4.5,0,0,0-.612-.455,2.544,2.544,0,0,1,.423-.579.19.19,0,0,1,.124-.092c.314.242.58.453.8.646Z" transform="translate(-90.38 -1713.533)" fill="#3d93ab"/>
      <path id="Path_37961" data-name="Path 37961" d="M115.865,1737.231c0,.139-.064.212-.156.23-.11.014-.156.129-.156.317v.438h2.755c.078,0,.124.059.124.17v.5c0,.156-.046.234-.124.234h-1.177l.552.313c.092.065.138.129.138.189a.107.107,0,0,1-.11.11.178.178,0,0,0-.17.138c-.17.5-.423,1.113-.736,1.816h1.688c.064,0,.11.065.11.184v.488c0,.175-.046.253-.11.253h-7.036c-.078,0-.11-.078-.11-.253v-.488c0-.12.032-.184.11-.184h5.068l-.722-.418a7.914,7.914,0,0,0,.487-1.1c.11-.377.2-.722.294-1.049h-3.33a11.834,11.834,0,0,1,.529,1.063,9.517,9.517,0,0,1,.423,1.146,4.291,4.291,0,0,1-.97.3,9.609,9.609,0,0,0-.294-.956,8.577,8.577,0,0,0-.625-1.3c0-.027.11-.125.34-.249H111.7c-.1,0-.129-.078-.129-.234v-.5c0-.11.032-.17.129-.17h2.755v-.985c0-.128.078-.188.234-.188C115.474,1737.043,115.865,1737.1,115.865,1737.231Zm1.766,6.177c.189,0,.3.078.3.234v6.793c0,.28-.2.515-.579.671a5.887,5.887,0,0,1-1.421.253.186.186,0,0,1-.207-.17,2.867,2.867,0,0,0-.359-.938c0-.032.032-.05.124-.05a3.876,3.876,0,0,0,1.191-.1.322.322,0,0,0,.221-.294v-1.035h-3.6v2.267c0,.129-.1.193-.253.193h-.607a.17.17,0,0,1-.189-.193v-7.458c0-.111.064-.175.189-.175Zm-.731,2.194v-1.284h-3.6v1.284Zm0,2.267v-1.348h-3.6v1.348Zm3.55-7.758h4.461c.156,0,.235.059.235.189v2.561a.207.207,0,0,1-.235.234H120.45v1.049h4.461c.078,0,.124.065.124.175v.5c0,.152-.046.234-.124.234H120.45v1.044h4.461c.078,0,.124.064.124.175v.5c0,.156-.046.235-.124.235H120.45v.984h4.461c.078,0,.124.064.124.175v.5c0,.156-.046.234-.124.234H120.45v.5c0,.442.248.676.782.676h2.814c.428,0,.676-.11.754-.331a1.837,1.837,0,0,0,.281-.718,1.956,1.956,0,0,0,.814.437.224.224,0,0,1,.17.239,2.536,2.536,0,0,1-.451.952c-.156.248-.547.386-1.191.386h-3.739c-.86,0-1.283-.327-1.283-.966v-7.717c0-.152.064-.234.189-.234h4.456v-1.044H119.59c-.17,0-.253-.082-.253-.239v-3.674c0-.11.083-.175.253-.175.768,0,1.159.064,1.159.175,0,.139-.064.217-.161.235s-.138.124-.138.313v.5h5.068c.078,0,.129.059.129.17v.5c0,.156-.051.234-.129.234H120.45Z" transform="translate(-76.784 -1713.815)" fill="#3d93ab"/>
      <path id="Path_37962" data-name="Path 37962" d="M117.371,1740.993v-3.417c0-.125.078-.189.248-.189.768,0,1.159.064,1.159.189,0,.147-.06.221-.156.221-.092.032-.143.137-.143.331v2.864h1.646c.124,0,.189.092.189.249v.487c0,.17-.064.244-.189.244h-1.646v4.7c.63-.285,1.237-.6,1.8-.924a.126.126,0,0,1,.092-.046.109.109,0,0,1,.11.12,3.855,3.855,0,0,1-.046.864c-1.458.814-2.929,1.536-4.415,2.189-.156.3-.267.437-.359.437s-.3-.423-.612-1.278a18.93,18.93,0,0,0,2.318-.865v-5.2h-1.83c-.129,0-.189-.073-.189-.244v-.487c0-.157.06-.249.189-.249Zm7.022-2.805v-.984c0-.125.083-.189.253-.189.768,0,1.159.064,1.159.189,0,.142-.064.216-.156.234s-.143.124-.143.313v.436h3.472c.083,0,.129.065.129.17v.505c0,.157-.046.231-.129.231h-3.472v1.158H128.2c.152,0,.23.065.23.189v7.464h1.113c.064,0,.11.064.11.175v.5c0,.156-.046.234-.11.234h-2.221a5.953,5.953,0,0,0,.782.781,7.229,7.229,0,0,0,1.315.81.276.276,0,0,1,.124.189,3.6,3.6,0,0,1-.671.846.688.688,0,0,1-.156-.032,11.549,11.549,0,0,1-2.456-2.142.2.2,0,0,1-.078-.139c0-.064.06-.156.216-.312h-2.925l.2.156a.447.447,0,0,1,.11.22c0,.042-.046.06-.11.06a.658.658,0,0,0-.281.11,9.807,9.807,0,0,1-.97,1.016,11.487,11.487,0,0,1-1.568,1.062.254.254,0,0,1-.248-.125c-.221-.156-.4-.3-.547-.422-.092-.032-.124-.079-.124-.125,0-.027.014-.046.06-.078a2.953,2.953,0,0,0,.754-.359,7.541,7.541,0,0,0,1.656-1.517h-2.092c-.1,0-.129-.079-.129-.234v-.5c0-.11.032-.175.129-.175h1.1v-7.464c0-.124.078-.189.248-.189h2.736v-1.158H120.92c-.092,0-.124-.074-.124-.231v-.505c0-.106.032-.17.124-.17Zm2.948,3.973v-.98H122.5v.98Zm0,1.9v-.984H122.5v.984Zm0,1.9v-.984H122.5v.984Zm0,1.954v-1.049H122.5v1.049Z" transform="translate(-63.436 -1713.727)" fill="#3d93ab"/>
      <path id="Path_37963" data-name="Path 37963" d="M124.5,1745.2c0,.065-.06.139-.17.2a.254.254,0,0,0-.189.281,13.8,13.8,0,0,1-.281,2.7,4.977,4.977,0,0,1-.533,1.209,2.945,2.945,0,0,1-.984.92,6.956,6.956,0,0,1-1.909.722c-.455.078-.722.124-.814.124a.2.2,0,0,1-.221-.142,3.858,3.858,0,0,0-.437-.653.354.354,0,0,1-.078-.239,9.835,9.835,0,0,0,1.844-.358,3.871,3.871,0,0,0,1.2-.612,2.982,2.982,0,0,0,.722-1.016,6.528,6.528,0,0,0,.345-1.766c.032-.469.046-.952.046-1.44,0-.124.014-.189.064-.189a3.858,3.858,0,0,1,1.395.259Zm2.332-8.011c0,.139-.06.212-.152.23-.11.014-.161.129-.161.317v1.172h5.808c.124,0,.189.074.189.231v.487c0,.17-.064.253-.189.253h-7.059c.5.189.768.313.768.377,0,.106-.078.151-.221.151s-.2.051-.2.143a29.335,29.335,0,0,1-2.143,2.234c-.326.331-.676.626-1.016.911,2.378-.189,4.755-.436,7.133-.768a17.32,17.32,0,0,0-1.219-1.343c0-.065.281-.253.846-.547a21.264,21.264,0,0,1,1.844,2.267,12.893,12.893,0,0,1,1.159,2.014,4.488,4.488,0,0,1-1.049.3,6.4,6.4,0,0,0-.878-1.707.273.273,0,0,1-.06-.1q-4.229.567-9.377.984a.455.455,0,0,0-.373.207.249.249,0,0,1-.248.189c-.129,0-.363-.423-.736-1.283.579-.032,1.159-.064,1.738-.129a23.491,23.491,0,0,0,2.424-2.626,7.814,7.814,0,0,0,.782-1.282h-5.183c-.124,0-.184-.083-.184-.253v-.487c0-.157.06-.231.184-.231h6.1v-1.72c0-.128.083-.188.253-.188.812.008,1.217.071,1.217.2Zm1.347,7.9c.124.032.189.064.189.115,0,.106-.046.17-.11.184a.159.159,0,0,0-.138.175v3.739c0,.455.281.671.86.671h1.577c.69,0,1.1-.1,1.219-.267a4.492,4.492,0,0,0,.612-1.624,1.779,1.779,0,0,0,.644.562c.143.059.221.124.221.22a5.219,5.219,0,0,1-.768,1.78,1.408,1.408,0,0,1-1.127.358h-2.506c-1.219,0-1.83-.372-1.83-1.094v-4.769c0-.124.032-.189.11-.189Z" transform="translate(-49.656 -1713.774)" fill="#3d93ab"/>
      <path id="Path_37964" data-name="Path 37964" d="M127.81,1737.375c.156,0,.235.06.235.189v3.477h.612c.156,0,.248.06.248.189v2.079c0,.124-.092.189-.248.189h-.483c-.175,0-.253-.065-.253-.189v-1.347h-4.4v1.347c0,.124-.092.189-.253.189h-.483c-.156,0-.235-.065-.235-.189v-2.079c0-.128.078-.189.235-.189h.547v-3.477c0-.129.078-.189.253-.189Zm-.248,5.615c.156,0,.248.064.248.189v6.356a1.505,1.505,0,0,1-.184.911c-.032.2-.5.4-1.412.621-.184,0-.281-.065-.281-.189-.032-.184-.11-.45-.2-.8.717-.046,1.076-.235,1.1-.547v-1.582h-2.207v2.925c0,.124-.078.189-.234.189H123.9c-.175,0-.253-.065-.253-.189v-7.7c0-.125.078-.189.253-.189Zm-2.272-1.95v-1.71a.168.168,0,0,1,.189-.189h1.6v-.842H124.32v2.74Zm1.536,3.909v-1.03h-2.207v1.03Zm0,2.079v-1.158h-2.207v1.158Zm.253-5.988v-1.035h-.865v1.035Zm4.585,8.2c.138.2.262.4.391.607h1.89a3.651,3.651,0,0,0,.547-.607,2.991,2.991,0,0,0,.52-.864c.028-.078.078-.125.124-.125l.8.313c.129.065.189.11.189.17s-.046.1-.138.111a.237.237,0,0,0-.239.124,4.462,4.462,0,0,1-.561.878h1.485c.078,0,.124.06.124.189v.483c0,.156-.046.239-.124.239H129.2c-.078,0-.106-.083-.106-.239v-.483c0-.129.028-.189.106-.189h1.9a1.562,1.562,0,0,1-.124-.2,5.951,5.951,0,0,0-.846-1.016c0-.065.216-.208.671-.441a10.56,10.56,0,0,1,.863,1.05Zm-.129-11.129v-.984c0-.083.064-.124.189-.124.593,0,.911.041.911.124,0,.125-.032.2-.1.2s-.092.106-.092.294v.488h1.049v-.984c0-.083.06-.124.189-.124.589,0,.906.041.906.124,0,.125-.032.2-.1.2s-.092.106-.092.294v.488h1.72c.156,0,.235.065.235.189v4.079c0,.128-.078.193-.235.193h-6.3c-.156,0-.235-.065-.235-.193V1738.3c0-.124.078-.189.235-.189Zm4.709,5.256c.064,0,.11.064.11.175v.5c0,.156-.046.234-.11.234H129.77c-.1,0-.124-.078-.124-.234v-.5c0-.111.028-.175.124-.175Zm-.184,1.581c.152,0,.23.065.23.189v2.567c0,.125-.078.189-.23.189H130c-.156,0-.235-.064-.235-.189v-2.567c0-.124.078-.189.235-.189Zm-4.525-5.008v-.988h-.984v.988Zm0,.8h-.984v.97h.984Zm3.725,5.068H130.8v1.218h4.461Zm-2.814-5.869H133.5v-.988h-1.049Zm1.049.8h-1.049v.97H133.5Zm.906-.8h.984v-.988H134.4Zm.984.8H134.4v.97h.984Z" transform="translate(-36.441 -1713.774)" fill="#3d93ab"/>
      <path id="Path_37965" data-name="Path 37965" d="M129.174,1741.135a3.135,3.135,0,0,1-1,1.094l-.4-.45a2.439,2.439,0,0,0,1.049-1.784h-1.159v-1.876h1.876v1.72A2.707,2.707,0,0,1,129.174,1741.135Z" transform="translate(-18.08 -1709.758)" fill="#3d93ab"/>
      <path id="Path_37966" data-name="Path 37966" d="M133.119,1744.121c.189,0,.3.064.3.17v3.426a6.757,6.757,0,0,0,.046.74,2.989,2.989,0,0,0,.763,1.03,3.186,3.186,0,0,0,1.816.437h4.162c.363,0,.989-.046,1.863-.139a12.342,12.342,0,0,0,1.863-.285c.064,0,.129-.013.188-.013a.115.115,0,0,1,.124.129,7.508,7.508,0,0,0-.483.966c-.032.2-.129.313-.313.313h-7.4a3.9,3.9,0,0,1-2.566-.814,3.984,3.984,0,0,1-.782-1.224c-.469.52-.878.97-1.219,1.394a.7.7,0,0,0-.345.565c0,.17-.032.267-.092.267s-.129-.046-.207-.137l-.782-1.146a7.432,7.432,0,0,0,1.973-1.522c.156-.074.235-.262.235-.561v-2.626h-1.9c-.124,0-.189-.078-.189-.252v-.483c0-.157.064-.235.189-.235Zm-.768-2.9c.409.253.768.488,1.067.69a.463.463,0,0,1-.078.124,6.749,6.749,0,0,1-.469.676,15.047,15.047,0,0,0-1.458-.9,7.376,7.376,0,0,0-1.049-.45,2.762,2.762,0,0,1,.487-.69c.046-.064.092-.106.124-.106a13.183,13.183,0,0,1,1.376.658Zm.313-3.362c.377.267.722.5,1,.685a.436.436,0,0,1-.078.128c-.313.451-.469.671-.469.671-.441-.312-.892-.611-1.361-.892a7.038,7.038,0,0,0-.97-.455,3.312,3.312,0,0,1,.483-.685c.051-.065.1-.11.129-.11.516.251.94.473,1.266.661Zm5.946.5V1737.2c0-.125.078-.189.253-.189.763,0,1.159.064,1.159.189,0,.142-.064.216-.161.234s-.138.124-.138.313v.607h2.989c.078,0,.124.065.124.189v.487c0,.175-.046.249-.124.249h-2.989v1.1h4.019c.078,0,.129.059.129.188v.483c0,.17-.051.248-.129.248h-2.313l.533.221c.124.06.2.124.2.207,0,.055-.046.087-.106.106a.141.141,0,0,0-.156.124,6.781,6.781,0,0,1-.676,1.362h2.286c.083,0,.124.064.124.175v.5c0,.156-.041.234-.124.234h-3.785v1.109h2.925c.078,0,.124.064.124.175v.5c0,.161-.046.234-.124.234h-2.925v1.053h3.785c.083,0,.124.06.124.17v.5c0,.157-.041.234-.124.234h-3.785v1.284c0,.129-.1.189-.248.189h-.612c-.175,0-.253-.06-.253-.189V1748.2H134.7c-.092,0-.12-.078-.12-.234v-.5c0-.11.028-.17.12-.17h3.914v-1.053h-3.173c-.1,0-.129-.073-.129-.234v-.5c0-.11.032-.175.129-.175h3.173v-1.109H134.7c-.092,0-.12-.078-.12-.234v-.5c0-.111.028-.175.12-.175h2.382a5.215,5.215,0,0,0-.281-.639,5.307,5.307,0,0,0-.63-.952c0-.065.221-.207.676-.428H134.64c-.078,0-.11-.078-.11-.248v-.483c0-.129.032-.188.11-.188h3.973v-1.1h-2.865c-.092,0-.124-.074-.124-.249v-.487c0-.124.032-.189.124-.189Zm2.033,4.962c-.138-.06-.262-.125-.391-.189-.078-.014-.106-.028-.106-.06a.112.112,0,0,1,.028-.078,5.941,5.941,0,0,0,.5-.8,3.672,3.672,0,0,0,.363-.892h-4.024c.235.345.423.644.579.911a9.242,9.242,0,0,1,.409.86c0,.046-.239.124-.69.248Z" transform="translate(-9.458 -1713.727)" fill="#3d93ab"/>
      <path id="Path_37967" data-name="Path 37967" d="M137.642,1745.75v-1.771c0-.124.078-.189.253-.189.763,0,1.159.065,1.159.189,0,.143-.064.221-.156.221-.11.032-.161.138-.161.327v1.223h3.2c.11,0,.17.092.17.248v.483c0,.175-.06.253-.17.253h-3.2v2.392c1.177-.157,2.286-.341,3.348-.547.051,0,.1-.014.143-.014a.118.118,0,0,1,.129.129,2.946,2.946,0,0,1-.064.842c-2.456.372-4.944.735-7.464,1.049-.156.28-.267.418-.359.418s-.3-.432-.612-1.278c1.062-.092,2.313-.239,3.785-.45v-2.539H134.4c-.124,0-.189-.078-.189-.253V1746c0-.156.064-.248.189-.248Zm4.4-7.951c.124,0,.184.092.184.248v.488c0,.175-.06.248-.184.248h-3.757q-1.173,2.49-1.692,3.522c1.191-.124,2.428-.3,3.711-.515a11.3,11.3,0,0,0-.957-1.49c0-.06.281-.248.86-.547a19.639,19.639,0,0,1,1.288,2.111,12.888,12.888,0,0,1,.8,1.862,3.01,3.01,0,0,1-1.035.318,7.934,7.934,0,0,0-.515-1.394c-1.987.373-3.849.658-5.6.847q-.166,0-.235.221c-.032.262-.11.386-.253.386s-.359-.5-.671-1.531c.189,0,.547-.032,1.108-.1a1.554,1.554,0,0,0,.285-.032c.078-.157.156-.327.248-.5.566-1.159,1.067-2.208,1.5-3.164h-2.911c-.124,0-.17-.074-.17-.248v-.488c0-.156.046-.248.17-.248Zm2.75,1.407c0,.138-.06.221-.156.234s-.138.125-.138.313v8.076c0,.124-.1.188-.253.188h-.612c-.17,0-.248-.064-.248-.188v-8.623c0-.125.078-.189.248-.189.767,0,1.16.064,1.16.189Zm2.879-2.032c.11.059.175.11.175.137,0,.092-.064.143-.175.143-.216.1-.313.327-.313.723v11.731c0,.722-.547,1.094-1.642,1.094h-.924c-.092,0-.124-.092-.124-.262a2.462,2.462,0,0,0-.294-.7c0-.1.028-.129.124-.129a5.48,5.48,0,0,0,1.094.129c.437,0,.671-.189.671-.561v-11.364a3.5,3.5,0,0,0-.064-.69.717.717,0,0,1-.06-.294c0-.083.092-.124.313-.124Z" transform="translate(4.236 -1713.774)" fill="#3d93ab"/>
      <path id="Path_37968" data-name="Path 37968" d="M145.5,1737.191c0,.139-.06.212-.152.23-.11.014-.161.129-.161.317v.856h6.121c.124,0,.184.1.184.253v.483c0,.175-.06.253-.184.253H137.742c-.129,0-.189-.078-.189-.253v-.483c0-.157.06-.253.189-.253h6.351v-1.4c0-.128.078-.188.253-.188C145.109,1737,145.5,1737.063,145.5,1737.191Zm4.9,7.4c.184,0,.294.078.294.234v5.726c0,.239-.189.423-.547.547a7.388,7.388,0,0,1-1.348.22.184.184,0,0,1-.2-.189,2.846,2.846,0,0,0-.345-.984c0-.032.032-.032.1-.032a4.2,4.2,0,0,0,1.062-.078.249.249,0,0,0,.189-.234v-4.24H139.383V1751q0,.193-.235.193h-.612c-.17,0-.248-.065-.248-.193v-6.176c0-.156.078-.234.248-.234Zm-1.913-4.1c.156,0,.253.065.253.189v2.866c0,.124-.1.183-.253.183h-8c-.17,0-.248-.059-.248-.183v-2.866c0-.124.078-.189.248-.189Zm-.717,6.116c.156,0,.235.065.235.179v2.75c0,.129-.078.189-.235.189h-6.245c-.17,0-.248-.06-.248-.189v-2.75c0-.115.078-.179.248-.179Zm-.124-5.132h-6.31v1.288h6.31Zm-.736,6.043h-4.525v1.283h4.525Z" transform="translate(17.537 -1713.774)" fill="#3d93ab"/>
      <path id="Path_37969" data-name="Path 37969" d="M142.389,1750.663c0,.129-.1.193-.253.193h-.607c-.175,0-.253-.065-.253-.193v-13.378c0-.125.078-.189.253-.189h3.362a.706.706,0,0,1,.363.083c.248.2.373.34.373.4L143.842,1742a.531.531,0,0,0-.064.234.317.317,0,0,0,.11.208,5.909,5.909,0,0,1,1.159,1.54,4.55,4.55,0,0,1,.455,1.913,5.341,5.341,0,0,1-.267,1.733,1.935,1.935,0,0,1-.832,1.068,1.676,1.676,0,0,1-1.168.326c-.253,0-.377-.078-.377-.248a2.248,2.248,0,0,0-.235-.8c0-.078.06-.128.184-.128l.676.063a.792.792,0,0,0,.75-.611,3.732,3.732,0,0,0-.156-2.911,6.817,6.817,0,0,0-1.393-1.812c-.092-.051-.124-.1-.124-.156a.679.679,0,0,1,.064-.253l1.876-4.207h-2.111Zm12.766-13.566c.124,0,.189.083.189.239v.5c0,.156-.064.229-.189.229h-8.793c-.124,0-.189-.074-.189-.229v-.5c0-.156.064-.239.189-.239Zm-.124,6.291c.2,0,.313.1.313.253v6.263c0,.244-.189.45-.534.6a6.618,6.618,0,0,1-1.3.221.185.185,0,0,1-.2-.189,3.34,3.34,0,0,0-.363-.97c0-.032.032-.041.11-.041a3.7,3.7,0,0,0,1-.079.282.282,0,0,0,.175-.271v-4.8h-6.967v6.286c0,.129-.092.193-.248.193h-.612q-.235,0-.235-.193v-7.022a.221.221,0,0,1,.235-.253Zm-.906-4.332c.152,0,.234.065.234.189v2.924c0,.125-.083.189-.234.189h-6.369c-.156,0-.235-.064-.235-.189v-2.924c0-.125.078-.189.235-.189Zm-4.866,5.777a7.3,7.3,0,0,0,1.062,1.549.217.217,0,0,1,.06.12.281.281,0,0,1-.11.189c-.12.115-.216.189-.28.253h1.145a5.5,5.5,0,0,1,.313-.455,4.469,4.469,0,0,0,.451-.86,5.246,5.246,0,0,0,.267-.828.065.065,0,0,1,.064-.059,4.063,4.063,0,0,1,1.1.607c0,.1-.046.143-.106.143a.366.366,0,0,0-.331.17,5.54,5.54,0,0,1-.566,1.269l-.014.014h1.141c.064,0,.11.064.11.17v.5c0,.161-.046.235-.11.235h-2.08v2.814c0,.129-.1.193-.253.193h-.607c-.161,0-.239-.065-.239-.193v-2.814h-2.079c-.092,0-.124-.074-.124-.235v-.5c0-.106.032-.17.124-.17h1.329a8.113,8.113,0,0,1-1.095-1.655,8.133,8.133,0,0,1,.736-.547c.019,0,.047.025.1.089Zm4.006-4.806h-4.649v1.347h4.649Z" transform="translate(30.935 -1713.436)" fill="#3d93ab"/>
      <path id="Path_37970" data-name="Path 37970" d="M111.965,1742.136c0,.143-.06.221-.152.221-.11.032-.161.138-.161.327v.847H116.8c.11,0,.17.092.17.248v.488c0,.175-.06.248-.17.248h-2.58l.639.267c.143.065.221.143.221.22a.2.2,0,0,1-.156.189.229.229,0,0,0-.235.2,13.015,13.015,0,0,1-.754,1.752h3.9c.124,0,.184.092.184.248v.487c0,.157-.06.234-.184.234H104.083c-.129,0-.189-.078-.189-.234v-.487c0-.157.06-.248.189-.248h4.176c-.06-.184-.143-.4-.235-.626a9.26,9.26,0,0,0-.892-1.706c0-.046.124-.138.391-.3h-2.456c-.124,0-.189-.073-.189-.248v-.488c0-.156.064-.248.189-.248h5.491v-1.394c0-.124.078-.184.253-.184C111.574,1741.952,111.965,1742.012,111.965,1742.136Zm3.6,7.216c.156,0,.253.063.253.17v6.664c0,.128-.1.193-.253.193h-.612c-.152,0-.235-.065-.235-.193v-.418h-7.335v.418c0,.128-.1.193-.253.193h-.612c-.152,0-.23-.065-.23-.193v-6.6a.206.206,0,0,1,.23-.234Zm-.846,2.736v-1.766h-7.335v1.766Zm0,2.695v-1.706h-7.335v1.706Zm-2.189-7.638a7.919,7.919,0,0,0,.7-1.141,6.626,6.626,0,0,0,.547-1.412c0-.032.018-.046.032-.078h-5.68c.313.533.561,1,.768,1.444.17.391.327.782.469,1.187Z" transform="translate(-103.595 -1695.964)" fill="#3d93ab"/>
      <path id="Path_37971" data-name="Path 37971" d="M111.416,1747.161c-.326-.437-.782-1-1.375-1.66a18.674,18.674,0,0,0-1.628-1.582l.722-.828a23.728,23.728,0,0,1,3.192,3.27Z" transform="translate(-87.332 -1691.865)" fill="#3d93ab"/>
      <path id="Path_37972" data-name="Path 37972" d="M118.668,1742.191c0,.138-.06.211-.156.23s-.156.128-.156.317v.856h6.121c.124,0,.184.1.184.253v.483c0,.175-.06.253-.184.253H110.91c-.129,0-.189-.078-.189-.253v-.483c0-.157.06-.253.189-.253h6.351v-1.4c0-.129.078-.188.253-.188C118.277,1742,118.668,1742.062,118.668,1742.191Zm4.9,7.4c.184,0,.294.079.294.235v5.725c0,.239-.189.424-.547.547a7.377,7.377,0,0,1-1.347.22.184.184,0,0,1-.2-.189,2.846,2.846,0,0,0-.345-.984c0-.032.032-.032.1-.032a4.236,4.236,0,0,0,1.062-.078.25.25,0,0,0,.189-.235v-4.24H112.551V1756c0,.128-.078.193-.235.193H111.7c-.17,0-.248-.065-.248-.193v-6.176c0-.156.078-.235.248-.235Zm-1.913-4.1c.156,0,.253.065.253.189v2.866c0,.124-.1.184-.253.184h-8c-.17,0-.248-.06-.248-.184v-2.866c0-.124.078-.189.248-.189Zm-.717,6.116c.156,0,.235.065.235.18v2.75c0,.129-.078.189-.235.189h-6.245c-.17,0-.248-.06-.248-.189v-2.75c0-.115.078-.18.248-.18Zm-.129-5.132h-6.3v1.288h6.3Zm-.731,6.042h-4.525v1.284h4.525Z" transform="translate(-79.026 -1695.78)" fill="#3d93ab"/>
      <path id="Path_37973" data-name="Path 37973" d="M115.22,1755.663c0,.128-.1.193-.253.193h-.607c-.175,0-.253-.065-.253-.193v-13.378c0-.124.078-.188.253-.188h3.362a.7.7,0,0,1,.363.082c.248.2.373.34.373.4L116.673,1747a.534.534,0,0,0-.064.235.317.317,0,0,0,.11.207,5.914,5.914,0,0,1,1.159,1.541,4.548,4.548,0,0,1,.455,1.913,5.346,5.346,0,0,1-.267,1.734,1.95,1.95,0,0,1-.828,1.067,1.694,1.694,0,0,1-1.173.326c-.253,0-.377-.078-.377-.248a2.242,2.242,0,0,0-.235-.8c0-.078.064-.129.184-.129l.676.064a.792.792,0,0,0,.75-.612,3.732,3.732,0,0,0-.156-2.911,6.911,6.911,0,0,0-1.389-1.812c-.1-.05-.129-.1-.129-.156a.673.673,0,0,1,.064-.253l1.876-4.208H115.22Zm12.766-13.566c.124,0,.189.082.189.239v.5c0,.156-.064.229-.189.229h-8.793c-.124,0-.189-.073-.189-.229v-.5c0-.157.064-.239.189-.239Zm-.124,6.291c.207,0,.313.1.313.253v6.263c0,.244-.189.451-.533.6a6.61,6.61,0,0,1-1.3.222.185.185,0,0,1-.2-.189,3.345,3.345,0,0,0-.363-.97c0-.032.032-.041.11-.041a3.679,3.679,0,0,0,1-.079.281.281,0,0,0,.175-.271v-4.8H120.1v6.287c0,.128-.092.193-.248.193h-.612c-.156,0-.235-.065-.235-.193v-7.023a.221.221,0,0,1,.235-.253Zm-.906-4.332c.156,0,.235.065.235.189v2.925c0,.125-.078.189-.235.189h-6.369c-.156,0-.235-.064-.235-.189v-2.925c0-.124.078-.189.235-.189Zm-4.866,5.776a7.311,7.311,0,0,0,1.062,1.55.189.189,0,0,1,.06.12.284.284,0,0,1-.11.189c-.12.115-.216.189-.281.253h1.145a5.5,5.5,0,0,1,.313-.455,4.482,4.482,0,0,0,.451-.86,5.8,5.8,0,0,0,.271-.828.061.061,0,0,1,.06-.06,4.058,4.058,0,0,1,1.1.607c0,.1-.046.142-.106.142a.367.367,0,0,0-.331.17,5.563,5.563,0,0,1-.566,1.27l-.014.014h1.141c.064,0,.11.063.11.17v.5c0,.161-.046.234-.11.234H124.2v2.814c0,.128-.1.193-.248.193h-.612c-.156,0-.239-.065-.239-.193v-2.814h-2.079c-.092,0-.124-.074-.124-.234v-.5c0-.106.032-.17.124-.17h1.329a8.086,8.086,0,0,1-1.1-1.656,8.133,8.133,0,0,1,.736-.547c.02,0,.048.026.1.091Zm4.006-4.806h-4.649v1.348H126.1Z" transform="translate(-66.841 -1695.442)" fill="#3d93ab"/>
      <path id="Path_37974" data-name="Path 37974" d="M120.708,1743.386v-1.219c0-.11.078-.175.234-.175.768,0,1.159.065,1.159.175,0,.138-.046.216-.143.234s-.156.125-.156.313v.671h2.253c.078,0,.124.059.124.189v.483c0,.175-.046.253-.124.253H121.8v.989h2.7c.12,0,.184.074.184.229v.488c0,.17-.064.253-.184.253h-1.536v.547c0,.372.2.543.612.543h.124a.55.55,0,0,0,.409-.12c.092-.065.152-.272.184-.644a.076.076,0,0,1,.078-.083,1.543,1.543,0,0,0,.8.22c.106,0,.17.051.17.138a2.17,2.17,0,0,1-.483,1.127.822.822,0,0,1-.676.221h-1.03c-.736,0-1.1-.28-1.1-.859v-1.09h-1.472a4.526,4.526,0,0,1-.235.652,3.41,3.41,0,0,1-.533.814,5.77,5.77,0,0,1-1.393,1.049.32.32,0,0,1-.11.046c-.078,0-.156-.064-.248-.189a4.3,4.3,0,0,1-.5-.45c-.06-.013-.092-.046-.092-.1l.014-.032a5.071,5.071,0,0,0,1.393-.75,1.674,1.674,0,0,0,.515-.593,2.583,2.583,0,0,0,.207-.45h-1.582c-.129,0-.189-.083-.189-.253v-.488c0-.156.06-.229.189-.229h2.69v-.989H118.44c-.1,0-.129-.078-.129-.253v-.483c0-.129.032-.189.129-.189Zm0,5.868v-1.223c0-.106.078-.171.234-.171.768,0,1.159.065,1.159.171,0,.147-.046.22-.143.239s-.156.124-.156.313v.671h2.253c.078,0,.124.064.124.189v.483c0,.175-.046.253-.124.253H121.8v1.31c.722-.1,1.426-.23,2.1-.372.032,0,.064-.018.11-.018.064,0,.11.064.11.175a2.452,2.452,0,0,1-.064.8c-1.66.285-3.348.519-5.068.735-.156.286-.267.424-.363.424s-.281-.4-.547-1.219c.722-.065,1.6-.184,2.631-.345v-1.486H118.44c-.1,0-.129-.078-.129-.253v-.483c0-.125.032-.189.129-.189Zm.06,4.364c.161.065.239.147.239.221s-.064.124-.175.156a.266.266,0,0,0-.281.156,9.008,9.008,0,0,1-1.223,1.881.4.4,0,0,1-.216.137.565.565,0,0,1-.267-.106,5.377,5.377,0,0,0-.593-.253c-.078-.032-.11-.064-.11-.078a.192.192,0,0,1,.046-.11,7.091,7.091,0,0,0,.878-1.049,4.534,4.534,0,0,0,.625-1.159c.046-.124.092-.188.156-.188Zm2.442-.073a17.363,17.363,0,0,1,1.035,1.949c0,.147-.032.22-.1.239a1.6,1.6,0,0,1-.809.373,23.238,23.238,0,0,0-.924-2.144c0-.11.216-.262.671-.483a.156.156,0,0,1,.126.066Zm3.8-8.982c0-.694,0-1.49-.014-2.4l1.472.124a.182.182,0,0,1-.143.184c-.156.1-.235.206-.235.3-.014.686-.032,1.279-.046,1.785h2.005c.152,0,.248.106.248.294l-.676,6.3c0,.083.032.124.129.143a.924.924,0,0,0,.483.092h.124a.512.512,0,0,0,.441-.2,6.85,6.85,0,0,0,.327-1.407c0-.143.032-.221.078-.221s.092.046.175.11a4.86,4.86,0,0,0,.529.423c.1.078.156.143.156.207a8.89,8.89,0,0,1-.515,1.826.583.583,0,0,1-.515.359h-1.049a1.659,1.659,0,0,1-1.127-.294,1.03,1.03,0,0,1-.267-.8l.671-5.869H128c0,.111-.018.2-.018.267-.046.685-.124,1.38-.234,2.065a9.548,9.548,0,0,1-.377,1.531c.11.157.207.318.3.442a10.257,10.257,0,0,1,.593,1.035c0,.027.018.074.018.106,0,.065-.235.253-.671.547a.081.081,0,0,1-.078-.046c-.189-.345-.363-.639-.533-.924-.1.239-.2.441-.3.63a10.058,10.058,0,0,1-1.361,1.752c-.064,0-.124-.051-.189-.156a5.034,5.034,0,0,0-.533-.5.244.244,0,0,1-.12-.207,5.322,5.322,0,0,0,.5-.464,9.554,9.554,0,0,0,.6-.768,5,5,0,0,0,.5-1c.041-.11.092-.22.124-.327-.064-.064-.124-.147-.175-.2-.281-.286-.593-.547-.906-.833a.081.081,0,0,1-.032-.065,4.557,4.557,0,0,1,.515-.607.392.392,0,0,1,.221-.065c.221.189.455.409.7.658.11-.488.2-1.017.3-1.578.046-.428.092-.851.124-1.288h-1.439c-.124,0-.189-.078-.189-.229v-.506c0-.156.064-.23.189-.23Zm-.561,8.917a16.531,16.531,0,0,1,1.283,2.014c0,.147-.051.22-.11.239a1.624,1.624,0,0,1-.814.373,20.457,20.457,0,0,0-1.159-2.2c0-.1.221-.266.671-.488a.167.167,0,0,1,.131.062Zm3.113-.189a18.345,18.345,0,0,1,1.706,2.267c0,.142-.032.22-.1.239a1.665,1.665,0,0,1-.814.372,21.388,21.388,0,0,0-1.6-2.437c0-.115.221-.286.676-.506a.165.165,0,0,1,.135.066Z" transform="translate(-54.738 -1695.821)" fill="#3d93ab"/>
      <path id="Path_37975" data-name="Path 37975" d="M125.016,1747.161c-.327-.437-.782-1-1.375-1.66a19.34,19.34,0,0,0-1.628-1.582l.717-.828a23.2,23.2,0,0,1,3.192,3.27Z" transform="translate(-38.388 -1691.865)" fill="#3d93ab"/>
      <path id="Path_37976" data-name="Path 37976" d="M132.271,1742.191c0,.138-.06.211-.156.23s-.156.128-.156.317v.856h6.116c.129,0,.189.1.189.253v.483c0,.175-.06.253-.189.253H124.509c-.124,0-.189-.078-.189-.253v-.483c0-.157.064-.253.189-.253h6.356v-1.4c0-.129.078-.188.248-.188C131.88,1742,132.271,1742.062,132.271,1742.191Zm4.9,7.4c.189,0,.3.079.3.235v5.725c0,.239-.189.424-.547.547a7.453,7.453,0,0,1-1.347.22.184.184,0,0,1-.2-.189,3.062,3.062,0,0,0-.345-.984c0-.032.032-.032.092-.032a4.258,4.258,0,0,0,1.067-.078.245.245,0,0,0,.184-.235v-4.24h-10.22V1756c0,.128-.078.193-.239.193h-.607c-.17,0-.253-.065-.253-.193v-6.176c0-.156.083-.235.253-.235Zm-1.908-4.1c.156,0,.248.065.248.189v2.866c0,.124-.092.184-.248.184h-8c-.17,0-.248-.06-.248-.184v-2.866c0-.124.078-.189.248-.189Zm-.722,6.116c.161,0,.235.065.235.18v2.75c0,.129-.074.189-.235.189H128.3c-.175,0-.253-.06-.253-.189v-2.75c0-.115.078-.18.253-.18Zm-.124-5.132h-6.3v1.288h6.3Zm-.736,6.042H129.16v1.284h4.521Z" transform="translate(-30.086 -1695.78)" fill="#3d93ab"/>
      <path id="Path_37977" data-name="Path 37977" d="M130.481,1749.963c.248.562.386.874.386.906a.475.475,0,0,1-.06.216c-.409,1.158-.782,2.148-1.127,2.943-.189.469-.423.956-.7,1.5a1.653,1.653,0,0,0-.064.529c0,.125-.046.189-.124.189a4.522,4.522,0,0,1-1-.984.224.224,0,0,1-.106-.175.273.273,0,0,1,.06-.2,7.343,7.343,0,0,0,.768-1.094c.345-.594.69-1.283,1.03-2.033.281-.657.533-1.255.754-1.8.014-.078.046-.124.078-.124S130.448,1749.885,130.481,1749.963Zm-.754-3.569c.391.3.736.566,1.021.81a.442.442,0,0,1-.078.128c-.317.451-.474.671-.474.671a11.908,11.908,0,0,0-1.393-1.044,6.534,6.534,0,0,0-1-.547,3.216,3.216,0,0,1,.487-.7c.046-.06.092-.106.124-.106a13.572,13.572,0,0,1,1.312.783Zm.52-3.334c.372.285.7.547.984.782a.4.4,0,0,1-.078.124c-.313.455-.469.676-.469.676-.437-.359-.892-.7-1.361-1.021a9.254,9.254,0,0,0-.97-.515,3.263,3.263,0,0,1,.483-.69c.046-.06.1-.106.143-.106.5.276.921.53,1.267.751Zm2.52,4.943a23.389,23.389,0,0,1-.285,4.116,10.9,10.9,0,0,1-.7,2.538,6.216,6.216,0,0,1-.8,1.467.36.36,0,0,1-.156-.032,4.413,4.413,0,0,0-.561-.423.355.355,0,0,1-.064-.217,7.417,7.417,0,0,0,.8-1.752,16.362,16.362,0,0,0,.5-2.442,31.773,31.773,0,0,0,.156-3.256v-3.3a.222.222,0,0,1,.248-.253h5.541c-.018-.718-.032-1.518-.032-2.382,0-.073.032-.12.11-.12a3.944,3.944,0,0,1,1.407.235c0,.106-.078.188-.235.22a.627.627,0,0,0-.189.4v1.647h2.005a6.5,6.5,0,0,0-.8-.676,6.13,6.13,0,0,0-.658-.418,2.667,2.667,0,0,1,.487-.69c.046-.065.092-.111.124-.111a9.122,9.122,0,0,1,.86.6c.253.23.487.432.676.621a.388.388,0,0,1-.083.129c-.189.281-.313.469-.373.547h.75c.124,0,.189.092.189.253v.483c0,.17-.064.253-.189.253h-2.971c.014,1.31.046,2.391.106,3.251a20.168,20.168,0,0,0,.313,2.631,12.439,12.439,0,0,0,.676-1.568,14.976,14.976,0,0,0,.75-2.595.206.206,0,0,1,.221-.2c.892.308,1.343.51,1.343.6s-.06.161-.184.193a.369.369,0,0,0-.377.262,20.362,20.362,0,0,1-1.219,3.275c-.285.561-.579,1.067-.865,1.517a7.342,7.342,0,0,0,.363,1.017,4.736,4.736,0,0,0,.418.842c.129.206.253.3.391.3s.253-.124.363-.4a8.179,8.179,0,0,0,.423-1.362c0-.092.032-.138.074-.138a.217.217,0,0,1,.207.138c.17.175.359.345.547.515a.192.192,0,0,1,.1.189,10.63,10.63,0,0,1-.989,2.005c-.253.294-.469.455-.658.455a.9.9,0,0,1-.612-.35,2.937,2.937,0,0,1-.86-1.122,5.649,5.649,0,0,1-.483-1.063,14.609,14.609,0,0,1-2.534,2.392.667.667,0,0,1-.285.078.317.317,0,0,1-.281-.17,2.3,2.3,0,0,0-.377-.423c-.092-.065-.138-.125-.138-.207,0-.046.046-.088.138-.139a3.858,3.858,0,0,0,1.131-.735,8.925,8.925,0,0,0,1.72-1.735c.092-.115.17-.22.248-.317a16.857,16.857,0,0,1-.515-2.815c-.1-.938-.175-2.382-.2-4.332H132.77Zm3.909-1.172c.11,0,.17.1.17.248v.483c0,.18-.06.253-.17.253H133.5c-.124,0-.189-.073-.189-.253v-.483c0-.151.064-.248.189-.248Zm-.124,2.332c.156,0,.248.065.248.189v3.913c0,.124-.092.17-.248.17h-.612c-.124,0-.189-.046-.189-.17v-.253h-1.343v.676c0,.124-.083.189-.235.189h-.625c-.129,0-.175-.065-.175-.189v-4.337c0-.125.046-.189.175-.189Zm-.8,2.861v-1.954h-1.343v1.954Z" transform="translate(-17.994 -1695.964)" fill="#3d93ab"/>
      <path id="Path_37978" data-name="Path 37978" d="M133.121,1747.256a24.685,24.685,0,0,1-.207,3.509,10.7,10.7,0,0,1-.5,2.153,5.353,5.353,0,0,1-.579,1.241.23.23,0,0,1-.156-.032,5.04,5.04,0,0,0-.566-.391.26.26,0,0,1-.06-.189,6.7,6.7,0,0,0,.561-1.486,15.985,15.985,0,0,0,.359-2.051c.064-.75.11-1.674.11-2.755V1742.3c0-.115.064-.175.189-.175H144.62c.078,0,.124.06.124.175v.5c0,.157-.046.235-.124.235h-11.5Zm6.057.359c.152,0,.248.05.248.124v3.776c0,.157-.189.281-.534.373a.334.334,0,0,1-.124.018h.046c.768,0,1.159.06,1.159.17,0,.157-.064.235-.156.235-.11.013-.156.124-.156.331H144.2c.064,0,.106.065.106.17v.483c0,.129-.041.189-.106.189h-4.54v.984h5.574c.074,0,.12.051.12.175v.5c0,.156-.046.234-.12.234h-12.6c-.092,0-.124-.078-.124-.234v-.5c0-.125.032-.175.124-.175h5.932v-.984h-4.272c-.092,0-.124-.06-.124-.189v-.483c0-.106.032-.17.124-.17h4.272v-.566a.147.147,0,0,1,.124-.156,10.055,10.055,0,0,1-1.095.092c-.1,0-.156-.046-.156-.138a2.744,2.744,0,0,0-.281-.768c0-.014.032-.032.106-.032a6.087,6.087,0,0,0,1.049-.046c.129-.019.189-.065.189-.143v-.391h-3.661v1.284c0,.128-.092.189-.248.189h-.487c-.17,0-.248-.06-.248-.189v-4.038c0-.074.078-.124.248-.124Zm-.3-3.914c.156,0,.235.065.235.189v2.879c0,.128-.078.17-.235.17h-4.415c-.156,0-.23-.042-.23-.17v-2.879c0-.124.074-.189.23-.189Zm-.377,5.137v-.552H134.84v.552Zm0,1.108v-.561H134.84v.561Zm-.359-4.9v-.671H135.2v.671Zm0,.552H135.2v.671h2.943Zm3.536.308c.032-.625.064-1.329.064-2.092,0-.189.032-.3.124-.3l.892.082c.17,0,.267.065.267.171,0,.17-.064.267-.175.284s-.184.106-.184.262c-.032.612-.051,1.141-.083,1.6h2.161c.06,0,.11.065.11.189v.483c0,.161-.051.239-.11.239H142.7a14.154,14.154,0,0,0,.69,1.734,7,7,0,0,0,.86,1.5,3.1,3.1,0,0,0,.86.86c0,.064-.046.11-.138.142a5.619,5.619,0,0,0-.52.547c-.06.078-.11.11-.143.11a6.493,6.493,0,0,1-1.062-1.361,9.879,9.879,0,0,1-.8-1.661,2.537,2.537,0,0,1-.175-.436,10.237,10.237,0,0,1-.529,1.738,4.31,4.31,0,0,1-1.095,1.591c-.11,0-.189-.013-.221-.06a3.216,3.216,0,0,0-.487-.364c-.11-.059-.156-.124-.156-.184a.176.176,0,0,1,.11-.175,4.855,4.855,0,0,0,.938-1.347,6.29,6.29,0,0,0,.566-1.624c.06-.3.124-.643.189-1.016h-1.738c-.092,0-.124-.078-.124-.239v-.483c0-.125.032-.189.124-.189Zm2.9-1.609c.216.234.419.436.593.625,0,.014-.032.046-.064.11l-.423.566a6.367,6.367,0,0,0-.8-.847c-.221-.189-.409-.345-.547-.441a2.514,2.514,0,0,1,.377-.529.145.145,0,0,1,.106-.082c.3.223.55.426.757.6Z" transform="translate(-5.844 -1695.34)" fill="#3d93ab"/>
      <path id="Path_37979" data-name="Path 37979" d="M137.523,1746.421c.078.092.124.157.124.207a.083.083,0,0,1-.092.092.429.429,0,0,0-.221.143,12.359,12.359,0,0,1-.75,1.3,8.222,8.222,0,0,1-1.209,1.348c-.124,0-.216-.032-.248-.129a5.611,5.611,0,0,1-.547-.436c-.078-.033-.11-.065-.11-.111a.1.1,0,0,1,.032-.092,2.175,2.175,0,0,0,.579-.455,6.886,6.886,0,0,0,.846-1.108c.184-.345.419-.768.671-1.284.014-.063.028-.11.06-.11Zm3.362,2.162c0,.092-.06.156-.189.184a.336.336,0,0,0-.327.234,17.787,17.787,0,0,1-.892,2.364c.248.345.469.7.685,1.053a14.05,14.05,0,0,1,.989,1.8.9.9,0,0,1,.032.183c0,.065-.253.239-.736.547a.144.144,0,0,1-.124-.092,18.326,18.326,0,0,0-1.393-2.437,13.546,13.546,0,0,1-1,1.517,12.735,12.735,0,0,1-2.364,2.106.805.805,0,0,1-.248.065.308.308,0,0,1-.281-.17,2.979,2.979,0,0,0-.377-.424.251.251,0,0,1-.143-.2c0-.045.032-.078.124-.11a3.828,3.828,0,0,0,1.016-.644,7.151,7.151,0,0,0,1.522-1.486,7.8,7.8,0,0,0,1.03-1.609c-.106-.129-.216-.266-.313-.4-.469-.464-.97-.947-1.472-1.435-.046-.064-.06-.092-.06-.124a3.841,3.841,0,0,1,.5-.662.379.379,0,0,1,.235-.078,17.8,17.8,0,0,1,1.329,1.32,3.628,3.628,0,0,1,.248.3,11.346,11.346,0,0,0,.658-2.236.2.2,0,0,1,.207-.175c.893.315,1.343.517,1.343.614Zm-1.531-6.415c0,.138-.064.216-.156.234s-.143.125-.143.313v1.467h2.865c.124,0,.189.1.189.253v.488c0,.17-.064.248-.189.248h-7.151c-.129,0-.189-.078-.189-.248v-.488c0-.156.06-.253.189-.253h3.178v-2.014c0-.11.078-.175.248-.175.767,0,1.158.064,1.158.174Zm1.844,4.99c.377.566.69,1.049.97,1.485a.314.314,0,0,1-.078.143c-.313.437-.469.658-.469.658a20.93,20.93,0,0,0-1.329-1.927,7.248,7.248,0,0,0-.938-1,2.942,2.942,0,0,1,.483-.685c.046-.065.1-.111.129-.111a17.924,17.924,0,0,1,1.234,1.436Zm3.973-4.714c.11.1.175.161.175.221a.167.167,0,0,1-.124.175.207.207,0,0,0-.221.184c-.156.57-.3,1.035-.423,1.412h4.07c.124,0,.189.079.189.234v.5c0,.151-.064.234-.189.234h-.878a24.289,24.289,0,0,1-.437,4.461,11.043,11.043,0,0,1-1.159,3.127,5.994,5.994,0,0,0,1.145,1.3,6.073,6.073,0,0,0,1.752,1.076c0,.1-.064.156-.156.22a6.531,6.531,0,0,0-.547.612c-.11.092-.175.156-.207.156a8.936,8.936,0,0,1-1.766-1.282,4.378,4.378,0,0,1-.938-1.113,6.9,6.9,0,0,1-1.049.97,10.426,10.426,0,0,1-2.3,1.362c-.285-.295-.533-.562-.736-.8a7.684,7.684,0,0,0,1.766-.98,7.277,7.277,0,0,0,1.692-1.582,8.617,8.617,0,0,1-.5-1.085,10.792,10.792,0,0,1-.676-2.36,16.849,16.849,0,0,1-.2-2.658,7.315,7.315,0,0,1-.671.906.711.711,0,0,1-.345-.064,5.029,5.029,0,0,1-.593-.221c-.078-.032-.11-.06-.11-.092a.129.129,0,0,1,.06-.12,8.168,8.168,0,0,0,1.191-1.835,10.519,10.519,0,0,0,.547-1.329,17.293,17.293,0,0,0,.487-1.908c.032-.083.064-.124.106-.124Zm-.685,4.245a14.389,14.389,0,0,0,.216,2.584,13.123,13.123,0,0,0,.566,2.033,4.592,4.592,0,0,0,.221.5,9.832,9.832,0,0,0,.75-2.161,23.065,23.065,0,0,0,.437-4.24h-2.488c-.189.437-.391.846-.593,1.223-.014.032-.032.06-.046.06Z" transform="translate(6.438 -1695.821)" fill="#3d93ab"/>
      <path id="Path_37980" data-name="Path 37980" d="M149.937,1742.1c.156,0,.248.064.248.188v6.232c0,.124-.092.189-.248.189h-.612c-.156,0-.23-.065-.23-.189v-.423h-3.431v1.517H151.7c.129,0,.189.1.189.253v.483c0,.17-.06.248-.189.248h-5.5a11.446,11.446,0,0,0,1.656,1.315,10.718,10.718,0,0,0,2.286,1.223,12.02,12.02,0,0,0,2.24.7c0,.1-.064.151-.156.2a7.148,7.148,0,0,0-.593.685c-.078.1-.129.147-.156.147a14.869,14.869,0,0,1-2.787-1.209,9.992,9.992,0,0,1-2.079-1.468,8.862,8.862,0,0,1-.943-.864v4.4c0,.128-.092.189-.248.189h-.62c-.175,0-.248-.06-.248-.189v-4.208a14.071,14.071,0,0,1-1.177,1,15.831,15.831,0,0,1-2.046,1.328,19.312,19.312,0,0,1-2.52,1.141.387.387,0,0,1-.28-.106c-.221-.222-.442-.41-.644-.58a.409.409,0,0,1-.046-.17,17.243,17.243,0,0,0,1.941-.74,12.129,12.129,0,0,0,2.318-1.315,19.072,19.072,0,0,0,1.8-1.486h-5.321c-.124,0-.189-.078-.189-.248v-.483c0-.157.064-.253.189-.253h5.979v-1.517h-3.412v.487c0,.125-.092.184-.253.184h-.607c-.175,0-.253-.06-.253-.184v-6.245c0-.157.078-.239.253-.239Zm-5.381,2.506v-1.536h-3.412v1.536Zm0,2.5v-1.531h-3.412v1.531Zm1.108-2.5H149.1v-1.536h-3.431Zm0,2.5H149.1v-1.531h-3.431Z" transform="translate(18.577 -1695.442)" fill="#3d93ab"/>
    </g>
    <g id="Group_6145" data-name="Group 6145" transform="translate(188.905 7679.82)">
      <path id="Path_37981" data-name="Path 37981" d="M108.5,1724.215c-.133.712-.271,1.4-.455,2.065h1.435v-3.1h2.75v3.1h4.249v2.883H112.23v2.06h4.7v2.911h-4.7v2.065h4.249v7.326c0,1.591-.773,2.386-2.295,2.386h-1.343l-.34-2.883c.5.046.8.073.888.073.34,0,.524-.234.524-.713v-3.412H112.23v8.572h-2.75v-8.572h-1.775v7.142H105.05V1736.2h4.433v-2.065h-5.344v-2.911h5.344v-2.06h-2.322c-.225.607-.455,1.191-.7,1.775l-2.566-1.458a24.653,24.653,0,0,0,2.3-5.9Zm11.64,1.035v16.744h-2.589V1725.25Zm4.162,19.522c0,1.586-.75,2.377-2.2,2.377h-3.026l-.455-3.1c1.412.138,2.184.184,2.322.184.336,0,.52-.234.52-.712V1723.18h2.842Z" transform="translate(-103.891 -1723.078)" fill="#3d93ab"/>
      <path id="Path_37982" data-name="Path 37982" d="M121.41,1725.355h7.252v2.773h-2.773a21.079,21.079,0,0,1-1.113,2.994h5.118v2.911H108.86v-2.911h5.187a13.827,13.827,0,0,0-1.274-2.994h-2.686v-2.773h7.869c-.133-.64-.271-1.246-.409-1.775l3.661-.4C121.277,1723.92,121.346,1724.642,121.41,1725.355Zm6.1,22.194h-3.12v-1.219H114.365v1.219h-3.118V1735.38h16.261Zm-3.118-7.933v-1.458H114.365v1.458Zm0,3.909v-1.453H114.365v1.453Zm-2.819-12.4a19.669,19.669,0,0,0,1.113-2.994H115.91a26.007,26.007,0,0,1,1.389,2.994Z" transform="translate(-86.009 -1723.078)" fill="#3d93ab"/>
      <path id="Path_37983" data-name="Path 37983" d="M121.717,1727.2v-4.019h3.113v4.019h7.915v11.879H124.83v8.467h-3.113v-8.467h-7.639V1727.2Zm0,3.1H117.1v5.688h4.617Zm8,0H124.83v5.688h4.888Z" transform="translate(-67.23 -1723.078)" fill="#3d93ab"/>
      <path id="Path_37984" data-name="Path 37984" d="M128.144,1730.449a11.581,11.581,0,0,1-3.164,4.075,12.785,12.785,0,0,1-4.751,2.221l-1.435-3.2a13.154,13.154,0,0,0,4.387-1.588,7.7,7.7,0,0,0,2.46-2.855Zm9.225,6.825v2.994H130.71v3.624h8.8v2.984H118.795v-2.984h8.71v-3.624h-6.572v-2.994ZM131,1725.69h7.869v5.472h-2.934v-2.46H133v2.888c0,.764.207,1.136.639,1.136h5.684v2.883h-6.48c-1.844,0-2.755-.952-2.755-2.883V1728.7h-7.726v2.46h-2.934v-5.472h8.3a21.794,21.794,0,0,0-.474-2.17l3.454-.317C130.8,1724.048,130.917,1724.867,131,1725.69Z" transform="translate(-50.254 -1723.018)" fill="#3d93ab"/>
      <path id="Path_37985" data-name="Path 37985" d="M126.481,1728v-4.736h2.571V1728h.975v-1.035h1.067V1724.4h4.8v-1.242h2.75v1.242h4.8v2.566h.98v2.911h-.98v2.672h-4.888v.823h5.229v4.971h-5.661c-.156.289-.317.556-.455.818h6.756v2.382H141.67a9.742,9.742,0,0,1-1.292,2.088c1.32.428,2.658.9,4.047,1.43l-1.527,2.483a48,48,0,0,0-4.659-2.087c-.092.055-.156.106-.248.161a19.264,19.264,0,0,1-7.6,1.826l-.819-2.382a23.041,23.041,0,0,0,5.753-.635c-1.228-.4-2.5-.768-3.794-1.136a18.665,18.665,0,0,0,1.568-1.747h-3.072v-2.382h4.843c.184-.262.34-.557.524-.818h-4.571v-2.566l-.8,1.531c-.317-.58-.635-1.108-.975-1.637v11.957h-2.571v-10.187a33.143,33.143,0,0,1-1.706,4.208l-1.044-4.235a21.246,21.246,0,0,0,2.5-6.613h-2.253V1728Zm9.5,4.548h-4.888v-2.672h-.635v.924h-1.407v1.481a22.407,22.407,0,0,1,1.771,1.642v-.552h5.16Zm.161,2.911h-2.658v.818h2.658Zm0-8.071v-.924h-2.479v.924Zm0,2.17h-2.479v.929h2.479Zm0,11.985c-.179.262-.363.5-.524.712l2.387.635a5.718,5.718,0,0,0,1.095-1.348Zm2.23-14.155h2.479v-.924h-2.479Zm2.479,2.17h-2.479v.929h2.479Zm.271,5.9h-2.75v.818h2.75Z" transform="translate(-32.491 -1723.161)" fill="#3d93ab"/>
      <path id="Path_37986" data-name="Path 37986" d="M132.168,1727.75v-4.337h2.658v4.337h2.414v3.017h-2.414v1.931a21.113,21.113,0,0,1,2.594,2.911l-1.614,2.911c-.294-.685-.616-1.375-.98-2.037V1747.2h-2.658v-10.693a32.05,32.05,0,0,1-2.571,6.14l-.975-4.024a24.074,24.074,0,0,0,3.182-7.855h-2.3v-3.017Zm17.236-1.426a33.617,33.617,0,0,1-8.986,1.214v2.809h8.526v2.484a20.526,20.526,0,0,1-2.4,8.677,16.426,16.426,0,0,0,3.564,2.778l-1.95,2.911a28.945,28.945,0,0,1-3.55-3.256,23.994,23.994,0,0,1-4.093,3.256l-1.683-2.515a17.958,17.958,0,0,1-1.159,2.722l-2.295-2.272c1.522-2.805,2.295-6.613,2.295-11.372v-9a30.045,30.045,0,0,0,10.573-1.563Zm-6.6,15.291a2.63,2.63,0,0,1-.271-.451,20.376,20.376,0,0,1-2.115-7.275,38.235,38.235,0,0,1-1.43,10.343,14.054,14.054,0,0,0,3.812-2.616Zm1.821-2.46a15.747,15.747,0,0,0,1.412-6.034h-3.21a15.842,15.842,0,0,0,1.8,6.035Z" transform="translate(-14.889 -1723.018)" fill="#3d93ab"/>
    </g>
    <g id="Group_6152" data-name="Group 6152" transform="translate(98.368 7705.712)" style="mix-blend-mode: multiply;isolation: isolate">
      <g id="Group_6151" data-name="Group 6151">
        <path id="Path_38029" data-name="Path 38029" d="M103.784,1734.55h1.886a.656.656,0,0,1,.658.648v2.047a.655.655,0,0,1-.658.648h-1.886a.656.656,0,0,1-.662-.648V1735.2a.657.657,0,0,1,.662-.648Zm-19.329,34.082h0l18.193-23.978-.055-.051c-1.007-.911-1.292-2.341-.874-2.672.12-.092.4.778,1.283,1.246a2.86,2.86,0,0,0,.832.289l.51-.515.179-.175.175.175.432.436a2.586,2.586,0,0,0,.865-.491,1.878,1.878,0,0,0-.469-3.123,7.029,7.029,0,0,1-1.136-.533.873.873,0,0,1-.464-.685h1.743a1.3,1.3,0,0,0,.662-.179,3.559,3.559,0,0,1,2.221,2.014,3.682,3.682,0,0,1-.216,3.224,3.641,3.641,0,0,1-1.541,1.439l17.793,23.578h.037v5.758H84.455v-5.758Zm.694,0h38.74L106.3,1745.256a3.97,3.97,0,0,1-3.251-.312l-17.9,23.688Zm19.4-25.132-.023-.027-.032.032h.055Zm16.22,26.309a1.713,1.713,0,1,0,1.217.492,1.7,1.7,0,0,0-1.217-.492Zm-16.128,0a1.7,1.7,0,1,0,1.729,1.7,1.7,1.7,0,0,0-1.729-1.7Zm-8.186,0a1.713,1.713,0,1,0,1.217.492,1.7,1.7,0,0,0-1.217-.492Zm-7.947,0a1.716,1.716,0,1,0,1.219.49,1.7,1.7,0,0,0-1.219-.49Zm24.318,0a1.7,1.7,0,1,0,1.729,1.7,1.7,1.7,0,0,0-1.729-1.7Zm-7.326-40.892v4.976h-1.55v-4.976Z" transform="translate(-83.301 -1728.341)" fill="#717071" fill-rule="evenodd"/>
        <path id="Path_38030" data-name="Path 38030" d="M126.1,1775.409H84.783v-5.757H84.2l.579-.768v-.381h.29l17.724-23.362a3.6,3.6,0,0,1-.938-2.291,1.156,1.156,0,0,1,.4-.925l.2-.156.276.032a.9.9,0,0,1,.575.46,2.458,2.458,0,0,0,.865.856,2.128,2.128,0,0,0,.382.157l.865-.86.745.74a2.168,2.168,0,0,0,.363-.249,1.481,1.481,0,0,0,.4-1.287,1.2,1.2,0,0,0-.713-.869,7.192,7.192,0,0,1-1.237-.584,1.441,1.441,0,0,1-.722-1.141l-.009-.189a1.223,1.223,0,0,1-.8-1.14v-2.047a1.223,1.223,0,0,1,.828-1.154v-5.7h2.7v5.7a1.223,1.223,0,0,1,.828,1.154v2.047a1.179,1.179,0,0,1-.2.667l.175.082a3.781,3.781,0,0,1,2.207,2.171,4.212,4.212,0,0,1-1.444,5.049L125.78,1768.5h.28l.028.413.556.736H126.1Zm-40.171-1.149H124.95v-4.608H85.933ZM87.2,1768.5h36.436l-16.661-22.139a4.456,4.456,0,0,1-2.856-.239Zm16.845-23.726.207.129a3.35,3.35,0,0,0,2.764.253l.419-.175a3.032,3.032,0,0,0,1.3-1.209,3.123,3.123,0,0,0,.184-2.719,2.688,2.688,0,0,0-1.642-1.573l-.055-.027a1.856,1.856,0,0,1-.658.115h-.207l.147.06.143.06a2.34,2.34,0,0,1,1.393,1.688,2.618,2.618,0,0,1-.731,2.359,3.349,3.349,0,0,1-.759.506l.253.258-1.886.032h-1l.2-.189a4.054,4.054,0,0,1-.487-.2c-.106-.06-.207-.124-.3-.189a2.986,2.986,0,0,0,.543.671Zm.635-9.2a.083.083,0,0,0-.087.073v2.047l1.973.073.083-2.12Zm.74-1.8h.4v-3.831h-.4Zm16.243,40.46a2.274,2.274,0,1,1,2.3-2.277,2.274,2.274,0,0,1-2.3,2.277Zm0-3.4a1.125,1.125,0,1,0,1.154,1.122,1.14,1.14,0,0,0-1.15-1.125Zm-7.947,3.4a2.294,2.294,0,1,1,1.628-.663,2.274,2.274,0,0,1-1.628.663Zm0-3.4a1.125,1.125,0,1,0,1.159,1.122,1.139,1.139,0,0,0-1.154-1.125Zm-8.181,3.4a2.274,2.274,0,1,1,2.3-2.277,2.274,2.274,0,0,1-2.3,2.277Zm0-3.4a1.125,1.125,0,1,0,1.154,1.122,1.144,1.144,0,0,0-1.15-1.125Zm-8.186,3.4a2.274,2.274,0,1,1,2.3-2.277,2.274,2.274,0,0,1-2.3,2.277Zm0-3.4a1.125,1.125,0,1,0,1.154,1.122,1.14,1.14,0,0,0-1.149-1.125Zm-7.947,3.4a2.274,2.274,0,1,1,2.309-2.277,2.274,2.274,0,0,1-2.309,2.277Zm0-3.4a1.125,1.125,0,1,0,1.159,1.122,1.143,1.143,0,0,0-1.154-1.125Z" transform="translate(-84.204 -1728.792)" fill="#717071"/>
      </g>
    </g>
  </g>
</svg>
