<svg id="section3_subtitle_lg" xmlns="http://www.w3.org/2000/svg" width="838.88" height="67.691" viewBox="0 0 838.88 67.691">
  <g id="Group_131" data-name="Group 131">
    <g id="Group_130" data-name="Group 130">
      <path id="Path_595" data-name="Path 595" d="M122.324,645.058v-5.7h9.114v5.7h20.485v8.27H131.438v4.835h25.206v8.632H145.4a41.2,41.2,0,0,1-3.79,7.1h11.905v8.338H131.438v5.41h23.615v8.275H131.438v10.831h-9.114V695.917H98.45v-8.275h23.873v-5.41H99.978v-8.338H111.82a75.141,75.141,0,0,0-3.79-7.1H96.584v-8.632h25.74v-4.835H101.31v-8.27Zm9.981,28.835a41.2,41.2,0,0,0,3.79-7.1H117.471c1.263,2.343,2.458,4.755,3.6,7.1Z" transform="translate(-96.584 -639.056)" fill="#fff"/>
      <path id="Path_596" data-name="Path 596" d="M126.172,650.981h4.657v6a54.509,54.509,0,0,1-5.123,12.146,73.3,73.3,0,0,1,5.852,6.294v-3.3h37.179v33.148h-8.31v-2.337h-20.56v2.337h-8.31V679.592l-3.325,5.927a79.054,79.054,0,0,0-3.658-7.1v26.561h-7.782V681.86q-2.395,2.955-4.991,5.708l-3.859-9.729c6.92-5.565,11.641-12,14.237-19.469H110.011v-7.391h7.977c-.6-3.072-1.327-6.22-2.263-9.441l8.051-2.045A101.275,101.275,0,0,1,126.172,650.981Zm43.1-9.728v7.1H131.094v-7.1Zm-2.332,9.952v17.487H133.419V651.2Zm-20.548,32.924v-4.9h-6.524v4.9Zm0,11.7v-4.9h-6.524v4.9Zm12.433-37.753H141.471v3.733h17.355Zm-4.922,26.05h6.524v-4.9H153.9Zm6.524,11.7v-4.9H153.9v4.9Z" transform="translate(-42.705 -638.392)" fill="#fff"/>
      <path id="Path_597" data-name="Path 597" d="M135.107,639.737c-.27,3.8-.6,7.609-1,11.486h12.175c.132,14.489-1.665,25.975-5.324,34.463,2.659,2.2,4.991,4.319,7.115,6.369l-5.45,9.143a64.973,64.973,0,0,0-6.053-7.167,56.615,56.615,0,0,1-10.578,11.779l-6.248-7.759a34.779,34.779,0,0,0,10.509-10.021c-3-2.493-6.254-4.9-9.711-7.391,1.861-7.242,3.256-14.265,4.319-21.145h-4.589v-8.27h5.657c.4-4.02.729-7.977.861-11.779Zm2.929,19.756h-4.991q-1.4,8.778-3.394,18c1.6,1.028,3.061,2.056,4.456,3C136.239,674.935,137.571,667.981,138.036,659.493Zm39.9-17.194v7.759a68.558,68.558,0,0,1-9.838,14.7v3h11.968v8.855H168.1V698.05c-.138,4.979-4,7.466-11.445,7.466h-5.72l-1.258-9.148c4.319.218,6.914.3,7.776.3,1.332,0,2.062-1.028,2.062-3.153v-16.9H146.283v-8.855h13.232v-7.977a43.094,43.094,0,0,0,7.184-8.563H147.541V642.3Z" transform="translate(13.266 -638.634)" fill="#fff"/>
      <path id="Path_598" data-name="Path 598" d="M176.516,701.707H167.4v-6H141.927v6h-9.108v-61.46h43.7ZM167.4,663.069V649.4H141.927v13.674Zm0,23.787V671.925H141.927v14.931Z" transform="translate(75.274 -634.826)" fill="#fff"/>
      <path id="Path_599" data-name="Path 599" d="M197.067,640.043v8.046l-16.959,15.948h22.144v9.149H178.845v20.341c0,3.072-.867,5.272-2.464,6.736a10.842,10.842,0,0,1-7.115,2.119H157.028l-1.263-10.021c5.324.437,8.58.586,9.843.586,2.395,0,3.658-1.321,3.658-4.031V673.185H143v-9.149h26.268v-2.262l13.5-13.169H149.78v-8.562Z" transform="translate(123.552 -635.793)" fill="#fff"/>
      <path id="Path_600" data-name="Path 600" d="M156.987,657.094V644.069H168.76v13.025Z" transform="translate(189.9 -616.699)" fill="#fff"/>
      <path id="Path_601" data-name="Path 601" d="M208.086,674.14a55.9,55.9,0,0,1-8.517,13.829c6.185,3.8,13.967,6.581,23.345,8.488l-4.721,9.728a78.263,78.263,0,0,1-25.01-11.853c-.132,0-.2-.069-.2-.149-7.184,5.272-15.9,9.223-26.21,12l-4.187-9.441A62.546,62.546,0,0,0,186,688.479c.069,0,.138-.074.2-.149a77.722,77.722,0,0,1-10.308-13.318l6.719-4.02a58.685,58.685,0,0,0,10.107,11.922,45.069,45.069,0,0,0,8.115-13.312ZM186.8,661.551a60.208,60.208,0,0,1-17.958,17.487l-4.657-8.046a63.031,63.031,0,0,0,16.092-14.271Zm11.239-13.972h22.748v8.264H164.452v-8.264h23.477c-.528-1.981-1.195-3.957-1.93-6l9.843-2.274A59.606,59.606,0,0,1,198.042,647.579Zm23.81,24.579-7.518,6.294q-5.582-7.9-16.361-16.9l6.983-5.123A109.664,109.664,0,0,1,221.852,672.158Z" transform="translate(216.479 -639.303)" fill="#fff"/>
      <path id="Path_602" data-name="Path 602" d="M192.616,642.023a100.916,100.916,0,0,1-7.316,15.511l-.063.149c1.93-.293,3.721-.586,5.45-.948q2.6-4.393,4.79-9.005l6.719,4.537a131.7,131.7,0,0,1-15.431,22.61c2.527-.293,5.054-.729,7.713-1.24-.528-1.981-1.062-3.882-1.591-5.634l5.72-1.683a120.949,120.949,0,0,1,4.652,14.558l-6.782,2.561c-.2-1.1-.4-2.2-.6-3.291q-10.079,2.524-20.158,4.164l-1.327-8.557c1.194,0,2.326,0,3.526-.069,2.659-3.365,5.186-6.88,7.512-10.395q-4.686.775-9.975,1.321l-1.332-8.051c.936,0,1.8-.075,2.665-.144,3.193-4.973,5.651-11.267,7.512-19.026Zm-9.378,44.565a159.5,159.5,0,0,1-1.263,18.3L174.394,704a113.631,113.631,0,0,0,2.395-18Zm9.912,15.729-7.316,1.1q-.1-7.908-1-17.125l6.185-.586C191.818,690.39,192.553,695.88,193.15,702.318Zm10.107-3.434-6.782,2.556a107.617,107.617,0,0,0-3.859-15.73l5.72-1.683A121.926,121.926,0,0,1,203.258,698.884Zm18.957-58.9c3.991,9.51,8.844,17.194,14.564,23.2l-4.457,9.436c-1.861-2.188-3.589-4.462-5.186-6.725v4.382h-19.75v-3.434c-1.332,1.752-2.734,3.365-4.129,4.9L198.87,662.3c5.651-5.123,10.308-12.514,14.036-22.317h9.309Zm10.107,65.779h-8.046v-4.02H211.837v3.727h-8.046v-30h28.531ZM224.742,662.3a86.354,86.354,0,0,1-7.179-13.754,71.107,71.107,0,0,1-6.92,13.754Zm-.465,31.459V683.441H211.837v10.314Z" transform="translate(271.179 -638.876)" fill="#fff"/>
      <path id="Path_603" data-name="Path 603" d="M240.869,639.851v12.588h6.518v7.977h-6.518V673.3H211.006a31.56,31.56,0,0,1-2.332,3.652,7.58,7.58,0,0,0-.666.885h34.922v26.044h-8.58v-3.147h-26.2v3.147h-8.58V686.391a42.011,42.011,0,0,1-9.114,5.708l-4.922-8.562a31.08,31.08,0,0,0,14.633-10.24h-8.913v-7.759h13.9a48.064,48.064,0,0,0,2-5.122H187.328v-7.977h21.949c.264-1.539.6-3.147.861-4.9H192.779v-7.684Zm-6.518,53.122v-7.385h-26.2v7.385Zm-19.623-27.434h17.562v-5.122H216.525C215.928,662.248,215.325,663.931,214.728,665.539Zm3.79-13.1h13.771v-4.9H219.454C219.184,649.292,218.851,650.9,218.518,652.439Z" transform="translate(325.281 -636.704)" fill="#fff"/>
      <path id="Path_604" data-name="Path 604" d="M251.226,663.354v22.9h-44.7v6.811c0,1.608.93,2.338,2.86,2.338h34.584c1.062,0,1.866-1.166,2.263-3.658,0,0,.2-1.608.6-4.9l9.843,2.263c-1.332,6.811-2.86,10.98-4.457,12.663-1.194,1.24-3.52,1.906-6.983,1.906h-37.38c-6.782,0-10.107-3-10.107-8.855V663.354Zm-3.394-23.707v19.974H201.073V639.648Zm-27.8,31.465h-13.5V678.5h13.5Zm19.02-23.781H209.917v4.606h29.134Zm3.325,23.781h-13.5V678.5h13.5Z" transform="translate(383.225 -637.667)" fill="#fff"/>
      <path id="Path_605" data-name="Path 605" d="M261.886,648.5a283.731,283.731,0,0,1-34.584,4.244v9.8h36.111v8.275H253.306v23.414h12.968V702.5h-57.13v-8.264h9.108V644.478a230.658,230.658,0,0,0,39.712-4.83Zm-17.43,45.736V670.82H227.3v23.414Z" transform="translate(437.27 -637.667)" fill="#fff"/>
      <path id="Path_606" data-name="Path 606" d="M235.589,687.725a115.381,115.381,0,0,0,13.771-3.951l.528,9.148a219.424,219.424,0,0,1-28.6,8.046l-.8-10.314q3.394-.439,6.782-1.1V639.8h8.316v18.877h12.968v8.27H235.589Zm43.365-32.487c-5.915,7.54-12.3,13.094-19.221,16.683v14.415c0,2.492.27,4.1.867,4.973.8.878,2.458,1.321,4.853,1.321h3.13a2.769,2.769,0,0,0,2.659-1.39c.6-1.539,1-7.1,1.263-16.614l8.58,4.319c-.8,9.366-1.93,15.437-3.256,18.291-1.666,3-4.393,4.537-8.184,4.537h-6.92c-4.985,0-8.109-1.022-9.309-3q-2-3.067-1.993-10.1V639.8h8.31v21.731q6.685-4.393,12.772-13.168Z" transform="translate(491.092 -636.941)" fill="#fff"/>
      <path id="Path_607" data-name="Path 607" d="M243.384,644.478c-.132,3.216-.333,6.219-.534,9.148h2.6V640.159h8.046v13.467h4.657V661.6h-4.657v11.635c1.8-.586,3.6-1.172,5.456-1.907v3.44h20.02v-5.117H258.683V661.3h12.5v-6.512h-10.7V646.74h10.7v-7.385H279.5v7.385h11.641v8.052H279.5V661.3h13.967v8.344h-6.185v5.117h6.185v8.27h-6.185v16.028c0,4.755-2.2,7.167-6.518,7.167h-8.85l-1.528-9.441c4.255.442,6.587.591,6.983.591,1.068,0,1.6-.666,1.6-2.056v-12.29H258.149v-2.487c-1.6.729-3.193,1.39-4.657,1.975v24.224h-8.046V685.671c-3.859,1.465-7.581,2.636-11.176,3.658l-2.326-10.538c4.255-.735,8.712-1.751,13.5-3.072V661.6h-3.394c-.465,3.583-.994,6.948-1.528,10.021l-8.115-2.556c1.6-6.219,2.728-14.782,3.394-25.757Zm29.863,50.267-7.581,4.026a59.04,59.04,0,0,0-6.185-12l6.714-2.562A63.707,63.707,0,0,1,273.247,694.745Z" transform="translate(545.412 -639.056)" fill="#fff"/>
    </g>
  </g>
</svg>
