<?xml version="1.0" encoding="utf-8"?>
<!-- Generator: Adobe Illustrator 22.1.0, SVG Export Plug-In . SVG Version: 6.00 Build 0)  -->
<svg version="1.1" id="圖層_1" xmlns="http://www.w3.org/2000/svg" xmlns:xlink="http://www.w3.org/1999/xlink" x="0px" y="0px"
	 viewBox="0 0 240 240" style="enable-background:new 0 0 240 240;" xml:space="preserve">
<style type="text/css">
	.st0{fill:#FFFFFF;}
	.st1{fill:#72ADB6;}
</style>
<g id="section7_imgicon5" transform="translate(-4084 -13179)">
	<g id="字" transform="translate(4084.34 13021.427)">
		<circle id="Ellipse_346" class="st0" cx="119.7" cy="277.6" r="119"/>
		<g id="Group_6285" transform="translate(368.799 595.357)">
			<g id="Group_6284">
				<path id="Path_41636" class="st1" d="M-324.9-375.7v5.1h11.1v4.2h-11.1v9.9h-3.7v-23.4h15.2v4.2L-324.9-375.7z"/>
				<path id="Path_41637" class="st1" d="M-301.6-375.7v19.2h-3.8v-19.2h-6.2v-4.2h16.2v4.2L-301.6-375.7z"/>
				<path id="Path_41638" class="st1" d="M-284.2-375.7v19.2h-3.8v-19.2h-6.2v-4.2h16.2v4.2L-284.2-375.7z"/>
				<path id="Path_41639" class="st1" d="M-263.7-356.5v-10h-8.1v10h-3.8v-23.4h3.8v9.2h8.1v-9.2h3.8v23.4L-263.7-356.5z"/>
				<path id="Path_41640" class="st1" d="M-244.4-381.4v9.9h9.2v3.2h-6.9v7.6c0,0.7,0.2,1,0.5,1.1c0.5,0.2,1,0.3,1.6,0.3
					c0.4,0,0.9,0,1.3-0.1c0.3-0.1,0.5-0.2,0.6-0.4c0.3-1,0.4-2.1,0.4-3.2l2.8,1.5c-0.1,1.3-0.3,2.5-0.6,3.7
					c-0.1,0.7-0.6,1.2-1.3,1.4c-1.1,0.2-2.2,0.3-3.2,0.3c-1,0.1-2,0-2.9-0.3c-1.4-0.1-2.1-1.2-2.1-3.1v-8.8h-3.3
					c-0.2,2.8-0.9,5.6-2.1,8.2c-1.1,2.1-3,3.7-5.2,4.6l-1.2-3.3c1.8-0.7,3.3-2.1,4.2-3.8c0.8-1.8,1.3-3.8,1.5-5.8h-5.2v-3.2h9.1
					v-9.9L-244.4-381.4z M-249-374l-2.8,1.9c-0.7-2-1.7-3.8-2.9-5.5l2.6-1.9C-250.8-377.8-249.8-375.9-249-374L-249-374z
					 M-236.8-377.3c-0.9,1.9-2.1,3.7-3.5,5.4l-2.3-2.4c1.3-1.5,2.4-3.1,3.2-4.8L-236.8-377.3z"/>
				<path id="Path_41641" class="st1" d="M-227.2-380.3c-0.8,1.8-1.5,3.3-2.2,4.5c0.2,0.2,0.4,0.4,0.6,0.6c0.4-1,0.8-2,1.1-2.9
					l2.4,1.2c-1.1,2.6-2.1,4.9-3.1,6.8c0.4-0.1,0.8-0.1,1.1-0.1c-0.1-0.5-0.1-0.9-0.2-1.3l1.9-0.7c0.4,1.6,0.7,3.2,0.9,4.8l-2.1,0.8
					c-0.1-0.3-0.1-0.7-0.1-1c-0.2,0.1-0.4,0.1-0.6,0.1v11.9h-2.3V-367c-0.9,0.2-1.7,0.3-2.6,0.4l-0.5-3.1c0.5,0,1-0.1,1.5-0.1
					c0.5-1,1-1.9,1.4-2.9c-0.9-1-1.9-1.9-2.9-3l1.3-1.9c0.1,0.1,0.2,0.2,0.3,0.3c0.7-1.3,1.2-2.7,1.7-4.1L-227.2-380.3z
					 M-229.8-364.8c-0.3,2.7-0.5,4.9-0.8,6.8l-2.1-0.7c0.3-2.2,0.6-4.4,0.8-6.6L-229.8-364.8z M-224.6-360.5l-2.1,0.8
					c-0.1-1.9-0.3-3.8-0.6-5.4l1.9-0.7C-225.1-364.2-224.8-362.4-224.6-360.5L-224.6-360.5z M-221.4-381c-0.1,0.8-0.2,1.6-0.3,2.2
					c0.1,0.2,0.1,0.4,0.3,0.5c0.3,0.4,0.6,0.8,1.1,1.1l-1.4,2.1c-0.3-0.3-0.5-0.6-0.7-0.9c-0.3,0.8-0.6,1.5-1.1,2.2h3.6l-1.2-1.1
					c0.4-0.9,0.7-1.9,1-2.8c0.2-1.2,0.4-2.4,0.5-3.6l2.3,0.1c-0.1,0.8-0.1,1.5-0.3,2.1c0.1,0.5,0.3,1.1,0.6,1.6
					c0.2,0.5,0.6,1,0.9,1.4c0-1.7-0.1-3.5-0.1-5.3h2.5c0,2.9,0,5.4,0.1,7.6h2.9v2.7h-2.8c0.1,1.6,0.1,3.1,0.2,4.3c0.2-1,0.4-2,0.5-3
					l2.1,0.5c-0.3,2.7-1,5.4-2,7.9l-0.1,0.2c0,0.2,0.1,0.4,0.1,0.5c0.1,0.9,0.2,1.4,0.4,1.4c0,0,0.1-0.1,0.1-0.3
					c0.1-0.7,0.2-1.3,0.2-2l1.9,0.8c-0.2,2.4-0.5,3.8-0.9,4.4c-0.3,0.4-0.8,0.6-1.3,0.6c-0.7,0-1.3-0.5-1.7-1.5
					c-0.1-0.3-0.2-0.6-0.3-0.9c-0.6,1-1.2,1.9-1.9,2.8l-1.7-1.9c0.2-0.3,0.4-0.5,0.6-0.8c-2.3,0.3-4.8,0.6-7.4,0.9l-0.4-2.7
					c0.8-0.1,1.5-0.1,2.2-0.2v-1.5h-1.5v-2.6h1.5v-0.6h-1.5v-2.6h1.5v-0.4h-1.5v-2.6h1.5v-0.9h-2v-2.7h1.1l-1.5-1.4
					c0.5-0.8,0.9-1.7,1.1-2.7c0.3-1.1,0.5-2.2,0.6-3.4L-221.4-381z M-220.1-360.1V-371h-0.6v10.9
					C-220.5-360.1-220.3-360.1-220.1-360.1L-220.1-360.1z M-217.4-373.7c-0.4-0.6-0.8-1.1-1.1-1.8v0c-0.2,0.6-0.4,1.2-0.7,1.8
					L-217.4-373.7z M-215.1-361.7c-0.1-0.8-0.2-1.6-0.3-2.6c-0.2-1.9-0.4-4.1-0.5-6.8h-1.9v0.8h1.7v2.6h-1.7v0.5h1.7v2.6h-1.7v0.6
					h1.7v2.6h-1.7v1c0.6-0.1,1.1-0.1,1.6-0.2l0.1,0.9C-215.8-360.4-215.4-361-215.1-361.7L-215.1-361.7z M-216.1-375l-0.8,1.3h0.9
					C-216-374.2-216.1-374.6-216.1-375L-216.1-375z M-210.3-375.9l-2.2,1.1c-0.2-1.3-0.5-2.6-0.9-3.8l1.9-1
					C-211-378.4-210.6-377.1-210.3-375.9L-210.3-375.9z"/>
				<path id="Path_41642" class="st1" d="M-200.4-380.4c-0.5,1.8-1.1,3.7-1.8,5.4v19.4h-2.8V-369c-0.5,0.9-1.1,1.8-1.6,2.6l-1.5-3.4
					c2.3-3.6,3.9-7.5,5-11.6L-200.4-380.4z M-191.6-378.7l-1.2,1.8h6.3v3.1h-5.9v5.2h5v3.1h-5v6.2h6.3v3.1h-15.3v-3.1h6.3v-6.2h-5
					v-3.1h5v-5.2h-6v-3.1h6.6c-0.8-0.8-1.6-1.5-2.4-2.2l2-2.5C-193.8-380.7-192.6-379.8-191.6-378.7L-191.6-378.7z"/>
				<path id="Path_41643" class="st1" d="M-171.3-381.4v2.2h9v6.4h-2.9v-3.2h-15.3v2.9h-2.9v-6h9v-2.2H-171.3z M-165.3-371.8
					c-2.3,0.5-4.7,0.9-7.2,1.3v3.1l9.6-0.8l0.3,3.3l-9.9,0.8v3.9c0,0.8,0.5,1.1,1.5,1.1c0.6,0.1,1.2,0.1,1.8,0.1c1,0.1,2,0,2.9-0.2
					c0.3-0.2,0.6-0.6,0.6-1c0.2-0.9,0.3-1.7,0.3-2.6l2.8,1.9c-0.2,2.3-0.6,3.7-1.1,4.3c-0.5,0.3-1,0.5-1.6,0.6
					c-1.3,0.2-2.5,0.3-3.8,0.2c-0.9,0-1.8,0-2.7-0.1c-2.2-0.1-3.4-1.1-3.4-3.1v-4.8l-7.3,0.6l-0.5-3.2l7.8-0.7v-2.9
					c-1.6,0.2-3.1,0.4-4.8,0.5l-0.9-3.1c4.9-0.4,9.7-1,14.5-1.9L-165.3-371.8z"/>
			</g>
		</g>
		<rect id="Rectangle_80" x="33.5" y="255.7" class="st1" width="172.5" height="1.8"/>
		<g id="Group_6286" transform="translate(369.388 655.046)">
			<path id="Path_41644" class="st1" d="M-324.3-380c0,0.1-0.1,0.2-0.2,0.3c-0.1,0-0.2,0.1-0.2,0.4v10.5c1.5-0.5,2.9-1.1,4.3-1.8
				c0,0,0.1-0.1,0.1-0.1c0.1,0,0.1,0.1,0.1,0.2c0,0.4,0,0.7-0.1,1.1c-2.4,1.1-4.8,2.1-7.3,3c-0.2,0.4-0.4,0.6-0.5,0.6
				c-0.1,0-0.4-0.6-0.8-1.7c0.9-0.2,1.8-0.5,2.6-0.8V-380c0-0.2,0.1-0.2,0.3-0.2C-324.7-380.2-324.3-380.1-324.3-380z M-314-380.6
				c0,0.1-0.1,0.2-0.2,0.3c-0.1,0.1-0.2,0.2-0.2,0.4c0,2.4-0.2,4.8-0.5,7.2c-0.2,1.1-0.5,2.2-0.9,3.2c-0.1,0.1-0.1,0.3-0.2,0.4
				c0.9,0.6,1.6,1.1,2.2,1.5c0.8,0.7,1.5,1.3,2.1,1.8l-0.1,0.2c-0.4,0.6-0.6,0.8-0.6,0.8c-0.9-0.9-1.8-1.6-2.8-2.4
				c-0.6-0.4-1-0.7-1.4-0.9c-0.3,0.4-0.6,0.7-0.9,1c-1.4,1.2-3,1.9-4.8,2.2c-0.1,0-0.2-0.1-0.3-0.2c-0.2-0.3-0.3-0.5-0.6-0.8
				c-0.1-0.1-0.1-0.2-0.1-0.3c1.2-0.2,2.3-0.5,3.3-1c0.8-0.4,1.6-1,2.2-1.7c0.6-0.9,1-1.8,1.3-2.8c0.4-1.6,0.6-3.3,0.6-5
				c0-1.3,0.1-2.6,0.1-4c0-0.2,0-0.2,0.1-0.2C-315.2-380.9-314.6-380.8-314-380.6z M-319.6-376.8c0.6,0.7,1.2,1.4,1.6,1.9
				c0,0,0,0.1-0.1,0.2c-0.4,0.6-0.6,0.9-0.6,0.9c-0.7-0.9-1.4-1.7-2.2-2.5c-0.5-0.5-1-0.9-1.6-1.3c0.2-0.3,0.4-0.6,0.6-0.9
				c0.1-0.1,0.1-0.1,0.2-0.1C-320.9-378.1-320.2-377.4-319.6-376.8L-319.6-376.8z"/>
			<path id="Path_41645" class="st1" d="M-298.7-380.7c0,0.2-0.1,0.3-0.2,0.3c-0.1,0-0.2,0.2-0.2,0.4v5.5h7.1c0.1,0,0.2,0.1,0.2,0.2
				v0.7c0,0.2-0.1,0.3-0.2,0.3h-5.1v6.3c0,0.6,0.3,0.9,1.1,0.9h2.3c0.5,0,0.7-0.3,0.8-0.8c0.2-0.6,0.3-1.2,0.3-1.9
				c0.3,0.3,0.6,0.5,1,0.6c0.1,0,0.2,0.2,0.2,0.3c-0.1,0.7-0.3,1.4-0.6,2.1c-0.2,0.6-0.8,1-1.4,0.9h-3.4c-1.1,0-1.7-0.4-1.7-1.2
				v-7.2h-2.7c0,1-0.1,1.8-0.1,2.4c-0.1,0.8-0.3,1.5-0.5,2.2c-0.2,0.7-0.6,1.3-1.1,1.8c-0.5,0.6-1.2,1.1-1.9,1.4
				c-0.6,0.3-1.3,0.5-2.1,0.8c-0.1,0-0.2-0.1-0.2-0.2c-0.2-0.3-0.4-0.5-0.5-0.8c0-0.1-0.1-0.1-0.1-0.2c0.9-0.2,1.8-0.4,2.6-0.8
				c0.5-0.2,0.9-0.6,1.3-1c0.3-0.4,0.6-0.8,0.7-1.2c0.2-0.6,0.4-1.2,0.5-1.8c0.1-0.8,0.1-1.7,0.1-2.5h-5c-0.1,0-0.2-0.1-0.2-0.3
				v-0.7c0-0.1,0.1-0.2,0.2-0.2h6.9v-6.2c0-0.1,0.1-0.2,0.3-0.2C-299.2-380.9-298.7-380.9-298.7-380.7z M-305.4-379.9
				c1.1,1.1,2.1,2.4,3,3.7c0,0.2-0.1,0.3-0.1,0.3c-0.3,0.3-0.7,0.4-1.2,0.5c-0.9-1.4-1.8-2.7-2.9-3.9c0-0.1,0.3-0.3,0.9-0.6
				C-305.6-380-305.5-380-305.4-379.9L-305.4-379.9z M-292.8-379.6c0.2,0.1,0.3,0.2,0.3,0.3s-0.1,0.2-0.3,0.3
				c-0.2,0-0.4,0.1-0.5,0.3c-0.6,1.2-1.3,2.2-2.1,3.2c-0.2,0.2-0.3,0.3-0.4,0.3c-0.1,0-0.2-0.1-0.3-0.1c-0.3-0.1-0.5-0.2-0.8-0.4
				c-0.1,0-0.2-0.1-0.2-0.1c0-0.1,0.1-0.1,0.1-0.2c0.6-0.5,1.1-1.1,1.5-1.8c0.5-0.6,0.8-1.3,1.1-2c0.1-0.2,0.1-0.3,0.3-0.3
				L-292.8-379.6z"/>
			<path id="Path_41646" class="st1" d="M-285.5-370.4c0.1,0,0.2,0.1,0.1,0.2c0,0.1-0.1,0.2-0.4,0.4c-0.2,1.2-0.3,2.1-0.4,2.6
				c-0.1,0.5-0.3,1-0.4,1.5c-0.1,0-0.2,0-0.3-0.1c-0.2-0.1-0.4-0.2-0.6-0.2c-0.1,0-0.1-0.1-0.1-0.2c0-0.2,0.1-0.3,0.2-0.5
				c0.2-0.4,0.3-0.8,0.4-1.3c0.1-0.4,0.2-1,0.2-1.6c0-0.4,0.1-0.7,0.1-1.1c0,0,0-0.1,0.1-0.1L-285.5-370.4z M-283.1-380.5l0.1,0.2
				c0,0.1-0.1,0.2-0.3,0.2c-0.2,0-0.4,0.1-0.5,0.2c-0.6,0.9-1.2,1.7-1.7,2.4c0.4,0.4,0.7,0.7,1.1,1.1c0.5-0.8,1-1.6,1.3-2.3
				c0.4,0.3,0.8,0.7,1.1,1.1c0,0.1-0.1,0.1-0.2,0.1c-0.2,0-0.3,0.1-0.4,0.1c-0.8,1.4-1.6,2.7-2.4,3.9c0.5,0,1.1-0.1,1.8-0.1
				c-0.2-0.4-0.4-0.9-0.6-1.3c0-0.1,0.3-0.2,0.8-0.5c0.3,0.6,0.6,1.2,0.8,1.8c0.2,0.5,0.4,1,0.5,1.6c-0.3,0.1-0.7,0.2-1,0.3
				c0-0.4-0.1-0.8-0.3-1.1l-0.9,0.2v7.7c0,0.2-0.1,0.2-0.3,0.2h-0.7c-0.1,0-0.2-0.1-0.2-0.2v-7.5l-1.7,0.3c-0.1,0.2-0.3,0.3-0.5,0.4
				c-0.2-0.5-0.3-1-0.4-1.6c0.4-0.1,0.8-0.1,1.2-0.1c0.6-0.9,1.1-1.6,1.5-2.3c-0.6-0.5-1-0.9-1.3-1.1c-0.4-0.3-0.9-0.6-1.4-0.9
				c0-0.1,0.2-0.4,0.7-0.9c0-0.1,0.1-0.1,0.1-0.1c0.1,0.1,0.3,0.3,0.5,0.4c0.3-0.4,0.6-0.8,0.8-1.3c0.5-0.8,0.8-1.3,1-1.7
				L-283.1-380.5z M-282.5-370.6c0.1,0.8,0.4,2.2,0.6,4c0,0.1-0.3,0.2-1,0.3c-0.1,0-0.1-0.1-0.1-0.2c-0.1-1.2-0.2-2.5-0.4-3.9
				c0-0.1,0.3-0.2,0.9-0.3C-282.5-370.8-282.5-370.7-282.5-370.6z M-274.7-376.3c0-1.5,0.1-3,0.3-4.6c0-0.2,0.1-0.3,0.2-0.3l1.1,0.1
				c0.1,0,0.1,0.1,0.1,0.1c0,0.1-0.1,0.2-0.2,0.3c-0.2,0.1-0.3,0.3-0.3,0.4c-0.1,1.4-0.1,2.7-0.2,3.9h2.5c0.1,0,0.1,0.1,0.1,0.2v0.6
				c0,0.2-0.1,0.3-0.1,0.3h-2.5v0.4c0,1.2,0,2.4,0.2,3.6c0,0.5,0.1,1,0.2,1.4c0.1-0.5,0.3-1,0.4-1.6c0.2-0.9,0.4-1.8,0.5-2.7
				c0-0.2,0.1-0.2,0.1-0.2c0.9,0.3,1.4,0.6,1.4,0.7c0,0.1-0.1,0.2-0.1,0.2c-0.1,0-0.2,0.1-0.3,0.3c-0.2,1.2-0.5,2.3-0.8,3.4
				c-0.2,0.7-0.5,1.4-0.7,2c0.1,0.4,0.3,0.8,0.5,1.2c0.2,0.4,0.5,0.6,0.7,0.6c0.2-0.7,0.3-1.4,0.4-2.1c0-0.1,0-0.2,0.1-0.2
				c0.1,0,0.1,0,0.1,0.1l0.5,0.4c0.1,0.1,0.2,0.2,0.2,0.3c-0.1,0.9-0.4,1.8-0.8,2.6c-0.2,0.3-0.3,0.4-0.5,0.4
				c-0.3,0-0.5-0.1-0.7-0.3c-0.3-0.2-0.5-0.4-0.7-0.7c-0.2-0.3-0.4-0.6-0.5-0.9c-0.4,0.6-0.9,1.3-1.4,1.8c-0.1,0-0.1,0.1-0.2,0.1
				c-0.1,0-0.2-0.1-0.3-0.2c-0.1-0.2-0.3-0.3-0.4-0.5c-0.1,0-0.2-0.1-0.1-0.2c0-0.1,0-0.1,0.1-0.2c0.3-0.2,0.5-0.4,0.7-0.7
				c-1.9,0.3-3.8,0.6-5.7,0.9c-0.2,0.3-0.3,0.4-0.4,0.4c-0.1,0-0.3-0.5-0.6-1.4c0.6-0.1,1.3-0.1,2-0.2v-1.9h-1.5
				c-0.1,0-0.1-0.1-0.1-0.2v-0.6c0-0.1,0-0.2,0.1-0.2h1.5v-1.2h-1.5c-0.1,0-0.1-0.1-0.1-0.2v-0.6c0-0.1,0-0.2,0.1-0.2h1.5v-1.2h-1.4
				c-0.1,0-0.1-0.1-0.1-0.2v-0.6c0-0.1,0-0.2,0.1-0.2h1.4v-1.4h-1.9c-0.1,0-0.1-0.1-0.1-0.3v-0.6c0-0.1,0-0.2,0.1-0.2L-274.7-376.3z
				 M-278.7-380.6c0.1,0.1,0.2,0.1,0.2,0.2c0,0.1-0.1,0.2-0.1,0.2c-0.1,0-0.2,0.1-0.2,0.1c-0.1,0.4-0.2,0.7-0.3,0.9
				c0.1,0.2,0.2,0.4,0.4,0.6c0.2,0.3,0.5,0.5,0.8,0.8c0,0.1,0,0.2-0.1,0.2c-0.2,0.1-0.4,0.3-0.6,0.5l-0.1,0
				c-0.2-0.1-0.3-0.3-0.5-0.5c-0.1-0.2-0.2-0.3-0.3-0.5c-0.1,0.3-0.2,0.5-0.3,0.7c-0.2,0.3-0.4,0.6-0.6,0.8c-0.1,0-0.2,0-0.3,0
				c-0.2-0.1-0.4-0.1-0.6-0.2c-0.1,0-0.1-0.1-0.1-0.1l0-0.1c0.4-0.4,0.7-0.9,0.9-1.4c0.2-0.3,0.3-0.7,0.4-1c0.1-0.4,0.2-0.9,0.4-1.5
				c0-0.1,0-0.1,0.1-0.1L-278.7-380.6z M-278.7-366.6c0.3,0,0.5-0.1,0.8-0.1v-8.5h-0.9L-278.7-366.6L-278.7-366.6z M-275.7-380.6
				c0.1,0.1,0.2,0.1,0.2,0.2c0,0.1-0.1,0.2-0.1,0.2c-0.1,0-0.2,0.1-0.2,0.1c-0.1,0.4-0.2,0.8-0.3,1c0.1,0.3,0.3,0.5,0.5,0.7
				c0.2,0.3,0.5,0.6,0.8,0.9c0,0.1,0,0.2-0.1,0.2c-0.2,0.1-0.4,0.3-0.6,0.5c0,0-0.1,0-0.1,0c-0.2-0.2-0.4-0.3-0.5-0.5
				c-0.2-0.2-0.3-0.4-0.4-0.7c-0.1,0.2-0.2,0.5-0.3,0.6c-0.2,0.3-0.4,0.6-0.6,0.8c-0.1,0-0.2,0-0.3-0.1c-0.2-0.1-0.4-0.1-0.6-0.2
				c-0.1,0-0.1-0.1-0.1-0.1c0,0,0-0.1,0-0.1c0.4-0.4,0.7-0.9,0.9-1.4c0.2-0.3,0.3-0.7,0.4-1c0.1-0.4,0.2-0.9,0.4-1.5
				c0-0.1,0-0.1,0.1-0.1L-275.7-380.6z M-274-367.9c-0.2-0.9-0.4-1.8-0.5-2.7c-0.2-1.4-0.2-2.9-0.2-4.3v-0.4h-2.1v1.4h1.5
				c0.1,0,0.1,0.1,0.1,0.2v0.6c0,0.1-0.1,0.2-0.1,0.2h-1.5v1.2h1.5c0.1,0,0.1,0.1,0.1,0.2v0.6c0,0.1-0.1,0.2-0.1,0.2h-1.5v1.2h1.5
				c0.1,0,0.1,0.1,0.1,0.2v0.6c0,0.1-0.1,0.2-0.1,0.2h-1.5v1.4c0.5-0.1,1.1-0.2,1.5-0.3l0.1,0c0.1,0,0.1,0.1,0.1,0.1c0,0,0,0,0,0
				c0,0.2,0,0.5,0,0.7C-274.7-366.8-274.3-367.3-274-367.9L-274-367.9z M-271.3-378.6c0.2,0.4,0.3,0.8,0.5,1.2
				c-0.3,0.1-0.7,0.2-1,0.3c-0.1-0.3-0.2-0.6-0.3-1c-0.2-0.5-0.4-0.9-0.7-1.3c0-0.1,0.3-0.2,0.8-0.5
				C-271.8-379.5-271.5-379.1-271.3-378.6L-271.3-378.6z"/>
			<path id="Path_41647" class="st1" d="M-258.6-380.6c0.1,0,0.2,0.1,0.2,0.3v0.6c0,0.2-0.1,0.3-0.2,0.3h-1.1v14.7
				c0,0.2-0.1,0.2-0.3,0.2h-0.7c-0.2,0-0.3-0.1-0.3-0.2v-2.8c-0.3,0.1-0.6,0.1-0.8,0.2c-1.4,0.4-2.8,0.8-4.3,1.3
				c-0.1,0.3-0.2,0.5-0.4,0.5c-0.1,0-0.2,0-0.2-0.1l-0.5-1.7c0.2,0,0.6-0.1,1.2-0.2v-11.9h-0.8c-0.1,0-0.2-0.1-0.2-0.3v-0.6
				c0-0.2,0.1-0.3,0.2-0.3L-258.6-380.6z M-261-376.6v-2.9h-3.7v2.9H-261z M-261-372.5v-2.9h-3.7v2.9H-261z M-261.6-368.6
				c0.2,0,0.4-0.1,0.6-0.1v-2.6h-3.7v3.5C-263.8-368.1-262.8-368.3-261.6-368.6L-261.6-368.6z M-251.2-378.9c0.1,0,0.3,0,0.4,0.1
				c0.2,0.2,0.4,0.3,0.4,0.4c-0.2,1.4-0.4,2.6-0.5,3.5c-0.2,1-0.5,2-0.9,2.9c-0.2,0.7-0.5,1.4-0.9,2.1c-0.2,0.4-0.4,0.8-0.7,1.2
				c0.3,0.4,0.7,0.8,1.1,1.2c0.7,0.7,1.6,1.2,2.5,1.6c0,0.1-0.1,0.2-0.2,0.3c-0.2,0.2-0.4,0.5-0.6,0.8c-0.1,0.1-0.2,0.2-0.3,0.2
				c-0.9-0.5-1.7-1.1-2.5-1.8c-0.3-0.3-0.6-0.6-0.9-0.9c-0.4,0.4-0.8,0.9-1.2,1.2c-0.6,0.5-1.3,1-2.1,1.4c-0.1,0-0.2-0.1-0.3-0.2
				c-0.3-0.2-0.5-0.4-0.8-0.6c-0.1-0.1-0.1-0.1-0.1-0.2c0-0.1,0-0.1,0.1-0.2c0.8-0.4,1.6-0.9,2.3-1.4c0.5-0.4,0.9-0.8,1.3-1.3l0,0
				c-0.5-0.8-0.9-1.6-1.3-2.4c-0.4-1.1-0.7-2.2-0.9-3.4c-0.2-1.1-0.3-2.2-0.3-3.4h-1.1c-0.1,0-0.2-0.1-0.2-0.3v-0.6
				c0-0.2,0.1-0.3,0.2-0.3L-251.2-378.9z M-256.1-374.7c0.2,1,0.4,2,0.8,2.9c0.3,0.7,0.6,1.3,1,2c0.3-0.5,0.6-1,0.8-1.5
				c0.4-0.9,0.7-1.8,1-2.7c0.2-1,0.5-2.2,0.7-3.8h-4.5C-256.4-376.7-256.3-375.7-256.1-374.7L-256.1-374.7z"/>
			<path id="Path_41648" class="st1" d="M-240-380.6c0,0.1-0.1,0.1-0.1,0.1c-0.2,0-0.4,0.1-0.4,0.2c-0.5,1.2-1.1,2.4-1.9,3.5v12
				c0,0.1-0.1,0.2-0.3,0.2h-0.7c-0.2,0-0.3-0.1-0.3-0.2v-10.4c-0.5,0.6-1.2,1.3-2.2,2.2c-0.2,0-0.3-0.1-0.4-0.2
				c-0.2-0.1-0.4-0.3-0.6-0.5c-0.1,0-0.1-0.1-0.1-0.2c0.6-0.6,1.3-1.2,1.9-1.9c0.8-0.9,1.6-1.9,2.2-2.9c0.5-0.9,0.9-1.8,1.3-2.8
				c0-0.1,0.1-0.1,0.1-0.1C-240.5-381-240-380.7-240-380.6z M-230.2-376.3v0.7c0,0.2-0.1,0.3-0.2,0.3l-5.8,1c0.1,1,0.4,2,0.7,2.9
				c0.3,1,0.7,1.9,1.2,2.7c0.4,0.7,0.9,1.4,1.5,2c0.3,0.2,0.6,0.3,0.9,0.3c0.1,0,0.3-0.2,0.5-0.6c0.3-0.6,0.5-1.3,0.7-2
				c0.1,0,0.1,0.1,0.2,0.2c0.2,0.2,0.3,0.4,0.5,0.6c0.1,0.1,0.2,0.2,0.2,0.4c-0.2,0.7-0.5,1.4-0.9,2.1c-0.4,0.7-0.8,1.1-1.1,1.1
				c-0.2,0-0.4,0-0.7-0.1c-0.5-0.2-0.9-0.5-1.3-0.9c-0.6-0.6-1.2-1.3-1.6-2c-0.6-1-1-2-1.3-3.1c-0.3-1.1-0.5-2.2-0.7-3.3l-3.8,0.7
				c-0.1,0-0.2-0.1-0.2-0.3v-0.7c0-0.1,0.1-0.2,0.2-0.2l3.7-0.7c-0.1-1.4-0.3-3.2-0.3-5.4c0-0.2,0-0.2,0.1-0.2l1.2,0.1
				c0.2,0,0.3,0.1,0.3,0.2c0,0.1-0.1,0.2-0.1,0.3c-0.1,0.1-0.1,0.2-0.1,0.5c0,1.7,0,3.2,0.1,4.4l5.9-1.1
				C-230.2-376.6-230.2-376.5-230.2-376.3L-230.2-376.3z M-232.1-379.5c0.6,0.4,1.1,0.8,1.5,1.2l-0.1,0.2c-0.4,0.5-0.6,0.8-0.6,0.8
				c-0.7-0.5-1.4-1.1-2.1-1.5c-0.5-0.3-1-0.6-1.5-0.8c0.1-0.3,0.3-0.6,0.6-0.8c0.1-0.1,0.1-0.1,0.1-0.1
				C-233.4-380.3-232.8-379.9-232.1-379.5L-232.1-379.5z"/>
			<path id="Path_41649" class="st1" d="M-220.5-380.4c0,0.1-0.1,0.2-0.1,0.2c-0.2,0-0.3,0.1-0.4,0.2c-0.4,1.1-0.9,2.2-1.4,3.3v11.9
				c0,0.1-0.1,0.2-0.3,0.2h-0.7c-0.2,0-0.3-0.1-0.3-0.2v-9.9c-0.4,0.6-1,1.3-1.6,2.1c-0.1,0-0.3-0.1-0.4-0.2
				c-0.2-0.1-0.4-0.3-0.6-0.5c-0.1-0.1-0.1-0.2-0.1-0.3c0.5-0.6,1-1.2,1.6-1.9c0.7-0.9,1.3-1.9,1.8-3c0.4-0.9,0.8-1.9,1-2.8
				c0-0.1,0.1-0.1,0.1-0.1C-221.4-381-220.9-380.7-220.5-380.4z M-213.2-369.2L-213.2-369.2c0-0.3,0-0.6-0.1-0.9
				c-0.1-0.1-0.1-0.2-0.1-0.3c0-0.1,0.1-0.1,0.4-0.1l1.5,0.2c0.1,0.1,0.2,0.1,0.2,0.2c0,0.1-0.1,0.2-0.2,0.2
				c-0.2,0.1-0.3,0.4-0.3,0.9h2.4c0.1,0,0.2,0.1,0.2,0.3v0.6c0,0.2-0.1,0.3-0.2,0.3h-2.4v2.3c0,0.9-0.7,1.3-1.9,1.3h-1.1
				c-0.1,0-0.1-0.1-0.1-0.3c-0.1-0.3-0.2-0.6-0.3-0.8c0-0.1,0-0.2,0.1-0.2c0.5,0.1,0.9,0.1,1.4,0.2c0.5,0,0.8-0.2,0.8-0.6v-1.8h-7.2
				c-0.1,0-0.2-0.1-0.2-0.3v-0.6c0-0.2,0.1-0.3,0.2-0.3L-213.2-369.2z M-215.6-380.1v-1c0-0.1,0.1-0.2,0.3-0.2
				c0.9,0,1.4,0.1,1.4,0.2c0,0.2-0.1,0.3-0.2,0.3c-0.1,0-0.2,0.1-0.2,0.4v0.4h4.6c0.1,0,0.2,0.1,0.2,0.3v0.6c0,0.2-0.1,0.3-0.2,0.3
				h-4.6v1h3.9c0.2,0,0.3,0.1,0.3,0.2v4.8c0,0.2-0.1,0.2-0.3,0.2h-0.8c0.2,0.3,0.4,0.5,0.6,0.7c0.4,0.5,0.7,0.9,0.9,1.2l-0.1,0.1
				c-0.4,0.5-0.6,0.7-0.6,0.7c-0.2-0.3-0.5-0.6-0.7-0.9l-1.9,0.1c-2.2,0.1-4.5,0.3-6.8,0.5c-0.1,0.3-0.2,0.5-0.3,0.5
				c-0.1,0-0.1,0-0.2-0.1l-0.5-1.5c0.7,0,2.3-0.1,5-0.2v-1h-3.8c-0.2,0-0.3-0.1-0.3-0.2v-4.8c0-0.1,0.1-0.2,0.3-0.2h3.8v-1h-4.5
				c-0.1,0-0.2-0.1-0.2-0.3v-0.6c0-0.2,0.1-0.3,0.2-0.3L-215.6-380.1z M-217.3-366.7c0.3,0.3,0.6,0.6,0.9,0.8l-0.1,0.2
				c-0.4,0.5-0.6,0.7-0.6,0.7c-0.4-0.4-0.8-0.8-1.2-1.1c-0.3-0.2-0.6-0.4-0.8-0.6c0.1-0.3,0.3-0.5,0.5-0.7c0-0.1,0.1-0.1,0.1-0.1
				C-218.1-367.2-217.7-367-217.3-366.7L-217.3-366.7z M-215.6-375.8v-1h-2.8v1H-215.6z M-215.6-374.7h-2.8v1h2.8V-374.7z
				 M-214.3-375.8h2.9v-1h-2.9V-375.8z M-211.4-374.7h-2.9v1h2.9V-374.7z M-212.3-372.3c0-0.1,0.1-0.3,0.2-0.4h-2.2v1
				c0.6,0,1.2-0.1,1.9-0.1c0.2,0,0.4,0,0.6,0C-212-372-212.1-372.2-212.3-372.3L-212.3-372.3z"/>
			<path id="Path_41650" class="st1" d="M-203.4-370c0,0.1-0.1,0.2-0.1,0.2c-0.1,0.1-0.2,0.2-0.2,0.3c-0.1,0.9-0.2,1.8-0.4,2.7
				c-0.1,0.4-0.2,0.8-0.4,1.2c-0.1,0.1-0.1,0.1-0.1,0.1c-0.3-0.1-0.7-0.2-1-0.3c-0.1,0-0.1-0.1-0.1-0.2c0.2-0.6,0.4-1.1,0.5-1.7
				c0.2-0.9,0.3-1.8,0.4-2.6c0-0.1,0.1-0.2,0.2-0.2C-203.8-370.2-203.4-370.1-203.4-370z M-200.5-380.6l0.1,0.2
				c0,0.1-0.1,0.2-0.3,0.2c-0.3,0-0.5,0.1-0.6,0.2c-0.6,0.9-1.2,1.8-1.7,2.5c0.4,0.4,0.9,0.8,1.3,1.3l0,0c0.7-1,1.3-1.8,1.8-2.6
				c0.5,0.3,0.9,0.7,1.3,1.2c0,0.1-0.1,0.1-0.2,0.1c-0.3,0-0.5,0.1-0.6,0.1c-1.1,1.6-2.2,3.1-3.3,4.4c0.7-0.1,1.6-0.1,2.6-0.2
				c-0.1-0.4-0.3-0.7-0.5-1.1c0-0.1,0.3-0.3,0.9-0.6c0.3,0.7,0.6,1.3,0.7,1.9c0.2,0.5,0.3,1.1,0.5,1.7c-0.3,0.2-0.7,0.3-1.1,0.4
				c-0.1-0.5-0.2-0.9-0.3-1.4v0l-1.6,0.3v7.3c0,0.2-0.1,0.2-0.3,0.2h-0.7c-0.2,0-0.3-0.1-0.3-0.2v-7.1l-2.2,0.5
				c-0.1,0.2-0.3,0.4-0.5,0.5c-0.2-0.6-0.3-1.1-0.4-1.7c0.5-0.1,0.9-0.2,1.4-0.2c0.8-1,1.5-1.9,2-2.6c-0.7-0.6-1.3-1-1.6-1.3
				c-0.6-0.4-1.1-0.7-1.7-0.9c0-0.1,0.3-0.4,0.8-1c0-0.1,0.1-0.1,0.2-0.1c0.3,0.2,0.5,0.4,0.8,0.6c0.3-0.5,0.6-0.9,0.9-1.4
				c0.5-0.8,0.8-1.4,1-1.8L-200.5-380.6z M-199.5-370.3c0.4,1,0.7,2.1,1,3.2c0,0.1-0.4,0.3-1.1,0.4c-0.1,0-0.2,0-0.2-0.1
				c-0.2-1.1-0.4-2.1-0.7-3.2c0-0.1,0.3-0.2,0.9-0.4C-199.5-370.4-199.5-370.4-199.5-370.3L-199.5-370.3z M-194.4-372
				c0,0.1-0.1,0.2-0.2,0.2c-0.1,0.1-0.2,0.3-0.2,0.5v0.7c0,0.6-0.1,1.2-0.1,1.7c-0.1,0.6-0.2,1.2-0.5,1.8c-0.3,0.5-0.6,1-1,1.4
				c-0.4,0.4-0.9,0.8-1.4,1.2c-0.1,0-0.1-0.1-0.2-0.2c-0.2-0.2-0.4-0.4-0.6-0.5c-0.1-0.1-0.2-0.1-0.2-0.2c0.5-0.3,1-0.7,1.4-1.1
				c0.3-0.3,0.5-0.7,0.7-1.1c0.2-0.5,0.4-1,0.5-1.5c0.1-0.5,0.1-1.1,0.1-1.6v-1.4c0-0.1,0-0.2,0.1-0.2
				C-195.4-372.3-194.9-372.2-194.4-372L-194.4-372z M-192.6-381.2c0,0.2-0.1,0.3-0.2,0.3c-0.1,0-0.2,0.1-0.2,0.4v1.6h4
				c0.1,0,0.1,0.1,0.1,0.2v0.6c0,0.2-0.1,0.3-0.1,0.3h-4.7c-0.7,1.6-1.2,2.8-1.5,3.5c1.2-0.1,2.4-0.3,3.7-0.4
				c-0.3-0.7-0.6-1.3-0.8-1.8c0-0.1,0.3-0.3,0.8-0.6c0.1,0,0.2,0,0.2,0.1c0.8,1.4,1.5,2.8,2.1,4.3c0,0.2,0,0.3-0.1,0.3
				c-0.3,0.2-0.7,0.4-1,0.4c-0.2-0.6-0.5-1.2-0.7-1.7c-2.1,0.3-4,0.5-5.8,0.7c-0.1,0-0.2,0.1-0.3,0.3c0,0.3-0.1,0.5-0.3,0.5
				s-0.4-0.6-0.8-1.8c0.2,0,0.6,0,1.2-0.1c0.1,0,0.3,0,0.4,0c0.1-0.1,0.1-0.3,0.2-0.4c0.5-1.2,1-2.2,1.4-3.2h-3.1
				c-0.1,0-0.1-0.1-0.1-0.3v-0.6c0-0.1,0-0.2,0.1-0.2h3.9v-2.2c0-0.1,0.1-0.2,0.3-0.2C-193-381.4-192.6-381.3-192.6-381.2
				L-192.6-381.2z M-191.6-372c0,0.1-0.1,0.3-0.1,0.4v5.2c0,0.2,0,0.3,0.1,0.3h1.2c0.2,0,0.4-0.6,0.6-1.9l1.1,0.7
				c-0.4,1.6-0.9,2.4-1.4,2.4h-2c-0.6,0-0.9-0.3-0.9-0.9v-6.3c0-0.1,0-0.2,0.1-0.2C-192-372.2-191.6-372.1-191.6-372L-191.6-372z"/>
			<path id="Path_41651" class="st1" d="M-179.8-380.8c0.1,0.1,0.2,0.2,0.2,0.2c0,0.1-0.1,0.2-0.3,0.2c-0.1,0-0.3,0-0.4,0.2
				c0.7,1.1,1.7,2,2.9,2.7c0,0.1,0,0.2-0.1,0.3c-0.2,0.1-0.4,0.3-0.7,0.6c0,0-0.1,0-0.1,0c-0.4-0.2-0.8-0.5-1.1-0.9
				c-0.5-0.5-1-1.1-1.4-1.7c-0.2,0.4-0.4,0.7-0.6,0.9c-0.3,0.4-0.6,0.9-0.9,1.3c-0.3,0.3-0.5,0.6-0.7,0.8h4.5c0.1,0,0.2,0.1,0.2,0.3
				v0.6c0,0.2-0.1,0.3-0.2,0.3h-1.6v2.2h2.4c0.1,0,0.2,0.1,0.2,0.3v0.6c0,0.2-0.1,0.3-0.2,0.3h-2.4v4.8c0.8-0.2,1.5-0.4,2.2-0.6
				l0.1,0c0.1,0,0.1,0.1,0.1,0.2c0,0.4,0,0.7-0.1,1.1c-1.9,0.5-3.8,0.9-5.8,1.3c-0.2,0.3-0.4,0.5-0.5,0.5s-0.4-0.5-0.7-1.6
				c0.9-0.1,2-0.3,3.2-0.6l0.1,0v-5.1h-2.7c-0.1,0-0.2-0.1-0.2-0.3v-0.6c0-0.2,0.1-0.3,0.2-0.3h2.7v-2.2h-1.7
				c-0.1,0-0.2-0.1-0.2-0.3v-0.6l-0.2,0.2c-0.3,0.3-0.6,0.5-0.9,0.8c-0.1,0-0.2-0.1-0.3-0.2c-0.1-0.2-0.3-0.5-0.5-0.6
				c-0.1-0.1-0.2-0.1-0.2-0.2c0,0,0-0.1,0.1-0.1c0.5-0.3,0.9-0.6,1.3-0.9c0.5-0.5,1-1,1.4-1.6c0.3-0.4,0.5-0.8,0.8-1.2
				c0.2-0.4,0.4-0.9,0.6-1.4c0.1-0.1,0.1-0.2,0.2-0.2L-179.8-380.8z M-183.2-370.4c0.4,0.5,0.7,1.1,0.9,1.7c0.2,0.4,0.3,0.8,0.4,1.2
				c0,0.1-0.1,0.1-0.3,0.1c-0.3,0.2-0.6,0.3-1,0.3c-0.1-0.7-0.3-1.3-0.6-1.9c-0.2-0.5-0.5-0.9-0.7-1.3c0.3-0.1,0.6-0.2,0.9-0.3
				C-183.3-370.5-183.2-370.5-183.2-370.4L-183.2-370.4z M-177.7-370.6c0.1,0.1,0.2,0.2,0.2,0.2c0,0.1,0,0.1-0.1,0.2
				c-0.1,0-0.1,0.1-0.2,0.2c-0.2,0.7-0.4,1.4-0.7,2.1c-0.1,0.1-0.1,0.2-0.1,0.2c-0.1,0-0.2,0-0.3-0.1c-0.2-0.1-0.4-0.2-0.6-0.3
				c-0.1,0-0.1-0.1-0.1-0.1c0,0,0-0.1,0-0.1c0.2-0.4,0.3-0.7,0.5-1.1c0.1-0.4,0.3-0.9,0.4-1.3c0-0.1,0-0.2,0.1-0.2L-177.7-370.6z
				 M-168.9-380.4c0.2,0,0.4,0.1,0.4,0.2v13.8c0,0.5-0.3,1.1-0.7,1.3c-0.6,0.3-1.2,0.4-1.8,0.5c-0.1,0-0.2-0.1-0.2-0.2c0,0,0,0,0,0
				c-0.1-0.4-0.2-0.8-0.4-1.1c0-0.1,0-0.1,0.1-0.1c0.5,0.1,1,0,1.4-0.2c0.2-0.2,0.3-0.4,0.3-0.7v-12.4h-6.1v14.5
				c0,0.2-0.1,0.2-0.3,0.2h-0.7c-0.2,0-0.3-0.1-0.3-0.2v-15.3c0-0.1,0.1-0.2,0.3-0.2L-168.9-380.4z M-170.9-377.3
				c0.1,0,0.2,0.1,0.2,0.3v0.6c0,0.2-0.1,0.3-0.2,0.3h-4c-0.1,0-0.2-0.1-0.2-0.3v-0.6c0-0.2,0.1-0.3,0.2-0.3H-170.9z M-171.2-374
				c0.2,0,0.3,0.1,0.3,0.2v5.7c0,0.1-0.1,0.2-0.3,0.2h-0.7c-0.1,0-0.2-0.1-0.2-0.2c0,0,0,0,0-0.1v-0.9h-1.7v0.9
				c0,0.1-0.1,0.2-0.3,0.2h-0.7c-0.1,0-0.2-0.1-0.2-0.2c0,0,0,0,0,0v-5.7c0-0.1,0.1-0.2,0.2-0.2c0,0,0,0,0,0L-171.2-374z
				 M-172.1-370v-2.9h-1.7v2.9H-172.1z"/>
			<path id="Path_41652" class="st1" d="M-324.1-354.5c0,0.1,0,0.1,0.1,0.2c0,0.1-0.1,0.2-0.3,0.2c-0.3,0-0.4,0.1-0.5,0.2
				c-0.6,1-1.1,1.9-1.6,2.8c0.3,0.3,0.6,0.6,1,0.9c0.5-0.8,0.9-1.6,1.3-2.3c0.4,0.3,0.8,0.7,1.1,1.1c0,0.1-0.1,0.1-0.2,0.1
				c-0.2,0-0.3,0-0.4,0.1c-0.8,1.5-1.7,2.8-2.5,4.1c0.6,0,1.4-0.1,2.3-0.2c-0.1-0.5-0.3-0.9-0.5-1.4c0-0.1,0.3-0.2,0.8-0.5
				c0.3,0.7,0.5,1.3,0.7,1.8c0.2,0.5,0.3,1.1,0.4,1.6c-0.3,0.1-0.6,0.2-1,0.3c0-0.3-0.1-0.6-0.2-1l-1.2,0.2v7.2
				c0,0.2-0.1,0.2-0.3,0.2h-0.7c-0.1,0-0.2-0.1-0.2-0.2v-7l-1.8,0.4c-0.3,0.3-0.5,0.4-0.5,0.4c-0.2-0.5-0.3-1-0.3-1.6
				c0.4-0.1,0.7-0.2,1.1-0.2c0.7-1,1.2-1.8,1.7-2.5c-0.6-0.5-1-0.8-1.3-1c-0.5-0.3-0.9-0.6-1.5-0.8c0-0.1,0.2-0.4,0.7-0.9
				c0-0.1,0.1-0.1,0.1-0.1c0.2,0.1,0.4,0.3,0.6,0.4c0.3-0.5,0.6-1,0.9-1.4c0.4-0.8,0.8-1.5,1-1.9L-324.1-354.5z M-326.3-344.2
				c0,0.1-0.1,0.2-0.2,0.3c-0.1,0.1-0.2,0.2-0.2,0.3c-0.1,0.7-0.2,1.5-0.3,2.2c-0.1,0.7-0.3,1.3-0.5,1.9c-0.1,0-0.2,0-0.3-0.1
				c-0.2-0.1-0.5-0.1-0.7-0.1c-0.1,0-0.1-0.1-0.1-0.2c0.1-0.4,0.2-0.7,0.3-1.1c0.1-0.6,0.3-1.3,0.4-1.9c0.1-0.5,0.1-1,0.1-1.6
				c0-0.1,0-0.1,0.1-0.1C-326.8-344.5-326.3-344.4-326.3-344.2z M-322.8-344.5c0.2,0.8,0.5,2,0.8,3.7c0,0.1-0.3,0.2-1,0.3
				c-0.1,0-0.1,0-0.1-0.1c-0.1-1.1-0.3-2.4-0.6-3.7c0-0.1,0.3-0.2,0.9-0.3C-322.9-344.7-322.8-344.6-322.8-344.5L-322.8-344.5z
				 M-313.5-347c0.2,0,0.3,0.1,0.3,0.2v5.3c0,0.2-0.1,0.2-0.3,0.2h-2v1.1c0,0.1,0,0.2,0.1,0.2h1.7c0.4,0,0.8-0.5,1.1-1.5l1,0.6
				c-0.5,1.3-1.1,1.9-1.9,1.9h-2.4c-0.6,0-0.9-0.3-0.9-0.8v-1.6h-1.2c-0.1,0.1-0.1,0.2-0.1,0.3c-0.1,0.3-0.3,0.5-0.5,0.7
				c-0.2,0.2-0.4,0.4-0.7,0.6c-0.3,0.2-0.6,0.4-0.9,0.5c-0.4,0.1-0.7,0.3-1,0.4c-0.3,0.1-0.6,0.1-1,0.2c-0.1,0-0.2,0-0.3-0.1
				c-0.2-0.3-0.4-0.5-0.6-0.7c-0.1,0-0.1-0.1-0.1-0.2c0,0,0,0,0.1,0c0.3,0,0.7-0.1,1-0.2c0.3-0.1,0.6-0.1,0.8-0.2
				c0.3-0.1,0.6-0.2,0.9-0.4c0.2-0.1,0.5-0.3,0.7-0.4c0.2-0.1,0.3-0.2,0.4-0.4l0.1-0.1h-2.1c-0.2,0-0.3-0.1-0.3-0.2v-5.3
				c0-0.1,0.1-0.2,0.3-0.2L-313.5-347z M-318.3-352.7c0.2,0,0.3,0.1,0.3,0.1v2.5c0,0.2-0.1,0.2-0.3,0.2h-1v1.4h1.2
				c0.1,0,0.2,0.1,0.2,0.2v0.4c0,0.2-0.1,0.3-0.2,0.3h-4.3c-0.1,0-0.2-0.1-0.2-0.2v-6.9c0-0.1,0.1-0.2,0.2-0.2h4.3
				c0.1,0,0.2,0.1,0.2,0.2v0.4c0,0.2-0.1,0.3-0.2,0.3h-1.2v1.2L-318.3-352.7z M-321.5-352.7h1.2v-1.2h-1.2V-352.7z M-319.1-350.8
				v-1.1h-2.4v1.1H-319.1z M-320.4-348.6v-1.4h-1.2v1.4H-320.4z M-314.4-345.4v-0.7h-5.7v0.7H-314.4z M-314.4-343.7v-0.8h-5.7v0.8
				H-314.4z M-314.4-342.9h-5.7v0.8h5.7V-342.9z M-315.3-355c0.1,0.1,0.2,0.2,0.2,0.2s-0.1,0.1-0.2,0.2c-0.1,0-0.2,0.1-0.3,0.2
				c-0.1,0.1-0.1,0.3-0.2,0.4h3.6c0.1,0,0.1,0.1,0.1,0.2v0.6c0,0.1-0.1,0.2-0.1,0.2h-4c-0.2,0.3-0.3,0.5-0.5,0.8
				c-0.1,0.1-0.1,0.1-0.2,0.2c-0.1,0-0.2,0-0.3-0.1c-0.2-0.1-0.4-0.2-0.6-0.3c-0.1,0-0.1,0-0.1-0.1s0-0.1,0.1-0.1
				c0.3-0.4,0.6-0.8,0.8-1.2c0.3-0.4,0.5-0.8,0.6-1.3c0-0.1,0.1-0.2,0.1-0.2L-315.3-355z M-312.3-350.4c0.1,0,0.2,0.1,0.2,0.1v2.4
				c0,0.1-0.1,0.1-0.2,0.1h-4.8c-0.1,0-0.2,0-0.2-0.1v-2.4c0-0.1,0.1-0.1,0.2-0.1H-312.3z M-315.7-349.8h-0.6v1.4h0.6V-349.8z
				 M-312.6-352.1c0.1,0,0.1,0.1,0.1,0.2v0.4c0,0.1-0.1,0.2-0.1,0.2h-3.5c-0.1,0-0.1-0.1-0.1-0.2v-0.4c0-0.1,0-0.2,0.1-0.2H-312.6z
				 M-314.4-349.8h-0.6v1.4h0.6V-349.8z M-313.1-349.8h-0.6v1.4h0.6V-349.8z"/>
			<path id="Path_41653" class="st1" d="M-305-345.9c-0.3,0.5-0.7,1-1.2,1.3l-0.5-0.5c0.7-0.5,1.2-1.3,1.2-2.1h-1.4v-2.2h2.2v2
				C-304.6-346.9-304.7-346.4-305-345.9z"/>
			<path id="Path_41654" class="st1" d="M-291.9-350.4c0-0.2,0.1-0.5,0.1-0.7c0.1-1.4,0.1-2.9,0-4.3l1.9,0.2c0,0.1-0.1,0.2-0.2,0.3
				c-0.2,0.1-0.3,0.2-0.3,0.4c0,1.7-0.1,3.1-0.2,4.1h7.3c0.1,0,0.2,0.1,0.2,0.3v0.7c0,0.2-0.1,0.3-0.2,0.3h-6.9
				c0.2,0.8,0.4,1.6,0.8,2.3c0.3,0.8,0.7,1.5,1.1,2.2c0.6,1,1.4,1.9,2.3,2.6c0.8,0.7,1.7,1.2,2.8,1.6c0.1,0,0.1,0.1,0.1,0.2
				c0,0.1-0.1,0.2-0.2,0.3c-0.3,0.2-0.5,0.5-0.7,0.8c-0.1,0.1-0.2,0.2-0.3,0.2c-0.3-0.1-0.5-0.3-0.7-0.5c-1.3-0.8-2.4-1.8-3.4-2.9
				c-0.7-0.8-1.2-1.7-1.6-2.7c-0.4-0.9-0.7-1.8-1-2.8c-0.1,0.4-0.2,0.7-0.3,1.1c-0.3,1-0.8,1.9-1.3,2.8c-0.5,0.8-1,1.6-1.7,2.3
				c-1.2,1-2.5,1.9-3.8,2.7c-0.1,0-0.2-0.1-0.3-0.2c-0.2-0.3-0.5-0.5-0.7-0.7c-0.1-0.1-0.2-0.2-0.2-0.3c0.4-0.2,0.9-0.4,1.5-0.7
				c0.6-0.3,1.2-0.7,1.8-1.2c0.6-0.4,1.1-1,1.5-1.6c0.5-0.7,1-1.4,1.3-2.2c0.4-0.8,0.7-1.6,0.9-2.4c0.1-0.3,0.1-0.6,0.2-0.9h-7
				c-0.1,0-0.2-0.1-0.2-0.3v-0.7c0-0.2,0.1-0.3,0.2-0.3L-291.9-350.4z"/>
			<path id="Path_41655" class="st1" d="M-277.8-352.4v-2.7c0-0.2,0.1-0.2,0.3-0.2c0.9,0,1.4,0.1,1.4,0.2s-0.1,0.3-0.2,0.3
				c-0.1,0-0.2,0.1-0.2,0.4v2.1h2.3c0.2,0,0.4,0.1,0.4,0.3v8.8c0,0.3-0.2,0.7-0.4,0.9c-0.3,0.2-0.7,0.3-1.1,0.3
				c-0.1,0-0.2-0.1-0.2-0.2c0,0,0,0,0,0c-0.1-0.4-0.2-0.8-0.4-1.1c0,0,0-0.1,0.1-0.1c0.4,0,0.6,0,0.7-0.1c0.1-0.1,0.1-0.3,0.1-0.4
				v-7.2h-1.4v12.3c0,0.1-0.1,0.2-0.3,0.2h-0.7c-0.2,0-0.3-0.1-0.3-0.2v-12.3h-1.4v8.7c0,0.1-0.1,0.2-0.3,0.2h-0.7
				c-0.2,0-0.3-0.1-0.3-0.2v-9.6c0-0.2,0.1-0.3,0.3-0.3L-277.8-352.4z M-264.4-354.9c0.1,0,0.2,0.1,0.2,0.3v0.6
				c0,0.2-0.1,0.3-0.2,0.3h-8.8c-0.1,0-0.2-0.1-0.2-0.3v-0.6c0-0.2,0.1-0.3,0.2-0.3H-264.4z M-264.5-347.4c0.2,0,0.3,0.1,0.3,0.2v8
				c0,0.1-0.1,0.2-0.3,0.2h-0.7c-0.2,0-0.3-0.1-0.3-0.2v-0.6h-6.5v0.6c0,0.1-0.1,0.2-0.3,0.2h-0.7c-0.2,0-0.3-0.1-0.3-0.2v-7.9
				c0-0.1,0.1-0.3,0.2-0.3c0,0,0,0,0.1,0L-264.5-347.4z M-265.4-352.7c0.2,0,0.3,0.1,0.3,0.2v3.7c0,0.1-0.1,0.2-0.3,0.2h-6.6
				c-0.2,0-0.3-0.1-0.3-0.2v-3.7c0-0.2,0.1-0.2,0.3-0.2H-265.4z M-269.3-344.2v-2.1h-2.7v2.1H-269.3z M-269.3-340.9v-2.1h-2.7v2.1
				H-269.3z M-266.5-351.5h-4.5v1.9h4.5L-266.5-351.5z M-268-344.2h2.5v-2.1h-2.5V-344.2z M-265.5-340.9v-2.1h-2.5v2.1H-265.5z"/>
			<path id="Path_41656" class="st1" d="M-258.8-351.6v-2.6c0-0.3,0-0.5-0.1-0.8c0-0.1-0.1-0.2-0.1-0.4c0-0.1,0.1-0.1,0.4-0.1
				l1.4,0.2c0.1,0.1,0.2,0.1,0.2,0.2c0,0.1-0.1,0.2-0.2,0.2c-0.3,0.1-0.4,0.4-0.4,0.9v2.5h1.9c0.1,0,0.2,0.1,0.2,0.3v0.6
				c0,0.2-0.1,0.3-0.2,0.3h-1.9v3.7c0.6-0.3,1.2-0.6,1.7-0.9c0,0,0.1-0.1,0.1-0.1c0.1,0,0.1,0,0.1,0.1c0,0,0,0,0,0
				c0,0.3,0,0.7-0.1,1c-0.6,0.4-1.3,0.7-1.9,1.1v5.4c0,0.8-0.6,1.3-1.9,1.3h-0.6c-0.1,0-0.2-0.1-0.2-0.3c-0.1-0.3-0.2-0.6-0.4-0.9
				c0-0.1,0-0.1,0.1-0.1c0.3,0.1,0.6,0.1,0.9,0.1c0.5,0,0.8-0.2,0.8-0.6v-4.2c-0.5,0.3-1,0.5-1.5,0.7c-0.2,0.3-0.3,0.5-0.4,0.5
				c-0.1,0-0.4-0.5-0.7-1.5c0.9-0.3,1.8-0.6,2.7-1v-4.3h-2.1c-0.1,0-0.2-0.1-0.2-0.3v-0.6c0-0.2,0.1-0.3,0.2-0.3L-258.8-351.6z
				 M-244.9-347.4c0.1,0,0.2,0.1,0.2,0.3v0.6c0,0.2-0.1,0.3-0.2,0.3h-4.4v2.2h3.6c0.1,0,0.2,0.1,0.2,0.3v0.6c0,0.2-0.1,0.3-0.2,0.3
				h-3.6v2.6c0.5,0,1.1,0,1.9,0c0.5,0,1.3-0.1,2.7-0.2c0,0.1,0,0.2-0.1,0.3c-0.1,0.3-0.2,0.7-0.3,1c0,0.2-0.1,0.3-0.2,0.3h-1.8
				c-1.1,0-2.3-0.1-3.4-0.3c-0.5-0.1-1-0.3-1.4-0.5c-0.3-0.2-0.6-0.4-0.8-0.6c-0.3-0.2-0.5-0.5-0.7-0.8l0-0.1c0,0.1-0.1,0.2-0.1,0.3
				c-0.5,0.9-1.2,1.7-2,2.2c-0.1,0-0.2,0-0.3-0.1c-0.2-0.2-0.4-0.4-0.6-0.5c-0.1-0.1-0.1-0.1-0.1-0.2c0-0.1,0-0.2,0.1-0.2
				c0.4-0.3,0.8-0.6,1.1-0.9c0.3-0.3,0.5-0.7,0.8-1.1c0.4-1.1,0.7-2.3,0.6-3.5c0-0.1,0.1-0.2,0.2-0.2c0,0,0,0,0.1,0l1.2,0.3
				c0.1,0.1,0.2,0.2,0.2,0.2c0,0.1-0.1,0.3-0.2,0.3c0,0,0,0,0,0c-0.1,0.1-0.2,0.2-0.2,0.4c0,0.5-0.1,1-0.2,1.5
				c0.1,0.3,0.3,0.7,0.5,1c0.2,0.3,0.4,0.5,0.7,0.7c0.3,0.2,0.6,0.4,0.9,0.5c0.1,0.1,0.2,0.1,0.4,0.1v-5.7h-4.2
				c-0.1,0-0.2-0.1-0.2-0.3v-0.6c0-0.2,0.1-0.3,0.2-0.3L-244.9-347.4z M-246.1-355c0.2,0,0.3,0.1,0.3,0.2v5.9c0,0.2-0.1,0.2-0.3,0.2
				h-7.6c-0.2,0-0.3-0.1-0.3-0.2v-5.9c0-0.1,0.1-0.2,0.3-0.2L-246.1-355z M-247.1-352.4v-1.4h-5.5v1.4H-247.1z M-247.1-351.2h-5.5
				v1.4h5.5V-351.2z"/>
			<path id="Path_41657" class="st1" d="M-236-353.3v3.4c0,0.4,0,0.8,0,1.3h4.9v-6.5c0-0.1,0.1-0.2,0.3-0.2c1,0,1.4,0.1,1.4,0.2
				s-0.1,0.3-0.2,0.3c-0.1,0-0.2,0.1-0.2,0.4v5.9h3.8c0.1,0,0.2,0.1,0.2,0.3v0.7c0,0.2-0.1,0.3-0.2,0.3h-3.8v8.3
				c0,0.1-0.1,0.2-0.4,0.2h-0.7c-0.2,0-0.3-0.1-0.3-0.2v-8.3h-5c-0.1,0.8-0.2,1.5-0.4,2.3c-0.3,1.3-0.9,2.4-1.8,3.4
				c-0.7,0.8-1.5,1.4-2.3,2c-0.1,0-0.3-0.1-0.3-0.2c-0.2-0.2-0.3-0.4-0.5-0.7c-0.1-0.1-0.1-0.2-0.1-0.3c1.8-1,3.1-2.7,3.8-4.6
				c0.2-0.7,0.3-1.3,0.4-2h-4.4c-0.1,0-0.2-0.1-0.2-0.3v-0.7c0-0.2,0.1-0.3,0.2-0.3h4.5c0-0.3,0-0.7,0-1v-3.3
				c-1.2,0.2-2.3,0.3-3.5,0.3c-0.2,0-0.3-0.1-0.3-0.2c-0.1-0.2-0.3-0.5-0.4-0.7c0-0.2,0.1-0.3,0.2-0.3c1.3,0,2.7,0,4-0.3
				c1.2-0.2,2.3-0.6,3.3-1.3c0.1-0.1,0.2-0.1,0.3-0.1c0.1,0,0.1,0.1,0.3,0.1c0.3,0.3,0.5,0.6,0.8,0.9c0,0.1-0.1,0.2-0.1,0.2
				l-0.5-0.1C-234.3-353.9-235.1-353.5-236-353.3z"/>
			<path id="Path_41658" class="st1" d="M-217.6-354.6c0,0.1-0.1,0.2-0.1,0.2c-0.2,0-0.3,0.1-0.4,0.2c-0.4,1.1-0.9,2.2-1.4,3.3v11.9
				c0,0.1-0.1,0.2-0.3,0.2h-0.7c-0.2,0-0.3-0.1-0.3-0.2v-9.9c-0.4,0.6-1,1.3-1.6,2.1c-0.1,0-0.3-0.1-0.4-0.2
				c-0.2-0.1-0.4-0.3-0.6-0.5c-0.1-0.1-0.1-0.2-0.1-0.3c0.5-0.6,1-1.2,1.6-1.9c0.7-0.9,1.3-1.9,1.8-2.9c0.4-0.9,0.8-1.9,1-2.8
				c0-0.1,0.1-0.1,0.1-0.1C-218.6-355.3-218.1-355-217.6-354.6z M-210.4-343.5L-210.4-343.5c0-0.3,0-0.6-0.1-0.9
				c-0.1-0.1-0.1-0.2-0.1-0.3c0-0.1,0.1-0.1,0.4-0.1l1.4,0.2c0.1,0.1,0.2,0.1,0.2,0.2c0,0.1-0.1,0.2-0.2,0.2
				c-0.2,0.1-0.3,0.4-0.3,0.9h2.4c0.1,0,0.2,0.1,0.2,0.3v0.6c0,0.2-0.1,0.3-0.2,0.3h-2.4v2.3c0,0.9-0.7,1.3-1.9,1.3h-1.1
				c-0.1,0-0.1-0.1-0.1-0.3c-0.1-0.3-0.2-0.6-0.4-0.8c0-0.1,0-0.2,0.1-0.2c0.5,0.1,0.9,0.1,1.4,0.2c0.5,0,0.8-0.2,0.8-0.6v-1.8h-7.2
				c-0.1,0-0.2-0.1-0.2-0.3v-0.6c0-0.2,0.1-0.3,0.2-0.3L-210.4-343.5z M-212.7-354.3v-1c0-0.1,0.1-0.2,0.3-0.2
				c0.9,0,1.4,0.1,1.4,0.2c0,0.2-0.1,0.3-0.2,0.3s-0.2,0.1-0.2,0.4v0.4h4.6c0.1,0,0.2,0.1,0.2,0.3v0.6c0,0.2-0.1,0.3-0.2,0.3h-4.6v1
				h3.9c0.2,0,0.3,0.1,0.3,0.2v4.8c0,0.2-0.1,0.2-0.3,0.2h-0.8c0.2,0.3,0.4,0.5,0.6,0.7c0.4,0.5,0.7,0.9,0.9,1.2l-0.1,0.1
				c-0.4,0.5-0.6,0.7-0.6,0.7c-0.2-0.3-0.5-0.6-0.7-0.9l-1.9,0.1c-2.2,0.1-4.5,0.3-6.8,0.5c-0.1,0.3-0.2,0.5-0.3,0.5
				c-0.1,0-0.1,0-0.2-0.1l-0.5-1.5c0.7,0,2.3-0.1,5-0.2v-1h-3.8c-0.2,0-0.3-0.1-0.3-0.2v-4.8c0-0.1,0.1-0.2,0.3-0.2h3.8v-1h-4.5
				c-0.1,0-0.2-0.1-0.2-0.3v-0.6c0-0.2,0.1-0.3,0.2-0.3L-212.7-354.3z M-214.5-340.9c0.3,0.3,0.6,0.6,0.9,0.8l-0.1,0.2
				c-0.4,0.5-0.6,0.7-0.6,0.7c-0.4-0.4-0.8-0.8-1.2-1.1c-0.3-0.2-0.6-0.4-0.9-0.6c0.1-0.3,0.3-0.5,0.5-0.7c0-0.1,0.1-0.1,0.1-0.1
				C-215.2-341.5-214.9-341.2-214.5-340.9L-214.5-340.9z M-212.7-350.1v-1h-2.8v1H-212.7z M-212.7-349h-2.8v1h2.8L-212.7-349z
				 M-211.5-350.1h2.9v-1h-2.9V-350.1z M-208.6-349h-2.9v1h2.9V-349z M-209.5-346.5c0.1-0.1,0.1-0.3,0.2-0.4h-2.2v1
				c0.6,0,1.2-0.1,1.9-0.1c0.2,0,0.4,0,0.6,0C-209.1-346.2-209.3-346.4-209.5-346.5L-209.5-346.5z"/>
			<path id="Path_41659" class="st1" d="M-201.4-353.6v-1.7c0-0.1,0.1-0.1,0.2-0.1c0.9,0,1.3,0.1,1.3,0.2s-0.1,0.2-0.1,0.2
				c-0.1,0-0.1,0.1-0.1,0.3v1.1h2.8c0.1,0,0.1,0.1,0.1,0.2v0.6c0,0.2-0.1,0.3-0.1,0.3h-2.8v1.6h2.3c0.2,0,0.3,0.1,0.3,0.2v6.3
				c0,0.1-0.1,0.2-0.3,0.2h-2.3v1.7h2.9c0.1,0,0.1,0.1,0.1,0.2v0.6c0,0.2-0.1,0.3-0.1,0.3h-2.9v2.4c0,0.1-0.1,0.2-0.3,0.2h-0.7
				c-0.1,0-0.2-0.1-0.2-0.2v-2.4h-2.9c-0.1,0-0.1-0.1-0.1-0.3v-0.6c0-0.1,0-0.2,0.1-0.2h2.9v-1.7h-2.3c-0.2,0-0.3-0.1-0.3-0.2v-6.3
				c0-0.1,0.1-0.2,0.3-0.2h2.3v-1.6h-2.7c-0.1,0-0.1-0.1-0.1-0.3v-0.6c0-0.1,0-0.2,0.1-0.2L-201.4-353.6z M-201.4-348.1v-1.7h-1.4
				v1.7H-201.4z M-201.4-347h-1.4v1.8h1.4V-347z M-200.2-348.1h1.4v-1.7h-1.4V-348.1z M-198.8-347h-1.4v1.8h1.4V-347z M-191.2-355
				c0.1,0.1,0.2,0.2,0.2,0.2c0,0.1-0.1,0.2-0.3,0.2c-0.1,0-0.2,0-0.3,0.1c0.3,0.5,0.6,1,1,1.4c0.4,0.5,0.8,0.9,1.3,1.3
				c0.6,0.5,1.4,1,2.2,1.2c0.1,0,0.1,0.1,0.1,0.1c0,0.1,0,0.1-0.1,0.2c-0.2,0.2-0.4,0.4-0.6,0.6c-0.1,0.1-0.1,0.1-0.1,0.1
				c-0.6-0.2-1.1-0.5-1.6-0.9c-0.6-0.4-1.2-0.9-1.6-1.5c-0.4-0.5-0.8-1-1.2-1.6c-0.2,0.4-0.5,0.7-0.7,1c-0.3,0.4-0.7,0.8-1.1,1.2
				c-0.4,0.4-0.8,0.8-1.2,1.1c-0.3,0.3-0.7,0.5-1,0.7c-0.1,0-0.2-0.1-0.3-0.2c-0.1-0.2-0.3-0.4-0.5-0.6c-0.1-0.1-0.2-0.1-0.2-0.2
				c0,0,0,0,0.1-0.1c0.5-0.3,1-0.6,1.4-0.9c0.6-0.5,1.1-1,1.6-1.5c0.3-0.4,0.6-0.7,0.9-1.1c0.3-0.4,0.5-0.9,0.7-1.3
				c0.1-0.1,0.1-0.1,0.2-0.1L-191.2-355z M-192.5-347.6c0.1,0,0.3,0.1,0.3,0.2c0,0,0,0,0,0v7.5c0,0.3-0.2,0.6-0.5,0.7
				c-0.4,0.1-0.8,0.2-1.3,0.3c-0.1,0-0.2-0.1-0.2-0.2c0,0,0,0,0,0c-0.1-0.4-0.2-0.7-0.4-1c0,0,0-0.1,0.1-0.1c0.3,0,0.7,0,1-0.1
				c0.1-0.1,0.2-0.2,0.2-0.3v-1.3h-2v2.7c0,0.1-0.1,0.2-0.3,0.2h-0.6c-0.2,0-0.3-0.1-0.3-0.2v-8.3c0-0.1,0.1-0.2,0.3-0.2
				L-192.5-347.6z M-193.4-345.1v-1.4h-2v1.4H-193.4z M-193.4-342.7v-1.4h-2v1.4H-193.4z M-189.4-349.9c0.1,0,0.1,0.1,0.1,0.2v0.6
				c0,0.2-0.1,0.3-0.1,0.3h-5.5c-0.1,0-0.1-0.1-0.1-0.3v-0.6c0-0.2,0-0.2,0.1-0.2H-189.4z M-189.9-347.1c0,0.2-0.1,0.2-0.1,0.3
				c-0.1,0-0.1,0.1-0.1,0.3v4.9c0,0.1-0.1,0.2-0.3,0.2h-0.6c-0.2,0-0.3-0.1-0.3-0.2v-5.5c0-0.1,0.1-0.1,0.3-0.1
				C-190.2-347.3-189.9-347.2-189.9-347.1L-189.9-347.1z M-187.5-347.8c0.1,0.1,0.2,0.1,0.2,0.2c0,0.1-0.1,0.1-0.2,0.1
				c-0.2,0.1-0.3,0.3-0.3,0.7v6.8c0,0.8-0.6,1.2-1.7,1.2h-0.9c-0.1,0-0.1-0.1-0.1-0.3c-0.1-0.3-0.2-0.5-0.3-0.8c0-0.1,0-0.1,0.1-0.1
				c0.4,0,0.7,0.1,1,0.1c0.5,0,0.7-0.2,0.7-0.5v-6.5c0-0.3,0-0.5-0.1-0.8c0-0.1-0.1-0.2-0.1-0.3c0,0,0.1-0.1,0.3-0.1L-187.5-347.8z"
				/>
			<path id="Path_41660" class="st1" d="M-181.5-346.8c0.2,0,0.3,0.1,0.3,0.2v4.2c0,0.3,0,0.6,0.2,0.9c0.1,0.2,0.2,0.4,0.4,0.5
				c0.3,0.2,0.6,0.3,0.9,0.3c0.5,0.1,1,0.1,1.5,0.1h4.1c1.9,0,3.8-0.2,5.6-0.5c0.1,0,0.2-0.1,0.3-0.1c0.1,0,0.1,0,0.1,0.1
				c-0.1,0.5-0.3,1-0.3,1.5c0,0.2-0.1,0.3-0.3,0.3h-9.5c-0.4,0-0.8,0-1.2-0.1c-0.4-0.1-0.8-0.2-1.1-0.3c-0.3-0.1-0.6-0.3-0.9-0.5
				c-0.3-0.3-0.5-0.6-0.6-0.9l0-0.1c-0.1,0-0.1,0-0.1,0c-0.8,0.6-1.4,1.3-1.9,2.1c0,0.1-0.1,0.1-0.2,0.1c-0.1,0-0.3-0.3-0.7-0.9
				c-0.1-0.1-0.1-0.2-0.1-0.4c0.9-0.5,1.8-1.1,2.6-1.8c0.1-0.1,0.1-0.3,0.1-0.4v-3.3h-2.2c-0.1,0-0.2-0.1-0.2-0.3v-0.6
				c0-0.2,0.1-0.3,0.2-0.3L-181.5-346.8z M-182.4-350.5c0.5,0.4,0.9,0.8,1.3,1.1c0,0.1,0,0.1-0.1,0.1c-0.2,0.3-0.4,0.5-0.6,0.8
				c-0.6-0.5-1.1-1-1.8-1.4c-0.4-0.3-0.8-0.5-1.3-0.7c0.2-0.3,0.3-0.6,0.6-0.8c0.1-0.1,0.1-0.1,0.1-0.1
				C-183.5-351.3-183-350.9-182.4-350.5L-182.4-350.5z M-182-354.5c0.5,0.4,0.9,0.7,1.2,1c0,0.1-0.1,0.1-0.1,0.1
				c-0.4,0.5-0.6,0.8-0.6,0.8c-0.5-0.5-1.1-0.9-1.6-1.3c-0.4-0.2-0.8-0.5-1.2-0.7c0.2-0.3,0.3-0.6,0.6-0.8c0.1-0.1,0.1-0.1,0.2-0.1
				C-183-355.2-182.5-354.9-182-354.5L-182-354.5z M-174.9-354v-1.4c0-0.1,0.1-0.2,0.3-0.2c0.9,0,1.4,0.1,1.4,0.2
				c0,0.2-0.1,0.3-0.2,0.3c-0.1,0-0.2,0.2-0.2,0.4v0.8h4.9c0.1,0,0.2,0.1,0.2,0.3v0.6c0,0.2-0.1,0.3-0.2,0.3h-4.9v1.4h3.8
				c0.2,0,0.3,0.1,0.3,0.2v4.1c0,0.2-0.1,0.2-0.3,0.2h-3.3c0.2,0.4,0.5,0.7,0.8,1.1c0.4,0.5,0.8,0.9,1.4,1.2
				c0.7,0.5,1.4,0.9,2.2,1.2c0.1,0,0.2,0.1,0.2,0.1c0,0.1,0,0.2-0.1,0.2c-0.3,0.2-0.5,0.4-0.7,0.6c-0.1,0.1-0.1,0.1-0.2,0.1
				c-0.6-0.2-1.1-0.5-1.6-0.9c-0.6-0.4-1.2-0.9-1.7-1.5c-0.3-0.3-0.5-0.6-0.8-1v4.3c0,0.1-0.1,0.2-0.3,0.2h-0.7
				c-0.2,0-0.3-0.1-0.3-0.2v-4.3c0,0.1-0.1,0.1-0.1,0.2c-0.4,0.5-0.8,1-1.3,1.4c-0.5,0.4-1.1,0.8-1.7,1.2c-0.4,0.3-0.8,0.5-1.3,0.6
				c-0.1,0-0.2-0.1-0.2-0.2c-0.2-0.2-0.4-0.4-0.6-0.7c-0.1-0.1-0.1-0.2-0.1-0.2c0.7-0.3,1.4-0.6,2.1-0.9c0.6-0.4,1.2-0.8,1.7-1.3
				c0.3-0.4,0.7-0.8,1-1.2h-3.1c-0.2,0-0.3-0.1-0.3-0.2v-4.1c0-0.2,0.1-0.2,0.3-0.2h3.7v-1.4h-4.7c-0.1,0-0.2-0.1-0.2-0.3v-0.6
				c0-0.2,0.1-0.3,0.2-0.3L-174.9-354z M-174.9-350.3h-2.6v2.2h2.6V-350.3z M-170.8-350.3h-2.8v2.2h2.8L-170.8-350.3z"/>
			<path id="Path_41661" class="st1" d="M-320.9-317.6v-1.2c0-0.1,0.1-0.2,0.3-0.2c0.9,0,1.4,0.1,1.4,0.2s-0.1,0.3-0.2,0.3
				c-0.1,0-0.2,0.1-0.2,0.4v0.5h7.4c0.1,0,0.2,0.1,0.2,0.3v0.6c0,0.2-0.1,0.3-0.2,0.3h-7.4v3.2c0,0.1-0.1,0.2-0.3,0.2h-0.7
				c-0.2,0-0.3-0.1-0.3-0.2v-3.2h-7.3c-0.1,0-0.2-0.1-0.2-0.3v-0.6c0-0.2,0.1-0.3,0.2-0.3L-320.9-317.6z M-324.1-322.4
				c0.3,0.6,0.4,0.9,0.4,1c0,0.1,0,0.1-0.1,0.1c-0.5,0.7-1.1,1.3-1.7,1.9c-0.3,0.3-0.7,0.7-1.1,1c-0.1,0.1-0.1,0.2-0.1,0.3
				c0,0.1-0.1,0.2-0.1,0.2s-0.4-0.3-1-1c-0.1,0-0.1-0.1-0.1-0.2c0-0.1,0-0.1,0.1-0.1c0.4-0.2,0.7-0.4,1.1-0.7c0.5-0.4,1-0.8,1.5-1.3
				c0.4-0.4,0.7-0.8,1.1-1.2c0,0,0.1-0.1,0.1-0.1C-324.2-322.5-324.1-322.5-324.1-322.4L-324.1-322.4z M-319.1-329.4
				c0,0.2-0.1,0.3-0.2,0.3c-0.1,0-0.2,0.1-0.2,0.4v0.9h6.7c0.1,0,0.2,0.1,0.2,0.3v0.6c0,0.2-0.1,0.3-0.2,0.3h-14.8
				c-0.1,0-0.2-0.1-0.2-0.3v-0.6c0-0.2,0.1-0.3,0.2-0.3h6.8v-1.6c0-0.2,0.1-0.2,0.3-0.2C-319.5-329.7-319.1-329.6-319.1-329.4
				L-319.1-329.4z M-325.4-325.4c0.4,0.4,0.8,0.7,1.1,1l-0.1,0.2l-0.6,0.8c-0.5-0.5-1-0.9-1.5-1.3c-0.3-0.3-0.7-0.5-1.1-0.7
				c0.1-0.3,0.3-0.6,0.6-0.8c0.1-0.1,0.1-0.1,0.2-0.1C-326.3-326-325.8-325.7-325.4-325.4L-325.4-325.4z M-319.2-325.9
				c0,0.1,0,0.1,0.1,0.2c0,0.1-0.1,0.2-0.3,0.2c-0.2,0-0.4,0-0.5,0.2c-0.5,0.7-1,1.4-1.4,2c0.3,0.3,0.6,0.6,0.9,0.9
				c0.2-0.2,0.3-0.4,0.5-0.5c0.7-0.8,1.3-1.5,1.8-2.1c0.5,0.3,0.9,0.7,1.3,1.2c0,0.1-0.1,0.1-0.2,0.1c-0.3,0-0.5,0-0.5,0.1
				c-1.1,1.1-2.1,2.2-3.2,3.1c0.9-0.1,1.8-0.1,3-0.3c-0.2-0.3-0.4-0.7-0.6-1c0-0.1,0.3-0.3,0.9-0.6c0.4,0.7,0.8,1.3,1.1,1.9
				c0.3,0.5,0.5,1.1,0.7,1.7c-0.4,0.2-0.8,0.3-1.2,0.4c-0.1-0.5-0.3-1-0.5-1.4c0,0-0.1-0.1-0.1-0.1l-5.8,1.2
				c-0.1,0.2-0.3,0.4-0.5,0.5c-0.2-0.6-0.3-1.1-0.4-1.7c0.5-0.2,1.1-0.3,1.6-0.3c0.6-0.6,1-1,1.4-1.5c-0.6-0.5-1-0.8-1.3-1
				c-0.5-0.3-1-0.5-1.5-0.8c0-0.1,0.2-0.4,0.7-0.9c0-0.1,0.1-0.1,0.1-0.1c0.2,0.2,0.5,0.4,0.7,0.5c0.3-0.4,0.5-0.7,0.7-1.1
				c0.4-0.7,0.7-1.2,0.9-1.5L-319.2-325.9z M-313-325.9c0.2,0.1,0.3,0.2,0.3,0.3s-0.1,0.1-0.2,0.2c-0.2,0-0.3,0.1-0.3,0.1
				c-0.4,0.7-0.9,1.3-1.5,1.8c-0.1,0.1-0.2,0.1-0.3,0.1c-0.1,0-0.2,0-0.3-0.1c-0.3-0.1-0.5-0.2-0.7-0.3c-0.1,0-0.1-0.1-0.1-0.1
				s0-0.1,0.1-0.1c0.4-0.3,0.8-0.7,1.1-1c0.3-0.3,0.6-0.7,0.8-1.1c0-0.1,0.1-0.2,0.2-0.2L-313-325.9z M-313.3-320.3
				c0.3,0.6,0.6,1.1,0.9,1.8c-0.4,0.2-0.8,0.3-1.2,0.3c-0.2-0.5-0.4-1-0.7-1.4c-0.4-0.7-0.9-1.4-1.4-2c0-0.1,0.3-0.3,1-0.6
				C-314.3-321.7-313.8-321-313.3-320.3L-313.3-320.3z"/>
			<path id="Path_41662" class="st1" d="M-304.8-320.1c-0.3,0.5-0.7,1-1.2,1.3l-0.5-0.5c0.7-0.5,1.2-1.3,1.2-2.1h-1.4v-2.2h2.2v2
				C-304.3-321.1-304.5-320.6-304.8-320.1z"/>
			<path id="Path_41663" class="st1" d="M-294.6-329c0,0.1,0,0.1,0.1,0.2c0,0.1-0.1,0.2-0.3,0.2c-0.2,0-0.4,0.1-0.5,0.2
				c-0.7,1.1-1.4,2.2-2,3.1c0.4,0.4,0.8,0.8,1.2,1.2c0.1-0.1,0.2-0.3,0.3-0.5c0.6-1,1.2-1.9,1.6-2.7c0.4,0.3,0.8,0.7,1.2,1.1
				c0,0.1-0.1,0.1-0.2,0.1c-0.3,0-0.4,0.1-0.5,0.2c-1,1.7-1.9,3.2-2.8,4.6c0.7-0.1,1.5-0.2,2.4-0.3c-0.1-0.6-0.3-1.1-0.5-1.7
				c0-0.1,0.3-0.2,0.8-0.5c0.3,0.8,0.6,1.6,0.7,2.3c0.2,0.7,0.3,1.3,0.5,2.1c-0.3,0.2-0.7,0.3-1,0.3c-0.1-0.6-0.2-1.1-0.3-1.7
				l-1.3,0.3v7.3c0,0.1-0.1,0.2-0.3,0.2h-0.7c-0.1,0-0.2-0.1-0.2-0.2c0,0,0,0,0,0v-7l-1.7,0.4c-0.1,0.2-0.3,0.3-0.5,0.4
				c-0.2-0.5-0.3-1-0.4-1.6c0.3-0.1,0.7-0.2,1.1-0.2c0.6-0.8,1.1-1.6,1.5-2.2c-0.6-0.4-1-0.8-1.2-1c-0.4-0.3-0.9-0.6-1.4-0.8
				c0-0.1,0.2-0.4,0.7-0.9c0-0.1,0.1-0.1,0.1-0.1l0.2,0.2c0.4-0.5,0.7-1.1,1-1.6c0.5-0.9,0.9-1.6,1.1-2L-294.6-329z M-297-318.2
				c0,0.1-0.1,0.2-0.1,0.2c-0.1,0.1-0.2,0.2-0.2,0.3c-0.1,1-0.2,1.8-0.3,2.5c-0.1,0.4-0.2,0.7-0.3,1.1c0,0.1-0.1,0.1-0.1,0.1
				c-0.3-0.1-0.7-0.2-1-0.3c-0.1,0-0.1-0.1-0.1-0.2c0.2-0.5,0.3-1,0.5-1.6c0.2-0.8,0.3-1.7,0.3-2.5c0-0.1,0-0.2,0.1-0.2
				C-297.4-318.5-297-318.3-297-318.2L-297-318.2z M-293.8-318.6c0.2,0.8,0.4,2.1,0.7,3.9c0,0.1-0.4,0.2-1,0.3
				c-0.1,0-0.1-0.1-0.1-0.2c-0.1-1.2-0.3-2.5-0.5-3.9c0-0.1,0.3-0.2,0.9-0.3C-293.9-318.8-293.8-318.7-293.8-318.6L-293.8-318.6z
				 M-283-329.1c0.2,0,0.4,0.1,0.4,0.3v14c0,0.6-0.3,1.1-0.8,1.4c-0.6,0.3-1.2,0.5-1.9,0.5c-0.1,0-0.2-0.1-0.2-0.2
				c-0.1-0.4-0.2-0.8-0.4-1.1c0-0.1,0.1-0.1,0.2-0.1c0.6,0.1,1.1,0,1.6-0.2c0.2-0.2,0.3-0.4,0.3-0.7v-12.9h-7.3v14.9
				c0,0.1-0.1,0.2-0.3,0.2h-0.6c-0.2,0-0.3-0.1-0.3-0.2v-15.7c0-0.1,0.1-0.2,0.3-0.2L-283-329.1z M-288.6-325.5
				c0.2,0.4,0.3,0.8,0.5,1.2h0.9c0.5-0.8,1-1.7,1.3-2.6c0-0.2,0.1-0.2,0.1-0.2l0.9,0.4c0.1,0.1,0.2,0.1,0.2,0.2
				c0,0.1-0.1,0.2-0.2,0.2c-0.1,0-0.2,0.1-0.2,0.2c0,0,0,0,0,0c-0.2,0.7-0.5,1.3-0.8,1.9h1.1c0.1,0,0.1,0.1,0.1,0.2v0.6
				c0,0.1-0.1,0.2-0.1,0.2h-2.2v2.8h2.2c0.1,0,0.1,0.1,0.1,0.2v0.6c0,0.2-0.1,0.2-0.1,0.2h-3.9v2.2c0,0.5,0.4,0.8,1.4,0.8h0.7
				c0.6,0,1.3-0.1,1.9-0.3c0,0,0.1,0.1,0.1,0.1c-0.2,0.2-0.3,0.5-0.4,0.8c0,0.2-0.1,0.3-0.3,0.3h-2.4c-1.4,0-2.2-0.4-2.2-1.1v-2.8
				h-0.6c-0.1,0-0.1-0.1-0.1-0.2v-0.6c0-0.2,0-0.2,0.1-0.2h2.3v-2.8h-2.3c-0.1,0-0.1-0.1-0.1-0.2v-0.6c0-0.1,0-0.2,0.1-0.2h1.2
				c-0.1-0.2-0.2-0.4-0.3-0.7c-0.2-0.6-0.5-1.2-0.9-1.7c0-0.1,0.3-0.2,0.8-0.5C-289.1-326.6-288.8-326-288.6-325.5L-288.6-325.5z"/>
			<path id="Path_41664" class="st1" d="M-274.6-328.8c0.2,0,0.3,0.1,0.3,0.2v5.2c0,0.2-0.1,0.2-0.3,0.2h-1.5v3.1h2.1
				c0.1,0,0.2,0.1,0.2,0.3v0.6c0,0.2-0.1,0.3-0.2,0.3h-2.1v3.3c0.8-0.2,1.6-0.4,2.4-0.6c0,0,0.1,0,0.1,0c0.1,0,0.1,0.1,0.1,0.2
				c0,0.4,0,0.7-0.1,1.1c-2,0.5-4,1-6,1.4c-0.2,0.3-0.4,0.5-0.5,0.5c-0.1,0-0.4-0.5-0.7-1.6c0.3,0,0.6-0.1,0.9-0.1v-6.3
				c0-0.1,0.1-0.1,0.2-0.1c0.8,0,1.3,0.1,1.3,0.2s-0.1,0.2-0.1,0.2c-0.1,0-0.1,0.1-0.1,0.3v5.5c0.4-0.1,0.8-0.2,1.2-0.3v-7.9h-2.2
				c-0.2,0-0.3-0.1-0.3-0.2v-5.2c0-0.1,0.1-0.2,0.3-0.2L-274.6-328.8z M-275.6-327.6h-3.1v3.3h3.1V-327.6z M-269.6-329.3
				c0.1,0.1,0.2,0.2,0.2,0.3c0,0.1-0.1,0.2-0.1,0.2c-0.1,0-0.2,0.1-0.2,0.2c0,0,0,0,0,0c-0.1,0.2-0.1,0.4-0.2,0.6h4.4
				c0.1,0,0.2,0.1,0.3,0.1c0.3,0.3,0.4,0.5,0.4,0.6c-0.3,0.8-0.6,1.7-1,2.4c-0.3,0.6-0.7,1.2-1.1,1.8c-0.1,0.1-0.2,0.3-0.4,0.4
				c0.4,0.4,0.9,0.7,1.4,0.9c0.7,0.4,1.5,0.7,2.2,0.8c0.1,0,0.1,0.1,0.1,0.1c0,0.1,0,0.2-0.1,0.2c-0.2,0.2-0.5,0.5-0.7,0.7
				c-0.1,0.1-0.2,0.2-0.2,0.2c-0.1,0-0.2-0.1-0.3-0.1c-0.4-0.2-0.9-0.4-1.4-0.6c-0.6-0.3-1.2-0.6-1.7-1.1c-0.1-0.1-0.2-0.2-0.3-0.3
				l-0.1,0.1c-0.7,0.5-1.4,0.9-2.2,1.2c-0.7,0.3-1.4,0.5-2.1,0.7c-0.2,0-0.3-0.1-0.4-0.2c-0.1-0.2-0.3-0.4-0.4-0.6
				c-0.1-0.1-0.1-0.1-0.1-0.2s0-0.1,0.1-0.1c0.5-0.1,1-0.2,1.6-0.4c0.8-0.3,1.6-0.7,2.4-1.2c0.1-0.1,0.2-0.2,0.3-0.3
				c-0.1-0.1-0.1-0.1-0.1-0.1c-0.4-0.5-0.8-1.1-1-1.7c-0.2-0.4-0.3-0.7-0.4-1.1c-0.2,0.4-0.4,0.7-0.6,1.1c-0.3,0.4-0.6,0.8-0.9,1.2
				c-0.1,0-0.3,0-0.4-0.1c-0.2-0.1-0.5-0.2-0.7-0.3c-0.1,0-0.1-0.1-0.1-0.1c0-0.1,0-0.1,0.1-0.1c0.5-0.6,1-1.3,1.3-2
				c0.2-0.5,0.4-1,0.6-1.5c0.2-0.7,0.4-1.4,0.6-2.1c0-0.1,0.1-0.1,0.1-0.1L-269.6-329.3z M-265.4-319.5c0.2,0,0.3,0.1,0.3,0.2v6
				c0,0.2-0.1,0.2-0.3,0.2h-0.7c-0.2,0-0.3-0.1-0.3-0.2v-0.8h-4.4v0.8c0,0.2-0.1,0.2-0.3,0.2h-0.7c-0.2,0-0.3-0.1-0.3-0.2v-5.9
				c0-0.1,0.1-0.3,0.2-0.3c0,0,0,0,0.1,0L-265.4-319.5z M-266.4-315.2v-3.2h-4.4v3.2H-266.4z M-269.5-325.7c0.2,0.6,0.5,1.2,0.9,1.7
				c0.1,0.1,0.2,0.3,0.3,0.4c0.1-0.1,0.2-0.2,0.3-0.4c0.4-0.5,0.8-1.1,1-1.8c0.2-0.4,0.3-0.8,0.5-1.2h-3.4
				C-269.8-326.5-269.7-326.1-269.5-325.7L-269.5-325.7z"/>
			<path id="Path_41665" class="st1" d="M-256.5-327.1c0.1,0,0.2,0.1,0.2,0.3v0.6c0,0.2-0.1,0.3-0.2,0.3h-5.8
				c-0.1,0-0.2-0.1-0.2-0.3v-0.6c0-0.2,0.1-0.3,0.2-0.3H-256.5z M-256.8-319.1c0.2,0,0.3,0.1,0.3,0.2v5.6c0,0.1-0.1,0.2-0.3,0.2
				h-0.7c-0.2,0-0.3-0.1-0.3-0.2v-0.9h-3.2v0.9c0,0.1-0.1,0.2-0.3,0.2h-0.7c-0.2,0-0.3-0.1-0.3-0.2v-5.6c0-0.2,0.1-0.3,0.3-0.3
				L-256.8-319.1z M-256.9-324.5c0.1,0,0.2,0.1,0.2,0.3v0.6c0,0.2-0.1,0.3-0.2,0.3h-4.7c-0.1,0-0.2-0.1-0.2-0.3v-0.6
				c0-0.2,0.1-0.3,0.2-0.3H-256.9z M-256.9-321.9c0.1,0,0.2,0.1,0.2,0.3v0.6c0,0.2-0.1,0.3-0.2,0.3h-4.7c-0.1,0-0.2-0.1-0.2-0.3
				v-0.6c0-0.2,0.1-0.3,0.2-0.3H-256.9z M-257-329.3c0.1,0,0.2,0.1,0.2,0.3v0.6c0,0.2-0.1,0.3-0.2,0.3h-4.5c-0.1,0-0.2-0.1-0.2-0.3
				v-0.6c0-0.2,0.1-0.3,0.2-0.3H-257z M-257.8-315.3v-2.7h-3.2v2.7H-257.8z M-255.2-328.2c-0.1,0-0.2-0.1-0.2-0.3v-0.6
				c0-0.2,0.1-0.3,0.2-0.3h7.4c0.1,0,0.2,0.1,0.3,0.1c0.1,0.2,0.2,0.4,0.3,0.6c-0.3,1.1-0.6,2.3-0.7,3.5c-0.1,1-0.2,1.9-0.2,2.9
				c0,1.9,0.1,3.9,0.3,5.8c0.2,1.1,0.4,1.7,0.6,1.7c0.2,0,0.3-0.1,0.4-0.3c0.2-0.6,0.4-1.3,0.5-2c0-0.1,0.1-0.1,0.2-0.1
				c0.1,0,0.1,0,0.2,0.1c0.2,0.2,0.4,0.4,0.6,0.5c0.1,0,0.1,0.1,0.1,0.3c-0.2,1-0.6,2-1.2,2.9c-0.2,0.3-0.4,0.4-0.8,0.4
				c-0.3,0-0.7-0.4-1-1.2c-0.4-1.1-0.7-2.2-0.8-3.4c-0.2-1.6-0.3-3.1-0.3-4.7c0-2,0.3-4.1,0.8-6h-3.8v5.6h2c0.1,0,0.2,0.1,0.2,0.3
				v0.6c0,0.2-0.1,0.3-0.2,0.3h-2v8.3c0,0.1-0.1,0.2-0.3,0.2h-0.7c-0.1,0-0.2-0.1-0.2-0.2c0,0,0,0,0-0.1v-8.3h-1.9
				c-0.1,0-0.2-0.1-0.2-0.3v-0.6c0-0.2,0.1-0.3,0.2-0.3h1.9v-5.6L-255.2-328.2z"/>
			<path id="Path_41666" class="st1" d="M-237.6-322.7c0.1,0,0.1,0.1,0.1,0.2v0.6c0,0.2-0.1,0.3-0.1,0.3h-3.2
				c-0.2,0.6-0.5,1.2-0.7,1.7h3.1c0.1,0,0.2,0.1,0.2,0.2c0,1.3-0.1,2.6-0.3,3.8c-0.1,0.7-0.3,1.4-0.7,2.1c-0.3,0.5-1,0.7-2.1,0.7
				c-0.8,0-1.2-0.1-1.2-0.4c-0.1-0.4-0.3-0.7-0.5-1v-0.1c0.6,0.1,1.1,0.2,1.7,0.2c0.4,0.1,0.9-0.1,1.2-0.5c0.3-0.5,0.4-1,0.5-1.5
				c0.1-0.8,0.2-1.7,0.3-2.5h-2.6c-0.1,0.3-0.3,0.6-0.4,0.9c0,0.1-0.1,0.1-0.1,0.1c-0.8-0.2-1.2-0.3-1.2-0.4
				c0.4-0.6,0.8-1.3,1.1-1.9c0.3-0.5,0.5-1,0.6-1.5h-1.7c-0.1,0-0.1-0.1-0.1-0.3v-0.6c0-0.1,0-0.2,0.1-0.2L-237.6-322.7z
				 M-238.4-328.9c0.2,0,0.3,0.1,0.3,0.2v4.5c0,0.1-0.1,0.2-0.3,0.2h-4.4c-0.2,0-0.3-0.1-0.3-0.2v-4.5c0-0.1,0.1-0.2,0.3-0.2H-238.4
				z M-239.3-327.8h-2.5v2.7h2.5V-327.8z M-232-329.5c0,0.2-0.1,0.3-0.2,0.3s-0.2,0.2-0.2,0.4v0.4h4.5c0.1,0,0.1,0.1,0.1,0.2v0.6
				c0,0.2-0.1,0.3-0.1,0.3h-4.5v1.3h4.8c0.2,0,0.3,0.1,0.3,0.2v2.7c0,0.2-0.1,0.2-0.3,0.2h-0.7c-0.1,0-0.2-0.1-0.2-0.2
				c0,0,0,0,0-0.1v-1.8h-7.1v2.5l2-0.4v-1.5c0-0.1,0.1-0.2,0.2-0.2c0,0,0,0,0,0c0.8,0.1,1.2,0.2,1.2,0.3s-0.1,0.2-0.2,0.3v0.9l3-0.6
				c0.1,0,0.1,0.1,0.1,0.2v0.6c0,0.2-0.1,0.3-0.1,0.3l-3,0.6v0.8c0,0.1,0,0.2,0.1,0.2h3.2c0.2,0,0.5-0.4,0.7-1.2l1.1,0.6
				c-0.4,1.2-0.9,1.7-1.5,1.7h-4c-0.6,0-0.9-0.3-0.9-0.8v-1.2l-2,0.4c0,1.4-0.1,2.7-0.3,4.1c-0.1,0.9-0.4,1.7-0.7,2.6
				c-0.2,0.5-0.4,1-0.8,1.5c-0.1,0-0.1,0-0.2,0c-0.2-0.2-0.4-0.3-0.7-0.5c-0.1-0.1-0.1-0.1-0.1-0.2c0.3-0.5,0.6-1.1,0.8-1.7
				c0.2-0.8,0.4-1.6,0.5-2.5c0.1-1.1,0.2-2.2,0.2-3.3v-4.4c0-0.1,0.1-0.2,0.2-0.2h2.9v-3.5c0-0.2,0.1-0.2,0.3-0.2
				C-232.5-329.7-232-329.7-232-329.5L-232-329.5z M-232.4-318.6c0,0.1-0.1,0.2-0.2,0.2c-0.1,0.1-0.2,0.3-0.2,0.5v0.6
				c0,0.4-0.1,0.8-0.1,1.2c-0.1,0.4-0.2,0.9-0.5,1.3c-0.3,0.4-0.6,0.7-0.9,1c-0.4,0.3-0.9,0.6-1.3,0.8c-0.1,0-0.1-0.1-0.2-0.1
				c-0.2-0.2-0.4-0.3-0.6-0.5c-0.1-0.1-0.1-0.1-0.1-0.2c0.5-0.2,0.9-0.4,1.3-0.7c0.3-0.2,0.5-0.4,0.7-0.7c0.2-0.3,0.4-0.7,0.4-1
				c0.1-0.3,0.1-0.7,0.1-1.1v-1.3c0-0.1,0-0.2,0.1-0.2C-233.4-318.8-232.9-318.8-232.4-318.6L-232.4-318.6z M-229.8-318.7
				c0,0.1-0.1,0.2-0.2,0.3v3.7c0,0.1,0,0.2,0.1,0.2h1.2c0.3,0,0.6-0.6,0.8-1.7l1.1,0.6c-0.5,1.4-1,2.2-1.7,2.2h-1.9
				c-0.6,0-0.9-0.3-0.9-0.8v-4.6c0-0.1,0.1-0.2,0.2-0.2C-230.2-318.9-229.8-318.8-229.8-318.7L-229.8-318.7z"/>
			<path id="Path_41667" class="st1" d="M-209.6-328.9c0.1,0,0.2,0.1,0.2,0.3v0.6c0,0.2-0.1,0.3-0.2,0.3h-6.9v0.1l0,1.4h5
				c0.2,0,0.3,0.1,0.3,0.2v7.3c0,0.1-0.1,0.2-0.3,0.2h-0.7c-0.2,0-0.3-0.1-0.3-0.2v-0.5h-4.1c0,0.3-0.1,0.7-0.2,1
				c-0.1,0.7-0.5,1.4-1,1.9c-0.1,0.1-0.1,0.1-0.2,0.2c0.2,0.1,0.4,0.2,0.5,0.3c0.8,0.4,1.6,0.7,2.5,0.9c1.1,0.2,2.1,0.4,3.2,0.5
				c0.9,0.1,1.7,0.1,2.6,0.1c0,0.1-0.1,0.2-0.1,0.3c-0.1,0.3-0.3,0.6-0.4,0.9c0,0.1-0.1,0.2-0.1,0.2c-1.1-0.1-2.1-0.2-3-0.3
				c-0.9-0.1-1.8-0.3-2.6-0.6c-0.9-0.2-1.8-0.6-2.6-1c-0.3-0.1-0.6-0.3-0.9-0.5c-0.2,0.2-0.4,0.3-0.6,0.5c-1,0.6-2,1.1-3.1,1.5
				c-0.5,0.2-1,0.3-1.5,0.3c-0.1,0-0.2-0.1-0.2-0.2c-0.1-0.3-0.3-0.6-0.5-0.9c-0.1,0-0.1-0.1-0.1-0.1c0-0.1,0-0.1,0.1-0.1
				c0.8-0.1,1.7-0.3,2.5-0.6c0.7-0.2,1.4-0.6,2.1-1c0.2-0.1,0.3-0.2,0.5-0.3c-0.5-0.5-1-1.1-1.4-1.7c0.4-0.2,0.7-0.3,1.1-0.4
				c0.3,0.5,0.7,1,1.1,1.4l0,0c0.1,0,0.1-0.1,0.1-0.2c0.4-0.4,0.6-0.8,0.7-1.3c0.1-0.3,0.2-0.6,0.2-0.9h-3.9v0.5
				c0,0.1-0.1,0.2-0.3,0.2h-0.7c-0.2,0-0.3-0.1-0.3-0.2v-7.2c0-0.1,0.1-0.3,0.2-0.3c0,0,0,0,0.1,0h5.1l0-0.9v-0.6h-6.9
				c-0.1,0-0.2-0.1-0.2-0.3v-0.6c0-0.2,0.1-0.3,0.2-0.3L-209.6-328.9z M-217.9-323.2l0-1.8h-4.1v1.8H-217.9z M-217.9-320.4l0-1.7h-4
				v1.7H-217.9z M-216.6-320.4h4.1v-1.7h-4.1L-216.6-320.4z M-216.6-323.2h4.1v-1.8h-4.1L-216.6-323.2z"/>
			<path id="Path_41668" class="st1" d="M-203.4-327.4v2.5h2.1c0.1,0,0.1,0.1,0.1,0.2v0.6c0,0.2-0.1,0.3-0.1,0.3h-2
				c0.2,0.6,0.4,1.2,0.7,1.8c0.4,0.8,0.9,1.5,1.4,2.2c0.1,0,0.1,0.1,0.1,0.2c0,0,0,0.1-0.1,0.1c-0.1,0.2-0.3,0.4-0.5,0.5
				c0,0.1-0.1,0.1-0.2,0.1c-0.1,0-0.2-0.1-0.2-0.1c-0.5-0.6-0.9-1.4-1.2-2.1c-0.1-0.1-0.1-0.2-0.1-0.3v8.3c0,0.1-0.1,0.2-0.3,0.2
				h-0.7c-0.1,0-0.2-0.1-0.2-0.2c0,0,0,0,0-0.1v-7.3c-0.2,0.6-0.4,1.1-0.6,1.5c-0.3,0.7-0.6,1.4-1,2c-0.1,0-0.2,0-0.3-0.1
				c-0.3-0.1-0.5-0.2-0.7-0.3c-0.1,0-0.1,0-0.1-0.1c0.5-0.7,0.9-1.5,1.2-2.3c0.3-0.7,0.5-1.4,0.7-2.1c0.1-0.4,0.3-1.1,0.5-2.1h-2.1
				c-0.1,0-0.1-0.1-0.1-0.3v-0.6c0-0.2,0-0.2,0.1-0.2h2.3v-2c-0.6,0.2-1.2,0.2-1.9,0.2c-0.2,0-0.3-0.1-0.3-0.2
				c-0.1-0.2-0.2-0.5-0.4-0.7c0-0.1,0-0.2,0.1-0.2c0.9,0,1.8-0.1,2.7-0.3c0.9-0.2,1.7-0.7,2.3-1.4c0.1-0.1,0.1-0.1,0.2-0.1
				c0.1,0,0.2,0.1,0.2,0.1c0.3,0.2,0.5,0.5,0.7,0.8c0,0.2-0.1,0.3-0.1,0.3l-0.5-0.1C-202.1-328.1-202.7-327.7-203.4-327.4z
				 M-199.4-316.3c0,0.1-0.1,0.2-0.1,0.2c-0.2,0.1-0.3,0.1-0.3,0.2c-0.1,0.6-0.3,1.2-0.5,1.7c-0.1,0.2-0.3,0.5-0.4,0.7
				c0,0-0.1,0.1-0.2,0.1c-0.3-0.1-0.6-0.2-0.9-0.2c-0.1,0-0.1-0.1-0.1-0.1c0.3-0.4,0.5-0.7,0.7-1.1c0.2-0.5,0.4-1.1,0.5-1.7
				c0-0.1,0.1-0.1,0.2-0.1C-199.8-316.5-199.4-316.3-199.4-316.3L-199.4-316.3z M-191.7-322.5c0.2,0,0.3,0.1,0.3,0.2v1.8h1
				c0.1,0,0.1,0.1,0.1,0.2v0.6c0,0.2-0.1,0.2-0.1,0.2h-1v1.7c0,0.1-0.1,0.2-0.3,0.2h-7.9c-0.1,0-0.1-0.1-0.1-0.2v-0.6
				c0-0.2,0-0.2,0.1-0.2h7v-0.9h-7.8c-0.1,0-0.1-0.1-0.1-0.2v-0.6c0-0.2,0-0.2,0.1-0.2h7.8v-1h-7c-0.1,0-0.1-0.1-0.1-0.2v-0.6
				c0-0.2,0-0.2,0.1-0.2L-191.7-322.5z M-198.1-327.3c0.1,0.2,0.2,0.4,0.4,0.6c0,0.1-0.3,0.1-0.8,0.3h2.9c-0.1-0.1-0.1-0.3-0.2-0.5
				c-0.2-0.3-0.3-0.5-0.5-0.7c0-0.1,0.3-0.3,0.9-0.6c0.2,0.3,0.4,0.6,0.6,0.8c0.1,0.2,0.2,0.5,0.4,0.7c0,0.1-0.3,0.1-0.8,0.3h2.9
				l-0.7-0.4c0.2-0.2,0.5-0.5,0.7-0.7c0.2-0.2,0.3-0.5,0.4-0.8c0,0,0.1-0.1,0.1-0.1l1,0.6c0.1,0.1,0.1,0.1,0.1,0.2
				c0,0-0.1,0.1-0.1,0.1c-0.1,0-0.2,0.1-0.2,0.1c-0.3,0.4-0.6,0.7-0.9,1.1h1.2c0.1,0,0.1,0.1,0.1,0.2v0.6c0,0.1-0.1,0.2-0.1,0.2h-4
				v0.9h4.3c0.1,0,0.1,0.1,0.1,0.2v0.6c0,0.1-0.1,0.2-0.1,0.2h-9.9c-0.1,0-0.1-0.1-0.1-0.2v-0.6c0-0.1,0-0.2,0.1-0.2h4.3v-0.9h-4
				c-0.1,0-0.1-0.1-0.1-0.2v-0.6c0-0.1,0-0.2,0.1-0.2h1.2c-0.1-0.1-0.1-0.3-0.2-0.4c-0.2-0.2-0.3-0.5-0.5-0.7c0-0.1,0.3-0.3,0.9-0.6
				C-198.5-327.7-198.3-327.5-198.1-327.3L-198.1-327.3z M-195.4-328.3c-1.3,0.1-2.6,0.2-4,0.2c-0.1,0-0.2-0.1-0.2-0.2
				c-0.1-0.2-0.2-0.4-0.3-0.6c0-0.1,0-0.2,0.1-0.2c1.5,0,2.9,0,4.4-0.1c1.2-0.1,2.5-0.3,3.6-0.7c0.1,0,0.2-0.1,0.4-0.1
				c0.1,0,0.1,0.1,0.2,0.1c0.2,0.2,0.4,0.5,0.6,0.8c0,0.1-0.1,0.2-0.1,0.2l-0.4-0.1C-192.6-328.6-194-328.4-195.4-328.3
				L-195.4-328.3z M-197.4-317c0.1,0,0.2,0.1,0.2,0.1c0,0.1,0,0.2-0.1,0.2s-0.1,0.1-0.1,0.2v1.6c0,0.5,0.3,0.7,0.9,0.7h2.1
				c0.4,0,0.7,0,1.1-0.2c0.1-0.1,0.3-0.4,0.5-1c0.2,0.3,0.4,0.5,0.7,0.6c0.1,0,0.2,0.1,0.2,0.2c-0.3,0.7-0.6,1-0.7,1.1
				c-0.3,0.2-0.7,0.3-1,0.2h-3.1c-1.3,0-1.9-0.4-1.9-1.2v-2.7c0-0.1,0-0.1,0.1-0.1L-197.4-317z M-194.8-316.4
				c0.3,0.3,0.5,0.6,0.7,0.8l-0.1,0.1c-0.3,0.4-0.5,0.7-0.5,0.7c-0.3-0.4-0.6-0.7-0.9-1c-0.2-0.2-0.4-0.4-0.7-0.5
				c0.1-0.2,0.3-0.4,0.5-0.6c0-0.1,0.1-0.1,0.1-0.1C-195.4-316.9-195.1-316.7-194.8-316.4L-194.8-316.4z M-190.8-316.1
				c0.3,0.3,0.6,0.6,0.8,0.9l-0.1,0.1c-0.3,0.4-0.5,0.7-0.5,0.7c-0.3-0.4-0.7-0.8-1.1-1.1c-0.2-0.2-0.5-0.4-0.8-0.6
				c0.1-0.3,0.3-0.5,0.5-0.7c0-0.1,0.1-0.1,0.1-0.1C-191.4-316.7-191.1-316.4-190.8-316.1L-190.8-316.1z"/>
			<path id="Path_41669" class="st1" d="M-175-324.3c0.1,0,0.2,0.1,0.2,0.3v0.6c0,0.2-0.1,0.3-0.2,0.3h-4.6v3.3h4.3
				c0.1,0,0.2,0.1,0.2,0.3v0.6c0,0.2-0.1,0.3-0.2,0.3h-4.3v3.6c0.1,0,0.3,0.1,0.4,0.1c0.7,0.1,1.8,0.1,3.5,0.1
				c0.7,0,1.9-0.1,3.7-0.2c0,0.1,0,0.2-0.1,0.3c-0.1,0.3-0.2,0.7-0.3,1c0,0.2-0.1,0.3-0.2,0.3h-2.7c-1.6,0-3.1-0.1-4.7-0.3
				c-0.7-0.1-1.3-0.3-1.9-0.6c-0.4-0.2-0.8-0.4-1.1-0.7c-0.4-0.3-0.7-0.7-1-1.1c-0.1-0.1-0.2-0.2-0.3-0.3c-0.1,0.3-0.2,0.5-0.3,0.7
				c-0.7,1.1-1.8,2-3,2.7c-0.1,0-0.2,0-0.3-0.1c-0.2-0.2-0.4-0.4-0.6-0.6c-0.1-0.1-0.1-0.2-0.1-0.3c0-0.1,0.1-0.2,0.2-0.2
				c0.6-0.3,1.2-0.6,1.7-1.1c0.4-0.4,0.8-0.8,1.1-1.3c0.2-0.5,0.4-1,0.6-1.5c0.2-0.8,0.3-1.7,0.3-2.5c0-0.2,0.1-0.3,0.4-0.3l1.3,0.3
				c0.1,0.1,0.2,0.2,0.2,0.3c0,0.2-0.1,0.2-0.3,0.3c-0.1,0.1-0.2,0.2-0.2,0.4c-0.1,0.6-0.2,1.2-0.3,1.8c0.2,0.5,0.4,0.9,0.7,1.3
				c0.2,0.4,0.6,0.7,1,0.9c0.3,0.3,0.7,0.5,1.2,0.6v-7.7h-4.6c-0.1,0-0.2-0.1-0.2-0.3v-0.6c0-0.2,0.1-0.3,0.2-0.3L-175-324.3z
				 M-179.1-329.5c0,0.2-0.1,0.3-0.2,0.3c-0.1,0-0.2,0.2-0.2,0.4v1.4h6.7c0.2,0,0.3,0.1,0.3,0.2v3.7c0,0.1-0.1,0.2-0.3,0.2h-0.7
				c-0.2,0-0.3-0.1-0.3-0.2v-2.8h-12.9v2.8c0,0.1-0.1,0.2-0.3,0.2h-0.7c-0.2,0-0.3-0.1-0.3-0.2v-3.7c0-0.1,0.1-0.3,0.2-0.3
				c0,0,0,0,0.1,0h6.9v-2c0-0.2,0.1-0.2,0.3-0.2C-179.6-329.7-179.1-329.7-179.1-329.5z"/>
		</g>
	</g>
</g>
</svg>
